<svg xmlns="http://www.w3.org/2000/svg" width="62.414" height="62.414" viewBox="0 0 62.414 62.414">
  <g id="agriculture_6739553" transform="translate(-6.086 -6.086)">
    <path id="Path_2349" data-name="Path 2349" d="M371.038,148.144l-.723-25.7h-2.636l-.709,25.25" transform="translate(-316.05 -100.986)" fill="none" stroke="#fff" stroke-linecap="round" stroke-linejoin="round" stroke-width="2"/>
    <path id="Path_2350" data-name="Path 2350" d="M32.052,352.925H60.928A6.549,6.549,0,0,0,67.5,346.4v-6.6a5.482,5.482,0,0,0-5.5-5.474,5.426,5.426,0,0,0-3.558,1.389,7.5,7.5,0,0,0-11.989-.808,5.8,5.8,0,0,0-8.337,2.262,4.482,4.482,0,0,0-7.426.156,7.494,7.494,0,0,0-13.333-1.67,5.78,5.78,0,0,0-4.042-1.681A5.85,5.85,0,0,0,7.5,339.808V346.4a6.549,6.549,0,0,0,6.573,6.523H27.826" transform="translate(0 -285.425)" fill="none" stroke="#fff" stroke-linecap="round" stroke-linejoin="round" stroke-width="2"/>
    <ellipse id="Ellipse_41" data-name="Ellipse 41" cx="5.141" cy="2.969" rx="5.141" ry="2.969" transform="translate(52.267 19.174) rotate(-45)" fill="none" stroke="#fff" stroke-linecap="round" stroke-linejoin="round" stroke-width="2"/>
    <path id="Path_2351" data-name="Path 2351" d="M406.141,142.477a7.112,7.112,0,0,0,.586-5.166A7.092,7.092,0,0,0,398.041,146a7.111,7.111,0,0,0,5.166-.587" transform="translate(-343.086 -113.907)" fill="none" stroke="#fff" stroke-linecap="round" stroke-linejoin="round" stroke-width="2"/>
    <ellipse id="Ellipse_42" data-name="Ellipse 42" cx="6.142" cy="3.547" rx="6.142" ry="3.547" transform="translate(52.765 41.645) rotate(-45)" fill="none" stroke="#fff" stroke-linecap="round" stroke-linejoin="round" stroke-width="2"/>
    <ellipse id="Ellipse_43" data-name="Ellipse 43" cx="2.969" cy="5.141" rx="2.969" ry="5.141" transform="translate(42.233 16.101) rotate(-45)" fill="none" stroke="#fff" stroke-linecap="round" stroke-linejoin="round" stroke-width="2"/>
    <ellipse id="Ellipse_44" data-name="Ellipse 44" cx="3.547" cy="6.142" rx="3.547" ry="6.142" transform="translate(39.811 25.903) rotate(-45)" fill="none" stroke="#fff" stroke-linecap="round" stroke-linejoin="round" stroke-width="2"/>
    <ellipse id="Ellipse_45" data-name="Ellipse 45" cx="3.547" cy="6.142" rx="3.547" ry="6.142" transform="translate(39.489 37.974) rotate(-45)" fill="none" stroke="#fff" stroke-linecap="round" stroke-linejoin="round" stroke-width="2"/>
    <g id="Group_11810" data-name="Group 11810" transform="translate(7.5 7.5)">
      <g id="Group_11806" data-name="Group 11806">
        <path id="Path_2352" data-name="Path 2352" d="M87.431,7.5,89.25,9.319a6.006,6.006,0,0,0,3.516,1.723,9.3,9.3,0,0,0,3.528-.254,4.816,4.816,0,0,1,4.66,1.247l3.465,3.465a2.41,2.41,0,1,1-3.408,3.409l6.6,6.6a2.337,2.337,0,0,1,.006,3.313,2.3,2.3,0,0,1-3.216-.03l1.7,1.7a2.33,2.33,0,0,1,.067,3.252,2.3,2.3,0,0,1-3.276.031l-.753-.753a2.294,2.294,0,0,1-2.953,3.492" transform="translate(-77.853 -7.5)" fill="none" stroke="#fff" stroke-linecap="round" stroke-linejoin="round" stroke-width="2"/>
        <path id="Path_2353" data-name="Path 2353" d="M62.9,173.84A33.87,33.87,0,0,0,67.129,179l5.536,5.536a2.311,2.311,0,0,0,.4.321" transform="translate(-56.262 -153.908)" fill="none" stroke="#fff" stroke-linecap="round" stroke-linejoin="round" stroke-width="2"/>
        <path id="Path_2354" data-name="Path 2354" d="M7.5,87.43l2.877,2.877.267.7a33.99,33.99,0,0,0,1.386,3.149" transform="translate(-7.5 -77.852)" fill="none" stroke="#fff" stroke-linecap="round" stroke-linejoin="round" stroke-width="2"/>
        <line id="Line_87" data-name="Line 87" x1="2.552" y1="2.552" transform="translate(20.605 8.857)" fill="none" stroke="#fff" stroke-linecap="round" stroke-linejoin="round" stroke-width="2"/>
        <line id="Line_88" data-name="Line 88" x1="3.555" y1="3.555" transform="translate(22.995 17.74)" fill="none" stroke="#fff" stroke-linecap="round" stroke-linejoin="round" stroke-width="2"/>
        <line id="Line_89" data-name="Line 89" x1="4.561" y1="4.562" transform="translate(19.73 20.966)" fill="none" stroke="#fff" stroke-linecap="round" stroke-linejoin="round" stroke-width="2"/>
        <line id="Line_90" data-name="Line 90" x1="4.715" y1="4.714" transform="translate(14.022 21.751)" fill="none" stroke="#fff" stroke-linecap="round" stroke-linejoin="round" stroke-width="2"/>
        <line id="Line_91" data-name="Line 91" y1="6.847" x2="6.847" transform="translate(11.742 11.03)" fill="none" stroke="#fff" stroke-linecap="round" stroke-linejoin="round" stroke-width="2"/>
      </g>
      <g id="Group_11807" data-name="Group 11807" transform="translate(16.961 14.92)">
        <path id="Path_2355" data-name="Path 2355" d="M155.183,134.443a1.987,1.987,0,0,0-2.378-2.378,4.885,4.885,0,0,0-3.722,3.787,1.969,1.969,0,0,0,2.313,2.313,4.886,4.886,0,0,0,3.787-3.722Z" transform="translate(-149.043 -132.016)" fill="none" stroke="#fff" stroke-linecap="round" stroke-linejoin="round" stroke-width="2"/>
      </g>
      <g id="Group_11808" data-name="Group 11808" transform="translate(16.563 26.465)">
        <path id="Path_2356" data-name="Path 2356" d="M149.284,228.944a1.987,1.987,0,0,0-3.277.754,4.885,4.885,0,0,0,1.236,5.164,1.969,1.969,0,0,0,3.187-.734,4.885,4.885,0,0,0-1.146-5.185Z" transform="translate(-145.726 -228.365)" fill="none" stroke="#fff" stroke-linecap="round" stroke-linejoin="round" stroke-width="2"/>
      </g>
      <g id="Group_11809" data-name="Group 11809" transform="translate(5.289 30.131)">
        <path id="Path_2357" data-name="Path 2357" d="M56.437,264.477a1.987,1.987,0,0,0,1.668-2.921,4.885,4.885,0,0,0-4.634-2.593,1.969,1.969,0,0,0-1.622,2.84,4.886,4.886,0,0,0,4.588,2.673Z" transform="translate(-51.639 -258.953)" fill="none" stroke="#fff" stroke-linecap="round" stroke-linejoin="round" stroke-width="2"/>
      </g>
    </g>
    <g id="Group_11811" data-name="Group 11811" transform="translate(21.866 51.392)">
      <line id="Line_92" data-name="Line 92" x2="0.043" y2="0.05" transform="translate(3.876 2.214)" fill="none" stroke="#fff" stroke-linecap="round" stroke-linejoin="round" stroke-width="2"/>
      <line id="Line_93" data-name="Line 93" x2="0.043" y2="0.05" transform="translate(0 2.961)" fill="none" stroke="#fff" stroke-linecap="round" stroke-linejoin="round" stroke-width="2"/>
      <line id="Line_94" data-name="Line 94" x2="0.043" y2="0.05" transform="translate(1.611)" fill="none" stroke="#fff" stroke-linecap="round" stroke-linejoin="round" stroke-width="2"/>
    </g>
    <g id="Group_11812" data-name="Group 11812" transform="translate(50.424 51.151)">
      <line id="Line_95" data-name="Line 95" x2="0.043" y2="0.05" transform="translate(3.876 2.214)" fill="none" stroke="#fff" stroke-linecap="round" stroke-linejoin="round" stroke-width="2"/>
      <line id="Line_96" data-name="Line 96" x2="0.043" y2="0.05" transform="translate(0 2.961)" fill="none" stroke="#fff" stroke-linecap="round" stroke-linejoin="round" stroke-width="2"/>
      <line id="Line_97" data-name="Line 97" x2="0.043" y2="0.05" transform="translate(1.611)" fill="none" stroke="#fff" stroke-linecap="round" stroke-linejoin="round" stroke-width="2"/>
    </g>
  </g>
</svg>
