<svg xmlns="http://www.w3.org/2000/svg" width="66.731" height="56.163" viewBox="0 0 66.731 56.163">
  <g id="air-conditioner_8066195" transform="translate(-9 -49.163)">
    <g id="Group_12271" data-name="Group 12271" transform="translate(10 50.163)">
      <path id="XMLID_916_" d="M70.784,81.868H13.947A3.947,3.947,0,0,1,10,77.921V54.11a3.947,3.947,0,0,1,3.947-3.947H70.784a3.947,3.947,0,0,1,3.947,3.947V77.921A3.947,3.947,0,0,1,70.784,81.868Z" transform="translate(-10 -50.163)" fill="none" stroke="#fff" stroke-linecap="round" stroke-linejoin="round" stroke-width="2"/>
      <rect id="XMLID_915_" width="54.163" height="15.853" transform="translate(5.284 15.853)" fill="none" stroke="#fff" stroke-linecap="round" stroke-linejoin="round" stroke-width="2"/>
      <line id="XMLID_911_" x2="54.163" transform="translate(5.284 26.421)" fill="none" stroke="#fff" stroke-linecap="round" stroke-linejoin="round" stroke-width="2"/>
      <line id="XMLID_896_" x2="54.163" transform="translate(5.284 21.137)" fill="none" stroke="#fff" stroke-linecap="round" stroke-linejoin="round" stroke-width="2"/>
      <rect id="XMLID_876_" width="38.31" height="5.284" transform="translate(13.21)" fill="none" stroke="#fff" stroke-linecap="round" stroke-linejoin="round" stroke-width="2"/>
      <line id="XMLID_866_" transform="translate(48.879 10.568)" fill="none" stroke="#fff" stroke-linecap="round" stroke-linejoin="round" stroke-width="2"/>
      <line id="XMLID_863_" transform="translate(54.163 10.568)" fill="none" stroke="#fff" stroke-linecap="round" stroke-linejoin="round" stroke-width="2"/>
      <line id="XMLID_830_" transform="translate(59.447 10.568)" fill="none" stroke="#fff" stroke-linecap="round" stroke-linejoin="round" stroke-width="2"/>
      <path id="XMLID_826_" d="M376.49,331.306v13.21a3.963,3.963,0,0,0,3.963,3.963h0a3.963,3.963,0,0,0,3.963-3.963V343.2" transform="translate(-328.272 -294.317)" fill="none" stroke="#fff" stroke-linecap="round" stroke-linejoin="round" stroke-width="2"/>
      <path id="XMLID_822_" d="M83.191,331.306v13.21a3.963,3.963,0,0,1-3.963,3.963h0a3.963,3.963,0,0,1-3.963-3.963V343.2" transform="translate(-66.678 -294.317)" fill="none" stroke="#fff" stroke-linecap="round" stroke-linejoin="round" stroke-width="2"/>
      <line id="XMLID_819_" y2="13.21" transform="translate(40.292 36.989)" fill="none" stroke="#fff" stroke-linecap="round" stroke-linejoin="round" stroke-width="2"/>
      <line id="XMLID_816_" y2="13.21" transform="translate(32.366 36.989)" fill="none" stroke="#fff" stroke-linecap="round" stroke-linejoin="round" stroke-width="2"/>
      <line id="XMLID_814_" y2="13.21" transform="translate(24.439 36.989)" fill="none" stroke="#fff" stroke-linecap="round" stroke-linejoin="round" stroke-width="2"/>
    </g>
  </g>
</svg>
