<svg xmlns="http://www.w3.org/2000/svg" width="22.97" height="31" viewBox="0 0 22.97 31">
  <g id="award_12958425" transform="translate(-79.01 -14.5)">
    <g id="Group_12856" data-name="Group 12856" transform="translate(79.51 33.196)">
      <path id="Path_10164" data-name="Path 10164" d="M83.383,307.35l-3.873,8.929,4.514-1.333,2.112,4.207,3.777-8.706" transform="translate(-79.51 -307.35)" fill="none" stroke="#ab8f72" stroke-linecap="round" stroke-linejoin="round" stroke-width="1"/>
      <path id="Path_10165" data-name="Path 10165" d="M271.87,307.35l3.873,8.929-4.514-1.333-2.112,4.207-3.777-8.706" transform="translate(-253.774 -307.35)" fill="none" stroke="#ab8f72" stroke-linecap="round" stroke-linejoin="round" stroke-width="1"/>
    </g>
    <g id="Group_12857" data-name="Group 12857" transform="translate(80.22 15)">
      <path id="Path_10166" data-name="Path 10166" d="M103.017,15.891h0a2.308,2.308,0,0,0,2.462.8h0a2.308,2.308,0,0,1,2.947,2.141h0a2.308,2.308,0,0,0,1.521,2.094h0a2.308,2.308,0,0,1,1.126,3.464h0a2.308,2.308,0,0,0,0,2.588h0a2.308,2.308,0,0,1-1.126,3.464h0a2.308,2.308,0,0,0-1.521,2.094h0a2.308,2.308,0,0,1-2.947,2.141h0a2.308,2.308,0,0,0-2.462.8h0a2.308,2.308,0,0,1-3.643,0h0a2.308,2.308,0,0,0-2.461-.8h0a2.308,2.308,0,0,1-2.947-2.141h0a2.308,2.308,0,0,0-1.521-2.094h0a2.308,2.308,0,0,1-1.126-3.464h0a2.308,2.308,0,0,0,0-2.588h0a2.308,2.308,0,0,1,1.126-3.464h0a2.308,2.308,0,0,0,1.521-2.094h0a2.308,2.308,0,0,1,2.947-2.141h0a2.308,2.308,0,0,0,2.461-.8h0A2.308,2.308,0,0,1,103.017,15.891Z" transform="translate(-90.921 -15)" fill="none" stroke="#ab8f72" stroke-linecap="round" stroke-linejoin="round" stroke-width="1"/>
    </g>
    <g id="Group_12861" data-name="Group 12861" transform="translate(88.399 21.841)">
      <g id="g33" transform="translate(0)">
        <path id="path35" d="M0,0H1.4a2.1,2.1,0,0,1,0,4.192H0" fill="none" stroke="#ab8f72" stroke-linecap="round" stroke-linejoin="round" stroke-width="1"/>
      </g>
      <g id="g37" transform="translate(0 2.096)">
        <path id="path39" d="M0,0H4.192" fill="none" stroke="#ab8f72" stroke-linecap="round" stroke-linejoin="round" stroke-width="1"/>
      </g>
      <g id="g41" transform="translate(0)">
        <path id="path43" d="M0,0H4.192" fill="none" stroke="#ab8f72" stroke-linecap="round" stroke-linejoin="round" stroke-width="1"/>
      </g>
      <g id="g45" transform="translate(0 4.192)">
        <path id="path47" d="M0,0,2.795,3.493" fill="none" stroke="#ab8f72" stroke-linecap="round" stroke-linejoin="round" stroke-width="1"/>
      </g>
    </g>
  </g>
</svg>
