<svg xmlns="http://www.w3.org/2000/svg" width="141.692" height="260.768" viewBox="0 0 141.692 260.768">
  <g id="g3528" transform="translate(-155.862 682.666)">
    <g id="g3530" transform="translate(192.605 -580.046)">
      <path id="path3532" d="M-76.4,0h-26.234l-20.987,118.795h68.208Z" transform="translate(123.621)" fill="#5cc6d0"/>
    </g>
    <g id="g3534" transform="translate(155.862 -682.665)">
      <g id="Group_12953" data-name="Group 12953" transform="translate(0 0)">
        <g id="g3542" transform="translate(36.742 155.751)">
          <path id="path3544" d="M-91.587,0a22.81,22.81,0,0,1-22.5,19.107A22.81,22.81,0,0,1-136.594,0l-11.6,65.664h68.208Z" transform="translate(148.194)" fill="#f174a8"/>
        </g>
        <g id="g3546" transform="translate(23.625 197.804)">
          <path id="path3548" d="M-127.334,0H-190.3a15.74,15.74,0,0,0-15.74,15.741V47.221h94.442V15.741A15.74,15.74,0,0,0-127.334,0" transform="translate(206.036)" fill="#5cc6d0"/>
        </g>
        <g id="g3550" transform="translate(23.625 197.804)">
          <path id="path3552" d="M-93.378,0h-41.975a15.741,15.741,0,0,0-15.74,15.741V47.221h41.975V15.741A15.74,15.74,0,0,1-93.378,0" transform="translate(151.093)" fill="#f174a8"/>
        </g>
        <g id="g3554" transform="translate(0)">
          <path id="path3556" d="M-139.182-15.266l8.779,17.79a16.928,16.928,0,0,0,12.745,9.259l19.632,2.853a16.926,16.926,0,0,1,9.381,28.872l-14.206,13.848a16.927,16.927,0,0,0-4.868,14.982l3.353,19.552a16.927,16.927,0,0,1-24.56,17.844l-17.559-9.232a16.927,16.927,0,0,0-15.753,0l-17.559,9.232a16.927,16.927,0,0,1-24.56-17.844L-201,72.337a16.926,16.926,0,0,0-4.868-14.982l-14.206-13.848A16.927,16.927,0,0,1-210.7,14.635l19.632-2.853a16.927,16.927,0,0,0,12.745-9.259l8.78-17.79a16.926,16.926,0,0,1,30.357,0" transform="translate(225.207 24.702)" fill="#5cc6d0"/>
        </g>
        <g id="g3558" transform="translate(0 0.002)">
          <path id="path3560" d="M-194.388-182.07a70.868,70.868,0,0,1-49.3-67.5,70.512,70.512,0,0,1,12.251-39.824,16.952,16.952,0,0,0-27.43,4.224l-8.779,17.79a16.928,16.928,0,0,1-12.745,9.26l-19.632,2.852A16.927,16.927,0,0,0-309.4-226.4l14.206,13.847a16.927,16.927,0,0,1,4.868,14.982l-3.353,19.553a16.927,16.927,0,0,0,24.56,17.844l17.559-9.232a16.927,16.927,0,0,1,15.753,0l17.559,9.232a16.927,16.927,0,0,0,24.56-17.844Z" transform="translate(314.534 294.603)" fill="#f174a8"/>
        </g>
        <g id="g3562" transform="translate(7.885 239.778)">
          <path id="path3564" d="M-186.756-33.956H-291.692a10.494,10.494,0,0,1-10.494-10.494,10.494,10.494,0,0,1,10.494-10.493h104.936a10.494,10.494,0,0,1,10.494,10.493,10.494,10.494,0,0,1-10.494,10.494" transform="translate(302.186 54.943)" fill="#5cc6d0"/>
        </g>
        <g id="g3566" transform="translate(7.885 239.778)">
          <path id="path3568" d="M-67.912-16.978h0A10.494,10.494,0,0,1-57.418-27.472H-99.393a10.494,10.494,0,0,0-10.494,10.494A10.494,10.494,0,0,0-99.393-6.484h41.975A10.494,10.494,0,0,1-67.912-16.978" transform="translate(109.886 27.472)" fill="#f174a8"/>
        </g>
        <g id="g3570" transform="translate(38.081 63.186)">
          <path id="path3572" d="M0,0V6.3" fill="none" stroke="#fff" stroke-linecap="round" stroke-linejoin="round" stroke-width="5"/>
        </g>
        <g id="g3574" transform="translate(103.612 63.186)">
          <path id="path3576" d="M0,0V6.3" fill="none" stroke="#fff" stroke-linecap="round" stroke-linejoin="round" stroke-width="5"/>
        </g>
        <g id="g3578" transform="translate(62.208 69.295)">
          <path id="path3580" d="M0,0A11.429,11.429,0,0,0,8.638,3.935,11.429,11.429,0,0,0,17.277,0" fill="none" stroke="#fff" stroke-linecap="round" stroke-linejoin="round" stroke-width="5"/>
        </g>
        <g id="g3582" transform="translate(44.612 218.577)">
          <path id="path3584" d="M0,0H52.468" fill="none" stroke="#fff" stroke-linecap="round" stroke-linejoin="round" stroke-width="5"/>
        </g>
      </g>
    </g>
  </g>
</svg>
