<svg xmlns="http://www.w3.org/2000/svg" width="1921" height="153.822" viewBox="0 0 1921 153.822">
  <path id="Intersection_1" data-name="Intersection 1" d="M0,152.809V52.15c9.253-1.723,19.061.008,26.336,5.907.347-15.666,10.259-30.171,23.555-38.4s29.516-10.729,45.1-9.6c17.172,1.244,34.18,7.866,47.019,19.5C157.1,43.24,159.727,61.342,158.6,81.21a70.267,70.267,0,0,1,10.107-1.286h.013q1.615-.079,3.227-.058c.384,0,.768.016,1.151.03.557.02,1.111.047,1.665.088q.938.068,1.869.177c.3.035.593.069.89.112q1.238.173,2.465.427c.188.039.375.085.563.127.9.2,1.788.427,2.67.7A28.955,28.955,0,0,1,199.2,94.045c4.481,7.021,6.695,15.9,7.138,24.71a33.215,33.215,0,0,1,12.639-7.207c12.061-3.623,25.176-1.02,36.89,3.609h0l0-.013c.29-1.078.636-2.138,1.006-3.189.1-.3.214-.589.324-.882q.48-1.28,1.036-2.531c.094-.212.179-.427.277-.639.456-.986.95-1.957,1.474-2.915.163-.3.337-.591.506-.886q.6-1.048,1.253-2.071c.2-.318.4-.637.609-.951.581-.869,1.183-1.728,1.817-2.568.244-.325.5-.639.757-.959.437-.555.882-1.1,1.341-1.645.332-.391.667-.78,1.01-1.165.439-.49.891-.97,1.347-1.449q.907-.953,1.858-1.869c.4-.387.8-.775,1.214-1.153.478-.438.965-.867,1.457-1.293.336-.29.676-.575,1.019-.858,1.214-1.009,2.459-1.985,3.747-2.916l.009-.006c.618-.447,1.249-.876,1.883-1.3q.417-.282.84-.559a75.466,75.466,0,0,1,19.56-9.128c12.288-3.684,25.267-4.071,36.474-.068a48.233,48.233,0,0,1,27.915,27.413,57.7,57.7,0,0,1,23.356,8.917c.246-.466.5-.925.757-1.387q.543-.993,1.1-1.974.629-1.1,1.284-2.178c.407-.676.814-1.349,1.235-2.016s.859-1.327,1.3-1.987c.458-.693.913-1.388,1.385-2.07.4-.578.818-1.144,1.23-1.714.533-.739,1.059-1.484,1.609-2.21.153-.2.314-.395.468-.594q2.342-3.051,4.878-5.932c.142-.161.278-.327.42-.488.762-.857,1.547-1.691,2.334-2.523.288-.3.572-.616.863-.917.774-.8,1.563-1.58,2.359-2.356.317-.31.632-.622.954-.928q1.208-1.153,2.449-2.264.479-.43.961-.855,1.278-1.125,2.587-2.209c.294-.243.591-.481.886-.722.919-.745,1.845-1.479,2.785-2.194.223-.17.451-.334.675-.5,24.9-18.635,57.094-26.628,88.776-16.884C521.781,24.751,552.75,2.357,585.857.177s66.729,15.96,83.163,44.871c19.389-14.081,48.524-8.132,65.281,9.015a66.62,66.62,0,0,1,8.705,11.1.046.046,0,0,0,.008.012c1.168,1.856,2.242,3.769,3.241,5.725.1.189.2.374.295.563.413.827.8,1.666,1.189,2.509.164.359.328.717.487,1.078q.538,1.225,1.038,2.467c.153.382.3.767.446,1.151.323.844.645,1.687.944,2.542.072.209.136.42.207.63q.876,2.578,1.594,5.216c.123.444.252.885.367,1.331.2.758.374,1.52.551,2.283.136.58.269,1.16.394,1.743q.231,1.077.439,2.159c.128.663.244,1.331.358,2s.232,1.324.332,1.989c.147.968.274,1.939.394,2.911q.128,1.019.236,2.038c.106,1.008.206,2.015.285,3.024.042.532.072,1.064.107,1.6q.086,1.316.144,2.632.033.792.057,1.584c.028.934.042,1.868.048,2.8,0,.45.011.9.009,1.349-.007,1.374-.031,2.745-.083,4.111h0a39.214,39.214,0,0,1,12.576-3.391q1.3-.13,2.612-.176a41.845,41.845,0,0,1,10.41.936A39.608,39.608,0,0,1,796,124.2a41.982,41.982,0,0,1,13.452,14.744,28.809,28.809,0,0,1,1.249,2.8c.052.136.095.273.144.409.393-.391.779-.787,1.174-1.173.306-.3.61-.6.917-.894q1.163-1.109,2.358-2.179.457-.411.918-.818,1.228-1.081,2.486-2.123c.284-.236.57-.467.857-.7.881-.714,1.769-1.419,2.671-2.1.217-.165.437-.324.655-.487.984-.737,1.974-1.463,2.981-2.165,23.49-16.354,53.148-23.041,82.345-14.06C920.253,85.822,950.019,64.3,981.84,62.2s64.14,15.342,79.936,43.131a41.292,41.292,0,0,1,25.183-7.54c8.618-7.4,19.792-11.034,31.682-7.931a39.873,39.873,0,0,1,10.211,4.283c2.209-14.261,9.228-28.275,21.172-36.323s29.122-8.836,40.313.237c.346-15.666,10.259-30.171,23.555-38.4s29.516-10.729,45.1-9.6c17.171,1.244,34.18,7.866,47.019,19.5,15.092,13.678,17.72,31.78,16.59,51.648a70.3,70.3,0,0,1,10.108-1.286h.013q1.615-.079,3.227-.058c.384,0,.767.016,1.151.03.556.02,1.11.047,1.665.088q.937.068,1.869.177c.3.035.593.069.889.112q1.241.173,2.466.427c.188.039.375.085.564.127.9.2,1.788.427,2.67.7A28.951,28.951,0,0,1,1363.2,94.045c4.482,7.021,6.7,15.9,7.139,24.71a33.218,33.218,0,0,1,12.639-7.207c12.061-3.623,25.176-1.02,36.891,3.609h0l0-.013c.29-1.078.635-2.138,1.005-3.189.1-.3.214-.589.323-.882q.481-1.28,1.036-2.531c.094-.212.179-.427.277-.639.456-.986.95-1.957,1.474-2.915.163-.3.337-.591.505-.886q.6-1.048,1.252-2.071c.2-.318.4-.637.609-.951.581-.869,1.184-1.728,1.817-2.568.245-.325.5-.639.757-.959.437-.555.881-1.1,1.34-1.645.332-.391.667-.78,1.011-1.165.439-.49.891-.97,1.347-1.449q.906-.953,1.858-1.869c.4-.387.8-.775,1.214-1.153.477-.438.964-.867,1.457-1.293.336-.29.677-.575,1.019-.858,1.214-1.009,2.459-1.985,3.747-2.916l.009-.006c.618-.447,1.249-.876,1.883-1.3q.417-.282.839-.559a75.473,75.473,0,0,1,19.561-9.128c12.288-3.684,25.266-4.071,36.474-.068a48.229,48.229,0,0,1,27.915,27.413,57.7,57.7,0,0,1,23.356,8.917c.247-.466.505-.925.758-1.387q.543-.993,1.1-1.974.628-1.1,1.283-2.178c.408-.676.815-1.349,1.235-2.016s.86-1.327,1.3-1.987c.458-.693.912-1.388,1.384-2.07.4-.578.819-1.144,1.23-1.714.533-.739,1.059-1.484,1.609-2.21.152-.2.313-.395.467-.594q2.342-3.051,4.879-5.932c.142-.161.277-.327.42-.488.762-.857,1.547-1.691,2.334-2.523.288-.3.571-.616.862-.917.774-.8,1.564-1.58,2.358-2.356.318-.31.633-.622.954-.928q1.207-1.153,2.449-2.264.479-.43.96-.855,1.279-1.125,2.588-2.209c.293-.243.59-.481.885-.722.919-.745,1.844-1.479,2.784-2.194.224-.17.451-.334.675-.5,24.9-18.635,57.095-26.628,88.775-16.884,12.526-30.818,43.494-53.213,76.6-55.392s66.727,15.96,83.161,44.871c19.389-14.081,48.525-8.132,65.281,9.015a66.619,66.619,0,0,1,8.706,11.1l.007.012c1.168,1.856,2.242,3.769,3.241,5.725.1.189.2.374.295.563.414.827.8,1.666,1.189,2.509.164.359.329.717.488,1.078q.537,1.225,1.038,2.467c.153.382.3.767.446,1.151.323.844.646,1.687.944,2.542.073.209.135.42.207.63q.875,2.578,1.593,5.216c.123.444.251.885.367,1.331.2.758.375,1.52.552,2.283.136.58.268,1.16.393,1.743q.231,1.077.439,2.159c.128.663.244,1.331.358,2s.231,1.324.332,1.989c.147.968.274,1.939.4,2.911q.125,1.019.235,2.038c.107,1.008.206,2.015.285,3.024.042.532.073,1.064.108,1.6q.044.681.081,1.361v43.317Z" transform="translate(0.5 0.514)" fill="#fff" stroke="rgba(0,0,0,0)" stroke-width="1"/>
</svg>
