<svg xmlns="http://www.w3.org/2000/svg" width="280.001" height="332.521" viewBox="0 0 280.001 332.521">
  <path id="Path_7" data-name="Path 7" d="M412.223-390.249c-4.376,4.542-2.71,7.252-2.71,7.252,2.157,5.931,12.372,4.9,12.372,4.9,1.192-13.927,8.918-16.631,8.918-16.631-.731-3.436-5.114-.461-5.114-.461-.258-7.99,4.628-5.962,4.628-5.962,6.158,1.862,17.578,8.641,17.578,8.641-.086,7.639,4.105,8.567,4.105,8.567,4.825,1.666,6.386-.928,6.386-.928,1.862-3.927,5.98-.94,5.98-.94-2.065-3.325-9.317-6.773-9.317-6.773-2.04.645-2.772,4.265-2.772,4.265-1.875-1.574-.111-5.193-.111-5.193-1.666-.559-3.239-.959-3.239-.959-1.2-8.168,9.944-6.048,21.277,2.25,7.412,5.4,18.413-.363,18.413-.363,1.217,7.418-8.991,5.4-8.991,5.4-10.467-1.678-10.811,3.6-10.811,3.6,22.666-1.948,24.067,7.719,24.067,7.719-5.138-3.718-7.639-.185-12,5.31-4.37,5.464-15.144,1.278-15.144,1.278,7.879,3.436,11.161,12.931,11.161,12.931-5.034,2.034-10.313-3.27-10.313-3.27a11.949,11.949,0,0,1-2.046,8.543,11.688,11.688,0,0,0-2.335,8.193c-.9-1.414-2.784-3-2.526-6.693a11.392,11.392,0,0,0-1.838-6.773c-.565,6.011-9.84,12.722-9.84,12.722-2.243-5.3,2.4-10.319,2.4-10.319-6.687,2.981-10.208,2.594-10.208,2.594,4.818-4.253,2.028-11.6,2.028-11.6-1.358.719-2.87,7.615-2.87,7.615h-.332s-4.947-.5-8.629,1.819a7.594,7.594,0,0,0,1.34-2.79s-6.674-.2-10.368,3.263a7.411,7.411,0,0,0,1.217-3.263s-8.506.861-10.436,2.889l-.565.412c5.052-6.982,7.492-18.776,7.492-18.776-3.884,1.032-14.566-1.026-14.369-9.379s7.523-9.1,7.523-9.1M404.51-333.4c1.721-4.96,9.539-7.676,15.672-7.338,0,0-5.949-2.2-4.253-9.539,0,0,4.425,13.791,19.581.682,0,0,2.563,4.419,8.5,2.372,0,0-1,6.484,3.583,10.067a14.641,14.641,0,0,1,5.992-6.127c2.551-1.487,3.325-2.342,3.583-3.11.061,2.207,1.032,6.054,6.791,8.033,0,0,.51-7.314,3.559-9.182,3.073-1.9,2.4-4.265,2.046-5.956a13.206,13.206,0,0,0,11.075.658s0-7.467-3.921-12.6a18.035,18.035,0,0,0,8.862-4.585c3.761-3.755,4.941.5,4.941,4.253s-3.239,13.964,2.55,17.879c0,0-5.728-1.278-7.166-6.773.473,2,2,9.262-.326,15.807-2.747,7.664-8.862,12.427-8.365,19.569.528,7.154-1.512,8.358-1.7,10.215a23.681,23.681,0,0,0-1.346-9.692c-1.721-4.886-3.755-8.3-3-10.676a19.657,19.657,0,0,0,.277,14.062c3.208,8.192,2.034,19.44-.51,30.152,0,0-.695-3.067-5.974-9.213,0,0,3.411,10.424,2.213,17.731a14.528,14.528,0,0,0,.338,5.962s-6.816-14.978-12.064-21.806c-5.316-6.8-10.577-13.447-5.126-23.336,0,0-5.611,7.836-20.269,11.094-14.652,3.2-15.678,4.917-17.356,7.308,0,0,2.366-10.565,18.389-17.891,0,0-18.733,3.417-28.8,16.188a27.39,27.39,0,0,1,2.6-13,50.4,50.4,0,0,1-6.17,7.541s-8.15,8.887-26.563,7.67a22.245,22.245,0,0,0,15.691-7.67c6.459-7.652,5.759-8.309,10.374-9.686a35.369,35.369,0,0,1-12.919-1.708s14.271-4.579,21.252-11.4a22.705,22.705,0,0,1,3.829-4c-3.878,2-10.264,5.12-12.323,5.347a14.083,14.083,0,0,0,6.447-7.3m-33.415-58.516c2.047,0,3.233.473,3.995,1.229-1.106-2.667-1.813-6.25,1.623-8.033,0,0-1.813-7.418-5.98-6.263,0,0,2.563-4.167,10.817,3.915-1.438,5.882,3.233,7.971,3.233,7.971-3.134-2.563-.725-7.424-.725-7.424,2.194-3.6,2.243-4.634,2.243-4.634s0-5.126-3.97-4.96a4.127,4.127,0,0,1,5.949,1,29.335,29.335,0,0,0,3.774,5.285s4.806,2.323,3.171,8.586c0,0,3.46-2.987,1.475-9.09,0,0,10.737,6.773-1.162,25.616a31.619,31.619,0,0,1-.313,14.05s-3.8,9.581-.528,18.014c3.343,8.408-.461,11.222,2.987,14.867,0,0-1.481,9.582-18.339,15.039,0,0,0,4.45,9.434,5.605a13.633,13.633,0,0,1-8.936,6.631,8.543,8.543,0,0,1-10.589-9.108c.694-5.1,2.477-5.1,2.477-8.088,0-2.292-3.97-9.213-1.782-20.226-1.579-.946-4.5-1.567-9.114,1.266,0,0,1.192-6.318,10.762-7.154a33.344,33.344,0,0,1,1.5-3.62c-2.889-3.423-7.689-10.946-2.852-19.157,0,0,.781,8.555,6.017,12.194,5.267-12.814,3.608-18.34,1.592-21.96,0,0-7.117,1.991-6.927-8.273,0,0-3.773-.326-5.445,1.143,0,0,1.168-4.419,5.617-4.419m30.084,195.982a28.911,28.911,0,0,1-5.722,3.952c-3.091,1.549-5.4,2.815-4.726,9.588.609,6.791,0,13.447-5.021,12.286,0,0-6.238-2.3-7.031,5.255,0,0-.608,4.48,3.337,6.386,0,0-11.505,4.093-11.382-6.14a2.933,2.933,0,0,0-2.188-3.454c-.406-.129-1.211-.522-2.354-1-3.43-.953-6.2,4.278-6.508,5-5.323,8.162-12.943,4.892-12.943,4.892,5.593-1.469,8.309-6.638,9.1-7.891.744-1.266.485-5.046-2.864-2.034a6.965,6.965,0,0,1-7.332,1.119c3.774-.486,4.044-3.147,4.044-3.147a5.054,5.054,0,0,0-2.207-4.567c-3.522-1.954-9.68-1.34-12.55.461,0,0-2.827,2.034-6.927-1.131,0,0-4.118-3.97-1.911-7.424,0,0-4.339.393-5.4,8.315,0,0-7.3-16,12.292-14.283,0,0-5.261-3.94-13.4-.94,0,0-1.051-1.672,1.758-5.63,0,0-6.257-.51-9.951,1.659a13.9,13.9,0,0,1,12.022-6.508s2.169-2.7,7.934-2.7c0,0,.35-4.357-6.668-4.855,0,0,5.869-4.745,12.808,2.04a15.044,15.044,0,0,1,4.327,7.4s0-6.509-2.79-10.479c0,0,6.9,1.8,8.285,7.3,0,0-5.347,3.823.891,11.493,0,0,9.723,8.967,21.486,2.053,0,0,6.422-3.958,7.664-15.863,0,0-5.851,2.95-13.663-1.77,0,0,8.426.756,11.395-5.771,2.938-6.521,1.659-2.821,2.44-6.521.762-3.706-8.193-1.512-6.668-8.432,0,0,2.692,4.978,12.544.762,0,0,3.313-10.246,10.59-8.31,7.289,1.911,6.662.523,11.3-.387,0,0,15.389-4.7,32.672,11.683,0,0,4.253,4.984.609,14.713a19.842,19.842,0,0,1-6.773,7.775,13.415,13.415,0,0,0-5.3,9.563s-3.964.393-9.956-3.46c-6.048-3.829-8.973-8.936-15.254-1M554.01-334.167a58.639,58.639,0,0,1-7.541,25.96c-9.581,16.987,3.694,32.961,3.694,32.961s-22.973-15.715-6.269-39.094c14.259-19.962.694-31.805.694-31.805s7.775,18.671-7.264,28.247c-7.848,4.99-16.692-2-16.692-2s4.573,6.226,11.407,5.986a15.585,15.585,0,0,0,12.286-6.263s-1.561,9.686-11.284,9.686c-16.355,0-14.117-14.836-14.117-14.836s8.764,9.428,16.969,2.71c8.574-7.006,10.577-24.946-8.567-24.946h-.455c-33.44,3.872-11.493,50.176-11.493,50.176,5.636,8.893,11.265,25.942,11.265,25.942,9.723-4.775,15.7,4.591,15.7,4.591-11.075-7.142-10.577,5.292-10.577,5.292.326,16.367,6.275,16.029,6.275,16.029,14.5-1.868,17.239,6.5,17.239,6.5-1.555-1.211-2.028-2.415-9.194-1.211s-9.385,3.061-4.1,23.533-6.625,37.853-6.625,37.853a28.293,28.293,0,0,1-14.093,9.053c-.037,0-.074.025-.111.025a36.711,36.711,0,0,1-4.419,1.026c-7.043,1.383-7.191,4.861-7.191,4.861a16.073,16.073,0,0,1-4.106,8.137c3.632-7.529-5.126-13.134-6.994-14.228-13.736-6.269-24.233-26.974-24.233-26.974.719,6.22,1.536,16.041-8.432,27.386-9.981,11.37-1.389,25.678,5.888,30.14,7.215,4.468,1.18,10.165,1.18,10.165-9.139,14.3,9.311,14.805,9.311,14.805-5.175,6.884-10.835,3.46-12.575,2.434-3.2-1.923-5.716-10.528-6.533,3.251-.891,13.748-3.632,16.188-3.632,16.188a18.746,18.746,0,0,0-1.217-8.082c-1.2-6.551-5.009-1.026-5.5,3.78a6.243,6.243,0,0,1-4.493,5.691c3.632-11.892-4.972-5.353-9.981,3.62-5,8.955-10.675,7.738-11.892,5.15a4.268,4.268,0,0,0-3.257-2.735c-2.766.154-3.436,6.711-3.436,6.711-5.839-8.094,4.984-17.571,4.984-17.571-3.62,0-4.486,1.887-8.266,7.566-3.761,5.691-4.142-5.679-4.142-5.679-2.907,1.708-5.519,7.08-5.519,7.08-5.316-12.415,12.236-15.162,12.236-15.162-7.75-1.033-7.068-2.766-7.068-2.766-2.9-1.032-6.14,2.538-6.14,2.538,1.02-11.081,18.413-4.6,18.413-4.6-1.709-2.729-8.008-4.622-8.008-4.622,5.107-2.373,10.055,1.543,10.055,1.543,9.557,5.3,13.976-4.1,19.765-13.644s-1.174-15.353-1.174-15.353c-2.827-2.452-5.052-4.567-6.859-6.336-2.059-2.01-3.583-.344-3.583-.344-1.241,1.383-.049,4.352-.049,4.352,3.386,11.493-3.934,12.907-3.934,12.907,3.5-4.056.793-7.283.793-7.283a10.085,10.085,0,0,1-1.124-10.571c1.954-4.493,1.524-6.128,1.524-6.165-.867-3.681-7.738-1.278-7.738-1.278-9.237,2.655-14.609-6.281-14.609-6.281s18.77,10.092,17.3-7.713c-5-21.019,12.839-33,12.839-33,6.97-5.826,4.394-16.391,4.394-16.391-3.9-25.752-29.341-46.906-29.341-46.906a4.507,4.507,0,0,0-6.5.983c-.074.233-2.544,2.686-1.813,8.911-10.854-14.965,11.069-17.405,11.069-17.405,4.314-1.02,7.7-2.206,9.7-3.86.326-.319,1.862-1.918,3.024-3.085a10.633,10.633,0,0,1-3.989,2.231c-1.715.461-4.376.633-9.41.633-9.723,0-16.219-.5-17.4,5.458a5.719,5.719,0,0,1-6.668,4.954c-3.86-1.026-7.406-1.832-10.737-2.4v.012c-12.624-1.524-12.427,5.814-12.427,5.814-1.223,4.413,7.486,8.506,7.486,8.506-9.022.861-13.632-5.267-12.452-11.247.6-3.012-.9-3.976-2.575-4.2-13.613,1.3-18.223,7.1-18.223,7.1-4.782,5.458-13.65,3.251-13.65,3.251,8.869-2.753,6.324-6.5,6.324-6.5-4.437-3.755-18.253-3.423-22.691.51-4.45,3.915-5.992,3.9-5.992,3.9-7.252.584-8.254-4.462-8.254-4.462-2.968,0-5.267,7.35-5.267,7.35-5.55-13.226,10.251-19.046,10.251-19.046a10.317,10.317,0,0,0-9.434,3.362c-5.58-2.594.184-8.057.184-8.057-3.669-.78-9.723,7.068-9.723,7.068-1.77-19.618,25.155-8.567,25.155-8.567a24.169,24.169,0,0,0-15.334-5.839c3.374-3.995-4.265-3.681-4.265-3.681,8.26-6.453,20.472,3.393,20.472,3.393s-2.5-7.861-10.835-8.457c8.74-3.282,11.69,1.985,11.69,1.985,8.666,12.212,11.05,10.018,22.377,10.319s25.42-6.25,30.257-7.24c4.9-1.008,6.078.492,15.807,0s18.586-7.762,18.586-7.762c-3,10.153-.559,12.016-.559,12.016,2.557-7.836,10.891-12.44,10.891-12.44-3.909,7.351-.154,10.749-.154,10.749,6.453-8.875,12.925-9.385,21.32-11.1a41.012,41.012,0,0,0,13.822-5.439c-2.243,7.836,7.154,16.723,7.154,16.723,6.294,7.664-1.549,17.559-1.549,17.559,3.718-.535,7.842-3.933,7.842-3.933,9.379,6.5,17.03,42.647,17.03,42.647a130.42,130.42,0,0,0,15.74,37.859c23.164,33.071,37.324,8,37.324,8,5.955-7.344-3.239-32.039-3.239-32.039-3.43-8.893-19.1-1.542-19.1-1.542,3.755-10.227,17.915-7.867,17.915-7.867-1.721-16.692-15.881-18.573-15.881-18.573-18.413-6.152-20.97-16.072-20.97-16.072,10.786,9.729,28.136,8.223,28.136,8.223l-.67-1.973c-3.995-5.618-10.848-7.382-10.848-7.382a19.2,19.2,0,0,1-11.45-9.157s11.972,6.46,15.728,4.1a28.111,28.111,0,0,0-6.214-6.115c-6.25-4.351-7.283-8.082-7.726-14.517,0,0,6.613,12.23,11.346,9.5,0,0,.6-.061.123-1.874a181.259,181.259,0,0,1-6.484-25.457c-4.425-37.853,16.035-46.74,25.438-48.768,9.354-2.053,14.658-5.1,17.522-7.154,2.895-2.053,6.822-9.219-7.67-14.677S519.3-394.06,519.3-394.06c-.332-13.472,13.65-15.506,13.65-15.506-8.856,9.36-1.69,13.115,14.984,20.269,16.723,7.166,13.153,18.948,13.153,18.948-3.091,12.1-16.035,14.658-16.035,14.658l-.731.271c13.828,7.264,22.359,20.865,16.4,41.786-8.143,28.542,1.561,36.685,1.561,36.685s-13.564-8.291-7.013-28.665c8.254-25.616,1.746-31.842,1.746-31.842s2.987,9.858-3.411,26.833c-11.21,29.537,11.53,37.927,11.53,37.927s-28.536-5.267-15.125-37.072c8.223-19.489,3.995-24.4,3.995-24.4" transform="translate(-285.14 410.974)" fill="#e7e8eb"/>
</svg>
