<svg xmlns="http://www.w3.org/2000/svg" width="26.413" height="25.576" viewBox="0 0 26.413 25.576">
  <g id="calendar_15190671" transform="translate(-19 -27.085)">
    <g id="Group_13034" data-name="Group 13034" transform="translate(20 28.085)">
      <g id="Group_13032" data-name="Group 13032" transform="translate(9.751 13.994)">
        <g id="Group_13031" data-name="Group 13031">
          <g id="Group_13030" data-name="Group 13030">
            <g id="Group_13029" data-name="Group 13029">
              <g id="Group_13028" data-name="Group 13028">
                <path id="Path_10222" data-name="Path 10222" d="M208.527,300.939l2.1,1.776,2.809-4.075" transform="translate(-208.527 -298.64)" fill="none" stroke="#fff" stroke-linecap="round" stroke-linejoin="round" stroke-width="2"/>
              </g>
            </g>
          </g>
        </g>
      </g>
      <path id="Path_10223" data-name="Path 10223" d="M44.413,36.344H20V31.188a3.1,3.1,0,0,1,3.1-3.1H41.309a3.1,3.1,0,0,1,3.1,3.1Z" transform="translate(-20 -28.085)" fill="none" stroke="#fff" stroke-linecap="round" stroke-linejoin="round" stroke-width="2"/>
      <g id="Group_13033" data-name="Group 13033" transform="translate(4.62 4.13)">
        <line id="Line_159" data-name="Line 159" transform="translate(5.058 0)" fill="none" stroke="#fff" stroke-linecap="round" stroke-linejoin="round" stroke-width="2"/>
        <line id="Line_160" data-name="Line 160" transform="translate(0 0)" fill="none" stroke="#fff" stroke-linecap="round" stroke-linejoin="round" stroke-width="2"/>
        <line id="Line_161" data-name="Line 161" transform="translate(10.115 0)" fill="none" stroke="#fff" stroke-linecap="round" stroke-linejoin="round" stroke-width="2"/>
        <line id="Line_162" data-name="Line 162" transform="translate(15.173 0)" fill="none" stroke="#fff" stroke-linecap="round" stroke-linejoin="round" stroke-width="2"/>
      </g>
    </g>
    <path id="Path_10224" data-name="Path 10224" d="M44.413,193.825v-6.05H20v12.214a3.1,3.1,0,0,0,3.1,3.1H41.309a3.1,3.1,0,0,0,3.1-3.1V199" transform="translate(0 -151.431)" fill="none" stroke="#fff" stroke-linecap="round" stroke-linejoin="round" stroke-width="2"/>
  </g>
</svg>
