<svg xmlns="http://www.w3.org/2000/svg" width="13.32" height="12.698" viewBox="0 0 13.32 12.698">
  <g id="Call" transform="translate(0.578 0.5)">
    <path id="Path_10072" data-name="Path 10072" d="M292,20a5.535,5.535,0,0,1,5.528,5.528" transform="translate(-285.287 -20)" fill="none" stroke="#f5874f" stroke-linecap="round" stroke-linejoin="round" stroke-width="1"/>
    <path id="Path_10073" data-name="Path 10073" d="M292,100a3.321,3.321,0,0,1,3.317,3.317" transform="translate(-285.104 -98.111)" fill="none" stroke="#f5874f" stroke-linecap="round" stroke-linejoin="round" stroke-width="1"/>
    <path id="Path_10074" data-name="Path 10074" d="M292,180a1.106,1.106,0,0,1,1.106,1.106" transform="translate(-284.988 -176.102)" fill="none" stroke="#f5874f" stroke-linecap="round" stroke-linejoin="round" stroke-width="1"/>
    <path id="Path_10075" data-name="Path 10075" d="M24.233,48.773l-.969.918a18.989,18.989,0,0,0,1.7,1.85,19.4,19.4,0,0,0,1.954,1.61l.969-.918a1.075,1.075,0,0,1,1.462,0l2.193,2.076-1.1,1.038-.341.322a2.159,2.159,0,0,1-2.573.267A23.44,23.44,0,0,1,23.5,52.926a22.543,22.543,0,0,1-3.18-3.815,1.884,1.884,0,0,1,.282-2.437l.341-.322,1.1-1.038,2.193,2.076A.942.942,0,0,1,24.233,48.773Z" transform="translate(-19.999 -44.613)" fill="none" stroke="#f5874f" stroke-linecap="round" stroke-linejoin="round" stroke-width="1"/>
  </g>
</svg>
