<svg xmlns="http://www.w3.org/2000/svg" width="50.667" height="51.673" viewBox="0 0 50.667 51.673">
  <g id="g159" transform="translate(1.015 1.028)">
    <g id="g161" transform="translate(0 0)">
      <g id="Group_11775" data-name="Group 11775">
        <g id="g169" transform="translate(38.361 38.602)">
          <path id="path171" d="M0,0A18.91,18.91,0,0,1,5.22,2.563.508.508,0,0,0,5.9,2.49,5,5,0,0,1,9.284.949a.985.985,0,0,1,.931.975,27.045,27.045,0,0,1-.575,7.4,2.179,2.179,0,0,1-2.688,1.641q-1.249-.33-2.5-.619" fill="none" stroke="#f174a8" stroke-linecap="round" stroke-linejoin="round" stroke-width="2"/>
        </g>
        <g id="g173" transform="translate(17.933 46.801)">
          <path id="path175" d="M0-3.164a79.722,79.722,0,0,1,12.772,0" transform="translate(0 3.42)" fill="none" stroke="#f174a8" stroke-linecap="round" stroke-linejoin="round" stroke-width="2"/>
        </g>
        <g id="g177" transform="translate(36.461 47.726)">
          <path id="path179" d="M-36.153-6.155q-1.464-.277-2.927-.5" transform="translate(39.08 6.653)" fill="none" stroke="#f174a8" stroke-linecap="round" stroke-linejoin="round" stroke-width="2"/>
        </g>
        <g id="g181" transform="translate(0 38.602)">
          <path id="path183" d="M-126.913,0a18.91,18.91,0,0,0-5.22,2.563.508.508,0,0,1-.683-.073A5,5,0,0,0-136.2.949a.985.985,0,0,0-.931.975,27.045,27.045,0,0,0,.575,7.4,2.179,2.179,0,0,0,2.688,1.641,84.745,84.745,0,0,1,8.852-1.839" transform="translate(137.19)" fill="none" stroke="#f174a8" stroke-linecap="round" stroke-linejoin="round" stroke-width="2"/>
        </g>
        <g id="g185" transform="translate(12.212 26.422)">
          <path id="path187" d="M-24.533,0A17.7,17.7,0,0,0-26.52,3.34" transform="translate(26.52)" fill="none" stroke="#f174a8" stroke-linecap="round" stroke-linejoin="round" stroke-width="2"/>
        </g>
        <g id="g189" transform="translate(10.274 33.119)">
          <path id="path191" d="M-81.037-25.888a15.682,15.682,0,0,0,.9,9.885,3.077,3.077,0,0,1-1.537,4.071,3.067,3.067,0,0,1-1.265.274,3.077,3.077,0,0,1-2.805-1.81,21.87,21.87,0,0,1-1.3-13.784q.084-.368.179-.73" transform="translate(87.598 27.984)" fill="none" stroke="#f174a8" stroke-linecap="round" stroke-linejoin="round" stroke-width="2"/>
        </g>
        <g id="g193" transform="translate(19.542 29.498)">
          <path id="path195" d="M0,0A4.741,4.741,0,0,0,4.777,3.891,4.741,4.741,0,0,0,9.554,0" fill="none" stroke="#f174a8" stroke-linecap="round" stroke-linejoin="round" stroke-width="2"/>
        </g>
        <g id="g197" transform="translate(11.162 42.65)">
          <path id="path199" d="M-70.9-1.627A5.156,5.156,0,0,0-76.64.664" transform="translate(76.64 1.759)" fill="none" stroke="#f174a8" stroke-linecap="round" stroke-linejoin="round" stroke-width="2"/>
        </g>
        <g id="g201" transform="translate(30.625 26.422)">
          <path id="path203" d="M-47.1,0a19.439,19.439,0,0,1,3.363,7.427,21.869,21.869,0,0,1-1.3,13.785,3.075,3.075,0,0,1-2.8,1.811,3.062,3.062,0,0,1-1.265-.274,3.077,3.077,0,0,1-1.537-4.071,15.682,15.682,0,0,0,.9-9.885" transform="translate(50.918)" fill="none" stroke="#f174a8" stroke-linecap="round" stroke-linejoin="round" stroke-width="2"/>
        </g>
        <g id="g205" transform="translate(31.735 42.569)">
          <path id="path207" d="M0-1.646A5.131,5.131,0,0,1,5.741.672" transform="translate(0 1.779)" fill="none" stroke="#f174a8" stroke-linecap="round" stroke-linejoin="round" stroke-width="2"/>
        </g>
        <g id="g209" transform="translate(8.064 8.543)">
          <path id="path211" d="M-303.64-24.237a13.873,13.873,0,0,1,3.473,6.644,2.886,2.886,0,0,1,1.551-.45,2.9,2.9,0,0,1,2.9,2.9,2.9,2.9,0,0,1-2.9,2.9,2.886,2.886,0,0,1-1.374-.347c-.9,5.783-5.925,7.875-11.981,7.875s-11.076-2.092-11.981-7.875a2.886,2.886,0,0,1-1.374.347,2.9,2.9,0,0,1-2.9-2.9,2.9,2.9,0,0,1,2.9-2.9,2.886,2.886,0,0,1,1.551.45,13.5,13.5,0,0,1,5.863-8.606" transform="translate(328.226 26.2)" fill="none" stroke="#f174a8" stroke-linecap="round" stroke-linejoin="round" stroke-width="2"/>
        </g>
        <g id="g213" transform="translate(19.492 17.727)">
          <path id="path215" d="M0,0V.439" fill="none" stroke="#f174a8" stroke-linecap="round" stroke-linejoin="round" stroke-width="2"/>
        </g>
        <g id="g217" transform="translate(29.145 17.727)">
          <path id="path219" d="M0,0V.439" fill="none" stroke="#f174a8" stroke-linecap="round" stroke-linejoin="round" stroke-width="2"/>
        </g>
        <g id="g221" transform="translate(21.754 22.433)">
          <path id="path223" d="M0,0A3.582,3.582,0,0,0,2.564,1.09,3.582,3.582,0,0,0,5.129,0" fill="none" stroke="#f174a8" stroke-linecap="round" stroke-linejoin="round" stroke-width="2"/>
        </g>
        <g id="g225" transform="translate(18.367)">
          <path id="path227" d="M-.479-118.6c-.362-3.18,1.806-7.064,6.768-9.566a.33.33,0,0,1,.425.474,2.607,2.607,0,0,0-.383,2.254.279.279,0,0,0,.441.154c4-3.106,9.242,1.59,12.049,1.006a.4.4,0,0,1,.43.583c-2.889,5.364-8.4,9.062-12.845,6.294a.246.246,0,0,0-.374.253,16.948,16.948,0,0,1,.266,2,.5.5,0,0,1-.492.54A6.522,6.522,0,0,1-.479-118.6Z" transform="translate(0.518 128.206)" fill="none" stroke="#f174a8" stroke-linecap="round" stroke-linejoin="round" stroke-width="2"/>
        </g>
      </g>
    </g>
  </g>
</svg>
