<svg xmlns="http://www.w3.org/2000/svg" width="57.051" height="57" viewBox="0 0 57.051 57">
  <g id="g5229" transform="translate(1.025 1)">
    <g id="g5231" transform="translate(0 0)">
      <g id="Group_13065" data-name="Group 13065">
        <g id="g5239" transform="translate(13.086 20.156)">
          <path id="path5241" d="M-87.254,0A9.279,9.279,0,0,1-87.2,1.036a9.187,9.187,0,0,1-7.955,9.1" transform="translate(95.152)" fill="none" stroke="#fff" stroke-linecap="round" stroke-linejoin="round" stroke-width="2"/>
        </g>
        <g id="g5243" transform="translate(2.671 12.007)">
          <path id="path5245" d="M-87.891-202.061a9.187,9.187,0,0,1-7.955-9.1,9.185,9.185,0,0,1,9.185-9.185A9.142,9.142,0,0,1-81.867-219" transform="translate(95.846 220.35)" fill="none" stroke="#fff" stroke-linecap="round" stroke-linejoin="round" stroke-width="2"/>
        </g>
        <g id="g5247" transform="translate(9.754 17.208)">
          <path id="path5249" d="M-43.22-15.061a1.9,1.9,0,0,0-1.831-1.363h-.2a1.883,1.883,0,0,0-1.883,1.883v.075A1.971,1.971,0,0,0-45.161-12.5h.042a1.971,1.971,0,0,1,1.971,1.971v.075a1.883,1.883,0,0,1-1.883,1.883h-.2a1.9,1.9,0,0,1-1.825-1.342" transform="translate(47.132 16.424)" fill="none" stroke="#fff" stroke-linecap="round" stroke-linejoin="round" stroke-width="2"/>
        </g>
        <g id="g5251" transform="translate(11.857 15.991)">
          <path id="path5253" d="M0,0V1.217" fill="none" stroke="#fff" stroke-linecap="round" stroke-linejoin="round" stroke-width="2"/>
        </g>
        <g id="g5255" transform="translate(11.857 25.065)">
          <path id="path5257" d="M0,0V1.217" fill="none" stroke="#fff" stroke-linecap="round" stroke-linejoin="round" stroke-width="2"/>
        </g>
        <g id="g5259" transform="translate(38.473 12.007)">
          <path id="path5261" d="M0-14.078a9.143,9.143,0,0,1,4.67-1.274,9.185,9.185,0,0,1,9.185,9.185A9.187,9.187,0,0,1,5.9,2.937" transform="translate(0 15.352)" fill="none" stroke="#fff" stroke-linecap="round" stroke-linejoin="round" stroke-width="2"/>
        </g>
        <g id="g5263" transform="translate(33.958 20.234)">
          <path id="path5265" d="M-87.131-111.06a9.187,9.187,0,0,1-7.886-9.094,9.288,9.288,0,0,1,.049-.958" transform="translate(95.017 121.112)" fill="none" stroke="#fff" stroke-linecap="round" stroke-linejoin="round" stroke-width="2"/>
        </g>
        <g id="g5267" transform="translate(41.041 17.208)">
          <path id="path5269" d="M-43.221-15.061a1.9,1.9,0,0,0-1.831-1.363h-.2a1.883,1.883,0,0,0-1.883,1.883v.075A1.971,1.971,0,0,0-45.162-12.5h.042a1.971,1.971,0,0,1,1.971,1.971v.075a1.883,1.883,0,0,1-1.883,1.883h-.2a1.9,1.9,0,0,1-1.825-1.342" transform="translate(47.133 16.424)" fill="none" stroke="#fff" stroke-linecap="round" stroke-linejoin="round" stroke-width="2"/>
        </g>
        <g id="g5271" transform="translate(43.143 15.991)">
          <path id="path5273" d="M0,0V1.217" fill="none" stroke="#fff" stroke-linecap="round" stroke-linejoin="round" stroke-width="2"/>
        </g>
        <g id="g5275" transform="translate(43.143 25.065)">
          <path id="path5277" d="M0,0V1.217" fill="none" stroke="#fff" stroke-linecap="round" stroke-linejoin="round" stroke-width="2"/>
        </g>
        <g id="g5279" transform="translate(17.184 42.346)">
          <path id="path5281" d="M-55.109,0h-3.98A1.008,1.008,0,0,0-60.1,1.008V12.654" transform="translate(60.097)" fill="none" stroke="#fff" stroke-linecap="round" stroke-linejoin="round" stroke-width="2"/>
        </g>
        <g id="g5283" transform="translate(0 29.483)">
          <path id="path5285" d="M-72.132-281.923v-11.646a1.008,1.008,0,0,0-1.008-1.008h-4.51a1.008,1.008,0,0,1-.713-1.721l10.846-10.846a1.008,1.008,0,0,1,1.426,0l5.449,5.449" transform="translate(78.66 307.44)" fill="none" stroke="#fff" stroke-linecap="round" stroke-linejoin="round" stroke-width="2"/>
        </g>
        <g id="g5287" transform="translate(36.977 29.483)">
          <path id="path5289" d="M0-63.52l5.454-5.454a1.008,1.008,0,0,1,1.426,0L17.726-58.128a1.008,1.008,0,0,1-.713,1.721H12.5A1.008,1.008,0,0,0,11.495-55.4v11.646" transform="translate(0 69.27)" fill="none" stroke="#fff" stroke-linecap="round" stroke-linejoin="round" stroke-width="2"/>
        </g>
        <g id="g5291" transform="translate(32.828 42.346)">
          <path id="path5293" d="M-55.109-139.808v-11.646a1.008,1.008,0,0,0-1.008-1.008H-60.1" transform="translate(60.097 152.462)" fill="none" stroke="#fff" stroke-linecap="round" stroke-linejoin="round" stroke-width="2"/>
        </g>
        <g id="g5295" transform="translate(32.828 50.527)">
          <path id="path5297" d="M0,0V4.473" fill="none" stroke="#fff" stroke-linecap="round" stroke-linejoin="round" stroke-width="2"/>
        </g>
        <g id="g5299" transform="translate(15.644 26.163)">
          <path id="path5301" d="M-72.132-318.6v-14.966a1.008,1.008,0,0,0-1.008-1.008h-4.51a1.008,1.008,0,0,1-.713-1.721l10.846-10.846a1.008,1.008,0,0,1,1.426,0L-55.245-336.3a1.008,1.008,0,0,1-.713,1.721h-4.51a1.008,1.008,0,0,0-1.008,1.008v7.173" transform="translate(78.661 347.439)" fill="none" stroke="#fff" stroke-linecap="round" stroke-linejoin="round" stroke-width="2"/>
        </g>
        <g id="g5303" transform="translate(16.428)">
          <path id="path5305" d="M-32.214-39.979A11.1,11.1,0,0,1-24-43.6,11.128,11.128,0,0,1-12.874-32.47,11.128,11.128,0,0,1-24-21.342,11.128,11.128,0,0,1-35.129-32.47a11.078,11.078,0,0,1,1.262-5.151" transform="translate(35.129 43.597)" fill="none" stroke="#fff" stroke-linecap="round" stroke-linejoin="round" stroke-width="2"/>
        </g>
        <g id="g5307" transform="translate(25.008 6.301)">
          <path id="path5309" d="M-52.361-18.247A2.3,2.3,0,0,0-54.579-19.9h-.24A2.281,2.281,0,0,0-57.1-17.618v.091a2.388,2.388,0,0,0,2.388,2.388h.051a2.388,2.388,0,0,1,2.388,2.388v.091a2.281,2.281,0,0,1-2.281,2.281h-.24a2.3,2.3,0,0,1-2.211-1.626" transform="translate(57.1 19.899)" fill="none" stroke="#fff" stroke-linecap="round" stroke-linejoin="round" stroke-width="2"/>
        </g>
        <g id="g5311" transform="translate(27.555 4.826)">
          <path id="path5313" d="M0,0V1.475" fill="none" stroke="#fff" stroke-linecap="round" stroke-linejoin="round" stroke-width="2"/>
        </g>
        <g id="g5315" transform="translate(27.555 15.82)">
          <path id="path5317" d="M0,0V1.475" fill="none" stroke="#fff" stroke-linecap="round" stroke-linejoin="round" stroke-width="2"/>
        </g>
      </g>
    </g>
  </g>
</svg>
