<svg xmlns="http://www.w3.org/2000/svg" xmlns:xlink="http://www.w3.org/1999/xlink" width="325.92" height="8.662" viewBox="0 0 325.92 8.662">
  <defs>
    <clipPath id="clip-path">
      <rect width="325.92" height="8.663" fill="none"/>
    </clipPath>
  </defs>
  <g id="Repeat_Grid_66" data-name="Repeat Grid 66" clip-path="url(#clip-path)">
    <g transform="translate(-910.299 -6694)">
      <path id="Path_2239" data-name="Path 2239" d="M8.1.6C17.857,1.82,19.115,6.885,31.348,6.885,45.378,6.885,45.378.5,59.408.5s14.03,6.385,28.059,6.385S101.5.5,115.53.5" transform="translate(903.43 6694.491)" fill="none" stroke="#fff" stroke-linecap="round" stroke-linejoin="round" stroke-width="1"/>
    </g>
    <g transform="translate(-802.299 -6694)">
      <path id="Path_2239-2" data-name="Path 2239" d="M8.1.6C17.857,1.82,19.115,6.885,31.348,6.885,45.378,6.885,45.378.5,59.408.5s14.03,6.385,28.059,6.385S101.5.5,115.53.5" transform="translate(903.43 6694.491)" fill="none" stroke="#fff" stroke-linecap="round" stroke-linejoin="round" stroke-width="1"/>
    </g>
    <g transform="translate(-694.299 -6694)">
      <path id="Path_2239-3" data-name="Path 2239" d="M8.1.6C17.857,1.82,19.115,6.885,31.348,6.885,45.378,6.885,45.378.5,59.408.5s14.03,6.385,28.059,6.385S101.5.5,115.53.5" transform="translate(903.43 6694.491)" fill="none" stroke="#fff" stroke-linecap="round" stroke-linejoin="round" stroke-width="1"/>
    </g>
    <g transform="translate(-586.299 -6694)">
      <path id="Path_2239-4" data-name="Path 2239" d="M8.1.6C17.857,1.82,19.115,6.885,31.348,6.885,45.378,6.885,45.378.5,59.408.5s14.03,6.385,28.059,6.385S101.5.5,115.53.5" transform="translate(903.43 6694.491)" fill="none" stroke="#fff" stroke-linecap="round" stroke-linejoin="round" stroke-width="1"/>
    </g>
  </g>
</svg>
