<svg xmlns="http://www.w3.org/2000/svg" width="1632.584" height="677.83" viewBox="0 0 1632.584 677.83">
  <g id="Group_12941" data-name="Group 12941" transform="translate(20525.77 20323.438)">
    <path id="Path_10104" data-name="Path 10104" d="M-2344.9-15215.125c26.73-34.367,64.918-294.039-158.476-272.082s-296.136,182.484-670.941,314.037-637.912,31.027-729.752-196.09,27.3-420.725,27.3-420.725" transform="translate(-16585.92 -4532.078)" fill="rgba(0,0,0,0)" stroke="#fff" stroke-linecap="round" stroke-linejoin="round" stroke-width="2" stroke-dasharray="2 5"/>
    <g id="Group_12212" data-name="Group 12212" transform="translate(-20696.963 -23511.43)">
      <g id="kite_2543851" transform="translate(1158.553 3244.552) rotate(37)">
        <path id="Path_10105" data-name="Path 10105" d="M247.124,81.829a3.577,3.577,0,0,0,3.362-4.8l-26.981-74.2A3.577,3.577,0,0,0,220.18.477L172.486,0h-.036a3.578,3.578,0,0,0-3.577,3.613l.477,47.693a3.577,3.577,0,0,0,2.355,3.326l74.2,26.981A3.571,3.571,0,0,0,247.124,81.829Zm-74.2-30.558h0Z" transform="translate(-168.873 0)" fill="#ffdd54"/>
        <path id="Path_10106" data-name="Path 10106" d="M195.008,6.4a3.571,3.571,0,0,1,.834,1.306l26.981,74.2a3.577,3.577,0,0,1-.832,3.752L168.872,32.535Z" transform="translate(-141.21 -4.873)" fill="#ffcb00"/>
        <path id="Path_10107" data-name="Path 10107" d="M286.409,1.048A3.577,3.577,0,0,1,288.938,0h.036l47.694.477a3.575,3.575,0,0,1,2.492,1.049L313.023,27.662Z" transform="translate(-285.361 0)" fill="#ffdd54"/>
        <path id="Path_10108" data-name="Path 10108" d="M396.482,54.653l-.477-47.693a3.576,3.576,0,0,1,1.048-2.565l26.615,26.615L397.531,57.145A3.575,3.575,0,0,1,396.482,54.653Zm3.577-.036h0Z" transform="translate(-396.005 -3.346)" fill="#ffcb00"/>
        <path id="Path_10109" data-name="Path 10109" d="M252.522,169.113a3.577,3.577,0,0,1-3.752.833l-74.2-26.981a3.573,3.573,0,0,1-1.306-.833L199.4,116Z" transform="translate(-171.741 -88.333)" fill="#ff9d21"/>
        <path id="Path_10110" data-name="Path 10110" d="M1.048,298.551l13.49-13.49A3.577,3.577,0,0,1,19.6,290.12l-2.107,2.107a42.322,42.322,0,0,1,6.271,2.181c.387.172.763.35,1.135.531l4.818-4.818a3.577,3.577,0,0,1,5.059,5.059l-3.74,3.74a19.643,19.643,0,0,1,4.517,5.6l2.6-2.6a3.577,3.577,0,1,1,5.059,5.059l-5.544,5.544c.01.27.016.542.016.816a29.539,29.539,0,0,0,1.036,8.25l3.312-3.312a3.577,3.577,0,0,1,5.059,5.059L42.4,328.026a12.072,12.072,0,0,0,8.3,3.2h.1a3.577,3.577,0,0,1-.005,7.154h-.157a19.293,19.293,0,0,1-13.3-5.3l-3.745,3.745a3.577,3.577,0,1,1-5.059-5.059l4.631-4.631a27.964,27.964,0,0,1-2.242-7.876l-1.208,1.208a3.577,3.577,0,0,1-5.059-5.059l5.4-5.4a12.351,12.351,0,0,0-4.126-5.992l-4.644,4.644a3.577,3.577,0,0,1-5.059-5.059l3.233-3.233a39.846,39.846,0,0,0-8-2.113L6.108,303.61a3.578,3.578,0,0,1-5.06-5.059Z" transform="translate(67.735 -216.282)" fill="#ff4a4a"/>
        <g id="Group_12208" data-name="Group 12208" transform="translate(67.735 75.526)">
          <path id="Path_10111" data-name="Path 10111" d="M176.725,323.152l-5.346,5.346a3.577,3.577,0,1,1-5.059-5.059l6.743-6.743,7.162,7.162C178.8,323.506,177.575,323.284,176.725,323.152Z" transform="translate(-165.272 -316.696)" fill="#ff2929"/>
          <path id="Path_10112" data-name="Path 10112" d="M34.108,426.841a3.572,3.572,0,0,1-2.526,1.048h-.157a19.293,19.293,0,0,1-13.3-5.3l-3.745,3.745a3.577,3.577,0,0,1-5.059-5.059l4.631-4.631a27.965,27.965,0,0,1-2.242-7.876l-1.208,1.208a3.577,3.577,0,0,1-5.059-5.059l3.37-3.371,15.177,15.177-.806.806a11.347,11.347,0,0,0,4.109,2.5Z" transform="translate(19.21 -381.314)" fill="#ff2929"/>
          <path id="Path_10113" data-name="Path 10113" d="M137.769,365.866a3.577,3.577,0,1,1-5.059-5.059l1.685-1.685,5.059,5.059Z" transform="translate(-116.486 -349.005)" fill="#ff2929"/>
        </g>
      </g>
      <path id="Path_10121" data-name="Path 10121" d="M-13325.052,4734.685s38.188,208.56,163.764,284.2,261.435,67.561,368.651-35.25,91.724-225.737,68.812-289.7-82.765-114.934-168.686-95.84-103.546,116.764-44.062,146.139,129.982-13.219,129.982-13.219" transform="translate(14510 -1310.656)" fill="rgba(0,0,0,0)" stroke="#fff" stroke-linecap="round" stroke-linejoin="round" stroke-width="2" stroke-dasharray="2 5" opacity="0.38"/>
    </g>
  </g>
</svg>
