<svg xmlns="http://www.w3.org/2000/svg" width="62" height="62" viewBox="0 0 62 62">
  <g id="g306" transform="translate(-2.39 676.208)">
    <g id="g308" transform="translate(3.39 -675.208)">
      <g id="Group_11805" data-name="Group 11805" transform="translate(0 0)">
        <g id="g316" transform="translate(29.998)">
          <path id="path318" d="M0,0V12.613" fill="none" stroke="#fff" stroke-linecap="round" stroke-linejoin="round" stroke-width="2"/>
        </g>
        <g id="g320" transform="translate(24.536 43.631)">
          <path id="path322" d="M0-123.972H10.925v-11.712a.641.641,0,0,0-.64-.64H.644a.644.644,0,0,0-.644.64Z" transform="translate(0 136.325)" fill="none" stroke="#fff" stroke-linecap="round" stroke-linejoin="round" stroke-width="2"/>
        </g>
        <g id="g324" transform="translate(29.998 43.631)">
          <path id="path326" d="M0,0V12.353" fill="none" stroke="#fff" stroke-linecap="round" stroke-linejoin="round" stroke-width="2"/>
        </g>
        <g id="g328" transform="translate(29.997 29.963)">
          <path id="path330" d="M0,0H2.021" fill="none" stroke="#fff" stroke-linecap="round" stroke-linejoin="round" stroke-width="2"/>
        </g>
        <g id="g332" transform="translate(29.998 26.545)">
          <path id="path334" d="M0-33.639v-3.352" transform="translate(0 36.991)" fill="none" stroke="#fff" stroke-linecap="round" stroke-linejoin="round" stroke-width="2"/>
        </g>
        <g id="g336" transform="translate(5.695 32.753)">
          <path id="path338" d="M-4.365,0H4.008A.434.434,0,0,1,4.44.431V4.6a.434.434,0,0,1-.431.431H-4.365A.435.435,0,0,1-4.8,4.6V.431A.435.435,0,0,1-4.365,0Z" transform="translate(4.8 0)" fill="none" stroke="#fff" stroke-linecap="round" stroke-linejoin="round" stroke-width="2"/>
        </g>
        <g id="g340" transform="translate(10.315 32.753)">
          <path id="path342" d="M0,0V5.033" fill="none" stroke="#fff" stroke-linecap="round" stroke-linejoin="round" stroke-width="2"/>
        </g>
        <g id="g344" transform="translate(5.695 42.177)">
          <path id="path346" d="M-4.365,0H4.008A.435.435,0,0,1,4.44.435V4.6a.435.435,0,0,1-.431.435H-4.365A.436.436,0,0,1-4.8,4.6V.435A.435.435,0,0,1-4.365,0Z" transform="translate(4.8)" fill="none" stroke="#fff" stroke-linecap="round" stroke-linejoin="round" stroke-width="2"/>
        </g>
        <g id="g348" transform="translate(10.315 42.177)">
          <path id="path350" d="M0,0V5.036" fill="none" stroke="#fff" stroke-linecap="round" stroke-linejoin="round" stroke-width="2"/>
        </g>
        <g id="g352" transform="translate(45.061 32.753)">
          <path id="path354" d="M-88.4,0h-8.373a.435.435,0,0,0-.435.431V4.6a.435.435,0,0,0,.435.431H-88.4a.434.434,0,0,0,.431-.431V.431A.434.434,0,0,0-88.4,0Z" transform="translate(97.209 0)" fill="none" stroke="#fff" stroke-linecap="round" stroke-linejoin="round" stroke-width="2"/>
        </g>
        <g id="g356" transform="translate(49.681 32.753)">
          <path id="path358" d="M0,0V5.033" fill="none" stroke="#fff" stroke-linecap="round" stroke-linejoin="round" stroke-width="2"/>
        </g>
        <g id="g360" transform="translate(45.061 42.177)">
          <path id="path362" d="M-88.4,0h-8.373a.435.435,0,0,0-.435.435V4.6a.435.435,0,0,0,.435.435H-88.4a.435.435,0,0,0,.431-.435V.435A.435.435,0,0,0-88.4,0Z" transform="translate(97.209)" fill="none" stroke="#fff" stroke-linecap="round" stroke-linejoin="round" stroke-width="2"/>
        </g>
        <g id="g364" transform="translate(49.681 42.177)">
          <path id="path366" d="M0,0V5.036" fill="none" stroke="#fff" stroke-linecap="round" stroke-linejoin="round" stroke-width="2"/>
        </g>
        <g id="g368" transform="translate(23.327 22.33)">
          <path id="path370" d="M-66.954-134.555a6.7,6.7,0,0,0,6.671-6.7,6.7,6.7,0,0,0-6.671-6.7,6.7,6.7,0,0,0-6.671,6.7A6.7,6.7,0,0,0-66.954-134.555Z" transform="translate(73.625 147.962)" fill="none" stroke="#fff" stroke-linecap="round" stroke-linejoin="round" stroke-width="2"/>
        </g>
        <g id="g372" transform="translate(29.994 1.448)">
          <path id="path374" d="M0,0H8.089a.733.733,0,0,1,.729.733V5.954a.733.733,0,0,1-.729.733H0Z" fill="none" stroke="#fff" stroke-linecap="round" stroke-linejoin="round" stroke-width="2"/>
        </g>
        <g id="g376" transform="translate(0 22.6)">
          <path id="path378" d="M-187.6-38.175h-18.384a.31.31,0,0,1-.308-.312v-3.181a.31.31,0,0,1,.308-.312H-187.6Z" transform="translate(206.287 41.979)" fill="none" stroke="#fff" stroke-linecap="round" stroke-linejoin="round" stroke-width="2"/>
        </g>
        <g id="g380" transform="translate(41.308 22.6)">
          <path id="path382" d="M0-38.175H18.381a.313.313,0,0,0,.312-.312v-3.181a.313.313,0,0,0-.312-.312H0Z" transform="translate(0 41.979)" fill="none" stroke="#fff" stroke-linecap="round" stroke-linejoin="round" stroke-width="2"/>
        </g>
        <g id="g384" transform="translate(16.234 13.117)">
          <path id="path386" d="M-116-46.249h-11.141a.417.417,0,0,1-.418-.418V-50.44a.419.419,0,0,1,.418-.418h26.7a.417.417,0,0,1,.414.418v3.773a.414.414,0,0,1-.414.418h-11.521" transform="translate(127.558 50.857)" fill="none" stroke="#fff" stroke-linecap="round" stroke-linejoin="round" stroke-width="2"/>
        </g>
        <g id="g388" transform="translate(1.801 27.677)">
          <path id="path390" d="M0-172.282v14.609a.55.55,0,0,0,.551.548H16.891M0-189.449v12.983" transform="translate(0 189.449)" fill="none" stroke="#fff" stroke-linecap="round" stroke-linejoin="round" stroke-width="2"/>
        </g>
        <g id="g392" transform="translate(41.308 27.677)">
          <path id="path394" d="M0,0H16.887V31.775a.55.55,0,0,1-.548.548H0Z" fill="none" stroke="#fff" stroke-linecap="round" stroke-linejoin="round" stroke-width="2"/>
        </g>
        <g id="g396" transform="translate(22.827 55.984)">
          <path id="path398" d="M0-40.305v-3.229a.826.826,0,0,1,.853-.787H13.493a.825.825,0,0,1,.849.787v3.229" transform="translate(0 44.321)" fill="none" stroke="#fff" stroke-linecap="round" stroke-linejoin="round" stroke-width="2"/>
        </g>
        <g id="g400" transform="translate(18.669 19.35)">
          <path id="path402" d="M0,0V40.65H22.661V0" fill="none" stroke="#fff" stroke-linecap="round" stroke-linejoin="round" stroke-width="2"/>
        </g>
      </g>
    </g>
  </g>
</svg>
