<svg xmlns="http://www.w3.org/2000/svg" width="31" height="31" viewBox="0 0 31 31">
  <g id="Group_12215" data-name="Group 12215" transform="translate(-387.5 -1821.19)">
    <circle id="Ellipse_52" data-name="Ellipse 52" cx="15.5" cy="15.5" r="15.5" transform="translate(387.5 1821.19)" fill="rgba(0,0,0,0)"/>
    <g id="g1839" transform="translate(382.712 2499.067)">
      <g id="g1841" transform="translate(10.788 -671.877)">
        <g id="Group_13021" data-name="Group 13021" transform="translate(0)">
          <g id="g1849" transform="translate(0 12.845)">
            <path id="path1851" d="M-385.282-.116c4.054.366,7.036,1.6,7.036,3.064,0,1.753-4.273,3.174-9.543,3.174s-9.543-1.421-9.543-3.174c0-1.469,3-2.706,7.077-3.067" transform="translate(397.332 0.12)" fill="none" stroke="#fff" stroke-linecap="round" stroke-linejoin="round" stroke-width="1"/>
          </g>
          <g id="g1853" transform="translate(8.33 3.963)">
            <path id="path1855" d="M0-38.787A1.213,1.213,0,0,1,1.213-40a1.213,1.213,0,0,1,1.213,1.213,1.213,1.213,0,0,1-1.213,1.213A1.213,1.213,0,0,1,0-38.787" transform="translate(0 40)" fill="none" stroke="#fff" stroke-linecap="round" stroke-linejoin="round" stroke-width="1"/>
          </g>
          <g id="g1857" transform="translate(4.367)">
            <path id="path1859" d="M0-166a5.184,5.184,0,0,1,5.176-5.192A5.184,5.184,0,0,1,10.352-166c0,5.39-5.176,10.417-5.176,10.417S0-160.611,0-166Z" transform="translate(0 171.193)" fill="none" stroke="#fff" stroke-linecap="round" stroke-linejoin="round" stroke-width="1"/>
          </g>
        </g>
      </g>
    </g>
  </g>
</svg>
