<svg xmlns="http://www.w3.org/2000/svg" width="50.637" height="50.638" viewBox="0 0 50.637 50.638">
  <g id="g936" transform="translate(1 1)">
    <g id="g938">
      <g id="Group_11778" data-name="Group 11778">
        <g id="g946" transform="translate(2.966)">
          <path id="path948" d="M0,0V39.74" fill="none" stroke="#f174a8" stroke-linecap="round" stroke-linejoin="round" stroke-width="2"/>
        </g>
        <g id="g950" transform="translate(45.672)">
          <path id="path952" d="M0,0V39.74" fill="none" stroke="#f174a8" stroke-linecap="round" stroke-linejoin="round" stroke-width="2"/>
        </g>
        <g id="g954" transform="translate(9.49 27.581)">
          <path id="path956" d="M-74.068-37.034a2.966,2.966,0,0,1-2.966,2.966A2.966,2.966,0,0,1-80-37.034,2.966,2.966,0,0,1-77.034-40,2.966,2.966,0,0,1-74.068-37.034Z" transform="translate(80 40)" fill="none" stroke="#f174a8" stroke-linecap="round" stroke-linejoin="round" stroke-width="2"/>
        </g>
        <g id="g958" transform="translate(15.422 27.581)">
          <path id="path960" d="M-74.068-37.034a2.966,2.966,0,0,1-2.966,2.966A2.966,2.966,0,0,1-80-37.034,2.966,2.966,0,0,1-77.034-40,2.966,2.966,0,0,1-74.068-37.034Z" transform="translate(80 40)" fill="none" stroke="#f174a8" stroke-linecap="round" stroke-linejoin="round" stroke-width="2"/>
        </g>
        <g id="g962" transform="translate(21.353 27.581)">
          <path id="path964" d="M-74.068-37.034a2.966,2.966,0,0,1-2.966,2.966A2.966,2.966,0,0,1-80-37.034,2.966,2.966,0,0,1-77.034-40,2.966,2.966,0,0,1-74.068-37.034Z" transform="translate(80 40)" fill="none" stroke="#f174a8" stroke-linecap="round" stroke-linejoin="round" stroke-width="2"/>
        </g>
        <g id="g966" transform="translate(21.353 15.422)">
          <path id="path968" d="M-74.068-37.034a2.966,2.966,0,0,1-2.966,2.966A2.966,2.966,0,0,1-80-37.034,2.966,2.966,0,0,1-77.034-40,2.966,2.966,0,0,1-74.068-37.034Z" transform="translate(80 40)" fill="none" stroke="#f174a8" stroke-linecap="round" stroke-linejoin="round" stroke-width="2"/>
        </g>
        <g id="g970" transform="translate(27.284 15.422)">
          <path id="path972" d="M-74.068-37.034a2.966,2.966,0,0,1-2.966,2.966A2.966,2.966,0,0,1-80-37.034,2.966,2.966,0,0,1-77.034-40,2.966,2.966,0,0,1-74.068-37.034Z" transform="translate(80 40)" fill="none" stroke="#f174a8" stroke-linecap="round" stroke-linejoin="round" stroke-width="2"/>
        </g>
        <g id="g974" transform="translate(33.216 15.422)">
          <path id="path976" d="M-74.068-37.034a2.966,2.966,0,0,1-2.966,2.966A2.966,2.966,0,0,1-80-37.034,2.966,2.966,0,0,1-77.034-40,2.966,2.966,0,0,1-74.068-37.034Z" transform="translate(80 40)" fill="none" stroke="#f174a8" stroke-linecap="round" stroke-linejoin="round" stroke-width="2"/>
        </g>
        <g id="g978" transform="translate(12.456 3.262)">
          <path id="path980" d="M-74.068-37.034a2.966,2.966,0,0,1-2.966,2.966A2.966,2.966,0,0,1-80-37.034,2.966,2.966,0,0,1-77.034-40,2.966,2.966,0,0,1-74.068-37.034Z" transform="translate(80 40)" fill="none" stroke="#f174a8" stroke-linecap="round" stroke-linejoin="round" stroke-width="2"/>
        </g>
        <g id="g982" transform="translate(18.387 3.262)">
          <path id="path984" d="M-74.068-37.034a2.966,2.966,0,0,1-2.966,2.966A2.966,2.966,0,0,1-80-37.034,2.966,2.966,0,0,1-77.034-40,2.966,2.966,0,0,1-74.068-37.034Z" transform="translate(80 40)" fill="none" stroke="#f174a8" stroke-linecap="round" stroke-linejoin="round" stroke-width="2"/>
        </g>
        <g id="g986" transform="translate(24.319 3.262)">
          <path id="path988" d="M-74.068-37.034a2.966,2.966,0,0,1-2.966,2.966A2.966,2.966,0,0,1-80-37.034,2.966,2.966,0,0,1-77.034-40,2.966,2.966,0,0,1-74.068-37.034Z" transform="translate(80 40)" fill="none" stroke="#f174a8" stroke-linecap="round" stroke-linejoin="round" stroke-width="2"/>
        </g>
        <g id="g990" transform="translate(2.966 6.228)">
          <path id="path992" d="M0,0H9.49" fill="none" stroke="#f174a8" stroke-linecap="round" stroke-linejoin="round" stroke-width="2"/>
        </g>
        <g id="g994" transform="translate(30.25 6.228)">
          <path id="path996" d="M0,0H15.422" fill="none" stroke="#f174a8" stroke-linecap="round" stroke-linejoin="round" stroke-width="2"/>
        </g>
        <g id="g998" transform="translate(2.966 18.387)">
          <path id="path1000" d="M0,0H18.387" fill="none" stroke="#f174a8" stroke-linecap="round" stroke-linejoin="round" stroke-width="2"/>
        </g>
        <g id="g1002" transform="translate(39.147 18.387)">
          <path id="path1004" d="M0,0H6.525" fill="none" stroke="#f174a8" stroke-linecap="round" stroke-linejoin="round" stroke-width="2"/>
        </g>
        <g id="g1006" transform="translate(2.966 30.547)">
          <path id="path1008" d="M0,0H6.525" fill="none" stroke="#f174a8" stroke-linecap="round" stroke-linejoin="round" stroke-width="2"/>
        </g>
        <g id="g1010" transform="translate(27.284 30.547)">
          <path id="path1012" d="M0,0H18.387" fill="none" stroke="#f174a8" stroke-linecap="round" stroke-linejoin="round" stroke-width="2"/>
        </g>
        <g id="g1014" transform="translate(23.33 44.683)">
          <path id="path1016" d="M-24.689-12.345a.989.989,0,0,1-.989.989.989.989,0,0,1-.989-.989.989.989,0,0,1,.989-.989.989.989,0,0,1,.989.989" transform="translate(26.667 13.333)" fill="none"/>
        </g>
        <g id="g1018" transform="translate(0 39.74)">
          <path id="path1020" d="M-359.232-74.068h13.939V-71.1h5.931v-5.931A2.966,2.966,0,0,0-342.327-80h-42.706A2.966,2.966,0,0,0-388-77.034V-71.1h5.931v-2.966h13.939" transform="translate(387.999 80)" fill="none" stroke="#f174a8" stroke-linecap="round" stroke-linejoin="round" stroke-width="2"/>
        </g>
      </g>
    </g>
  </g>
</svg>
