<svg xmlns="http://www.w3.org/2000/svg" width="23.164" height="23.165" viewBox="0 0 23.164 23.165">
  <g id="research_12691334" transform="translate(0.501 0.5)">
    <path id="Path_2299" data-name="Path 2299" d="M200.579,120.77l-5.5-2.351-5.5,2.351,5.5,2.351Z" transform="translate(-186.553 -113.7)" fill="none" stroke="#ff0057" stroke-linecap="round" stroke-linejoin="round" stroke-width="1"/>
    <path id="Path_2300" data-name="Path 2300" d="M219.708,182.813v3.9h0a10.49,10.49,0,0,0,8.247,0h0v-3.9" transform="translate(-215.304 -175.156)" fill="none" stroke="#ff0057" stroke-linecap="round" stroke-linejoin="round" stroke-width="1"/>
    <ellipse id="Ellipse_33" data-name="Ellipse 33" cx="8.529" cy="8.529" rx="8.529" ry="8.529" transform="translate(-0.001 0)" fill="none" stroke="#ff0057" stroke-linecap="round" stroke-linejoin="round" stroke-width="1"/>
    <line id="Line_261" data-name="Line 261" x1="2.017" y1="2.017" transform="translate(15.449 13.506)" fill="none" stroke="#ff0057" stroke-linecap="round" stroke-linejoin="round" stroke-width="1"/>
    <line id="Line_262" data-name="Line 262" x2="2.017" y2="2.017" transform="translate(13.505 15.45)" fill="none" stroke="#ff0057" stroke-linecap="round" stroke-linejoin="round" stroke-width="1"/>
    <path id="Path_2301" data-name="Path 2301" d="M15,343.748l3.172,3.173a2.326,2.326,0,0,0,3.289,0h0a2.326,2.326,0,0,0,0-3.289l-3.172-3.173Z" transform="translate(-0.152 -325.609)" fill="none" stroke="#ff0057" stroke-linecap="round" stroke-linejoin="round" stroke-width="1"/>
  </g>
</svg>
