<svg xmlns="http://www.w3.org/2000/svg" width="55.274" height="50.869" viewBox="0 0 55.274 50.869">
  <g id="Group_11780" data-name="Group 11780" transform="translate(1 1.147)">
    <g id="Group_11779" data-name="Group 11779" transform="translate(8.761)">
      <circle id="Ellipse_35" data-name="Ellipse 35" cx="5.436" cy="5.436" r="5.436" transform="translate(20.338 1.742) rotate(-9.218)" fill="none" stroke="#f174a8" stroke-linecap="round" stroke-linejoin="round" stroke-width="2"/>
      <line id="Line_76" data-name="Line 76" y1="3.032" x2="11.34" transform="translate(0 22.901)" fill="none" stroke="#f174a8" stroke-linecap="round" stroke-linejoin="round" stroke-width="2"/>
      <line id="Line_77" data-name="Line 77" x1="11.39" y1="3.045" transform="translate(24.387 31.581)" fill="none" stroke="#f174a8" stroke-linecap="round" stroke-linejoin="round" stroke-width="2"/>
    </g>
    <path id="Path_2299" data-name="Path 2299" d="M83.583,110.394A3.647,3.647,0,1,1,81,114.861,3.647,3.647,0,0,1,83.583,110.394Z" transform="translate(-73.281 -101.393)" fill="none" stroke="#f174a8" stroke-linecap="round" stroke-linejoin="round" stroke-width="2" fill-rule="evenodd"/>
    <path id="Path_2300" data-name="Path 2300" d="M20.369,153.042l-1.657,6.139a3.088,3.088,0,0,0,5.966,1.6l2.232-8.306,1.9,7.142a3.088,3.088,0,0,0,5.965-1.6l-4.278-16,3.95-2.271a2.735,2.735,0,0,0-2.735-4.738l-6.3,3.64-4.388,1.176h-7.28a2.735,2.735,0,0,0,0,5.47l4.556-.008Z" transform="translate(-11 -123.117)" fill="none" stroke="#f174a8" stroke-linecap="round" stroke-linejoin="round" stroke-width="2" fill-rule="evenodd"/>
    <line id="Line_78" data-name="Line 78" x2="5.419" y2="1.452" transform="translate(9.369 29.924)" fill="none" stroke="#f174a8" stroke-linecap="round" stroke-linejoin="round" stroke-width="2"/>
    <line id="Line_79" data-name="Line 79" y1="1.272" x2="4.747" transform="translate(17.012 29.775)" fill="none" stroke="#f174a8" stroke-linecap="round" stroke-linejoin="round" stroke-width="2"/>
    <path id="Path_2301" data-name="Path 2301" d="M368.6,190.293a3.647,3.647,0,1,0,2.579,4.467A3.647,3.647,0,0,0,368.6,190.293Z" transform="translate(-325.63 -172.605)" fill="none" stroke="#f174a8" stroke-linecap="round" stroke-linejoin="round" stroke-width="2" fill-rule="evenodd"/>
    <path id="Path_2302" data-name="Path 2302" d="M288.237,232.941l1.657,6.139a3.088,3.088,0,0,1-5.966,1.6l-2.232-8.306-1.9,7.142a3.088,3.088,0,0,1-5.966-1.6l4.278-16-3.95-2.271a2.735,2.735,0,0,1,2.735-4.738l6.3,3.64,4.388,1.176h7.28a2.735,2.735,0,0,1,0,5.47l-4.556-.008Z" transform="translate(-244.332 -194.33)" fill="none" stroke="#f174a8" stroke-linecap="round" stroke-linejoin="round" stroke-width="2" fill-rule="evenodd"/>
    <line id="Line_80" data-name="Line 80" x1="5.293" y2="1.418" transform="translate(38.612 38.611)" fill="none" stroke="#f174a8" stroke-linecap="round" stroke-linejoin="round" stroke-width="2"/>
    <line id="Line_81" data-name="Line 81" x1="4.796" y1="1.285" transform="translate(31.49 38.455)" fill="none" stroke="#f174a8" stroke-linecap="round" stroke-linejoin="round" stroke-width="2"/>
  </g>
</svg>
