<svg xmlns="http://www.w3.org/2000/svg" width="729.65" height="5" viewBox="0 0 729.65 5">
  <g id="Group_12393" data-name="Group 12393" transform="translate(-91.59 -3371)">
    <rect id="Rectangle_1947" data-name="Rectangle 1947" width="16.819" height="5" transform="translate(804.421 3371)" fill="#e93290"/>
    <g id="Group_12386" data-name="Group 12386" transform="translate(640.188 3371)">
      <rect id="Rectangle_1946" data-name="Rectangle 1946" width="164.233" height="5" fill="#933883"/>
    </g>
    <rect id="Rectangle_1945" data-name="Rectangle 1945" width="29.186" height="5" transform="translate(611.002 3371)" fill="#354d8e"/>
    <rect id="Rectangle_1944" data-name="Rectangle 1944" width="27.702" height="5" transform="translate(583.3 3371)" fill="#98d5f1"/>
    <rect id="Rectangle_1943" data-name="Rectangle 1943" width="28.197" height="5" transform="translate(555.103 3371)" fill="#21b354"/>
    <rect id="Rectangle_1942" data-name="Rectangle 1942" width="48.973" height="5" transform="translate(506.13 3371)" fill="#3b894c"/>
    <rect id="Rectangle_1941" data-name="Rectangle 1941" width="11.872" height="5" transform="translate(494.258 3371)" fill="#fec32b"/>
    <rect id="Rectangle_1940" data-name="Rectangle 1940" width="66.782" height="5" transform="translate(427.476 3371)" fill="#f79633"/>
    <rect id="Rectangle_1939" data-name="Rectangle 1939" width="13.356" height="5" transform="translate(414.12 3371)" fill="#00afef"/>
    <rect id="Rectangle_1938" data-name="Rectangle 1938" width="100.42" height="5" transform="translate(313.7 3371)" fill="#d54939"/>
    <rect id="Rectangle_1937" data-name="Rectangle 1937" width="26.713" height="5" transform="translate(286.988 3371)" fill="#e93290"/>
    <rect id="Rectangle_1936" data-name="Rectangle 1936" width="70.244" height="5" transform="translate(216.743 3371)" fill="#933883"/>
    <rect id="Rectangle_1935" data-name="Rectangle 1935" width="18.303" height="5" transform="translate(198.44 3371)" fill="#354d8e"/>
    <rect id="Rectangle_1934" data-name="Rectangle 1934" width="5.441" height="5" transform="translate(192.999 3371)" fill="#98d5f1"/>
    <rect id="Rectangle_1933" data-name="Rectangle 1933" width="33.638" height="5" transform="translate(159.361 3371)" fill="#21b354"/>
    <rect id="Rectangle_1931" data-name="Rectangle 1931" width="21.271" height="5" transform="translate(138.09 3371)" fill="#3b894c"/>
    <rect id="Rectangle_1932" data-name="Rectangle 1932" width="7.915" height="5" transform="translate(130.175 3371)" fill="#fec32b"/>
    <rect id="Rectangle_1930" data-name="Rectangle 1930" width="16.324" height="5" transform="translate(113.85 3371)" fill="#f79633"/>
    <rect id="Rectangle_1929" data-name="Rectangle 1929" width="22.261" height="5" transform="translate(91.59 3371)" fill="#00afef"/>
  </g>
</svg>
