<svg xmlns="http://www.w3.org/2000/svg" width="62" height="62" viewBox="0 0 62 62">
  <g id="medical-staff_12088185" transform="translate(-38.22 -6.5)">
    <g id="Group_11804" data-name="Group 11804" transform="translate(39.22 7.5)">
      <path id="Path_2332" data-name="Path 2332" d="M421.936,199.714a3.076,3.076,0,0,0-.352-2.725,3.075,3.075,0,0,0,0-6.036,3.061,3.061,0,0,0-1.093-4.422" transform="translate(-366.813 -164.927)" fill="none" stroke="#fff" stroke-linecap="round" stroke-linejoin="round" stroke-width="2"/>
      <path id="Path_2333" data-name="Path 2333" d="M159.041,186.53a3.061,3.061,0,0,0-1.093,4.422,3.073,3.073,0,0,0-1.534,5.242" transform="translate(-139.226 -164.924)" fill="none" stroke="#fff" stroke-linecap="round" stroke-linejoin="round" stroke-width="2"/>
      <path id="Path_2334" data-name="Path 2334" d="M263.4,25.49V20.5a13,13,0,0,0-13-13h0a12.938,12.938,0,0,0-7.2,2.178" transform="translate(-210.961 -7.5)" fill="none" stroke="#fff" stroke-linecap="round" stroke-linejoin="round" stroke-width="2"/>
      <path id="Path_2335" data-name="Path 2335" d="M197.98,49.418a12.942,12.942,0,0,0-2.7,7.931v4.991" transform="translate(-173.535 -44.349)" fill="none" stroke="#fff" stroke-linecap="round" stroke-linejoin="round" stroke-width="2"/>
      <path id="Path_2336" data-name="Path 2336" d="M351.26,307.73V299.5A7.256,7.256,0,0,0,344,292.24h-9.461" transform="translate(-291.26 -257.885)" fill="none" stroke="#fff" stroke-linecap="round" stroke-linejoin="round" stroke-width="2"/>
      <path id="Path_2337" data-name="Path 2337" d="M233.929,461.279H261.6a1.209,1.209,0,0,0,1.209-1.209v-4.736" transform="translate(-202.812 -401.279)" fill="none" stroke="#fff" stroke-linecap="round" stroke-linejoin="round" stroke-width="2"/>
      <line id="Line_83" data-name="Line 83" x1="3.88" transform="translate(27.916 34.375)" fill="none" stroke="#fff" stroke-linecap="round" stroke-linejoin="round" stroke-width="2"/>
      <path id="Path_2338" data-name="Path 2338" d="M271.017,261.834v3.677l3.284,7.732a.6.6,0,0,0,1.113,0l3.285-7.732v-3.677" transform="translate(-238.244 -231.142)" fill="none" stroke="#fff" stroke-linecap="round" stroke-linejoin="round" stroke-width="2"/>
      <path id="Path_2339" data-name="Path 2339" d="M378.023,156.9h1.656a3.585,3.585,0,0,0,3.585-3.585h0a3.585,3.585,0,0,0-3.585-3.585h-1.408" transform="translate(-329.482 -132.567)" fill="none" stroke="#fff" stroke-linecap="round" stroke-linejoin="round" stroke-width="2"/>
      <path id="Path_2340" data-name="Path 2340" d="M189.21,149.733h-1.429a3.585,3.585,0,0,0-3.585,3.585h0a3.585,3.585,0,0,0,3.585,3.585h1.656" transform="translate(-163.852 -132.566)" fill="none" stroke="#fff" stroke-linecap="round" stroke-linejoin="round" stroke-width="2"/>
      <g id="Group_11803" data-name="Group 11803" transform="translate(32.283 18.102)">
        <line id="Line_84" data-name="Line 84" y2="1.428" fill="none" stroke="#fff" stroke-linecap="round" stroke-linejoin="round" stroke-width="2"/>
        <line id="Line_85" data-name="Line 85" y2="1.428" transform="translate(8.706)" fill="none" stroke="#fff" stroke-linecap="round" stroke-linejoin="round" stroke-width="2"/>
        <path id="Path_2341" data-name="Path 2341" d="M293.042,175.932l-1-.86a.962.962,0,0,1-.054-1.411l.468-.468a2.015,2.015,0,0,0,.59-1.425" transform="translate(-288.689 -170.043)" fill="none" stroke="#fff" stroke-linecap="round" stroke-linejoin="round" stroke-width="2"/>
        <path id="Path_2342" data-name="Path 2342" d="M279.052,227.465a4.055,4.055,0,0,0,5.739,0" transform="translate(-277.568 -219.004)" fill="none" stroke="#fff" stroke-linecap="round" stroke-linejoin="round" stroke-width="2"/>
      </g>
      <path id="Path_2343" data-name="Path 2343" d="M344.065,380.735v-2.486h-2.486a.645.645,0,0,1-.645-.645v-2.122a.645.645,0,0,1,.645-.645h2.486v-2.486a.645.645,0,0,1,.645-.645h2.122a.645.645,0,0,1,.645.645v2.486h2.486a.645.645,0,0,1,.645.645V377.6a.645.645,0,0,1-.645.645h-2.486v2.486a.645.645,0,0,1-.645.645H344.71A.645.645,0,0,1,344.065,380.735Z" transform="translate(-296.878 -327.764)" fill="none" stroke="#fff" stroke-linecap="round" stroke-linejoin="round" stroke-width="2"/>
      <path id="Path_2344" data-name="Path 2344" d="M70.755,275.388H66.032a.6.6,0,0,0-.6.6v3.6" transform="translate(-62.258 -243.051)" fill="none" stroke="#fff" stroke-linecap="round" stroke-linejoin="round" stroke-width="2"/>
      <path id="Path_2345" data-name="Path 2345" d="M65.427,299.742v2.747a.6.6,0,0,0,.6.6H85.8a.6.6,0,0,0,.6-.6v-26.5a.6.6,0,0,0-.6-.6H81.08" transform="translate(-62.258 -243.093)" fill="none" stroke="#fff" stroke-linecap="round" stroke-linejoin="round" stroke-width="2"/>
      <line id="Line_86" data-name="Line 86" y2="4.027" transform="translate(3.169 40.754)" fill="none" stroke="#fff" stroke-linecap="round" stroke-linejoin="round" stroke-width="2"/>
      <path id="Path_2346" data-name="Path 2346" d="M119.435,266.45h-9.569a.378.378,0,0,0-.378.378V270.1a.378.378,0,0,0,.378.378h9.569a.378.378,0,0,0,.378-.378v-3.268A.378.378,0,0,0,119.435,266.45Z" transform="translate(-99.463 -235.192)" fill="none" stroke="#fff" stroke-linecap="round" stroke-linejoin="round" stroke-width="2"/>
      <path id="Path_2347" data-name="Path 2347" d="M46.149,382.925a1.653,1.653,0,0,1,0-2.934,1.649,1.649,0,0,0-1.665-1.57H42.124a2.9,2.9,0,0,0-2.9,2.9v6.087a2.9,2.9,0,0,0,2.9,2.9h2.36a1.649,1.649,0,0,0,1.665-1.57,1.653,1.653,0,0,1,0-2.934,1.614,1.614,0,0,1,0-2.887Z" transform="translate(-39.22 -333.667)" fill="none" stroke="#fff" stroke-linecap="round" stroke-linejoin="round" stroke-width="2"/>
      <path id="Path_2348" data-name="Path 2348" d="M233.475,109.261a.61.61,0,0,0-.58.434,3.073,3.073,0,0,1-4.071,1.929.6.6,0,0,0-.774.326,3.08,3.08,0,0,1-2.106,1.77.6.6,0,0,0-.455.585v4.885a9.346,9.346,0,0,0,9.346,9.346h0a9.346,9.346,0,0,0,9.346-9.346v-6.907a3.023,3.023,0,0,0-3.023-3.023Z" transform="translate(-197.909 -96.986)" fill="none" stroke="#fff" stroke-linecap="round" stroke-linejoin="round" stroke-width="2"/>
    </g>
  </g>
</svg>
