<svg xmlns="http://www.w3.org/2000/svg" width="56.772" height="57" viewBox="0 0 56.772 57">
  <g id="training_5957080" transform="translate(-9.792 -9.119)">
    <g id="g2643" transform="translate(10.792 10.119)">
      <g id="g2645" transform="translate(0 0)">
        <g id="Group_13060" data-name="Group 13060">
          <g id="g2653" transform="translate(0 11.411)">
            <path id="path2655" d="M-94.5-10.116a5.672,5.672,0,0,0-3.139-.947h0a5.705,5.705,0,0,0-5.705,5.705V9.477h11.411V.028" transform="translate(103.342 11.063)" fill="none" stroke="#fff" stroke-linecap="round" stroke-linejoin="round" stroke-width="2"/>
          </g>
          <path id="path2657" d="M21.333-289.333h9.129v23.05H21.333Z" transform="translate(-21.333 321.283)" fill="none" stroke="#fff" stroke-linecap="round" stroke-linejoin="round" stroke-width="2"/>
          <g id="g2659" transform="translate(33.091 9.699)">
            <path id="path2661" d="M-109.73,0h4.564l-7.988,7.988-2.282-2.282L-120,10.27" transform="translate(120)" fill="none" stroke="#fff" stroke-linecap="round" stroke-linejoin="round" stroke-width="2"/>
          </g>
          <g id="g2663" transform="translate(47.925 9.699)">
            <path id="path2665" d="M0-48.769v-4.564" transform="translate(0 53.333)" fill="none" stroke="#fff" stroke-linecap="round" stroke-linejoin="round" stroke-width="2"/>
          </g>
          <g id="g2667" transform="translate(36.515 43.589)">
            <path id="path2669" d="M-97.538,0h0a9.129,9.129,0,0,0-9.129,9.129v2.282h18.257V9.129A9.129,9.129,0,0,0-97.538,0Z" transform="translate(106.666 0)" fill="none" stroke="#fff" stroke-linecap="round" stroke-linejoin="round" stroke-width="2"/>
          </g>
          <g id="g2671" transform="translate(41.079 34.461)">
            <path id="path2673" d="M-97.538-48.769a4.564,4.564,0,0,0-4.564-4.564,4.564,4.564,0,0,0-4.564,4.564A4.564,4.564,0,0,0-102.1-44.2,4.564,4.564,0,0,0-97.538-48.769Z" transform="translate(106.666 53.333)" fill="none" stroke="#fff" stroke-linecap="round" stroke-linejoin="round" stroke-width="2"/>
          </g>
          <g id="g2675" transform="translate(18.257 43.589)">
            <path id="path2677" d="M-97.538,0h0a9.129,9.129,0,0,0-9.129,9.129v2.282h18.257V9.129A9.129,9.129,0,0,0-97.538,0Z" transform="translate(106.666 0)" fill="none" stroke="#fff" stroke-linecap="round" stroke-linejoin="round" stroke-width="2"/>
          </g>
          <g id="g2679" transform="translate(22.822 34.461)">
            <path id="path2681" d="M-97.538-48.769a4.564,4.564,0,0,0-4.564-4.564,4.564,4.564,0,0,0-4.564,4.564A4.564,4.564,0,0,0-102.1-44.2,4.564,4.564,0,0,0-97.538-48.769Z" transform="translate(106.666 53.333)" fill="none" stroke="#fff" stroke-linecap="round" stroke-linejoin="round" stroke-width="2"/>
          </g>
          <g id="g2683" transform="translate(8.844 12.347)">
            <path id="path2685" d="M0-89.3l8.224,5.759a3.423,3.423,0,0,0,4.768-.841h0a3.423,3.423,0,0,0-.841-4.768L0-97.661" transform="translate(0 97.661)" fill="none" stroke="#fff" stroke-linecap="round" stroke-linejoin="round" stroke-width="2"/>
          </g>
          <g id="g2687" transform="translate(19.032)">
            <path id="path2689" d="M0-289.318v0H35.74V-316.4H0v19.48" transform="translate(0 316.395)" fill="none" stroke="#fff" stroke-linecap="round" stroke-linejoin="round" stroke-width="2"/>
          </g>
          <g id="g2691" transform="translate(1.141 2.282)">
            <path id="path2693" d="M0-48.769a4.564,4.564,0,0,1,4.564-4.564,4.564,4.564,0,0,1,4.564,4.564A4.564,4.564,0,0,1,4.564-44.2,4.564,4.564,0,0,1,0-48.769Z" transform="translate(0 53.333)" fill="none" stroke="#fff" stroke-linecap="round" stroke-linejoin="round" stroke-width="2"/>
          </g>
          <g id="g2695" transform="translate(21.447 8.693)">
            <path id="path2697" d="M0-134.113l12.552-12.552" transform="translate(0 146.665)" fill="none" stroke="#fff" stroke-linecap="round" stroke-linejoin="round" stroke-width="2"/>
          </g>
          <g id="g2699" transform="translate(21.447 8.692)">
            <path id="path2701" d="M-134.113,0l-12.552,12.552" transform="translate(146.665)" fill="none" stroke="#fff" stroke-linecap="round" stroke-linejoin="round" stroke-width="2"/>
          </g>
        </g>
      </g>
    </g>
  </g>
</svg>
