<svg xmlns="http://www.w3.org/2000/svg" width="62.834" height="50.639" viewBox="0 0 62.834 50.639">
  <g id="world_7148659" transform="translate(1.284 1)">
    <line id="Line_82" data-name="Line 82" y1="10.701" transform="translate(30.133 27.238)" fill="none" stroke="#f174a8" stroke-linecap="round" stroke-linejoin="round" stroke-width="2"/>
    <circle id="Ellipse_36" data-name="Ellipse 36" cx="1.946" cy="1.946" r="1.946" transform="translate(28.187 8.755)" fill="none" stroke="#f174a8" stroke-linecap="round" stroke-linejoin="round" stroke-width="2"/>
    <path id="Path_2321" data-name="Path 2321" d="M181.611,174.5v10.6a2.018,2.018,0,0,0,1.619,2.023A1.947,1.947,0,0,0,185.5,185.2a1.947,1.947,0,0,0,2.272,1.919,2.018,2.018,0,0,0,1.619-2.023V166.579l4.922-3.076a1.947,1.947,0,0,0,.423-2.944,2.018,2.018,0,0,0-2.573-.3L188.6,162.49a5.837,5.837,0,0,1-6.187,0l-3.569-2.231a2.018,2.018,0,0,0-2.573.3,1.947,1.947,0,0,0,.423,2.944l4.922,3.076v4.029" transform="translate(-155.37 -147.262)" fill="none" stroke="#f174a8" stroke-linecap="round" stroke-linejoin="round" stroke-width="2"/>
    <circle id="Ellipse_37" data-name="Ellipse 37" cx="24.32" cy="24.32" r="24.32" transform="translate(5.814)" fill="none" stroke="#f174a8" stroke-linecap="round" stroke-linejoin="round" stroke-width="2"/>
    <path id="Path_2322" data-name="Path 2322" d="M333.181,142.435c.317,3.645-2.694,8.161-7.289,9.032-5.16.979-6.418,8.715-2.218,10.934,4.277,2.26,7.765-.871,7.368,2.694s2.615,3.962,2.615,3.962" transform="translate(-283.119 -131.886)" fill="none" stroke="#f174a8" stroke-linecap="round" stroke-linejoin="round" stroke-width="2"/>
    <path id="Path_2323" data-name="Path 2323" d="M121.372,340.25c-3.365,0-7.961-3.863-7.882-9.567.086-6.22-5.7-9.508-7.131-2.694a4.022,4.022,0,0,1-3.565,3.169" transform="translate(-91.239 -291.611)" fill="none" stroke="#f174a8" stroke-linecap="round" stroke-linejoin="round" stroke-width="2"/>
    <path id="Path_2324" data-name="Path 2324" d="M64.244,240.171c6.576-1.585,1.9-9.983,8.24-8.478,5.688,1.351,7.21-.4,7.21-.4" transform="translate(-57.363 -209.973)" fill="none" stroke="#f174a8" stroke-linecap="round" stroke-linejoin="round" stroke-width="2"/>
    <path id="Path_2325" data-name="Path 2325" d="M181.817,82.028a8.908,8.908,0,0,0-3.882-6.893" transform="translate(-157.268 -72.747)" fill="none" stroke="#f174a8" stroke-linecap="round" stroke-linejoin="round" stroke-width="2"/>
    <path id="Path_2326" data-name="Path 2326" d="M449.044,358.136a32.269,32.269,0,0,0,6.725-10.9" transform="translate(-395.502 -311.852)" fill="none" stroke="#f174a8" stroke-linecap="round" stroke-linejoin="round" stroke-width="2"/>
    <path id="Path_2327" data-name="Path 2327" d="M14.225,74.865A32.269,32.269,0,0,0,7.5,85.766" transform="translate(-7.5 -72.51)" fill="none" stroke="#f174a8" stroke-linecap="round" stroke-linejoin="round" stroke-width="2"/>
    <path id="Path_2328" data-name="Path 2328" d="M403.852,323.054a28.322,28.322,0,0,0,9.584-15.536" transform="translate(-355.79 -276.951)" fill="none" stroke="#f174a8" stroke-linecap="round" stroke-linejoin="round" stroke-width="2"/>
    <path id="Path_2329" data-name="Path 2329" d="M38.7,76.357a28.322,28.322,0,0,0-9.584,15.536" transform="translate(-26.492 -73.821)" fill="none" stroke="#f174a8" stroke-linecap="round" stroke-linejoin="round" stroke-width="2"/>
  </g>
</svg>
