<svg xmlns="http://www.w3.org/2000/svg" width="50.535" height="50.558" viewBox="0 0 50.535 50.558">
  <g id="g828" transform="translate(1.39 1)">
    <g id="g830">
      <g id="Group_11777" data-name="Group 11777" transform="translate(0 0)">
        <path id="path838" d="M44.072-317.26H20v-24.072H44.072Z" transform="translate(-20 365.404)" fill="none" stroke="#52658c" stroke-linecap="round" stroke-linejoin="round" stroke-width="2"/>
        <path id="path840" d="M341.332-317.26h24.073v-24.072H341.332Z" transform="translate(-317.26 365.404)" fill="none" stroke="#52658c" stroke-linecap="round" stroke-linejoin="round" stroke-width="2"/>
        <path id="path842" d="M181.333-638.593h23.973v-24.072H181.333Z" transform="translate(-169.247 662.665)" fill="none" stroke="#52658c" stroke-linecap="round" stroke-linejoin="round" stroke-width="2"/>
        <g id="g844" transform="translate(0 38.455)">
          <path id="path846" d="M0-54.654,6.493-59.08l9.589,9.689" transform="translate(0 59.08)" fill="none" stroke="#52658c" stroke-linecap="round" stroke-linejoin="round" stroke-width="2"/>
        </g>
      </g>
    </g>
    <g id="g848" transform="translate(10.633 36.058)">
      <path id="path850" d="M0-80.729l7.846-6.538,5.594,5.085" transform="translate(0 87.266)" fill="none" stroke="#52658c" stroke-linecap="round" stroke-linejoin="round" stroke-width="2"/>
    </g>
    <g id="g852" transform="translate(0 6.493)">
      <g id="Group_11776" data-name="Group 11776" transform="translate(0 0)">
        <g id="g860" transform="translate(19.278 0)">
          <path id="path862" d="M0-138.146,2.757-147.8a2.119,2.119,0,0,1,2.037-1.537A2.119,2.119,0,0,1,6.832-147.8l2.757,9.651" transform="translate(0 149.333)" fill="none" stroke="#52658c" stroke-linecap="round" stroke-linejoin="round" stroke-width="2"/>
        </g>
        <g id="g864" transform="translate(20.42 7.192)">
          <path id="path866" d="M-90.218,0h-7.306" transform="translate(97.524)" fill="none" stroke="#52658c" stroke-linecap="round" stroke-linejoin="round" stroke-width="2"/>
        </g>
        <g id="g868" transform="translate(31.264 23.972)">
          <path id="path870" d="M-118.411-138.146H-128l9.589-11.187h-8.717" transform="translate(128 149.333)" fill="none" stroke="#52658c" stroke-linecap="round" stroke-linejoin="round" stroke-width="2"/>
        </g>
        <g id="g872" transform="translate(0 17.579)">
          <path id="path874" d="M0-100.649a8.755,8.755,0,0,0,3.3.639,8.79,8.79,0,0,0,8.79-8.79H0Z" transform="translate(0 108.8)" fill="none" stroke="#52658c" stroke-linecap="round" stroke-linejoin="round" stroke-width="2"/>
        </g>
      </g>
    </g>
  </g>
</svg>
