<svg xmlns="http://www.w3.org/2000/svg" width="50.679" height="50.645" viewBox="0 0 50.679 50.645">
  <g id="leadership_14751523" transform="translate(1.021 1.007)">
    <path id="Path_2303" data-name="Path 2303" d="M174.3,297.443a10.358,10.358,0,0,0-2.329,2.237" transform="translate(-155.874 -269.065)" fill="none" stroke="#b69e85" stroke-linecap="round" stroke-linejoin="round" stroke-width="2"/>
    <path id="Path_2304" data-name="Path 2304" d="M151.084,351.333a10.291,10.291,0,0,0-.5,3" transform="translate(-136.577 -317.681)" fill="none" stroke="#b69e85" stroke-linecap="round" stroke-linejoin="round" stroke-width="2"/>
    <path id="Path_2305" data-name="Path 2305" d="M316.171,297.443a10.3,10.3,0,0,1,4.423,8.273" transform="translate(-285.96 -269.065)" fill="none" stroke="#b69e85" stroke-linecap="round" stroke-linejoin="round" stroke-width="2"/>
    <path id="Path_2306" data-name="Path 2306" d="M417.289,414.093h4.964a.733.733,0,0,1,.573,1.192l-1.26,1.575a1.47,1.47,0,0,0,0,1.835l1.26,1.575a.733.733,0,0,1-.573,1.192h-5.172a2.936,2.936,0,0,1-2.93-2.752" transform="translate(-374.35 -374.298)" fill="none" stroke="#b69e85" stroke-linecap="round" stroke-linejoin="round" stroke-width="2"/>
    <path id="Path_2307" data-name="Path 2307" d="M16.338,418.71a2.936,2.936,0,0,1-2.93,2.752H8.236a.733.733,0,0,1-.573-1.192l1.26-1.575a1.47,1.47,0,0,0,0-1.835l-1.26-1.575a.733.733,0,0,1,.573-1.192H13.2" transform="translate(-7.501 -374.298)" fill="none" stroke="#b69e85" stroke-linecap="round" stroke-linejoin="round" stroke-width="2"/>
    <path id="Path_2308" data-name="Path 2308" d="M330.621,383.973h9.649a1.469,1.469,0,0,1,1.468,1.468v4.433a1.468,1.468,0,0,1-1.468,1.468h-9.648" transform="translate(-298.996 -347.126)" fill="none" stroke="#b69e85" stroke-linecap="round" stroke-linejoin="round" stroke-width="2"/>
    <path id="Path_2309" data-name="Path 2309" d="M78.848,391.342H69.2a1.468,1.468,0,0,1-1.468-1.468v-4.433a1.469,1.469,0,0,1,1.468-1.468h9.649" transform="translate(-61.836 -347.126)" fill="none" stroke="#b69e85" stroke-linecap="round" stroke-linejoin="round" stroke-width="2"/>
    <path id="Path_2310" data-name="Path 2310" d="M186.975,352.644a8.075,8.075,0,1,0-2.9,1.859" transform="translate(-156.938 -306.368)" fill="none" stroke="#b69e85" stroke-linecap="round" stroke-linejoin="round" stroke-width="2"/>
    <path id="Path_2311" data-name="Path 2311" d="M216.184,374.611l.461,1.418a.509.509,0,0,0,.484.351h1.491a1.017,1.017,0,0,1,.6,1.84l-1.206.876a.509.509,0,0,0-.185.569l.461,1.418a1.017,1.017,0,0,1-1.565,1.137l-1.217-.884a.49.49,0,0,0-.575,0l-1.217.884a1.017,1.017,0,0,1-1.565-1.137l.461-1.418a.508.508,0,0,0-.185-.569l-1.206-.876a1.017,1.017,0,0,1,.6-1.84H213.3a.509.509,0,0,0,.484-.351l.461-1.418A1.017,1.017,0,0,1,216.184,374.611Z" transform="translate(-190.898 -338.046)" fill="none" stroke="#b69e85" stroke-linecap="round" stroke-linejoin="round" stroke-width="2"/>
    <path id="Path_2312" data-name="Path 2312" d="M402.421,71.243a10.086,10.086,0,0,1,1.655,7.943" transform="translate(-363.768 -65.004)" fill="none" stroke="#b69e85" stroke-linecap="round" stroke-linejoin="round" stroke-width="2"/>
    <path id="Path_2313" data-name="Path 2313" d="M90.545,21.682a9.772,9.772,0,0,1-.224-2.085c0-5.141,4.009-9.559,9.743-11.49a11.864,11.864,0,0,1,6.157-.361l.021,0a1.463,1.463,0,0,0,.583,0l.021,0A11.864,11.864,0,0,1,113,8.107a16.826,16.826,0,0,1,5.548,3.082" transform="translate(-82.215 -7.5)" fill="none" stroke="#b69e85" stroke-linecap="round" stroke-linejoin="round" stroke-width="2"/>
    <path id="Path_2314" data-name="Path 2314" d="M394.906,150.636a2.948,2.948,0,1,1-.475,5.558" transform="translate(-356.56 -136.547)" fill="none" stroke="#b69e85" stroke-linecap="round" stroke-linejoin="round" stroke-width="2"/>
    <path id="Path_2315" data-name="Path 2315" d="M79.4,156.194a2.948,2.948,0,1,1-.475-5.558" transform="translate(-68.629 -136.547)" fill="none" stroke="#b69e85" stroke-linecap="round" stroke-linejoin="round" stroke-width="2"/>
    <path id="Path_2316" data-name="Path 2316" d="M126.913,114.617a14,14,0,0,1-14-14c0-.412.021-.759.02-.749a1.919,1.919,0,0,1,1.152-1.666c4.029-1.745,9.709-2.085,14.085-1.994a1.47,1.47,0,0,0,1.144-.507l1.408-1.628a1.468,1.468,0,0,1,2.382.227l1.073,1.862a1.466,1.466,0,0,0,1,.709,21.47,21.47,0,0,1,4.561,1.327,1.924,1.924,0,0,1,1.159,1.669A14,14,0,0,1,126.913,114.617Z" transform="translate(-102.594 -85.14)" fill="none" stroke="#b69e85" stroke-linecap="round" stroke-linejoin="round" stroke-width="2"/>
    <g id="Group_11783" data-name="Group 11783" transform="translate(16.95 15.476)">
      <g id="Group_11782" data-name="Group 11782" transform="translate(4.539 2.504)">
        <g id="Group_11781" data-name="Group 11781">
          <path id="Path_2317" data-name="Path 2317" d="M229.889,191.2a1.415,1.415,0,0,1-2.83,0" transform="translate(-227.059 -191.197)" fill="none" stroke="#b69e85" stroke-linecap="round" stroke-linejoin="round" stroke-width="2"/>
          <path id="Path_2318" data-name="Path 2318" d="M258.8,191.2a1.415,1.415,0,0,1-2.83,0" transform="translate(-253.141 -191.197)" fill="none" stroke="#b69e85" stroke-linecap="round" stroke-linejoin="round" stroke-width="2"/>
        </g>
      </g>
      <path id="Path_2319" data-name="Path 2319" d="M183.378,166.964a1.347,1.347,0,1,0-2.694,0" transform="translate(-180.684 -165.617)" fill="none" stroke="#b69e85" stroke-linecap="round" stroke-linejoin="round" stroke-width="2"/>
      <path id="Path_2320" data-name="Path 2320" d="M303.729,166.964a1.347,1.347,0,1,1,2.694,0" transform="translate(-291.686 -165.617)" fill="none" stroke="#b69e85" stroke-linecap="round" stroke-linejoin="round" stroke-width="2"/>
    </g>
  </g>
</svg>
