<svg xmlns="http://www.w3.org/2000/svg" xmlns:xlink="http://www.w3.org/1999/xlink" width="182" height="7.583" viewBox="0 0 182 7.583">
  <defs>
    <clipPath id="clip-path">
      <rect width="182" height="7.583" fill="none"/>
    </clipPath>
  </defs>
  <g id="Repeat_Grid_33" data-name="Repeat Grid 33" clip-path="url(#clip-path)">
    <g transform="translate(-910.299 -6694)">
      <path id="Path_2239" data-name="Path 2239" d="M8.07.751c4.668,1.087,5.437,5.332,11.445,5.332C26.406,6.083,26.406.5,33.3.5s6.891,5.583,13.782,5.583S53.971.5,60.863.5" transform="translate(903.43 6694.5)" fill="none" stroke="#fff" stroke-linecap="round" stroke-linejoin="round" stroke-width="2" stroke-dasharray="2 5"/>
    </g>
    <g transform="translate(-853.299 -6694)">
      <path id="Path_2239-2" data-name="Path 2239" d="M8.07.751c4.668,1.087,5.437,5.332,11.445,5.332C26.406,6.083,26.406.5,33.3.5s6.891,5.583,13.782,5.583S53.971.5,60.863.5" transform="translate(903.43 6694.5)" fill="none" stroke="#fff" stroke-linecap="round" stroke-linejoin="round" stroke-width="2" stroke-dasharray="2 5"/>
    </g>
    <g transform="translate(-796.299 -6694)">
      <path id="Path_2239-3" data-name="Path 2239" d="M8.07.751c4.668,1.087,5.437,5.332,11.445,5.332C26.406,6.083,26.406.5,33.3.5s6.891,5.583,13.782,5.583S53.971.5,60.863.5" transform="translate(903.43 6694.5)" fill="none" stroke="#fff" stroke-linecap="round" stroke-linejoin="round" stroke-width="2" stroke-dasharray="2 5"/>
    </g>
    <g transform="translate(-739.299 -6694)">
      <path id="Path_2239-4" data-name="Path 2239" d="M8.07.751c4.668,1.087,5.437,5.332,11.445,5.332C26.406,6.083,26.406.5,33.3.5s6.891,5.583,13.782,5.583S53.971.5,60.863.5" transform="translate(903.43 6694.5)" fill="none" stroke="#fff" stroke-linecap="round" stroke-linejoin="round" stroke-width="2" stroke-dasharray="2 5"/>
    </g>
  </g>
</svg>
