<svg xmlns="http://www.w3.org/2000/svg" width="31.206" height="31.008" viewBox="0 0 31.206 31.008">
  <g id="money-bag_7495404" transform="translate(-7 -6.992)">
    <g id="Group_12849" data-name="Group 12849" transform="translate(21.883 15.649)">
      <g id="Group_12848" data-name="Group 12848" transform="translate(0 0)">
        <path id="Path_10152" data-name="Path 10152" d="M245.78,146.869l1.818-1.818a.423.423,0,0,1,.575-.022l5.917,5.1a.423.423,0,0,0,.592-.04L261.4,142.5" transform="translate(-245.78 -142.501)" fill="none" stroke="#ab8f72" stroke-linecap="round" stroke-linejoin="round" stroke-width="1"/>
      </g>
      <path id="Path_10153" data-name="Path 10153" d="M466.85,142.5h2.273v2.273" transform="translate(-453.506 -142.501)" fill="none" stroke="#ab8f72" stroke-linecap="round" stroke-linejoin="round" stroke-width="1"/>
    </g>
    <g id="Group_12852" data-name="Group 12852" transform="translate(7.5 7.5)">
      <path id="Path_10154" data-name="Path 10154" d="M90.255,13l-2.47-5.082a.292.292,0,0,1,.357-.4,15.857,15.857,0,0,0,5.115.849,15.857,15.857,0,0,0,5.115-.849.292.292,0,0,1,.357.4L96.259,13" transform="translate(-82.91 -7.5)" fill="none" stroke="#ab8f72" stroke-linecap="round" stroke-linejoin="round" stroke-width="1"/>
      <path id="Path_10155" data-name="Path 10155" d="M101.268,174.347l2.025-3.956h5.324l4.042,7.9" transform="translate(-95.608 -160.559)" fill="none" stroke="#ab8f72" stroke-linecap="round" stroke-linejoin="round" stroke-width="1"/>
      <path id="Path_10156" data-name="Path 10156" d="M24.8,281.51a4.154,4.154,0,0,1-.766.071H11.66a4.152,4.152,0,0,1-3.7-6.042l4.237-8.278" transform="translate(-7.5 -251.58)" fill="none" stroke="#ab8f72" stroke-linecap="round" stroke-linejoin="round" stroke-width="1"/>
      <path id="Path_10157" data-name="Path 10157" d="M123.042,134.08h-5.324a1.1,1.1,0,0,0-1.1,1.1h0a1.1,1.1,0,0,0,1.1,1.1h5.324a1.1,1.1,0,0,0,1.1-1.1h0A1.1,1.1,0,0,0,123.042,134.08Z" transform="translate(-110.033 -126.439)" fill="none" stroke="#ab8f72" stroke-linecap="round" stroke-linejoin="round" stroke-width="1"/>
      <path id="Path_10158" data-name="Path 10158" d="M123.042,97.77h-5.324a1.1,1.1,0,0,0-1.1,1.1h0a1.1,1.1,0,0,0,1.1,1.1h5.324a1.1,1.1,0,0,0,1.1-1.1h0A1.1,1.1,0,0,0,123.042,97.77Z" transform="translate(-110.033 -92.321)" fill="none" stroke="#ab8f72" stroke-linecap="round" stroke-linejoin="round" stroke-width="1"/>
    </g>
    <g id="Group_12853" data-name="Group 12853" transform="translate(24.244 25.005)">
      <path id="Path_10160" data-name="Path 10160" d="M291.939,297.491h5.3a.905.905,0,0,1,.905.905v2.354a.905.905,0,0,1-.905.905H285.794a.905.905,0,0,1-.905-.905V298.4a.905.905,0,0,1,.905-.905h4.032" transform="translate(-284.889 -297.491)" fill="none" stroke="#ab8f72" stroke-linecap="round" stroke-linejoin="round" stroke-width="1"/>
      <path id="Path_10161" data-name="Path 10161" d="M297.24,370.66H285.794a.905.905,0,0,1-.905-.905V367.4a.905.905,0,0,1,.905-.905H297.24a.905.905,0,0,1,.905.905v2.354A.905.905,0,0,1,297.24,370.66Z" transform="translate(-284.889 -362.33)" fill="none" stroke="#ab8f72" stroke-linecap="round" stroke-linejoin="round" stroke-width="1"/>
      <path id="Path_10162" data-name="Path 10162" d="M297.24,439.663H285.794a.905.905,0,0,1-.905-.905V436.4a.905.905,0,0,1,.905-.905H297.24a.905.905,0,0,1,.905.905v2.354A.905.905,0,0,1,297.24,439.663Z" transform="translate(-284.889 -427.168)" fill="none" stroke="#ab8f72" stroke-linecap="round" stroke-linejoin="round" stroke-width="1"/>
    </g>
  </g>
</svg>
