<svg xmlns="http://www.w3.org/2000/svg" xmlns:xlink="http://www.w3.org/1999/xlink" width="31" height="31" viewBox="0 0 31 31">
  <defs>
    <clipPath id="clip-path">
      <path id="path129" d="M0-682.665H20v19H0Z" transform="translate(0 682.665)" fill="none" stroke="#fff" stroke-linecap="round" stroke-linejoin="round" stroke-width="1"/>
    </clipPath>
  </defs>
  <g id="Group_12214" data-name="Group 12214" transform="translate(-381.5 -1826)">
    <g id="Ellipse_51" data-name="Ellipse 51" transform="translate(381.5 1826)" fill="none" stroke="#fff" stroke-linecap="round" stroke-linejoin="round" stroke-width="1">
      <circle cx="15.5" cy="15.5" r="15.5" stroke="none"/>
      <circle cx="15.5" cy="15.5" r="15" fill="none"/>
    </g>
    <g id="g123" transform="translate(387.5 1832)">
      <g id="g125">
        <g id="g127" clip-path="url(#clip-path)">
          <g id="g133" transform="translate(6.875 3.711)">
            <path id="path135" d="M-207.083-103.7a3.05,3.05,0,0,1-3.125,2.969,3.05,3.05,0,0,1-3.125-2.969,3.05,3.05,0,0,1,3.125-2.969A3.05,3.05,0,0,1-207.083-103.7Z" transform="translate(213.333 106.666)" fill="none" stroke="#fff" stroke-linecap="round" stroke-linejoin="round" stroke-width="1"/>
          </g>
          <g id="g137" transform="translate(3.75 14.125)">
            <path id="path139" d="M-314.186,0c1.809.39,3.018,1.1,3.018,1.906,0,1.23-2.8,2.227-6.25,2.227s-6.25-1-6.25-2.227c0-.808,1.209-1.516,3.017-1.906" transform="translate(323.669)" fill="none" stroke="#fff" stroke-linecap="round" stroke-linejoin="round" stroke-width="1"/>
          </g>
          <g id="g141" transform="translate(3.75 0.742)">
            <path id="path143" d="M-207.083-534.043v-.079a4.437,4.437,0,0,1,2.749-3.939,5.919,5.919,0,0,0,3.5-5.334,6.1,6.1,0,0,0-6.25-5.937,6.1,6.1,0,0,0-6.25,5.938,5.919,5.919,0,0,0,3.5,5.334,4.437,4.437,0,0,1,2.749,3.939v.079" transform="translate(213.333 549.332)" fill="none" stroke="#fff" stroke-linecap="round" stroke-linejoin="round" stroke-width="1"/>
          </g>
        </g>
      </g>
    </g>
  </g>
</svg>
