<svg xmlns="http://www.w3.org/2000/svg" width="1920" height="267.912" viewBox="0 0 1920 267.912">
  <path id="Path_2360" data-name="Path 2360" d="M1920,730c-22.848,0-22.848,10.87-45.7,10.87S1851.449,730,1828.6,730s-22.854,10.87-45.706,10.87S1760.04,730,1737.192,730s-22.851,10.87-45.706,10.87S1668.632,730,1645.777,730s-22.848,10.87-45.7,10.87S1577.224,730,1554.369,730s-22.855,10.87-45.706,10.87S1485.809,730,1462.958,730s-22.858,10.87-45.713,10.87S1394.391,730,1371.539,730s-22.858,10.87-45.716,10.87S1302.969,730,1280.118,730s-22.858,10.87-45.719,10.87S1211.547,730,1188.693,730s-22.858,10.87-45.712,10.87S1120.123,730,1097.265,730s-22.854,10.87-45.709,10.87S1028.7,730,1005.843,730s-22.861,10.87-45.719,10.87S937.266,730,914.409,730s-22.855,10.87-45.713,10.87S845.838,730,822.981,730s-22.855,10.87-45.712,10.87S754.41,730,731.549,730s-22.848,10.87-45.7,10.87S663,730,640.141,730s-22.861,10.87-45.719,10.87S571.567,730,548.709,730,525.855,740.87,503,740.87,480.139,730,457.278,730s-22.861,10.87-45.722,10.87S388.695,730,365.837,730s-22.861,10.87-45.722,10.87S297.253,730,274.392,730s-22.855,10.87-45.709,10.87S205.825,730,182.964,730s-22.868,10.87-45.736,10.87S114.367,730,91.506,730s-22.874,10.87-45.752,10.87S22.88,730,0,730V997.912H1920Z" transform="translate(0.001 -730)" fill="#ceeef1"/>
</svg>
