<svg xmlns="http://www.w3.org/2000/svg" width="1920" height="577.912" viewBox="0 0 1920 577.912">
  <path id="Path_2277" data-name="Path 2277" d="M1920,537.912c-22.848,0-22.848-10.87-45.7-10.87s-22.855,10.87-45.706,10.87-22.854-10.87-45.706-10.87-22.851,10.87-45.7,10.87-22.851-10.87-45.706-10.87-22.854,10.87-45.709,10.87-22.848-10.87-45.7-10.87-22.854,10.87-45.709,10.87-22.855-10.87-45.706-10.87-22.854,10.87-45.706,10.87-22.858-10.87-45.713-10.87-22.854,10.87-45.706,10.87-22.858-10.87-45.716-10.87-22.854,10.87-45.706,10.87-22.858-10.87-45.719-10.87-22.851,10.87-45.706,10.87-22.858-10.87-45.712-10.87-22.858,10.87-45.716,10.87-22.854-10.87-45.709-10.87-22.858,10.87-45.712,10.87-22.861-10.87-45.719-10.87-22.858,10.87-45.716,10.87-22.855-10.87-45.713-10.87-22.858,10.87-45.716,10.87-22.855-10.87-45.712-10.87-22.858,10.87-45.719,10.87-22.848-10.87-45.7-10.87-22.858,10.87-45.712,10.87-22.861-10.87-45.719-10.87-22.855,10.87-45.712,10.87-22.855-10.87-45.712-10.87-22.858,10.87-45.719,10.87-22.861-10.87-45.722-10.87-22.861,10.87-45.719,10.87-22.861-10.87-45.722-10.87-22.861,10.87-45.722,10.87-22.855-10.87-45.709-10.87-22.858,10.87-45.719,10.87-22.868-10.87-45.736-10.87-22.861,10.87-45.722,10.87-22.874-10.87-45.752-10.87S22.88,537.912,0,537.912V-40H1920Z" transform="translate(0.001 40)" fill="#5cc6d0" opacity="0.3"/>
</svg>
