<svg xmlns="http://www.w3.org/2000/svg" width="251.07" height="55.265" viewBox="0 0 251.07 55.265">
  <g id="Group_12910" data-name="Group 12910" transform="translate(-270.379 -251.584)">
    <path id="Path_3990" data-name="Path 3990" d="M340.5,262.782c-.5.177-4.484,3.332-6.285,4.342a190.784,190.784,0,0,0-27.855-15.54l-.029.044s18.969,11.407,19.6,21.749c.569,9.38-11.417,19.411-17.733,24.48-3.841,3.082-7.852,5.993-11.98,8.68l.1.14c11.535-7.167,23.922-14.47,33.893-23.859,3.555-3.347,7.046-6.751,8.8-11.414.69-1.829,1.646-5.629,1.646-5.629l3.892-.485s-2.335-1.465-4.054-2.508" transform="translate(-15.222)" fill="#c0af6a"/>
    <path id="Path_3991" data-name="Path 3991" d="M270.379,297.547c0-4.7,3.695-8.067,8.855-8.067,2.886,0,5.75,1.376,6.406,3.125l-1.836.634a4.321,4.321,0,0,0-4.351-2.863c-3.324,0-5.947,3.147-5.947,7.127,0,4.044,2.6,7.193,5.925,7.193a4.911,4.911,0,0,0,3.629-1.378v-4.7h3.017v1.748c0,3.062-2.886,5.247-6.866,5.247-5.159,0-8.833-3.344-8.833-8.067" transform="translate(0 -22.33)" fill="#123985"/>
    <path id="Path_3992" data-name="Path 3992" d="M315.215,289.906h5.816c5.707,0,9.139,2.863,9.139,7.5,0,5.226-3.345,8.243-9.117,8.243h-5.838Zm5.838,14.779c3.958,0,5.991-2.427,5.991-7.216,0-4.35-2.055-6.624-6.013-6.624h-2.8v13.84Z" transform="translate(-26.419 -22.581)" fill="#123985"/>
    <path id="Path_3993" data-name="Path 3993" d="M413.9,297.547c0-4.7,3.7-8.067,8.855-8.067,2.886,0,5.751,1.376,6.406,3.125l-1.836.634a4.32,4.32,0,0,0-4.35-2.863c-3.324,0-5.947,3.147-5.947,7.127,0,4.044,2.6,7.193,5.925,7.193a4.91,4.91,0,0,0,3.629-1.378v-4.7H429.6v1.748c0,3.062-2.886,5.247-6.866,5.247-5.159,0-8.833-3.344-8.833-8.067" transform="translate(-84.568 -22.33)" fill="#123985"/>
    <path id="Path_3994" data-name="Path 3994" d="M457.138,297.485c0-4.679,3.87-8.11,9.052-8.11,5.2,0,9.052,3.431,9.052,8.11s-3.848,8.067-9.073,8.067c-5.2,0-9.03-3.388-9.03-8.067m14.977,0c0-4.089-2.515-7.084-5.925-7.084s-5.925,3-5.925,7.084c0,4.132,2.471,7.041,5.925,7.041,3.477,0,5.925-2.888,5.925-7.041" transform="translate(-110.047 -22.268)" fill="#123985"/>
    <path id="Path_3995" data-name="Path 3995" d="M507.3,289.906h11.828v1.026h-8.811v6.079H517.1v1.028h-6.778v6.582h8.811v1.026H507.3Z" transform="translate(-139.605 -22.581)" fill="#123985"/>
    <path id="Path_3996" data-name="Path 3996" d="M542.711,289.906h2.8L555,301.733V289.906h1.246v15.741h-1.574l-10.713-13.293v13.293h-1.246Z" transform="translate(-160.471 -22.581)" fill="#123985"/>
    <path id="Path_3997" data-name="Path 3997" d="M584.407,289.906h3.017v6.909l8.122-6.909h1.771l-8.756,7.434,9.2,8.307H593.9l-6.472-5.815v5.815h-3.017Z" transform="translate(-185.04 -22.581)" fill="#123985"/>
    <path id="Path_3998" data-name="Path 3998" d="M624.858,289.9h2.427l6.406,15.743h-3.127l-2.077-5.094h-6.582l-2.055,5.094h-1.312Zm3.214,9.619-2.908-7.127-2.864,7.127Z" transform="translate(-205.152 -22.58)" fill="#123985"/>
    <path id="Path_3999" data-name="Path 3999" d="M676.409,297.555c0-4.7,3.694-8.067,8.854-8.067,2.885,0,5.749,1.377,6.4,3.126l-1.836.634a4.321,4.321,0,0,0-4.351-2.864c-3.323,0-5.946,3.148-5.946,7.127,0,4.043,2.6,7.191,5.924,7.191a4.906,4.906,0,0,0,3.629-1.377v-4.7H692.1v1.749c0,3.061-2.885,5.247-6.864,5.247-5.159,0-8.832-3.345-8.832-8.067" transform="translate(-239.251 -22.335)" fill="#123985"/>
    <path id="Path_4000" data-name="Path 4000" d="M721.166,289.914h7.017c4.11,0,6.646,1.727,6.646,4.591,0,2.3-1.64,3.891-4.526,4.416l4.263,6.733h-3.3l-4.153-6.558h-2.93v6.558h-3.017Zm7.017,8.22c2.448,0,3.52-1.093,3.52-3.629s-1.071-3.629-3.52-3.629h-4v7.258Z" transform="translate(-265.624 -22.586)" fill="#123985"/>
    <path id="Path_4001" data-name="Path 4001" d="M759.377,297.492c0-4.678,3.869-8.111,9.05-8.111,5.2,0,9.05,3.432,9.05,8.111s-3.847,8.067-9.072,8.067c-5.2,0-9.028-3.389-9.028-8.067m14.974,0c0-4.088-2.514-7.083-5.924-7.083s-5.924,2.995-5.924,7.083c0,4.132,2.47,7.039,5.924,7.039,3.476,0,5.924-2.886,5.924-7.039" transform="translate(-288.14 -22.272)" fill="#123985"/>
    <path id="Path_4002" data-name="Path 4002" d="M808.924,299.423v-9.509h3.017v9.75c0,3.3,1.377,4.984,4.066,4.984,3.039,0,4.5-1.683,4.5-5.159v-9.575h1.311v9.553c0,4.241-2.076,6.405-6.186,6.405-4.416,0-6.711-2.208-6.711-6.449" transform="translate(-317.335 -22.586)" fill="#123985"/>
    <path id="Path_4003" data-name="Path 4003" d="M848.358,289.914h7.017c4.11,0,6.646,1.727,6.646,4.591s-2.536,4.591-6.646,4.591h-4v6.558h-3.016Zm7.017,8.22c2.449,0,3.52-1.093,3.52-3.629s-1.071-3.629-3.52-3.629h-4v7.258Z" transform="translate(-340.572 -22.586)" fill="#123985"/>
    <path id="Path_4004" data-name="Path 4004" d="M475.854,366.426h-2.588V365.28H479.7v1.146h-2.587v7.246h-1.257Z" transform="translate(-119.551 -66.995)" fill="#5b5c5e"/>
    <path id="Path_4005" data-name="Path 4005" d="M491.417,363.99h1.2v2.489c0,.481-.012.887-.037,1.343l.074.012a2.117,2.117,0,0,1,1.934-1.2c1.491,0,2.182,1.01,2.182,2.465v3.807h-1.2V369.4c0-1-.444-1.676-1.441-1.676a1.552,1.552,0,0,0-1.516,1.712v3.475h-1.2Z" transform="translate(-130.246 -66.235)" fill="#5b5c5e"/>
    <path id="Path_4006" data-name="Path 4006" d="M508.607,370.711h1.171c0,.382,0,.677-.012,1.047l.074.012a1.933,1.933,0,0,1,2.131-1.085l-.012,1.085h-.505a1.564,1.564,0,0,0-1.651,1.737v3.328h-1.2Z" transform="translate(-140.375 -70.159)" fill="#5b5c5e"/>
    <path id="Path_4007" data-name="Path 4007" d="M518.926,365.8a.8.8,0,1,1,.8.752.748.748,0,0,1-.8-.752m.209,1.6h1.2v6.124h-1.2Z" transform="translate(-146.455 -66.853)" fill="#5b5c5e"/>
    <path id="Path_4008" data-name="Path 4008" d="M525.136,370.824V370.8h1.282l1.8,4.731,1.811-4.731H531.3v.024l-2.526,6.148h-1.109Z" transform="translate(-150.114 -70.247)" fill="#5b5c5e"/>
    <path id="Path_4009" data-name="Path 4009" d="M541.276,373.572a3.015,3.015,0,0,1,3.007-3.253c1.811,0,2.834,1.257,2.834,3.118,0,.161-.012.284-.025.444h-4.646a1.885,1.885,0,0,0,1.861,1.873,1.779,1.779,0,0,0,1.676-1.085l1.01.493a2.848,2.848,0,0,1-2.711,1.652,2.991,2.991,0,0,1-3.007-3.241m4.683-.616a1.625,1.625,0,0,0-1.676-1.577,1.814,1.814,0,0,0-1.787,1.577Z" transform="translate(-159.625 -69.964)" fill="#5b5c5e"/>
    <path id="Path_4010" data-name="Path 4010" d="M558.016,382.737a.863.863,0,0,1,1.725,0,.863.863,0,0,1-1.725,0" transform="translate(-169.489 -76.788)" fill="#5b5c5e"/>
    <path id="Path_4011" data-name="Path 4011" d="M573.136,365.28h5.212v1.146h-3.955v2.563h3.758v1.134h-3.758v3.548h-1.257Z" transform="translate(-178.398 -66.995)" fill="#5b5c5e"/>
    <path id="Path_4012" data-name="Path 4012" d="M587.536,373.591a3.085,3.085,0,1,1,3.08,3.241,3.026,3.026,0,0,1-3.08-3.241m4.966-.012a1.9,1.9,0,1,0-3.771.012,1.9,1.9,0,1,0,3.771-.012" transform="translate(-186.883 -69.983)" fill="#5b5c5e"/>
    <path id="Path_4013" data-name="Path 4013" d="M606.045,370.711h1.171c0,.382,0,.677-.012,1.047l.074.012a1.933,1.933,0,0,1,2.131-1.085l-.012,1.085h-.5a1.565,1.565,0,0,0-1.652,1.737v3.328h-1.2Z" transform="translate(-197.79 -70.159)" fill="#5b5c5e"/>
    <path id="Path_4014" data-name="Path 4014" d="M624.1,365.28h1.257v7.245h3.758v1.146H624.1Z" transform="translate(-208.431 -66.995)" fill="#5b5c5e"/>
    <path id="Path_4015" data-name="Path 4015" d="M638.955,365.8a.8.8,0,1,1,.8.752.748.748,0,0,1-.8-.752m.209,1.6h1.2v6.124h-1.2Z" transform="translate(-217.182 -66.853)" fill="#5b5c5e"/>
    <path id="Path_4016" data-name="Path 4016" d="M646.75,367.635h-.986v-1.06h.986v-.53a2.145,2.145,0,0,1,2.23-2.415,2.888,2.888,0,0,1,.875.123l-.062,1.023a2.622,2.622,0,0,0-.678-.086c-.739,0-1.171.468-1.171,1.343v.542h1.849v1.06h-1.849V372.7h-1.2Z" transform="translate(-221.194 -66.023)" fill="#5b5c5e"/>
    <path id="Path_4017" data-name="Path 4017" d="M656.8,373.572a3.015,3.015,0,0,1,3.007-3.253c1.811,0,2.834,1.257,2.834,3.118,0,.161-.012.284-.024.444h-4.646a1.885,1.885,0,0,0,1.861,1.873,1.778,1.778,0,0,0,1.676-1.085l1.01.493a2.847,2.847,0,0,1-2.711,1.652,2.991,2.991,0,0,1-3.007-3.241m4.683-.616a1.625,1.625,0,0,0-1.676-1.577,1.814,1.814,0,0,0-1.787,1.577Z" transform="translate(-227.699 -69.964)" fill="#5b5c5e"/>
    <path id="Path_4018" data-name="Path 4018" d="M673.544,382.737a.863.863,0,0,1,1.725,0,.863.863,0,0,1-1.725,0" transform="translate(-237.563 -76.788)" fill="#5b5c5e"/>
  </g>
</svg>
