<svg xmlns="http://www.w3.org/2000/svg" width="32.586" height="32.586" viewBox="0 0 32.586 32.586">
  <g id="g3795" transform="translate(-6.655 676.01)">
    <g id="g3797" transform="translate(7.655 -675.01)">
      <g id="Group_13036" data-name="Group 13036" transform="translate(0 0)">
        <g id="g3805" transform="translate(23.923 10.179)">
          <path id="path3807" d="M0-57.144A2.856,2.856,0,0,1,2.856-60a2.856,2.856,0,0,1,2.856,2.856,2.856,2.856,0,0,1-2.856,2.856A2.856,2.856,0,0,1,0-57.144Z" transform="translate(0 60)" fill="none" stroke="#fff" stroke-linejoin="round" stroke-width="2"/>
        </g>
        <g id="g3809" transform="translate(0.952 10.179)">
          <path id="path3811" d="M-114.289-57.144A2.856,2.856,0,0,0-117.144-60,2.856,2.856,0,0,0-120-57.144a2.856,2.856,0,0,0,2.856,2.856A2.856,2.856,0,0,0-114.289-57.144Z" transform="translate(120 60)" fill="none" stroke="#fff" stroke-linejoin="round" stroke-width="2"/>
        </g>
        <g id="g3813" transform="translate(3.807 24.875)">
          <path id="path3815" d="M0-114.289V-120H22.971v5.711" transform="translate(0 120)" fill="none" stroke="#fff" stroke-linejoin="round" stroke-width="2"/>
        </g>
        <g id="g3817" transform="translate(7.202)">
          <path id="path3819" d="M-95.241-190.481h6.663a4.759,4.759,0,0,0,4.759-4.759A4.759,4.759,0,0,0-88.578-200h-6.663A4.759,4.759,0,0,0-100-195.24,4.759,4.759,0,0,0-95.241-190.481Z" transform="translate(100 199.999)" fill="none" stroke="#fff" stroke-linejoin="round" stroke-width="2"/>
        </g>
        <g id="g3821" transform="translate(18.149 4.759)">
          <path id="path3823" d="M-38.1,0H-40" transform="translate(40)" fill="none" stroke="#fff" stroke-width="2"/>
        </g>
        <g id="g3825" transform="translate(14.341 4.759)">
          <path id="path3827" d="M-38.1,0H-40" transform="translate(40)" fill="none" stroke="#fff" stroke-width="2"/>
        </g>
        <g id="g3829" transform="translate(10.534 4.759)">
          <path id="path3831" d="M-38.1,0H-40" transform="translate(40)" fill="none" stroke="#fff" stroke-width="2"/>
        </g>
        <g id="g3833" transform="translate(0 15.89)">
          <path id="path3835" d="M-382.232-179.8a1.9,1.9,0,0,1-1.9-1.9,1.9,1.9,0,0,1,1.9-1.9h1.392a1.909,1.909,0,0,0,1.649-.952l1.341-2.322a3.8,3.8,0,0,1,3.3-1.9,3.807,3.807,0,0,1,3.807,3.807v10.888h-30.586v-10.888a3.807,3.807,0,0,1,3.807-3.807,3.8,3.8,0,0,1,3.3,1.9l1.341,2.322a1.909,1.909,0,0,0,1.649.952h1.392a1.9,1.9,0,0,1,1.9,1.9,1.9,1.9,0,0,1-1.9,1.9" transform="translate(401.332 188.785)" fill="none" stroke="#fff" stroke-linejoin="round" stroke-width="2"/>
        </g>
      </g>
    </g>
  </g>
</svg>
