<svg xmlns="http://www.w3.org/2000/svg" width="114.905" height="107.302" viewBox="0 0 114.905 107.302">
  <g id="_x31_0_x2C__Message_x2C__paper_x2C__plan_x2C__send_x2C__email" transform="translate(77.712 -31.847) rotate(62)">
    <g id="Group_12211" data-name="Group 12211" transform="translate(21.694 15)">
      <g id="Group_12210" data-name="Group 12210" transform="translate(0)">
        <path id="Path_10114" data-name="Path 10114" d="M213.113,15,193.994,45.4l-23.6,27.58-9.918,2.288-9.918,2.288,2.289-9.917,2.289-9.917,26.7-23.235Z" transform="translate(-127.374 -15)" fill="#8095ff"/>
        <path id="Path_10115" data-name="Path 10115" d="M303.546,15l-21.36,79.342-21.36-21.36Z" transform="translate(-217.807 -15)" fill="#9cf"/>
        <path id="Path_10116" data-name="Path 10116" d="M136.6,15,78.625,57.723l-21.36-21.36Z" transform="translate(-50.866 -15)" fill="#9cf"/>
        <g id="Group_12209" data-name="Group 12209" transform="translate(0 45.873)">
          <path id="Path_10117" data-name="Path 10117" d="M42.594,285.291a.9.9,0,0,1-.636-1.535L55.45,270.264a.9.9,0,0,1,1.272,1.272L43.23,285.028A.9.9,0,0,1,42.594,285.291Z" transform="translate(-38.096 -270)" fill="#e3f5ff"/>
          <path id="Path_10118" data-name="Path 10118" d="M92.594,410.688a.9.9,0,0,1-.636-1.535l18.889-18.889a.9.9,0,0,1,1.272,1.272L93.23,410.424A.9.9,0,0,1,92.594,410.688Z" transform="translate(-79.102 -368.413)" fill="#e3f5ff"/>
          <path id="Path_10119" data-name="Path 10119" d="M22.594,415.291a.9.9,0,0,1-.636-1.535L35.45,400.264a.9.9,0,0,1,1.272,1.272L23.23,415.028A.9.9,0,0,1,22.594,415.291Z" transform="translate(-21.694 -376.614)" fill="#e3f5ff"/>
          <path id="Path_10120" data-name="Path 10120" d="M207.594,423.492a.9.9,0,0,1-.636-1.535l11.693-11.693a.9.9,0,1,1,1.272,1.272L208.23,423.229A.9.9,0,0,1,207.594,423.492Z" transform="translate(-173.414 -384.815)" fill="#e3f5ff"/>
        </g>
      </g>
    </g>
  </g>
</svg>
