<svg xmlns="http://www.w3.org/2000/svg" width="65.448" height="56.163" viewBox="0 0 65.448 56.163">
  <g id="g4143" transform="translate(-12.333 622.332)">
    <g id="g4145" transform="translate(13.333 -621.332)">
      <g id="Group_12275" data-name="Group 12275" transform="translate(0 0)">
        <g id="g4153" transform="translate(7.222 27.081)">
          <path id="path4155" d="M-12.044,0a1.29,1.29,0,0,0-1.29,1.29,1.29,1.29,0,0,0,1.29,1.29,1.29,1.29,0,0,0,1.29-1.29A1.29,1.29,0,0,0-12.044,0" transform="translate(13.333 0)" fill="rgba(0,0,0,0)"/>
        </g>
        <g id="g4157" transform="translate(0 0)">
          <path id="path4159" d="M-592.55-385.4v5.158a2.578,2.578,0,0,1-2.579,2.579h-58.29A2.578,2.578,0,0,1-656-380.24v-43.846a2.579,2.579,0,0,1,2.579-2.579h58.29a2.578,2.578,0,0,1,2.579,2.579Z" transform="translate(655.998 426.666)" fill="none" stroke="#fff" stroke-linecap="round" stroke-linejoin="round" stroke-width="2"/>
        </g>
        <g id="g4161" transform="translate(0 41.267)">
          <path id="path4163" d="M0,0H63.448" fill="none" stroke="#fff" stroke-linecap="round" stroke-linejoin="round" stroke-width="2"/>
        </g>
        <g id="g4165" transform="translate(16.249 28.371)">
          <path id="path4167" d="M-48.175-120.437a5.159,5.159,0,0,1-5.158-5.158v-7.738h10.317v7.738A5.159,5.159,0,0,1-48.175-120.437Z" transform="translate(53.333 133.333)" fill="none" stroke="#fff" stroke-linecap="round" stroke-linejoin="round" stroke-width="2"/>
        </g>
        <g id="g4169" transform="translate(8.511 33.529)">
          <path id="path4171" d="M0-72.262V-80" transform="translate(0 80)" fill="none" stroke="#fff" stroke-linecap="round" stroke-linejoin="round" stroke-width="2"/>
        </g>
        <g id="g4173" transform="translate(8.511 15.475)">
          <path id="path4175" d="M0-72.262V-80H46.425v25.792" transform="translate(0 80)" fill="none" stroke="#fff" stroke-linecap="round" stroke-linejoin="round" stroke-width="2"/>
        </g>
        <g id="g4177" transform="translate(18.828 15.475)">
          <path id="path4179" d="M-48.175,0V5.158h-5.158V0" transform="translate(53.333)" fill="none" stroke="#fff" stroke-linecap="round" stroke-linejoin="round" stroke-width="2"/>
        </g>
        <g id="g4181" transform="translate(21.407 20.633)">
          <path id="path4183" d="M0,0V2.579" fill="none" stroke="#fff" stroke-linecap="round" stroke-linejoin="round" stroke-width="2"/>
        </g>
        <g id="g4185" transform="translate(36.882 28.371)">
          <path id="path4187" d="M-48.175-120.437a5.159,5.159,0,0,1-5.158-5.158v-7.738h10.317v7.738A5.159,5.159,0,0,1-48.175-120.437Z" transform="translate(53.333 133.333)" fill="none" stroke="#fff" stroke-linecap="round" stroke-linejoin="round" stroke-width="2"/>
        </g>
        <g id="g4189" transform="translate(39.461 15.475)">
          <path id="path4191" d="M-48.175,0V5.158h-5.158V0" transform="translate(53.333)" fill="none" stroke="#fff" stroke-linecap="round" stroke-linejoin="round" stroke-width="2"/>
        </g>
        <g id="g4193" transform="translate(42.041 20.633)">
          <path id="path4195" d="M0,0V2.579" fill="none" stroke="#fff" stroke-linecap="round" stroke-linejoin="round" stroke-width="2"/>
        </g>
        <g id="g4197" transform="translate(39.461 5.158)">
          <path id="path4199" d="M-48.175-24.087a2.578,2.578,0,0,1-2.579,2.579,2.578,2.578,0,0,1-2.579-2.579,2.578,2.578,0,0,1,2.579-2.579A2.578,2.578,0,0,1-48.175-24.087Z" transform="translate(53.333 26.667)" fill="none" stroke="#fff" stroke-linecap="round" stroke-linejoin="round" stroke-width="2"/>
        </g>
        <g id="g4201" transform="translate(18.828 5.158)">
          <path id="path4203" d="M-48.175-24.087a2.578,2.578,0,0,1-2.579,2.579,2.578,2.578,0,0,1-2.579-2.579,2.578,2.578,0,0,1,2.579-2.579A2.578,2.578,0,0,1-48.175-24.087Z" transform="translate(53.333 26.667)" fill="none" stroke="#fff" stroke-linecap="round" stroke-linejoin="round" stroke-width="2"/>
        </g>
        <g id="g4205" transform="translate(44.62 49.004)">
          <path id="path4207" d="M-96.35,0V5.158h-10.317V0" transform="translate(106.666)" fill="none" stroke="#fff" stroke-linecap="round" stroke-linejoin="round" stroke-width="2"/>
        </g>
        <g id="g4209" transform="translate(8.511 49.004)">
          <path id="path4211" d="M-96.35,0V5.158h-10.317V0" transform="translate(106.666)" fill="none" stroke="#fff" stroke-linecap="round" stroke-linejoin="round" stroke-width="2"/>
        </g>
      </g>
    </g>
  </g>
</svg>
