<svg xmlns="http://www.w3.org/2000/svg" width="70.693" height="73.506" viewBox="0 0 70.693 73.506">
  <g id="Group_13091" data-name="Group 13091" transform="translate(-146 -5608.275)">
    <path id="Path_10173" data-name="Path 10173" d="M132.533,18.063h0A7.94,7.94,0,0,0,141,20.815h0a7.94,7.94,0,0,1,10.138,7.366h0a7.94,7.94,0,0,0,5.233,7.2h0A7.94,7.94,0,0,1,160.245,47.3h0a7.94,7.94,0,0,0,0,8.9h0a7.94,7.94,0,0,1-3.872,11.918h0a7.94,7.94,0,0,0-5.233,7.2h0A7.94,7.94,0,0,1,141,82.693h0a7.94,7.94,0,0,0-8.468,2.751h0a7.94,7.94,0,0,1-12.531,0h0a7.94,7.94,0,0,0-8.468-2.751h0A7.94,7.94,0,0,1,101.4,75.327h0a7.94,7.94,0,0,0-5.233-7.2h0A7.94,7.94,0,0,1,92.29,56.205h0a7.94,7.94,0,0,0,0-8.9h0a7.94,7.94,0,0,1,3.872-11.918h0a7.94,7.94,0,0,0,5.233-7.2h0a7.94,7.94,0,0,1,10.138-7.366h0A7.94,7.94,0,0,0,120,18.063h0A7.94,7.94,0,0,1,132.533,18.063Z" transform="translate(55.079 5593.274)" fill="#f5874f"/>
    <g id="flag_9137384" transform="translate(170 5630.274)">
      <ellipse id="Ellipse_63" data-name="Ellipse 63" cx="2.535" cy="2.535" rx="2.535" ry="2.535" transform="translate(8.665 0)" fill="none" stroke="#fff" stroke-linecap="round" stroke-linejoin="round" stroke-width="1"/>
      <path id="Path_10191" data-name="Path 10191" d="M113.375,407.406a2.9,2.9,0,0,0-4.859-1.589.86.86,0,0,1-1.19,0,2.9,2.9,0,0,0-4.859,1.589.879.879,0,0,1-.931.727,2.9,2.9,0,0,0-3.087,2.882h18.943a2.9,2.9,0,0,0-3.087-2.882A.878.878,0,0,1,113.375,407.406Z" transform="translate(-96.721 -381.014)" fill="none" stroke="#fff" stroke-linecap="round" stroke-linejoin="round" stroke-width="1"/>
      <ellipse id="Ellipse_64" data-name="Ellipse 64" cx="1.288" cy="1.288" rx="1.288" ry="1.288" transform="translate(3.867 18.597)" fill="none" stroke="#fff" stroke-linecap="round" stroke-linejoin="round" stroke-width="1"/>
      <ellipse id="Ellipse_65" data-name="Ellipse 65" cx="1.288" cy="1.288" rx="1.288" ry="1.288" transform="translate(18.572 2.247)" fill="none" stroke="#fff" stroke-linecap="round" stroke-linejoin="round" stroke-width="1"/>
      <ellipse id="Ellipse_66" data-name="Ellipse 66" cx="1.853" cy="1.853" rx="1.853" ry="1.853" transform="translate(0.922 10.871)" fill="none" stroke="#fff" stroke-linecap="round" stroke-linejoin="round" stroke-width="1"/>
      <line id="Line_140" data-name="Line 140" x2="22.401" transform="translate(0 30)" fill="none" stroke="#fff" stroke-linecap="round" stroke-linejoin="round" stroke-width="1"/>
      <path id="Path_10192" data-name="Path 10192" d="M278.3,91.918l-3.938-1.969v10.937L284.13,96a.652.652,0,0,0,0-1.167l-3.943-1.971" transform="translate(-262.012 -84.972)" fill="none" stroke="#fff" stroke-linecap="round" stroke-linejoin="round" stroke-width="1"/>
      <path id="Path_10193" data-name="Path 10193" d="M238.654,100.986V86.953a2.533,2.533,0,0,1-2.294,0v19.59a2.9,2.9,0,0,1,.552.417.86.86,0,0,0,1.19,0,2.907,2.907,0,0,1,.552-.417V103.1" transform="translate(-226.306 -82.157)" fill="none" stroke="#fff" stroke-linecap="round" stroke-linejoin="round" stroke-width="1"/>
    </g>
  </g>
</svg>
