<svg xmlns="http://www.w3.org/2000/svg" width="70.693" height="73.506" viewBox="0 0 70.693 73.506">
  <g id="Group_13093" data-name="Group 13093" transform="translate(-982 -5608.275)">
    <path id="Path_10175" data-name="Path 10175" d="M132.533,18.063h0A7.94,7.94,0,0,0,141,20.815h0a7.94,7.94,0,0,1,10.138,7.366h0a7.94,7.94,0,0,0,5.233,7.2h0A7.94,7.94,0,0,1,160.245,47.3h0a7.94,7.94,0,0,0,0,8.9h0a7.94,7.94,0,0,1-3.872,11.918h0a7.94,7.94,0,0,0-5.233,7.2h0A7.94,7.94,0,0,1,141,82.693h0a7.94,7.94,0,0,0-8.468,2.751h0a7.94,7.94,0,0,1-12.531,0h0a7.94,7.94,0,0,0-8.468-2.751h0A7.94,7.94,0,0,1,101.4,75.327h0a7.94,7.94,0,0,0-5.233-7.2h0A7.94,7.94,0,0,1,92.29,56.205h0a7.94,7.94,0,0,0,0-8.9h0a7.94,7.94,0,0,1,3.872-11.918h0a7.94,7.94,0,0,0,5.233-7.2h0a7.94,7.94,0,0,1,10.138-7.366h0A7.94,7.94,0,0,0,120,18.063h0A7.94,7.94,0,0,1,132.533,18.063Z" transform="translate(891.079 5593.274)" fill="#52658c"/>
    <g id="friends_8041650" transform="translate(987 5615.274)">
      <line id="Line_151" data-name="Line 151" y1="4.992" transform="translate(19.017 28.004)" fill="none" stroke="#fff" stroke-linecap="round" stroke-linejoin="round" stroke-width="1"/>
      <line id="Line_152" data-name="Line 152" y1="4.992" transform="translate(40.983 28.004)" fill="none" stroke="#fff" stroke-linecap="round" stroke-linejoin="round" stroke-width="1"/>
      <g id="Group_12881" data-name="Group 12881" transform="translate(18.734 32.863)">
        <path id="Path_10201" data-name="Path 10201" d="M75,310v11.639h3.734v-8.4" transform="translate(-75 -309.501)" fill="none" stroke="#fff" stroke-linecap="round" stroke-linejoin="round" stroke-width="1"/>
        <path id="Path_10202" data-name="Path 10202" d="M138.734,302v12.137H135v-8.4" transform="translate(-131.266 -301.999)" fill="none" stroke="#fff" stroke-linecap="round" stroke-linejoin="round" stroke-width="1"/>
      </g>
      <path id="Path_10203" data-name="Path 10203" d="M320.734,305.72v8.416H317V302h7.469v12.137h-3.734V305.72" transform="translate(-283.203 -269.136)" fill="none" stroke="#fff" stroke-linecap="round" stroke-linejoin="round" stroke-width="1"/>
      <path id="Path_10204" data-name="Path 10204" d="M30,15.095a1.867,1.867,0,0,0-2.358,1.189l-1.511,4.585a3.652,3.652,0,0,1-3.468,2.509H20.64A5.64,5.64,0,0,0,15,29.017v5.567a1.867,1.867,0,0,0,1.867,1.867h0a1.867,1.867,0,0,0,1.867-1.867V32.863H26.2V27.815a21.035,21.035,0,0,0,3.562-6.053l1.422-4.309A1.866,1.866,0,0,0,30,15.1h0" fill="none" stroke="#fff" stroke-linecap="round" stroke-linejoin="round" stroke-width="1"/>
      <path id="Path_10205" data-name="Path 10205" d="M252.06,40.548c.814,3.337,4.042,6.022,4.042,6.022v5.048h7.469v1.721a1.868,1.868,0,0,0,1.912,1.867,1.892,1.892,0,0,0,1.822-1.9V47.772a5.64,5.64,0,0,0-5.64-5.64h-1.774a4.643,4.643,0,0,1-4.165-2.591L253.488,35" transform="translate(-222.305 -18.755)" fill="none" stroke="#fff" stroke-linecap="round" stroke-linejoin="round" stroke-width="1"/>
      <path id="Path_10206" data-name="Path 10206" d="M330.894,43.971h0a2.894,2.894,0,0,0,2.894-2.894V39.894A2.894,2.894,0,0,0,330.894,37h0A2.894,2.894,0,0,0,328,39.894v1.183A2.894,2.894,0,0,0,330.894,43.971Z" transform="translate(-293.519 -20.63)" fill="none" stroke="#fff" stroke-linecap="round" stroke-linejoin="round" stroke-width="1"/>
      <path id="Path_10207" data-name="Path 10207" d="M93.894,43.971h0A2.894,2.894,0,0,1,91,41.077V39.894A2.894,2.894,0,0,1,93.894,37h0a2.894,2.894,0,0,1,2.894,2.894v1.183A2.894,2.894,0,0,1,93.894,43.971Z" transform="translate(-71.27 -20.63)" fill="none" stroke="#fff" stroke-linecap="round" stroke-linejoin="round" stroke-width="1"/>
    </g>
  </g>
</svg>
