<svg xmlns="http://www.w3.org/2000/svg" width="70.693" height="73.506" viewBox="0 0 70.693 73.506">
  <g id="Group_13092" data-name="Group 13092" transform="translate(-564 -5608.275)">
    <path id="Path_10174" data-name="Path 10174" d="M132.533,18.063h0A7.94,7.94,0,0,0,141,20.815h0a7.94,7.94,0,0,1,10.138,7.366h0a7.94,7.94,0,0,0,5.233,7.2h0A7.94,7.94,0,0,1,160.245,47.3h0a7.94,7.94,0,0,0,0,8.9h0a7.94,7.94,0,0,1-3.872,11.918h0a7.94,7.94,0,0,0-5.233,7.2h0A7.94,7.94,0,0,1,141,82.693h0a7.94,7.94,0,0,0-8.468,2.751h0a7.94,7.94,0,0,1-12.531,0h0a7.94,7.94,0,0,0-8.468-2.751h0A7.94,7.94,0,0,1,101.4,75.327h0a7.94,7.94,0,0,0-5.233-7.2h0A7.94,7.94,0,0,1,92.29,56.205h0a7.94,7.94,0,0,0,0-8.9h0a7.94,7.94,0,0,1,3.872-11.918h0a7.94,7.94,0,0,0,5.233-7.2h0a7.94,7.94,0,0,1,10.138-7.366h0A7.94,7.94,0,0,0,120,18.063h0A7.94,7.94,0,0,1,132.533,18.063Z" transform="translate(473.079 5593.274)" fill="#f174a8"/>
    <g id="support-service_19022922" transform="translate(573 5619.274)">
      <g id="Group_12879" data-name="Group 12879" transform="translate(15.546 13.437)">
        <path id="Path_10194" data-name="Path 10194" d="M372.736,368.783v.046a1.755,1.755,0,0,1-1.755,1.756h-1.924" transform="translate(-351.681 -349.315)" fill="none" stroke="#fff" stroke-linecap="round" stroke-linejoin="round" stroke-width="1"/>
        <path id="Path_10195" data-name="Path 10195" d="M316.59,249.6v-.269a3.121,3.121,0,0,0-3.12-3.122h-.921a3.121,3.121,0,0,0-3.12,3.122v.3" transform="translate(-295.704 -234.241)" fill="none" stroke="#fff" stroke-linecap="round" stroke-linejoin="round" stroke-width="1"/>
        <path id="Path_10196" data-name="Path 10196" d="M284.958,306.107h0a1.854,1.854,0,0,1-1.854-1.854V303.9a1.854,1.854,0,0,1,1.854-1.854h0a.835.835,0,0,1,.835.835v2.39A.835.835,0,0,1,284.958,306.107Z" transform="translate(-270.991 -286.666)" fill="none" stroke="#fff" stroke-linecap="round" stroke-linejoin="round" stroke-width="1"/>
        <path id="Path_10197" data-name="Path 10197" d="M410.43,306.106h0a1.024,1.024,0,0,1-1.024-1.024v-2.011a1.024,1.024,0,0,1,1.024-1.024h0a1.664,1.664,0,0,1,1.664,1.665v.73A1.664,1.664,0,0,1,410.43,306.106Z" transform="translate(-389.56 -286.665)" fill="none" stroke="#fff" stroke-linecap="round" stroke-linejoin="round" stroke-width="1"/>
        <line id="Line_141" data-name="Line 141" y2="1.854" transform="translate(17.305 20.343)" fill="none" stroke="#fff" stroke-linecap="round" stroke-linejoin="round" stroke-width="1"/>
        <line id="Line_142" data-name="Line 142" y1="1.251" transform="translate(15.603 0)" fill="none" stroke="#fff" stroke-linecap="round" stroke-linejoin="round" stroke-width="1"/>
        <line id="Line_143" data-name="Line 143" y1="0.925" x2="0.924" transform="translate(18.37 1.615)" fill="none" stroke="#fff" stroke-linecap="round" stroke-linejoin="round" stroke-width="1"/>
        <line id="Line_144" data-name="Line 144" x2="1.248" transform="translate(19.66 5.308)" fill="none" stroke="#fff" stroke-linecap="round" stroke-linejoin="round" stroke-width="1"/>
        <line id="Line_145" data-name="Line 145" y2="1.251" transform="translate(5.305 20.992)" fill="none" stroke="#fff" stroke-linecap="round" stroke-linejoin="round" stroke-width="1"/>
        <line id="Line_146" data-name="Line 146" x1="0.924" y2="0.925" transform="translate(1.613 19.703)" fill="none" stroke="#fff" stroke-linecap="round" stroke-linejoin="round" stroke-width="1"/>
        <line id="Line_147" data-name="Line 147" x1="1.248" transform="translate(0 16.935)" fill="none" stroke="#fff" stroke-linecap="round" stroke-linejoin="round" stroke-width="1"/>
      </g>
      <g id="Group_12880" data-name="Group 12880" transform="translate(11 11)">
        <path id="Path_10198" data-name="Path 10198" d="M235.422,197.563v10.176a2.225,2.225,0,0,0,2.225,2.224h9.425a2.623,2.623,0,0,1,1.664.6l1.874,1.538a.656.656,0,0,0,1.072-.506V195.639a2.225,2.225,0,0,0-2.225-2.224H238.013" transform="translate(-221.682 -182.247)" fill="none" stroke="#fff" stroke-linecap="round" stroke-linejoin="round" stroke-width="1"/>
        <path id="Path_10199" data-name="Path 10199" d="M13.412,11H24.885A2.412,2.412,0,0,1,27.3,13.411v10.46a2.412,2.412,0,0,1-2.412,2.411H16a2.844,2.844,0,0,0-1.8.646L12.162,28.6A.711.711,0,0,1,11,28.046V13.411A2.412,2.412,0,0,1,13.412,11Z" transform="translate(-11 -11)" fill="none" stroke="#fff" stroke-linecap="round" stroke-linejoin="round" stroke-width="1"/>
        <line id="Line_148" data-name="Line 148" y2="5.659" transform="translate(11.702 3.781)" fill="none" stroke="#fff" stroke-linecap="round" stroke-linejoin="round" stroke-width="1"/>
        <line id="Line_149" data-name="Line 149" transform="translate(11.702 11.886)" fill="none" stroke="#fff" stroke-linecap="round" stroke-linejoin="round" stroke-width="1"/>
        <path id="Path_10200" data-name="Path 10200" d="M76.041,69.967a2.089,2.089,0,1,1,2.088,2.09v1.778" transform="translate(-72.059 -64.395)" fill="none" stroke="#fff" stroke-linecap="round" stroke-linejoin="round" stroke-width="1"/>
        <line id="Line_150" data-name="Line 150" transform="translate(6.071 11.886)" fill="none" stroke="#fff" stroke-linecap="round" stroke-linejoin="round" stroke-width="1"/>
      </g>
    </g>
  </g>
</svg>
