<svg xmlns="http://www.w3.org/2000/svg" width="26.646" height="22.676" viewBox="0 0 26.646 22.676">
  <g id="buddy_10157108" transform="translate(0.5 0.5)">
    <path id="Path_2286" data-name="Path 2286" d="M277,148.325a6.209,6.209,0,0,0-2.674.6,5.861,5.861,0,0,0-3.125,3.606,5.567,5.567,0,0,0-.227,1.577,5.221,5.221,0,0,0,.333,1.858A5.494,5.494,0,0,0,274.9,159.2a7.182,7.182,0,0,0,4.2,0,5.494,5.494,0,0,0,3.592-3.236,5.221,5.221,0,0,0,.333-1.858,5.567,5.567,0,0,0-.227-1.577,5.861,5.861,0,0,0-3.125-3.606A6.21,6.21,0,0,0,277,148.325Z" transform="translate(-257.375 -143.043)" fill="none" stroke="#ff0057" stroke-linecap="round" stroke-linejoin="round" stroke-width="1"/>
    <path id="Path_2287" data-name="Path 2287" d="M290.216,210.183a3.267,3.267,0,0,0-2.722-.172,3.059,3.059,0,0,1-2.622-.262.53.53,0,0,0-.534,0,3.058,3.058,0,0,1-2.622.262,3.267,3.267,0,0,0-2.722.172" transform="translate(-264.983 -201.229)" fill="none" stroke="#ff0057" stroke-linecap="round" stroke-linejoin="round" stroke-width="1"/>
    <path id="Path_2288" data-name="Path 2288" d="M405.486,344.807a1.578,1.578,0,0,0,0,.554,2.474,2.474,0,0,0,1.867,1.867,1.515,1.515,0,0,0,1.367-.441,1.848,1.848,0,0,0,.526-1.489,2.021,2.021,0,0,0-.589-1.242,2.063,2.063,0,0,0-.368-.293" transform="translate(-384.925 -328.396)" fill="none" stroke="#ff0057" stroke-linecap="round" stroke-linejoin="round" stroke-width="1"/>
    <path id="Path_2289" data-name="Path 2289" d="M419.77,409.124h1.4a1.478,1.478,0,0,0,1.414-1.92,6.211,6.211,0,0,0-.519-1.176" transform="translate(-398.496 -387.448)" fill="none" stroke="#ff0057" stroke-linecap="round" stroke-linejoin="round" stroke-width="1"/>
    <path id="Path_2290" data-name="Path 2290" d="M246.4,349.67a6.269,6.269,0,0,0-4.2,4.084,1.478,1.478,0,0,0,1.414,1.92h5.829" transform="translate(-230.024 -333.998)" fill="none" stroke="#ff0057" stroke-linecap="round" stroke-linejoin="round" stroke-width="1"/>
    <path id="Path_2291" data-name="Path 2291" d="M267.118,312.668A2.271,2.271,0,0,0,266.65,316" transform="translate(-252.776 -298.906)" fill="none" stroke="#ff0057" stroke-linecap="round" stroke-linejoin="round" stroke-width="1"/>
    <path id="Path_2292" data-name="Path 2292" d="M57.984,138.264c0-.036,0-.073,0-.109a5.763,5.763,0,0,0-.486-2.321q-.1-.219-.209-.429a.558.558,0,0,0-.687-.256,6.03,6.03,0,0,1-2.368.331,5.09,5.09,0,0,1-2.491-.741,5.09,5.09,0,0,1-2.491.741,6.028,6.028,0,0,1-2.368-.331.557.557,0,0,0-.687.256q-.113.21-.209.429a5.763,5.763,0,0,0-.486,2.321,5.353,5.353,0,0,0,.5,2.3,5.626,5.626,0,0,0,2.878,2.721,7.326,7.326,0,0,0,5.718,0,5.744,5.744,0,0,0,2.537-2.11" transform="translate(-43.541 -130.159)" fill="none" stroke="#ff0057" stroke-linecap="round" stroke-linejoin="round" stroke-width="1"/>
    <g id="Group_12248" data-name="Group 12248" transform="translate(0 0)">
      <path id="Path_2293" data-name="Path 2293" d="M9.378,94.586a6.666,6.666,0,0,0-1.034,1.527,8.846,8.846,0,0,0-.842,3.8c-.043,2.328.652,3.625,1.549,4.206a2.44,2.44,0,0,0,2.388.125" transform="translate(-7.499 -92.077)" fill="none" stroke="#ff0057" stroke-linecap="round" stroke-linejoin="round" stroke-width="1"/>
      <path id="Path_2294" data-name="Path 2294" d="M84.217,52.234a7.987,7.987,0,0,0-.7-2.227,6.829,6.829,0,0,0-3.463-3.252,10.078,10.078,0,0,0-7.791,0,7.692,7.692,0,0,0-1.018.541" transform="translate(-67.955 -45.972)" fill="none" stroke="#ff0057" stroke-linecap="round" stroke-linejoin="round" stroke-width="1"/>
    </g>
    <path id="Path_2295" data-name="Path 2295" d="M30.173,309.245a5.829,5.829,0,0,1-1.846.718,8.838,8.838,0,0,1-2.918.082,1.94,1.94,0,1,0-.483,3.849,12.82,12.82,0,0,0,4.081-.11,10.111,10.111,0,0,0,1.933-.586,5.906,5.906,0,0,0,3.584,2.7" transform="translate(-22.415 -295.66)" fill="none" stroke="#ff0057" stroke-linecap="round" stroke-linejoin="round" stroke-width="1"/>
    <path id="Path_2296" data-name="Path 2296" d="M80.985,326.2a4.592,4.592,0,0,1,.363,1.916,3.457,3.457,0,0,1-.506,1.961" transform="translate(-77.057 -311.742)" fill="none" stroke="#ff0057" stroke-linecap="round" stroke-linejoin="round" stroke-width="1"/>
    <g id="Group_12249" data-name="Group 12249" transform="translate(4.98 7.675)">
      <line id="Line_257" data-name="Line 257" y2="0.619" transform="translate(6.445)" fill="none" stroke="#ff0057" stroke-linecap="round" stroke-linejoin="round" stroke-width="1"/>
      <line id="Line_258" data-name="Line 258" y2="0.619" fill="none" stroke="#ff0057" stroke-linecap="round" stroke-linejoin="round" stroke-width="1"/>
    </g>
    <g id="Group_12250" data-name="Group 12250" transform="translate(16.399 11.053)">
      <line id="Line_259" data-name="Line 259" y2="0.619" transform="translate(6.445)" fill="none" stroke="#ff0057" stroke-linecap="round" stroke-linejoin="round" stroke-width="1"/>
      <line id="Line_260" data-name="Line 260" y2="0.619" fill="none" stroke="#ff0057" stroke-linecap="round" stroke-linejoin="round" stroke-width="1"/>
    </g>
  </g>
</svg>
