<svg xmlns="http://www.w3.org/2000/svg" width="31" height="31" viewBox="0 0 31 31">
  <g id="Group_12215" data-name="Group 12215" transform="translate(-387.5 -1821)">
    <g id="Ellipse_52" data-name="Ellipse 52" transform="translate(387.5 1821)" fill="none" stroke="#fff" stroke-linecap="round" stroke-linejoin="round" stroke-width="1">
      <circle cx="15.5" cy="15.5" r="15.5" stroke="none"/>
      <circle cx="15.5" cy="15.5" r="15" fill="none"/>
    </g>
    <g id="Call" transform="translate(392.5 1827)">
      <path id="Path_10072" data-name="Path 10072" d="M292,20a9.043,9.043,0,0,1,9.032,9.032" transform="translate(-281.032 -20)" fill="none" stroke="#fff" stroke-linecap="round" stroke-linejoin="round" stroke-width="1"/>
      <path id="Path_10073" data-name="Path 10073" d="M292,100a5.425,5.425,0,0,1,5.419,5.419" transform="translate(-280.733 -96.913)" fill="none" stroke="#fff" stroke-linecap="round" stroke-linejoin="round" stroke-width="1"/>
      <path id="Path_10074" data-name="Path 10074" d="M292,180a1.806,1.806,0,0,1,1.806,1.806" transform="translate(-280.545 -173.632)" fill="none" stroke="#fff" stroke-linecap="round" stroke-linejoin="round" stroke-width="1"/>
      <path id="Path_10075" data-name="Path 10075" d="M26.916,50.966l-1.584,1.5a31.024,31.024,0,0,0,2.778,3.023,31.686,31.686,0,0,0,3.193,2.63l1.583-1.5a1.756,1.756,0,0,1,2.388,0l3.582,3.392-1.791,1.7-.556.527a3.528,3.528,0,0,1-4.2.436,38.3,38.3,0,0,1-6.582-4.92,36.83,36.83,0,0,1-5.2-6.233,3.078,3.078,0,0,1,.46-3.981l.556-.527,1.791-1.7,3.582,3.392A1.54,1.54,0,0,1,26.916,50.966Z" transform="translate(-19.999 -44.17)" fill="none" stroke="#fff" stroke-linecap="round" stroke-linejoin="round" stroke-width="1"/>
    </g>
  </g>
</svg>
