<svg xmlns="http://www.w3.org/2000/svg" width="1920.997" height="153.352" viewBox="0 0 1920.997 153.352">
  <path id="Intersection_5" data-name="Intersection 5" d="M0,152.339V51.99c9.253-1.717,19.061.009,26.337,5.889C26.683,42.261,36.6,27.8,49.892,19.6s29.516-10.7,45.1-9.569c17.172,1.24,34.179,7.842,47.018,19.44C157.1,43.107,159.727,61.153,158.6,80.96a70.588,70.588,0,0,1,10.108-1.282h.013q1.616-.078,3.227-.058c.384,0,.768.016,1.152.03.556.02,1.111.047,1.665.087q.937.067,1.868.177c.3.034.593.068.89.111q1.238.173,2.465.426c.188.04.374.085.563.126.9.2,1.787.426,2.669.7A28.946,28.946,0,0,1,199.2,93.756c4.481,7,6.694,15.846,7.138,24.635a33.23,33.23,0,0,1,12.639-7.186c12.061-3.612,25.176-1.017,36.89,3.6h0l0-.013c.291-1.075.635-2.131,1.006-3.179.1-.3.213-.588.324-.88q.479-1.276,1.036-2.523c.094-.212.179-.426.276-.637.456-.983.95-1.951,1.474-2.906.163-.3.337-.59.5-.883q.6-1.046,1.253-2.065c.2-.317.4-.635.609-.948.581-.867,1.184-1.723,1.817-2.561.245-.324.5-.636.757-.957.436-.553.881-1.1,1.34-1.639.332-.391.667-.778,1.01-1.161.439-.489.891-.967,1.347-1.444q.907-.949,1.858-1.863c.4-.386.8-.773,1.213-1.15.478-.436.965-.864,1.458-1.289q.5-.433,1.018-.856c1.214-1.005,2.46-1.979,3.748-2.907l.009-.006c.617-.445,1.248-.873,1.882-1.3q.417-.281.84-.556a75.547,75.547,0,0,1,19.561-9.1c12.288-3.673,25.266-4.059,36.473-.068a48.161,48.161,0,0,1,27.915,27.329,57.8,57.8,0,0,1,23.357,8.89c.247-.464.5-.923.757-1.382q.543-.991,1.1-1.968.629-1.094,1.284-2.171c.407-.673.815-1.346,1.235-2.009s.859-1.323,1.3-1.981c.459-.691.913-1.384,1.386-2.063.4-.577.818-1.141,1.229-1.71.533-.737,1.059-1.48,1.609-2.2.152-.2.313-.393.467-.591q2.342-3.043,4.879-5.914c.141-.161.277-.327.419-.486.762-.854,1.547-1.686,2.335-2.515.288-.3.572-.615.862-.915.773-.8,1.563-1.575,2.358-2.349.318-.309.633-.62.954-.925q1.208-1.149,2.449-2.257c.32-.285.639-.571.96-.852q1.278-1.122,2.587-2.2c.293-.242.59-.48.886-.719.919-.743,1.844-1.475,2.785-2.188.223-.169.451-.333.675-.5,24.9-18.577,57.094-26.546,88.776-16.831,12.524-30.724,43.493-53.05,76.6-55.222s66.729,15.911,83.163,44.734C688.407,30.871,717.542,36.8,734.3,53.9a66.5,66.5,0,0,1,8.7,11.07.14.14,0,0,0,.007.013c1.168,1.849,2.242,3.757,3.242,5.706.1.189.2.373.3.563.413.824.8,1.661,1.189,2.5.165.357.328.715.488,1.075q.537,1.22,1.038,2.46c.153.381.3.765.446,1.147.323.841.645,1.682.943,2.534.073.208.136.419.207.628q.876,2.569,1.594,5.2c.122.443.251.882.367,1.327.2.755.374,1.516.551,2.276.136.579.268,1.157.394,1.738q.231,1.073.438,2.153c.128.661.244,1.326.358,1.991s.231,1.318.332,1.982c.147.965.274,1.933.394,2.9q.127,1.017.236,2.031c.106,1,.205,2.009.285,3.015.041.53.072,1.06.107,1.59q.085,1.312.144,2.624.034.79.057,1.579.042,1.4.048,2.793c0,.448.011.9.009,1.345-.007,1.369-.031,2.737-.083,4.1h0a39.274,39.274,0,0,1,12.576-3.381q1.3-.13,2.613-.175a41.965,41.965,0,0,1,10.409.933,39.657,39.657,0,0,1,14.314,6.2,41.9,41.9,0,0,1,13.451,14.7,28.7,28.7,0,0,1,1.25,2.789c.052.135.094.272.144.408.392-.39.779-.785,1.174-1.17.305-.3.608-.6.917-.891q1.162-1.106,2.358-2.172.456-.41.918-.815,1.229-1.077,2.486-2.118c.284-.234.571-.464.858-.7.881-.712,1.768-1.415,2.67-2.1.217-.165.437-.324.655-.486.985-.733,1.975-1.458,2.982-2.158,23.49-16.3,53.147-22.97,82.345-14.017,12.04-29.531,41.806-50.99,73.627-53.08s64.139,15.3,79.936,43a41.381,41.381,0,0,1,25.183-7.516c8.618-7.376,19.791-11,31.683-7.907a39.9,39.9,0,0,1,10.21,4.271c2.21-14.218,9.228-28.188,21.172-36.212s29.121-8.808,40.313.237c.346-15.618,10.259-30.079,23.555-38.28s29.516-10.7,45.1-9.569c17.172,1.24,34.18,7.842,47.019,19.44,15.092,13.637,17.72,31.683,16.59,51.489a70.615,70.615,0,0,1,10.109-1.282h.013q1.615-.078,3.227-.058c.384,0,.767.016,1.151.03.556.02,1.111.047,1.665.087q.937.067,1.869.177c.3.034.593.068.888.111q1.241.173,2.466.426c.188.04.375.085.563.126.9.2,1.788.426,2.671.7A28.942,28.942,0,0,1,1363.2,93.756c4.482,7,6.7,15.846,7.138,24.635a33.231,33.231,0,0,1,12.639-7.186c12.061-3.612,25.177-1.017,36.891,3.6h0l0-.013c.29-1.075.635-2.131,1.006-3.179.1-.3.213-.588.323-.88q.481-1.276,1.036-2.523c.094-.212.18-.426.277-.637.456-.983.95-1.951,1.473-2.906.163-.3.338-.59.506-.883q.6-1.046,1.253-2.065c.2-.317.4-.635.608-.948.581-.867,1.183-1.723,1.817-2.561.245-.324.505-.636.757-.957.437-.553.882-1.1,1.341-1.639.332-.391.666-.778,1.01-1.161.439-.489.891-.967,1.347-1.444q.906-.949,1.859-1.863c.4-.386.8-.773,1.213-1.15.478-.436.965-.864,1.457-1.289.336-.289.677-.573,1.019-.856,1.213-1.005,2.459-1.979,3.748-2.907l.008-.006c.618-.445,1.249-.873,1.883-1.3q.417-.281.839-.556a75.552,75.552,0,0,1,19.562-9.1c12.288-3.673,25.266-4.059,36.473-.068a48.161,48.161,0,0,1,27.915,27.329,57.8,57.8,0,0,1,23.356,8.89c.247-.464.505-.923.758-1.382q.543-.991,1.1-1.968c.419-.729.85-1.451,1.284-2.171.408-.673.815-1.346,1.236-2.009s.859-1.323,1.3-1.981c.457-.691.912-1.384,1.384-2.063.4-.577.818-1.141,1.23-1.71.532-.737,1.058-1.48,1.608-2.2.153-.2.314-.393.467-.591q2.342-3.043,4.879-5.914c.142-.161.278-.327.42-.486.762-.854,1.547-1.686,2.334-2.515.288-.3.572-.615.862-.915.774-.8,1.564-1.575,2.359-2.349.317-.309.633-.62.953-.925q1.208-1.149,2.449-2.257c.32-.285.639-.571.961-.852q1.278-1.122,2.587-2.2c.294-.242.59-.48.886-.719.919-.743,1.844-1.475,2.785-2.188.224-.169.451-.333.675-.5,24.9-18.577,57.1-26.546,88.775-16.831,12.526-30.724,43.494-53.05,76.6-55.222s66.728,15.911,83.162,44.734c19.39-14.039,48.524-8.107,65.281,8.986a66.4,66.4,0,0,1,8.7,11.07l.008.013c1.168,1.849,2.242,3.757,3.241,5.706.1.189.2.373.3.563.414.824.8,1.661,1.19,2.5.164.357.328.715.487,1.075q.539,1.22,1.039,2.46c.153.381.3.765.446,1.147.323.841.645,1.682.943,2.534.073.208.136.419.207.628q.875,2.569,1.594,5.2c.122.443.251.882.366,1.327.2.755.375,1.516.551,2.276.137.579.269,1.157.394,1.738q.231,1.073.439,2.153c.127.661.243,1.326.357,1.991s.232,1.318.332,1.982c.148.965.274,1.933.4,2.9q.126,1.017.234,2.031c.107,1,.206,2.009.285,3.015.042.53.073,1.06.107,1.59q.044.682.082,1.364v43.176Z" transform="translate(0.5 0.514)" fill="#fff" stroke="rgba(0,0,0,0)" stroke-width="1"/>
</svg>
