<svg xmlns="http://www.w3.org/2000/svg" width="251.479" height="292.949" viewBox="0 0 251.479 292.949">
  <path id="Path_4196" data-name="Path 4196" d="M-637.4,1085.9l-21.859-63.124q-6.334-18.588-16.445-29.214t-21.96-10.622h-3.474V1085.9h-88.252V792.947h117.261q61.488,0,90.806,20.122t29.316,60.368q0,30.235-17.057,50.664t-50.766,29.62v.819a70.932,70.932,0,0,1,30.95,18.59q12.358,12.868,22.166,38.2l28.8,74.565Zm-8.376-200q0-14.707-8.988-23.289t-28.192-8.579h-18.183v67.006H-685.2q17.773,0,28.6-10.01A32.779,32.779,0,0,0-645.775,885.9Z" transform="translate(789.389 -792.947)" fill="#5cc6d0"/>
</svg>
