<svg xmlns="http://www.w3.org/2000/svg" width="30" height="30.5" viewBox="0 0 30 30.5">
  <g id="earning_9085935" transform="translate(-0.171 -0.175)">
    <g id="Group_12859" data-name="Group 12859" transform="translate(0.171 20.321)">
      <path id="Path_10167" data-name="Path 10167" d="M10.717,347l2.731,1.584h6.489l5-4.64a2.32,2.32,0,0,0-3.28-.124l-2.573,2.388-5.635-.787-2.2-3.57v-.312l3.308.992a2.32,2.32,0,0,0,2.882-1.572h0l-7.565-2.228H0" transform="translate(0.257 -338.728)" fill="none" stroke="#ab8f72" stroke-width="1"/>
      <path id="Path_10168" data-name="Path 10168" d="M0,443.409H7.2l2.678,1.554" transform="translate(0 -437.18)" fill="none" stroke="#ab8f72" stroke-width="1"/>
      <path id="Path_10169" data-name="Path 10169" d="M286.351,411.1l1.02-3.259h0a1.976,1.976,0,0,0-2.478,1.3l-.558,1.784" transform="translate(-267.416 -403.639)" fill="none" stroke="#ab8f72" stroke-width="1"/>
    </g>
    <circle id="Ellipse_61" data-name="Ellipse 61" cx="7.83" cy="7.83" r="7.83" transform="translate(10.078 4.673)" fill="none" stroke="#ab8f72" stroke-width="1"/>
    <path id="Path_10171" data-name="Path 10171" d="M395.57.757a2.989,2.989,0,0,0,2.989,2.989h0a2.989,2.989,0,0,0-2.989,2.989v0a2.989,2.989,0,0,0-2.989-2.989h0A2.989,2.989,0,0,0,395.57.757v0Z" transform="translate(-368.969)" fill="none" stroke="#ab8f72" stroke-width="1"/>
    <path id="Path_10172" data-name="Path 10172" d="M79.57,121.757a2.989,2.989,0,0,0,2.989,2.989h0a2.989,2.989,0,0,0-2.989,2.989v0a2.989,2.989,0,0,0-2.989-2.989h0a2.989,2.989,0,0,0,2.989-2.989v0Z" transform="translate(-74.563 -113.8)" fill="none" stroke="#ab8f72" stroke-width="1"/>
    <g id="Group_12860" data-name="Group 12860" transform="translate(15.812 8.661)">
      <g id="g33">
        <path id="path35" d="M0,0H1.4a2.1,2.1,0,1,1,0,4.192H0" fill="none" stroke="#ab8f72" stroke-linecap="round" stroke-linejoin="round" stroke-width="1"/>
      </g>
      <g id="g37" transform="translate(0 2.096)">
        <path id="path39" d="M0,0H4.192" fill="none" stroke="#ab8f72" stroke-linecap="round" stroke-linejoin="round" stroke-width="1"/>
      </g>
      <g id="g41">
        <path id="path43" d="M0,0H4.192" fill="none" stroke="#ab8f72" stroke-linecap="round" stroke-linejoin="round" stroke-width="1"/>
      </g>
      <g id="g45" transform="translate(0 4.192)">
        <path id="path47" d="M0,0,2.794,3.493" fill="none" stroke="#ab8f72" stroke-linecap="round" stroke-linejoin="round" stroke-width="1"/>
      </g>
    </g>
  </g>
</svg>
