<svg xmlns="http://www.w3.org/2000/svg" width="31.061" height="31.061" viewBox="0 0 31.061 31.061">
  <g id="Area" transform="translate(-13.788 -27.577)">
    <path id="Path_10147" data-name="Path 10147" d="M14.142,31.22l2.936-2.936,2.936,2.936" transform="translate(0 0)" fill="none" stroke="#ab8f72" stroke-width="1"/>
    <path id="Path_10148" data-name="Path 10148" d="M438.142,406.284l2.936,2.936-2.936,2.936" transform="translate(-396.936 -353.872)" fill="none" stroke="#ab8f72" stroke-width="1"/>
    <path id="Path_10149" data-name="Path 10149" d="M60.142,28.284V55.348H87.206" transform="translate(-43.064 0)" fill="none" stroke="#ab8f72" stroke-width="1"/>
    <path id="Path_10150" data-name="Path 10150" d="M60.142,132.284H80.568V152.71" transform="translate(-43.064 -97.362)" fill="none" stroke="#ab8f72" stroke-width="1"/>
    <line id="Line_122" data-name="Line 122" y1="9.594" x2="9.594" transform="translate(17.078 34.922)" fill="none" stroke="#ab8f72" stroke-width="1"/>
    <line id="Line_123" data-name="Line 123" x1="9.594" y2="9.594" transform="translate(27.91 45.754)" fill="none" stroke="#ab8f72" stroke-width="1"/>
    <line id="Line_124" data-name="Line 124" y1="16.815" x2="16.815" transform="translate(17.078 34.922)" fill="none" stroke="#ab8f72" stroke-width="1"/>
    <line id="Line_125" data-name="Line 125" x1="16.815" y2="16.815" transform="translate(20.689 38.533)" fill="none" stroke="#ab8f72" stroke-width="1"/>
    <path id="Path_10151" data-name="Path 10151" d="M400.142,52.284h3.83v3.83" transform="translate(-361.362 -22.468)" fill="none" stroke="#ab8f72" stroke-width="1"/>
    <line id="Line_126" data-name="Line 126" y1="4.454" transform="translate(42.354 37.138)" fill="none" stroke="#ab8f72" stroke-width="1"/>
    <line id="Line_127" data-name="Line 127" y1="5.939" transform="translate(42.354 43.078)" fill="none" stroke="#ab8f72" stroke-width="1"/>
    <line id="Line_128" data-name="Line 128" x2="5.939" transform="translate(23.051 29.714)" fill="none" stroke="#ab8f72" stroke-width="1"/>
    <line id="Line_129" data-name="Line 129" x2="5.939" transform="translate(30.475 29.714)" fill="none" stroke="#ab8f72" stroke-width="1"/>
  </g>
</svg>
