<svg xmlns="http://www.w3.org/2000/svg" width="52.497" height="56.163" viewBox="0 0 52.497 56.163">
  <g id="Water_Faucet_1_" transform="translate(-34.973 -19)">
    <line id="Line_110" data-name="Line 110" y2="9.181" transform="translate(56.631 38.356)" fill="none" stroke="#fff" stroke-linecap="round" stroke-linejoin="round" stroke-width="2"/>
    <path id="Path_10131" data-name="Path 10131" d="M95.973,189.127v-4.591a4.591,4.591,0,0,1,4.591-4.591h39.02" transform="translate(-53.114 -141.59)" fill="none" stroke="#fff" stroke-linecap="round" stroke-linejoin="round" stroke-width="2"/>
    <path id="Path_10132" data-name="Path 10132" d="M109.745,286.572V273.718h13.772v4.591H132.7v-4.591h4.591a9.181,9.181,0,0,0-9.181-9.181H109.745v-4.591H95.973v26.626" transform="translate(-53.114 -212.409)" fill="none" stroke="#fff" stroke-linecap="round" stroke-linejoin="round" stroke-width="2"/>
    <line id="Line_111" data-name="Line 111" x1="27.544" transform="translate(35.973 74.163)" fill="none" stroke="#fff" stroke-linecap="round" stroke-linejoin="round" stroke-width="2"/>
    <path id="Path_10133" data-name="Path 10133" d="M91.12,24.027a13.787,13.787,0,0,1,19.476,0" transform="translate(-48.818)" fill="none" stroke="#fff" stroke-linecap="round" stroke-linejoin="round" stroke-width="2"/>
    <path id="Path_10134" data-name="Path 10134" d="M147.689,101.29a4.591,4.591,0,0,1,6.492,0" transform="translate(-98.895 -70.771)" fill="none" stroke="#fff" stroke-linecap="round" stroke-linejoin="round" stroke-width="2"/>
  </g>
</svg>
