<svg xmlns="http://www.w3.org/2000/svg" width="48.234" height="57" viewBox="0 0 48.234 57">
  <g id="support_18034815" transform="translate(-49.047 -10)">
    <path id="Path_10225" data-name="Path 10225" d="M294.259,62.024V21.24h5.6L289.785,11,279.713,21.24h5.6V39.426" transform="translate(-203.576)" fill="none" stroke="#fff" stroke-linecap="round" stroke-linejoin="round" stroke-width="2"/>
    <g id="Group_13059" data-name="Group 13059" transform="translate(50.047 26.04)">
      <g id="Group_13057" data-name="Group 13057" transform="translate(18.954 13.541)">
        <path id="Path_10226" data-name="Path 10226" d="M276.849,314.513v2.029a5.609,5.609,0,1,1-11.217-.07v-1.959H267a4.783,4.783,0,0,0,4.055-2.247l.189-.3.189.3a4.783,4.783,0,0,0,4.055,2.247h1.364Z" transform="translate(-260.052 -306.439)" fill="none" stroke="#fff" stroke-linecap="round" stroke-linejoin="round" stroke-width="2"/>
        <path id="Path_10227" data-name="Path 10227" d="M265.632,270.02V267.6a5.608,5.608,0,0,1,5.608-5.608h0a5.608,5.608,0,0,1,5.608,5.608v2.465" transform="translate(-260.052 -261.991)" fill="none" stroke="#fff" stroke-linecap="round" stroke-linejoin="round" stroke-width="2"/>
        <path id="Path_10228" data-name="Path 10228" d="M289.921,396.693v2.7l2.924,3.453,2.924-3.453v-2.7" transform="translate(-281.656 -381.804)" fill="none" stroke="#fff" stroke-linecap="round" stroke-linejoin="round" stroke-width="2"/>
        <g id="Group_13056" data-name="Group 13056" transform="translate(0 17.586)">
          <path id="Path_10229" data-name="Path 10229" d="M215.152,429.92h22.376v-.681a8.152,8.152,0,0,0-8.152-8.152h-.112" transform="translate(-215.152 -421.087)" fill="none" stroke="#fff" stroke-linecap="round" stroke-linejoin="round" stroke-width="2"/>
          <path id="Path_10230" data-name="Path 10230" d="M235.391,421.087h-.112a8.142,8.142,0,0,0-6.664,3.456" transform="translate(-227.126 -421.087)" fill="none" stroke="#fff" stroke-linecap="round" stroke-linejoin="round" stroke-width="2"/>
        </g>
      </g>
      <g id="Group_13058" data-name="Group 13058">
        <path id="Path_10231" data-name="Path 10231" d="M120.806,229.521v3.6a6.432,6.432,0,0,1-6.542,6.431,6.5,6.5,0,0,1-6.322-6.537v-3.489h2.137a6.4,6.4,0,0,0,4.3-1.656h0a6.4,6.4,0,0,0,4.3,1.656Z" transform="translate(-101.542 -218.096)" fill="none" stroke="#fff" stroke-linecap="round" stroke-linejoin="round" stroke-width="2"/>
        <path id="Path_10232" data-name="Path 10232" d="M135.8,325.04v3.092l3.353,3.96,3.353-3.96V325.04" transform="translate(-126.32 -304.53)" fill="none" stroke="#fff" stroke-linecap="round" stroke-linejoin="round" stroke-width="2"/>
        <path id="Path_10233" data-name="Path 10233" d="M57.394,363.4h10.6a2.984,2.984,0,0,1,2.984,2.984h0a2.984,2.984,0,0,1-2.984,2.984H56.268a6.221,6.221,0,0,1-6.221-6.221v-.781a9.35,9.35,0,0,1,9.35-9.35" transform="translate(-50.047 -329.415)" fill="none" stroke="#fff" stroke-linecap="round" stroke-linejoin="round" stroke-width="2"/>
        <path id="Path_10234" data-name="Path 10234" d="M197.634,353.018h7.516" transform="translate(-181.321 -329.415)" fill="none" stroke="#fff" stroke-linecap="round" stroke-linejoin="round" stroke-width="2"/>
        <line id="Line_163" data-name="Line 163" y2="5.969" transform="translate(16.067 33.985)" fill="none" stroke="#fff" stroke-linecap="round" stroke-linejoin="round" stroke-width="2"/>
        <path id="Path_10235" data-name="Path 10235" d="M120.806,187.763v-.413a6.432,6.432,0,1,0-12.864,0v.413" transform="translate(-101.543 -176.337)" fill="none" stroke="#fff" stroke-linecap="round" stroke-linejoin="round" stroke-width="2"/>
        <path id="Path_10236" data-name="Path 10236" d="M138.586,144.544a3.12,3.12,0,1,1,4.885,0" transform="translate(-128.197 -139.483)" fill="none" stroke="#fff" stroke-linecap="round" stroke-linejoin="round" stroke-width="2"/>
      </g>
    </g>
  </g>
</svg>
