<svg xmlns="http://www.w3.org/2000/svg" width="16.401" height="16.401" viewBox="0 0 16.401 16.401">
  <path id="Icon_awesome-phone" data-name="Icon awesome-phone" d="M.6.788,3.926.019a.774.774,0,0,1,.881.445L6.345,4.052a.767.767,0,0,1-.221.9L4.183,6.537a11.872,11.872,0,0,0,5.676,5.676l1.589-1.941a.768.768,0,0,1,.9-.221l3.588,1.538a.778.778,0,0,1,.448.884L15.612,15.8a.769.769,0,0,1-.75.6A14.862,14.862,0,0,1,0,1.537.768.768,0,0,1,.6.788Z" transform="translate(0.001 0.001)" fill="#a69867"/>
</svg>
