<svg xmlns="http://www.w3.org/2000/svg" width="13.107" height="13.108" viewBox="0 0 13.107 13.108">
  <path id="Icon_awesome-phone" data-name="Icon awesome-phone" d="M.475.629,3.138.015a.618.618,0,0,1,.7.356L5.071,3.238a.613.613,0,0,1-.177.717L3.343,5.225A9.488,9.488,0,0,0,7.879,9.761L9.149,8.21a.614.614,0,0,1,.717-.177l2.867,1.229a.622.622,0,0,1,.358.707l-.614,2.662a.614.614,0,0,1-.6.476A11.877,11.877,0,0,1,0,1.228.614.614,0,0,1,.475.629Z" transform="translate(0.001 0.001)" fill="#a69867"/>
</svg>
