<svg xmlns="http://www.w3.org/2000/svg" width="37.901" height="42.581" viewBox="0 0 37.901 42.581">
  <g id="Group_1874" data-name="Group 1874" transform="translate(-608.825 -1597.987)">
    <g id="g457" transform="translate(609.325 1609.9)">
      <path id="path459" d="M-161.964-25.627a26.085,26.085,0,0,1,8.8-1.528,26.085,26.085,0,0,1,8.753,1.512m3.059,1.315a26.085,26.085,0,0,1,6.639,4.816V1.346a1.5,1.5,0,0,1-1.5,1.5h-33.9a1.5,1.5,0,0,1-1.5-1.5V-19.512a26.088,26.088,0,0,1,3.658-3.044" transform="translate(171.618 27.155)" fill="none" stroke="#a69867" stroke-linecap="round" stroke-linejoin="round" stroke-width="1"/>
    </g>
    <g id="g461" transform="translate(612.081 1609.9)">
      <path id="path463" d="M-263.3,0c-8.571,7.248-4.838,11.907-1.181,17.251S-267.636,27.338-279,30" transform="translate(278.999)" fill="none" stroke="#a69867" stroke-linecap="round" stroke-linejoin="round" stroke-width="1"/>
    </g>
    <g id="g465" transform="translate(627.531 1610.127)">
      <path id="path467" d="M-54.956,0c-13.3,15.006,19.184,11.29,4.217,29.737" transform="translate(58.232)" fill="none" stroke="#a69867" stroke-linecap="round" stroke-width="1"/>
    </g>
    <g id="g469" transform="translate(627.776 1598.487)">
      <path id="path471" d="M0-101.7v-10.971l5.578,2.625L0-107.416" transform="translate(0 112.666)" fill="none" stroke="#a69867" stroke-linecap="round" stroke-linejoin="round" stroke-width="1"/>
    </g>
    <g id="g473" transform="translate(618.13 1627.586)">
      <path id="path475" d="M0-106.329v-6.338l5.578,2.625L0-107.416" transform="translate(0 112.666)" fill="none" stroke="#a69867" stroke-linecap="round" stroke-linejoin="round" stroke-width="1"/>
    </g>
    <g id="g477" transform="translate(617.688 1604.825)">
      <path id="path479" d="M-25.167,0l1.5.866V2.6l-1.5.866-1.5-.866V.866Z" transform="translate(26.667)" fill="none" stroke="#a69867" stroke-linecap="round" stroke-linejoin="round" stroke-width="1"/>
    </g>
    <g id="g481" transform="translate(636.551 1610.59)">
      <path id="path483" d="M-25.167,0l1.5.866V2.6l-1.5.866-1.5-.866V.866Z" transform="translate(26.667)" fill="none" stroke="#a69867" stroke-linecap="round" stroke-linejoin="round" stroke-width="1"/>
    </g>
    <g id="g485" transform="translate(612.775 1621.398)">
      <path id="path487" d="M-25.167,0l1.5.866V2.6l-1.5.866-1.5-.866V.866Z" transform="translate(26.667)" fill="none" stroke="#a69867" stroke-linecap="round" stroke-linejoin="round" stroke-width="1"/>
    </g>
    <g id="g489" transform="translate(639.045 1621.312)">
      <path id="path491" d="M-25.167,0l1.5.866V2.6l-1.5.866-1.5-.866V.866Z" transform="translate(26.667)" fill="none" stroke="#a69867" stroke-linecap="round" stroke-linejoin="round" stroke-width="1"/>
    </g>
    <g id="g493" transform="translate(615.881 1612.769)">
      <path id="path495" d="M0,0H0" transform="translate(0 0)" fill="none" stroke="#a69867" stroke-linecap="round" stroke-width="1"/>
    </g>
  </g>
</svg>
