<svg xmlns="http://www.w3.org/2000/svg" width="48.406" height="42.513" viewBox="0 0 48.406 42.513">
  <g id="Group_1873" data-name="Group 1873" transform="translate(12967.915 9429.865)">
    <g id="Group_1871" data-name="Group 1871" transform="translate(-12962.17 -9429.354)">
      <g id="g3412" transform="translate(0 8.263)">
        <path id="path3414" d="M-116.458-58.229a1.771,1.771,0,0,1-1.771,1.771A1.771,1.771,0,0,1-120-58.229,1.771,1.771,0,0,1-118.229-60,1.771,1.771,0,0,1-116.458-58.229Z" transform="translate(120 60)" fill="none" stroke="#a69867" stroke-linecap="round" stroke-linejoin="round" stroke-width="1"/>
      </g>
      <g id="g3416" transform="translate(5.903 7.083)">
        <path id="path3418" d="M-116.458-58.229a1.771,1.771,0,0,1-1.771,1.771A1.771,1.771,0,0,1-120-58.229,1.771,1.771,0,0,1-118.229-60,1.771,1.771,0,0,1-116.458-58.229Z" transform="translate(120 60)" fill="none" stroke="#a69867" stroke-linecap="round" stroke-linejoin="round" stroke-width="1"/>
      </g>
      <g id="g3420" transform="translate(3.542)">
        <path id="path3422" d="M0-329.965v-8.854L5.9-340v8.854" transform="translate(0 339.999)" fill="none" stroke="#a69867" stroke-linecap="round" stroke-linejoin="round" stroke-width="1"/>
      </g>
      <g id="g3424" transform="translate(3.542 2.361)">
        <path id="path3426" d="M0-38.819,5.9-40" transform="translate(0 40)" fill="none" stroke="#a69867" stroke-linecap="round" stroke-width="1"/>
      </g>
    </g>
    <g id="Group_1872" data-name="Group 1872" transform="translate(-12942.089 -9402.536)">
      <g id="g3428" transform="translate(0 9.789)">
        <path id="path3430" d="M-115.105-57.553a2.447,2.447,0,0,1-2.447,2.447A2.447,2.447,0,0,1-120-57.553,2.447,2.447,0,0,1-117.552-60,2.447,2.447,0,0,1-115.105-57.553Z" transform="translate(120 60)" fill="none" stroke="#a69867" stroke-linecap="round" stroke-linejoin="round" stroke-width="1"/>
      </g>
      <g id="g3432" transform="translate(4.895 0)">
        <path id="path3434" d="M-76.737-191.842a1.632,1.632,0,0,0,1.632-1.631,1.624,1.624,0,0,0-.255-.876L-80-200v11.42" transform="translate(80 200)" fill="none" stroke="#a69867" stroke-linecap="round" stroke-linejoin="round" stroke-width="1"/>
      </g>
    </g>
    <g id="Group_1867" data-name="Group 1867" transform="translate(-12967.4 -9414.478)">
      <g id="Group_1865" data-name="Group 1865">
        <path id="Path_3179" data-name="Path 3179" d="M30.018,228.464l-.827,1.277A2.369,2.369,0,0,1,27,230.814l-4.676-.4a7.885,7.885,0,0,1-6.413-4.386L10.85,215.7a1.393,1.393,0,0,1,1.162-2,18.309,18.309,0,0,0,12.834-6.29,1.393,1.393,0,0,1,2.294.307L32.2,218.046a7.885,7.885,0,0,1-.462,7.756" transform="translate(-10.418 -206.939)" fill="none" stroke="#a69867" stroke-linecap="round" stroke-linejoin="round" stroke-width="1"/>
        <path id="Path_3180" data-name="Path 3180" d="M13,363.492l-2.689-5.486-1.473.026a1.356,1.356,0,0,0-1.194,1.953l.732,1.494a3.131,3.131,0,0,0,2.41,1.727Z" transform="translate(-7.501 -344.4)" fill="none" stroke="#a69867" stroke-linecap="round" stroke-linejoin="round" stroke-width="1"/>
        <path id="Path_3181" data-name="Path 3181" d="M222.221,258.123l-2.689-5.486.923-1.148a1.356,1.356,0,0,1,2.275.253l.732,1.494a3.131,3.131,0,0,1-.111,2.963Z" transform="translate(-200.435 -247.015)" fill="none" stroke="#a69867" stroke-linecap="round" stroke-linejoin="round" stroke-width="1"/>
      </g>
      <path id="Path_3182" data-name="Path 3182" d="M124.522,363.98q-.222.118-.452.221a4.194,4.194,0,0,1-5.469-2h0a16.077,16.077,0,0,0,7.688-3.768h0A4.194,4.194,0,0,1,124.522,363.98Z" transform="translate(-108.595 -344.787)" fill="none" stroke="#a69867" stroke-linecap="round" stroke-linejoin="round" stroke-width="1"/>
      <g id="Group_1866" data-name="Group 1866" transform="translate(6.055 7.428)">
        <path id="Path_3183" data-name="Path 3183" d="M74.733,334.356s2.132-1.953,4.068-.328" transform="translate(-74.733 -329.421)" fill="none" stroke="#a69867" stroke-linecap="round" stroke-width="1"/>
        <path id="Path_3184" data-name="Path 3184" d="M158.7,289.407s-2.85.489-2.751,3.014" transform="translate(-148.633 -289.407)" fill="none" stroke="#a69867" stroke-linecap="round" stroke-width="1"/>
      </g>
    </g>
    <g id="Group_1870" data-name="Group 1870" transform="translate(-12944.584 -9429.354)">
      <g id="Group_1868" data-name="Group 1868">
        <path id="Path_3185" data-name="Path 3185" d="M273.664,91.367q.991-.076,2-.253a1.393,1.393,0,0,1,1.609,1.663l-2.432,11.245a7.885,7.885,0,0,1-5.171,5.8l-4.443,1.509a2.37,2.37,0,0,1-2.383-.515l-3.422-3.21a7.885,7.885,0,0,1-2.312-7.417l2.432-11.245a1.393,1.393,0,0,1,2.153-.849,18.419,18.419,0,0,0,8.787,3.254" transform="translate(-254.664 -87.846)" fill="none" stroke="#a69867" stroke-linecap="round" stroke-linejoin="round" stroke-width="1"/>
        <path id="Path_3186" data-name="Path 3186" d="M234.162,152.7l1.291-5.972-1.172-.893a1.356,1.356,0,0,0-2.147.792l-.352,1.626a3.132,3.132,0,0,0,.82,2.849Z" transform="translate(-231.712 -140.36)" fill="none" stroke="#a69867" stroke-linecap="round" stroke-linejoin="round" stroke-width="1"/>
        <path id="Path_3187" data-name="Path 3187" d="M455.791,203.432l1.291-5.972,1.436-.329a1.356,1.356,0,0,1,1.628,1.609l-.352,1.626a3.131,3.131,0,0,1-1.924,2.256Z" transform="translate(-435.609 -187.256)" fill="none" stroke="#a69867" stroke-linecap="round" stroke-linejoin="round" stroke-width="1"/>
      </g>
      <path id="Path_3188" data-name="Path 3188" d="M308.745,233.9q-.244-.061-.492-.106a4.194,4.194,0,0,0-4.827,3.258h0a16.077,16.077,0,0,1,8.369,1.81h0A4.194,4.194,0,0,0,308.745,233.9Z" transform="translate(-296.967 -220.585)" fill="none" stroke="#a69867" stroke-linecap="round" stroke-linejoin="round" stroke-width="1"/>
      <g id="Group_1869" data-name="Group 1869" transform="translate(6.775 8.073)">
        <path id="Path_3189" data-name="Path 3189" d="M306.935,178.144s2.539,1.384,4.027-.659" transform="translate(-306.935 -177.485)" fill="none" stroke="#a69867" stroke-linecap="round" stroke-width="1"/>
        <path id="Path_3190" data-name="Path 3190" d="M394.316,188.242s-2.884.211-3.395-2.264" transform="translate(-383.357 -185.213)" fill="none" stroke="#a69867" stroke-linecap="round" stroke-width="1"/>
      </g>
    </g>
  </g>
</svg>
