<svg xmlns="http://www.w3.org/2000/svg" width="42.287" height="42.764" viewBox="0 0 42.287 42.764">
  <g id="teacher_6454413" transform="translate(-9.836 -7)">
    <path id="Path_3156" data-name="Path 3156" d="M130.511,93.8a3.9,3.9,0,0,1-3.785,0,2.889,2.889,0,0,0-4.176,2.577V101.2a6.069,6.069,0,0,0,12.137-.044V96.373A2.89,2.89,0,0,0,130.511,93.8Z" transform="translate(-102.784 -78.77)" fill="none" stroke="#a69867" stroke-linecap="round" stroke-linejoin="round" stroke-width="1"/>
    <path id="Path_3157" data-name="Path 3157" d="M267.72,132.271a2.4,2.4,0,0,0-.809.14v4.261c0,.087,0,.174-.007.261a2.4,2.4,0,1,0,.816-4.662Z" transform="translate(-235.008 -114.286)" fill="none" stroke="#a69867" stroke-linecap="round" stroke-linejoin="round" stroke-width="1"/>
    <path id="Path_3158" data-name="Path 3158" d="M87.547,136.716v-4.305a2.4,2.4,0,1,0,.005,4.522C87.55,136.861,87.547,136.789,87.547,136.716Z" transform="translate(-67.782 -114.286)" fill="none" stroke="#a69867" stroke-linecap="round" stroke-linejoin="round" stroke-width="1"/>
    <path id="Path_3159" data-name="Path 3159" d="M98.351,17.985a2.4,2.4,0,0,1,.809.14V17.6a2.889,2.889,0,0,1,4.176-2.577,3.9,3.9,0,0,0,3.785,0A2.889,2.889,0,0,1,111.3,17.6v.522a2.4,2.4,0,0,1,2.146.266V15.714A8.238,8.238,0,0,0,105.229,7.5h0a8.238,8.238,0,0,0-8.214,8.214v2.677A2.391,2.391,0,0,1,98.351,17.985Z" transform="translate(-79.395 0)" fill="none" stroke="#a69867" stroke-linecap="round" stroke-linejoin="round" stroke-width="1"/>
    <path id="Path_3160" data-name="Path 3160" d="M318.988,378.53V367.157" transform="translate(-282.715 -329.434)" fill="none" stroke="#a69867" stroke-linecap="round" stroke-width="1"/>
    <path id="Path_3161" data-name="Path 3161" d="M70.544,367.157V378.53" transform="translate(-55.149 -329.434)" fill="none" stroke="#a69867" stroke-linecap="round" stroke-width="1"/>
    <path id="Path_3162" data-name="Path 3162" d="M111.247,275.89a.605.605,0,0,0,.116.163l3.2,3.2a.609.609,0,0,0,.861,0l1.486-1.486a.609.609,0,0,0,0-.861l-2.323-2.323Z" transform="translate(-92.431 -244.641)" fill="none" stroke="#a69867" stroke-linecap="round" stroke-linejoin="round" stroke-width="1"/>
    <path id="Path_3163" data-name="Path 3163" d="M210.5,279.419a.609.609,0,0,0,.861,0l3.2-3.2a.61.61,0,0,0,.109-.148L211.4,274.8a.609.609,0,0,1-.077-.037l-2.307,2.307a.609.609,0,0,0,0,.861Z" transform="translate(-181.817 -244.806)" fill="none" stroke="#a69867" stroke-linecap="round" stroke-linejoin="round" stroke-width="1"/>
    <path id="Path_3164" data-name="Path 3164" d="M158.051,246.532v-2.014a5.889,5.889,0,0,1-3.279.995,6.275,6.275,0,0,1-3.433-.981v2a.558.558,0,0,1-.258.491l-.064.025h0l2.323,2.323a.607.607,0,0,1,.172.513h2.37a.607.607,0,0,1,.172-.513l2.307-2.307A.606.606,0,0,1,158.051,246.532Z" transform="translate(-128.859 -217.101)" fill="none" stroke="#a69867" stroke-linecap="round" stroke-linejoin="round" stroke-width="1"/>
    <path id="Path_3165" data-name="Path 3165" d="M114.133,255.574a7.412,7.412,0,0,0,7.4-6.935l-3.655-1.415a.607.607,0,0,1-.388-.564l0-1.994a5.945,5.945,0,0,1-3.266.974,6.276,6.276,0,0,1-3.444-.983v2a.558.558,0,0,1-.258.491l-3.781,1.477A7.412,7.412,0,0,0,114.133,255.574Z" transform="translate(-88.299 -217.228)" fill="none" stroke="#a69867" stroke-linecap="round" stroke-linejoin="round" stroke-width="1"/>
    <path id="Path_3166" data-name="Path 3166" d="M180.078,308.331h-2.37a.606.606,0,0,1-.172.348l-.1.1v4.972a7.465,7.465,0,0,0,2.913,0v-4.979l-.1-.1A.606.606,0,0,1,180.078,308.331Z" transform="translate(-153.055 -275.551)" fill="none" stroke="#a69867" stroke-linecap="round" stroke-linejoin="round" stroke-width="1"/>
    <g id="Group_1851" data-name="Group 1851" transform="translate(29.191 11.911)">
      <path id="Path_3167" data-name="Path 3167" d="M254.46,59.988H238.634a8.14,8.14,0,0,1,.94,3.8v2.677a2.4,2.4,0,0,1-2.152,4.255,6.063,6.063,0,0,1-2.7,4.771h0v2.014a.606.606,0,0,0,.311.527h0a.6.6,0,0,0,.077.037l3.273,1.268h0l2.247.87H254.46a.168.168,0,0,0,.168-.168V60.156A.168.168,0,0,0,254.46,59.988Z" transform="translate(-234.717 -59.988)" fill="none" stroke="#a69867" stroke-linecap="round" stroke-linejoin="round" stroke-width="1"/>
    </g>
    <path id="Path_3168" data-name="Path 3168" d="M302.648,133.117h1.307l1.688,4.894,1.861-8.669h6.134" transform="translate(-267.748 -111.603)" fill="none" stroke="#a69867" stroke-linecap="round" stroke-linejoin="round" stroke-width="1"/>
    <line id="Line_47" data-name="Line 47" x2="3.293" y2="4.384" transform="translate(41.839 22.024)" fill="none" stroke="#a69867" stroke-linecap="round" stroke-width="1"/>
    <line id="Line_48" data-name="Line 48" x1="3.293" y2="4.384" transform="translate(41.839 22.024)" fill="none" stroke="#a69867" stroke-linecap="round" stroke-width="1"/>
    <path id="Path_3169" data-name="Path 3169" d="M27.3,266.493H40.239a1.093,1.093,0,0,0,1.093-1.093v-9.8a5.6,5.6,0,0,0-3.28-5.088l-8.476-3.282a.607.607,0,0,1-.388-.564l0-1.994a5.945,5.945,0,0,1-3.266.974,6.276,6.276,0,0,1-3.444-.983v2a.558.558,0,0,1-.258.491l-8.6,3.359a5.617,5.617,0,0,0-3.281,5.088v9.8a1.093,1.093,0,0,0,1.093,1.093h12.93" transform="translate(0 -217.229)" fill="none" stroke="#a69867" stroke-linecap="round" stroke-linejoin="round" stroke-width="1"/>
    <path id="Path_3170" data-name="Path 3170" d="M257.148,41.2V32.677a2.692,2.692,0,0,0-2.689-2.689H236.586a8.207,8.207,0,0,1,2.988,6.324v2.677a2.4,2.4,0,0,1-2.152,4.255,6.063,6.063,0,0,1-2.7,4.771h0V50.03a.606.606,0,0,0,.311.527h0a.6.6,0,0,0,.077.037l3.273,1.268h0l5.2,2.014a5.087,5.087,0,0,1,1.874,1.377h9.009a2.692,2.692,0,0,0,2.689-2.689V44.142" transform="translate(-205.525 -20.598)" fill="none" stroke="#a69867" stroke-linecap="round" stroke-linejoin="round" stroke-width="1"/>
  </g>
</svg>
