<svg xmlns="http://www.w3.org/2000/svg" width="38.258" height="42.764" viewBox="0 0 38.258 42.764">
  <g id="concentration_9821988" transform="translate(-36.931 -10.5)">
    <g id="Group_1849" data-name="Group 1849" transform="translate(37.431 11)">
      <g id="Group_1848" data-name="Group 1848">
        <path id="Path_3155" data-name="Path 3155" d="M72.09,30.929v-2.6a17.329,17.329,0,1,0-34.659,0A16.781,16.781,0,0,0,46.1,43.059l-3.639,9.7H60.912l2.513-6.239h2.6a4.332,4.332,0,0,0,4.332-4.332V37.86h4.332Z" transform="translate(-37.431 -11)" fill="none" stroke="#a69867" stroke-linecap="round" stroke-linejoin="round" stroke-width="1"/>
      </g>
    </g>
    <circle id="Ellipse_21" data-name="Ellipse 21" cx="9.531" cy="9.531" r="9.531" transform="translate(41.281 28.329) rotate(-45)" fill="none" stroke="#a69867" stroke-linecap="round" stroke-linejoin="round" stroke-width="1"/>
    <circle id="Ellipse_22" data-name="Ellipse 22" cx="3.033" cy="3.033" r="3.033" transform="matrix(0.99, -0.142, 0.142, 0.99, 51.328, 25.757)" fill="none" stroke="#a69867" stroke-linecap="round" stroke-linejoin="round" stroke-width="1"/>
    <line id="Line_43" data-name="Line 43" y2="5.199" transform="translate(54.76 35.261)" fill="none" stroke="#a69867" stroke-linecap="round" stroke-width="1"/>
    <line id="Line_44" data-name="Line 44" y1="5.199" transform="translate(54.76 16.199)" fill="none" stroke="#a69867" stroke-linecap="round" stroke-width="1"/>
    <line id="Line_45" data-name="Line 45" x2="5.199" transform="translate(61.692 28.329)" fill="none" stroke="#a69867" stroke-linecap="round" stroke-width="1"/>
    <line id="Line_46" data-name="Line 46" x1="5.199" transform="translate(42.63 28.329)" fill="none" stroke="#a69867" stroke-linecap="round" stroke-width="1"/>
  </g>
</svg>
