<svg xmlns="http://www.w3.org/2000/svg" width="42.029" height="42.029" viewBox="0 0 42.029 42.029">
  <g id="Group_1852" data-name="Group 1852" transform="translate(13010.313 9597.312)">
    <path id="path2719" d="M76-304.82h37.454v-8.512H76Z" transform="translate(-13082.237 -9261.177)" fill="none" stroke="#a69867" stroke-linecap="round" stroke-linejoin="round" stroke-width="1"/>
    <g id="g2721" transform="translate(-12986.829 -9565.997)">
      <path id="path2723" d="M0,0V10.215" transform="translate(0)" fill="none" stroke="#a69867" stroke-linecap="round" stroke-width="1"/>
    </g>
    <g id="g2725" transform="translate(-12978.146 -9561.913)">
      <path id="path2727" d="M0-18.977a1.023,1.023,0,0,0,1.023,1.023,1.023,1.023,0,0,0,1.023-1.023A1.023,1.023,0,0,0,1.023-20,1.023,1.023,0,0,0,0-18.977" transform="translate(0 20)" fill="none" stroke="#a69867" stroke-linecap="round" stroke-linejoin="round" stroke-width="1"/>
    </g>
    <g id="g2729" transform="translate(-12982.238 -9561.913)">
      <path id="path2731" d="M0-18.977a1.023,1.023,0,0,0,1.023,1.023,1.023,1.023,0,0,0,1.023-1.023A1.023,1.023,0,0,0,1.023-20,1.023,1.023,0,0,0,0-18.977" transform="translate(0 20)" fill="none" stroke="#a69867" stroke-linecap="round" stroke-linejoin="round" stroke-width="1"/>
    </g>
    <path id="path2733" d="M20-169.785H57.454V-180H20Z" transform="translate(-13029.813 -9385.998)" fill="none" stroke="#a69867" stroke-linecap="round" stroke-linejoin="round" stroke-width="1"/>
    <path id="path2735" d="M420-463.117h5.107v-10.215H420Z" transform="translate(-13404.275 -9111.393)" fill="none" stroke="#a69867" stroke-linecap="round" stroke-linejoin="round" stroke-width="1"/>
    <path id="path2737" d="M126.666-169.785h5.107V-180h-5.107Z" transform="translate(-13129.669 -9385.998)" fill="none" stroke="#a69867" stroke-linecap="round" stroke-linejoin="round" stroke-width="1"/>
    <g id="g2739" transform="translate(-12975.594 -9574.51)">
      <path id="path2741" d="M0,0V8.512" fill="none" stroke="#a69867" stroke-linecap="round" stroke-width="1"/>
    </g>
    <g id="g2743" transform="translate(-12987.936 -9589.832)">
      <path id="path2745" d="M0,0H14.045" transform="translate(0 0)" fill="none" stroke="#a69867" stroke-linecap="round" stroke-width="1"/>
    </g>
    <g id="g2747" transform="translate(-13000.704 -9596.812)">
      <path id="path2749" d="M0-224.677l3.831-3.235,3.831,3.235V-240H0Z" transform="translate(0 239.999)" fill="none" stroke="#a69867" stroke-linecap="round" stroke-linejoin="round" stroke-width="1"/>
    </g>
    <path id="path2751" d="M76-633.332h5.533v10.215H76Z" transform="translate(-13082.237 -8961.606)" fill="none" stroke="#a69867" stroke-linecap="round" stroke-linejoin="round" stroke-width="1"/>
    <path id="path2753" d="M282.666-633.332h24.26v10.215h-24.26Z" transform="translate(-13275.71 -8961.606)" fill="none" stroke="#a69867" stroke-linecap="round" stroke-linejoin="round" stroke-width="1"/>
    <g id="g2755" transform="translate(-13009.813 -9584.725)">
      <path id="path2757" d="M-245.9,0h21.536V10.215h-38.305V0h9.108" transform="translate(262.666)" fill="none" stroke="#a69867" stroke-linecap="round" stroke-linejoin="round" stroke-width="1"/>
    </g>
  </g>
</svg>
