<svg xmlns="http://www.w3.org/2000/svg" width="52.235" height="42.414" viewBox="0 0 52.235 42.414">
  <g id="Group_1878" data-name="Group 1878" transform="translate(0.5 0.5)">
    <g id="g4837" transform="translate(42.622 5.783)">
      <path id="path4839" d="M0-425.617v-8.3l4.581-.416a1.96,1.96,0,0,0,1.764-2.228l-.83-5.839,2.49-1.046a.918.918,0,0,0,.5-1.181l-2.083-5.316a13.486,13.486,0,0,1-.829-3.287,15.653,15.653,0,0,0-3.425-8.017" transform="translate(0 461.248)" fill="none" stroke="#a69867" stroke-linecap="round" stroke-linejoin="round" stroke-width="1"/>
    </g>
    <g id="g4841" transform="translate(28.396 0)">
      <path id="path4843" d="M0-6.876A15.717,15.717,0,0,1,13.777-4.209" transform="translate(0 7.452)" fill="none" stroke="#a69867" stroke-linecap="round" stroke-linejoin="round" stroke-width="1"/>
    </g>
    <g id="g4845" transform="translate(19.95 0)">
      <path id="path4847" d="M0-6.876A15.726,15.726,0,0,1,19.823,6.348a13.5,13.5,0,0,0,.828,3.287l2.084,5.317a.919.919,0,0,1-.5,1.181l-2.489,1.045.83,5.839a1.961,1.961,0,0,1-1.764,2.229l-4.581.415v8.3" transform="translate(0 7.452)" fill="none" stroke="#a69867" stroke-linecap="round" stroke-linejoin="round" stroke-width="1"/>
    </g>
    <g id="g4849" transform="translate(17.374 0.086)">
      <path id="path4851" d="M-163.179-143.921a15.735,15.735,0,0,0-13.661-12.048" transform="translate(176.84 155.969)" fill="none" stroke="#a69867" stroke-linecap="round" stroke-width="1"/>
    </g>
    <g id="g4853" transform="translate(25.738 15.708)">
      <path id="path4855" d="M0-307.054v-8.3l4.581-.416A1.96,1.96,0,0,0,6.345-318l-.83-5.839,2.49-1.046a.918.918,0,0,0,.5-1.181l-2.083-5.316a13.376,13.376,0,0,1-.454-1.378" transform="translate(0 332.759)" fill="none" stroke="#a69867" stroke-linecap="round" stroke-linejoin="round" stroke-width="1"/>
    </g>
    <g id="g4857" transform="translate(0 0.127)">
      <path id="path4859" d="M-163.988,0a15.772,15.772,0,0,0-13.728,15.711,15.7,15.7,0,0,0,6.473,12.6,2.821,2.821,0,0,1,1.153,2.282v10.7" transform="translate(177.717)" fill="none" stroke="#a69867" stroke-linecap="round" stroke-linejoin="round" stroke-width="1"/>
    </g>
    <g id="g4861" transform="translate(14.337 4.191)">
      <path id="path4863" d="M-54.96-27.407a2.3,2.3,0,0,1-2.3,2.294,2.3,2.3,0,0,1-2.3-2.294,2.3,2.3,0,0,1,2.3-2.294A2.3,2.3,0,0,1-54.96-27.407Z" transform="translate(59.561 29.701)" fill="none" stroke="#a69867" stroke-linecap="round" stroke-linejoin="round" stroke-width="1"/>
    </g>
    <g id="g4865" transform="translate(6.421 19.036)">
      <path id="path4867" d="M-54.959-27.408a2.3,2.3,0,0,1-2.3,2.294,2.3,2.3,0,0,1-2.3-2.294,2.3,2.3,0,0,1,2.3-2.294A2.3,2.3,0,0,1-54.959-27.408Z" transform="translate(59.56 29.703)" fill="none" stroke="#a69867" stroke-linecap="round" stroke-linejoin="round" stroke-width="1"/>
    </g>
    <g id="g4869" transform="translate(14.337 19.036)">
      <path id="path4871" d="M-54.96-27.408a2.3,2.3,0,0,1-2.3,2.294,2.3,2.3,0,0,1-2.3-2.294,2.3,2.3,0,0,1,2.3-2.294A2.3,2.3,0,0,1-54.96-27.408Z" transform="translate(59.561 29.703)" fill="none" stroke="#a69867" stroke-linecap="round" stroke-linejoin="round" stroke-width="1"/>
    </g>
    <g id="g4873" transform="translate(22.253 19.036)">
      <path id="path4875" d="M-54.96-27.408a2.3,2.3,0,0,1-2.3,2.294,2.3,2.3,0,0,1-2.3-2.294,2.3,2.3,0,0,1,2.3-2.294A2.3,2.3,0,0,1-54.96-27.408Z" transform="translate(59.561 29.703)" fill="none" stroke="#a69867" stroke-linecap="round" stroke-linejoin="round" stroke-width="1"/>
    </g>
    <g id="g4877" transform="translate(16.638 8.78)">
      <path id="path4879" d="M0-122.509v-10.256" transform="translate(0 132.765)" fill="none" stroke="#a69867" stroke-linecap="round" stroke-width="1"/>
    </g>
    <g id="g4881" transform="translate(11.022 21.331)">
      <path id="path4883" d="M0,0H3.315" fill="none" stroke="#a69867" stroke-linecap="round" stroke-width="1"/>
    </g>
    <g id="g4885" transform="translate(18.938 21.331)">
      <path id="path4887" d="M0,0H3.315" fill="none" stroke="#a69867" stroke-linecap="round" stroke-width="1"/>
    </g>
    <g id="g4889" transform="translate(9.787 8.78)">
      <path id="path4891" d="M0-125.627l6.714-10.517" transform="translate(0 136.144)" fill="none" stroke="#a69867" stroke-linecap="round" stroke-width="1"/>
    </g>
    <g id="g4893" transform="translate(16.775 8.78)">
      <path id="path4895" d="M-80.205-125.627l-6.714-10.517" transform="translate(86.92 136.144)" fill="none" stroke="#a69867" stroke-linecap="round" stroke-width="1"/>
    </g>
  </g>
</svg>
