<svg xmlns="http://www.w3.org/2000/svg" width="42.144" height="42.764" viewBox="0 0 42.144 42.764">
  <g id="Group_1847" data-name="Group 1847" transform="translate(13070.532 9755.531)">
    <g id="g1411" transform="translate(-13070.032 -9733.921)">
      <path id="path1413" d="M-131.309-68.085v15.527h-6.209V-68.085m3.1-4.507-4.346,1.058c-.664.162-1.242.559-1.242,1.242v7.576a1.245,1.245,0,0,0,1.242,1.242,1.245,1.245,0,0,0,1.242-1.242l3.1,1.521v8.638m0-8.638,3.1-1.521a1.245,1.245,0,0,0,1.242,1.242,1.247,1.247,0,0,0,1.242-1.242v-7.576c0-.681-.577-1.087-1.242-1.242l-4.346-1.058" transform="translate(140.001 72.592)" fill="none" stroke="#a69867" stroke-linecap="round" stroke-linejoin="round" stroke-width="1"/>
    </g>
    <g id="g1415" transform="translate(-13068.17 -9726.529)">
      <path id="path1417" d="M0,0H7.451" fill="none" stroke="#a69867" stroke-linecap="round" stroke-width="1"/>
    </g>
    <g id="g1419" transform="translate(-13067.549 -9741.993)">
      <path id="path1421" d="M-46.9,0a3.114,3.114,0,0,1,3.1,3.1V4.967a3.114,3.114,0,0,1-3.1,3.1,3.114,3.114,0,0,1-3.1-3.1V3.1A3.114,3.114,0,0,1-46.9,0Z" transform="translate(50)" fill="none" stroke="#a69867" stroke-linecap="round" stroke-linejoin="round" stroke-width="1"/>
    </g>
    <g id="g1423" transform="translate(-13056.207 -9747.581)">
      <path id="path1425" d="M-150.065-68.085V-38.9h-7.451V-68.085m3.725,12.477V-38.9m0-33.693,4.967,1.058c.665.154,1.242.56,1.242,1.242v13.164a1.246,1.246,0,0,1-1.242,1.242,1.245,1.245,0,0,1-1.242-1.242M-160-68.085v-2.208c0-.683.574-1.1,1.242-1.242l4.967-1.058m-3.725,15.463a1.245,1.245,0,0,1-1.242,1.242A1.245,1.245,0,0,1-160-57.129v-9.714" transform="translate(160 72.592)" fill="none" stroke="#a69867" stroke-linecap="round" stroke-linejoin="round" stroke-width="1"/>
    </g>
    <g id="g1427" transform="translate(-13053.724 -9716.371)">
      <path id="path1429" d="M0,0H7.451" fill="none" stroke="#a69867" stroke-linecap="round" stroke-width="1"/>
    </g>
    <g id="g1431" transform="translate(-13056.207 -9733.98)">
      <path id="path1433" d="M0,0H12.418" fill="none" stroke="#a69867" stroke-linecap="round" stroke-width="1"/>
    </g>
    <g id="g1435" transform="translate(-13053.103 -9755.031)">
      <path id="path1437" d="M-46.9,0a3.114,3.114,0,0,1,3.1,3.1v1.31a3.055,3.055,0,0,1-3.1,3.036,3.114,3.114,0,0,1-3.1-3.1V3.1A3.114,3.114,0,0,1-46.9,0Z" transform="translate(50)" fill="none" stroke="#a69867" stroke-linecap="round" stroke-linejoin="round" stroke-width="1"/>
    </g>
    <g id="g1439" transform="translate(-13041.306 -9744.804)">
      <path id="path1441" d="M-150.065-391.978v4.967h-7.451v-26.7m7.451,19.252v1.242m0-20.494v18.01m-3.725-5.533v14.225m1.382-30.916,3.586.764c.665.154,1.242.56,1.242,1.242v10.059a1.246,1.246,0,0,1-1.242,1.242,1.245,1.245,0,0,1-1.242-1.242m-7.451,2.484a1.245,1.245,0,0,1-1.242,1.242A1.245,1.245,0,0,1-160-403.379v-12.543c0-.683.574-1.1,1.242-1.242l3.586-.763" transform="translate(160 417.927)" fill="none" stroke="#a69867" stroke-linecap="round" stroke-linejoin="round" stroke-width="1"/>
    </g>
    <g id="g1443" transform="translate(-13038.822 -9716.371)">
      <path id="path1445" d="M0,0H7.451" fill="none" stroke="#a69867" stroke-linecap="round" stroke-width="1"/>
    </g>
    <g id="g1447" transform="translate(-13038.822 -9733.359)">
      <path id="path1449" d="M0,0H7.451" fill="none" stroke="#a69867" stroke-linecap="round" stroke-width="1"/>
    </g>
    <g id="g1451" transform="translate(-13038.201 -9751.927)">
      <path id="path1453" d="M-46.9,0a3.114,3.114,0,0,1,3.1,3.1V4.346a3.114,3.114,0,0,1-3.1,3.1,3.114,3.114,0,0,1-3.1-3.1V3.1A3.114,3.114,0,0,1-46.9,0Z" transform="translate(50)" fill="none" stroke="#a69867" stroke-linecap="round" stroke-linejoin="round" stroke-width="1"/>
    </g>
    <g id="g1455" transform="translate(-13030.13 -9731.497)">
      <path id="path1457" d="M0,0A1.246,1.246,0,0,1,1.242,1.242V18.23" fill="none" stroke="#a69867" stroke-linecap="round" stroke-linejoin="round" stroke-width="1"/>
    </g>
    <g id="g1459" transform="translate(-13053.103 -9751.927)">
      <path id="path1461" d="M0,0H6.209" transform="translate(0 0)" fill="none" stroke="#a69867" stroke-linecap="round" stroke-width="1"/>
    </g>
    <g id="g1463" transform="translate(-13067.549 -9738.889)">
      <path id="path1465" d="M0-9.379,3.1-10l3.1.621" transform="translate(0 10)" fill="none" stroke="#a69867" stroke-linecap="round" stroke-linejoin="round" stroke-width="1"/>
    </g>
    <g id="g1467" transform="translate(-13048.757 -9743.073)">
      <path id="path1469" d="M0-56.275v-1.242m0-1.242V-60" transform="translate(0 60)" fill="none" stroke="#a69867" stroke-linecap="round" stroke-linejoin="round" stroke-width="1"/>
    </g>
    <g id="g1471" transform="translate(-13041.306 -9734.602)">
      <path id="path1473" d="M-150.065,0h2.484M-160,2.484h2.483" transform="translate(160)" fill="none" stroke="#a69867" stroke-linecap="round" stroke-linejoin="round" stroke-width="1"/>
    </g>
  </g>
</svg>
