<svg xmlns="http://www.w3.org/2000/svg" width="22.509" height="22.319" viewBox="0 0 22.509 22.319">
  <g id="Group_9082" data-name="Group 9082" transform="translate(-618.858 -383.783)">
    <g id="Group_9072" data-name="Group 9072" transform="translate(620.794 384.283)">
      <path id="Path_2169" data-name="Path 2169" d="M631.433,401.062v-.989a3.213,3.213,0,0,0-3.213-3.212h-2.894a3.213,3.213,0,0,0-3.213,3.212v1.034" transform="translate(-622.114 -390.308)" fill="none" stroke="#152242" stroke-width="1"/>
      <path id="Path_2170" data-name="Path 2170" d="M628.791,384.283a2.465,2.465,0,0,1,2.465,2.465v1.623a2.465,2.465,0,0,1-4.93,0v-1.623A2.465,2.465,0,0,1,628.791,384.283Z" transform="translate(-624.131 -384.283)" fill="none" stroke="#152242" stroke-width="1"/>
      <path id="Path_2171" data-name="Path 2171" d="M630.735,385.745a2.027,2.027,0,0,1-2.028,2.028H626.23" transform="translate(-624.086 -384.983)" fill="none" stroke="#152242" stroke-width="1"/>
      <path id="Path_2172" data-name="Path 2172" d="M649.319,401.107v-1.034a3.213,3.213,0,0,0-3.213-3.212h-2.894A3.213,3.213,0,0,0,640,400.073v.989" transform="translate(-630.681 -390.308)" fill="none" stroke="#152242" stroke-width="1"/>
      <path id="Path_2173" data-name="Path 2173" d="M646.676,384.283a2.465,2.465,0,0,1,2.465,2.465v1.623a2.465,2.465,0,0,1-4.93,0v-1.623A2.465,2.465,0,0,1,646.676,384.283Z" transform="translate(-632.699 -384.283)" fill="none" stroke="#152242" stroke-width="1"/>
      <path id="Path_2174" data-name="Path 2174" d="M649.108,389.329h-1.382l-.66-.335-.659.335h-1.382" transform="translate(-633.087 -386.54)" fill="none" stroke="#152242" stroke-width="1"/>
    </g>
    <rect id="Rectangle_1158" data-name="Rectangle 1158" width="21.509" height="2.677" transform="translate(619.358 395.261)" fill="none" stroke="#152242" stroke-width="1"/>
    <path id="Path_2175" data-name="Path 2175" d="M640.781,410.578V418.2H621.414v-7.619" transform="translate(-0.985 -12.595)" fill="none" stroke="#152242" stroke-width="1"/>
  </g>
</svg>
