<svg xmlns="http://www.w3.org/2000/svg" width="377" height="447.715" viewBox="0 0 377 447.715">
  <path id="Path_7" data-name="Path 7" d="M456.248-383.07c-5.892,6.115-3.649,9.765-3.649,9.765,2.9,7.985,16.658,6.6,16.658,6.6,1.605-18.751,12.007-22.392,12.007-22.392-.985-4.626-6.885-.621-6.885-.621-.347-10.757,6.231-8.027,6.231-8.027,8.292,2.508,23.667,11.635,23.667,11.635-.116,10.286,5.527,11.535,5.527,11.535,6.5,2.243,8.6-1.25,8.6-1.25,2.507-5.287,8.052-1.266,8.052-1.266-2.781-4.477-12.545-9.119-12.545-9.119-2.747.869-3.732,5.743-3.732,5.743-2.524-2.119-.149-6.993-.149-6.993-2.242-.753-4.361-1.291-4.361-1.291-1.622-11,13.389-8.143,28.648,3.029,9.98,7.273,24.792-.488,24.792-.488,1.639,9.988-12.106,7.274-12.106,7.274-14.092-2.259-14.556,4.849-14.556,4.849,30.518-2.623,32.4,10.393,32.4,10.393-6.918-5.006-10.286-.248-16.161,7.15-5.884,7.357-20.39,1.721-20.39,1.721,10.609,4.626,15.028,17.411,15.028,17.411-6.777,2.739-13.886-4.4-13.886-4.4a16.088,16.088,0,0,1-2.755,11.5,15.737,15.737,0,0,0-3.144,11.031c-1.216-1.9-3.749-4.038-3.4-9.011a15.339,15.339,0,0,0-2.474-9.119c-.761,8.093-13.248,17.129-13.248,17.129-3.02-7.141,3.236-13.894,3.236-13.894-9,4.013-13.745,3.492-13.745,3.492,6.488-5.727,2.731-15.623,2.731-15.623-1.829.968-3.865,10.253-3.865,10.253h-.447s-6.661-.67-11.618,2.45c0,0,1.738-2.367,1.8-3.757,0,0-8.987-.265-13.96,4.394a9.978,9.978,0,0,0,1.639-4.394s-11.453,1.159-14.051,3.889l-.761.554c6.8-9.4,10.087-25.28,10.087-25.28-5.23,1.39-19.612-1.382-19.347-12.628.248-11.262,10.129-12.247,10.129-12.247m-10.385,76.544c2.317-6.678,12.843-10.336,21.1-9.88,0,0-8.01-2.962-5.726-12.843,0,0,5.958,18.569,26.364.919,0,0,3.451,5.949,11.444,3.194,0,0-1.349,8.731,4.824,13.555a19.713,19.713,0,0,1,8.068-8.25c3.434-2,4.477-3.153,4.825-4.187.083,2.971,1.39,8.151,9.144,10.816,0,0,.687-9.847,4.791-12.363,4.137-2.557,3.227-5.743,2.755-8.019a17.781,17.781,0,0,0,14.912.885s0-10.054-5.279-16.964a24.282,24.282,0,0,0,11.932-6.173c5.064-5.056,6.653.67,6.653,5.726,0,5.039-4.361,18.8,3.434,24.072,0,0-7.712-1.721-9.649-9.119.637,2.689,2.689,12.471-.439,21.283-3.7,10.319-11.932,16.732-11.262,26.348.712,9.632-2.036,11.254-2.284,13.753a31.883,31.883,0,0,0-1.812-13.05c-2.317-6.579-5.056-11.172-4.038-14.374a26.466,26.466,0,0,0,.372,18.933c4.32,11.03,2.739,26.174-.687,40.6,0,0-.935-4.129-8.043-12.4,0,0,4.593,14.035,2.979,23.873a19.561,19.561,0,0,0,.455,8.027s-9.177-20.167-16.244-29.36c-7.158-9.152-14.242-18.106-6.9-31.42,0,0-7.555,10.551-27.291,14.937-19.728,4.311-21.11,6.62-23.369,9.839,0,0,3.186-14.225,24.759-24.089,0,0-25.222,4.6-38.777,21.8a36.88,36.88,0,0,1,3.5-17.51,67.863,67.863,0,0,1-8.308,10.154S427.095-255.857,402.3-257.5a29.951,29.951,0,0,0,21.126-10.327c8.7-10.3,7.753-11.188,13.968-13.042a47.62,47.62,0,0,1-17.394-2.3s19.215-6.165,28.615-15.35a30.571,30.571,0,0,1,5.156-5.387c-5.222,2.69-13.82,6.893-16.592,7.2,0,0,6.43-3.194,8.68-9.822m-44.991-78.787c2.756,0,4.353.637,5.379,1.655-1.489-3.591-2.441-8.416,2.185-10.816,0,0-2.441-9.988-8.052-8.432,0,0,3.451-5.611,14.564,5.271-1.936,7.919,4.353,10.733,4.353,10.733-4.22-3.451-.976-10-.976-10,2.954-4.841,3.02-6.239,3.02-6.239s0-6.9-5.346-6.678c0,0,4.237-3.351,8.01,1.341,0,0,2.888,5.089,5.081,7.116,0,0,6.471,3.128,4.27,11.56,0,0,4.659-4.022,1.986-12.239,0,0,14.457,9.119-1.564,34.49,0,0,2.234,9.55-.422,18.917,0,0-5.122,12.9-.712,24.254,4.5,11.32-.62,15.11,4.022,20.017,0,0-1.994,12.9-24.693,20.249,0,0,0,5.991,12.7,7.547a18.355,18.355,0,0,1-12.032,8.929A11.5,11.5,0,0,1,398.389-279.9c.935-6.868,3.335-6.868,3.335-10.89,0-3.087-5.346-12.4-2.4-27.233-2.126-1.274-6.057-2.11-12.272,1.7,0,0,1.605-8.507,14.49-9.632a44.893,44.893,0,0,1,2.019-4.874c-3.889-4.609-10.352-14.738-3.84-25.793,0,0,1.051,11.519,8.1,16.418,7.092-17.254,4.858-24.693,2.143-29.567,0,0-9.582,2.681-9.326-11.138,0,0-5.081-.439-7.332,1.539,0,0,1.572-5.95,7.563-5.95m40.506,263.875a38.926,38.926,0,0,1-7.7,5.321c-4.162,2.085-7.265,3.79-6.363,12.909.819,9.144,0,18.106-6.761,16.542,0,0-8.4-3.095-9.467,7.075,0,0-.819,6.032,4.493,8.6,0,0-15.491,5.511-15.325-8.267,0,0,.869-3.252-2.946-4.651-.546-.174-1.63-.7-3.169-1.34-4.618-1.283-8.341,5.76-8.763,6.728-7.167,10.989-17.427,6.587-17.427,6.587,7.53-1.978,11.188-8.937,12.255-10.625,1-1.7.654-6.794-3.856-2.739s-9.872,1.506-9.872,1.506c5.081-.654,5.445-4.237,5.445-4.237a6.8,6.8,0,0,0-2.971-6.149c-4.742-2.631-13.033-1.8-16.9.621,0,0-3.807,2.739-9.326-1.523,0,0-5.544-5.346-2.574-10,0,0-5.842.53-7.265,11.2,0,0-9.831-21.548,16.55-19.231,0,0-7.084-5.3-18.048-1.266,0,0-1.415-2.251,2.367-7.58,0,0-8.424-.687-13.4,2.234a18.713,18.713,0,0,1,16.186-8.763s2.921-3.633,10.683-3.633c0,0,.472-5.867-8.978-6.537,0,0,7.9-6.388,17.245,2.747a20.256,20.256,0,0,1,5.826,9.963s0-8.763-3.757-14.109c0,0,9.285,2.424,11.155,9.83,0,0-7.2,5.147,1.2,15.474,0,0,13.091,12.073,28.93,2.764,0,0,8.647-5.329,10.319-21.358,0,0-7.878,3.972-18.4-2.383,0,0,11.345,1.018,15.342-7.77,3.955-8.78,2.234-3.8,3.285-8.78,1.026-4.99-11.031-2.036-8.978-11.353,0,0,3.624,6.7,16.889,1.026,0,0,4.46-13.795,14.258-11.188,9.814,2.573,8.97.7,15.209-.521,0,0,20.721-6.322,43.99,15.731,0,0,5.726,6.711.819,19.811a26.716,26.716,0,0,1-9.119,10.468,18.062,18.062,0,0,0-7.141,12.876s-5.337.53-13.406-4.659c-8.143-5.155-12.082-12.032-20.539-1.349M647.153-307.56A78.953,78.953,0,0,1,637-272.606c-12.9,22.872,4.973,44.379,4.973,44.379s-30.932-21.159-8.441-52.638c19.2-26.877.935-42.823.935-42.823s10.468,25.14-9.781,38.032c-10.567,6.719-22.475-2.69-22.475-2.69s6.157,8.383,15.359,8.06a20.985,20.985,0,0,0,16.542-8.432s-2.1,13.042-15.193,13.042c-22.02,0-19.008-19.976-19.008-19.976s11.8,12.694,22.847,3.649c11.544-9.433,14.241-33.588-11.535-33.588h-.612c-45.025,5.213-15.474,67.557-15.474,67.557C602.725-246.06,610.3-223.1,610.3-223.1c13.091-6.43,21.135,6.182,21.135,6.182C616.527-226.539,617.2-209.8,617.2-209.8c.439,22.036,8.449,21.581,8.449,21.581,19.521-2.516,23.211,8.747,23.211,8.747-2.094-1.63-2.731-3.252-12.379-1.63s-12.636,4.121-5.519,31.685c7.109,27.548-8.921,50.966-8.921,50.966A38.094,38.094,0,0,1,603.064-86.26c-.049,0-.1.033-.149.033a49.429,49.429,0,0,1-5.95,1.382c-9.483,1.862-9.682,6.546-9.682,6.546-1.564,7.34-5.528,10.956-5.528,10.956,4.891-10.137-6.9-17.684-9.417-19.157-18.495-8.44-32.628-36.319-32.628-36.319.968,8.374,2.069,21.6-11.354,36.873-13.439,15.309-1.87,34.573,7.927,40.581,9.715,6.016,1.589,13.687,1.589,13.687-12.3,19.256,12.537,19.934,12.537,19.934-6.968,9.268-14.589,4.659-16.931,3.277-4.3-2.59-7.7-14.175-8.8,4.378-1.2,18.511-4.891,21.8-4.891,21.8.232-6.976-1.638-10.882-1.638-10.882-1.614-8.821-6.744-1.382-7.406,5.089-.7,6.5-6.049,7.662-6.049,7.662C509.589,3.566,498,12.37,491.26,24.452c-6.728,12.057-14.374,10.418-16.012,6.935-1.581-3.476-4.386-3.682-4.386-3.682-3.724.207-4.626,9.036-4.626,9.036-7.861-10.9,6.711-23.658,6.711-23.658-4.874,0-6.041,2.54-11.13,10.187-5.064,7.662-5.577-7.646-5.577-7.646-3.914,2.3-7.431,9.533-7.431,9.533C441.651,8.44,465.284,4.741,465.284,4.741c-10.435-1.39-9.516-3.724-9.516-3.724-3.906-1.39-8.267,3.418-8.267,3.418,1.374-14.92,24.792-6.19,24.792-6.19-2.3-3.674-10.783-6.223-10.783-6.223,6.877-3.194,13.538,2.077,13.538,2.077,12.868,7.133,18.817-5.519,26.612-18.371,7.812-12.859-1.58-20.671-1.58-20.671-3.807-3.3-6.8-6.148-9.235-8.532-2.772-2.706-4.824-.464-4.824-.464-1.672,1.862-.066,5.859-.066,5.859,4.559,15.474-5.3,17.378-5.3,17.378,4.709-5.462,1.067-9.806,1.067-9.806-5.354-7.555-1.514-14.233-1.514-14.233,2.631-6.049,2.052-8.25,2.052-8.3C481.1-68,471.846-64.761,471.846-64.761c-12.437,3.575-19.67-8.457-19.67-8.457S477.449-59.631,475.471-83.6c-6.728-28.3,17.287-44.429,17.287-44.429,9.384-7.845,5.917-22.069,5.917-22.069-5.247-34.673-39.505-63.155-39.505-63.155s-4.568-3.716-8.755,1.324c-.1.314-3.426,3.616-2.441,12-14.614-20.15,14.9-23.435,14.9-23.435,5.809-1.374,10.368-2.971,13.058-5.2.438-.43,2.507-2.582,4.071-4.154a14.316,14.316,0,0,1-5.37,3c-2.309.621-5.892.852-12.669.852-13.091,0-21.838-.67-23.427,7.348-1.613,8.043-8.978,6.67-8.978,6.67-5.2-1.382-9.971-2.466-14.456-3.236v.017c-17-2.052-16.732,7.828-16.732,7.828-1.647,5.941,10.079,11.453,10.079,11.453-12.148,1.159-18.354-7.091-16.765-15.143.811-4.055-1.208-5.354-3.467-5.66-18.329,1.746-24.536,9.566-24.536,9.566-6.438,7.348-18.379,4.378-18.379,4.378,11.941-3.707,8.515-8.746,8.515-8.746-5.974-5.056-24.577-4.609-30.551.687-5.991,5.271-8.068,5.255-8.068,5.255-9.764.786-11.114-6.008-11.114-6.008-4,0-7.092,9.9-7.092,9.9-7.472-17.808,13.8-25.644,13.8-25.644-7.779-1.5-12.7,4.526-12.7,4.526-7.514-3.492.248-10.849.248-10.849-4.94-1.051-13.091,9.516-13.091,9.516-2.383-26.414,33.87-11.535,33.87-11.535-8.978-8.143-20.646-7.861-20.646-7.861,4.543-5.379-5.743-4.957-5.743-4.957,11.122-8.689,27.564,4.568,27.564,4.568s-3.36-10.584-14.589-11.386c11.767-4.419,15.739,2.673,15.739,2.673,11.668,16.443,14.879,13.488,30.129,13.894s34.225-8.416,40.738-9.748c6.6-1.357,8.184.662,21.283,0s25.024-10.451,25.024-10.451c-4.039,13.67-.753,16.178-.753,16.178,3.442-10.551,14.663-16.749,14.663-16.749-5.263,9.9-.207,14.473-.207,14.473,8.689-11.949,17.4-12.636,28.706-14.945a55.219,55.219,0,0,0,18.61-7.323c-3.02,10.551,9.632,22.516,9.632,22.516,8.474,10.319-2.085,23.642-2.085,23.642,5.007-.72,10.559-5.3,10.559-5.3,12.628,8.755,22.93,57.421,22.93,57.421,7.39,30.3,21.193,50.974,21.193,50.974C593.06-76.4,612.125-110.15,612.125-110.15c8.018-9.889-4.361-43.138-4.361-43.138-4.618-11.974-25.719-2.077-25.719-2.077,5.056-13.77,24.122-10.592,24.122-10.592-2.317-22.475-21.383-25.007-21.383-25.007C559.992-199.247,556.55-212.6,556.55-212.6c14.523,13.1,37.883,11.072,37.883,11.072l-.9-2.656c-5.379-7.564-14.606-9.939-14.606-9.939a25.854,25.854,0,0,1-15.416-12.33s16.12,8.7,21.176,5.519a37.847,37.847,0,0,0-8.366-8.234c-8.416-5.859-9.806-10.882-10.4-19.546,0,0,8.9,16.467,15.276,12.793,0,0,.8-.083.166-2.524-6.694-20.837-8.73-34.275-8.73-34.275-5.958-50.966,21.59-62.932,34.25-65.663,12.595-2.764,19.736-6.868,23.592-9.632,3.9-2.764,9.185-12.413-10.327-19.761S600.424-388.2,600.424-388.2c-.447-18.139,18.379-20.878,18.379-20.878-11.924,12.6-2.276,17.659,20.174,27.291,22.517,9.649,17.709,25.512,17.709,25.512-4.162,16.294-21.59,19.736-21.59,19.736l-.985.364c18.619,9.781,30.1,28.094,22.086,56.262-10.964,38.429,2.1,49.394,2.1,49.394s-18.263-11.163-9.442-38.595c11.114-34.49,2.35-42.873,2.35-42.873s4.021,13.273-4.593,36.129c-15.094,39.77,15.524,51.065,15.524,51.065s-38.421-7.092-20.365-49.915c11.072-26.24,5.379-32.852,5.379-32.852" transform="translate(-285.14 410.974)" fill="#e7e8eb"/>
</svg>
