<svg xmlns="http://www.w3.org/2000/svg" width="358.982" height="472.132" viewBox="0 0 358.982 472.132">
  <path id="Intersection_1" data-name="Intersection 1" d="M-1212.872,9930.866l.275-.456c9.5-15.687-1.922-25.215-1.922-25.215-4.63-4.028-8.274-7.5-11.234-10.4-3.372-3.3-5.869-.569-5.869-.569-2.035,2.274-.082,7.147-.082,7.147,5.549,18.876-6.441,21.2-6.441,21.2,5.726-6.661,1.3-11.96,1.3-11.96-6.512-9.217-1.841-17.359-1.841-17.359,3.2-7.379,2.5-10.064,2.5-10.125-1.419-6.045-12.673-2.1-12.673-2.1-15.13,4.365-23.928-10.314-23.928-10.314s30.743,16.574,28.337-12.666c-8.186-34.52,21.026-54.192,21.026-54.192,11.418-9.565,7.2-26.916,7.2-26.916-6.382-42.294-48.056-77.034-48.056-77.034s-5.556-4.533-10.649,1.616c-.123.38-4.168,4.411-2.97,14.634-17.777-24.578,18.13-28.584,18.13-28.584,7.066-1.675,12.612-3.625,15.882-6.337.534-.528,3.052-3.152,4.953-5.069a17.384,17.384,0,0,1-6.532,3.664c-2.807.76-7.168,1.041-15.412,1.041-15.922,0-26.564-.816-28.5,8.961-1.963,9.813-10.921,8.138-10.921,8.138-6.321-1.688-12.129-3.008-17.586-3.948v.021c-20.675-2.5-20.352,9.549-20.352,9.549-2,7.246,12.262,13.967,12.262,13.967-14.779,1.412-22.329-8.648-20.4-18.471.987-4.944-1.47-6.53-4.215-6.9-22.3,2.129-29.848,11.67-29.848,11.67-7.832,8.961-22.356,5.341-22.356,5.341,14.524-4.522,10.356-10.671,10.356-10.671-7.267-6.166-29.9-5.621-37.162.837-7.288,6.431-9.815,6.409-9.815,6.409-11.877.96-13.517-7.326-13.517-7.326-4.862,0-8.628,12.07-8.628,12.07-9.087-21.72,16.79-31.281,16.79-31.281-9.461-1.823-15.449,5.524-15.449,5.524-9.142-4.261.3-13.234.3-13.234-6.011-1.28-15.926,11.609-15.926,11.609-2.9-32.218,41.2-14.071,41.2-14.071-10.921-9.93-25.115-9.587-25.115-9.587,5.525-6.561-6.985-6.047-6.985-6.047,13.527-10.6,33.529,5.57,33.529,5.57s-4.086-12.907-17.746-13.888c14.313-5.393,19.144,3.261,19.144,3.261,12.095,17.09,16.719,17,29.307,16.9,2.181-.014,4.6-.031,7.345.044,18.559.5,41.633-10.265,49.553-11.891,4.471-.927,7.053-.569,11.221-.211a100.546,100.546,0,0,0,14.67.211c15.922-.817,30.44-12.75,30.44-12.75-4.913,16.677-.915,19.734-.915,19.734,4.185-12.87,17.834-20.427,17.834-20.427-6.4,12.07-.252,17.648-.252,17.648,10.571-14.574,21.172-15.41,34.92-18.229a67.054,67.054,0,0,0,22.638-8.93c-3.674,12.869,11.717,27.466,11.717,27.466,10.309,12.584-2.538,28.835-2.538,28.835,6.09-.878,12.847-6.459,12.847-6.459,15.358,10.68,27.891,70.037,27.891,70.037,8.989,36.949,25.779,62.176,25.779,62.176,8.162,11.686,15.646,18.952,22.359,23.16v27.229a33.826,33.826,0,0,0-9.625-8.4c-22.5-10.3-39.69-44.3-39.69-44.3,1.177,10.214,2.518,26.343-13.81,44.976-16.348,18.675-2.276,42.171,9.642,49.5,11.816,7.336,1.932,16.693,1.932,16.693a25.316,25.316,0,0,0-4,9.491Zm-123.086-67.529s1.058-3.966-3.582-5.669c-.664-.215-1.984-.859-3.855-1.639-5.617-1.562-10.145,7.025-10.659,8.205-8.717,13.406-21.2,8.037-21.2,8.037,9.159-2.412,13.609-10.9,14.908-12.961,1.218-2.079.793-8.287-4.692-3.343s-12.01,1.839-12.01,1.839c6.182-.8,6.624-5.166,6.624-5.166a8.313,8.313,0,0,0-3.613-7.5c-5.767-3.209-15.854-2.2-20.556.76,0,0-4.63,3.338-11.343-1.857,0,0-6.743-6.521-3.13-12.2,0,0-7.107.647-8.839,13.658,0,0-11.959-26.284,20.131-23.459,0,0-8.615-6.467-21.951-1.541,0,0-1.722-2.748,2.878-9.248,0,0-10.247-.838-16.3,2.726a22.755,22.755,0,0,1,19.689-10.688s3.552-4.432,12.993-4.432c0,0,.575-7.154-10.921-7.973,0,0,9.615-7.792,20.978,3.351a24.706,24.706,0,0,1,7.087,12.154s0-10.69-4.569-17.211c0,0,11.292,2.958,13.568,11.989,0,0-8.758,6.279,1.459,18.875,0,0,15.926,14.727,35.193,3.373,0,0,10.516-6.5,12.551-26.053,0,0-9.584,4.847-22.376-2.906,0,0,13.8,1.242,18.661-9.479,4.814-10.707,2.719-4.633,4-10.707,1.249-6.088-13.418-2.484-10.921-13.848,0,0,4.409,8.174,20.543,1.252,0,0,5.427-16.826,17.344-13.646,11.938,3.138,10.911.857,18.5-.637,0,0,25.207-7.713,53.51,19.188,0,0,6.968,8.185,1,24.164a32.545,32.545,0,0,1-11.091,12.765s-7.488,4.827-8.686,15.707c0,0-6.495.646-16.307-5.684-9.907-6.286-14.7-14.675-24.986-1.644a47.442,47.442,0,0,1-9.37,6.49c-5.066,2.543-8.839,4.623-7.743,15.744,1,11.154,0,22.083-8.223,20.179,0,0-10.217-3.774-11.516,8.63,0,0-.993,7.357,5.468,10.485a26.343,26.343,0,0,1-7.84,1.327C-1330.3,9874.75-1336.07,9872.674-1335.958,9863.337Zm190.13-162.646c8.57,7.754,19.672,11.162,28.83,12.618v11.753C-1142.165,9714.951-1145.828,9700.691-1145.828,9700.691Zm27.218-1.854a31.49,31.49,0,0,1-18.753-15.038s12.193,6.6,20.366,7.484v8.064C-1118.007,9698.994-1118.611,9698.837-1118.611,9698.837Zm-78.424-45.62c-8.706-11.164-17.324-22.089-8.4-38.325,0,0-9.189,12.866-33.2,18.217-24,5.259-25.68,8.073-28.426,12,0,0,3.875-17.352,30.117-29.381,0,0-30.681,5.611-47.168,26.584a45.06,45.06,0,0,1,4.256-21.357,82.649,82.649,0,0,1-10.1,12.385s-13.35,14.594-43.508,12.6a36.393,36.393,0,0,0,25.7-12.6c10.577-12.564,9.431-13.646,16.991-15.906a57.81,57.81,0,0,1-21.158-2.8s23.373-7.522,34.808-18.724a37.267,37.267,0,0,1,6.27-6.569c-6.352,3.277-16.81,8.405-20.182,8.781,0,0,7.822-3.9,10.561-11.984,2.817-8.143,15.623-12.607,25.666-12.051,0,0-9.744-3.61-6.965-15.666,0,0,7.247,22.652,32.07,1.125,0,0,4.2,7.254,13.922,3.893,0,0-1.64,10.648,5.869,16.531a24.037,24.037,0,0,1,9.815-10.062c4.175-2.44,5.444-3.845,5.869-5.105.1,3.625,1.691,9.941,11.122,13.193,0,0,.833-12.012,5.828-15.082,5.032-3.116,3.926-7,3.351-9.781a21.573,21.573,0,0,0,18.141,1.082s0-12.265-6.423-20.69a29.482,29.482,0,0,0,14.514-7.529c6.161-6.167,8.094.816,8.094,6.984,0,6.146-5.3,22.932,4.178,29.36,0,0-9.38-2.1-11.738-11.122.776,3.279,3.273,15.208-.534,25.96-4.5,12.586-14.514,20.41-13.7,32.137.857,11.659-2.425,13.7-2.772,16.705a39.319,39.319,0,0,0-2.212-15.847c-2.817-8.025-6.151-13.627-4.913-17.534a32.378,32.378,0,0,0,.453,23.1c5.256,13.453,3.334,31.926-.834,49.519,0,0-1.14-5.036-9.785-15.133,0,0,5.587,17.119,3.624,29.12,0,0-.844,3.624.555,9.791C-1177.275,9689.025-1188.438,9664.428-1197.035,9653.217Zm75.253,27.27c-10.237-7.146-11.928-13.273-12.653-23.84,0,0,9.806,18.186,17.436,16.088v11.693A39.436,39.436,0,0,0-1121.782,9680.486Zm-4.491-53.119c-3.214-27.572,1.589-45.784,9.275-57.811v95.33C-1124.071,9641.932-1126.273,9627.367-1126.273,9627.367Zm-211.948-8.752c1.136-8.377,4.055-8.377,4.055-13.284,0-3.764-6.5-15.128-2.919-33.216-2.586-1.555-7.369-2.573-14.926,2.08,0,0,1.95-10.379,17.624-11.75a54.5,54.5,0,0,1,2.456-5.945c-4.732-5.621-12.591-17.977-4.671-31.459,0,0,1.279,14.048,9.856,20.025,8.625-21.047,5.906-30.121,2.606-36.066,0,0-11.656,3.271-11.343-13.584,0,0-6.182-.536-8.921,1.877,0,0,1.912-7.256,9.2-7.256,3.355,0,5.3.774,6.546,2.018-1.813-4.38-2.97-10.264,2.657-13.193,0,0-2.97-12.182-9.795-10.286,0,0,4.2-6.841,17.715,6.434-2.354,9.658,5.294,13.089,5.294,13.089-5.134-4.211-1.187-12.19-1.187-12.19,3.593-5.905,3.674-7.614,3.674-7.614s0-8.416-6.5-8.145c0,0,5.155-4.087,9.744,1.637,0,0,3.511,6.205,6.182,8.68,0,0,7.869,3.814,5.192,14.1,0,0,5.668-4.9,2.416-14.928,0,0,17.586,11.122-1.9,42.068,0,0,2.718,11.65-.514,23.075,0,0-6.229,15.735-.864,29.583,5.474,13.807-.755,18.43,4.892,24.415,0,0-2.426,15.735-30.038,24.7,0,0,0,7.308,15.453,9.2a22.354,22.354,0,0,1-14.636,10.891,15.494,15.494,0,0,1-3.49.408A14,14,0,0,1-1338.221,9618.615Zm174.058,7.4c0,.047-.008.07-.008.07C-1164.168,9626.063-1164.165,9626.037-1164.162,9626.014Zm-25.956-66.427a18.739,18.739,0,0,0-3.011-11.122c-.925,9.873-16.116,20.895-16.116,20.895-3.674-8.711,3.937-16.946,3.937-16.946-10.952,4.894-16.719,4.261-16.719,4.261,7.89-6.988,3.321-19.06,3.321-19.06-2.225,1.181-4.7,12.5-4.7,12.5h-.541s-8.1-.816-14.133,2.991c0,0,2.113-2.889,2.194-4.585,0,0-10.935-.322-16.984,5.362a12.194,12.194,0,0,0,1.994-5.362s-13.932,1.414-17.093,4.744l-.926.679c8.274-11.467,12.272-30.838,12.272-30.838-6.362,1.694-23.856-1.685-23.536-15.4.3-13.739,12.323-14.937,12.323-14.937-7.168,7.456-4.44,11.908-4.44,11.908,3.535,9.74,20.264,8.051,20.264,8.051,1.953-22.869,14.606-27.311,14.606-27.311-1.2-5.643-8.376-.755-8.376-.755-.422-13.121,7.58-9.792,7.58-9.792,10.088,3.059,28.79,14.192,28.79,14.192-.143,12.544,6.723,14.069,6.723,14.069,7.9,2.736,10.458-1.525,10.458-1.525,3.052-6.449,9.8-1.545,9.8-1.545-3.382-5.46-15.259-11.122-15.259-11.122-3.344,1.062-4.542,7.008-4.542,7.008-3.069-2.587-.18-8.533-.18-8.533-2.728-.914-5.3-1.571-5.3-1.571-1.973-13.412,16.286-9.932,34.849,3.693,12.139,8.871,30.157-.6,30.157-.6,1.994,12.185-14.728,8.874-14.728,8.874-17.14-2.754-17.705,5.914-17.705,5.914,37.125-3.2,39.418,12.676,39.418,12.676-8.414-6.1-12.51-.3-19.658,8.725-7.158,8.969-24.8,2.1-24.8,2.1,12.9,5.643,18.28,21.236,18.28,21.236-8.243,3.342-16.892-5.37-16.892-5.37a19.664,19.664,0,0,1-3.351,14.032,19.227,19.227,0,0,0-3.824,13.453C-1187.462,9568.26-1190.544,9565.655-1190.119,9559.587Z" transform="translate(1475.98 -9458.734)" fill="#e7e8eb"/>
</svg>
