<svg xmlns="http://www.w3.org/2000/svg" width="330.506" height="392.5" viewBox="0 0 330.506 392.5">
  <path id="Path_7" data-name="Path 7" d="M435.146-386.511c-5.165,5.361-3.2,8.56-3.2,8.56,2.546,7,14.6,5.789,14.6,5.789,1.407-16.439,10.526-19.631,10.526-19.631-.863-4.055-6.036-.544-6.036-.544-.3-9.431,5.463-7.037,5.463-7.037,7.269,2.2,20.748,10.2,20.748,10.2-.1,9.017,4.846,10.112,4.846,10.112,5.695,1.966,7.538-1.1,7.538-1.1,2.2-4.635,7.058-1.11,7.058-1.11-2.438-3.925-11-7.994-11-7.994-2.409.761-3.272,5.035-3.272,5.035-2.213-1.857-.131-6.13-.131-6.13-1.966-.66-3.823-1.132-3.823-1.132-1.422-9.641,11.738-7.138,25.115,2.655,8.749,6.376,21.734-.428,21.734-.428,1.436,8.756-10.613,6.377-10.613,6.377-12.354-1.981-12.761,4.251-12.761,4.251,26.755-2.3,28.409,9.112,28.409,9.112-6.065-4.389-9.017-.218-14.168,6.268-5.158,6.45-17.876,1.509-17.876,1.509,9.3,4.055,13.174,15.264,13.174,15.264-5.941,2.4-12.173-3.859-12.173-3.859a14.1,14.1,0,0,1-2.416,10.084,13.8,13.8,0,0,0-2.757,9.67c-1.066-1.669-3.286-3.54-2.982-7.9a13.447,13.447,0,0,0-2.169-7.995c-.667,7.1-11.614,15.017-11.614,15.017-2.648-6.261,2.836-12.18,2.836-12.18-7.893,3.518-12.05,3.062-12.05,3.062,5.688-5.02,2.394-13.7,2.394-13.7-1.6.849-3.388,8.988-3.388,8.988h-.392s-5.84-.587-10.185,2.147c0,0,1.523-2.075,1.581-3.293,0,0-7.878-.232-12.239,3.852a8.747,8.747,0,0,0,1.437-3.852s-10.04,1.016-12.318,3.41l-.667.486c5.963-8.241,8.843-22.163,8.843-22.163-4.585,1.219-17.193-1.212-16.961-11.071s8.88-10.737,8.88-10.737m-9.1,67.1c2.031-5.854,11.259-9.061,18.5-8.662,0,0-7.022-2.6-5.02-11.259,0,0,5.223,16.279,23.113.805,0,0,3.025,5.216,10.033,2.8,0,0-1.183,7.654,4.229,11.883a17.282,17.282,0,0,1,7.073-7.233c3.011-1.756,3.925-2.764,4.23-3.671.073,2.6,1.219,7.146,8.016,9.482,0,0,.6-8.633,4.2-10.838,3.627-2.242,2.829-5.035,2.416-7.03a15.588,15.588,0,0,0,13.073.776s0-8.814-4.628-14.872a21.288,21.288,0,0,0,10.461-5.412c4.44-4.432,5.833.588,5.833,5.02s-3.823,16.482,3.01,21.1c0,0-6.761-1.509-8.459-7.995.559,2.358,2.358,10.933-.385,18.659-3.243,9.046-10.461,14.669-9.873,23.1.624,8.445-1.785,9.866-2,12.057a27.953,27.953,0,0,0-1.589-11.44c-2.031-5.767-4.433-9.794-3.54-12.6a23.2,23.2,0,0,0,.327,16.6c3.787,9.67,2.4,22.946-.6,35.591,0,0-.82-3.62-7.051-10.874,0,0,4.026,12.3,2.612,20.929a17.148,17.148,0,0,0,.4,7.037s-8.046-17.679-14.24-25.739c-6.275-8.024-12.485-15.873-6.051-27.545,0,0-6.623,9.25-23.925,13.094-17.295,3.78-18.506,5.8-20.487,8.626,0,0,2.793-12.471,21.706-21.118,0,0-22.112,4.033-33.995,19.108a32.331,32.331,0,0,1,3.069-15.351,59.493,59.493,0,0,1-7.283,8.9s-9.62,10.49-31.354,9.054a26.257,26.257,0,0,0,18.521-9.054c7.624-9.032,6.8-9.808,12.245-11.433a41.748,41.748,0,0,1-15.249-2.017s16.845-5.4,25.086-13.457a26.8,26.8,0,0,1,4.52-4.723c-4.578,2.358-12.115,6.043-14.546,6.311,0,0,5.637-2.8,7.61-8.611M386.6-388.477c2.416,0,3.816.559,4.715,1.451-1.306-3.148-2.14-7.378,1.915-9.482,0,0-2.14-8.756-7.059-7.392,0,0,3.025-4.919,12.768,4.621-1.7,6.943,3.816,9.409,3.816,9.409-3.7-3.025-.856-8.763-.856-8.763,2.59-4.244,2.648-5.47,2.648-5.47s0-6.05-4.686-5.854c0,0,3.714-2.938,7.022,1.175,0,0,2.532,4.461,4.454,6.239,0,0,5.673,2.742,3.743,10.134,0,0,4.084-3.526,1.741-10.729,0,0,12.674,7.995-1.371,30.237a37.323,37.323,0,0,1-.37,16.584s-4.49,11.31-.624,21.263c3.947,9.924-.544,13.247,3.526,17.549,0,0-1.748,11.31-21.647,17.752,0,0,0,5.252,11.136,6.616a16.091,16.091,0,0,1-10.548,7.827,10.084,10.084,0,0,1-12.5-10.751c.82-6.021,2.923-6.021,2.923-9.547,0-2.706-4.686-10.875-2.1-23.875-1.864-1.117-5.31-1.85-10.758,1.494,0,0,1.407-7.457,12.7-8.444a39.351,39.351,0,0,1,1.77-4.273c-3.41-4.041-9.075-12.92-3.366-22.612,0,0,.921,10.1,7.1,14.393,6.217-15.126,4.258-21.648,1.879-25.92,0,0-8.4,2.35-8.176-9.765,0,0-4.454-.385-6.427,1.349,0,0,1.378-5.216,6.631-5.216m35.511,231.332a34.128,34.128,0,0,1-6.754,4.665c-3.649,1.828-6.369,3.322-5.579,11.317.718,8.016,0,15.873-5.927,14.5,0,0-7.363-2.713-8.3,6.2,0,0-.718,5.288,3.939,7.537,0,0-13.581,4.832-13.435-7.247,0,0,.762-2.851-2.583-4.077-.479-.152-1.429-.617-2.778-1.175-4.048-1.125-7.313,5.049-7.682,5.9-6.283,9.634-15.278,5.775-15.278,5.775,6.6-1.734,9.808-7.835,10.744-9.315.878-1.495.573-5.956-3.381-2.4a8.222,8.222,0,0,1-8.655,1.32c4.454-.573,4.774-3.714,4.774-3.714a5.965,5.965,0,0,0-2.6-5.39c-4.157-2.307-11.426-1.582-14.814.544,0,0-3.337,2.4-8.176-1.335,0,0-4.86-4.687-2.256-8.764,0,0-5.122.464-6.369,9.815,0,0-8.618-18.891,14.509-16.859,0,0-6.21-4.65-15.822-1.11,0,0-1.24-1.973,2.075-6.645,0,0-7.385-.6-11.745,1.959a16.4,16.4,0,0,1,14.19-7.682s2.561-3.185,9.365-3.185c0,0,.413-5.143-7.871-5.731,0,0,6.928-5.6,15.118,2.409a17.758,17.758,0,0,1,5.107,8.735s0-7.683-3.294-12.369c0,0,8.14,2.125,9.779,8.618,0,0-6.312,4.513,1.052,13.566,0,0,11.477,10.584,25.362,2.423,0,0,7.581-4.672,9.046-18.724,0,0-6.907,3.482-16.127-2.089,0,0,9.946.892,13.45-6.812,3.468-7.7,1.959-3.33,2.88-7.7.9-4.374-9.67-1.784-7.871-9.953,0,0,3.177,5.876,14.806.9,0,0,3.91-12.094,12.5-9.808,8.6,2.256,7.864.617,13.334-.457,0,0,18.165-5.542,38.565,13.791,0,0,5.02,5.883.718,17.367a23.42,23.42,0,0,1-7.995,9.177,15.835,15.835,0,0,0-6.261,11.288s-4.679.464-11.752-4.084c-7.138-4.52-10.592-10.548-18.006-1.182m180.4-163.169a69.216,69.216,0,0,1-8.9,30.643c-11.31,20.051,4.36,38.906,4.36,38.906s-27.117-18.55-7.4-46.146c16.83-23.563.82-37.542.82-37.542s9.177,22.039-8.575,33.342c-9.264,5.891-19.7-2.358-19.7-2.358s5.4,7.349,13.464,7.066a18.4,18.4,0,0,0,14.5-7.392s-1.843,11.433-13.319,11.433c-19.3,0-16.664-17.512-16.664-17.512s10.345,11.128,20.03,3.2c10.12-8.27,12.485-29.446-10.113-29.446h-.537C531-331.551,556.906-276.9,556.906-276.9c6.652,10.5,13.3,30.621,13.3,30.621,11.477-5.637,18.528,5.419,18.528,5.419-13.073-8.43-12.485,6.246-12.485,6.246.384,19.319,7.407,18.92,7.407,18.92,17.113-2.205,20.349,7.668,20.349,7.668-1.835-1.429-2.394-2.851-10.853-1.429s-11.078,3.613-4.839,27.778-7.82,44.681-7.82,44.681a33.4,33.4,0,0,1-16.635,10.686c-.043,0-.087.029-.131.029a43.333,43.333,0,0,1-5.216,1.212c-8.314,1.632-8.488,5.738-8.488,5.738a18.973,18.973,0,0,1-4.846,9.6c4.288-8.887-6.05-15.5-8.255-16.794-16.214-7.4-28.6-31.84-28.6-31.84.848,7.342,1.813,18.934-9.953,32.326-11.781,13.421-1.64,30.31,6.95,35.577,8.517,5.274,1.393,12,1.393,12C495.917-61.574,517.7-60.979,517.7-60.979c-6.109,8.125-12.79,4.085-14.843,2.873-3.772-2.27-6.747-12.427-7.712,3.838-1.052,16.228-4.288,19.108-4.288,19.108.2-6.116-1.436-9.54-1.436-9.54-1.415-7.733-5.912-1.212-6.493,4.462a7.369,7.369,0,0,1-5.3,6.717c4.288-14.037-5.869-6.319-11.781,4.273-5.9,10.57-12.6,9.133-14.037,6.079a5.038,5.038,0,0,0-3.845-3.228c-3.265.181-4.055,7.922-4.055,7.922-6.892-9.555,5.883-20.741,5.883-20.741-4.273,0-5.3,2.227-9.757,8.93-4.44,6.717-4.889-6.7-4.889-6.7-3.432,2.017-6.515,8.357-6.515,8.357-6.275-14.654,14.444-17.9,14.444-17.9-9.148-1.219-8.343-3.265-8.343-3.265-3.424-1.219-7.247,3-7.247,3,1.2-13.08,21.735-5.427,21.735-5.427-2.017-3.221-9.453-5.455-9.453-5.455,6.029-2.8,11.868,1.821,11.868,1.821,11.281,6.253,16.5-4.839,23.33-16.105s-1.385-18.122-1.385-18.122c-3.337-2.895-5.963-5.39-8.1-7.479-2.43-2.372-4.229-.406-4.229-.406-1.465,1.633-.058,5.136-.058,5.136,4,13.566-4.643,15.235-4.643,15.235,4.128-4.788.936-8.6.936-8.6-4.694-6.623-1.327-12.478-1.327-12.478,2.307-5.3,1.8-7.233,1.8-7.277-1.023-4.345-9.133-1.509-9.133-1.509-10.9,3.134-17.244-7.414-17.244-7.414s22.155,11.912,20.421-9.1c-5.9-24.81,15.155-38.95,15.155-38.95,8.227-6.877,5.187-19.348,5.187-19.348-4.6-30.4-34.633-55.366-34.633-55.366s-4-3.257-7.675,1.161c-.087.275-3,3.17-2.14,10.519-12.811-17.665,13.066-20.545,13.066-20.545,5.093-1.2,9.09-2.6,11.448-4.556.384-.377,2.2-2.263,3.569-3.642a12.55,12.55,0,0,1-4.708,2.633c-2.024.544-5.165.747-11.107.747-11.477,0-19.145-.588-20.538,6.442-1.414,7.051-7.871,5.847-7.871,5.847-4.556-1.212-8.742-2.162-12.674-2.837v.015c-14.9-1.8-14.669,6.863-14.669,6.863-1.444,5.209,8.836,10.04,8.836,10.04-10.65,1.016-16.091-6.217-14.7-13.276.711-3.555-1.059-4.694-3.04-4.962C359.438-241.66,354-234.8,354-234.8c-5.644,6.442-16.112,3.838-16.112,3.838,10.468-3.25,7.465-7.668,7.465-7.668-5.238-4.433-21.546-4.041-26.784.6-5.252,4.621-7.073,4.607-7.073,4.607-8.56.689-9.743-5.267-9.743-5.267-3.5,0-6.217,8.676-6.217,8.676-6.551-15.612,12.1-22.482,12.1-22.482-6.819-1.313-11.136,3.968-11.136,3.968-6.587-3.061.218-9.511.218-9.511-4.331-.921-11.476,8.343-11.476,8.343-2.089-23.156,29.693-10.113,29.693-10.113-7.871-7.139-18.1-6.892-18.1-6.892,3.983-4.715-5.035-4.345-5.035-4.345,9.75-7.617,24.165,4,24.165,4s-2.945-9.279-12.79-9.982c10.316-3.874,13.8,2.343,13.8,2.343,10.229,14.415,13.044,11.825,26.414,12.181s30-7.378,35.714-8.546c5.782-1.19,7.175.58,18.659,0s21.938-9.163,21.938-9.163c-3.54,11.984-.66,14.183-.66,14.183,3.018-9.25,12.855-14.683,12.855-14.683-4.614,8.677-.181,12.688-.181,12.688,7.617-10.475,15.257-11.078,25.166-13.1a48.408,48.408,0,0,0,16.315-6.42c-2.648,9.25,8.444,19.739,8.444,19.739,7.429,9.047-1.828,20.726-1.828,20.726,4.389-.631,9.257-4.643,9.257-4.643,11.07,7.676,20.1,50.339,20.1,50.339A153.945,153.945,0,0,0,527.742-156.7c27.342,39.037,44.057,9.445,44.057,9.445,7.03-8.669-3.823-37.818-3.823-37.818-4.048-10.5-22.547-1.82-22.547-1.82,4.432-12.072,21.147-9.286,21.147-9.286-2.031-19.7-18.746-21.923-18.746-21.923-21.734-7.262-24.753-18.971-24.753-18.971,12.732,11.484,33.211,9.706,33.211,9.706l-.791-2.328c-4.716-6.631-12.8-8.713-12.8-8.713a22.666,22.666,0,0,1-13.515-10.809s14.132,7.625,18.565,4.839a33.181,33.181,0,0,0-7.335-7.218c-7.378-5.136-8.6-9.54-9.119-17.135,0,0,7.806,14.437,13.392,11.215,0,0,.7-.072.145-2.212-5.869-18.267-7.654-30.048-7.654-30.048-5.223-44.681,18.927-55.171,30.026-57.565,11.042-2.423,17.3-6.021,20.683-8.444,3.417-2.423,8.053-10.882-9.054-17.324s-17.287-17.9-17.287-17.9c-.392-15.9,16.112-18.3,16.112-18.3-10.454,11.049-1.995,15.481,17.686,23.925,19.74,8.459,15.525,22.366,15.525,22.366-3.649,14.284-18.927,17.3-18.927,17.3l-.863.319c16.323,8.575,26.392,24.629,19.362,49.324-9.612,33.69,1.843,43.3,1.843,43.3S596.269-262.56,604-286.609c9.743-30.237,2.06-37.586,2.06-37.586s3.526,11.636-4.026,31.673c-13.232,34.865,13.61,44.768,13.61,44.768s-33.683-6.217-17.854-43.759c9.707-23,4.716-28.8,4.716-28.8" transform="translate(-285.14 410.974)" fill="#e7e8eb"/>
</svg>
