<svg xmlns="http://www.w3.org/2000/svg" width="21.137" height="14.504" viewBox="0 0 21.137 14.504">
  <g id="speech_2014784" transform="translate(0 -80.333)">
    <path id="Path_3196" data-name="Path 3196" d="M220.762,80.333H209.486a.619.619,0,0,0-.438,1.057l1.808,1.808V94.218a.619.619,0,0,0,.619.619h9.286a.619.619,0,0,0,.619-.619V80.952A.619.619,0,0,0,220.762,80.333ZM215.5,92.184h-1.371a.619.619,0,0,1,0-1.238H215.5a.619.619,0,0,1,0,1.238Zm2.609-2.653h-3.98a.619.619,0,0,1,0-1.238h3.98a.619.619,0,0,1,0,1.238Zm0-2.653h-3.98a.619.619,0,1,1,0-1.238h3.98a.619.619,0,0,1,0,1.238Zm0-2.653h-3.98a.619.619,0,1,1,0-1.238h3.98a.619.619,0,0,1,0,1.238Z" transform="translate(-200.245 0)" fill="#a69867"/>
    <path id="Path_3197" data-name="Path 3197" d="M8.578,208.866a.619.619,0,0,0-.619.619,3.36,3.36,0,0,1-6.721,0h0a.619.619,0,0,0-1.238,0,4.6,4.6,0,0,0,3.98,4.557v2.783H2.609a.619.619,0,1,0,0,1.238h3.98a.619.619,0,1,0,0-1.238H5.218v-2.783h0a4.606,4.606,0,0,0,3.98-4.557.619.619,0,0,0-.619-.619Z" transform="translate(0 -123.227)" fill="#a69867"/>
    <path id="Path_3198" data-name="Path 3198" d="M66.213,88.2a1.948,1.948,0,0,0,1.946-1.946v-3.98a1.946,1.946,0,1,0-3.892,0v3.98A1.948,1.948,0,0,0,66.213,88.2Z" transform="translate(-61.614)" fill="#a69867"/>
  </g>
</svg>
