<svg xmlns="http://www.w3.org/2000/svg" width="406.454" height="482.693" viewBox="0 0 406.454 482.693">
  <path id="Path_7" data-name="Path 7" d="M469.616-380.889c-6.352,6.593-3.934,10.528-3.934,10.528,3.132,8.609,17.959,7.119,17.959,7.119,1.731-20.216,12.945-24.142,12.945-24.142-1.062-4.987-7.423-.669-7.423-.669-.374-11.6,6.718-8.654,6.718-8.654,8.94,2.7,25.516,12.544,25.516,12.544-.125,11.089,5.959,12.436,5.959,12.436,7,2.418,9.27-1.347,9.27-1.347,2.7-5.7,8.681-1.365,8.681-1.365-3-4.827-13.525-9.831-13.525-9.831-2.962.936-4.023,6.192-4.023,6.192-2.721-2.284-.161-7.539-.161-7.539-2.418-.812-4.7-1.392-4.7-1.392-1.749-11.857,14.435-8.779,30.886,3.265,10.759,7.842,26.729-.526,26.729-.526,1.767,10.768-13.052,7.842-13.052,7.842-15.193-2.436-15.693,5.228-15.693,5.228C584.669-374.029,586.7-360,586.7-360c-7.458-5.4-11.089-.268-17.423,7.708-6.344,7.932-21.983,1.856-21.983,1.856,11.438,4.987,16.2,18.771,16.2,18.771-7.307,2.953-14.971-4.746-14.971-4.746a17.345,17.345,0,0,1-2.971,12.4,16.966,16.966,0,0,0-3.39,11.893c-1.312-2.052-4.042-4.354-3.667-9.716a16.537,16.537,0,0,0-2.667-9.832c-.821,8.725-14.283,18.468-14.283,18.468-3.257-7.7,3.488-14.979,3.488-14.979-9.707,4.327-14.819,3.765-14.819,3.765,6.995-6.174,2.944-16.844,2.944-16.844C511.19-340.207,509-330.2,509-330.2h-.482s-7.182-.723-12.525,2.641c0,0,1.873-2.552,1.945-4.05,0,0-9.689-.285-15.051,4.737a10.757,10.757,0,0,0,1.767-4.737s-12.348,1.249-15.149,4.193l-.821.6c7.334-10.135,10.875-27.255,10.875-27.255-5.638,1.5-21.144-1.49-20.859-13.614.268-12.142,10.92-13.2,10.92-13.2m-11.2,82.524c2.5-7.2,13.846-11.143,22.75-10.652,0,0-8.636-3.194-6.173-13.846,0,0,6.423,20.02,28.424.99,0,0,3.721,6.414,12.339,3.443,0,0-1.454,9.413,5.2,14.614a21.253,21.253,0,0,1,8.7-8.895c3.7-2.159,4.827-3.4,5.2-4.515.089,3.2,1.5,8.788,9.858,11.661,0,0,.74-10.617,5.166-13.329,4.461-2.757,3.479-6.191,2.971-8.645a19.17,19.17,0,0,0,16.077.955s0-10.84-5.692-18.289a26.18,26.18,0,0,0,12.865-6.655c5.46-5.451,7.173.723,7.173,6.174,0,5.433-4.7,20.27,3.7,25.953,0,0-8.315-1.856-10.4-9.832.687,2.9,2.9,13.445-.473,22.946-3.988,11.125-12.865,18.039-12.142,28.406.767,10.385-2.195,12.133-2.462,14.828a34.374,34.374,0,0,0-1.954-14.069c-2.5-7.093-5.451-12.044-4.354-15.5a28.533,28.533,0,0,0,.4,20.413c4.657,11.892,2.953,28.219-.74,43.769,0,0-1.008-4.452-8.672-13.373,0,0,4.952,15.131,3.212,25.739,0,0-.749,3.2.491,8.654,0,0-9.894-21.742-17.513-31.654-7.717-9.867-15.354-19.521-7.441-33.875,0,0-8.145,11.375-29.423,16.1-21.269,4.648-22.759,7.137-25.195,10.608,0,0,3.435-15.336,26.693-25.971,0,0-27.193,4.96-41.806,23.5a39.76,39.76,0,0,1,3.774-18.878,73.156,73.156,0,0,1-8.957,10.947s-11.83,12.9-38.559,11.134a32.291,32.291,0,0,0,22.777-11.134c9.377-11.107,8.359-12.062,15.059-14.061a51.34,51.34,0,0,1-18.753-2.48s20.716-6.646,30.85-16.549a32.954,32.954,0,0,1,5.559-5.808c-5.63,2.9-14.9,7.432-17.888,7.762,0,0,6.932-3.444,9.359-10.59m-48.506-84.942c2.971,0,4.693.687,5.8,1.784-1.606-3.872-2.632-9.073,2.355-11.661,0,0-2.632-10.768-8.681-9.091,0,0,3.72-6.049,15.7,5.683-2.087,8.538,4.693,11.571,4.693,11.571-4.55-3.72-1.053-10.777-1.053-10.777,3.185-5.219,3.256-6.727,3.256-6.727s0-7.441-5.763-7.2c0,0,4.568-3.613,8.636,1.445,0,0,3.114,5.487,5.478,7.673,0,0,6.976,3.372,4.6,12.463,0,0,5.023-4.336,2.141-13.195,0,0,15.586,9.832-1.686,37.185,0,0,2.409,10.3-.455,20.395,0,0-5.522,13.909-.767,26.149,4.853,12.2-.669,16.291,4.336,21.581,0,0-2.15,13.909-26.622,21.831,0,0,0,6.459,13.695,8.137a19.789,19.789,0,0,1-12.972,9.626,12.4,12.4,0,0,1-15.372-13.222c1.008-7.4,3.6-7.4,3.6-11.741,0-3.328-5.763-13.374-2.587-29.361-2.293-1.374-6.53-2.275-13.231,1.838,0,0,1.731-9.171,15.622-10.385a48.393,48.393,0,0,1,2.177-5.255c-4.193-4.969-11.161-15.889-4.14-27.809,0,0,1.133,12.419,8.734,17.7,7.646-18.6,5.237-26.622,2.311-31.877,0,0-10.331,2.89-10.055-12.009,0,0-5.478-.473-7.9,1.66,0,0,1.7-6.415,8.154-6.415M453.584-98.817a41.965,41.965,0,0,1-8.306,5.736c-4.488,2.248-7.833,4.086-6.861,13.918.883,9.858,0,19.521-7.289,17.834,0,0-9.055-3.337-10.206,7.628,0,0-.883,6.5,4.844,9.269,0,0-16.7,5.942-16.523-8.913,0,0,.937-3.506-3.176-5.014-.589-.187-1.758-.758-3.417-1.445-4.978-1.383-8.993,6.209-9.448,7.253-7.726,11.848-18.789,7.1-18.789,7.1,8.119-2.132,12.062-9.635,13.213-11.455,1.079-1.838.7-7.325-4.157-2.953s-10.644,1.624-10.644,1.624c5.478-.7,5.871-4.568,5.871-4.568a7.336,7.336,0,0,0-3.2-6.629c-5.112-2.837-14.051-1.945-18.218.669,0,0-4.1,2.953-10.055-1.642,0,0-5.977-5.763-2.775-10.777,0,0-6.3.571-7.833,12.071,0,0-10.6-23.232,17.843-20.734,0,0-7.637-5.719-19.458-1.365,0,0-1.525-2.427,2.552-8.172,0,0-9.082-.74-14.444,2.409a20.174,20.174,0,0,1,17.451-9.448s3.149-3.917,11.518-3.917c0,0,.509-6.325-9.68-7.048,0,0,8.52-6.887,18.592,2.962a21.838,21.838,0,0,1,6.281,10.742s0-9.448-4.05-15.211c0,0,10.01,2.614,12.026,10.6,0,0-7.762,5.55,1.294,16.683,0,0,14.114,13.017,31.19,2.98,0,0,9.323-5.746,11.125-23.027,0,0-8.494,4.282-19.833-2.569,0,0,12.231,1.1,16.541-8.377,4.264-9.466,2.409-4.095,3.542-9.466,1.106-5.38-11.892-2.195-9.68-12.24,0,0,3.907,7.227,18.209,1.107,0,0,4.809-14.873,15.372-12.062,10.581,2.775,9.671.758,16.4-.562,0,0,22.34-6.816,47.427,16.96,0,0,6.174,7.236.883,21.358a28.8,28.8,0,0,1-9.832,11.286,19.473,19.473,0,0,0-7.7,13.882s-5.754.571-14.453-5.023c-8.779-5.558-13.025-12.972-22.143-1.454M675.436-299.48A85.12,85.12,0,0,1,664.49-261.8c-13.909,24.659,5.362,47.846,5.362,47.846s-33.349-22.812-9.1-56.75c20.7-28.977,1.008-46.169,1.008-46.169s11.286,27.1-10.545,41c-11.393,7.244-24.231-2.9-24.231-2.9s6.638,9.038,16.559,8.689a22.624,22.624,0,0,0,17.834-9.091s-2.266,14.06-16.38,14.06c-23.741,0-20.493-21.536-20.493-21.536s12.722,13.685,24.633,3.934c12.445-10.17,15.354-36.213-12.437-36.213h-.66c-48.542,5.621-16.684,72.836-16.684,72.836,8.181,12.909,16.353,37.658,16.353,37.658,14.114-6.932,22.786,6.665,22.786,6.665-16.077-10.367-15.354,7.681-15.354,7.681.473,23.758,9.109,23.267,9.109,23.267,21.046-2.712,25.025,9.43,25.025,9.43-2.257-1.758-2.944-3.506-13.347-1.758s-13.623,4.443-5.951,34.161c7.664,29.7-9.617,54.948-9.617,54.948A41.071,41.071,0,0,1,627.9-60.891c-.053,0-.107.036-.161.036a53.284,53.284,0,0,1-6.414,1.49c-10.224,2.007-10.438,7.057-10.438,7.057C609.2-44.4,604.929-40.5,604.929-40.5c5.273-10.929-7.441-19.065-10.152-20.653-19.94-9.1-35.178-39.157-35.178-39.157,1.043,9.029,2.23,23.285-12.241,39.754-14.488,16.505-2.016,37.275,8.547,43.752,10.474,6.486,1.713,14.756,1.713,14.756-13.266,20.76,13.517,21.492,13.517,21.492-7.512,9.992-15.729,5.023-18.254,3.533-4.639-2.792-8.3-15.282-9.484,4.72-1.294,19.958-5.273,23.5-5.273,23.5.25-7.521-1.766-11.732-1.766-11.732-1.74-9.51-7.271-1.49-7.984,5.487-.759,7-6.522,8.261-6.522,8.261,5.273-17.263-7.218-7.771-14.489,5.255-7.253,13-15.5,11.232-17.263,7.476-1.7-3.747-4.729-3.97-4.729-3.97-4.015.223-4.987,9.742-4.987,9.742-8.475-11.75,7.236-25.507,7.236-25.507-5.255,0-6.513,2.739-12,10.983-5.46,8.261-6.013-8.244-6.013-8.244-4.22,2.48-8.012,10.278-8.012,10.278-7.717-18.022,17.763-22.009,17.763-22.009-11.25-1.5-10.26-4.015-10.26-4.015-4.211-1.5-8.913,3.685-8.913,3.685,1.481-16.085,26.729-6.674,26.729-6.674-2.48-3.961-11.625-6.709-11.625-6.709,7.414-3.444,14.6,2.239,14.6,2.239,13.873,7.691,20.288-5.951,28.692-19.806,8.422-13.864-1.7-22.286-1.7-22.286-4.1-3.56-7.334-6.629-9.957-9.2-2.989-2.917-5.2-.5-5.2-.5-1.8,2.008-.071,6.317-.071,6.317,4.916,16.683-5.71,18.735-5.71,18.735,5.076-5.888,1.151-10.572,1.151-10.572-5.772-8.146-1.632-15.345-1.632-15.345,2.837-6.522,2.212-8.895,2.212-8.949-1.258-5.344-11.232-1.855-11.232-1.855-13.409,3.854-21.206-9.118-21.206-9.118s27.246,14.649,25.114-11.2c-7.254-30.512,18.637-47.9,18.637-47.9,10.117-8.458,6.379-23.794,6.379-23.794C509.7-167.1,472.765-197.81,472.765-197.81s-4.925-4.006-9.439,1.427c-.107.339-3.693,3.9-2.632,12.936-15.755-21.724,16.068-25.266,16.068-25.266,6.263-1.481,11.179-3.2,14.078-5.6.473-.464,2.7-2.784,4.389-4.479a15.435,15.435,0,0,1-5.79,3.239c-2.489.669-6.352.919-13.659.919-14.114,0-23.544-.722-25.257,7.922-1.739,8.672-9.68,7.191-9.68,7.191-5.6-1.49-10.75-2.659-15.586-3.488v.018c-18.325-2.213-18.04,8.44-18.04,8.44-1.775,6.406,10.866,12.347,10.866,12.347-13.1,1.249-19.788-7.646-18.075-16.326.874-4.372-1.3-5.772-3.738-6.1-19.761,1.882-26.452,10.313-26.452,10.313C362.878-186.4,350-189.6,350-189.6c12.874-4,9.18-9.43,9.18-9.43-6.441-5.451-26.5-4.97-32.938.74-6.459,5.683-8.7,5.665-8.7,5.665-10.527.848-11.982-6.477-11.982-6.477-4.309,0-7.646,10.67-7.646,10.67-8.056-19.2,14.881-27.648,14.881-27.648-8.386-1.615-13.695,4.88-13.695,4.88-8.1-3.765.268-11.7.268-11.7-5.326-1.133-14.114,10.26-14.114,10.26-2.57-28.477,36.516-12.436,36.516-12.436-9.68-8.779-22.259-8.476-22.259-8.476,4.9-5.8-6.191-5.344-6.191-5.344,11.99-9.368,29.718,4.925,29.718,4.925s-3.622-11.411-15.729-12.276c12.686-4.764,16.969,2.881,16.969,2.881,12.579,17.727,16.041,14.542,32.483,14.979s36.9-9.073,43.921-10.51c7.111-1.463,8.823.714,22.946,0s26.979-11.268,26.979-11.268c-4.354,14.738-.812,17.442-.812,17.442,3.711-11.375,15.809-18.057,15.809-18.057-5.674,10.67-.223,15.6-.223,15.6,9.368-12.883,18.762-13.623,30.949-16.112a59.533,59.533,0,0,0,20.064-7.9c-3.256,11.375,10.385,24.275,10.385,24.275,9.136,11.125-2.248,25.489-2.248,25.489,5.4-.776,11.384-5.71,11.384-5.71,13.614,9.439,24.721,61.907,24.721,61.907,7.967,32.662,22.848,54.957,22.848,54.957,33.626,48.007,54.181,11.616,54.181,11.616,8.645-10.661-4.7-46.508-4.7-46.508-4.978-12.909-27.728-2.239-27.728-2.239,5.451-14.846,26.006-11.42,26.006-11.42-2.5-24.231-23.053-26.961-23.053-26.961-26.729-8.93-30.44-23.33-30.44-23.33,15.657,14.123,40.843,11.937,40.843,11.937l-.972-2.863c-5.8-8.154-15.747-10.715-15.747-10.715a27.874,27.874,0,0,1-16.621-13.293s17.379,9.377,22.831,5.951a40.806,40.806,0,0,0-9.02-8.877c-9.073-6.316-10.572-11.732-11.214-21.073,0,0,9.6,17.754,16.469,13.793,0,0,.865-.089.179-2.721-7.218-22.464-9.412-36.953-9.412-36.953-6.423-54.948,23.276-67.848,36.926-70.793,13.579-2.98,21.278-7.405,25.435-10.385,4.2-2.98,9.9-13.382-11.134-21.3s-21.26-22.018-21.26-22.018c-.482-19.556,19.815-22.509,19.815-22.509-12.856,13.587-2.453,19.039,21.751,29.423C690.9-369.1,685.714-352,685.714-352c-4.488,17.567-23.276,21.278-23.276,21.278l-1.062.393c20.073,10.545,32.457,30.289,23.812,60.658-11.821,41.431,2.266,53.253,2.266,53.253s-19.69-12.035-10.18-41.61c11.982-37.185,2.534-46.222,2.534-46.222s4.336,14.31-4.952,38.951c-16.273,42.877,16.737,55.055,16.737,55.055s-41.423-7.646-21.956-53.815c11.937-28.29,5.8-35.418,5.8-35.418" transform="translate(-285.14 410.974)" fill="#e7e8eb"/>
</svg>
