<svg xmlns="http://www.w3.org/2000/svg" width="194.765" height="231.298" viewBox="0 0 194.765 231.298">
  <path id="Path_7" data-name="Path 7" d="M373.537-396.558c-3.044,3.159-1.885,5.045-1.885,5.045,1.5,4.125,8.606,3.411,8.606,3.411.829-9.687,6.2-11.568,6.2-11.568-.509-2.39-3.557-.321-3.557-.321-.179-5.557,3.219-4.147,3.219-4.147,4.284,1.3,12.227,6.011,12.227,6.011-.06,5.314,2.856,5.959,2.856,5.959,3.356,1.159,4.442-.646,4.442-.646,1.3-2.732,4.16-.654,4.16-.654-1.436-2.313-6.481-4.711-6.481-4.711-1.419.449-1.928,2.967-1.928,2.967-1.3-1.094-.077-3.613-.077-3.613-1.159-.389-2.253-.667-2.253-.667-.838-5.681,6.917-4.207,14.8,1.565,5.156,3.758,12.808-.252,12.808-.252.846,5.16-6.254,3.758-6.254,3.758-7.28-1.167-7.52,2.505-7.52,2.505,15.766-1.355,16.741,5.369,16.741,5.369-3.574-2.586-5.314-.128-8.349,3.694-3.04,3.8-10.534.889-10.534.889,5.481,2.39,7.764,8.995,7.764,8.995-3.5,1.415-7.174-2.274-7.174-2.274a8.311,8.311,0,0,1-1.423,5.942,8.13,8.13,0,0,0-1.624,5.7c-.628-.983-1.937-2.086-1.757-4.655a7.924,7.924,0,0,0-1.278-4.711c-.393,4.181-6.844,8.849-6.844,8.849-1.56-3.689,1.672-7.178,1.672-7.178-4.651,2.073-7.1,1.8-7.1,1.8,3.352-2.959,1.411-8.071,1.411-8.071-.945.5-2,5.3-2,5.3h-.231a10.768,10.768,0,0,0-6,1.265,5.282,5.282,0,0,0,.932-1.941s-4.643-.137-7.212,2.27a5.154,5.154,0,0,0,.847-2.27s-5.917.6-7.259,2.009l-.393.286c3.514-4.856,5.211-13.06,5.211-13.06-2.7.718-10.132-.714-10-6.524a6.066,6.066,0,0,1,5.233-6.327m-5.365,39.544c1.2-3.45,6.635-5.34,10.9-5.1,0,0-4.138-1.53-2.958-6.635,0,0,3.078,9.593,13.62.475,0,0,1.783,3.074,5.912,1.65,0,0-.7,4.51,2.492,7a10.184,10.184,0,0,1,4.168-4.262c1.774-1.035,2.313-1.629,2.492-2.163.043,1.535.718,4.211,4.724,5.588,0,0,.355-5.087,2.475-6.387,2.137-1.321,1.667-2.967,1.423-4.143a9.186,9.186,0,0,0,7.7.457s0-5.194-2.727-8.764a12.545,12.545,0,0,0,6.165-3.189c2.616-2.612,3.437.346,3.437,2.958s-2.253,9.713,1.774,12.436c0,0-3.984-.889-4.985-4.711.329,1.389,1.389,6.443-.227,11-1.911,5.331-6.165,8.644-5.818,13.612.368,4.976-1.052,5.814-1.18,7.105a16.472,16.472,0,0,0-.936-6.742c-1.2-3.4-2.612-5.771-2.086-7.426a13.673,13.673,0,0,0,.192,9.781c2.232,5.7,1.415,13.522-.355,20.973,0,0-.483-2.133-4.155-6.408,0,0,2.373,7.251,1.539,12.333a10.105,10.105,0,0,0,.235,4.147s-4.741-10.418-8.392-15.168c-3.7-4.728-7.357-9.354-3.566-16.232,0,0-3.9,5.451-14.1,7.717-10.192,2.227-10.906,3.42-12.073,5.083,0,0,1.646-7.349,12.791-12.445,0,0-13.03,2.377-20.033,11.26a19.052,19.052,0,0,1,1.808-9.046,35.061,35.061,0,0,1-4.292,5.246s-5.669,6.182-18.477,5.335a15.473,15.473,0,0,0,10.914-5.335c4.493-5.323,4.006-5.78,7.216-6.738a24.6,24.6,0,0,1-8.986-1.188s9.927-3.185,14.783-7.93a15.794,15.794,0,0,1,2.664-2.783c-2.7,1.389-7.139,3.561-8.572,3.719a9.8,9.8,0,0,0,4.484-5.074m-23.243-40.7a3.714,3.714,0,0,1,2.779.855c-.769-1.855-1.261-4.348,1.129-5.587,0,0-1.261-5.16-4.16-4.356,0,0,1.783-2.9,7.524,2.723a4.6,4.6,0,0,0,2.249,5.545c-2.18-1.783-.5-5.164-.5-5.164,1.526-2.5,1.56-3.223,1.56-3.223s0-3.565-2.762-3.45a2.871,2.871,0,0,1,4.138.693,20.4,20.4,0,0,0,2.625,3.676s3.343,1.616,2.206,5.972c0,0,2.407-2.078,1.026-6.323,0,0,7.469,4.711-.808,17.818a21.994,21.994,0,0,1-.218,9.773s-2.646,6.665-.368,12.53c2.326,5.848-.321,7.806,2.078,10.341,0,0-1.03,6.665-12.757,10.461,0,0,0,3.1,6.562,3.9a9.483,9.483,0,0,1-6.216,4.613,5.943,5.943,0,0,1-7.366-6.336c.483-3.548,1.723-3.548,1.723-5.626,0-1.595-2.762-6.408-1.24-14.069-1.1-.658-3.129-1.09-6.34.881,0,0,.829-4.395,7.486-4.976a23.192,23.192,0,0,1,1.043-2.518c-2.009-2.381-5.348-7.614-1.984-13.325,0,0,.543,5.951,4.185,8.482,3.664-8.914,2.509-12.757,1.107-15.275,0,0-4.95,1.385-4.818-5.754,0,0-2.625-.227-3.788.8a4.185,4.185,0,0,1,3.907-3.074m20.926,136.323a20.11,20.11,0,0,1-3.98,2.749c-2.15,1.077-3.753,1.958-3.288,6.669.423,4.724,0,9.354-3.493,8.546,0,0-4.339-1.6-4.891,3.655a4.424,4.424,0,0,0,2.321,4.442s-8,2.847-7.917-4.271a2.04,2.04,0,0,0-1.522-2.4c-.282-.09-.842-.363-1.637-.692-2.386-.663-4.309,2.975-4.527,3.476-3.7,5.677-9,3.4-9,3.4,3.89-1.022,5.78-4.617,6.331-5.489.517-.881.338-3.51-1.992-1.415a4.845,4.845,0,0,1-5.1.778c2.625-.338,2.813-2.189,2.813-2.189a3.515,3.515,0,0,0-1.535-3.176c-2.45-1.359-6.733-.932-8.73.321,0,0-1.966,1.415-4.818-.787,0,0-2.864-2.762-1.33-5.164,0,0-3.018.274-3.753,5.784,0,0-5.079-11.132,8.55-9.935,0,0-3.659-2.74-9.324-.654,0,0-.731-1.163,1.223-3.916,0,0-4.352-.355-6.921,1.154a9.667,9.667,0,0,1,8.362-4.527s1.509-1.877,5.519-1.877c0,0,.244-3.031-4.638-3.377,0,0,4.083-3.3,8.909,1.419a10.464,10.464,0,0,1,3.01,5.147s0-4.527-1.941-7.289c0,0,4.8,1.253,5.763,5.079,0,0-3.719,2.659.62,7.994,0,0,6.763,6.237,14.946,1.428,0,0,4.467-2.753,5.331-11.034,0,0-4.07,2.052-9.5-1.231,0,0,5.861.526,7.926-4.014,2.043-4.536,1.154-1.962,1.7-4.536s-5.7-1.052-4.638-5.865c0,0,1.872,3.463,8.725.53,0,0,2.3-7.127,7.366-5.78,5.07,1.329,4.634.363,7.857-.269,0,0,10.7-3.266,22.726,8.127,0,0,2.958,3.467.423,10.234a13.8,13.8,0,0,1-4.711,5.408,9.331,9.331,0,0,0-3.689,6.652s-2.757.274-6.926-2.407c-4.207-2.663-6.242-6.216-10.611-.7m106.308-96.154a40.788,40.788,0,0,1-5.245,18.058c-6.665,11.816,2.569,22.927,2.569,22.927s-15.98-10.931-4.361-27.194c9.918-13.885.483-22.123.483-22.123s5.408,12.988-5.053,19.648c-5.459,3.471-11.611-1.389-11.611-1.389s3.181,4.331,7.935,4.164a10.841,10.841,0,0,0,8.546-4.356s-1.086,6.737-7.849,6.737c-11.376,0-9.82-10.32-9.82-10.32s6.1,6.558,11.8,1.885c5.964-4.873,7.357-17.352-5.959-17.352h-.316c-23.261,2.693-7.994,34.9-7.994,34.9,3.92,6.186,7.836,18.045,7.836,18.045,6.763-3.322,10.919,3.194,10.919,3.194-7.7-4.968-7.357,3.681-7.357,3.681.227,11.384,4.365,11.149,4.365,11.149,10.085-1.3,11.991,4.519,11.991,4.519-1.082-.842-1.411-1.68-6.4-.842s-6.528,2.129-2.851,16.369-4.609,26.33-4.609,26.33a19.68,19.68,0,0,1-9.8,6.3c-.026,0-.051.017-.077.017a25.529,25.529,0,0,1-3.074.714c-4.9.962-5,3.382-5,3.382a11.181,11.181,0,0,1-2.856,5.66c2.527-5.237-3.565-9.136-4.865-9.9-9.555-4.361-16.857-18.763-16.857-18.763.5,4.326,1.069,11.158-5.866,19.049-6.943,7.909-.966,17.861,4.1,20.965,5.019,3.108.821,7.071.821,7.071-6.357,9.948,6.477,10.3,6.477,10.3-3.6,4.788-7.537,2.407-8.747,1.693-2.223-1.338-3.976-7.323-4.544,2.262-.62,9.563-2.527,11.26-2.527,11.26a13.039,13.039,0,0,0-.846-5.622c-.834-4.557-3.484-.714-3.826,2.629a4.342,4.342,0,0,1-3.125,3.959c2.527-8.272-3.459-3.724-6.943,2.518s-7.426,5.382-8.272,3.582a2.969,2.969,0,0,0-2.266-1.9c-1.924.107-2.39,4.668-2.39,4.668-4.061-5.63,3.467-12.222,3.467-12.222-2.518,0-3.121,1.312-5.75,5.263s-2.881-3.95-2.881-3.95c-2.022,1.188-3.839,4.925-3.839,4.925-3.7-8.636,8.512-10.547,8.512-10.547-5.391-.718-4.916-1.924-4.916-1.924-2.018-.718-4.271,1.766-4.271,1.766.71-7.708,12.808-3.2,12.808-3.2-1.189-1.9-5.571-3.215-5.571-3.215,3.553-1.65,6.994,1.073,6.994,1.073,6.648,3.685,9.721-2.851,13.749-9.491s-.816-10.679-.816-10.679c-1.967-1.706-3.514-3.176-4.771-4.408-1.432-1.4-2.492-.239-2.492-.239-.864.962-.034,3.027-.034,3.027,2.355,7.994-2.736,8.978-2.736,8.978,2.433-2.822.551-5.066.551-5.066a7.015,7.015,0,0,1-.782-7.353c1.359-3.125,1.06-4.262,1.06-4.288-.6-2.561-5.382-.889-5.382-.889-6.425,1.847-10.162-4.369-10.162-4.369s13.056,7.02,12.034-5.365C379.992-256.469,392.4-264.8,392.4-264.8c4.848-4.053,3.057-11.4,3.057-11.4-2.71-17.913-20.409-32.627-20.409-32.627a3.135,3.135,0,0,0-4.523.684c-.051.162-1.77,1.868-1.261,6.2-7.55-10.41,7.7-12.107,7.7-12.107,3-.71,5.357-1.535,6.746-2.685.227-.222,1.3-1.334,2.1-2.146a7.4,7.4,0,0,1-2.774,1.552,28.249,28.249,0,0,1-6.545.44c-6.763,0-11.282-.346-12.1,3.8a3.978,3.978,0,0,1-4.638,3.446c-2.685-.714-5.151-1.274-7.468-1.672v.009c-8.781-1.06-8.644,4.044-8.644,4.044-.851,3.069,5.207,5.917,5.207,5.917-6.276.6-9.482-3.664-8.661-7.823.419-2.095-.624-2.766-1.791-2.924-9.469.9-12.675,4.942-12.675,4.942-3.326,3.8-9.495,2.262-9.495,2.262,6.169-1.915,4.4-4.518,4.4-4.518-3.086-2.612-12.7-2.381-15.783.355s-4.168,2.715-4.168,2.715c-5.045.406-5.742-3.1-5.742-3.1-2.065,0-3.664,5.113-3.664,5.113-3.86-9.2,7.131-13.248,7.131-13.248a7.177,7.177,0,0,0-6.562,2.338c-3.882-1.8.128-5.6.128-5.6-2.552-.543-6.763,4.916-6.763,4.916-1.231-13.646,17.5-5.959,17.5-5.959a16.812,16.812,0,0,0-10.666-4.061c2.347-2.779-2.967-2.561-2.967-2.561,5.746-4.489,14.24,2.36,14.24,2.36s-1.736-5.468-7.537-5.882c6.079-2.283,8.131,1.381,8.131,1.381,6.028,8.495,7.687,6.968,15.565,7.178s17.681-4.348,21.046-5.036c3.407-.7,4.228.342,11,0s12.928-5.4,12.928-5.4c-2.086,7.062-.389,8.358-.389,8.358,1.778-5.451,7.575-8.653,7.575-8.653-2.719,5.113-.107,7.477-.107,7.477,4.489-6.173,8.991-6.528,14.83-7.721a28.527,28.527,0,0,0,9.615-3.783c-1.56,5.451,4.976,11.632,4.976,11.632,4.378,5.331-1.077,12.214-1.077,12.214,2.586-.372,5.455-2.736,5.455-2.736,6.524,4.523,11.846,29.664,11.846,29.664A90.719,90.719,0,0,0,428.1-261.129c16.113,23,25.962,5.566,25.962,5.566,4.142-5.109-2.253-22.286-2.253-22.286-2.385-6.186-13.287-1.073-13.287-1.073,2.612-7.114,12.462-5.472,12.462-5.472-1.2-11.611-11.047-12.919-11.047-12.919-12.808-4.279-14.586-11.179-14.586-11.179,7.5,6.767,19.571,5.72,19.571,5.72l-.466-1.372a14.79,14.79,0,0,0-7.546-5.134,13.357,13.357,0,0,1-7.964-6.37s8.328,4.493,10.94,2.851a19.553,19.553,0,0,0-4.322-4.254c-4.348-3.027-5.066-5.622-5.374-10.1,0,0,4.6,8.507,7.892,6.609,0,0,.415-.043.085-1.3a126.085,126.085,0,0,1-4.51-17.707c-3.078-26.33,11.154-32.512,17.694-33.922,6.507-1.428,10.2-3.548,12.188-4.976,2.014-1.428,4.745-6.413-5.335-10.209s-10.187-10.551-10.187-10.551c-.231-9.371,9.495-10.786,9.495-10.786-6.16,6.511-1.176,9.123,10.422,14.1,11.633,4.985,9.149,13.18,9.149,13.18-2.15,8.418-11.154,10.2-11.154,10.2l-.509.188c9.619,5.053,15.552,14.514,11.41,29.066-5.664,19.853,1.086,25.518,1.086,25.518s-9.435-5.767-4.878-19.939c5.741-17.818,1.214-22.149,1.214-22.149s2.078,6.857-2.373,18.665c-7.8,20.546,8.02,26.381,8.02,26.381s-19.849-3.664-10.521-25.787c5.72-13.556,2.779-16.972,2.779-16.972" transform="translate(-285.14 410.974)" fill="#e7e8eb"/>
</svg>
