<svg xmlns="http://www.w3.org/2000/svg" width="21.724" height="21.763" viewBox="0 0 21.724 21.763">
  <path id="Icon_feather-phone-call" data-name="Icon feather-phone-call" d="M15.971,5.458a4.948,4.948,0,0,1,3.909,3.909M15.971,1.5a8.906,8.906,0,0,1,7.867,7.857m-.99,7.9v2.969A1.979,1.979,0,0,1,20.691,22.2a19.583,19.583,0,0,1-8.54-3.038,19.3,19.3,0,0,1-5.937-5.937A19.583,19.583,0,0,1,3.176,4.647,1.979,1.979,0,0,1,5.145,2.49H8.114a1.979,1.979,0,0,1,1.979,1.7,12.706,12.706,0,0,0,.693,2.781A1.979,1.979,0,0,1,10.34,9.06L9.083,10.317a15.833,15.833,0,0,0,5.937,5.937L16.278,15a1.979,1.979,0,0,1,2.088-.445,12.706,12.706,0,0,0,2.781.693A1.979,1.979,0,0,1,22.848,17.254Z" transform="translate(-2.667 -0.948)" fill="rgba(0,0,0,0)" stroke="#2B3754" stroke-linecap="round" stroke-linejoin="round" stroke-width="1"/>
</svg>