<svg xmlns="http://www.w3.org/2000/svg" width="8.558" height="9.398" viewBox="0 0 8.558 9.398">
  <g id="Icon_feather-share-2" data-name="Icon feather-share-2" transform="translate(-4 -2.5)">
    <path id="Path_3111" data-name="Path 3111" d="M25.019,4.26A1.26,1.26,0,1,1,23.76,3,1.26,1.26,0,0,1,25.019,4.26Z" transform="translate(-12.961)" fill="none" stroke="#a69867" stroke-width="1"/>
    <path id="Path_3112" data-name="Path 3112" d="M7.019,14.76A1.26,1.26,0,1,1,5.76,13.5,1.26,1.26,0,0,1,7.019,14.76Z" transform="translate(0 -7.561)" fill="none" stroke="#a69867" stroke-width="1"/>
    <path id="Path_3113" data-name="Path 3113" d="M25.019,25.26A1.26,1.26,0,1,1,23.76,24,1.26,1.26,0,0,1,25.019,25.26Z" transform="translate(-12.961 -15.121)" fill="none" stroke="#a69867" stroke-width="1"/>
    <path id="Path_3114" data-name="Path 3114" d="M12.885,20.265l2.868,1.671" transform="translate(-6.038 -12.432)" fill="none" stroke="#a69867" stroke-width="1"/>
    <path id="Path_3115" data-name="Path 3115" d="M15.749,9.765l-2.864,1.671" transform="translate(-6.038 -4.871)" fill="none" stroke="#a69867" stroke-width="1"/>
  </g>
</svg>
