<?xml version="1.0" standalone="no"?>
<!DOCTYPE svg PUBLIC "-//W3C//DTD SVG 1.1//EN" "http://www.w3.org/Graphics/SVG/1.1/DTD/svg11.dtd" >
<svg xmlns="http://www.w3.org/2000/svg" xmlns:xlink="http://www.w3.org/1999/xlink" version="1.1">
<metadata>
Created by FontForge 20201107 at Fri Feb  7 01:08:58 2020
 By 
Pavel Larin
</metadata>
<defs>
<font id="Mansory-Bold" horiz-adv-x="610" >
  <font-face 
    font-family="Mansory Bold"
    font-weight="700"
    font-stretch="normal"
    units-per-em="1000"
    panose-1="0 0 8 0 0 0 0 0 0 0"
    ascent="800"
    descent="-200"
    x-height="459"
    cap-height="710"
    bbox="-696 -452 1283 1000"
    underline-thickness="50"
    underline-position="-100"
    unicode-range="U+0020-E09A"
  />
<missing-glyph horiz-adv-x="650" 
d="M533 -300h-412v1300h412v-1300zM218 913v-43h85v-48h-86v-43h216v43h-86v48h86v43h-215zM217 745v-135h216v44h-86v91h-130zM303 654h-43v47h43v-47zM217 575v-43h86v-48h-86v-43h130v91h86v43h-216zM390 497v-86h-173v-44h216v130h-43zM303 338v-72h44v29h43v-61h-130
v104h-43v-147h216v147h-130zM217 113v-147h216v147h-216zM390 9h-130v62h130v-62zM217 -63v-43h91l-91 -61v-43h216v43h-133l91 61h42v43h-216z" />
    <glyph glyph-name="f_f" unicode="ff" horiz-adv-x="586" 
d="M35 413h-51v47h51v32q0 110 62.5 172t176.5 62q43 0 86.5 -13t66.5 -30q24 20 60.5 31.5t75.5 11.5q51 0 98.5 -23t61.5 -53l-118 -49q-12 42 -22 57.5t-25 15.5q-31 0 -53.5 -38.5t-22.5 -91.5q0 -21 4.5 -45.5t11.5 -38.5h109v-47h-105v-422h-154v422h-159v-422h-154
v422zM348 460v32q0 54 15 98q-15 41 -40.5 62.5t-54.5 21.5q-44 0 -71.5 -37t-27.5 -93q0 -21 4.5 -45.5t11.5 -38.5h163z" />
    <glyph glyph-name="f_f_i" unicode="ffi" horiz-adv-x="835" 
d="M637 413h-145v-422h-154v422h-149v-422h-154v422h-51v47h51v32q0 109 61 171.5t168 62.5q44 0 88 -13.5t67 -30.5q27 19 71 31.5t95 12.5q72 0 135 -31.5t77 -81.5q5 -14 5 -20q0 -25 -27 -44t-62 -19t-61.5 18t-27.5 43q-2 36 -17.5 59.5t-37.5 23.5q-44 0 -70.5 -36
t-26.5 -94q0 -21 4.5 -45t10.5 -39h304v-470h-154v423zM338 460v32q0 46 16 97q-15 36 -40 60.5t-55 24.5q-38 0 -64 -37t-26 -93q0 -21 4.5 -45t10.5 -39h154z" />
    <glyph glyph-name="f_i" unicode="fi" horiz-adv-x="542" 
d="M344 413h-155v-422h-154v422h-51v47h51v32q0 106 61 168t173 66q46 1 96.5 -14t88.5 -40.5t48 -53.5q7 -17 7 -25q0 -25 -27 -44t-62 -19q-34 0 -60.5 18t-28.5 41q-1 36 -21 60.5t-46 24.5q-44 0 -69.5 -36t-25.5 -94q0 -21 4.5 -45.5t11.5 -38.5h313v-470h-154v423z
" />
    <glyph glyph-name="f_l" unicode="fl" horiz-adv-x="538" 
d="M330 584q0 21 -9.5 40.5t-23.5 31t-27 11.5q-43 0 -70.5 -41.5t-27.5 -96.5q0 -37 13 -69h109v-47h-105v-422h-154v422h-51v47h51v24q0 109 67 172.5t186 63.5q56 0 116 -19t80 -44v-667h-154v594z" />
    <glyph glyph-name=".notdef" horiz-adv-x="650" 
d="M533 -300h-412v1300h412v-1300zM218 913v-43h85v-48h-86v-43h216v43h-86v48h86v43h-215zM217 745v-135h216v44h-86v91h-130zM303 654h-43v47h43v-47zM217 575v-43h86v-48h-86v-43h130v91h86v43h-216zM390 497v-86h-173v-44h216v130h-43zM303 338v-72h44v29h43v-61h-130
v104h-43v-147h216v147h-130zM217 113v-147h216v147h-216zM390 9h-130v62h130v-62zM217 -63v-43h91l-91 -61v-43h216v43h-133l91 61h42v43h-216z" />
    <glyph glyph-name=".null" horiz-adv-x="0" 
 />
    <glyph glyph-name="nonmarkingreturn" horiz-adv-x="333" 
 />
    <glyph glyph-name="space" unicode=" " horiz-adv-x="300" 
 />
    <glyph glyph-name="exclam" unicode="!" horiz-adv-x="263" 
d="M76 728h151l-22 -587h-108zM102 -14q-21 19 -21 47q0 27 21 46t50 19t50 -19t21 -46q0 -28 -20.5 -47t-50.5 -19q-29 0 -50 19z" />
    <glyph glyph-name="quotedbl" unicode="&#x22;" horiz-adv-x="336" 
d="M75 728h98l-15 -245h-68zM203 728h98l-15 -245h-68z" />
    <glyph glyph-name="numbersign" unicode="#" horiz-adv-x="845" 
d="M245 160h-183l24 57h178l51 154h-195l27 57h187l78 232h71l-78 -232l150 -1l78 233h71l-78 -233h198l-27 -56h-189l-52 -155h207l-25 -57h-201l-73 -219h-71l74 219l-151 1l-74 -220h-71zM537 371h-151l-52 -154l151 -1z" />
    <glyph glyph-name="dollar" unicode="$" horiz-adv-x="702" 
d="M316 -19q-90 9 -157.5 47t-87.5 90l99 35q18 -55 53.5 -85.5t92.5 -38.5v283q-73 21 -125 44.5t-86.5 63.5t-34.5 99q0 49 31 90.5t87 69.5t128 38v73h105v-71q90 -7 159.5 -45.5t90.5 -91.5l-99 -35q-17 56 -54 86.5t-97 38.5v-279q75 -22 127.5 -46t88 -65t35.5 -101
q0 -49 -32 -91t-89 -70.5t-130 -37.5v-89h-105v88zM316 666q-46 -14 -72 -46t-26 -76q0 -49 23.5 -74.5t74.5 -43.5v240zM496.5 78.5q27.5 32.5 27.5 78.5q0 50 -25.5 77t-77.5 45v-246q48 13 75.5 45.5z" />
    <glyph glyph-name="percent" unicode="%" horiz-adv-x="751" 
d="M591 669q-48 -11 -102 -11q-52 0 -102 9q33 -42 33 -97q0 -46 -23.5 -85t-64 -61.5t-89.5 -22.5t-90 23t-65 61.5t-24 84.5t24 84.5t65 61t90 22.5h2q21 0 43 -5t35 -12q99 -24 160 -24q77 0 154 31h84l-535 -756h-88zM264.5 459.5q10.5 18.5 17 48.5t6.5 62
q0 38 -13.5 84t-30.5 46q-10 0 -20.5 -18.5t-17 -49t-6.5 -62.5t6.5 -62t17 -48.5t20.5 -18.5t20.5 18.5zM459.5 -14.5q-40.5 22.5 -64.5 61.5t-24 85t24 84.5t65 61t89 22.5t89 -22.5t65 -61.5t24 -84q0 -47 -23.5 -85.5t-64.5 -61t-90 -22.5t-89.5 22.5zM570.5 20.5
q10.5 18.5 17 49t6.5 62.5t-6.5 62t-17 48.5t-20.5 18.5q-9 0 -19.5 -18.5t-17.5 -48.5t-7 -62t7 -62t17.5 -49t19.5 -19q10 0 20.5 18.5z" />
    <glyph glyph-name="ampersand" unicode="&#x26;" horiz-adv-x="791" 
d="M541 16q-39 -22 -90 -34.5t-102 -12.5q-80 0 -143.5 27t-99.5 74.5t-36 107.5q0 61 36.5 116.5t105.5 98.5q-47 111 -47 199q0 59 31 101t80 63t103 21q48 0 90 -16.5t67.5 -49.5t25.5 -79q0 -58 -49 -115.5t-145 -111.5q36 -84 85.5 -162.5t100.5 -131.5q18 25 28 62
t10 78q0 29 -9.5 57.5t-25.5 49.5l87 64q23 -26 36 -68.5t13 -89.5q0 -118 -87 -202q70 -56 119 -56q19 0 36 7v-43q-24 -2 -36 -2q-93 0 -184 48zM421.5 539.5q26.5 41.5 26.5 86.5q0 47 -19 74t-45 27q-27 0 -47 -30.5t-20 -86.5q0 -65 29 -144q49 32 75.5 73.5zM487 50
q-72 50 -134.5 121.5t-108.5 155.5q-23 -29 -36.5 -65.5t-13.5 -72.5q0 -76 45.5 -122t120.5 -46q73 0 127 29z" />
    <glyph glyph-name="quotesingle" unicode="'" horiz-adv-x="214" 
d="M78 728h98l-15 -245h-68z" />
    <glyph glyph-name="parenleft" unicode="(" horiz-adv-x="355" 
d="M73 292q0 214 172 439h76q-116 -217 -116 -439q0 -223 116 -440h-76q-172 225 -172 440z" />
    <glyph glyph-name="parenright" unicode=")" horiz-adv-x="355" 
d="M190 292q0 225 -116 439h76q172 -223 172 -439q0 -217 -172 -440h-76q116 214 116 440z" />
    <glyph glyph-name="asterisk" unicode="*" horiz-adv-x="458" 
d="M218 572l-98 -90l-48 74l123 61l-123 60l48 74l98 -90l-18 126h98l-18 -126l98 90l48 -74l-123 -60l123 -61l-48 -74l-98 90l18 -126h-98z" />
    <glyph glyph-name="plus" unicode="+" horiz-adv-x="627" 
d="M298 300h-231v60h231v219h71v-219h231v-60h-231v-242h-71v242z" />
    <glyph glyph-name="comma" unicode="," horiz-adv-x="257" 
d="M122 -76q12 20 12 40q0 7 -3.5 12t-13.5 13q-23 17 -31.5 30.5t-8.5 33.5q0 28 20.5 47t50.5 19q22 0 40 -11.5t26 -31.5q6 -16 6 -35q0 -32 -16.5 -69t-44.5 -68z" />
    <glyph glyph-name="hyphen" unicode="-" horiz-adv-x="516" 
d="M70 263h416v-59h-416v59z" />
    <glyph glyph-name="period" unicode="." horiz-adv-x="256" 
d="M98 1q-21 19 -21 47q0 27 21 46t50 19t50 -19t21 -46q0 -28 -21 -47t-50 -19t-50 19z" />
    <glyph glyph-name="slash" unicode="/" horiz-adv-x="573" 
d="M456 741h88l-387 -889h-88z" />
    <glyph glyph-name="zero" unicode="0" horiz-adv-x="686" 
d="M201 27q-67 47 -104 131t-37 191t37.5 192t104.5 132.5t151 47.5t151 -47.5t104.5 -132.5t37.5 -192t-37 -191t-104 -131t-152 -47t-152 47zM421.5 63q30.5 42 48 116.5t17.5 169.5t-17.5 170.5t-48 118.5t-68.5 43t-68.5 -43t-48 -118.5t-17.5 -170.5t17.5 -169.5
t48 -116.5t68.5 -42t68.5 42z" />
    <glyph glyph-name="one" unicode="1" horiz-adv-x="334" 
d="M90 571l154 149v-730h-154v581z" />
    <glyph glyph-name="two" unicode="2" horiz-adv-x="602" 
d="M111 41q74 71 135.5 139.5t110.5 156.5t49 172q0 73 -28 117t-75 44q-55 0 -87.5 -43t-39.5 -125l-102 30q11 43 43 86t87 72.5t131 29.5q65 0 116.5 -26t80.5 -72t29 -105q0 -70 -42 -141t-101.5 -133t-156.5 -151h301v-102h-501q1 2 50 51z" />
    <glyph glyph-name="three" unicode="3" horiz-adv-x="628" 
d="M160.5 7.5q-68.5 32.5 -98.5 86.5l91 62q31 -136 131 -136q67 0 107 50t40 133q0 75 -27.5 117.5t-76.5 42.5q-14 0 -51 -5q-21 -3 -26 -3l-3 46q10 -3 21 -3q43 0 72.5 41t29.5 102q0 23 -4 47.5t-10 36.5q-14 29 -29.5 41t-40.5 12q-51 0 -78 -41.5t-24 -115.5l-110 26
q19 80 81 127t150 47q62 0 111.5 -21.5t77.5 -59.5t28 -86q0 -92 -100 -149q76 -17 121 -68.5t45 -119.5t-35 -121.5t-98.5 -84.5t-147.5 -34q-78 -2 -146.5 30.5z" />
    <glyph glyph-name="four" unicode="4" horiz-adv-x="604" 
d="M360 190h-298l38 60l290 470h124v-730h-154v200zM360 233v279l-176 -279h176z" />
    <glyph glyph-name="five" unicode="5" horiz-adv-x="615" 
d="M145 14.5q-64 33.5 -84 82.5l96 59q10 -65 41 -100.5t78 -35.5q32 0 58 16t50 50q14 20 23.5 56.5t9.5 71.5q0 57 -19 102t-52.5 70t-76.5 25q-40 0 -83.5 -21.5t-105.5 -71.5v392h480v-102h-379v-168q58 21 118 21q75 0 138.5 -30t100.5 -82.5t37 -114.5q0 -95 -77 -175
q-33 -34 -92.5 -56t-119.5 -22q-77 0 -141 33.5z" />
    <glyph glyph-name="six" unicode="6" horiz-adv-x="631" 
d="M182.5 27q-62.5 47 -92.5 119.5t-30 147.5q0 125 60.5 222.5t147.5 151.5t159 54q19 0 28 -2v-37q-14 6 -27 6q-34 0 -70.5 -31.5t-67 -88t-49.5 -126.5q53 24 111 24q67 0 121.5 -29.5t86 -81t31.5 -115.5q0 -57 -29.5 -118t-87 -102t-137.5 -41q-92 0 -154.5 47z
M386.5 50q23.5 30 38 80.5t14.5 108.5q0 51 -13.5 94.5t-35.5 69t-48 25.5q-30 0 -61 -27t-59 -78q-1 -8 -1 -29q0 -72 16 -135.5t43 -101t57 -37.5q26 0 49.5 30z" />
    <glyph glyph-name="seven" unicode="7" horiz-adv-x="584" 
d="M221.5 262.5q63.5 145.5 171.5 345.5h-333v102h483q-100 -179 -162.5 -365.5t-66.5 -354.5h-173q17 127 80.5 272.5z" />
    <glyph glyph-name="eight" unicode="8" horiz-adv-x="617" 
d="M186.5 1q-56.5 19 -91.5 56.5t-35 89.5q0 57 40.5 114t117.5 110q-63 53 -91.5 94t-28.5 80q0 55 33 95t86 60t112 20q54 0 101 -17t75.5 -51t28.5 -82q0 -46 -34.5 -92.5t-100.5 -89.5q87 -65 132.5 -116t45.5 -105q0 -59 -38.5 -101t-100 -63t-130.5 -21
q-65 0 -121.5 19zM414.5 490.5q21.5 34.5 21.5 77.5q0 53 -31 82.5t-73 29.5q-41 0 -70.5 -28.5t-29.5 -79.5q0 -42 28.5 -73.5t86.5 -74.5q46 32 67.5 66.5zM402.5 56q39.5 29 39.5 82q0 42 -33 77.5t-97 82.5l-25 19l-19 15q-50 -36 -77.5 -84t-27.5 -99q0 -57 43.5 -89.5
t101.5 -32.5q55 0 94.5 29z" />
    <glyph glyph-name="nine" unicode="9" horiz-adv-x="631" 
d="M196 -18v37q14 -6 27 -6q34 0 70.5 31.5t67 88t49.5 126.5q-53 -24 -111 -24q-67 0 -121.5 29.5t-86 81t-31.5 115.5q0 57 29.5 118t87 102t137.5 41q92 0 154.5 -47t92.5 -119.5t30 -147.5q0 -125 -60.5 -222.5t-147.5 -151.5t-159 -54q-19 0 -28 2zM370 301
q31 27 59 78q1 8 1 29q0 72 -16 135.5t-43 101t-57 37.5q-26 0 -49.5 -30t-38 -80.5t-14.5 -108.5q0 -51 13.5 -94.5t35.5 -69t48 -25.5q30 0 61 27z" />
    <glyph glyph-name="colon" unicode=":" horiz-adv-x="255" 
d="M97.5 385.5q-20.5 19.5 -20.5 47.5t20.5 46.5t50.5 18.5t50 -18.5t20 -46.5t-20.5 -47.5t-49.5 -19.5q-30 0 -50.5 19.5zM97.5 -29q-20.5 19 -20.5 48q0 27 21 46t50 19t49.5 -19t20.5 -46q0 -29 -20 -48t-50 -19t-50.5 19z" />
    <glyph glyph-name="semicolon" unicode=";" horiz-adv-x="258" 
d="M97.5 391q-20.5 19 -20.5 47t20.5 46.5t50.5 18.5q29 0 49.5 -18.5t20.5 -46.5t-20.5 -47t-49.5 -19q-30 0 -50.5 19zM123 -107q12 23 12 42q0 7 -3.5 12t-13.5 12q-22 17 -31 31t-9 33q0 28 20.5 47t50.5 19q22 0 40.5 -11.5t25.5 -30.5t7 -36q0 -31 -16.5 -67
t-45.5 -68z" />
    <glyph glyph-name="less" unicode="&#x3c;" horiz-adv-x="641" 
d="M146 305l-79 42l79 42l468 234v-73l-407 -203l407 -203v-73z" />
    <glyph glyph-name="equal" unicode="=" horiz-adv-x="629" 
d="M67 445h532v-60h-532v60zM70 269h532v-60h-532v60z" />
    <glyph glyph-name="greater" unicode="&#x3e;" horiz-adv-x="641" 
d="M67 144l407 203l-407 203v73l468 -234l79 -42l-79 -42l-468 -234v73z" />
    <glyph glyph-name="question" unicode="?" horiz-adv-x="520" 
d="M221.5 235q18.5 55 55.5 133q36 78 53.5 130.5t17.5 108.5q0 60 -23 92t-65 32q-40 0 -67 -37t-27 -92q0 -18 5 -45h-101q-2 64 24.5 114.5t76.5 79t114 28.5q57 0 104 -23t74 -63t27 -88q0 -54 -27.5 -107t-82.5 -132q-35 -52 -55 -85t-33 -71.5t-11 -79.5h-75
q-3 50 15.5 105zM195.5 -24.5q-20.5 19.5 -20.5 47.5t20 49t47 21q29 0 50 -20t21 -48q0 -29 -20 -49t-49 -20q-28 0 -48.5 19.5z" />
    <glyph glyph-name="at" unicode="@" horiz-adv-x="936" 
d="M276 -122q-102 58 -154 150t-52 192q0 103 51.5 199t151.5 156.5t238 60.5q115 0 204.5 -45t140 -125t50.5 -183q0 -74 -30.5 -140.5t-86.5 -115.5q-24 -20 -60.5 -33t-71.5 -13q-38 0 -72.5 15t-53.5 38q-22 -21 -52.5 -33t-60.5 -12q-64 0 -101 47.5t-37 129.5
q0 64 28 130t82.5 110t129.5 44q28 0 55 -10l2 9h140l-11 -41l-23 -87q-15 -60 -29 -113.5t-20 -78.5q-7 -25 -7 -48q0 -25 10 -38.5t28 -13.5q27 0 65 31q31 28 55 94t24 125q0 93 -37 163.5t-103.5 109t-154.5 38.5q-107 0 -184.5 -51t-117.5 -136t-40 -183
q0 -101 44 -181.5t121.5 -126t175.5 -45.5q83 0 137 19.5t98 65.5h101q-40 -58 -133.5 -95t-197.5 -37q-140 0 -242 58zM481.5 81q15.5 42 36.5 130l13 53l24 96q4 12 4 24q0 27 -31 27q-28 1 -56 -40.5t-45.5 -109t-17.5 -137.5q0 -85 33 -85q24 0 39.5 42z" />
    <glyph glyph-name="A" unicode="A" horiz-adv-x="750" 
d="M308 710h129l293 -720h-161l-93 228h-287l-92 -228h-78zM453 275l-122 298l-120 -298h242z" />
    <glyph glyph-name="B" unicode="B" horiz-adv-x="753" 
d="M52 710h303q147 0 230.5 -47.5t83.5 -132.5q0 -47 -37 -89t-102 -69q181 -46 181 -181q0 -62 -40 -107t-114.5 -69.5t-176.5 -24.5h-328v720zM350 383q82 0 119 36t37 115q0 68 -36.5 100t-114.5 32h-145v-283h140zM382 34q81 0 123.5 39.5t42.5 113.5q0 152 -159 152
h-179v-305h172z" />
    <glyph glyph-name="C" unicode="C" horiz-adv-x="811" 
d="M252.5 27.5q-94.5 47.5 -147.5 131.5t-53 190t53.5 190t148 131.5t213.5 47.5q66 0 130 -19.5t110.5 -52t61.5 -69.5l-101 -35q-51 135 -191 135q-71 0 -130.5 -43.5t-94.5 -118.5t-35 -164q0 -91 34.5 -166.5t94 -119.5t130.5 -44q140 0 191 135l101 -35
q-15 -37 -61.5 -69.5t-110.5 -52t-130 -19.5q-119 0 -213.5 47.5z" />
    <glyph glyph-name="D" unicode="D" horiz-adv-x="798" 
d="M52 710h276q131 0 228 -41.5t148.5 -119t51.5 -182.5q0 -118 -50.5 -203t-146.5 -129.5t-230 -44.5h-277v720zM329 34q131 0 197.5 83.5t66.5 246.5q0 150 -67 226.5t-198 76.5h-118v-633h119z" />
    <glyph glyph-name="E" unicode="E" horiz-adv-x="665" 
d="M52 710h561v-57h-403v-263h310v-57h-310v-286h403v-57h-561v720z" />
    <glyph glyph-name="F" unicode="F" horiz-adv-x="625" 
d="M52 710h551v-57h-393v-263h310v-57h-310v-343h-158v720z" />
    <glyph glyph-name="G" unicode="G" horiz-adv-x="842" 
d="M252.5 27.5q-94.5 47.5 -147.5 131.5t-53 190t53.5 190t148 131.5t213.5 47.5q66 0 130 -19.5t110.5 -52t61.5 -69.5l-101 -35q-51 135 -191 135q-71 0 -131.5 -43.5t-95.5 -118.5t-35 -164q0 -91 34.5 -166t94.5 -119t132 -44q49 0 89 15.5t67 44.5v218h158v-80
q0 -68 -42 -123t-116 -86t-166 -31q-119 0 -213.5 47.5z" />
    <glyph glyph-name="H" unicode="H" horiz-adv-x="743" 
d="M52 710h158v-320h323v320h158v-720h-158v343h-323v-343h-158v720z" />
    <glyph glyph-name="I" unicode="I" horiz-adv-x="282" 
d="M62 710h158v-720h-158v720z" />
    <glyph glyph-name="J" unicode="J" horiz-adv-x="313" 
d="M38 -27l-23 2v26h27q27 -1 39.5 13.5t17 55.5t4.5 131v509h158v-563q0 -65 -18 -102.5t-58 -55t-109 -17.5q-25 0 -38 1z" />
    <glyph glyph-name="K" unicode="K" horiz-adv-x="705" 
d="M52 710h158v-296l359 296h103l-413 -340l421 -380h-191l-279 251v-251h-158v720z" />
    <glyph glyph-name="L" unicode="L" horiz-adv-x="625" 
d="M52 710h158v-663h383v-57h-541v720z" />
    <glyph glyph-name="M" unicode="M" horiz-adv-x="970" 
d="M52 710h152l295 -557l266 557h153v-720h-158v540l-258 -540h-80l-293 551v-551h-77v720z" />
    <glyph glyph-name="N" unicode="N" horiz-adv-x="743" 
d="M52 710h146l416 -519v519h77v-720h-90l-472 586v-586h-77v720z" />
    <glyph glyph-name="O" unicode="O" horiz-adv-x="952" 
d="M258.5 28q-96.5 48 -151.5 132t-55 189t55 189.5t152 133t217 48.5t217 -48t152 -133t55 -190t-55 -189t-152 -132t-218 -48q-120 0 -216.5 48zM611 68q59 41 92.5 114.5t33.5 166.5q0 92 -34 166t-93.5 116t-133.5 42t-133.5 -42t-93.5 -116t-34 -166q0 -93 33.5 -166.5
t93 -114.5t134.5 -41q76 0 135 41z" />
    <glyph glyph-name="P" unicode="P" horiz-adv-x="729" 
d="M52 710h331q96 0 167 -25.5t109 -73t38 -111.5t-38 -111.5t-109 -73t-167 -25.5h-173v-300h-158v720zM383 334q80 0 115.5 39t35.5 127t-35.5 127t-115.5 39h-173v-332h173z" />
    <glyph glyph-name="Q" unicode="Q" horiz-adv-x="1008" 
d="M468 -78q-48 29 -72.5 42t-39.5 14q-21 2 -34 -3.5t-26.5 -22t-35.5 -52.5l-66 26q6 26 38.5 52t76.5 41q-110 47 -169.5 133t-59.5 197q0 105 55 189.5t152 133t217 48.5t217 -48t152 -133t55 -190q0 -99 -49 -180t-136.5 -130t-197.5 -57q17 -8 34 -18q55 -31 87 -44.5
t56 -13.5q26 0 50 16t61 55l58 -20q-87 -111 -203 -111q-96 0 -220 76zM639 68q59 41 92.5 114.5t33.5 166.5q0 92 -34 166t-93.5 116t-133.5 42t-133.5 -42t-93.5 -116t-34 -166q0 -93 33.5 -166.5t93 -114.5t134.5 -41q76 0 135 41z" />
    <glyph glyph-name="R" unicode="R" horiz-adv-x="749" 
d="M62 710h321q141 0 222.5 -56t81.5 -154q0 -79 -54 -131.5t-153 -70.5l195 -308h-151l-190 300h-134v-300h-138v720zM383 334q84 0 122.5 39.5t38.5 126.5t-38.5 126.5t-122.5 39.5h-183v-332h183z" />
    <glyph glyph-name="S" unicode="S" horiz-adv-x="710" 
d="M217 -3q-62 18 -105.5 50t-59.5 71l104 36q21 -66 67 -97t125 -31q69 0 110.5 36t41.5 95q0 42 -18.5 66t-50 37t-96.5 32q-82 23 -141 49t-100.5 70t-41.5 108q0 56 41.5 102t113 73t157.5 27q67 0 127.5 -18t104 -50t59.5 -71l-104 -36q-21 67 -66 97.5t-123 30.5
q-70 0 -111 -35.5t-41 -94.5q0 -42 18.5 -65.5t49.5 -35.5t97 -31q83 -24 142.5 -50.5t100 -71t40.5 -109.5q0 -56 -41.5 -102t-113 -73t-157.5 -27q-67 0 -129 18z" />
    <glyph glyph-name="T" unicode="T" horiz-adv-x="734" 
d="M288 653h-243v57h644v-57h-243v-663h-158v663z" />
    <glyph glyph-name="U" unicode="U" horiz-adv-x="714" 
d="M132.5 55q-80.5 75 -80.5 220v435h158v-446q0 -113 44.5 -170.5t131.5 -57.5q99 0 147.5 58t48.5 178v438h80v-437q0 -145 -73.5 -219t-219.5 -74q-156 0 -236.5 75z" />
    <glyph glyph-name="V" unicode="V" horiz-adv-x="747" 
d="M20 710h161l236 -578l232 578h78l-284 -708h1v-12h-131z" />
    <glyph glyph-name="W" unicode="W" horiz-adv-x="1185" 
d="M20 710h162l214 -569l207 569h72l199 -568l213 568h79l-268 -720h-128l-174 484l-176 -484h-128z" />
    <glyph glyph-name="X" unicode="X" horiz-adv-x="773" 
d="M319 325l-271 385h172l189 -270l211 270h96l-262 -334l271 -386h-171l-190 271l-212 -271h-95z" />
    <glyph glyph-name="Y" unicode="Y" horiz-adv-x="733" 
d="M294 277l-275 433h168l219 -346l221 346h91l-266 -415v-305h-158v287z" />
    <glyph glyph-name="Z" unicode="Z" horiz-adv-x="761" 
d="M54 26l459 627h-448v57h642v-36l-458 -627h447v-57h-642v36z" />
    <glyph glyph-name="bracketleft" unicode="[" horiz-adv-x="334" 
d="M75 731h224v-45h-93v-789h93v-45h-224v879z" />
    <glyph glyph-name="backslash" unicode="\" horiz-adv-x="521" 
d="M70 741h88l333 -889h-88z" />
    <glyph glyph-name="bracketright" unicode="]" horiz-adv-x="334" 
d="M75 -103h93v789h-93v45h224v-879h-224v45z" />
    <glyph glyph-name="asciicircum" unicode="^" horiz-adv-x="403" 
d="M188 798h67l115 -266h-85l-63 142l-64 -142h-85z" />
    <glyph glyph-name="underscore" unicode="_" horiz-adv-x="681" 
d="M66 -35h589v-59h-589v59z" />
    <glyph glyph-name="grave" unicode="`" horiz-adv-x="323" 
d="M44 893h133l102 -165h-66z" />
    <glyph glyph-name="a" unicode="a" 
d="M146.5 11.5q-57.5 31.5 -90 87t-32.5 126.5q0 73 32 129t90.5 86.5t133.5 30.5q37 0 72 -10.5t63 -28.5v28h151v-470h-154v29q-27 -18 -62.5 -28.5t-72.5 -10.5q-73 0 -130.5 31.5zM355 55q26 24 41.5 65.5t15.5 92.5v21q0 52 -16.5 96t-44 69.5t-59.5 25.5
q-31 0 -55.5 -25.5t-39 -70t-14.5 -99.5t15.5 -100.5t41.5 -72t57 -26.5q32 0 58 24z" />
    <glyph glyph-name="b" unicode="b" 
d="M260 -11q-35 9 -62 25v-24h-154v720h154v-275q27 17 62 26.5t70 9.5q75 0 133.5 -30.5t90.5 -86.5t32 -129q0 -71 -32.5 -126.5t-90 -87t-130.5 -31.5q-38 0 -73 9zM370 57.5q26 26.5 41.5 72t15.5 100.5t-14.5 99.5t-39 70t-55.5 25.5q-32 0 -59.5 -25.5t-44 -69.5
t-16.5 -96v-23q1 -79 33 -129.5t82 -50.5q31 0 57 26.5z" />
    <glyph glyph-name="c" unicode="c" horiz-adv-x="565" 
d="M158 13.5q-63 31.5 -98.5 87t-35.5 125.5t36 125.5t100 87t144 31.5q75 0 138.5 -33t89.5 -84l-100 -54q-13 66 -42 96.5t-78 30.5q-37 0 -65.5 -24.5t-45 -68.5t-16.5 -99q0 -93 35.5 -147.5t96.5 -54.5q47 0 76 28.5t51 95.5l95 -46q-32 -59 -96.5 -93.5t-142.5 -34.5
q-79 0 -142 31.5z" />
    <glyph glyph-name="d" unicode="d" 
d="M146.5 11.5q-57.5 31.5 -90 87t-32.5 126.5q0 73 32 129t90.5 86.5t133.5 30.5q35 0 70 -9.5t62 -26.5v275h154v-720h-154v29q-27 -18 -62.5 -28.5t-72.5 -10.5q-73 0 -130.5 31.5zM355 55q26 24 41.5 65.5t15.5 92.5v21q0 52 -16.5 96t-44 69.5t-59.5 25.5
q-31 0 -55.5 -25.5t-39 -70t-14.5 -99.5t15.5 -100.5t41.5 -72t57 -26.5q32 0 58 24z" />
    <glyph glyph-name="e" unicode="e" horiz-adv-x="586" 
d="M158 13.5q-63 31.5 -98.5 87t-35.5 125.5t36 125.5t100 87t144 31.5q78 0 137.5 -32t91 -90t29.5 -132h-379q1 -53 22 -92t54 -60t71 -21q42 0 81 27.5t66 81.5l66 -50q-28 -51 -97 -85.5t-146 -34.5q-79 0 -142 31.5zM415 263q-6 75 -36.5 119t-75.5 44q-43 0 -76.5 -46
t-41.5 -117h230z" />
    <glyph glyph-name="f" unicode="f" horiz-adv-x="293" 
d="M55 413h-51v47h51v32q0 109 57.5 171.5t157.5 62.5q51 0 98.5 -23t61.5 -53l-118 -49q-12 42 -22 57.5t-25 15.5q-31 0 -53.5 -38.5t-22.5 -91.5q0 -21 4.5 -45.5t11.5 -38.5h109v-47h-105v-422h-154v422z" />
    <glyph glyph-name="g" unicode="g" 
d="M175.5 -202.5q-55.5 23.5 -81.5 64.5l40 65q23 -45 67 -74t88 -29q53 0 88 45.5t35 139.5v10q-27 -18 -62.5 -28.5t-72.5 -10.5q-73 0 -130.5 31.5t-90 87t-32.5 126.5q0 73 32 129t90.5 86.5t133.5 30.5q37 0 72 -10.5t63 -28.5v28h151v-450q0 -78 -38.5 -131.5
t-99.5 -79t-130 -25.5q-67 0 -122.5 23.5zM355 63q26 24 41.5 65.5t15.5 92.5v8q0 52 -16.5 96t-44 69.5t-59.5 25.5q-31 0 -56 -24.5t-39 -67.5t-14 -98q0 -54 15 -97.5t41 -68.5t58 -25t58 24z" />
    <glyph glyph-name="h" unicode="h" horiz-adv-x="605" 
d="M44 710h154v-306q34 32 78 49t93 17q103 0 152.5 -53t49.5 -164v-263h-154v263q0 87 -16.5 126t-51.5 39q-37 0 -70.5 -28t-55.5 -74.5t-25 -101.5v-224h-154v720z" />
    <glyph glyph-name="i" unicode="i" horiz-adv-x="242" 
d="M59 535.5q-26 24.5 -26 57.5t26 57.5t62 24.5t62 -24.5t26 -57.5t-26 -57.5t-62 -24.5t-62 24.5zM44 460h154v-470h-154v470z" />
    <glyph glyph-name="j" unicode="j" horiz-adv-x="251" 
d="M57.5 541q-26.5 22 -26.5 52t26.5 52t62.5 22t62.5 -22t26.5 -52t-26.5 -52t-62.5 -22t-62.5 22zM-28 -225l5 30q4 -1 11 -1q30 0 42 44t12 156v456h154v-510q0 -65 -18 -103t-59 -55.5t-112 -17.5q-23 0 -35 1z" />
    <glyph glyph-name="k" unicode="k" horiz-adv-x="572" 
d="M44 710h154v-494l274 244h92l-241 -214l243 -256h-179l-162 170l-27 -25v-145h-154v720z" />
    <glyph glyph-name="l" unicode="l" horiz-adv-x="262" 
d="M54 701l154 56v-767h-154v711z" />
    <glyph glyph-name="m" unicode="m" horiz-adv-x="936" 
d="M44 460h151v-58q33 33 75 50.5t88 17.5q62 0 105.5 -23t64.5 -67q69 90 182 90q97 0 144.5 -53.5t47.5 -163.5v-263h-154v260q0 81 -15.5 124t-42.5 43q-31 0 -61 -26t-51.5 -70t-27.5 -95v-236h-154v260q0 81 -15.5 124t-42.5 43q-32 0 -62 -25.5t-51 -69t-27 -95.5
v-237h-154v470z" />
    <glyph glyph-name="n" unicode="n" horiz-adv-x="604" 
d="M44 460h151v-58q34 32 79 50t95 18q103 0 152.5 -53t49.5 -164v-263h-154v263q0 87 -16.5 126t-51.5 39q-37 0 -70.5 -28t-55.5 -74.5t-25 -101.5v-224h-154v470z" />
    <glyph glyph-name="o" unicode="o" horiz-adv-x="620" 
d="M162 13q-65 31 -101.5 86.5t-36.5 126.5t36.5 126.5t101.5 86.5t148 31t148 -31t101.5 -86.5t36.5 -126.5t-36.5 -126.5t-101.5 -86.5t-148 -31t-148 31zM402.5 81q34.5 55 34.5 152q0 89 -34.5 141t-93.5 52q-58 0 -92 -54t-34 -147t34 -146t92 -53q59 0 93.5 55z" />
    <glyph glyph-name="p" unicode="p" 
d="M44 460h151v-28q28 18 63 28.5t72 10.5q75 0 133.5 -30.5t90.5 -86.5t32 -129q0 -71 -32.5 -126.5t-90 -87t-130.5 -31.5q-38 0 -73 9t-62 25v-224h-154v670zM370 57.5q26 26.5 41.5 72t15.5 100.5t-14.5 99.5t-39 70t-55.5 25.5q-32 0 -59.5 -25.5t-44 -69.5t-16.5 -96
v-20q0 -52 15.5 -94t41.5 -65.5t58 -23.5q31 0 57 26.5z" />
    <glyph glyph-name="q" unicode="q" 
d="M412 19q-27 -18 -62.5 -28.5t-72.5 -10.5q-73 0 -130.5 31.5t-90 87t-32.5 126.5q0 73 32 129t90.5 86.5t133.5 30.5q37 0 72 -10.5t63 -28.5v28h151v-670h-154v229zM355 55q26 24 41.5 65.5t15.5 92.5v21q0 52 -16.5 96t-44 69.5t-59.5 25.5q-31 0 -55.5 -25.5t-39 -70
t-14.5 -99.5t15.5 -100.5t41.5 -72t57 -26.5q32 0 58 24z" />
    <glyph glyph-name="r" unicode="r" horiz-adv-x="479" 
d="M44 460h151v-57q67 67 155 67q50 0 93 -21.5t60 -54.5l-122 -67q-12 48 -24 69.5t-27 22.5q-31 2 -62.5 -27.5t-51 -78t-18.5 -98.5v-225h-154v470z" />
    <glyph glyph-name="s" unicode="s" horiz-adv-x="534" 
d="M153.5 -5q-52.5 15 -87.5 40.5t-42 55.5l119 21q6 -85 123 -85q51 0 76 17t25 52q0 23 -9 35.5t-33 21t-74 16.5q-98 15 -162.5 48.5t-64.5 107.5q0 39 33.5 72.5t91 53t125.5 19.5q57 0 109 -15t86 -40.5t41 -55.5l-118 -21q-4 43 -33.5 65t-81.5 22q-53 0 -80.5 -18.5
t-27.5 -53.5q0 -25 8 -37t31 -19.5t78 -17.5q68 -12 112 -25t78 -43t34 -83q0 -41 -32 -74.5t-88.5 -53.5t-125.5 -20q-58 0 -110.5 15z" />
    <glyph glyph-name="t" unicode="t" horiz-adv-x="323" 
d="M85 11.5q-30 32.5 -30 105.5v296h-51v47h51v171l154 56v-227h109v-47h-109v-242q0 -55 1.5 -95t2.5 -51q9 0 23.5 15.5t30.5 44.5l49 -38q-18 -29 -55.5 -48.5t-77.5 -19.5q-68 0 -98 32.5z" />
    <glyph glyph-name="u" unicode="u" horiz-adv-x="604" 
d="M83.5 33q-49.5 53 -49.5 164v263h154v-263q0 -87 16.5 -126t51.5 -39q37 0 70.5 28t55.5 74.5t25 101.5v224h154v-470h-151v58q-34 -32 -79 -50t-95 -18q-103 0 -152.5 53z" />
    <glyph glyph-name="v" unicode="v" horiz-adv-x="525" 
d="M-9 460h158l155 -340l152 340h79l-210 -470h-119z" />
    <glyph glyph-name="w" unicode="w" horiz-adv-x="785" 
d="M-8 460h157l130 -322l116 322h75l115 -323l131 323h78l-189 -470h-123l-89 244l-87 -244h-123z" />
    <glyph glyph-name="x" unicode="x" horiz-adv-x="517" 
d="M197 193l-187 266h167l110 -154l123 154h86l-170 -211l181 -258h-166l-104 146l-117 -146h-86z" />
    <glyph glyph-name="y" unicode="y" horiz-adv-x="605" 
d="M172 -198.5q-57 22.5 -83 60.5l41 66q17 -41 61 -69.5t91 -28.5q54 0 89.5 43.5t35.5 135.5v37q-34 -32 -78 -49t-93 -17q-103 0 -152.5 53t-49.5 164v263h154v-263q0 -87 16.5 -126t51.5 -39q37 0 70.5 28t55.5 74.5t25 101.5v224h154v-450q0 -78 -38 -130t-98.5 -76.5
t-128.5 -24.5q-67 0 -124 22.5z" />
    <glyph glyph-name="z" unicode="z" horiz-adv-x="585" 
d="M27 26l349 387h-341v47h518v-36l-349 -387h346v-47h-523v36z" />
    <glyph glyph-name="braceleft" unicode="{" horiz-adv-x="365" 
d="M220 -135.5q-46 14.5 -73.5 40t-27.5 54.5v257q0 25 -9 45t-18 18l-1 26q11 -2 19.5 16.5t8.5 44.5v258q0 29 27.5 54.5t73.5 40t96 12.5l-3 -30q-28 4 -45 -17.5t-17 -59.5v-107q-1 -55 -1 -142q0 -57 -71 -84q72 -26 72 -84q0 -86 -1 -141v-107q0 -38 18 -60.5
t45 -18.5l3 -28q-50 -2 -96 12.5z" />
    <glyph glyph-name="bar" unicode="|" horiz-adv-x="205" 
d="M78 731h89v-879h-89v879z" />
    <glyph glyph-name="braceright" unicode="}" horiz-adv-x="365" 
d="M92 -120q27 -4 45 18.5t18 60.5v107q-1 55 -1 141q0 58 72 84q-71 27 -71 84q0 87 -1 142v107q0 38 -17 59.5t-45 17.5l-3 30q50 2 96 -12.5t73.5 -40t27.5 -54.5v-258q0 -26 8.5 -44.5t19.5 -16.5l-1 -26q-9 2 -18 -18t-9 -45v-257q0 -29 -27.5 -54.5t-73.5 -40
t-96 -12.5z" />
    <glyph glyph-name="asciitilde" unicode="~" horiz-adv-x="627" 
d="M409 268.5q-35 11.5 -82 33.5q-46 21 -76.5 31.5t-60.5 10.5q-68 0 -123 -68v83q55 52 121 52q35 0 70 -11.5t82 -33.5q46 -21 76.5 -31.5t60.5 -10.5q68 0 123 68v-83q-55 -52 -121 -52q-35 0 -70 11.5z" />
    <glyph glyph-name="exclamdown" unicode="&#xa1;" horiz-adv-x="263" 
d="M102 419q-21 19 -21 47q0 27 21 46t50 19t50 -19t21 -46q0 -28 -20.5 -47t-50.5 -19q-29 0 -50 19zM97 357h108l22 -587h-151z" />
    <glyph glyph-name="cent" unicode="&#xa2;" horiz-adv-x="621" 
d="M292 -14q-101 16 -161.5 81t-60.5 159q0 92 60.5 157t161.5 82v115h108v-114q61 -10 109 -41t69 -72l-100 -54q-21 101 -78 121v-380q72 12 123 111l66 -49q-23 -42 -74.5 -73.5t-114.5 -42.5v-96h-108v96zM292 405q-29 -22 -46 -67.5t-17 -100.5q0 -50 17 -94.5
t46 -70.5v333z" />
    <glyph glyph-name="sterling" unicode="&#xa3;" horiz-adv-x="650" 
d="M100 25q36 30 60 85.5t24 108.5q0 35 -6 66t-17 69h-91v53h79q-13 61 -13 99q0 62 32.5 111t89.5 76.5t129 27.5q67 0 120.5 -23.5t83 -65t29.5 -93.5q0 -21 -6 -45l-109 36q2 11 2 32q0 53 -25.5 84.5t-68.5 31.5q-57 0 -92 -46.5t-35 -121.5q0 -46 14 -103h158v-53
h-147q15 -75 15 -118q0 -70 -63 -144h335l-37 -102h-461v35z" />
    <glyph glyph-name="currency" unicode="&#xa4;" horiz-adv-x="669" 
d="M151 54q-76 72 -76 174q0 103 76 175l-80 138h113l54 -86q49 20 116 20q66 0 117 -20l54 86h113l-80 -139q75 -75 75 -174t-75 -174l80 -138h-113l-54 85q-51 -20 -117 -20t-117 20l-52 -85h-114zM424 53q31 26 49 71.5t18 103.5t-18 104.5t-49 72.5t-70 26t-70 -26
t-48.5 -72.5t-17.5 -104.5t17.5 -103.5t48.5 -71.5t70 -26t70 26z" />
    <glyph glyph-name="yen" unicode="&#xa5;" horiz-adv-x="795" 
d="M347 155h-137v53h137v41h-137v53h122l-260 408h164l213 -336l216 336h98l-261 -408h146v-53h-147v-41h147v-53h-147v-165h-154v165z" />
    <glyph glyph-name="brokenbar" unicode="&#xa6;" horiz-adv-x="205" 
d="M78 731h89v-406h-89v406zM78 258h89v-406h-89v406z" />
    <glyph glyph-name="section" unicode="&#xa7;" horiz-adv-x="516" 
d="M183.5 -11q-45.5 16 -72.5 43t-27 60q0 9 1 14l102 2q-1 -5 -1 -15q0 -37 25.5 -58t71.5 -21q43 0 68 18t25 48q0 31 -29 54t-94 58q-85 45 -134 83.5t-49 86.5q0 33 23.5 60.5t62.5 41.5q-62 41 -71 69q-4 17 -4 33q0 33 26.5 60.5t72 43.5t99.5 16t98 -15.5t69.5 -42
t25.5 -59.5q0 -9 -1 -13l-102 -2q1 5 1 16q0 35 -26.5 55t-73.5 20q-43 0 -66.5 -16.5t-23.5 -46.5q0 -22 15.5 -39.5t38 -32t68.5 -39.5q58 -31 94.5 -54t63 -53t26.5 -64q0 -32 -23 -59.5t-62 -41.5q68 -45 72 -74q4 -19 4 -32q0 -34 -25.5 -61.5t-69.5 -43t-98 -15.5
q-55 0 -100.5 16zM385 280q0 31 -34 58.5t-108 70.5q-26 18 -44 27q-28 -17 -28 -53q0 -31 34.5 -59t108.5 -71l43 -26q28 19 28 53z" />
    <glyph glyph-name="dieresis" unicode="&#xa8;" horiz-adv-x="424" 
d="M63 741.5q-21 19.5 -21 47.5t21 47.5t51 19.5q31 0 52.5 -19t21.5 -48t-21 -48t-52 -19t-52 19.5zM257 741q-21 19 -21 48q0 28 21 47t52 19q30 0 51.5 -19t21.5 -47t-21.5 -47.5t-51.5 -19.5q-31 0 -52 19z" />
    <glyph glyph-name="copyright" unicode="&#xa9;" horiz-adv-x="859" 
d="M255.5 -20.5q-89.5 51.5 -141.5 139t-52 191.5t52 191.5t141 139t195 51.5q105 0 194 -51.5t141 -139.5t52 -191t-52 -191t-141 -139.5t-194 -51.5t-194.5 51.5zM608.5 32q72.5 43 115 117t42.5 161t-42.5 161t-115 117t-158.5 43t-158.5 -43t-115 -116.5t-42.5 -161.5
q0 -87 42.5 -161t115 -117t158.5 -43t158.5 43zM353.5 124q-47.5 28 -74 78t-26.5 112q0 63 26.5 113.5t73.5 78.5t108 28q47 0 85 -17.5t59.5 -48.5t21.5 -70l-90 -3q-3 64 -76 64q-52 0 -85.5 -40.5t-33.5 -102.5q0 -65 33 -106t86 -41q31 0 49 15.5t26 49.5h96
q-2 -37 -26.5 -69t-63 -50.5t-81.5 -18.5q-60 0 -107.5 28z" />
    <glyph glyph-name="guillemotleft" unicode="&#xab;" horiz-adv-x="735" 
d="M124 296l-60 41l60 41l342 240v-77l-285 -204l285 -204v-77zM369 296l-60 41l401 281v-77l-284 -204l284 -204v-77z" />
    <glyph glyph-name="logicalnot" unicode="&#xac;" horiz-adv-x="627" 
d="M529 332h-462v60h533v-255h-71v195z" />
    <glyph glyph-name="registered" unicode="&#xae;" horiz-adv-x="551" 
d="M182.5 429q-52.5 30 -83 81t-30.5 111t30.5 111t83 80.5t113.5 29.5t113 -30t82.5 -80.5t30.5 -110.5t-30.5 -111t-82.5 -81t-113 -30t-113.5 30zM378 474q38 23 60 62t22 85t-22 84.5t-60 61.5t-82 23q-45 0 -83 -23t-60 -61.5t-22 -84.5t22 -85t60 -62t83 -23
q44 0 82 23zM219 754h57q35 0 56 -6q32 -11 49.5 -31.5t17.5 -47.5q0 -30 -18 -52.5t-50 -33.5l71 -86h-61l-49 60v-60h-73v257zM332 666q0 26 -9.5 39t-30.5 14v-108q40 7 40 55z" />
    <glyph glyph-name="macron" unicode="&#xaf;" horiz-adv-x="456" 
d="M41 815h374v-79h-374v79z" />
    <glyph glyph-name="degree" unicode="&#xb0;" horiz-adv-x="476" 
d="M164 455.5q-43 24.5 -68 66.5t-25 91t25 91t68 66.5t94 24.5t94 -24.5t68 -66.5t25 -91t-25 -91t-68 -66.5t-94 -24.5t-94 24.5zM318 503q28 17 44 46.5t16 63.5q0 52 -35 88.5t-85 36.5t-85 -36.5t-35 -88.5q0 -34 16 -63.5t44 -46.5t60 -17t60 17z" />
    <glyph glyph-name="plusminus" unicode="&#xb1;" horiz-adv-x="627" 
d="M298 347h-231v59h231v220h71v-220h231v-59h-231v-242h-71v242zM67 69h533v-60h-533v60z" />
    <glyph glyph-name="acute" unicode="&#xb4;" horiz-adv-x="323" 
d="M146 893h133l-169 -165h-66z" />
    <glyph glyph-name="paragraph" unicode="&#xb6;" horiz-adv-x="584" 
d="M238 323q-82 20 -124.5 72t-42.5 116q0 51 27.5 96.5t80 74t124.5 28.5h69v-720h-134v333zM420 710h134v-720h-134v720z" />
    <glyph glyph-name="periodcentered" unicode="&#xb7;" horiz-adv-x="255" 
d="M97.5 265q-20.5 19 -20.5 47q0 27 20.5 46t50.5 19q29 0 49.5 -19t20.5 -46q0 -28 -20.5 -47t-49.5 -19q-30 0 -50.5 19z" />
    <glyph glyph-name="cedilla" unicode="&#xb8;" horiz-adv-x="355" 
d="M111.5 -227.5q-37.5 16.5 -67.5 48.5l23 35q47 -36 78 -36q23 0 36.5 17t13.5 39t-15 38.5t-42 16.5q-20 0 -49 -12l54 109h71l-26 -53q56 -2 89.5 -30.5t33.5 -73.5q0 -53 -36 -84t-89 -31q-37 0 -74.5 16.5z" />
    <glyph glyph-name="guillemotright" unicode="&#xbb;" horiz-adv-x="735" 
d="M65 133l284 204l-284 204v77l341 -240l60 -41l-401 -281v77zM309 133l285 204l-285 204v77l342 -240l60 -41l-60 -41l-342 -240v77z" />
    <glyph glyph-name="onequarter" unicode="&#xbc;" horiz-adv-x="800" 
d="M154 773l115 116v-598h-115v482zM665 801h98l-602 -974h-98zM651 4h-226l250 404h92v-554h-116v150zM651 43v205l-128 -205h128z" />
    <glyph glyph-name="onehalf" unicode="&#xbd;" horiz-adv-x="914" 
d="M140 773l116 116v-598h-116v482zM662 801h98l-602 -974h-98zM518 -125l26 26q90 86 156 173.5t66 175.5q0 54 -21.5 85.5t-57.5 31.5q-41 0 -65 -32t-29 -93l-78 23q8 33 32 67t65.5 57t99.5 23q49 0 88 -20t61 -55.5t22 -80.5q0 -53 -30 -105.5t-74 -98.5t-116 -112h221
v-83h-354z" />
    <glyph glyph-name="threequarters" unicode="&#xbe;" horiz-adv-x="908" 
d="M130.5 323.5q-48.5 25.5 -69.5 67.5l68 47q13 -52 37 -76.5t63 -24.5q49 0 79 36.5t30 97.5q0 55 -20.5 86t-57.5 31q-4 0 -22 -2q-28 -2 -36 -2l-3 38q12 -2 16 -2q33 0 55.5 30t22.5 74q0 31 -12 64q-10 20 -21.5 28t-29.5 8q-39 0 -59 -31t-18 -89l-84 23
q13 63 60.5 99.5t113.5 36.5q72 0 118 -36.5t46 -93.5q0 -68 -69 -110q54 -14 86 -52.5t32 -89.5q0 -53 -27.5 -95t-77.5 -65t-114 -23q-58 0 -106.5 25.5zM780 802h98l-602 -975h-98zM737 5h-226l31 49l218 355h92v-554h-115v150zM737 44v204l-128 -204h128z" />
    <glyph glyph-name="questiondown" unicode="&#xbf;" horiz-adv-x="520" 
d="M265 420q-21 19 -21 46q0 28 21 47t51 19q29 0 50 -19t21 -47q0 -27 -21 -46t-50 -19q-30 0 -51 19zM171 -257q-47 23 -74 62.5t-27 87.5q0 54 27 106.5t83 132.5q37 54 56 86t32 71t11 80h75q3 -51 -15.5 -106t-55.5 -133q-36 -79 -53.5 -131t-17.5 -108q0 -60 23 -92
t65 -32q45 0 73.5 36.5t28.5 91.5q0 22 -6 46h94q2 -64 -24.5 -114t-76.5 -78.5t-114 -28.5q-57 0 -104 23z" />
    <glyph glyph-name="Agrave" unicode="&#xc0;" horiz-adv-x="750" 
d="M308 710h129l293 -720h-161l-93 228h-287l-92 -228h-78zM453 275l-122 298l-120 -298h242zM247 894h133l102 -165h-66z" />
    <glyph glyph-name="Aacute" unicode="&#xc1;" horiz-adv-x="750" 
d="M308 710h129l293 -720h-161l-93 228h-287l-92 -228h-78zM453 275l-122 298l-120 -298h242zM380 899h133l-169 -165h-66z" />
    <glyph glyph-name="Acircumflex" unicode="&#xc2;" horiz-adv-x="750" 
d="M308 710h129l293 -720h-161l-93 228h-287l-92 -228h-78zM453 275l-122 298l-120 -298h242zM279 888h175l102 -165h-66l-123 122l-124 -122h-66z" />
    <glyph glyph-name="Atilde" unicode="&#xc3;" horiz-adv-x="750" 
d="M308 710h129l293 -720h-161l-93 228h-287l-92 -228h-78zM453 275l-122 298l-120 -298h242zM420.5 755q-25.5 9 -68.5 29q-32 16 -49 23t-31 7q-46 0 -46 -44l1 -12h-50q-2 73 20.5 107t72.5 34q27 0 51.5 -8.5t66.5 -26.5q32 -14 50 -20.5t33 -6.5q20 0 33 11t13 29
q0 7 -1 10h50q2 -73 -20.5 -107t-72.5 -34q-27 0 -52.5 9z" />
    <glyph glyph-name="Adieresis" unicode="&#xc4;" horiz-adv-x="750" 
d="M308 710h129l293 -720h-161l-93 228h-287l-92 -228h-78zM453 275l-122 298l-120 -298h242zM216 765.5q-21 19.5 -21 47.5t21 47.5t51 19.5q31 0 52.5 -19t21.5 -48t-21 -48t-52 -19t-52 19.5zM410 765q-21 19 -21 48q0 28 21 47t52 19q30 0 51.5 -19t21.5 -47
t-21.5 -47.5t-51.5 -19.5q-31 0 -52 19z" />
    <glyph glyph-name="Aring" unicode="&#xc5;" horiz-adv-x="750" 
d="M730 -10h-161l-93 228h-287l-92 -228h-78l286 713q-27 17 -43 44t-16 59q0 50 37 85.5t89 35.5t89 -35.5t37 -85.5q0 -32 -16 -59t-43 -43zM328.5 855q-19.5 -21 -19.5 -49t18.5 -49t44.5 -21t44.5 21t18.5 49t-18.5 49t-42.5 21q-26 0 -45.5 -21zM453 275l-122 298
l-120 -298h242z" />
    <glyph glyph-name="AE" unicode="&#xc6;" horiz-adv-x="1025" 
d="M366 710h594v-57h-370v-263h277v-57h-277v-286h370v-57h-528v227h-216l-106 -227h-79zM432 274v389h-8l-182 -389h190z" />
    <glyph glyph-name="Ccedilla" unicode="&#xc7;" horiz-adv-x="811" 
d="M667 156l101 -35q-14 -34 -55.5 -64.5t-99 -51t-118.5 -24.5l-14 -29q56 -2 89.5 -30.5t33.5 -73.5q0 -53 -36 -84t-89 -31q-37 0 -74.5 16.5t-67.5 48.5l23 35q47 -36 78 -36q23 0 36.5 17t13.5 39t-15 38.5t-42 16.5q-20 0 -49 -12l42 86q-108 8 -193 57t-132 129.5
t-47 180.5q0 106 53.5 190t148 131.5t213.5 47.5q66 0 130 -19.5t110.5 -52t61.5 -69.5l-101 -35q-51 135 -191 135q-71 0 -130.5 -43.5t-94.5 -118.5t-35 -164q0 -91 34.5 -166.5t94 -119.5t130.5 -44q140 0 191 135z" />
    <glyph glyph-name="Egrave" unicode="&#xc8;" horiz-adv-x="665" 
d="M52 710h561v-57h-403v-263h310v-57h-310v-286h403v-57h-561v720zM183 926h133l102 -165h-66z" />
    <glyph glyph-name="Eacute" unicode="&#xc9;" horiz-adv-x="665" 
d="M52 710h561v-57h-403v-263h310v-57h-310v-286h403v-57h-561v720zM387 930h133l-169 -165h-66z" />
    <glyph glyph-name="Ecircumflex" unicode="&#xca;" horiz-adv-x="665" 
d="M52 710h561v-57h-403v-263h310v-57h-310v-286h403v-57h-561v720zM239 929h175l102 -165h-66l-123 122l-124 -122h-66z" />
    <glyph glyph-name="Edieresis" unicode="&#xcb;" horiz-adv-x="665" 
d="M52 710h561v-57h-403v-263h310v-57h-310v-286h403v-57h-561v720zM188 771.5q-21 19.5 -21 47.5t21 47.5t51 19.5q31 0 52.5 -19t21.5 -48t-21 -48t-52 -19t-52 19.5zM382 771q-21 19 -21 48q0 28 21 47t52 19q30 0 51.5 -19t21.5 -47t-21.5 -47.5t-51.5 -19.5
q-31 0 -52 19z" />
    <glyph glyph-name="Igrave" unicode="&#xcc;" horiz-adv-x="282" 
d="M62 710h158v-720h-158v720zM-24 920h133l102 -165h-66z" />
    <glyph glyph-name="Iacute" unicode="&#xcd;" horiz-adv-x="282" 
d="M62 710h158v-720h-158v720zM172 921h133l-169 -165h-66z" />
    <glyph glyph-name="Icircumflex" unicode="&#xce;" horiz-adv-x="282" 
d="M62 710h158v-720h-158v720zM53 912h175l102 -165h-66l-123 122l-124 -122h-66z" />
    <glyph glyph-name="Idieresis" unicode="&#xcf;" horiz-adv-x="282" 
d="M62 710h158v-720h-158v720zM-8 771.5q-21 19.5 -21 47.5t21 47.5t51 19.5q31 0 52.5 -19t21.5 -48t-21 -48t-52 -19t-52 19.5zM186 771q-21 19 -21 48q0 28 21 47t52 19q30 0 51.5 -19t21.5 -47t-21.5 -47.5t-51.5 -19.5q-31 0 -52 19z" />
    <glyph glyph-name="Eth" unicode="&#xd0;" horiz-adv-x="798" 
d="M52 330h-80v53h80v327h276q131 0 228 -41.5t148.5 -119t51.5 -182.5q0 -118 -50.5 -203t-146.5 -129.5t-230 -44.5h-277v340zM329 34q131 0 197.5 83.5t66.5 246.5q0 150 -67 226.5t-198 76.5h-118v-284h127v-53h-127v-296h119z" />
    <glyph glyph-name="Ntilde" unicode="&#xd1;" horiz-adv-x="743" 
d="M52 710h146l416 -519v519h77v-720h-90l-472 586v-586h-77v720zM427.5 755q-25.5 9 -68.5 29q-32 16 -49 23t-31 7q-46 0 -46 -44l1 -12h-50q-2 73 20.5 107t72.5 34q27 0 51.5 -8.5t66.5 -26.5q32 -14 50 -20.5t33 -6.5q20 0 33 11t13 29q0 7 -1 10h50q2 -73 -20.5 -107
t-72.5 -34q-27 0 -52.5 9z" />
    <glyph glyph-name="Ograve" unicode="&#xd2;" horiz-adv-x="952" 
d="M258.5 28q-96.5 48 -151.5 132t-55 189t55 189.5t152 133t217 48.5t217 -48t152 -133t55 -190t-55 -189t-152 -132t-218 -48q-120 0 -216.5 48zM611 68q59 41 92.5 114.5t33.5 166.5q0 92 -34 166t-93.5 116t-133.5 42t-133.5 -42t-93.5 -116t-34 -166q0 -93 33.5 -166.5
t93 -114.5t134.5 -41q76 0 135 41zM280 917h133l102 -165h-66z" />
    <glyph glyph-name="Oacute" unicode="&#xd3;" horiz-adv-x="952" 
d="M258.5 28q-96.5 48 -151.5 132t-55 189t55 189.5t152 133t217 48.5t217 -48t152 -133t55 -190t-55 -189t-152 -132t-218 -48q-120 0 -216.5 48zM611 68q59 41 92.5 114.5t33.5 166.5q0 92 -34 166t-93.5 116t-133.5 42t-133.5 -42t-93.5 -116t-34 -166q0 -93 33.5 -166.5
t93 -114.5t134.5 -41q76 0 135 41zM529 914h133l-169 -165h-66z" />
    <glyph glyph-name="Ocircumflex" unicode="&#xd4;" horiz-adv-x="952" 
d="M258.5 28q-96.5 48 -151.5 132t-55 189t55 189.5t152 133t217 48.5t217 -48t152 -133t55 -190t-55 -189t-152 -132t-218 -48q-120 0 -216.5 48zM611 68q59 41 92.5 114.5t33.5 166.5q0 92 -34 166t-93.5 116t-133.5 42t-133.5 -42t-93.5 -116t-34 -166q0 -93 33.5 -166.5
t93 -114.5t134.5 -41q76 0 135 41zM399 912h175l102 -165h-66l-123 122l-124 -122h-66z" />
    <glyph glyph-name="Otilde" unicode="&#xd5;" horiz-adv-x="952" 
d="M258.5 28q-96.5 48 -151.5 132t-55 189t55 189.5t152 133t217 48.5t217 -48t152 -133t55 -190t-55 -189t-152 -132t-218 -48q-120 0 -216.5 48zM611 68q59 41 92.5 114.5t33.5 166.5q0 92 -34 166t-93.5 116t-133.5 42t-133.5 -42t-93.5 -116t-34 -166q0 -93 33.5 -166.5
t93 -114.5t134.5 -41q76 0 135 41zM509.5 756q-25.5 9 -68.5 29q-32 16 -49 23t-31 7q-46 0 -46 -44l1 -12h-50q-2 73 20.5 107t72.5 34q27 0 51.5 -8.5t66.5 -26.5q32 -14 50 -20.5t33 -6.5q20 0 33 11t13 29q0 7 -1 10h50q2 -73 -20.5 -107t-72.5 -34q-27 0 -52.5 9z" />
    <glyph glyph-name="Odieresis" unicode="&#xd6;" horiz-adv-x="952" 
d="M258.5 28q-96.5 48 -151.5 132t-55 189t55 189.5t152 133t217 48.5t217 -48t152 -133t55 -190t-55 -189t-152 -132t-218 -48q-120 0 -216.5 48zM611 68q59 41 92.5 114.5t33.5 166.5q0 92 -34 166t-93.5 116t-133.5 42t-133.5 -42t-93.5 -116t-34 -166q0 -93 33.5 -166.5
t93 -114.5t134.5 -41q76 0 135 41zM325 773.5q-21 19.5 -21 47.5t21 47.5t51 19.5q31 0 52.5 -19t21.5 -48t-21 -48t-52 -19t-52 19.5zM519 773q-21 19 -21 48q0 28 21 47t52 19q30 0 51.5 -19t21.5 -47t-21.5 -47.5t-51.5 -19.5q-31 0 -52 19z" />
    <glyph glyph-name="multiply" unicode="&#xd7;" horiz-adv-x="525" 
d="M70 162l169 165l-162 162l48 45l161 -161l157 153l46 -45l-158 -153l165 -164l-44 -48l-167 166l-170 -166z" />
    <glyph glyph-name="Oslash" unicode="&#xd8;" horiz-adv-x="952" 
d="M863.5 505.5q36.5 -72.5 36.5 -156.5q0 -105 -55 -189t-152 -132t-218 -48q-138 0 -245 63l-57 -63h-86l91 100q-60 50 -93 119t-33 150q0 105 55 189.5t152 133t217 48.5q129 0 232 -56l50 56h87l-83 -91q65 -51 101.5 -123.5zM256 167l392 431q-35 36 -79 55.5
t-93 19.5q-74 0 -133.5 -42t-93.5 -116t-34 -166q0 -103 41 -182zM611 68q59 41 92.5 114.5t33.5 166.5q0 113 -50 197l-394 -434q35 -41 81.5 -63t101.5 -22q76 0 135 41z" />
    <glyph glyph-name="Ugrave" unicode="&#xd9;" horiz-adv-x="714" 
d="M132.5 55q-80.5 75 -80.5 220v435h158v-446q0 -113 44.5 -170.5t131.5 -57.5q99 0 147.5 58t48.5 178v438h80v-437q0 -145 -73.5 -219t-219.5 -74q-156 0 -236.5 75zM228 885h133l102 -165h-66z" />
    <glyph glyph-name="Uacute" unicode="&#xda;" horiz-adv-x="714" 
d="M132.5 55q-80.5 75 -80.5 220v435h158v-446q0 -113 44.5 -170.5t131.5 -57.5q99 0 147.5 58t48.5 178v438h80v-437q0 -145 -73.5 -219t-219.5 -74q-156 0 -236.5 75zM432 892h133l-169 -165h-66z" />
    <glyph glyph-name="Ucircumflex" unicode="&#xdb;" horiz-adv-x="714" 
d="M132.5 55q-80.5 75 -80.5 220v435h158v-446q0 -113 44.5 -170.5t131.5 -57.5q99 0 147.5 58t48.5 178v438h80v-437q0 -145 -73.5 -219t-219.5 -74q-156 0 -236.5 75zM309 901h175l102 -165h-66l-123 122l-124 -122h-66z" />
    <glyph glyph-name="Udieresis" unicode="&#xdc;" horiz-adv-x="714" 
d="M132.5 55q-80.5 75 -80.5 220v435h158v-446q0 -113 44.5 -170.5t131.5 -57.5q99 0 147.5 58t48.5 178v438h80v-437q0 -145 -73.5 -219t-219.5 -74q-156 0 -236.5 75zM248 750.5q-21 19.5 -21 47.5t21 47.5t51 19.5q31 0 52.5 -19t21.5 -48t-21 -48t-52 -19t-52 19.5z
M442 750q-21 19 -21 48q0 28 21 47t52 19q30 0 51.5 -19t21.5 -47t-21.5 -47.5t-51.5 -19.5q-31 0 -52 19z" />
    <glyph glyph-name="Yacute" unicode="&#xdd;" horiz-adv-x="733" 
d="M294 277l-275 433h168l219 -346l221 346h91l-266 -415v-305h-158v287zM482 909h133l-169 -165h-66z" />
    <glyph glyph-name="Thorn" unicode="&#xde;" horiz-adv-x="729" 
d="M52 710h158v-140h173q96 0 167 -25.5t109 -73t38 -111.5t-38 -111.5t-109 -73t-167 -25.5h-173v-160h-158v720zM383 194q80 0 115.5 39t35.5 127t-35.5 127t-115.5 39h-173v-332h173z" />
    <glyph glyph-name="germandbls" unicode="&#xdf;" horiz-adv-x="607" 
d="M261 -7q-39 14 -63 39v-42h-154v437q0 106 66.5 165t186.5 59q65 0 116 -23.5t78.5 -62t27.5 -81.5q0 -38 -23.5 -73t-69.5 -60q74 -18 116.5 -64.5t42.5 -109.5q0 -58 -30.5 -103t-84.5 -70t-123 -25q-47 0 -86 14zM388 40.5q25 20.5 40 55.5t15 78q0 144 -118 149
q-54 -3 -70 -3v39q66 0 93 29.5t27 102.5q0 56 -22.5 89.5t-61.5 33.5q-42 0 -67.5 -40.5t-25.5 -107.5v-362h39q5 -41 29.5 -62.5t65.5 -21.5q31 0 56 20.5z" />
    <glyph glyph-name="agrave" unicode="&#xe0;" 
d="M146.5 11.5q-57.5 31.5 -90 87t-32.5 126.5q0 73 32 129t90.5 86.5t133.5 30.5q37 0 72 -10.5t63 -28.5v28h151v-470h-154v29q-27 -18 -62.5 -28.5t-72.5 -10.5q-73 0 -130.5 31.5zM355 55q26 24 41.5 65.5t15.5 92.5v21q0 52 -16.5 96t-44 69.5t-59.5 25.5
q-31 0 -55.5 -25.5t-39 -70t-14.5 -99.5t15.5 -100.5t41.5 -72t57 -26.5q32 0 58 24zM165 656h133l102 -165h-66z" />
    <glyph glyph-name="aacute" unicode="&#xe1;" 
d="M146.5 11.5q-57.5 31.5 -90 87t-32.5 126.5q0 73 32 129t90.5 86.5t133.5 30.5q37 0 72 -10.5t63 -28.5v28h151v-470h-154v29q-27 -18 -62.5 -28.5t-72.5 -10.5q-73 0 -130.5 31.5zM355 55q26 24 41.5 65.5t15.5 92.5v21q0 52 -16.5 96t-44 69.5t-59.5 25.5
q-31 0 -55.5 -25.5t-39 -70t-14.5 -99.5t15.5 -100.5t41.5 -72t57 -26.5q32 0 58 24zM367 654h133l-169 -165h-66z" />
    <glyph glyph-name="acircumflex" unicode="&#xe2;" 
d="M146.5 11.5q-57.5 31.5 -90 87t-32.5 126.5q0 73 32 129t90.5 86.5t133.5 30.5q37 0 72 -10.5t63 -28.5v28h151v-470h-154v29q-27 -18 -62.5 -28.5t-72.5 -10.5q-73 0 -130.5 31.5zM355 55q26 24 41.5 65.5t15.5 92.5v21q0 52 -16.5 96t-44 69.5t-59.5 25.5
q-31 0 -55.5 -25.5t-39 -70t-14.5 -99.5t15.5 -100.5t41.5 -72t57 -26.5q32 0 58 24zM245 665h175l102 -165h-66l-123 122l-124 -122h-66z" />
    <glyph glyph-name="atilde" unicode="&#xe3;" 
d="M146.5 11.5q-57.5 31.5 -90 87t-32.5 126.5q0 73 32 129t90.5 86.5t133.5 30.5q37 0 72 -10.5t63 -28.5v28h151v-470h-154v29q-27 -18 -62.5 -28.5t-72.5 -10.5q-73 0 -130.5 31.5zM355 55q26 24 41.5 65.5t15.5 92.5v21q0 52 -16.5 96t-44 69.5t-59.5 25.5
q-31 0 -55.5 -25.5t-39 -70t-14.5 -99.5t15.5 -100.5t41.5 -72t57 -26.5q32 0 58 24zM360.5 501q-25.5 9 -68.5 29q-32 16 -49 23t-31 7q-46 0 -46 -44l1 -12h-50q-2 73 20.5 107t72.5 34q27 0 51.5 -8.5t66.5 -26.5q32 -14 50 -20.5t33 -6.5q20 0 33 11t13 29q0 7 -1 10h50
q2 -73 -20.5 -107t-72.5 -34q-27 0 -52.5 9z" />
    <glyph glyph-name="adieresis" unicode="&#xe4;" 
d="M146.5 11.5q-57.5 31.5 -90 87t-32.5 126.5q0 73 32 129t90.5 86.5t133.5 30.5q37 0 72 -10.5t63 -28.5v28h151v-470h-154v29q-27 -18 -62.5 -28.5t-72.5 -10.5q-73 0 -130.5 31.5zM355 55q26 24 41.5 65.5t15.5 92.5v21q0 52 -16.5 96t-44 69.5t-59.5 25.5
q-31 0 -55.5 -25.5t-39 -70t-14.5 -99.5t15.5 -100.5t41.5 -72t57 -26.5q32 0 58 24zM164 516.5q-21 19.5 -21 47.5t21 47.5t51 19.5q31 0 52.5 -19t21.5 -48t-21 -48t-52 -19t-52 19.5zM358 516q-21 19 -21 48q0 28 21 47t52 19q30 0 51.5 -19t21.5 -47t-21.5 -47.5
t-51.5 -19.5q-31 0 -52 19z" />
    <glyph glyph-name="aring" unicode="&#xe5;" 
d="M146.5 11.5q-57.5 31.5 -90 87t-32.5 126.5q0 73 32 129t90.5 86.5t133.5 30.5q37 0 72 -10.5t63 -28.5v28h151v-470h-154v29q-27 -18 -62.5 -28.5t-72.5 -10.5q-73 0 -130.5 31.5zM355 55q26 24 41.5 65.5t15.5 92.5v21q0 52 -16.5 96t-44 69.5t-59.5 25.5
q-31 0 -55.5 -25.5t-39 -70t-14.5 -99.5t15.5 -100.5t41.5 -72t57 -26.5q32 0 58 24zM220 519.5q-37 35.5 -37 85.5t37 85.5t89 35.5t89 -35.5t37 -85.5t-37 -85.5t-89 -35.5t-89 35.5zM353.5 556q18.5 21 18.5 49t-18.5 49t-42.5 21q-26 0 -45.5 -21t-19.5 -49t18.5 -49
t44.5 -21t44.5 21z" />
    <glyph glyph-name="ae" unicode="&#xe6;" horiz-adv-x="908" 
d="M125.5 -4.5q-50.5 17.5 -81 50.5t-30.5 77q0 75 77 116.5t214 41.5q27 0 41 -1q-1 78 -22 114t-64 36q-42 0 -64.5 -23t-30.5 -75l-113 16q14 56 73 90t146 34q50 0 97 -15.5t75 -40.5q35 25 84 39.5t99 14.5q78 0 137.5 -32t91 -89.5t29.5 -132.5h-379q1 -53 22 -92
t54 -60t71 -21q42 0 81 27.5t66 81.5l66 -50q-28 -51 -97 -85.5t-146 -34.5q-54 0 -106 17.5t-86 45.5q-38 -33 -89.5 -50t-107.5 -17q-57 0 -107.5 17.5zM737 263q-6 75 -36 119t-76 44q-43 0 -76.5 -46t-41.5 -117h230zM322.5 44.5q33.5 16.5 62.5 48.5q-21 33 -30 63.5
t-9 68.5v14l-29 1q-81 0 -114.5 -27t-33.5 -92q0 -44 25 -68.5t64 -24.5q31 0 64.5 16.5z" />
    <glyph glyph-name="ccedilla" unicode="&#xe7;" horiz-adv-x="565" 
d="M463.5 29q-48.5 -32 -110.5 -43l-6 -11q56 -2 89.5 -30.5t33.5 -73.5q0 -53 -36 -84t-89 -31q-37 0 -74.5 16.5t-67.5 48.5l23 35q47 -36 78 -36q23 0 36.5 17t13.5 39t-15 38.5t-42 16.5q-20 0 -49 -12l31 64q-74 4 -132 36t-90.5 86t-32.5 121q0 70 36 125.5t100 87
t144 31.5q75 0 138.5 -33t89.5 -84l-100 -54q-13 66 -42 96.5t-78 30.5q-37 0 -65.5 -24.5t-45 -68.5t-16.5 -99q0 -93 35.5 -147.5t96.5 -54.5q47 0 76 28.5t51 95.5l95 -46q-27 -49 -75.5 -81z" />
    <glyph glyph-name="egrave" unicode="&#xe8;" horiz-adv-x="586" 
d="M158 13.5q-63 31.5 -98.5 87t-35.5 125.5t36 125.5t100 87t144 31.5q78 0 137.5 -32t91 -90t29.5 -132h-379q1 -53 22 -92t54 -60t71 -21q42 0 81 27.5t66 81.5l66 -50q-28 -51 -97 -85.5t-146 -34.5q-79 0 -142 31.5zM415 263q-6 75 -36.5 119t-75.5 44q-43 0 -76.5 -46
t-41.5 -117h230zM124 653h133l102 -165h-66z" />
    <glyph glyph-name="eacute" unicode="&#xe9;" horiz-adv-x="586" 
d="M158 13.5q-63 31.5 -98.5 87t-35.5 125.5t36 125.5t100 87t144 31.5q78 0 137.5 -32t91 -90t29.5 -132h-379q1 -53 22 -92t54 -60t71 -21q42 0 81 27.5t66 81.5l66 -50q-28 -51 -97 -85.5t-146 -34.5q-79 0 -142 31.5zM415 263q-6 75 -36.5 119t-75.5 44q-43 0 -76.5 -46
t-41.5 -117h230zM369 656h133l-169 -165h-66z" />
    <glyph glyph-name="ecircumflex" unicode="&#xea;" horiz-adv-x="586" 
d="M158 13.5q-63 31.5 -98.5 87t-35.5 125.5t36 125.5t100 87t144 31.5q78 0 137.5 -32t91 -90t29.5 -132h-379q1 -53 22 -92t54 -60t71 -21q42 0 81 27.5t66 81.5l66 -50q-28 -51 -97 -85.5t-146 -34.5q-79 0 -142 31.5zM415 263q-6 75 -36.5 119t-75.5 44q-43 0 -76.5 -46
t-41.5 -117h230zM212 654h175l102 -165h-66l-123 122l-124 -122h-66z" />
    <glyph glyph-name="edieresis" unicode="&#xeb;" horiz-adv-x="586" 
d="M158 13.5q-63 31.5 -98.5 87t-35.5 125.5t36 125.5t100 87t144 31.5q78 0 137.5 -32t91 -90t29.5 -132h-379q1 -53 22 -92t54 -60t71 -21q42 0 81 27.5t66 81.5l66 -50q-28 -51 -97 -85.5t-146 -34.5q-79 0 -142 31.5zM415 263q-6 75 -36.5 119t-75.5 44q-43 0 -76.5 -46
t-41.5 -117h230zM149 512.5q-21 19.5 -21 47.5t21 47.5t51 19.5q31 0 52.5 -19t21.5 -48t-21 -48t-52 -19t-52 19.5zM343 512q-21 19 -21 48q0 28 21 47t52 19q30 0 51.5 -19t21.5 -47t-21.5 -47.5t-51.5 -19.5q-31 0 -52 19z" />
    <glyph glyph-name="igrave" unicode="&#xec;" horiz-adv-x="242" 
d="M44 460h154v-470h-154v470zM-46 653h133l102 -165h-66z" />
    <glyph glyph-name="iacute" unicode="&#xed;" horiz-adv-x="242" 
d="M44 460h154v-470h-154v470zM158 652h133l-169 -165h-66z" />
    <glyph glyph-name="icircumflex" unicode="&#xee;" horiz-adv-x="242" 
d="M44 460h154v-470h-154v470zM33 654h175l102 -165h-66l-123 122l-124 -122h-66z" />
    <glyph glyph-name="idieresis" unicode="&#xef;" horiz-adv-x="242" 
d="M44 460h154v-470h-154v470zM-27 511.5q-21 19.5 -21 47.5t21 47.5t51 19.5q31 0 52.5 -19t21.5 -48t-21 -48t-52 -19t-52 19.5zM167 511q-21 19 -21 48q0 28 21 47t52 19q30 0 51.5 -19t21.5 -47t-21.5 -47.5t-51.5 -19.5q-31 0 -52 19z" />
    <glyph glyph-name="eth" unicode="&#xf0;" 
d="M640 534h-74v-544h-154v29q-27 -18 -62.5 -28.5t-72.5 -10.5q-73 0 -130.5 31.5t-90 87t-32.5 126.5q0 73 32 129t90.5 86.5t133.5 30.5q35 0 70 -9.5t62 -26.5v100h-77v48h77v127h154v-127h74v-49zM412 234q0 52 -16.5 96t-44 69.5t-59.5 25.5q-31 0 -55.5 -25.5
t-39 -70t-14.5 -99.5t15.5 -100.5t41.5 -72t57 -26.5q32 0 58 24t41.5 65.5t15.5 92.5v21z" />
    <glyph glyph-name="ntilde" unicode="&#xf1;" horiz-adv-x="604" 
d="M44 460h151v-58q34 32 79 50t95 18q103 0 152.5 -53t49.5 -164v-263h-154v263q0 87 -16.5 126t-51.5 39q-37 0 -70.5 -28t-55.5 -74.5t-25 -101.5v-224h-154v470zM383.5 505q-25.5 9 -68.5 29q-32 16 -49 23t-31 7q-46 0 -46 -44l1 -12h-50q-2 73 20.5 107t72.5 34
q27 0 51.5 -8.5t66.5 -26.5q32 -14 50 -20.5t33 -6.5q20 0 33 11t13 29q0 7 -1 10h50q2 -73 -20.5 -107t-72.5 -34q-27 0 -52.5 9z" />
    <glyph glyph-name="ograve" unicode="&#xf2;" horiz-adv-x="620" 
d="M162 13q-65 31 -101.5 86.5t-36.5 126.5t36.5 126.5t101.5 86.5t148 31t148 -31t101.5 -86.5t36.5 -126.5t-36.5 -126.5t-101.5 -86.5t-148 -31t-148 31zM402.5 81q34.5 55 34.5 152q0 89 -34.5 141t-93.5 52q-58 0 -92 -54t-34 -147t34 -146t92 -53q59 0 93.5 55z
M113 655h133l102 -165h-66z" />
    <glyph glyph-name="oacute" unicode="&#xf3;" horiz-adv-x="620" 
d="M162 13q-65 31 -101.5 86.5t-36.5 126.5t36.5 126.5t101.5 86.5t148 31t148 -31t101.5 -86.5t36.5 -126.5t-36.5 -126.5t-101.5 -86.5t-148 -31t-148 31zM402.5 81q34.5 55 34.5 152q0 89 -34.5 141t-93.5 52q-58 0 -92 -54t-34 -147t34 -146t92 -53q59 0 93.5 55z
M369 654h133l-169 -165h-66z" />
    <glyph glyph-name="ocircumflex" unicode="&#xf4;" horiz-adv-x="620" 
d="M162 13q-65 31 -101.5 86.5t-36.5 126.5t36.5 126.5t101.5 86.5t148 31t148 -31t101.5 -86.5t36.5 -126.5t-36.5 -126.5t-101.5 -86.5t-148 -31t-148 31zM402.5 81q34.5 55 34.5 152q0 89 -34.5 141t-93.5 52q-58 0 -92 -54t-34 -147t34 -146t92 -53q59 0 93.5 55z
M219 654h175l102 -165h-66l-123 122l-124 -122h-66z" />
    <glyph glyph-name="otilde" unicode="&#xf5;" horiz-adv-x="620" 
d="M162 13q-65 31 -101.5 86.5t-36.5 126.5t36.5 126.5t101.5 86.5t148 31t148 -31t101.5 -86.5t36.5 -126.5t-36.5 -126.5t-101.5 -86.5t-148 -31t-148 31zM402.5 81q34.5 55 34.5 152q0 89 -34.5 141t-93.5 52q-58 0 -92 -54t-34 -147t34 -146t92 -53q59 0 93.5 55z
M352.5 499q-25.5 9 -68.5 29q-32 16 -49 23t-31 7q-46 0 -46 -44l1 -12h-50q-2 73 20.5 107t72.5 34q27 0 51.5 -8.5t66.5 -26.5q32 -14 50 -20.5t33 -6.5q20 0 33 11t13 29q0 7 -1 10h50q2 -73 -20.5 -107t-72.5 -34q-27 0 -52.5 9z" />
    <glyph glyph-name="odieresis" unicode="&#xf6;" horiz-adv-x="620" 
d="M162 13q-65 31 -101.5 86.5t-36.5 126.5t36.5 126.5t101.5 86.5t148 31t148 -31t101.5 -86.5t36.5 -126.5t-36.5 -126.5t-101.5 -86.5t-148 -31t-148 31zM402.5 81q34.5 55 34.5 152q0 89 -34.5 141t-93.5 52q-58 0 -92 -54t-34 -147t34 -146t92 -53q59 0 93.5 55z
M151 510.5q-21 19.5 -21 47.5t21 47.5t51 19.5q31 0 52.5 -19t21.5 -48t-21 -48t-52 -19t-52 19.5zM345 510q-21 19 -21 48q0 28 21 47t52 19q30 0 51.5 -19t21.5 -47t-21.5 -47.5t-51.5 -19.5q-31 0 -52 19z" />
    <glyph glyph-name="divide" unicode="&#xf7;" horiz-adv-x="627" 
d="M275 443q-21 19 -21 47t20.5 46.5t51.5 18.5q29 0 49.5 -18.5t20.5 -46.5t-20.5 -47t-49.5 -19q-30 0 -51 19zM67 360h533v-60h-533v60zM274.5 107q-20.5 19 -20.5 47q0 27 21 46t51 19q29 0 49.5 -19t20.5 -46q0 -28 -20.5 -47t-49.5 -19q-31 0 -51.5 19z" />
    <glyph glyph-name="oslash" unicode="&#xf8;" horiz-adv-x="620" 
d="M575.5 323.5q20.5 -44.5 20.5 -97.5q0 -71 -36.5 -126.5t-101.5 -86.5t-148 -31q-87 0 -155 34l-41 -44h-87l75 80q-37 33 -57.5 77.5t-20.5 96.5q0 71 36.5 126.5t101.5 86.5t148 31q85 0 153 -33l43 46h88l-77 -82q38 -33 58.5 -77.5zM191 147l212 226q-17 26 -41 39.5
t-53 13.5q-58 0 -92 -54t-34 -147q0 -41 8 -78zM402.5 81q34.5 55 34.5 152q0 38 -8 75l-213 -227q34 -55 93 -55t93.5 55z" />
    <glyph glyph-name="ugrave" unicode="&#xf9;" horiz-adv-x="604" 
d="M83.5 33q-49.5 53 -49.5 164v263h154v-263q0 -87 16.5 -126t51.5 -39q37 0 70.5 28t55.5 74.5t25 101.5v224h154v-470h-151v58q-34 -32 -79 -50t-95 -18q-103 0 -152.5 53zM132 670h133l102 -165h-66z" />
    <glyph glyph-name="uacute" unicode="&#xfa;" horiz-adv-x="604" 
d="M83.5 33q-49.5 53 -49.5 164v263h154v-263q0 -87 16.5 -126t51.5 -39q37 0 70.5 28t55.5 74.5t25 101.5v224h154v-470h-151v58q-34 -32 -79 -50t-95 -18q-103 0 -152.5 53zM365 666h133l-169 -165h-66z" />
    <glyph glyph-name="ucircumflex" unicode="&#xfb;" horiz-adv-x="604" 
d="M83.5 33q-49.5 53 -49.5 164v263h154v-263q0 -87 16.5 -126t51.5 -39q37 0 70.5 28t55.5 74.5t25 101.5v224h154v-470h-151v58q-34 -32 -79 -50t-95 -18q-103 0 -152.5 53zM212 674h175l102 -165h-66l-123 122l-124 -122h-66z" />
    <glyph glyph-name="udieresis" unicode="&#xfc;" horiz-adv-x="604" 
d="M83.5 33q-49.5 53 -49.5 164v263h154v-263q0 -87 16.5 -126t51.5 -39q37 0 70.5 28t55.5 74.5t25 101.5v224h154v-470h-151v58q-34 -32 -79 -50t-95 -18q-103 0 -152.5 53zM175 511.5q-21 19.5 -21 47.5t21 47.5t51 19.5q31 0 52.5 -19t21.5 -48t-21 -48t-52 -19
t-52 19.5zM369 511q-21 19 -21 48q0 28 21 47t52 19q30 0 51.5 -19t21.5 -47t-21.5 -47.5t-51.5 -19.5q-31 0 -52 19z" />
    <glyph glyph-name="yacute" unicode="&#xfd;" horiz-adv-x="605" 
d="M172 -198.5q-57 22.5 -83 60.5l41 66q17 -41 61 -69.5t91 -28.5q54 0 89.5 43.5t35.5 135.5v37q-34 -32 -78 -49t-93 -17q-103 0 -152.5 53t-49.5 164v263h154v-263q0 -87 16.5 -126t51.5 -39q37 0 70.5 28t55.5 74.5t25 101.5v224h154v-450q0 -78 -38 -130t-98.5 -76.5
t-128.5 -24.5q-67 0 -124 22.5zM338 655h133l-169 -165h-66z" />
    <glyph glyph-name="thorn" unicode="&#xfe;" 
d="M44 710h151v-278q28 18 63 28.5t72 10.5q75 0 133.5 -30.5t90.5 -86.5t32 -129q0 -71 -32.5 -126.5t-90 -87t-130.5 -31.5q-38 0 -73 9t-62 25v-224h-154v920zM370 57.5q26 26.5 41.5 72t15.5 100.5t-14.5 99.5t-39 70t-55.5 25.5q-32 0 -59.5 -25.5t-44 -69.5t-16.5 -96
v-20q0 -52 15.5 -94t41.5 -65.5t58 -23.5q31 0 57 26.5z" />
    <glyph glyph-name="ydieresis" unicode="&#xff;" horiz-adv-x="605" 
d="M172 -198.5q-57 22.5 -83 60.5l41 66q17 -41 61 -69.5t91 -28.5q54 0 89.5 43.5t35.5 135.5v37q-34 -32 -78 -49t-93 -17q-103 0 -152.5 53t-49.5 164v263h154v-263q0 -87 16.5 -126t51.5 -39q37 0 70.5 28t55.5 74.5t25 101.5v224h154v-450q0 -78 -38 -130t-98.5 -76.5
t-128.5 -24.5q-67 0 -124 22.5zM143 513.5q-21 19.5 -21 47.5t21 47.5t51 19.5q31 0 52.5 -19t21.5 -48t-21 -48t-52 -19t-52 19.5zM337 513q-21 19 -21 48q0 28 21 47t52 19q30 0 51.5 -19t21.5 -47t-21.5 -47.5t-51.5 -19.5q-31 0 -52 19z" />
    <glyph glyph-name="Amacron" unicode="&#x100;" horiz-adv-x="750" 
d="M308 710h129l293 -720h-161l-93 228h-287l-92 -228h-78zM453 275l-122 298l-120 -298h242zM181 824h374v-79h-374v79z" />
    <glyph glyph-name="amacron" unicode="&#x101;" 
d="M146.5 11.5q-57.5 31.5 -90 87t-32.5 126.5q0 73 32 129t90.5 86.5t133.5 30.5q37 0 72 -10.5t63 -28.5v28h151v-470h-154v29q-27 -18 -62.5 -28.5t-72.5 -10.5q-73 0 -130.5 31.5zM355 55q26 24 41.5 65.5t15.5 92.5v21q0 52 -16.5 96t-44 69.5t-59.5 25.5
q-31 0 -55.5 -25.5t-39 -70t-14.5 -99.5t15.5 -100.5t41.5 -72t57 -26.5q32 0 58 24zM133 593h374v-79h-374v79z" />
    <glyph glyph-name="Abreve" unicode="&#x102;" horiz-adv-x="750" 
d="M308 710h129l293 -720h-161l-93 228h-287l-92 -228h-78zM453 275l-122 298l-120 -298h242zM276 769q-43 24 -66.5 67.5t-22.5 99.5h53q-1 -50 34 -77.5t100 -27.5t100 27.5t34 77.5h53q1 -56 -22.5 -99.5t-66.5 -67.5t-98 -24t-98 24z" />
    <glyph glyph-name="abreve" unicode="&#x103;" 
d="M146.5 11.5q-57.5 31.5 -90 87t-32.5 126.5q0 73 32 129t90.5 86.5t133.5 30.5q37 0 72 -10.5t63 -28.5v28h151v-470h-154v29q-27 -18 -62.5 -28.5t-72.5 -10.5q-73 0 -130.5 31.5zM355 55q26 24 41.5 65.5t15.5 92.5v21q0 52 -16.5 96t-44 69.5t-59.5 25.5
q-31 0 -55.5 -25.5t-39 -70t-14.5 -99.5t15.5 -100.5t41.5 -72t57 -26.5q32 0 58 24zM223 515q-43 24 -66.5 67.5t-22.5 99.5h53q-1 -50 34 -77.5t100 -27.5t100 27.5t34 77.5h53q1 -56 -22.5 -99.5t-66.5 -67.5t-98 -24t-98 24z" />
    <glyph glyph-name="Aogonek" unicode="&#x104;" horiz-adv-x="750" 
d="M774 -179q-27 -37 -64.5 -56t-75.5 -19q-44 0 -74 24.5t-30 67.5q0 65 73 152h-34l-93 228h-287l-92 -228h-78l289 720h129l293 -720h-60q-21 -24 -31.5 -50.5t-10.5 -50.5q0 -30 15.5 -49.5t40.5 -19.5q24 0 55 22zM453 275l-122 298l-120 -298h242z" />
    <glyph glyph-name="aogonek" unicode="&#x105;" 
d="M644 -154q-27 -37 -64.5 -56t-75.5 -19q-44 0 -74 24.5t-30 67.5q0 54 53 127h-41v29q-27 -18 -62.5 -28.5t-72.5 -10.5q-73 0 -130.5 31.5t-90 87t-32.5 126.5q0 73 32 129t90.5 86.5t133.5 30.5q37 0 72 -10.5t63 -28.5v28h151v-470h-45q-23 -37 -23 -76
q0 -30 15.5 -49.5t40.5 -19.5q24 0 55 22zM412 234q0 52 -16.5 96t-44 69.5t-59.5 25.5q-31 0 -55.5 -25.5t-39 -70t-14.5 -99.5t15.5 -100.5t41.5 -72t57 -26.5q32 0 58 24t41.5 65.5t15.5 92.5v21z" />
    <glyph glyph-name="Cacute" unicode="&#x106;" horiz-adv-x="811" 
d="M252.5 27.5q-94.5 47.5 -147.5 131.5t-53 190t53.5 190t148 131.5t213.5 47.5q66 0 130 -19.5t110.5 -52t61.5 -69.5l-101 -35q-51 135 -191 135q-71 0 -130.5 -43.5t-94.5 -118.5t-35 -164q0 -91 34.5 -166.5t94 -119.5t130.5 -44q140 0 191 135l101 -35
q-15 -37 -61.5 -69.5t-110.5 -52t-130 -19.5q-119 0 -213.5 47.5zM521 911h133l-169 -165h-66z" />
    <glyph glyph-name="cacute" unicode="&#x107;" horiz-adv-x="565" 
d="M158 13.5q-63 31.5 -98.5 87t-35.5 125.5t36 125.5t100 87t144 31.5q75 0 138.5 -33t89.5 -84l-100 -54q-13 66 -42 96.5t-78 30.5q-37 0 -65.5 -24.5t-45 -68.5t-16.5 -99q0 -93 35.5 -147.5t96.5 -54.5q47 0 76 28.5t51 95.5l95 -46q-32 -59 -96.5 -93.5t-142.5 -34.5
q-79 0 -142 31.5zM368 657h133l-169 -165h-66z" />
    <glyph glyph-name="Cdotaccent" unicode="&#x10a;" horiz-adv-x="811" 
d="M252.5 27.5q-94.5 47.5 -147.5 131.5t-53 190t53.5 190t148 131.5t213.5 47.5q66 0 130 -19.5t110.5 -52t61.5 -69.5l-101 -35q-51 135 -191 135q-71 0 -130.5 -43.5t-94.5 -118.5t-35 -164q0 -91 34.5 -166.5t94 -119.5t130.5 -44q140 0 191 135l101 -35
q-15 -37 -61.5 -69.5t-110.5 -52t-130 -19.5q-119 0 -213.5 47.5zM409.5 767q-20.5 19 -20.5 48q0 28 20.5 47.5t50.5 19.5q31 0 52 -19.5t21 -47.5q0 -29 -20.5 -48t-51.5 -19t-51.5 19z" />
    <glyph glyph-name="cdotaccent" unicode="&#x10b;" horiz-adv-x="565" 
d="M158 13.5q-63 31.5 -98.5 87t-35.5 125.5t36 125.5t100 87t144 31.5q75 0 138.5 -33t89.5 -84l-100 -54q-13 66 -42 96.5t-78 30.5q-37 0 -65.5 -24.5t-45 -68.5t-16.5 -99q0 -93 35.5 -147.5t96.5 -54.5q47 0 76 28.5t51 95.5l95 -46q-32 -59 -96.5 -93.5t-142.5 -34.5
q-79 0 -142 31.5zM262.5 511q-20.5 19 -20.5 48q0 28 20.5 47.5t50.5 19.5q31 0 52 -19.5t21 -47.5q0 -29 -20.5 -48t-51.5 -19t-51.5 19z" />
    <glyph glyph-name="Ccaron" unicode="&#x10c;" horiz-adv-x="811" 
d="M252.5 27.5q-94.5 47.5 -147.5 131.5t-53 190t53.5 190t148 131.5t213.5 47.5q66 0 130 -19.5t110.5 -52t61.5 -69.5l-101 -35q-51 135 -191 135q-71 0 -130.5 -43.5t-94.5 -118.5t-35 -164q0 -91 34.5 -166.5t94 -119.5t130.5 -44q140 0 191 135l101 -35
q-15 -37 -61.5 -69.5t-110.5 -52t-130 -19.5q-119 0 -213.5 47.5zM278 911h66l124 -122l123 122h66l-102 -165h-175z" />
    <glyph glyph-name="ccaron" unicode="&#x10d;" horiz-adv-x="565" 
d="M158 13.5q-63 31.5 -98.5 87t-35.5 125.5t36 125.5t100 87t144 31.5q75 0 138.5 -33t89.5 -84l-100 -54q-13 66 -42 96.5t-78 30.5q-37 0 -65.5 -24.5t-45 -68.5t-16.5 -99q0 -93 35.5 -147.5t96.5 -54.5q47 0 76 28.5t51 95.5l95 -46q-32 -59 -96.5 -93.5t-142.5 -34.5
q-79 0 -142 31.5zM116 655h66l124 -122l123 122h66l-102 -165h-175z" />
    <glyph glyph-name="Dcaron" unicode="&#x10e;" horiz-adv-x="798" 
d="M52 710h276q131 0 228 -41.5t148.5 -119t51.5 -182.5q0 -118 -50.5 -203t-146.5 -129.5t-230 -44.5h-277v720zM329 34q131 0 197.5 83.5t66.5 246.5q0 150 -67 226.5t-198 76.5h-118v-633h119zM170 895h66l124 -122l123 122h66l-102 -165h-175z" />
    <glyph glyph-name="dcaron" unicode="&#x10f;" 
d="M146.5 11.5q-57.5 31.5 -90 87t-32.5 126.5q0 73 32 129t90.5 86.5t133.5 30.5q35 0 70 -9.5t62 -26.5v275h154v-720h-154v29q-27 -18 -62.5 -28.5t-72.5 -10.5q-73 0 -130.5 31.5zM355 55q26 24 41.5 65.5t15.5 92.5v21q0 52 -16.5 96t-44 69.5t-59.5 25.5
q-31 0 -55.5 -25.5t-39 -70t-14.5 -99.5t15.5 -100.5t41.5 -72t57 -26.5q32 0 58 24zM636 528q12 20 12 40q0 7 -3.5 12t-13.5 13q-23 17 -31.5 30.5t-8.5 33.5q0 28 20.5 47t50.5 19q22 0 40 -11.5t26 -31.5q6 -17 6 -35q0 -32 -16.5 -69t-44.5 -68z" />
    <glyph glyph-name="Dcroat" unicode="&#x110;" horiz-adv-x="798" 
d="M52 330h-80v53h80v327h276q131 0 228 -41.5t148.5 -119t51.5 -182.5q0 -118 -50.5 -203t-146.5 -129.5t-230 -44.5h-277v340zM329 34q131 0 197.5 83.5t66.5 246.5q0 150 -67 226.5t-198 76.5h-118v-284h127v-53h-127v-296h119z" />
    <glyph glyph-name="dcroat" unicode="&#x111;" 
d="M640 534h-74v-544h-154v29q-27 -18 -62.5 -28.5t-72.5 -10.5q-73 0 -130.5 31.5t-90 87t-32.5 126.5q0 73 32 129t90.5 86.5t133.5 30.5q35 0 70 -9.5t62 -26.5v100h-77v48h77v127h154v-127h74v-49zM412 234q0 52 -16.5 96t-44 69.5t-59.5 25.5q-31 0 -55.5 -25.5
t-39 -70t-14.5 -99.5t15.5 -100.5t41.5 -72t57 -26.5q32 0 58 24t41.5 65.5t15.5 92.5v21z" />
    <glyph glyph-name="Emacron" unicode="&#x112;" horiz-adv-x="665" 
d="M52 710h561v-57h-403v-263h310v-57h-310v-286h403v-57h-561v720zM141 844h374v-79h-374v79z" />
    <glyph glyph-name="emacron" unicode="&#x113;" horiz-adv-x="586" 
d="M158 13.5q-63 31.5 -98.5 87t-35.5 125.5t36 125.5t100 87t144 31.5q78 0 137.5 -32t91 -90t29.5 -132h-379q1 -53 22 -92t54 -60t71 -21q42 0 81 27.5t66 81.5l66 -50q-28 -51 -97 -85.5t-146 -34.5q-79 0 -142 31.5zM415 263q-6 75 -36.5 119t-75.5 44q-43 0 -76.5 -46
t-41.5 -117h230zM113 593h374v-79h-374v79z" />
    <glyph glyph-name="Edotaccent" unicode="&#x116;" horiz-adv-x="665" 
d="M52 710h561v-57h-403v-263h310v-57h-310v-286h403v-57h-561v720zM278.5 769q-20.5 19 -20.5 48q0 28 20.5 47.5t50.5 19.5q31 0 52 -19.5t21 -47.5q0 -29 -20.5 -48t-51.5 -19t-51.5 19z" />
    <glyph glyph-name="edotaccent" unicode="&#x117;" horiz-adv-x="586" 
d="M158 13.5q-63 31.5 -98.5 87t-35.5 125.5t36 125.5t100 87t144 31.5q78 0 137.5 -32t91 -90t29.5 -132h-379q1 -53 22 -92t54 -60t71 -21q42 0 81 27.5t66 81.5l66 -50q-28 -51 -97 -85.5t-146 -34.5q-79 0 -142 31.5zM415 263q-6 75 -36.5 119t-75.5 44q-43 0 -76.5 -46
t-41.5 -117h230zM243.5 510q-20.5 19 -20.5 48q0 28 20.5 47.5t50.5 19.5q31 0 52 -19.5t21 -47.5q0 -29 -20.5 -48t-51.5 -19t-51.5 19z" />
    <glyph glyph-name="Eogonek" unicode="&#x118;" horiz-adv-x="665" 
d="M210 653v-263h310v-57h-310v-286h403v-57h-226q-22 -25 -33.5 -52.5t-11.5 -52.5q0 -30 15.5 -49.5t40.5 -19.5q24 0 55 22l35 -21q-27 -37 -64.5 -56t-75.5 -19q-44 0 -74 24.5t-30 67.5q0 66 77 156h-269v720h561v-57h-403z" />
    <glyph glyph-name="eogonek" unicode="&#x119;" horiz-adv-x="586" 
d="M441.5 438q59.5 -32 91 -90t29.5 -132h-379q1 -53 22 -92t54 -60t71 -21h1l2 2l3 -2q41 2 78 29.5t63 79.5l66 -50q-23 -43 -76 -74.5t-118 -41.5q-26 -40 -26 -80q0 -30 15.5 -49.5t40.5 -19.5q24 0 55 22l35 -21q-27 -37 -64.5 -56t-75.5 -19q-44 0 -74 24.5t-30 67.5
q0 56 54 128q-74 4 -132 36t-90.5 86t-32.5 121q0 70 36 125.5t100 87t144 31.5q78 0 137.5 -32zM415 263q-6 75 -36.5 119t-75.5 44q-43 0 -76.5 -46t-41.5 -117h230z" />
    <glyph glyph-name="Ecaron" unicode="&#x11a;" horiz-adv-x="665" 
d="M52 710h561v-57h-403v-263h310v-57h-310v-286h403v-57h-561v720zM171 928h66l124 -122l123 122h66l-102 -165h-175z" />
    <glyph glyph-name="ecaron" unicode="&#x11b;" horiz-adv-x="586" 
d="M158 13.5q-63 31.5 -98.5 87t-35.5 125.5t36 125.5t100 87t144 31.5q78 0 137.5 -32t91 -90t29.5 -132h-379q1 -53 22 -92t54 -60t71 -21q42 0 81 27.5t66 81.5l66 -50q-28 -51 -97 -85.5t-146 -34.5q-79 0 -142 31.5zM415 263q-6 75 -36.5 119t-75.5 44q-43 0 -76.5 -46
t-41.5 -117h230zM105 655h66l124 -122l123 122h66l-102 -165h-175z" />
    <glyph glyph-name="Gbreve" unicode="&#x11e;" horiz-adv-x="842" 
d="M252.5 27.5q-94.5 47.5 -147.5 131.5t-53 190t53.5 190t148 131.5t213.5 47.5q66 0 130 -19.5t110.5 -52t61.5 -69.5l-101 -35q-51 135 -191 135q-71 0 -131.5 -43.5t-95.5 -118.5t-35 -164q0 -91 34.5 -166t94.5 -119t132 -44q49 0 89 15.5t67 44.5v218h158v-80
q0 -68 -42 -123t-116 -86t-166 -31q-119 0 -213.5 47.5zM389 771q-43 24 -66.5 67.5t-22.5 99.5h53q-1 -50 34 -77.5t100 -27.5t100 27.5t34 77.5h53q1 -56 -22.5 -99.5t-66.5 -67.5t-98 -24t-98 24z" />
    <glyph glyph-name="gbreve" unicode="&#x11f;" 
d="M175.5 -202.5q-55.5 23.5 -81.5 64.5l40 65q23 -45 67 -74t88 -29q53 0 88 45.5t35 139.5v10q-27 -18 -62.5 -28.5t-72.5 -10.5q-73 0 -130.5 31.5t-90 87t-32.5 126.5q0 73 32 129t90.5 86.5t133.5 30.5q37 0 72 -10.5t63 -28.5v28h151v-450q0 -78 -38.5 -131.5
t-99.5 -79t-130 -25.5q-67 0 -122.5 23.5zM355 63q26 24 41.5 65.5t15.5 92.5v8q0 52 -16.5 96t-44 69.5t-59.5 25.5q-31 0 -56 -24.5t-39 -67.5t-14 -98q0 -54 15 -97.5t41 -68.5t58 -25t58 24zM218 531q-43 24 -66.5 67.5t-22.5 99.5h53q-1 -50 34 -77.5t100 -27.5
t100 27.5t34 77.5h53q1 -56 -22.5 -99.5t-66.5 -67.5t-98 -24t-98 24z" />
    <glyph glyph-name="Gdotaccent" unicode="&#x120;" horiz-adv-x="842" 
d="M252.5 27.5q-94.5 47.5 -147.5 131.5t-53 190t53.5 190t148 131.5t213.5 47.5q66 0 130 -19.5t110.5 -52t61.5 -69.5l-101 -35q-51 135 -191 135q-71 0 -131.5 -43.5t-95.5 -118.5t-35 -164q0 -91 34.5 -166t94.5 -119t132 -44q49 0 89 15.5t67 44.5v218h158v-80
q0 -68 -42 -123t-116 -86t-166 -31q-119 0 -213.5 47.5zM430.5 766q-20.5 19 -20.5 48q0 28 20.5 47.5t50.5 19.5q31 0 52 -19.5t21 -47.5q0 -29 -20.5 -48t-51.5 -19t-51.5 19z" />
    <glyph glyph-name="gdotaccent" unicode="&#x121;" 
d="M175.5 -202.5q-55.5 23.5 -81.5 64.5l40 65q23 -45 67 -74t88 -29q53 0 88 45.5t35 139.5v10q-27 -18 -62.5 -28.5t-72.5 -10.5q-73 0 -130.5 31.5t-90 87t-32.5 126.5q0 73 32 129t90.5 86.5t133.5 30.5q37 0 72 -10.5t63 -28.5v28h151v-450q0 -78 -38.5 -131.5
t-99.5 -79t-130 -25.5q-67 0 -122.5 23.5zM355 63q26 24 41.5 65.5t15.5 92.5v8q0 52 -16.5 96t-44 69.5t-59.5 25.5q-31 0 -56 -24.5t-39 -67.5t-14 -98q0 -54 15 -97.5t41 -68.5t58 -25t58 24zM243.5 536q-20.5 19 -20.5 48q0 28 20.5 47.5t50.5 19.5q31 0 52 -19.5
t21 -47.5q0 -29 -20.5 -48t-51.5 -19t-51.5 19z" />
    <glyph glyph-name="uni0122" unicode="&#x122;" horiz-adv-x="842" 
d="M252.5 27.5q-94.5 47.5 -147.5 131.5t-53 190t53.5 190t148 131.5t213.5 47.5q66 0 130 -19.5t110.5 -52t61.5 -69.5l-101 -35q-51 135 -191 135q-71 0 -131.5 -43.5t-95.5 -118.5t-35 -164q0 -91 34.5 -166t94.5 -119t132 -44q49 0 89 15.5t67 44.5v218h158v-80
q0 -68 -42 -123t-116 -86t-166 -31q-119 0 -213.5 47.5zM472 -247q12 20 12 40q0 7 -3.5 12t-13.5 13q-23 17 -31.5 30.5t-8.5 33.5q0 28 20.5 47t50.5 19q22 0 40 -11.5t26 -31.5q6 -17 6 -35q0 -32 -16.5 -69t-44.5 -68z" />
    <glyph glyph-name="uni0123" unicode="&#x123;" 
d="M175.5 -202.5q-55.5 23.5 -81.5 64.5l40 65q23 -45 67 -74t88 -29q53 0 88 45.5t35 139.5v10q-27 -18 -62.5 -28.5t-72.5 -10.5q-73 0 -130.5 31.5t-90 87t-32.5 126.5q0 73 32 129t90.5 86.5t133.5 30.5q37 0 72 -10.5t63 -28.5v28h151v-450q0 -78 -38.5 -131.5
t-99.5 -79t-130 -25.5q-67 0 -122.5 23.5zM355 63q26 24 41.5 65.5t15.5 92.5v8q0 52 -16.5 96t-44 69.5t-59.5 25.5q-31 0 -56 -24.5t-39 -67.5t-14 -98q0 -54 15 -97.5t41 -68.5t58 -25t58 24zM311 -432q12 20 12 40q0 7 -3.5 12t-13.5 13q-23 17 -31.5 30.5t-8.5 33.5
q0 28 20.5 47t50.5 19q22 0 40 -11.5t26 -31.5q6 -17 6 -35q0 -32 -16.5 -69t-44.5 -68z" />
    <glyph glyph-name="Hbar" unicode="&#x126;" horiz-adv-x="743" 
d="M52 710h158v-198h323v198h158v-720h-158v343h-323v-343h-158v720zM533 390v65h-323v-65h323z" />
    <glyph glyph-name="hbar" unicode="&#x127;" horiz-adv-x="605" 
d="M521.5 417q49.5 -53 49.5 -164v-263h-154v263q0 87 -16.5 126t-51.5 39q-37 0 -70.5 -28t-55.5 -74.5t-25 -101.5v-224h-154v520h-50v51h50v149h154v-149h71v-51h-71v-106q34 32 78 49t93 17q103 0 152.5 -53z" />
    <glyph glyph-name="Imacron" unicode="&#x12a;" horiz-adv-x="338" 
d="M62 710h158v-720h-158v720zM-18 834h374v-79h-374v79z" />
    <glyph glyph-name="imacron" unicode="&#x12b;" horiz-adv-x="242" 
d="M44 460h154v-470h-154v470zM-65 573h374v-79h-374v79z" />
    <glyph glyph-name="Iogonek" unicode="&#x12e;" horiz-adv-x="282" 
d="M272 -180q-27 -37 -64.5 -56t-75.5 -19q-44 0 -74 24.5t-30 67.5q0 66 74 153h-40v720h158v-720h-51q-22 -25 -32.5 -51.5t-10.5 -50.5q0 -30 15.5 -49.5t40.5 -19.5q24 0 55 22z" />
    <glyph glyph-name="iogonek" unicode="&#x12f;" horiz-adv-x="242" 
d="M57.5 541q-26.5 22 -26.5 52t26.5 52t62.5 22t62.5 -22t26.5 -52t-26.5 -52t-62.5 -22t-62.5 22zM273 -162q-27 -37 -64.5 -56t-75.5 -19q-44 0 -74 24.5t-30 67.5q0 59 59 135h-44v470h154v-470h-42q-29 -42 -29 -84q0 -30 15.5 -49.5t40.5 -19.5q24 0 55 22z" />
    <glyph glyph-name="Idotaccent" unicode="&#x130;" horiz-adv-x="282" 
d="M62 710h158v-720h-158v720zM90.5 772q-20.5 19 -20.5 48q0 28 20.5 47.5t50.5 19.5q31 0 52 -19.5t21 -47.5q0 -29 -20.5 -48t-51.5 -19t-51.5 19z" />
    <glyph glyph-name="dotlessi" unicode="&#x131;" horiz-adv-x="242" 
d="M44 460h154v-470h-154v470z" />
    <glyph glyph-name="uni0136" unicode="&#x136;" horiz-adv-x="705" 
d="M52 710h158v-296l359 296h103l-413 -340l421 -380h-191l-279 251v-251h-158v720zM314 -232q12 20 12 40q0 7 -3.5 12t-13.5 13q-23 17 -31.5 30.5t-8.5 33.5q0 28 20.5 47t50.5 19q22 0 40 -11.5t26 -31.5q6 -17 6 -35q0 -32 -16.5 -69t-44.5 -68z" />
    <glyph glyph-name="uni0137" unicode="&#x137;" horiz-adv-x="572" 
d="M55 710h132v-503l285 253h92l-245 -217l239 -253h-163l-165 173l-43 -38v-135h-132v720zM281 -253q12 20 12 40q0 7 -3.5 12t-13.5 13q-23 17 -31.5 30.5t-8.5 33.5q0 28 20.5 47t50.5 19q22 0 40 -11.5t26 -31.5q6 -17 6 -35q0 -32 -16.5 -69t-44.5 -68z" />
    <glyph glyph-name="Lacute" unicode="&#x139;" horiz-adv-x="625" 
d="M52 710h158v-663h383v-57h-541v720zM158 912h133l-169 -165h-66z" />
    <glyph glyph-name="lacute" unicode="&#x13a;" horiz-adv-x="262" 
d="M54 701l154 56v-767h-154v711zM216 914h133l-169 -165h-66z" />
    <glyph glyph-name="uni013B" unicode="&#x13b;" horiz-adv-x="625" 
d="M52 710h158v-663h383v-57h-541v720zM298 -244q12 20 12 40q0 7 -3.5 12t-13.5 13q-23 17 -31.5 30.5t-8.5 33.5q0 28 20.5 47t50.5 19q22 0 40 -11.5t26 -31.5q6 -17 6 -35q0 -32 -16.5 -69t-44.5 -68z" />
    <glyph glyph-name="uni013C" unicode="&#x13c;" horiz-adv-x="262" 
d="M54 701l154 56v-767h-154v711zM127 -235q12 20 12 40q0 7 -3.5 12t-13.5 13q-23 17 -31.5 30.5t-8.5 33.5q0 28 20.5 47t50.5 19q22 0 40 -11.5t26 -31.5q6 -17 6 -35q0 -32 -16.5 -69t-44.5 -68z" />
    <glyph glyph-name="Lcaron" unicode="&#x13d;" horiz-adv-x="625" 
d="M52 710h158v-663h383v-57h-541v720zM326 528q12 20 12 40q0 7 -3.5 12t-13.5 13q-23 17 -31.5 30.5t-8.5 33.5q0 28 20.5 47t50.5 19q22 0 40 -11.5t26 -31.5q6 -17 6 -35q0 -32 -16.5 -69t-44.5 -68z" />
    <glyph glyph-name="lcaron" unicode="&#x13e;" horiz-adv-x="262" 
d="M54 701l154 56v-767h-154v711zM291 567q12 20 12 40q0 7 -3.5 12t-13.5 13q-23 17 -31.5 30.5t-8.5 33.5q0 28 20.5 47t50.5 19q22 0 40 -11.5t26 -31.5q6 -17 6 -35q0 -32 -16.5 -69t-44.5 -68z" />
    <glyph glyph-name="Lslash" unicode="&#x141;" horiz-adv-x="625" 
d="M593 47v-57h-541v191l-6 -7h-98l104 128v408h158v-214l3 4h99l-102 -125v-328h383z" />
    <glyph glyph-name="lslash" unicode="&#x142;" horiz-adv-x="262" 
d="M208 358v-368h-154v208l-16 -17l-39 37l55 57v426l154 56v-322l24 25l38 -38z" />
    <glyph glyph-name="Nacute" unicode="&#x143;" horiz-adv-x="743" 
d="M52 710h146l416 -519v519h77v-720h-90l-472 586v-586h-77v720zM450 912h133l-169 -165h-66z" />
    <glyph glyph-name="nacute" unicode="&#x144;" horiz-adv-x="604" 
d="M44 460h151v-58q34 32 79 50t95 18q103 0 152.5 -53t49.5 -164v-263h-154v263q0 87 -16.5 126t-51.5 39q-37 0 -70.5 -28t-55.5 -74.5t-25 -101.5v-224h-154v470zM361 677h133l-169 -165h-66z" />
    <glyph glyph-name="uni0145" unicode="&#x145;" horiz-adv-x="743" 
d="M52 710h146l416 -519v519h77v-720h-90l-472 586v-586h-77v720zM362 -213q12 20 12 40q0 7 -3.5 12t-13.5 13q-23 17 -31.5 30.5t-8.5 33.5q0 28 20.5 47t50.5 19q22 0 40 -11.5t26 -31.5q6 -17 6 -35q0 -32 -16.5 -69t-44.5 -68z" />
    <glyph glyph-name="uni0146" unicode="&#x146;" horiz-adv-x="604" 
d="M44 460h151v-58q34 32 79 50t95 18q103 0 152.5 -53t49.5 -164v-263h-154v263q0 87 -16.5 126t-51.5 39q-37 0 -70.5 -28t-55.5 -74.5t-25 -101.5v-224h-154v470zM271 -222q12 20 12 40q0 7 -3.5 12t-13.5 13q-23 17 -31.5 30.5t-8.5 33.5q0 28 20.5 47t50.5 19
q22 0 40 -11.5t26 -31.5q6 -17 6 -35q0 -32 -16.5 -69t-44.5 -68z" />
    <glyph glyph-name="Ncaron" unicode="&#x147;" horiz-adv-x="743" 
d="M52 710h146l416 -519v519h77v-720h-90l-472 586v-586h-77v720zM191 910h66l124 -122l123 122h66l-102 -165h-175z" />
    <glyph glyph-name="ncaron" unicode="&#x148;" horiz-adv-x="604" 
d="M44 460h151v-58q34 32 79 50t95 18q103 0 152.5 -53t49.5 -164v-263h-154v263q0 87 -16.5 126t-51.5 39q-37 0 -70.5 -28t-55.5 -74.5t-25 -101.5v-224h-154v470zM123 675h66l124 -122l123 122h66l-102 -165h-175z" />
    <glyph glyph-name="Eng" unicode="&#x14a;" horiz-adv-x="743" 
d="M499 -189v36q18 -2 24 -2q49 0 70.5 36t20.5 92l-16 21l-469 582v-586h-77v720h146l416 -519v519h77v-730q0 -80 -44 -125t-122 -45q-17 0 -26 1z" />
    <glyph glyph-name="eng" unicode="&#x14b;" horiz-adv-x="604" 
d="M347 -225l-18 13v3l23 14q4 -1 11 -1q30 0 42 44t12 156v249q0 87 -16.5 126t-51.5 39q-37 0 -70.5 -28t-55.5 -74.5t-25 -101.5v-224h-154v470h151v-58q34 32 79 50t95 18q103 0 152.5 -53t49.5 -164v-303q0 -65 -18 -103t-59 -55.5t-112 -17.5q-23 0 -35 1z" />
    <glyph glyph-name="Omacron" unicode="&#x14c;" horiz-adv-x="952" 
d="M258.5 28q-96.5 48 -151.5 132t-55 189t55 189.5t152 133t217 48.5t217 -48t152 -133t55 -190t-55 -189t-152 -132t-218 -48q-120 0 -216.5 48zM611 68q59 41 92.5 114.5t33.5 166.5q0 92 -34 166t-93.5 116t-133.5 42t-133.5 -42t-93.5 -116t-34 -166q0 -93 33.5 -166.5
t93 -114.5t134.5 -41q76 0 135 41zM285 850h374v-79h-374v79z" />
    <glyph glyph-name="omacron" unicode="&#x14d;" horiz-adv-x="620" 
d="M162 13q-65 31 -101.5 86.5t-36.5 126.5t36.5 126.5t101.5 86.5t148 31t148 -31t101.5 -86.5t36.5 -126.5t-36.5 -126.5t-101.5 -86.5t-148 -31t-148 31zM402.5 81q34.5 55 34.5 152q0 89 -34.5 141t-93.5 52q-58 0 -92 -54t-34 -147t34 -146t92 -53q59 0 93.5 55z
M118 584h374v-79h-374v79z" />
    <glyph glyph-name="Ohungarumlaut" unicode="&#x150;" horiz-adv-x="952" 
d="M258.5 28q-96.5 48 -151.5 132t-55 189t55 189.5t152 133t217 48.5t217 -48t152 -133t55 -190t-55 -189t-152 -132t-218 -48q-120 0 -216.5 48zM611 68q59 41 92.5 114.5t33.5 166.5q0 92 -34 166t-93.5 116t-133.5 42t-133.5 -42t-93.5 -116t-34 -166q0 -93 33.5 -166.5
t93 -114.5t134.5 -41q76 0 135 41zM447 910h132l-169 -165h-65zM610 910h131l-168 -165h-65z" />
    <glyph glyph-name="ohungarumlaut" unicode="&#x151;" horiz-adv-x="620" 
d="M162 13q-65 31 -101.5 86.5t-36.5 126.5t36.5 126.5t101.5 86.5t148 31t148 -31t101.5 -86.5t36.5 -126.5t-36.5 -126.5t-101.5 -86.5t-148 -31t-148 31zM402.5 81q34.5 55 34.5 152q0 89 -34.5 141t-93.5 52q-58 0 -92 -54t-34 -147t34 -146t92 -53q59 0 93.5 55z
M272 654h132l-169 -165h-65zM435 654h131l-168 -165h-65z" />
    <glyph glyph-name="OE" unicode="&#x152;" horiz-adv-x="1335" 
d="M258.5 28q-96.5 48 -151.5 132t-55 189t55 189.5t152 133t217 48.5q73 0 142.5 -20.5t123.5 -56.5v67h541v-57h-383v-263h290v-57h-290v-286h383v-57h-541v66q-53 -36 -123 -56t-144 -20q-120 0 -216.5 48zM611 68q59 41 92.5 114.5t33.5 166.5q0 92 -34 166t-93.5 116
t-133.5 42t-133.5 -42t-93.5 -116t-34 -166q0 -93 33.5 -166.5t93 -114.5t134.5 -41q76 0 135 41z" />
    <glyph glyph-name="oe" unicode="&#x153;" horiz-adv-x="999" 
d="M162 13q-65 31 -101.5 86.5t-36.5 126.5t36.5 126.5t101.5 86.5t148 31q61 0 116 -18t91 -50q35 32 88 50t112 18q78 0 137.5 -32t91 -89.5t29.5 -132.5h-379q1 -53 22 -92t54 -60t71 -21q42 0 81 27.5t66 81.5l66 -50q-28 -51 -97 -85.5t-146 -34.5q-58 0 -110 18
t-87 50q-36 -32 -90.5 -50t-115.5 -18q-83 0 -148 31zM402 79q34 53 35 147v5q1 89 -34 142t-94 53q-58 0 -92 -54t-34 -147t34 -146t92 -53q59 0 93 53zM828 263q-6 75 -36.5 119t-75.5 44q-43 0 -76.5 -46t-41.5 -117h230z" />
    <glyph glyph-name="Racute" unicode="&#x154;" horiz-adv-x="749" 
d="M62 710h321q141 0 222.5 -56t81.5 -154q0 -79 -54 -131.5t-153 -70.5l195 -308h-151l-190 300h-134v-300h-138v720zM383 334q84 0 122.5 39.5t38.5 126.5t-38.5 126.5t-122.5 39.5h-183v-332h183zM402 907h133l-169 -165h-66z" />
    <glyph glyph-name="racute" unicode="&#x155;" horiz-adv-x="479" 
d="M44 460h151v-57q67 67 155 67q50 0 93 -21.5t60 -54.5l-122 -67q-12 48 -24 69.5t-27 22.5q-31 2 -62.5 -27.5t-51 -78t-18.5 -98.5v-225h-154v470zM323 673h133l-169 -165h-66z" />
    <glyph glyph-name="uni0156" unicode="&#x156;" horiz-adv-x="749" 
d="M62 710h321q141 0 222.5 -56t81.5 -154q0 -79 -54 -131.5t-153 -70.5l195 -308h-151l-190 300h-134v-300h-138v720zM383 334q84 0 122.5 39.5t38.5 126.5t-38.5 126.5t-122.5 39.5h-183v-332h183zM348 -227q12 20 12 40q0 7 -3.5 12t-13.5 13q-23 17 -31.5 30.5
t-8.5 33.5q0 28 20.5 47t50.5 19q22 0 40 -11.5t26 -31.5q6 -17 6 -35q0 -32 -16.5 -69t-44.5 -68z" />
    <glyph glyph-name="uni0157" unicode="&#x157;" horiz-adv-x="479" 
d="M44 460h151v-57q67 67 155 67q50 0 93 -21.5t60 -54.5l-122 -67q-12 48 -24 69.5t-27 22.5q-31 2 -62.5 -27.5t-51 -78t-18.5 -98.5v-225h-154v470zM116 -232q12 20 12 40q0 7 -3.5 12t-13.5 13q-23 17 -31.5 30.5t-8.5 33.5q0 28 20.5 47t50.5 19q22 0 40 -11.5
t26 -31.5q6 -17 6 -35q0 -32 -16.5 -69t-44.5 -68z" />
    <glyph glyph-name="Rcaron" unicode="&#x158;" horiz-adv-x="749" 
d="M62 710h321q141 0 222.5 -56t81.5 -154q0 -79 -54 -131.5t-153 -70.5l195 -308h-151l-190 300h-134v-300h-138v720zM383 334q84 0 122.5 39.5t38.5 126.5t-38.5 126.5t-122.5 39.5h-183v-332h183zM155 909h66l124 -122l123 122h66l-102 -165h-175z" />
    <glyph glyph-name="rcaron" unicode="&#x159;" horiz-adv-x="479" 
d="M44 460h151v-57q67 67 155 67q50 0 93 -21.5t60 -54.5l-122 -67q-12 48 -24 69.5t-27 22.5q-31 2 -62.5 -27.5t-51 -78t-18.5 -98.5v-225h-154v470zM83 668h66l124 -122l123 122h66l-102 -165h-175z" />
    <glyph glyph-name="Sacute" unicode="&#x15a;" horiz-adv-x="710" 
d="M217 -3q-62 18 -105.5 50t-59.5 71l104 36q21 -66 67 -97t125 -31q69 0 110.5 36t41.5 95q0 42 -18.5 66t-50 37t-96.5 32q-82 23 -141 49t-100.5 70t-41.5 108q0 56 41.5 102t113 73t157.5 27q67 0 127.5 -18t104 -50t59.5 -71l-104 -36q-21 67 -66 97.5t-123 30.5
q-70 0 -111 -35.5t-41 -94.5q0 -42 18.5 -65.5t49.5 -35.5t97 -31q83 -24 142.5 -50.5t100 -71t40.5 -109.5q0 -56 -41.5 -102t-113 -73t-157.5 -27q-67 0 -129 18zM434 911h133l-169 -165h-66z" />
    <glyph glyph-name="sacute" unicode="&#x15b;" horiz-adv-x="534" 
d="M153.5 -5q-52.5 15 -87.5 40.5t-42 55.5l119 21q6 -85 123 -85q51 0 76 17t25 52q0 23 -9 35.5t-33 21t-74 16.5q-98 15 -162.5 48.5t-64.5 107.5q0 39 33.5 72.5t91 53t125.5 19.5q57 0 109 -15t86 -40.5t41 -55.5l-118 -21q-4 43 -33.5 65t-81.5 22q-53 0 -80.5 -18.5
t-27.5 -53.5q0 -25 8 -37t31 -19.5t78 -17.5q68 -12 112 -25t78 -43t34 -83q0 -41 -32 -74.5t-88.5 -53.5t-125.5 -20q-58 0 -110.5 15zM320 654h133l-169 -165h-66z" />
    <glyph glyph-name="Scedilla" unicode="&#x15e;" horiz-adv-x="710" 
d="M622 85.5q-36 -43.5 -98.5 -71.5t-139.5 -34l-15 -30q56 -2 89.5 -30.5t33.5 -73.5q0 -53 -36 -84t-89 -31q-37 0 -74.5 16.5t-67.5 48.5l23 35q47 -36 78 -36q23 0 36.5 17t13.5 39t-15 38.5t-42 16.5q-20 0 -49 -12l43 86q-93 7 -166 45t-95 93l104 36q21 -66 67 -97
t125 -31q69 0 110.5 36t41.5 95q0 42 -18.5 66t-50 37t-96.5 32q-82 23 -141 49t-100.5 70t-41.5 108q0 56 41.5 102t113 73t157.5 27q67 0 127.5 -18t104 -50t59.5 -71l-104 -36q-21 67 -66 97.5t-123 30.5q-70 0 -111 -35.5t-41 -94.5q0 -42 18.5 -65.5t49.5 -35.5t97 -31
q83 -24 142.5 -50.5t100 -71t40.5 -109.5q0 -52 -36 -95.5z" />
    <glyph glyph-name="scedilla" unicode="&#x15f;" horiz-adv-x="534" 
d="M398 254q44 -13 78 -43t34 -83t-53.5 -93.5t-138.5 -51.5l-4 -8q56 -2 89.5 -30.5t33.5 -73.5q0 -53 -36 -84t-89 -31q-37 0 -74.5 16.5t-67.5 48.5l23 35q47 -36 78 -36q23 0 36.5 17t13.5 39t-15 38.5t-42 16.5q-20 0 -49 -12l30 61q-54 2 -102.5 18t-80 40.5
t-38.5 52.5l119 21q6 -85 123 -85h3v1h20q40 4 59 20.5t19 47.5q0 23 -9 35.5t-33 21t-74 16.5q-98 15 -162.5 48.5t-64.5 107.5q0 39 33.5 72.5t91 53t125.5 19.5q57 0 109 -15t86 -40.5t41 -55.5l-118 -21q-4 43 -33.5 65t-81.5 22q-53 0 -80.5 -18.5t-27.5 -53.5
q0 -25 8 -37t31 -19.5t78 -17.5q68 -12 112 -25z" />
    <glyph glyph-name="Scaron" unicode="&#x160;" horiz-adv-x="710" 
d="M217 -3q-62 18 -105.5 50t-59.5 71l104 36q21 -66 67 -97t125 -31q69 0 110.5 36t41.5 95q0 42 -18.5 66t-50 37t-96.5 32q-82 23 -141 49t-100.5 70t-41.5 108q0 56 41.5 102t113 73t157.5 27q67 0 127.5 -18t104 -50t59.5 -71l-104 -36q-21 67 -66 97.5t-123 30.5
q-70 0 -111 -35.5t-41 -94.5q0 -42 18.5 -65.5t49.5 -35.5t97 -31q83 -24 142.5 -50.5t100 -71t40.5 -109.5q0 -56 -41.5 -102t-113 -73t-157.5 -27q-67 0 -129 18zM179 908h66l124 -122l123 122h66l-102 -165h-175z" />
    <glyph glyph-name="scaron" unicode="&#x161;" horiz-adv-x="534" 
d="M153.5 -5q-52.5 15 -87.5 40.5t-42 55.5l119 21q6 -85 123 -85q51 0 76 17t25 52q0 23 -9 35.5t-33 21t-74 16.5q-98 15 -162.5 48.5t-64.5 107.5q0 39 33.5 72.5t91 53t125.5 19.5q57 0 109 -15t86 -40.5t41 -55.5l-118 -21q-4 43 -33.5 65t-81.5 22q-53 0 -80.5 -18.5
t-27.5 -53.5q0 -25 8 -37t31 -19.5t78 -17.5q68 -12 112 -25t78 -43t34 -83q0 -41 -32 -74.5t-88.5 -53.5t-125.5 -20q-58 0 -110.5 15zM83 656h66l124 -122l123 122h66l-102 -165h-175z" />
    <glyph glyph-name="uni0162" unicode="&#x162;" horiz-adv-x="734" 
d="M401 -10l-14 -29q56 -2 89.5 -30.5t33.5 -73.5q0 -53 -36 -84t-89 -31q-37 0 -74.5 16.5t-67.5 48.5l23 35q47 -36 78 -36q23 0 36.5 17t13.5 39t-15 38.5t-42 16.5q-21 0 -49 -12l42 85h-42v663h-243v57h644v-57h-243v-663h-45z" />
    <glyph glyph-name="uni0163" unicode="&#x163;" horiz-adv-x="323" 
d="M315.5 -57.5q33.5 -28.5 33.5 -73.5q0 -53 -36 -84t-89 -31q-37 0 -74.5 16.5t-67.5 48.5l23 35q47 -36 78 -36q23 0 36.5 17t13.5 39t-15 38.5t-42 16.5q-21 0 -49 -12l31 63q-54 5 -78.5 38t-24.5 99v296h-51v47h51v171l154 56v-227h109v-47h-109v-242q0 -50 1.5 -90
t2.5 -55h5q21 9 49 59l49 -38q-12 -20 -34 -36t-49 -24l-7 -14q56 -2 89.5 -30.5z" />
    <glyph glyph-name="Tcaron" unicode="&#x164;" horiz-adv-x="734" 
d="M288 653h-243v57h644v-57h-243v-663h-158v663zM174 913h66l124 -122l123 122h66l-102 -165h-175z" />
    <glyph glyph-name="tcaron" unicode="&#x165;" horiz-adv-x="323" 
d="M85 11.5q-30 32.5 -30 105.5v296h-51v47h51v171l154 56v-227h109v-47h-109v-242q0 -55 1.5 -95t2.5 -51q9 0 23.5 15.5t30.5 44.5l49 -38q-18 -29 -55.5 -48.5t-77.5 -19.5q-68 0 -98 32.5zM296 498q12 20 12 40q0 7 -3.5 12t-13.5 13q-23 17 -31.5 30.5t-8.5 33.5
q0 28 20.5 47t50.5 19q22 0 40 -11.5t26 -31.5q6 -17 6 -35q0 -32 -16.5 -69t-44.5 -68z" />
    <glyph glyph-name="Tbar" unicode="&#x166;" horiz-adv-x="734" 
d="M446 653v-302h102v-59h-102v-302h-158v302h-109v59h109v302h-243v57h644v-57h-243z" />
    <glyph glyph-name="tbar" unicode="&#x167;" horiz-adv-x="323" 
d="M209 328v-157q0 -55 1.5 -95t2.5 -51q9 0 23.5 15.5t30.5 44.5l49 -38q-18 -29 -55.5 -48.5t-77.5 -19.5q-68 0 -98 32.5t-30 105.5v211h-43v50h43v35h-51v47h51v171l154 56v-227h109v-47h-109v-35h115v-50h-115z" />
    <glyph glyph-name="Umacron" unicode="&#x16a;" horiz-adv-x="714" 
d="M132.5 55q-80.5 75 -80.5 220v435h158v-446q0 -113 44.5 -170.5t131.5 -57.5q99 0 147.5 58t48.5 178v438h80v-437q0 -145 -73.5 -219t-219.5 -74q-156 0 -236.5 75zM211 836h374v-79h-374v79z" />
    <glyph glyph-name="umacron" unicode="&#x16b;" horiz-adv-x="604" 
d="M83.5 33q-49.5 53 -49.5 164v263h154v-263q0 -87 16.5 -126t51.5 -39q37 0 70.5 28t55.5 74.5t25 101.5v224h154v-470h-151v58q-34 -32 -79 -50t-95 -18q-103 0 -152.5 53zM109 591h374v-79h-374v79z" />
    <glyph glyph-name="Uring" unicode="&#x16e;" horiz-adv-x="714" 
d="M132.5 55q-80.5 75 -80.5 220v435h158v-446q0 -113 44.5 -170.5t131.5 -57.5q99 0 147.5 58t48.5 178v438h80v-437q0 -145 -73.5 -219t-219.5 -74q-156 0 -236.5 75zM310 751.5q-37 35.5 -37 85.5t37 85.5t89 35.5t89 -35.5t37 -85.5t-37 -85.5t-89 -35.5t-89 35.5z
M443.5 788q18.5 21 18.5 49t-18.5 49t-42.5 21q-26 0 -45.5 -21t-19.5 -49t18.5 -49t44.5 -21t44.5 21z" />
    <glyph glyph-name="uring" unicode="&#x16f;" horiz-adv-x="604" 
d="M83.5 33q-49.5 53 -49.5 164v263h154v-263q0 -87 16.5 -126t51.5 -39q37 0 70.5 28t55.5 74.5t25 101.5v224h154v-470h-151v58q-34 -32 -79 -50t-95 -18q-103 0 -152.5 53zM206 520.5q-37 35.5 -37 85.5t37 85.5t89 35.5t89 -35.5t37 -85.5t-37 -85.5t-89 -35.5t-89 35.5
zM339.5 557q18.5 21 18.5 49t-18.5 49t-42.5 21q-26 0 -45.5 -21t-19.5 -49t18.5 -49t44.5 -21t44.5 21z" />
    <glyph glyph-name="Uhungarumlaut" unicode="&#x170;" horiz-adv-x="714" 
d="M132.5 55q-80.5 75 -80.5 220v435h158v-446q0 -113 44.5 -170.5t131.5 -57.5q99 0 147.5 58t48.5 178v438h80v-437q0 -145 -73.5 -219t-219.5 -74q-156 0 -236.5 75zM362 890h132l-169 -165h-65zM525 890h131l-168 -165h-65z" />
    <glyph glyph-name="uhungarumlaut" unicode="&#x171;" horiz-adv-x="604" 
d="M83.5 33q-49.5 53 -49.5 164v263h154v-263q0 -87 16.5 -126t51.5 -39q37 0 70.5 28t55.5 74.5t25 101.5v224h154v-470h-151v58q-34 -32 -79 -50t-95 -18q-103 0 -152.5 53zM270 672h132l-169 -165h-65zM433 672h131l-168 -165h-65z" />
    <glyph glyph-name="Uogonek" unicode="&#x172;" horiz-adv-x="714" 
d="M662 710v-437q0 -140 -68.5 -214t-204.5 -79q-22 -24 -32.5 -50.5t-10.5 -51.5q0 -30 15.5 -49.5t40.5 -19.5q24 0 55 22l35 -21q-27 -37 -64.5 -56t-75.5 -19q-44 0 -74 24.5t-30 67.5q0 66 75 155q-133 11 -202 85t-69 208v435h158v-446q0 -113 44.5 -170.5
t131.5 -57.5q99 0 147.5 58t48.5 178v438h80z" />
    <glyph glyph-name="uogonek" unicode="&#x173;" horiz-adv-x="604" 
d="M610 -182q-27 -37 -64.5 -56t-75.5 -19q-44 0 -74 24.5t-30 67.5q0 66 76 155h-32v58q-34 -32 -79 -50t-95 -18q-103 0 -152.5 53t-49.5 164v263h154v-263q0 -87 16.5 -126t51.5 -39q37 0 70.5 28t55.5 74.5t25 101.5v224h154v-470h-53q-22 -25 -33 -52t-11 -52
q0 -30 15.5 -49.5t40.5 -19.5q24 0 55 22z" />
    <glyph glyph-name="Wcircumflex" unicode="&#x174;" horiz-adv-x="1185" 
d="M20 710h162l214 -569l207 569h72l199 -568l213 568h79l-268 -720h-128l-174 484l-176 -484h-128zM546 886h175l102 -165h-66l-123 122l-124 -122h-66z" />
    <glyph glyph-name="wcircumflex" unicode="&#x175;" horiz-adv-x="785" 
d="M-8 460h157l130 -322l116 322h75l115 -323l131 323h78l-189 -470h-123l-89 244l-87 -244h-123zM347 652h175l102 -165h-66l-123 122l-124 -122h-66z" />
    <glyph glyph-name="Ycircumflex" unicode="&#x176;" horiz-adv-x="733" 
d="M294 277l-275 433h168l219 -346l221 346h91l-266 -415v-305h-158v287zM328 911h175l102 -165h-66l-123 122l-124 -122h-66z" />
    <glyph glyph-name="ycircumflex" unicode="&#x177;" horiz-adv-x="605" 
d="M172 -198.5q-57 22.5 -83 60.5l41 66q17 -41 61 -69.5t91 -28.5q54 0 89.5 43.5t35.5 135.5v37q-34 -32 -78 -49t-93 -17q-103 0 -152.5 53t-49.5 164v263h154v-263q0 -87 16.5 -126t51.5 -39q37 0 70.5 28t55.5 74.5t25 101.5v224h154v-450q0 -78 -38 -130t-98.5 -76.5
t-128.5 -24.5q-67 0 -124 22.5zM210 653h175l102 -165h-66l-123 122l-124 -122h-66z" />
    <glyph glyph-name="Ydieresis" unicode="&#x178;" horiz-adv-x="733" 
d="M294 277l-275 433h168l219 -346l221 346h91l-266 -415v-305h-158v287zM273 753.5q-21 19.5 -21 47.5t21 47.5t51 19.5q31 0 52.5 -19t21.5 -48t-21 -48t-52 -19t-52 19.5zM467 753q-21 19 -21 48q0 28 21 47t52 19q30 0 51.5 -19t21.5 -47t-21.5 -47.5t-51.5 -19.5
q-31 0 -52 19z" />
    <glyph glyph-name="Zacute" unicode="&#x179;" horiz-adv-x="761" 
d="M54 26l459 627h-448v57h642v-36l-458 -627h447v-57h-642v36zM450 916h133l-169 -165h-66z" />
    <glyph glyph-name="zacute" unicode="&#x17a;" horiz-adv-x="585" 
d="M27 26l349 387h-341v47h518v-36l-349 -387h346v-47h-523v36zM352 655h133l-169 -165h-66z" />
    <glyph glyph-name="Zdotaccent" unicode="&#x17b;" horiz-adv-x="761" 
d="M54 26l459 627h-448v57h642v-36l-458 -627h447v-57h-642v36zM337.5 783q-20.5 19 -20.5 48q0 28 20.5 47.5t50.5 19.5q31 0 52 -19.5t21 -47.5q0 -29 -20.5 -48t-51.5 -19t-51.5 19z" />
    <glyph glyph-name="zdotaccent" unicode="&#x17c;" horiz-adv-x="585" 
d="M27 26l349 387h-341v47h518v-36l-349 -387h346v-47h-523v36zM238.5 511q-20.5 19 -20.5 48q0 28 20.5 47.5t50.5 19.5q31 0 52 -19.5t21 -47.5q0 -29 -20.5 -48t-51.5 -19t-51.5 19z" />
    <glyph glyph-name="Zcaron" unicode="&#x17d;" horiz-adv-x="761" 
d="M54 26l459 627h-448v57h642v-36l-458 -627h447v-57h-642v36zM224 921h66l124 -122l123 122h66l-102 -165h-175z" />
    <glyph glyph-name="zcaron" unicode="&#x17e;" horiz-adv-x="595" 
d="M27 26l349 387h-341v47h518v-36l-349 -387h346v-47h-523v36zM104 656h66l124 -122l123 122h66l-102 -165h-175z" />
    <glyph glyph-name="uni0218" unicode="&#x218;" horiz-adv-x="710" 
d="M217 -3q-62 18 -105.5 50t-59.5 71l104 36q21 -66 67 -97t125 -31q69 0 110.5 36t41.5 95q0 42 -18.5 66t-50 37t-96.5 32q-82 23 -141 49t-100.5 70t-41.5 108q0 56 41.5 102t113 73t157.5 27q67 0 127.5 -18t104 -50t59.5 -71l-104 -36q-21 67 -66 97.5t-123 30.5
q-70 0 -111 -35.5t-41 -94.5q0 -42 18.5 -65.5t49.5 -35.5t97 -31q83 -24 142.5 -50.5t100 -71t40.5 -109.5q0 -56 -41.5 -102t-113 -73t-157.5 -27q-67 0 -129 18zM340 -227q12 20 12 40q0 7 -3.5 12t-13.5 13q-23 17 -31.5 30.5t-8.5 33.5q0 28 20.5 47t50.5 19
q22 0 40 -11.5t26 -31.5q6 -17 6 -35q0 -32 -16.5 -69t-44.5 -68z" />
    <glyph glyph-name="uni0219" unicode="&#x219;" horiz-adv-x="534" 
d="M153.5 -5q-52.5 15 -87.5 40.5t-42 55.5l119 21q6 -85 123 -85q51 0 76 17t25 52q0 23 -9 35.5t-33 21t-74 16.5q-98 15 -162.5 48.5t-64.5 107.5q0 39 33.5 72.5t91 53t125.5 19.5q57 0 109 -15t86 -40.5t41 -55.5l-118 -21q-4 43 -33.5 65t-81.5 22q-53 0 -80.5 -18.5
t-27.5 -53.5q0 -25 8 -37t31 -19.5t78 -17.5q68 -12 112 -25t78 -43t34 -83q0 -41 -32 -74.5t-88.5 -53.5t-125.5 -20q-58 0 -110.5 15zM271 -235q12 20 12 40q0 7 -3.5 12t-13.5 13q-23 17 -31.5 30.5t-8.5 33.5q0 28 20.5 47t50.5 19q22 0 40 -11.5t26 -31.5q6 -17 6 -35
q0 -32 -16.5 -69t-44.5 -68z" />
    <glyph glyph-name="uni021A" unicode="&#x21a;" horiz-adv-x="734" 
d="M288 653h-243v57h644v-57h-243v-663h-158v663zM340 -221q12 20 12 40q0 7 -3.5 12t-13.5 13q-23 17 -31.5 30.5t-8.5 33.5q0 28 20.5 47t50.5 19q22 0 40 -11.5t26 -31.5q6 -17 6 -35q0 -32 -16.5 -69t-44.5 -68z" />
    <glyph glyph-name="uni021B" unicode="&#x21b;" horiz-adv-x="323" 
d="M85 11.5q-30 32.5 -30 105.5v296h-51v47h51v171l154 56v-227h109v-47h-109v-242q0 -55 1.5 -95t2.5 -51q9 0 23.5 15.5t30.5 44.5l49 -38q-18 -29 -55.5 -48.5t-77.5 -19.5q-68 0 -98 32.5zM179 -230q12 20 12 40q0 7 -3.5 12t-13.5 13q-23 17 -31.5 30.5t-8.5 33.5
q0 28 20.5 47t50.5 19q22 0 40 -11.5t26 -31.5q6 -17 6 -35q0 -32 -16.5 -69t-44.5 -68z" />
    <glyph glyph-name="circumflex" unicode="&#x2c6;" horiz-adv-x="461" 
d="M143 894h175l102 -165h-66l-123 122l-124 -122h-66z" />
    <glyph glyph-name="caron" unicode="&#x2c7;" horiz-adv-x="461" 
d="M41 894h66l124 -122l123 122h66l-102 -165h-175z" />
    <glyph glyph-name="breve" unicode="&#x2d8;" horiz-adv-x="456" 
d="M130 733q-43 24 -66.5 67.5t-22.5 99.5h53q-1 -50 34 -77.5t100 -27.5t100 27.5t34 77.5h53q1 -56 -22.5 -99.5t-66.5 -67.5t-98 -24t-98 24z" />
    <glyph glyph-name="dotaccent" unicode="&#x2d9;" horiz-adv-x="238" 
d="M67.5 741q-20.5 19 -20.5 48q0 28 20.5 47.5t50.5 19.5q31 0 52 -19.5t21 -47.5q0 -29 -20.5 -48t-51.5 -19t-51.5 19z" />
    <glyph glyph-name="ring" unicode="&#x2da;" horiz-adv-x="340" 
d="M81 749.5q-37 35.5 -37 85.5t37 85.5t89 35.5t89 -35.5t37 -85.5t-37 -85.5t-89 -35.5t-89 35.5zM214.5 786q18.5 21 18.5 49t-18.5 49t-42.5 21q-26 0 -45.5 -21t-19.5 -49t18.5 -49t44.5 -21t44.5 21z" />
    <glyph glyph-name="ogonek" unicode="&#x2db;" horiz-adv-x="332" 
d="M74 -212.5q-30 24.5 -30 67.5q0 37 26 85t82 105l42 -27q-26 -26 -39 -55.5t-13 -56.5q0 -30 15.5 -49.5t40.5 -19.5q24 0 55 22l35 -21q-27 -37 -64.5 -56t-75.5 -19q-44 0 -74 24.5z" />
    <glyph glyph-name="tilde" unicode="&#x2dc;" horiz-adv-x="471" 
d="M284.5 729q-25.5 9 -68.5 29q-32 16 -49 23t-31 7q-46 0 -46 -44l1 -12h-50q-2 73 20.5 107t72.5 34q27 0 51.5 -8.5t66.5 -26.5q32 -14 50 -20.5t33 -6.5q20 0 33 11t13 29q0 7 -1 10h50q2 -73 -20.5 -107t-72.5 -34q-27 0 -52.5 9z" />
    <glyph glyph-name="hungarumlaut" unicode="&#x2dd;" horiz-adv-x="477" 
d="M142 893h132l-169 -165h-65zM305 893h131l-168 -165h-65z" />
    <glyph glyph-name="gravecomb" unicode="&#x300;" horiz-adv-x="0" 
d="M-279 893h133l102 -165h-66z" />
    <glyph glyph-name="acutecomb" unicode="&#x301;" horiz-adv-x="0" 
d="M-177 893h133l-169 -165h-66z" />
    <glyph glyph-name="uni0302" unicode="&#x302;" horiz-adv-x="0" 
d="M-318 894h175l102 -165h-66l-123 122l-124 -122h-66z" />
    <glyph glyph-name="tildecomb" unicode="&#x303;" horiz-adv-x="0" 
d="M-186.5 729q-25.5 9 -68.5 29q-32 16 -49 23t-31 7q-46 0 -46 -44l1 -12h-50q-2 73 20.5 107t72.5 34q27 0 51.5 -8.5t66.5 -26.5q32 -14 50 -20.5t33 -6.5q20 0 33 11t13 29q0 7 -1 10h50q2 -73 -20.5 -107t-72.5 -34q-27 0 -52.5 9z" />
    <glyph glyph-name="uni0304" unicode="&#x304;" horiz-adv-x="0" 
d="M-415 815h374v-79h-374v79z" />
    <glyph glyph-name="uni0306" unicode="&#x306;" horiz-adv-x="0" 
d="M-326 733q-43 24 -66.5 67.5t-22.5 99.5h53q-1 -50 34 -77.5t100 -27.5t100 27.5t34 77.5h53q1 -56 -22.5 -99.5t-66.5 -67.5t-98 -24t-98 24z" />
    <glyph glyph-name="uni0307" unicode="&#x307;" horiz-adv-x="0" 
d="M-170.5 741q-20.5 19 -20.5 48q0 28 20.5 47.5t50.5 19.5q31 0 52 -19.5t21 -47.5q0 -29 -20.5 -48t-51.5 -19t-51.5 19z" />
    <glyph glyph-name="uni0308" unicode="&#x308;" horiz-adv-x="0" 
d="M-361 741.5q-21 19.5 -21 47.5t21 47.5t51 19.5q31 0 52.5 -19t21.5 -48t-21 -48t-52 -19t-52 19.5zM-167 741q-21 19 -21 48q0 28 21 47t52 19q30 0 51.5 -19t21.5 -47t-21.5 -47.5t-51.5 -19.5q-31 0 -52 19z" />
    <glyph glyph-name="uni030A" unicode="&#x30a;" horiz-adv-x="0" 
d="M-259 749.5q-37 35.5 -37 85.5t37 85.5t89 35.5t89 -35.5t37 -85.5t-37 -85.5t-89 -35.5t-89 35.5zM-125.5 786q18.5 21 18.5 49t-18.5 49t-42.5 21q-26 0 -45.5 -21t-19.5 -49t18.5 -49t44.5 -21t44.5 21z" />
    <glyph glyph-name="uni030B" unicode="&#x30b;" horiz-adv-x="0" 
d="M-335 894h132l-169 -165h-65zM-172 894h131l-168 -165h-65z" />
    <glyph glyph-name="uni030C" unicode="&#x30c;" horiz-adv-x="0" 
d="M-420 894h66l124 -122l123 122h66l-102 -165h-175z" />
    <glyph glyph-name="uni0312" unicode="&#x312;" horiz-adv-x="0" 
d="M-158 737.5q-18 11.5 -26 31.5q-6 17 -6 35q0 32 16.5 69t44.5 68l37 -20q-12 -20 -12 -40q0 -7 3.5 -12t13.5 -13q23 -17 31.5 -30.5t8.5 -33.5q0 -28 -20.5 -47t-50.5 -19q-22 0 -40 11.5z" />
    <glyph glyph-name="uni0326" unicode="&#x326;" horiz-adv-x="0" 
d="M-145 -249q12 20 12 40q0 7 -3.5 12t-13.5 13q-23 17 -31.5 30.5t-8.5 33.5q0 28 20.5 47t50.5 19q22 0 40 -11.5t26 -31.5q6 -17 6 -35q0 -32 -16.5 -69t-44.5 -68z" />
    <glyph glyph-name="uni0327" unicode="&#x327;" horiz-adv-x="0" 
d="M-243.5 -227.5q-37.5 16.5 -67.5 48.5l23 35q47 -36 78 -36q23 0 36.5 17t13.5 39t-15 38.5t-42 16.5q-21 0 -49 -12l54 109h71l-26 -53q56 -2 89.5 -30.5t33.5 -73.5q0 -53 -36 -84t-89 -31q-37 0 -74.5 16.5z" />
    <glyph glyph-name="uni0328" unicode="&#x328;" horiz-adv-x="0" 
d="M-258 -212.5q-30 24.5 -30 67.5q0 37 26 85t82 105l42 -27q-26 -26 -39 -55.5t-13 -56.5q0 -30 15.5 -49.5t40.5 -19.5q24 0 55 22l35 -21q-27 -37 -64.5 -56t-75.5 -19q-44 0 -74 24.5z" />
    <glyph glyph-name="uni0335" unicode="&#x335;" horiz-adv-x="0" 
d="M-410 338h369v-59h-369v59z" />
    <glyph glyph-name="uni0336" unicode="&#x336;" horiz-adv-x="0" 
d="M-467 338h427v-59h-427v59z" />
    <glyph glyph-name="uni0337" unicode="&#x337;" horiz-adv-x="0" 
d="M-118 530h81l-474 -580h-80z" />
    <glyph glyph-name="uni0338" unicode="&#x338;" horiz-adv-x="0" 
d="M-114 687h80l-583 -749h-79z" />
    <glyph glyph-name="Wgrave" unicode="&#x1e80;" horiz-adv-x="1185" 
d="M20 710h162l214 -569l207 569h72l199 -568l213 568h79l-268 -720h-128l-174 484l-176 -484h-128zM524 903h133l102 -165h-66z" />
    <glyph glyph-name="wgrave" unicode="&#x1e81;" horiz-adv-x="785" 
d="M-8 460h157l130 -322l116 322h75l115 -323l131 323h78l-189 -470h-123l-89 244l-87 -244h-123zM308 651h133l102 -165h-66z" />
    <glyph glyph-name="Wacute" unicode="&#x1e82;" horiz-adv-x="1185" 
d="M20 710h162l214 -569l207 569h72l199 -568l213 568h79l-268 -720h-128l-174 484l-176 -484h-128zM659 904h133l-169 -165h-66z" />
    <glyph glyph-name="wacute" unicode="&#x1e83;" horiz-adv-x="785" 
d="M-8 460h157l130 -322l116 322h75l115 -323l131 323h78l-189 -470h-123l-89 244l-87 -244h-123zM460 654h133l-169 -165h-66z" />
    <glyph glyph-name="Wdieresis" unicode="&#x1e84;" horiz-adv-x="1185" 
d="M20 710h162l214 -569l207 569h72l199 -568l213 568h79l-268 -720h-128l-174 484l-176 -484h-128zM483 753.5q-21 19.5 -21 47.5t21 47.5t51 19.5q31 0 52.5 -19t21.5 -48t-21 -48t-52 -19t-52 19.5zM677 753q-21 19 -21 48q0 28 21 47t52 19q30 0 51.5 -19t21.5 -47
t-21.5 -47.5t-51.5 -19.5q-31 0 -52 19z" />
    <glyph glyph-name="wdieresis" unicode="&#x1e85;" horiz-adv-x="785" 
d="M-8 460h157l130 -322l116 322h75l115 -323l131 323h78l-189 -470h-123l-89 244l-87 -244h-123zM280 507.5q-21 19.5 -21 47.5t21 47.5t51 19.5q31 0 52.5 -19t21.5 -48t-21 -48t-52 -19t-52 19.5zM474 507q-21 19 -21 48q0 28 21 47t52 19q30 0 51.5 -19t21.5 -47
t-21.5 -47.5t-51.5 -19.5q-31 0 -52 19z" />
    <glyph glyph-name="Ygrave" unicode="&#x1ef2;" horiz-adv-x="733" 
d="M294 277l-275 433h168l219 -346l221 346h91l-266 -415v-305h-158v287zM222 893h133l102 -165h-66z" />
    <glyph glyph-name="ygrave" unicode="&#x1ef3;" horiz-adv-x="605" 
d="M172 -198.5q-57 22.5 -83 60.5l41 66q17 -41 61 -69.5t91 -28.5q54 0 89.5 43.5t35.5 135.5v37q-34 -32 -78 -49t-93 -17q-103 0 -152.5 53t-49.5 164v263h154v-263q0 -87 16.5 -126t51.5 -39q37 0 70.5 28t55.5 74.5t25 101.5v224h154v-450q0 -78 -38 -130t-98.5 -76.5
t-128.5 -24.5q-67 0 -124 22.5zM132 655h133l102 -165h-66z" />
    <glyph glyph-name="endash" unicode="&#x2013;" horiz-adv-x="682" 
d="M66 263h590v-59h-590v59z" />
    <glyph glyph-name="emdash" unicode="&#x2014;" horiz-adv-x="1071" 
d="M56 263h999v-59h-999v59z" />
    <glyph glyph-name="quoteleft" unicode="&#x2018;" horiz-adv-x="257" 
d="M109 535.5q-18 11.5 -26 31.5q-6 17 -6 35q0 32 16.5 69t44.5 68l37 -20q-12 -20 -12 -40q0 -7 3.5 -12t13.5 -13q23 -17 31.5 -30.5t8.5 -33.5q0 -28 -20.5 -47t-50.5 -19q-22 0 -40 11.5z" />
    <glyph glyph-name="quoteright" unicode="&#x2019;" horiz-adv-x="257" 
d="M122 539q12 20 12 40q0 7 -3.5 12t-13.5 13q-23 17 -31.5 30.5t-8.5 33.5q0 28 20.5 47t50.5 19q22 0 40 -11.5t26 -31.5q6 -16 6 -35q0 -32 -16.5 -69t-44.5 -68z" />
    <glyph glyph-name="quotesinglbase" unicode="&#x201a;" horiz-adv-x="257" 
d="M122 -76q12 20 12 40q0 7 -3.5 12t-13.5 13q-23 17 -31.5 30.5t-8.5 33.5q0 28 20.5 47t50.5 19q22 0 40 -11.5t26 -31.5q6 -16 6 -35q0 -32 -16.5 -69t-44.5 -68z" />
    <glyph glyph-name="quotedblleft" unicode="&#x201c;" horiz-adv-x="412" 
d="M103 536q-18 12 -25 32q-5 13 -5 34q0 33 16.5 70t45.5 67l35 -20q-12 -20 -12 -40q0 -7 3.5 -12t14.5 -13q23 -17 32 -30.5t9 -33.5q0 -28 -21 -47t-52 -19q-23 0 -41 12zM267 536q-18 12 -25 31q-6 17 -6 36q0 33 16.5 69.5t45.5 66.5l34 -20q-10 -21 -10 -40
q0 -7 3.5 -12t13.5 -13q23 -17 31.5 -30.5t8.5 -33.5q0 -28 -20.5 -47t-50.5 -19q-23 0 -41 12z" />
    <glyph glyph-name="quotedblright" unicode="&#x201d;" horiz-adv-x="412" 
d="M120 539q10 21 10 40q0 7 -3.5 12t-13.5 13q-23 17 -31.5 30.5t-8.5 33.5q0 28 20.5 47t50.5 19q23 0 41 -12t25 -31q6 -16 6 -36q0 -33 -16.5 -69.5t-45.5 -66.5zM282 539q12 20 12 40q0 7 -3.5 12t-14.5 13q-23 17 -32 30.5t-9 33.5q0 28 21 47t52 19q23 0 41 -12
t25 -32q5 -12 5 -34q0 -33 -16.5 -70t-45.5 -67z" />
    <glyph glyph-name="quotedblbase" unicode="&#x201e;" horiz-adv-x="412" 
d="M120 -76q10 21 10 40q0 7 -3.5 12t-13.5 13q-23 17 -31.5 30.5t-8.5 33.5q0 28 20.5 47t50.5 19q23 0 41 -12t25 -31q6 -16 6 -36q0 -33 -16.5 -69.5t-45.5 -66.5zM282 -76q12 20 12 40q0 7 -3.5 12t-14.5 13q-23 17 -32 30.5t-9 33.5q0 28 21 47t52 19q23 0 41 -12
t25 -32q5 -12 5 -34q0 -33 -16.5 -70t-45.5 -67z" />
    <glyph glyph-name="dagger" unicode="&#x2020;" horiz-adv-x="549" 
d="M249 58l-14 457l-104 -23l-61 46l61 46l117 -26l11 70l-5 27l7 20q-15 8 -24 21.5t-9 29.5q0 23 18.5 39.5t44.5 16.5q25 0 43 -16.5t18 -39.5q0 -15 -8 -28t-22 -21l7 -22l-5 -27l11 -70l114 26l71 -46l-71 -46l-101 22l-14 -455l-41 -169h-5z" />
    <glyph glyph-name="daggerdbl" unicode="&#x2021;" horiz-adv-x="483" 
d="M221 -146.5q-16 14.5 -16 35.5q0 13 7.5 24t19.5 18l-4 14v22l-8 22l-10 45v-12l-85 -18l-54 40l54 39l86 -18l15 247l-15 248l-85 -18l-54 39l54 40l94 -21l8 56v24l4 14q-28 15 -28 42q0 20 16.5 35t38.5 15t37.5 -15t15.5 -35q0 -27 -26 -42l3 -14v-24l9 -55l-12 -3
l105 23l60 -40l-60 -39l-84 17l-15 -247l15 -246l84 17l61 -39l-61 -40l-82 17v13l-10 -45l-9 -22v-22l-3 -15q11 -6 17.5 -17t6.5 -24q0 -21 -14.5 -35.5t-36.5 -14.5q-23 0 -39 14.5z" />
    <glyph glyph-name="bullet" unicode="&#x2022;" horiz-adv-x="363" 
d="M138.5 208.5q-29.5 16.5 -47 45t-17.5 61.5t17 61t46.5 44.5t64.5 16.5q53 0 90 -35.5t37 -86.5q0 -33 -17 -61.5t-46.5 -45t-63.5 -16.5t-63.5 16.5z" />
    <glyph glyph-name="ellipsis" unicode="&#x2026;" horiz-adv-x="673" 
d="M87 1q-21 19 -21 47q0 27 21 46t51 19q29 0 50.5 -19t21.5 -46t-21.5 -46.5t-50.5 -19.5q-30 0 -51 19zM306.5 1q-20.5 19 -20.5 47q0 27 20.5 46t50.5 19q29 0 49.5 -19t20.5 -46q0 -28 -20.5 -47t-49.5 -19q-30 0 -50.5 19zM525 1q-21 19 -21 47q0 27 21 46t51 19
t50.5 -18.5t20.5 -46.5t-20.5 -47t-50.5 -19t-51 19z" />
    <glyph glyph-name="perthousand" unicode="&#x2030;" horiz-adv-x="1071" 
d="M713 728l-535 -756h-88l493 697q-48 -11 -102 -11q-53 0 -102 9q33 -42 33 -97q0 -46 -23.5 -85t-64 -61.5t-89.5 -22.5t-90 23t-65 61.5t-24 84.5t24 84.5t65 61t90 22.5h2q21 0 43 -5t35 -12q99 -24 160 -24q77 0 154 31h84zM256.5 459.5q10.5 18.5 17 48.5t6.5 62
q0 38 -13.5 84t-30.5 46q-10 0 -20.5 -18.5t-17 -49t-6.5 -62.5t6.5 -62t17 -48.5t20.5 -18.5t20.5 18.5zM966 277.5q41 -22.5 65 -61.5t24 -84q0 -47 -23.5 -85.5t-64.5 -61t-90 -22.5q-58 0 -104 31.5t-64 80.5q-18 -50 -63.5 -81t-104.5 -31q-49 0 -89.5 22.5t-64.5 61.5
t-24 85t24 84.5t65 61t89 22.5q57 0 103 -31.5t65 -81.5q18 50 64 81.5t104 31.5q48 0 89 -22.5zM562.5 20.5q10.5 18.5 17 49t6.5 62.5t-6.5 62t-17 48.5t-20.5 18.5q-9 0 -19.5 -18.5t-17.5 -48.5t-7 -62t7 -62t17.5 -49t19.5 -19q10 0 20.5 18.5zM898.5 20.5
q10.5 18.5 17 49t6.5 62.5t-6.5 62t-17 48.5t-20.5 18.5q-9 0 -19.5 -18.5t-17.5 -48.5t-7 -62t7 -62t17.5 -49t19.5 -19q10 0 20.5 18.5z" />
    <glyph glyph-name="guilsinglleft" unicode="&#x2039;" horiz-adv-x="501" 
d="M70 337l401 281v-77l-283 -204l283 -204v-77z" />
    <glyph glyph-name="guilsinglright" unicode="&#x203a;" horiz-adv-x="501" 
d="M70 133l283 204l-283 204v77l401 -281l-401 -281v77z" />
    <glyph glyph-name="fraction" unicode="&#x2044;" horiz-adv-x="806" 
d="M655 803h98l-602 -974h-98z" />
    <glyph glyph-name="Euro" unicode="&#x20ac;" horiz-adv-x="916" 
d="M399.5 15q-84.5 35 -141 99t-75.5 148h-112l29 53h74v17q-1 8 -1 17v18h-83l31 53h59q16 88 72 155.5t143 105t191 37.5q66 0 129.5 -19.5t109 -52t60.5 -69.5l-96 -35q-51 135 -193 135q-66 0 -120.5 -31.5t-90 -89.5t-46.5 -136h324l-32 -53h-297v-16q0 -13 1 -19v-17
h303l-32 -53h-264q22 -113 89.5 -177t163.5 -64q142 0 193 135l96 -35q-15 -37 -60.5 -69.5t-109 -52t-129.5 -19.5q-101 0 -185.5 35z" />
    <glyph glyph-name="trademark" unicode="&#x2122;" horiz-adv-x="837" 
d="M189 808h-127v34h326v-34h-126v-332h-73v332zM399 842h69l147 -275l132 275h68v-366h-73v256l-123 -256h-35l-141 263v-263h-44v366z" />
    <glyph glyph-name="oneeighth" unicode="&#x215b;" horiz-adv-x="914" 
d="M140 774l116 115v-598h-116v483zM662 801h98l-602 -974h-98zM551.5 -154q-55.5 34 -55.5 94q0 44 30 86.5t86 80.5q-45 38 -66.5 69.5t-21.5 61.5q0 42 25 72.5t65 46t84 15.5q63 0 108.5 -30t45.5 -85q0 -71 -98 -137q62 -47 96 -85.5t34 -80.5q0 -45 -28.5 -77.5
t-74.5 -48.5t-97 -16q-77 0 -132.5 34zM762.5 198q15.5 25 15.5 57q0 38 -23.5 59.5t-54.5 21.5t-53 -20t-22 -57q0 -30 22 -54.5t65 -54.5q35 23 50.5 48zM752 -126.5q30 21.5 30 59.5q0 31 -24.5 56.5t-74.5 62.5l-17 12l-15 12q-38 -28 -57.5 -62.5t-19.5 -73.5
q0 -41 32 -64.5t75 -23.5q41 0 71 21.5z" />
    <glyph glyph-name="threeeighths" unicode="&#x215c;" horiz-adv-x="1015" 
d="M129 323.5q-50 25.5 -71 67.5l69 47q13 -53 36.5 -77t62.5 -24q49 0 79 36.5t30 97.5q0 56 -20.5 86.5t-57.5 30.5l-22 -2l-36 -2l-2 39q6 -2 17 -2q32 0 54 29.5t22 73.5q0 31 -12 64q-10 20 -21 28t-30 8q-39 0 -59 -31t-17 -88l-84 22q13 63 60 99.5t114 36.5
q71 0 117 -36t46 -93q0 -69 -68 -111q54 -14 86 -52t32 -89q0 -54 -27.5 -96t-76.5 -65t-113 -23q-58 0 -108 25.5zM777 802h98l-602 -974h-98zM655 -153q-55 34 -55 94q0 43 29.5 86t85.5 81q-45 38 -66 69t-21 61q0 42 25 73t65 46.5t84 15.5q64 0 109 -30.5t45 -85.5
q0 -35 -25.5 -69.5t-73.5 -66.5q62 -47 96 -85.5t34 -80.5q0 -45 -28.5 -77.5t-74.5 -48.5t-97 -16q-77 0 -132 34zM865.5 199q15.5 25 15.5 57q0 38 -23 59.5t-54 21.5t-53 -20.5t-22 -57.5q0 -30 21.5 -53.5t64.5 -54.5q35 23 50.5 48zM855 -125.5q30 21.5 30 59.5
q0 30 -23 54.5t-74 63.5q-12 8 -18 13l-15 11q-38 -27 -58 -61.5t-20 -73.5q0 -42 32 -65t75 -23q41 0 71 21.5z" />
    <glyph glyph-name="fiveeighths" unicode="&#x215d;" horiz-adv-x="1000" 
d="M121 318.5q-49 26.5 -62 66.5l73 43q7 -49 30.5 -74.5t58.5 -25.5q46 0 81 48q11 14 17.5 40.5t6.5 54.5q0 64 -30.5 104t-79.5 40q-31 0 -64 -16.5t-78 -53.5v301h360v-83h-284v-120q43 16 88 16q57 0 104.5 -23t75.5 -63t28 -88q0 -72 -58 -133q-25 -26 -69.5 -43
t-90.5 -17q-58 0 -107 26.5zM760 803h97l-602 -975h-97zM639.5 -153q-55.5 34 -55.5 95q0 44 30 86.5t86 79.5q-45 37 -66 69t-21 62q0 42 24.5 72.5t64.5 46t84 15.5q64 0 109 -30t45 -85q0 -35 -25 -69.5t-73 -66.5q63 -48 96.5 -86.5t33.5 -80.5q0 -45 -28.5 -77.5
t-74.5 -48.5t-97 -16q-77 0 -132.5 34zM850.5 199q15.5 25 15.5 58q0 38 -23 59t-55 21q-31 0 -53 -20t-22 -57q0 -30 22 -54.5t65 -54.5q35 23 50.5 48zM840 -125.5q30 21.5 30 59.5q0 31 -24.5 56.5t-74.5 62.5l-17 12l-15 12q-37 -27 -57 -62t-20 -74q0 -41 32 -64.5
t75 -23.5q41 0 71 21.5z" />
    <glyph glyph-name="seveneighths" unicode="&#x215e;" horiz-adv-x="914" 
d="M183 515q48 110 128 257h-247v83h365q-77 -135 -124 -277t-51 -269h-130q11 96 59 206zM662 802h98l-602 -974h-98zM551.5 -153q-55.5 34 -55.5 94q0 44 30 86.5t86 80.5q-45 38 -66.5 69.5t-21.5 60.5q0 43 25 73.5t65 46t84 15.5q63 0 108.5 -30.5t45.5 -85.5
q0 -35 -25 -70t-73 -66q62 -47 96 -85.5t34 -80.5q0 -45 -28.5 -77.5t-74.5 -48.5t-97 -16q-77 0 -132.5 34zM762.5 199q15.5 25 15.5 57q0 38 -23 59.5t-55 21.5q-31 0 -53 -20.5t-22 -57.5q0 -30 22 -54t65 -54q35 23 50.5 48zM752 -125.5q30 21.5 30 59.5q0 29 -24.5 55
t-72.5 61l-19 15l-15 11q-38 -27 -57.5 -61.5t-19.5 -73.5q0 -41 32 -64.5t75 -23.5q41 0 71 21.5z" />
    <glyph glyph-name="arrowleft" unicode="&#x2190;" horiz-adv-x="838" 
d="M62 289v38l269 147v-56l-124 -79h609v-62h-609l124 -79v-56z" />
    <glyph glyph-name="arrowup" unicode="&#x2191;" horiz-adv-x="436" 
d="M201 529l-66 -106h-63l140 259h52l140 -259h-63l-66 106v-591h-74v591z" />
    <glyph glyph-name="arrowright" unicode="&#x2192;" horiz-adv-x="838" 
d="M547 198l124 79h-609v62h609l-124 79v56l269 -147v-38l-269 -147v56z" />
    <glyph glyph-name="arrowdown" unicode="&#x2193;" horiz-adv-x="436" 
d="M72 194h62l67 -106v591h74v-591l67 106h62l-140 -259h-52z" />
    <glyph glyph-name="arrowboth" unicode="&#x2194;" horiz-adv-x="994" 
d="M58 358v38l270 147v-56l-124 -79h626l-124 79v56l270 -147v-38l-270 -147v56l124 79h-626l124 -79v-56z" />
    <glyph glyph-name="arrowupdn" unicode="&#x2195;" horiz-adv-x="436" 
d="M72 183h62l67 -106v600l-67 -106h-62l140 260h52l140 -260h-62l-67 106v-600l67 106h62l-140 -260h-52z" />
    <glyph glyph-name="uni2196" unicode="&#x2196;" horiz-adv-x="664" 
d="M168 442l29 -127l-45 -45l-85 287l32 32l287 -85l-38 -38l-137 31l426 -426l-49 -49z" />
    <glyph glyph-name="uni2197" unicode="&#x2197;" horiz-adv-x="664" 
d="M38 47l469 469l-150 -34l-42 42l316 93l35 -35l-94 -316l-50 50l32 140l-462 -462z" />
    <glyph glyph-name="uni2198" unicode="&#x2198;" horiz-adv-x="664" 
d="M318 112l38 38l137 -31l-426 426l49 49l420 -420l-29 127l45 45l85 -287l-32 -32z" />
    <glyph glyph-name="uni2199" unicode="&#x2199;" horiz-adv-x="664" 
d="M67 59l85 287l45 -45l-29 -127l420 420l49 -49l-426 -426l137 31l38 -38l-287 -85z" />
    <glyph glyph-name="partialdiff" unicode="&#x2202;" horiz-adv-x="636" 
d="M193.5 -5.5q-59.5 32.5 -93 90t-33.5 130.5q0 74 33.5 132.5t93.5 92t135 33.5q69 0 124 -35q-14 115 -56 178t-104 63q-31 0 -56.5 -23.5t-54.5 -79.5l-40 75h-1q29 32 75 51.5t95 19.5q91 0 158.5 -50t103.5 -142t36 -217q0 -81 -31 -162t-94 -135t-155 -54
q-76 0 -135.5 32.5zM393.5 46.5q30.5 42.5 49 113.5t18.5 153v6q-56 113 -122 113q-34 0 -63.5 -30t-47 -81t-17.5 -111q0 -58 15.5 -105t42.5 -74t60 -27q34 0 64.5 42.5z" />
    <glyph glyph-name="emptyset" unicode="&#x2205;" horiz-adv-x="715" 
d="M185 5q-57 44 -88.5 107.5t-31.5 135.5q0 85 42 155.5t113.5 111.5t157.5 41t159 -43l84 122h64l-104 -152q53 -45 81 -106t28 -129q0 -84 -41.5 -155t-113 -112t-157.5 -41q-74 0 -141 32l-76 -112h-75zM508 471q-61 37 -130 37t-127.5 -34.5t-92.5 -94.5t-34 -131
q0 -58 24 -111t67 -89zM505 23.5q58 34.5 92 94t34 130.5q0 55 -20.5 104.5t-58.5 85.5l-286 -423q52 -26 112 -26q69 0 127 34.5z" />
    <glyph glyph-name="product" unicode="&#x220f;" horiz-adv-x="681" 
d="M151 633h-85v98h589v-98h-79v-781h-89v781h-247v-781h-89v781z" />
    <glyph glyph-name="summation" unicode="&#x2211;" horiz-adv-x="603" 
d="M68 -85l274 366l-274 374v76h507v-85h-399l242 -335l1 -70l-244 -326h400v-85h-507v85z" />
    <glyph glyph-name="minus" unicode="&#x2212;" horiz-adv-x="627" 
d="M67 358h533v-59h-533v59z" />
    <glyph glyph-name="radical" unicode="&#x221a;" horiz-adv-x="760" 
d="M64 281h139l97 -295l252 745h184l-29 -98h-107l-264 -774h-128z" />
    <glyph glyph-name="infinity" unicode="&#x221e;" horiz-adv-x="890" 
d="M552 117.5q-48 33.5 -86 90.5q-47 -57 -97 -90t-114 -33q-62 0 -106 26.5t-66.5 70t-22.5 93.5q0 51 24 97t71 74.5t112 28.5q68 0 114 -31t81 -85q46 54 93.5 85t108.5 31q64 0 110.5 -29t70.5 -75t24 -98q0 -50 -22.5 -93t-67 -69.5t-108.5 -26.5q-71 0 -119 33.5z
M324 205.5q37 31.5 89 95.5q-38 65 -68.5 98t-69.5 33q-60 0 -93 -42t-33 -98q0 -49 25.5 -83.5t71.5 -34.5q41 0 78 31.5zM752.5 166q30.5 38 30.5 91q0 52 -29 91t-79 39q-40 0 -76 -30t-84 -90q37 -69 70.5 -104t80.5 -35q56 0 86.5 38z" />
    <glyph glyph-name="integral" unicode="&#x222b;" horiz-adv-x="586" 
d="M68 -154l20 34q13 -4 28 -4q50 0 75.5 54t35 136t16.5 227q7 167 23 272.5t66 180t149 74.5q37 0 77 -10l-21 -32q-23 7 -36 7q-47 0 -72 -52.5t-34 -131t-18 -223.5q-10 -172 -26.5 -279t-69 -183t-155.5 -76q-26 0 -58 6z" />
    <glyph glyph-name="approxequal" unicode="&#x2248;" horiz-adv-x="629" 
d="M410 361.5q-34 11.5 -83 34.5q-46 21 -76.5 31.5t-59.5 10.5q-33 0 -63.5 -16t-60.5 -53v83q53 52 121 52q35 0 69.5 -11.5t82.5 -33.5q46 -21 76.5 -31.5t60.5 -10.5q67 0 122 68v-83q-55 -52 -120 -52q-35 0 -69 11.5zM411.5 186.5q-34.5 11.5 -82.5 33.5
q-46 21 -76.5 31.5t-60.5 10.5q-67 0 -122 -68v83q55 52 120 52q35 0 69 -11.5t83 -34.5q46 -21 76.5 -31.5t59.5 -10.5q33 0 63.5 16t60.5 53v-83q-53 -52 -121 -52q-35 0 -69.5 11.5z" />
    <glyph glyph-name="notequal" unicode="&#x2260;" horiz-adv-x="627" 
d="M272 211h-205v60h231l51 117h-282v59h308l105 240h71l-105 -240h154v-59h-180l-50 -117h230v-60h-256l-120 -273h-72z" />
    <glyph glyph-name="lessequal" unicode="&#x2264;" horiz-adv-x="574" 
d="M69 315v75l476 239v-75l-406 -201l406 -203v-73zM69 69h476v-60h-476v60z" />
    <glyph glyph-name="greaterequal" unicode="&#x2265;" horiz-adv-x="574" 
d="M69 150l406 203l-406 201v75l476 -239v-75l-476 -238v73zM69 69h476v-60h-476v60z" />
    <glyph glyph-name="lozenge" unicode="&#x25ca;" horiz-adv-x="551" 
d="M69 278l183 317h87l183 -318l-183 -316h-87zM423 277l-128 225l-128 -224l128 -224z" />
    <glyph glyph-name="A.ss01" unicode="&#xe000;" horiz-adv-x="830" 
d="M190 37q-80 56 -119.5 141.5t-39.5 171.5q0 106 47 190.5t129.5 132t185.5 47.5q69 0 126.5 -21.5t100.5 -62.5v74h158v-720h-158v80q-43 -42 -104 -65.5t-130 -23.5q-116 0 -196 56zM570.5 111q49.5 78 49.5 242v2q0 165 -51.5 242t-160.5 77q-66 0 -114 -38.5
t-73.5 -110.5t-25.5 -170q0 -77 24 -154t73.5 -126.5t121.5 -46.5q107 5 156.5 83z" />
    <glyph glyph-name="E.ss01" unicode="&#xe001;" horiz-adv-x="936" 
d="M257 26.5q-97 46.5 -151 130.5t-54 192q0 105 54.5 190t150.5 133t215 48q120 0 215 -49.5t147 -136.5t50 -196h-667q2 -91 37 -162t94.5 -110.5t135.5 -39.5q101 0 161.5 42.5t101.5 141.5l101 -43q-49 -87 -146.5 -137t-221.5 -50q-126 0 -223 46.5zM717 385
q-6 86 -39.5 152t-87.5 102.5t-121 36.5t-121.5 -37t-88.5 -103t-40 -151h498z" />
    <glyph glyph-name="K.ss01" unicode="&#xe002;" horiz-adv-x="705" 
d="M491 0q-45 24 -70.5 57.5t-54.5 86.5q-28 50 -47 79t-46 51.5t-63 29.5v-314h-158v720h158v-303l369 303h93l-427 -351q92 -9 151 -44.5t89 -78t62 -105.5q24 -47 38 -69.5t28.5 -33t35.5 -10.5q19 0 44 7l2 -39q-49 -10 -91 -10q-68 0 -113 24z" />
    <glyph glyph-name="M.ss01" unicode="&#xe003;" horiz-adv-x="1124" 
d="M52 710h158v-87q43 47 101 72.5t118 25.5q54 0 100.5 -22t74.5 -66q12 -21 17 -35q43 58 108 90.5t132 32.5q54 0 99.5 -22t73.5 -66q22 -35 30 -75t8 -113v-455h-158v462q0 119 -16 148q-17 33 -40 49t-48 16q-41 0 -80 -37t-64 -100t-25 -139v-399h-158v462
q0 119 -16 148q-17 33 -40 49t-48 16q-41 0 -80 -37t-64 -100t-25 -139v-399h-158v720z" />
    <glyph glyph-name="N.ss01" unicode="&#xe004;" horiz-adv-x="743" 
d="M52 710h158v-92q46 48 108.5 75.5t129.5 27.5q69 0 126 -29.5t81 -76.5q20 -39 28 -81.5t8 -106.5v-437h-158v444q0 118 -18 159q-39 82 -102 82q-58 0 -104 -36t-72.5 -100.5t-26.5 -144.5v-404h-158v720z" />
    <glyph glyph-name="Q.ss01" unicode="&#xe005;" horiz-adv-x="952" 
d="M592 -6q-53 -14 -117 -14q-120 0 -216.5 48t-151.5 132t-55 189t55 189.5t152 133t217 48.5t217 -48t152 -133t55 -190q0 -109 -57 -193.5t-164 -132.5l200 -59l-31 -94zM611 68q59 41 92.5 114.5t33.5 166.5q0 92 -34 166t-93.5 116t-133.5 42t-133.5 -42t-93.5 -116
t-34 -166q0 -93 33.5 -166.5t93 -114.5t134.5 -41q76 0 135 41z" />
    <glyph glyph-name="R.ss01" unicode="&#xe006;" horiz-adv-x="749" 
d="M521 -1.5q-39 22.5 -57.5 54t-36.5 80.5q-21 54 -37 83.5t-45 50.5t-76 23h-59v-300h-158v720h331q96 0 167 -25.5t109 -73t38 -111.5q0 -82 -62 -136t-175 -69q58 -29 89.5 -69.5t58.5 -118.5q17 -50 35.5 -70t44.5 -20q12 0 32 5l3 -36q-53 -10 -97 -10
q-66 0 -105 22.5zM383 334q80 0 115.5 39t35.5 127t-35.5 127t-115.5 39h-173v-332h173z" />
    <glyph glyph-name="T_h" unicode="&#xe007;" horiz-adv-x="1179" 
d="M290 663h-256v47h738v-306q34 32 78 49t93 17q103 0 152.5 -53t49.5 -164v-263h-154v263q0 87 -16.5 126t-51.5 39q-37 0 -70.5 -28t-55.5 -74.5t-25 -101.5v-224h-154v673h-174v-673h-154v673z" />
    <glyph glyph-name="c_b" unicode="&#xe008;" horiz-adv-x="1182" 
d="M832 -11q-35 9 -62 25v-24h-154v565q0 56 -25.5 86.5t-60.5 30.5q-34 0 -59 -29t-25 -80q0 -39 15 -76.5t0.5 -15t53.5 -80.5l24 -35l-107 -57q-13 66 -42 96.5t-78 30.5q-37 0 -65.5 -24.5t-45 -68.5t-16.5 -99q0 -93 35.5 -147.5t96.5 -54.5q47 0 76 28.5t51 95.5
l95 -46q-32 -59 -96.5 -93.5t-142.5 -34.5q-79 0 -142 31.5t-98.5 87t-35.5 125.5t36 125.5t100 87t144 31.5q30 0 58 -5q-19 48 -19 92q0 51 29.5 88t77.5 56.5t103 19.5q66 0 125.5 -28.5t91.5 -83.5v-174q28 17 62.5 26.5t69.5 9.5q76 0 134 -30.5t90 -86.5t32 -129
q0 -71 -32.5 -126.5t-90 -87t-130.5 -31.5q-38 0 -73 9zM942 57.5q26 26.5 41.5 72t15.5 100.5t-14.5 99.5t-39 70t-55.5 25.5q-32 0 -60 -26t-44 -69.5t-16 -95.5v-23q1 -79 33 -129.5t82 -50.5q31 0 57 26.5z" />
    <glyph glyph-name="c_h" unicode="&#xe009;" horiz-adv-x="1177" 
d="M158 13.5q-63 31.5 -98.5 87t-35.5 125.5t36 125.5t100 87t144 31.5q30 0 58 -5q-19 48 -19 92q0 51 29.5 88t77.5 56.5t103 19.5q66 0 125.5 -28.5t91.5 -83.5v-205q34 32 78 49t93 17q103 0 152.5 -53t49.5 -164v-263h-154v263q0 87 -16.5 126t-51.5 39
q-37 0 -70.5 -28t-55.5 -74.5t-25 -101.5v-224h-154v565q0 56 -25.5 86.5t-60.5 30.5q-34 0 -59 -29t-25 -80q0 -39 15 -76.5t0.5 -15t53.5 -80.5l24 -35l-106 -57l-6 22q-15 55 -42.5 80t-72.5 25q-37 0 -65.5 -24.5t-45 -68.5t-16.5 -99q0 -93 35.5 -147.5t96.5 -54.5
q47 0 76 28.5t51 95.5l95 -46q-32 -59 -96.5 -93.5t-142.5 -34.5q-79 0 -142 31.5z" />
    <glyph glyph-name="c_k" unicode="&#xe00a;" horiz-adv-x="1144" 
d="M158 13.5q-63 31.5 -98.5 87t-35.5 125.5t36 125.5t100 87t144 31.5q30 0 58 -5q-19 48 -19 92q0 51 29.5 88t77.5 56.5t103 19.5q66 0 125.5 -28.5t91.5 -83.5v-393l274 244h92l-241 -214l243 -256h-179l-162 170l-27 -25v-145h-154v565q0 56 -25.5 86.5t-60.5 30.5
q-34 0 -59 -29t-25 -80q0 -39 15 -76.5t0.5 -15t53.5 -80.5l24 -35l-107 -58l-5 23q-15 55 -42.5 80t-72.5 25q-37 0 -65.5 -24.5t-45 -68.5t-16.5 -99q0 -93 35.5 -147.5t96.5 -54.5q47 0 76 28.5t51 95.5l95 -46q-32 -59 -96.5 -93.5t-142.5 -34.5q-79 0 -142 31.5z" />
    <glyph glyph-name="c_l" unicode="&#xe00b;" horiz-adv-x="824" 
d="M158 13.5q-63 31.5 -98.5 87t-35.5 125.5t36 125.5t100 87t144 31.5q30 0 58 -5q-19 48 -19 92q0 51 30 88t79.5 56.5t106.5 19.5q68 0 128.5 -28.5t92.5 -83.5v-619h-154v565q0 56 -26.5 86.5t-63.5 30.5q-36 0 -63 -29t-27 -80q0 -39 15 -76.5t0.5 -15t53.5 -80.5
l24 -35l-107 -58l-5 23q-15 55 -42.5 80t-72.5 25q-37 0 -65.5 -24.5t-45 -68.5t-16.5 -99q0 -93 35.5 -147.5t96.5 -54.5q47 0 76 28.5t51 95.5l95 -46q-32 -59 -96.5 -93.5t-142.5 -34.5q-79 0 -142 31.5z" />
    <glyph glyph-name="c_t" unicode="&#xe00c;" horiz-adv-x="893" 
d="M655 11.5q-30 32.5 -30 105.5v296h-51v47h51v95q0 56 -26.5 86.5t-63.5 30.5q-36 0 -62.5 -29t-26.5 -80q0 -39 15 -76.5t0.5 -15t53.5 -80.5l24 -35l-107 -57l-5 22q-15 55 -42.5 80t-72.5 25q-37 0 -65.5 -24.5t-45 -68.5t-16.5 -99q0 -93 35.5 -147.5t96.5 -54.5
q47 0 76 28.5t51 95.5l95 -46q-32 -59 -96.5 -93.5t-142.5 -34.5q-79 0 -142 31.5t-98.5 87t-35.5 125.5t36 125.5t100 87t144 31.5q30 0 58 -5q-19 48 -19 92q0 51 30 88t79.5 56.5t106.5 19.5q68 0 128 -28.5t92 -83.5v-149h109v-47h-109v-242q0 -39 -1 -51q-1 -55 2 -74
t3 -21q9 2 24 18.5t30 41.5l49 -38q-18 -29 -55.5 -48.5t-77.5 -19.5q-68 0 -98 32.5z" />
    <glyph glyph-name="f_b" unicode="&#xe00d;" horiz-adv-x="896" 
d="M546 -11q-35 9 -62 25v-24h-154v594q0 34 -16 58.5t-34 24.5q-48 0 -78.5 -40.5t-30.5 -96.5q0 -38 14 -70h109v-47h-105v-422h-154v422h-51v47h51v24q0 111 69 173.5t194 62.5q53 0 109 -18.5t77 -44.5v-222q28 17 62.5 26.5t69.5 9.5q75 0 133.5 -30.5t90.5 -86.5
t32 -129q0 -71 -32.5 -126.5t-90 -87t-130.5 -31.5q-38 0 -73 9zM656 57.5q26 26.5 41.5 72t15.5 100.5t-14.5 99.5t-39 70t-55.5 25.5q-33 0 -60.5 -25t-43.5 -68.5t-16 -97.5v-23q-1 -49 14 -90.5t42 -65.5t59 -24q31 0 57 26.5z" />
    <glyph glyph-name="f_h" unicode="&#xe010;" horiz-adv-x="891" 
d="M330 566q0 26 -9.5 49.5t-23.5 37.5t-27 14q-43 0 -70.5 -41.5t-27.5 -96.5q0 -37 13 -69h109v-47h-105v-422h-154v422h-51v47h51v24q0 109 67 172.5t186 63.5q53 0 114.5 -18.5t81.5 -41.5v-256q34 32 78 49t93 17q103 0 152.5 -53t49.5 -164v-263h-154v263
q0 87 -16.5 126t-51.5 39q-37 0 -70.5 -28t-55.5 -74.5t-25 -101.5v-224h-154v576z" />
    <glyph glyph-name="f_j" unicode="&#xe012;" horiz-adv-x="553" 
d="M274 -225l5 30q4 -1 11 -1q30 0 42 44t12 156v409h-155v-422h-154v422h-51v47h51v32q0 106 61 168t173 66q46 1 96.5 -14t88.5 -40.5t48 -53.5q7 -17 7 -25q0 -25 -27 -44t-62 -19q-34 0 -60.5 18t-28.5 41q-1 36 -21 60.5t-46 24.5q-44 0 -69.5 -36t-25.5 -94
q0 -21 4.5 -45.5t11.5 -38.5h313v-510q0 -65 -18 -103t-59 -55.5t-112 -17.5q-23 0 -35 1z" />
    <glyph glyph-name="f_k" unicode="&#xe013;" horiz-adv-x="858" 
d="M330 566q0 26 -9.5 49.5t-23.5 37.5t-27 14q-43 0 -70.5 -41.5t-27.5 -96.5q0 -37 13 -69h109v-47h-105v-422h-154v422h-51v47h51v24q0 109 67 172.5t186 63.5q53 0 114.5 -18.5t81.5 -41.5v-444l274 244h92l-241 -214l243 -256h-179l-162 170l-27 -25v-145h-154v576z
" />
    <glyph glyph-name="f_t" unicode="&#xe015;" horiz-adv-x="598" 
d="M360 11.5q-30 32.5 -30 105.5v296h-141v-422h-154v422h-51v47h51v24q0 109 67 172.5t186 63.5q56 0 116 -19t80 -44v-197h109v-47h-109v-388q9 -3 25 14t33 46l49 -38q-18 -29 -55.5 -48.5t-77.5 -19.5q-68 0 -98 32.5zM330 460v124q0 21 -9.5 40.5t-23.5 31t-27 11.5
q-43 0 -70.5 -41.5t-27.5 -96.5q0 -37 13 -69h145z" />
    <glyph glyph-name="s_b" unicode="&#xe016;" horiz-adv-x="1154" 
d="M168 -4.5q-58 15.5 -97.5 41t-46.5 54.5l119 21q6 -85 123 -85q51 0 76 17t25 52q0 23 -9 36t-33.5 21t-73.5 16q-98 15 -162.5 48.5t-64.5 107.5q0 39 33.5 72.5t91 53t125.5 19.5q31 0 64 -5q-19 50 -19 92q0 50 29.5 87.5t78.5 57t104 19.5q67 0 124.5 -29t86.5 -84
v-173q27 17 62 26.5t70 9.5q75 0 133.5 -30.5t90.5 -86.5t32 -129q0 -71 -32.5 -126.5t-90 -87t-130.5 -31.5q-38 0 -73 9t-62 25v-24h-154v565q0 56 -25 86.5t-59 30.5q-33 0 -57.5 -29t-24.5 -80q0 -59 56 -148l5 -8q6 -8 34 -48l-125 -21q-9 87 -115 87q-49 0 -75 -19.5
t-26 -55.5q0 -23 8 -35t30.5 -20t71.5 -16q68 -12 112 -25t78 -43t34 -82q0 -42 -27.5 -76t-78.5 -53.5t-120 -19.5q-58 0 -116 15.5zM914 57.5q26 26.5 41.5 72t15.5 100.5t-14.5 99.5t-39 70t-55.5 25.5q-32 0 -59.5 -25.5t-44 -69.5t-16.5 -96v-23q1 -79 33 -129.5
t82 -50.5q31 0 57 26.5z" />
    <glyph glyph-name="s_h" unicode="&#xe017;" horiz-adv-x="1129" 
d="M153.5 -5q-52.5 15 -87.5 40.5t-42 55.5l119 21q6 -85 123 -85q51 0 76 17t25 52q0 23 -9 35.5t-33 21t-74 16.5q-98 15 -162.5 48.5t-64.5 107.5q0 39 33.5 72.5t91 53t125.5 19.5q34 0 64 -5q-19 50 -19 92q0 50 28 87.5t74 57t98 19.5q63 0 118.5 -29t84.5 -84v-204
q34 32 78 49t93 17q103 0 152.5 -53t49.5 -164v-263h-154v263q0 87 -16.5 126t-51.5 39q-37 0 -70.5 -28t-55.5 -74.5t-25 -101.5v-224h-154v565q0 56 -22 86.5t-52 30.5q-29 0 -50.5 -29t-21.5 -80q0 -64 54 -147l5 -6l1 -3l4 -6q2 -3 4.5 -6.5t2.5 -4.5q7 -9 11.5 -16
t5.5 -15l-118 -21q-9 87 -115 87q-49 0 -75 -19.5t-26 -54.5q0 -23 8 -35t30.5 -20t71.5 -17q68 -12 112 -25t78 -43t34 -83q0 -41 -32 -74.5t-88.5 -53.5t-125.5 -20q-58 0 -110.5 15z" />
    <glyph glyph-name="s_k" unicode="&#xe018;" horiz-adv-x="1116" 
d="M153.5 -5q-52.5 15 -87.5 40.5t-42 55.5l119 21q6 -85 123 -85q51 0 76 17t25 52q0 23 -9 36t-33.5 21t-73.5 16q-98 15 -162.5 48.5t-64.5 107.5q0 39 33.5 72.5t91 53t125.5 19.5q34 0 64 -5q-19 50 -19 92q0 50 29.5 87.5t78.5 57t104 19.5q67 0 124.5 -29t86.5 -84
v-392l274 244h92l-241 -214l243 -256h-179l-162 170l-27 -25v-145h-154v565q0 56 -25 86.5t-59 30.5q-33 0 -57.5 -29t-24.5 -80q0 -64 54 -147l5 -6l1 -3l33 -47l-123 -22q-9 87 -115 87q-49 0 -75 -19.5t-26 -55.5q0 -23 8 -35t30.5 -20t71.5 -16q68 -12 112 -25t78 -43
t34 -82q0 -41 -32 -75t-88.5 -54t-125.5 -20q-58 0 -110.5 15z" />
    <glyph glyph-name="s_l" unicode="&#xe019;" horiz-adv-x="806" 
d="M153.5 -5q-52.5 15 -87.5 40.5t-42 55.5l119 21q6 -85 123 -85q51 0 76 17t25 52q0 23 -9 36t-33.5 21t-73.5 16q-98 15 -162.5 48.5t-64.5 107.5q0 39 33.5 72.5t91 53t125.5 19.5q31 0 64 -5q-19 50 -19 92q0 50 30.5 87t80.5 56.5t107 19.5q68 0 127 -28.5t88 -83.5
v-618h-154v565q0 56 -26 86.5t-62 30.5t-62 -29t-26 -80q0 -59 56 -148l5 -8l31 -48l-122 -21q-9 87 -115 87q-49 0 -75 -19.5t-26 -55.5q0 -23 8 -35t30.5 -20t71.5 -16q68 -12 112 -25t78 -43t34 -82q0 -41 -32 -75t-88.5 -54t-125.5 -20q-58 0 -110.5 15z" />
    <glyph glyph-name="s_t" unicode="&#xe01a;" horiz-adv-x="869" 
d="M631 11.5q-30 32.5 -30 105.5v296h-51v47h51v95q0 56 -26.5 86.5t-63.5 30.5q-36 0 -62.5 -29t-26.5 -80q0 -59 56 -148l5 -8l31 -48l-122 -21q-9 87 -115 87q-49 0 -75 -19.5t-26 -55.5q0 -23 8 -35t30.5 -20t71.5 -16q68 -12 112 -25t78 -43t34 -82q0 -41 -32 -75
t-88.5 -54t-125.5 -20q-58 0 -110.5 15t-87.5 40.5t-42 55.5l119 21q6 -85 123 -85q51 0 76 17t25 52q0 23 -9 36t-33.5 21t-73.5 16q-98 15 -162.5 48.5t-64.5 107.5q0 39 33.5 72.5t91 53t125.5 19.5q31 0 64 -5q-19 50 -19 92q0 51 30 88t79.5 56.5t106.5 19.5
q68 0 128 -28.5t92 -83.5v-149h109v-47h-109v-288q0 -48 2 -74t5 -26q14 -2 51 60l49 -38q-18 -29 -55.5 -48.5t-77.5 -19.5q-68 0 -98 32.5z" />
    <glyph glyph-name="t_t" unicode="&#xe01b;" horiz-adv-x="626" 
d="M85 11.5q-30 32.5 -30 105.5v296h-51v47h51v151l154 56v-207h149v221l154 56v-277h109v-47h-109v-242q0 -86 4 -146q19 2 54 60l49 -38q-18 -29 -55.5 -48.5t-77.5 -19.5q-68 0 -98 32.5t-30 105.5v296h-149v-242q0 -86 4 -146q19 2 54 60l49 -38q-18 -29 -55.5 -48.5
t-77.5 -19.5q-68 0 -98 32.5z" />
    <glyph glyph-name="zero.dnom" unicode="&#xe01c;" horiz-adv-x="580" 
d="M176 -111.5q-50 35.5 -78 99t-28 144.5q0 82 28 146t78 100t114 36t114 -36t78 -100t28 -146q0 -81 -28 -144.5t-78 -99t-114 -35.5t-114 35.5zM341.5 -80.5q22.5 30.5 35.5 86t13 126.5t-13 127.5t-36 88t-51 31.5t-51 -31.5t-36 -88t-13 -127.5t13 -126.5t35.5 -86
t51.5 -30.5t51.5 30.5z" />
    <glyph glyph-name="one.dnom" unicode="&#xe01d;" horiz-adv-x="270" 
d="M77 336l116 116v-598h-116v482z" />
    <glyph glyph-name="two.dnom" unicode="&#xe01e;" horiz-adv-x="511" 
d="M75 -124l26 26q90 86 155.5 173t65.5 175q0 55 -21.5 86.5t-57.5 31.5q-41 0 -65 -32.5t-28 -93.5l-79 23q9 33 32.5 67t65.5 57t100 23q74 0 122 -43.5t48 -111.5q0 -53 -30 -105.5t-74 -98.5t-116 -112h221v-83h-354z" />
    <glyph glyph-name="three.dnom" unicode="&#xe01f;" horiz-adv-x="537" 
d="M140.5 -119.5q-48.5 25.5 -69.5 66.5l68 48q13 -53 37 -77.5t63 -24.5q49 0 79 37t30 98q0 55 -20.5 85.5t-57.5 30.5q-13 0 -22 -1l-36 -3l-3 39q12 -2 16 -2q33 0 55.5 30t22.5 74q0 31 -12 64q-10 20 -21.5 28t-29.5 8q-39 0 -59 -31t-18 -89l-84 23q13 62 60.5 98.5
t113.5 36.5q72 0 118 -36t46 -93q0 -68 -69 -110q54 -14 86 -52.5t32 -89.5q0 -53 -27.5 -95t-77.5 -65t-114 -23q-58 0 -106.5 25.5z" />
    <glyph glyph-name="four.dnom" unicode="&#xe020;" horiz-adv-x="485" 
d="M298 9h-226l31 50l218 354h92v-554h-115v150zM298 48v204l-128 -204h128z" />
    <glyph glyph-name="five.dnom" unicode="&#xe021;" horiz-adv-x="529" 
d="M133 -117.5q-49 26.5 -62 66.5l73 43q8 -49 31.5 -74.5t58.5 -25.5q45 0 80 48q11 14 18 40.5t7 53.5q0 64 -31 104t-80 40q-31 0 -64.5 -16.5t-76.5 -52.5v300h360v-83h-285v-119q42 15 88 15q57 0 105 -23t75.5 -62.5t27.5 -87.5q0 -72 -58 -133q-25 -27 -69 -43.5
t-90 -16.5q-59 0 -108 26.5z" />
    <glyph glyph-name="six.dnom" unicode="&#xe022;" horiz-adv-x="539" 
d="M171 -112.5q-47 30.5 -73.5 84.5t-26.5 123q0 95 45.5 169t110.5 115t119 41q7 0 21 -2l-18 -29q-26 3 -56.5 -21t-54.5 -66t-31 -92q39 18 82 18q51 0 92 -22.5t64 -62t23 -88.5q0 -43 -22 -89.5t-65 -77.5t-103 -31t-107 30.5zM315.5 -86q17.5 22 28 59t10.5 81
q0 58 -21.5 98.5t-50.5 40.5q-23 0 -46.5 -20t-43.5 -58q-1 -5 -1 -20q0 -55 12 -101.5t32 -74t43 -27.5q20 0 37.5 22z" />
    <glyph glyph-name="seven.dnom" unicode="&#xe023;" horiz-adv-x="508" 
d="M191 70q48 110 128 257h-248v83h366q-77 -135 -124 -276.5t-51 -269.5h-130q11 96 59 206z" />
    <glyph glyph-name="eight.dnom" unicode="&#xe024;" horiz-adv-x="529" 
d="M126.5 -106.5q-55.5 34.5 -55.5 94.5q0 43 29.5 86t85.5 81q-45 37 -66 68.5t-21 61.5q0 42 25 73t65 46.5t84 15.5q64 0 109 -30.5t45 -85.5q0 -35 -25.5 -69.5t-73.5 -66.5q63 -48 96.5 -86.5t33.5 -80.5q0 -45 -28.5 -77.5t-74 -48.5t-96.5 -16q-77 0 -132.5 34.5z
M336.5 246q15.5 25 15.5 57q0 38 -23 59.5t-54 21.5t-53 -20.5t-22 -57.5q0 -30 22 -54t65 -54q34 23 49.5 48zM326.5 -79.5q29.5 21.5 29.5 59.5q0 31 -24 56.5t-73 62.5l-18 13l-15 11q-38 -27 -58 -61.5t-20 -72.5q0 -42 32.5 -66t75.5 -24q41 0 70.5 21.5z" />
    <glyph glyph-name="nine.dnom" unicode="&#xe025;" horiz-adv-x="539" 
d="M172 -138l18 29q25 -2 52.5 20.5t51.5 64.5t38 94q-39 -18 -82 -18q-51 0 -92 22.5t-64 62t-23 88.5q0 43 22 89.5t65 77.5t103 31t107 -30.5t73.5 -84.5t26.5 -123q0 -95 -45.5 -169t-110.5 -115t-119 -41q-7 0 -21 2zM303.5 107q23.5 20 43.5 58q1 5 1 20
q0 55 -12 101.5t-32 74t-43 27.5q-20 0 -37.5 -22t-28 -59t-10.5 -81q0 -58 21.5 -98.5t50.5 -40.5q23 0 46.5 20z" />
    <glyph glyph-name="zero.numr" unicode="&#xe026;" horiz-adv-x="580" 
d="M176 338.5q-50 35.5 -78 99t-28 144.5q0 82 28 146t78 100t114 36t114 -36t78 -100t28 -146q0 -81 -28 -144.5t-78 -99t-114 -35.5t-114 35.5zM341.5 369.5q22.5 30.5 35.5 86t13 126.5t-13 127.5t-36 88t-51 31.5t-51 -31.5t-36 -88t-13 -127.5t13 -126.5t35.5 -86
t51.5 -30.5t51.5 30.5z" />
    <glyph glyph-name="one.numr" unicode="&#xe027;" horiz-adv-x="270" 
d="M77 792l116 116v-598h-116v482z" />
    <glyph glyph-name="two.numr" unicode="&#xe028;" horiz-adv-x="511" 
d="M75 336l26 26q90 86 155.5 173t65.5 175q0 55 -21.5 86.5t-57.5 31.5q-41 0 -65 -32.5t-28 -93.5l-79 23q9 33 32.5 67t65.5 57t100 23q74 0 122 -43.5t48 -111.5q0 -53 -30 -105.5t-74 -98.5t-116 -112h221v-83h-354z" />
    <glyph glyph-name="three.numr" unicode="&#xe029;" horiz-adv-x="537" 
d="M140.5 331.5q-48.5 25.5 -69.5 66.5l68 48q13 -53 37 -77.5t63 -24.5q49 0 79 37t30 98q0 55 -20.5 85.5t-57.5 30.5q-13 0 -22 -1l-36 -3l-3 39q12 -2 16 -2q33 0 55.5 30t22.5 74q0 31 -12 64q-10 20 -21.5 28t-29.5 8q-39 0 -59 -31t-18 -89l-84 23q13 62 60.5 98.5
t113.5 36.5q72 0 118 -36t46 -93q0 -68 -69 -110q54 -14 86 -52.5t32 -89.5q0 -53 -27.5 -95t-77.5 -65t-114 -23q-58 0 -106.5 25.5z" />
    <glyph glyph-name="four.numr" unicode="&#xe02a;" horiz-adv-x="485" 
d="M298 465h-226l31 50l218 354h92v-554h-115v150zM298 504v204l-128 -204h128z" />
    <glyph glyph-name="five.numr" unicode="&#xe02b;" horiz-adv-x="529" 
d="M133 335.5q-49 26.5 -62 66.5l73 43q8 -49 31.5 -74.5t58.5 -25.5q45 0 80 48q11 14 18 40.5t7 53.5q0 64 -31 104t-80 40q-31 0 -64.5 -16.5t-76.5 -52.5v300h360v-83h-285v-119q42 15 88 15q57 0 105 -23t75.5 -62.5t27.5 -87.5q0 -72 -58 -133q-25 -27 -69 -43.5
t-90 -16.5q-59 0 -108 26.5z" />
    <glyph glyph-name="six.numr" unicode="&#xe02c;" horiz-adv-x="539" 
d="M171 331.5q-47 30.5 -73.5 84.5t-26.5 123q0 95 45.5 169t110.5 115t119 41q7 0 21 -2l-18 -29q-26 3 -60 -23t-58 -69t-24 -87q39 18 82 18q51 0 92 -22.5t64 -62t23 -88.5q0 -43 -22 -89.5t-65 -77.5t-103 -31t-107 30.5zM315.5 358q17.5 22 28 59t10.5 81
q0 58 -21.5 98.5t-50.5 40.5q-23 0 -46.5 -20t-43.5 -58q-1 -5 -1 -20q0 -55 12 -101.5t32 -74t43 -27.5q20 0 37.5 22z" />
    <glyph glyph-name="seven.numr" unicode="&#xe02d;" horiz-adv-x="508" 
d="M191 514q48 110 128 257h-248v83h366q-77 -135 -124 -276.5t-51 -269.5h-130q11 96 59 206z" />
    <glyph glyph-name="eight.numr" unicode="&#xe02e;" horiz-adv-x="529" 
d="M126.5 330.5q-55.5 34.5 -55.5 94.5q0 43 29.5 86t85.5 81q-45 37 -66 68.5t-21 61.5q0 42 25 73t65 46.5t84 15.5q64 0 109 -30.5t45 -85.5q0 -35 -25.5 -69.5t-73.5 -66.5q63 -48 96.5 -86.5t33.5 -80.5q0 -45 -28.5 -77.5t-74 -48.5t-96.5 -16q-77 0 -132.5 34.5z
M336.5 683q15.5 25 15.5 57q0 38 -23 59.5t-54 21.5t-53 -20.5t-22 -57.5q0 -30 22 -54t65 -54q34 23 49.5 48zM326.5 357.5q29.5 21.5 29.5 59.5q0 31 -24 56.5t-73 62.5l-18 13l-15 11q-38 -27 -58 -61.5t-20 -72.5q0 -42 32.5 -66t75.5 -24q41 0 70.5 21.5z" />
    <glyph glyph-name="nine.numr" unicode="&#xe02f;" horiz-adv-x="539" 
d="M172 293l18 29q25 -2 52.5 20.5t51.5 64.5t38 94q-39 -18 -82 -18q-51 0 -92 22.5t-64 62t-23 88.5q0 43 22 89.5t65 77.5t103 31t107 -30.5t73.5 -84.5t26.5 -123q0 -95 -45.5 -169t-110.5 -115t-119 -41q-7 0 -21 2zM303.5 538q23.5 20 43.5 58q1 5 1 20
q0 55 -12 101.5t-32 74t-43 27.5q-20 0 -37.5 -22t-28 -59t-10.5 -81q0 -58 21.5 -98.5t50.5 -40.5q23 0 46.5 20z" />
    <glyph glyph-name="ampersand.ss01" unicode="&#xe030;" horiz-adv-x="777" 
d="M199 9.5q-63 29.5 -96 78t-33 103.5q0 62 43.5 117.5t128.5 88.5l-104 117q-4 57 28 104.5t90.5 75t129.5 27.5q93 0 154.5 -46t80.5 -130l-109 -25q-4 83 -37 123.5t-91 35.5q-27 -3 -52.5 -21t-41.5 -47t-16 -64l1 -15l294 -339q7 35 7 86q0 31 -3 64h103l1 -29
q0 -109 -45 -195l113 -129h-151l-40 45q-38 -26 -92.5 -40.5t-115.5 -14.5q-84 0 -147 29.5zM452 46q31 11 61 36l-234 271q-36 -23 -54.5 -60.5t-18.5 -80.5q0 -45 20 -85.5t59.5 -66t92.5 -25.5q43 0 74 11z" />
    <glyph glyph-name="a.ss01" unicode="&#xe082;" horiz-adv-x="591" 
d="M118 -4q-44 18 -69 50.5t-25 72.5q0 145 369 175q-1 66 -28.5 97t-83.5 31q-50 0 -76.5 -21.5t-34.5 -69.5l-124 13q10 34 45.5 63t88 46t109.5 17q75 0 134 -23.5t91.5 -66t32.5 -97.5v-293h-154v34q-37 -21 -83.5 -33.5t-92.5 -12.5q-55 0 -99 18zM323.5 57.5
q37.5 20.5 69.5 59.5v127q-80 -6 -125 -20t-65 -39t-20 -66q0 -39 17.5 -60.5t48.5 -21.5q37 0 74.5 20.5z" />
    <glyph glyph-name="b.ss01" unicode="&#xe083;" horiz-adv-x="600" 
d="M103.5 47.5q-69.5 68.5 -69.5 198.5v464h154v-286q28 22 63 34.5t72 12.5q75 0 132 -31t88.5 -86.5t31.5 -128.5q0 -75 -33 -130.5t-94 -85.5t-144 -30q-131 0 -200.5 68.5zM360.5 56.5q26.5 25.5 41.5 70.5t15 101q0 54 -14.5 99t-39.5 71.5t-55 26.5q-31 0 -58.5 -30.5
t-44.5 -81t-17 -108.5v-13q1 -73 32.5 -117t81.5 -44q32 0 58.5 25.5z" />
    <glyph glyph-name="d.ss01" unicode="&#xe085;" horiz-adv-x="600" 
d="M151.5 10q-60.5 31 -94 86.5t-33.5 128.5t31.5 128.5t89 86.5t132.5 31q37 0 72 -11.5t63 -31.5v282h154v-464q0 -128 -72 -197.5t-204 -69.5q-78 0 -138.5 31zM380 75q32 48 32 123v7q0 58 -17 108.5t-44.5 81t-58.5 30.5q-30 0 -55 -26t-39.5 -71.5t-14.5 -99.5
q0 -94 31 -147.5t84 -53.5q50 0 82 48z" />
    <glyph glyph-name="f.ss01" unicode="&#xe087;" horiz-adv-x="283" 
d="M55 413h-51v47h51v24q0 234 186 234q37 0 87 -11v-45q-34 14 -57 14q-42 0 -62.5 -35t-20.5 -86q0 -49 17 -95h109v-47h-105v-432h-154v432z" />
    <glyph glyph-name="g.ss01" unicode="&#xe088;" horiz-adv-x="605" 
d="M92.5 -226q-65.5 33 -65.5 87q0 63 86 96q-33 16 -50 39.5t-17 50.5q0 29 21.5 53.5t61.5 40.5q-55 27 -85 66t-30 83q0 50 37 91.5t101.5 65t143.5 23.5q75 0 132 -20l111 99l63 -77l-106 -55h1q81 -55 81 -129q0 -50 -37 -91.5t-101.5 -65t-143.5 -23.5q-52 0 -91 9
q-23 -2 -33.5 -11.5t-10.5 -29.5q0 -17 13 -23t50 -6h136q107 0 168.5 -37.5t61.5 -103.5q0 -78 -85.5 -121.5t-238.5 -43.5q-108 0 -173.5 33zM386 193.5q35 36.5 35 95.5t-35 95.5t-90 36.5q-56 0 -90.5 -35.5t-34.5 -94.5t35 -96.5t90 -37.5t90 36.5zM416 -188.5
q43 19.5 43 65.5q0 29 -22 43t-66 14h-140q-56 -2 -80.5 -18.5t-24.5 -53.5q0 -38 33 -54t113 -16q101 0 144 19.5z" />
    <glyph glyph-name="k.ss01" unicode="&#xe08c;" horiz-adv-x="581" 
d="M44 710h154v-291q31 24 71.5 37.5t83.5 13.5q99 0 159 -42.5t60 -113.5q0 -56 -42 -95.5t-123 -60.5l159 -168h-179l-140 148h-49v-148h-154v720zM230 185q95 0 140 30.5t45 94.5q0 52 -21.5 81t-59.5 29q-40 0 -77 -31t-60 -84h1v-120h32z" />
    <glyph glyph-name="l.ss01" unicode="&#xe08d;" horiz-adv-x="312" 
d="M44 117v593h154v-539q0 -75 4 -104.5t11 -29.5q5 0 11.5 7t21.5 27q6 9 12 17l47 -42q-20 -30 -55.5 -48.5t-77.5 -18.5q-128 0 -128 138z" />
    <glyph glyph-name="p.ss01" unicode="&#xe091;" horiz-adv-x="600" 
d="M34 184q0 84 35.5 149t99.5 101.5t146 36.5q75 0 134.5 -31.5t93 -87.5t33.5 -127q0 -68 -34.5 -124.5t-94.5 -89t-132 -32.5q-33 0 -67 9t-60 24v-222h-154v394zM360 57.5q26 26.5 41.5 72t15.5 100.5q0 89 -29 142t-77 53q-34 0 -62 -23.5t-44.5 -64t-16.5 -89.5v-6
q0 -95 32 -153t83 -58q31 0 57 26.5z" />
    <glyph glyph-name="q.ss01" unicode="&#xe092;" horiz-adv-x="600" 
d="M412 10q-51 -30 -123 -30q-77 0 -137.5 31t-94 87t-33.5 127q0 73 34 128.5t95 86.5t140 31q132 0 202.5 -76.5t70.5 -221.5v-383h-154v220zM380 89q32 58 32 153v16q0 44 -15.5 82.5t-41 61.5t-54.5 23q-53 0 -85.5 -53.5t-32.5 -141.5q0 -55 15.5 -100.5t41.5 -72
t57 -26.5q51 0 83 58z" />
    <glyph glyph-name="u.ss01" unicode="&#xe096;" horiz-adv-x="535" 
d="M91.5 37.5q-57.5 57.5 -57.5 181.5v241h154v-238q0 -39 4 -73.5t10 -49.5q17 -39 36.5 -53.5t54.5 -14.5q58 0 91 46t33 128v255h83v-240q0 -118 -57.5 -179t-169.5 -61q-124 0 -181.5 57.5z" />
    <glyph glyph-name="w.ss01" unicode="&#xe098;" horiz-adv-x="826" 
d="M87 38.5q-53 58.5 -53 178.5v243h154v-240q0 -94 19.5 -142t57.5 -48q44 0 70 48.5t26 131.5v250h154v-240q0 -190 79 -190q53 0 82 47t29 133v250h84v-240q0 -121 -53.5 -180.5t-162.5 -59.5q-58 0 -102 18.5t-69 53.5q-25 -34 -65 -53t-90 -19q-107 0 -160 58.5z" />
    <glyph glyph-name="y.ss01" unicode="&#xe09a;" horiz-adv-x="511" 
d="M232 -10h-43l-187 469h157l130 -327l134 327h87l-274 -668h-85z" />
    <glyph glyph-name="i.loclTRK" horiz-adv-x="242" 
d="M44 460h154v-470h-154v470zM71.5 510q-20.5 19 -20.5 48q0 28 20.5 47.5t50.5 19.5q31 0 52 -19.5t21 -47.5q0 -29 -20.5 -48t-51.5 -19t-51.5 19z" />
    <glyph glyph-name="t.ss01" horiz-adv-x="322" 
d="M93.5 18.5q-38.5 38.5 -38.5 128.5v266h-51v47h51v171l154 56v-227h109v-47h-109v-268q0 -66 11.5 -96t51.5 -30q20 0 45 7v-40q-51 -6 -91 -6q-94 0 -132.5 38.5z" />
    </font>
</defs>
</svg>
