<?xml version="1.0" standalone="no"?>
<!DOCTYPE svg PUBLIC "-//W3C//DTD SVG 1.1//EN" "http://www.w3.org/Graphics/SVG/1.1/DTD/svg11.dtd" >
<svg xmlns="http://www.w3.org/2000/svg" xmlns:xlink="http://www.w3.org/1999/xlink" version="1.1">
<metadata>
Created by FontForge 20201107 at Sat May 17 14:54:26 2025
 By 
Pavel Larin
</metadata>
<defs>
<font id="Mansory-Regular" horiz-adv-x="1249" >
  <font-face 
    font-family="Mansory"
    font-weight="400"
    font-stretch="normal"
    units-per-em="2048"
    panose-1="0 0 5 0 0 0 0 0 0 0"
    ascent="1638"
    descent="-410"
    x-height="920"
    cap-height="1434"
    bbox="-1176 -866 2550 2048"
    underline-thickness="102"
    underline-position="-204"
    unicode-range="U+0020-E09A"
  />
<missing-glyph horiz-adv-x="1331" 
d="M1092 2048v-2662h-844v2662h844zM887 1870h-441v-88h175v-99h-177v-88h443v88h-176v99h176v88zM711 1526h-267v-277h443v90h-176v187zM621 1436v-97h-89v97h89zM887 1178h-443v-88h177v-99h-177v-88h267v187h176v88zM887 1018h-88v-176h-355v-90h443v266zM887 692h-266
v-147h90v59h88v-125h-267v213h-88v-301h443v301zM887 231h-443v-301h443v301zM799 145v-127h-267v127h267zM887 -129h-443v-88h187l-187 -125v-88h443v88h-273l187 125h86v88z" />
    <glyph glyph-name="f_f" unicode="ff" horiz-adv-x="1159" 
d="M186 0v866h-104v56h104v86q0 210 101 334t272 124q166 0 277 -133q100 133 276 133q83 0 152 -36t106 -99l-117 -47q-42 117 -151 117q-103 0 -166.5 -82.5t-63.5 -204.5q0 -111 48 -192h208v-56h-215v-866h-168v866h-391v-866h-168zM360 922h385v86q0 105 29 200
q-11 31 -20 51t-28.5 50t-41 47.5t-56.5 31t-77 13.5q-103 0 -170.5 -83t-67.5 -204q0 -113 47 -192z" />
    <glyph glyph-name="f_f_i" unicode="ffi" horiz-adv-x="1628" 
d="M186 0v866h-104v56h104v86q0 210 101 334t272 124q167 0 279 -137q106 137 290 137q111 0 214.5 -58t134.5 -151q10 -20 10 -43q0 -44 -32.5 -76t-76.5 -32q-43 0 -75 30.5t-33 73.5q-3 91 -46 141t-118 50q-105 0 -169.5 -82t-64.5 -205q0 -111 48 -192h544v-922h-168
v866h-383v-866h-168v866h-391v-866h-168zM360 922h385v86q0 103 29 198q-12 32 -20 51t-27.5 50t-40.5 48.5t-56.5 31.5t-78.5 14q-103 0 -170.5 -83t-67.5 -204q0 -113 47 -192z" />
    <glyph glyph-name="f_i" unicode="fi" horiz-adv-x="1069" 
d="M186 0v866h-104v56h104v86q0 211 104 334.5t279 123.5q111 0 214.5 -58t134.5 -151q10 -20 10 -43q0 -44 -32.5 -76t-76.5 -32q-43 0 -75 30.5t-33 73.5q-3 91 -47 141t-121 50q-105 0 -167.5 -82t-62.5 -205q0 -113 47 -192h545v-922h-168v866h-383v-866h-168z" />
    <glyph glyph-name="f_l" unicode="fl" horiz-adv-x="1060" 
d="M186 0v866h-104v56h104v69q0 211 109 337t295 126q173 0 287 -102v-1352h-168v1196q0 94 -44.5 142t-111.5 48q-108 0 -171 -84t-63 -204q0 -97 39 -176h211v-56h-215v-866h-168z" />
    <glyph glyph-name=".notdef" horiz-adv-x="1331" 
d="M1092 2048v-2662h-844v2662h844zM887 1870h-441v-88h175v-99h-177v-88h443v88h-176v99h176v88zM711 1526h-267v-277h443v90h-176v187zM621 1436v-97h-89v97h89zM887 1178h-443v-88h177v-99h-177v-88h267v187h176v88zM887 1018h-88v-176h-355v-90h443v266zM887 692h-266
v-147h90v59h88v-125h-267v213h-88v-301h443v301zM887 231h-443v-301h443v301zM799 145v-127h-267v127h267zM887 -129h-443v-88h187l-187 -125v-88h443v88h-273l187 125h86v88z" />
    <glyph glyph-name=".null" horiz-adv-x="0" 
 />
    <glyph glyph-name="nonmarkingreturn" horiz-adv-x="682" 
 />
    <glyph glyph-name="space" unicode=" " horiz-adv-x="614" 
 />
    <glyph glyph-name="exclam" unicode="!" horiz-adv-x="442" 
d="M207 330l-39 1104h186l-41 -1104h-106zM262 0q-41 0 -69.5 28.5t-28.5 69.5q0 40 28.5 68.5t69.5 28.5q40 0 69 -28.5t29 -68.5q0 -41 -29 -69.5t-69 -28.5z" />
    <glyph glyph-name="quotedbl" unicode="&#x22;" horiz-adv-x="585" 
d="M188 1044l-24 392h115l-25 -392h-66zM414 1044l-25 392h115l-25 -392h-65z" />
    <glyph glyph-name="numbersign" unicode="#" horiz-adv-x="1509" 
d="M354 0l129 387h-319l26 64h314l102 307h-340l31 63h332l135 408h67l-135 -408l320 -2l137 410h68l-138 -410h344l-28 -61h-336l-102 -309h362l-29 -64h-354l-129 -385h-68l129 385l-321 2l-129 -387h-68zM893 449l102 309h-321l-103 -307z" />
    <glyph glyph-name="dollar" unicode="$" horiz-adv-x="1331" 
d="M668 -199v176q-172 5 -310.5 73t-193.5 190l78 26q48 -114 163.5 -171t262.5 -62v610q-51 14 -81.5 23.5t-79 25.5t-78.5 29.5t-70 34.5t-65 41.5t-52.5 49.5t-42.5 60.5t-25 71t-10 84.5q0 87 42 159.5t113.5 120.5t160.5 76.5t188 34.5v143h67v-141q175 -2 317 -69.5
t197 -192.5l-78 -27q-25 60 -71 105.5t-105 72.5t-123.5 40.5t-136.5 15.5v-598q54 -16 84 -25t80.5 -26t80 -30.5t71 -35.5t66.5 -43t53 -51t43.5 -62t25.5 -72.5t10 -86.5q0 -71 -28.5 -132.5t-77 -106.5t-114.5 -78.5t-140 -51.5t-154 -22v-179h-67zM668 821v578
q-150 -12 -249.5 -89.5t-99.5 -195.5q0 -51 18 -92t46 -69t77 -53.5t94 -42t114 -36.5zM735 35q153 11 256 89.5t103 197.5q0 51 -18.5 93t-48.5 71.5t-79 55.5t-97 43.5t-116 37.5v-588z" />
    <glyph glyph-name="percent" unicode="%" horiz-adv-x="1431" 
d="M244 0l981 1389q-141 -52 -287 -52q-109 0 -283 37q45 -42 71 -101.5t26 -125.5q0 -129 -85 -219t-208 -90t-209 90t-86 219q0 128 86 217.5t209 89.5h4q58 0 125 -31q217 -53 352 -53q154 0 317 62v2h68l-1014 -1434h-67zM461 874q64 0 101.5 77.5t37.5 195.5
q0 102 -29.5 176t-81.5 92q-2 0 -6.5 1t-7.5 1q-4 2 -14 2q-64 0 -101.5 -77t-37.5 -195t37.5 -195.5t101.5 -77.5zM1057 -18q-123 0 -209 90t-86 219q0 128 86 217.5t209 89.5q122 0 207.5 -90t85.5 -217q0 -129 -85 -219t-208 -90zM1059 18q64 0 101.5 77.5t37.5 195.5
t-37.5 195t-101.5 77t-101.5 -77t-37.5 -195t37.5 -195.5t101.5 -77.5z" />
    <glyph glyph-name="ampersand" unicode="&#x26;" horiz-adv-x="1513" 
d="M1432 -45q-181 0 -379 119q-169 -117 -391 -117q-120 0 -216.5 33.5t-157 90.5t-92.5 129.5t-32 154.5q0 125 73.5 242.5t213.5 199.5q-93 222 -93 405q0 87 31.5 158t84 114.5t116 67t131.5 23.5q125 0 214 -75t89 -206q0 -122 -98.5 -242t-294.5 -225
q80 -187 202.5 -366.5t256.5 -300.5q143 130 143 354q0 108 -78 219l86 64q27 -53 39 -127t12 -129q0 -252 -170 -412q170 -137 310 -137v-37zM606 887q167 88 249.5 190t82.5 205q0 106 -61 167.5t-144 61.5q-85 0 -148 -68.5t-63 -193.5q0 -148 84 -362zM684 23
q190 0 326 79q-164 110 -304.5 283.5t-230.5 368.5q-101 -73 -153 -169.5t-52 -197.5q0 -73 27.5 -138.5t78.5 -116t130.5 -80t177.5 -29.5z" />
    <glyph glyph-name="quotesingle" unicode="'" horiz-adv-x="360" 
d="M188 1044l-24 392h115l-25 -392h-66z" />
    <glyph glyph-name="parenleft" unicode="(" horiz-adv-x="610" 
d="M481 -240q-317 419 -317 838q0 417 317 836h47q-215 -419 -215 -836q0 -419 215 -838h-47z" />
    <glyph glyph-name="parenright" unicode=")" horiz-adv-x="610" 
d="M164 -240q215 419 215 838q0 417 -215 836h47q317 -415 317 -836q0 -423 -317 -838h-47z" />
    <glyph glyph-name="asterisk" unicode="*" horiz-adv-x="802" 
d="M385 981l35 250q0 8 4 16h-2l-201 -184l-57 88l225 109l4 4h-2l-2 2l-225 108l57 88l201 -184h2q-4 8 -4 16l-35 250h115l-35 -250q0 -8 -4 -16h2l201 184l57 -88l-225 -108l-2 -2h-2l4 -4l225 -109l-57 -88l-201 184h-2q4 -8 4 -16l35 -250h-115z" />
    <glyph glyph-name="plus" unicode="+" horiz-adv-x="1124" 
d="M569 213v426h-405v68h405v385h68v-385h405v-68h-405v-426h-68z" />
    <glyph glyph-name="comma" unicode="," horiz-adv-x="444" 
d="M272 -137l-22 12q16 40 16 66q0 20 -16 36.5t-35 27.5t-35 35t-16 56q0 44 29.5 71.5t68.5 27.5q29 0 53.5 -16.5t36.5 -47.5q10 -30 10 -55q0 -54 -27.5 -113.5t-62.5 -99.5z" />
    <glyph glyph-name="hyphen" unicode="-" horiz-adv-x="921" 
d="M164 444v68h676v-68h-676z" />
    <glyph glyph-name="period" unicode="." horiz-adv-x="442" 
d="M262 0q-40 0 -69 28.5t-29 69.5q0 40 29 68.5t69 28.5t69 -28.5t29 -68.5q0 -41 -29 -69.5t-69 -28.5z" />
    <glyph glyph-name="slash" unicode="/" horiz-adv-x="1050" 
d="M164 -240l737 1694h68l-738 -1694h-67z" />
    <glyph glyph-name="zero" unicode="0" horiz-adv-x="1298" 
d="M670 -20q-151 0 -271.5 94.5t-188 262.5t-67.5 378t68 379.5t189 265.5t270 96t269.5 -96t188.5 -265.5t68 -379.5t-67.5 -378t-187.5 -262.5t-271 -94.5zM670 23q163 0 255.5 183.5t92.5 508.5q0 326 -93 513t-255 187t-255 -187t-93 -513q0 -325 92.5 -508.5
t255.5 -183.5z" />
    <glyph glyph-name="one" unicode="1" horiz-adv-x="577" 
d="M205 0v1290l168 164v-1454h-168z" />
    <glyph glyph-name="two" unicode="2" horiz-adv-x="1112" 
d="M143 0q19 19 83 81t119 118.5t131 139t135 164t113.5 172t84 185.5t29.5 182q0 176 -81 263.5t-206 87.5q-57 0 -108 -16.5t-96.5 -52t-77.5 -99t-44 -150.5l-67 19q15 53 39.5 102.5t64.5 97.5t90 82.5t118.5 56t147.5 21.5q179 0 284.5 -112t105.5 -283
q0 -66 -18.5 -134t-49.5 -129.5t-78 -127.5t-96.5 -122.5t-113 -120t-119.5 -115.5t-123 -114q-21 -19 -31 -28h631v-168h-867z" />
    <glyph glyph-name="three" unicode="3" horiz-adv-x="1179" 
d="M555 -27q-131 0 -239.5 57t-172.5 167l68 45q39 -109 123 -165.5t192 -56.5q164 0 270.5 105.5t106.5 290.5q0 158 -71.5 253t-215.5 95q-40 0 -86 -6l-2 39q52 6 95 28.5t71 54t47.5 71.5t28 79.5t8.5 77.5q0 108 -35 180q-28 60 -85 90.5t-126 30.5q-131 0 -205 -79.5
t-77 -221.5l-78 18q41 163 147.5 246.5t251.5 83.5q71 0 136 -19.5t118.5 -57t85 -101t31.5 -143.5q0 -98 -53 -181t-162 -135q159 -13 254.5 -121t95.5 -254q0 -149 -71.5 -257.5t-188 -161t-262.5 -52.5z" />
    <glyph glyph-name="four" unicode="4" horiz-adv-x="1118" 
d="M745 0v410h-602l60 92l588 952h122v-1454h-168zM231 457h514v819z" />
    <glyph glyph-name="five" unicode="5" horiz-adv-x="1153" 
d="M532 -18q-131 0 -238 57t-151 162l70 43q31 -108 113.5 -166t185.5 -58q80 0 155.5 37.5t125.5 106.5q81 112 81 274q-1 194 -107 309t-269 115q-154 0 -314 -106v678h836v-168h-776v-430q155 88 315 88q132 0 243.5 -55.5t179.5 -158t69 -231.5q0 -94 -35.5 -184
t-102.5 -160q-72 -75 -173 -114t-208 -39z" />
    <glyph glyph-name="six" unicode="6" horiz-adv-x="1185" 
d="M637 -20q-98 0 -181 36.5t-139.5 98t-96.5 142t-58.5 168t-18.5 177.5q0 155 45.5 294.5t117.5 238t160.5 172t176 110.5t162.5 41v-26q-105 -7 -202.5 -96.5t-166.5 -234.5t-96 -315q62 71 147.5 110.5t180.5 39.5q179 0 297 -125t118 -317q0 -69 -18 -140t-55.5 -138
t-89.5 -119.5t-125.5 -84.5t-157.5 -32zM637 20q124 0 203.5 131.5t79.5 337.5q0 181 -76.5 294.5t-196.5 113.5q-87 0 -172 -61t-147 -181q-2 -18 -2 -53q0 -257 87 -419.5t224 -162.5z" />
    <glyph glyph-name="seven" unicode="7" horiz-adv-x="1079" 
d="M311 0q17 116 57.5 250t85.5 247t118.5 264.5t125 249.5t136.5 255h-691v168h834q-202 -366 -325 -734.5t-136 -699.5h-205z" />
    <glyph glyph-name="eight" unicode="8" horiz-adv-x="1157" 
d="M580 -18q-85 0 -162 20.5t-139 59t-99 100.5t-37 139q0 119 81 238.5t237 218.5q-114 95 -177 181t-63 177q0 81 34.5 147.5t91.5 107.5t126.5 63t144.5 22q92 0 169.5 -31t128.5 -98.5t51 -159.5q0 -99 -69.5 -195.5t-199.5 -178.5q64 -47 107.5 -82t95 -83.5t82 -90.5
t51.5 -93.5t21 -101.5q0 -87 -41 -157.5t-109.5 -113.5t-151.5 -66t-173 -23zM655 823q136 83 197 162.5t61 177.5q0 117 -85 182.5t-201 65.5q-113 0 -196 -63.5t-83 -176.5q0 -31 9 -60t32 -59t42 -51.5t60 -54.5t63 -49.5t72 -52.5q19 -14 29 -21zM580 37q142 0 244 65
t102 181q0 26 -9 52.5t-20.5 48t-36.5 49.5t-43 46t-55 48t-56 44.5t-64 48t-62 46.5l-80 61q-293 -182 -293 -420q0 -86 56 -149t138.5 -92t178.5 -29z" />
    <glyph glyph-name="nine" unicode="9" horiz-adv-x="1185" 
d="M422 -20v26q105 7 202.5 96.5t166.5 234t96 314.5q-62 -71 -147.5 -110t-180.5 -39q-179 0 -297.5 125.5t-118.5 316.5q0 87 29.5 176t84 165t142 124.5t191.5 48.5q98 0 180.5 -36.5t139.5 -98t96.5 -142t58 -168t18.5 -177.5q0 -155 -45.5 -294.5t-117 -238t-160 -172
t-176 -110.5t-162.5 -41zM580 541q87 0 172 60.5t147 180.5q2 18 2 54q0 257 -87 419t-224 162q-124 0 -203.5 -131.5t-79.5 -337.5q0 -181 76.5 -294t196.5 -113z" />
    <glyph glyph-name="colon" unicode=":" horiz-adv-x="440" 
d="M262 727q-41 0 -69.5 28.5t-28.5 69.5t28.5 69t69.5 28q40 0 68 -28t28 -69t-28 -69.5t-68 -28.5zM262 0q-42 0 -70 28t-28 70q0 40 28.5 68.5t69.5 28.5q40 0 68 -28.5t28 -68.5q0 -42 -28 -70t-68 -28z" />
    <glyph glyph-name="semicolon" unicode=";" horiz-adv-x="446" 
d="M262 727q-41 0 -69.5 28.5t-28.5 69.5t28.5 69t69.5 28q40 0 68 -28t28 -69t-28 -69.5t-68 -28.5zM274 -137l-22 12q16 40 16 66q0 20 -16 36.5t-35 27.5t-35 35t-16 56q0 44 29.5 71.5t68.5 27.5q29 0 53.5 -16.5t36.5 -47.5q11 -33 11 -55q0 -54 -28 -113t-63 -100z
" />
    <glyph glyph-name="less" unicode="&#x3c;" horiz-adv-x="1134" 
d="M1053 262l-783 391l-106 58l106 57l783 391v-84l-734 -364l734 -365v-84z" />
    <glyph glyph-name="equal" unicode="=" horiz-adv-x="1128" 
d="M164 791v67h878v-67h-878zM168 481v68h879v-68h-879z" />
    <glyph glyph-name="greater" unicode="&#x3e;" horiz-adv-x="1134" 
d="M164 262v84l733 365l-733 364v84l782 -391l107 -57l-107 -58z" />
    <glyph glyph-name="question" unicode="?" horiz-adv-x="958" 
d="M428 309q-1 80 27.5 174.5t70 182.5t82.5 177.5t70 189t29 188.5q0 125 -59 193.5t-167 68.5q-41 0 -81.5 -16.5t-76 -48t-57.5 -86t-22 -122.5q0 -30 6 -67h-86q0 95 31.5 171.5t84 123.5t117 71.5t133.5 24.5q64 0 124.5 -20.5t111 -59t81 -100.5t30.5 -137
q0 -89 -42 -185.5t-102 -183l-120 -173t-102 -182.5t-42 -184h-41zM451 0q-40 0 -69.5 28.5t-29.5 69.5q0 40 29.5 68.5t69.5 28.5t69 -28.5t29 -68.5q0 -41 -29 -69.5t-69 -28.5z" />
    <glyph glyph-name="at" unicode="@" horiz-adv-x="1810" 
d="M1008 -348q-161 0 -299 44.5t-237 121.5t-169 178.5t-104.5 217.5t-34.5 237q0 125 33.5 245t102.5 226.5t166 186.5t233 126.5t294 46.5q114 0 220.5 -27t200.5 -84.5t164 -139t110.5 -197.5t40.5 -254q0 -143 -58 -283t-155 -225q-103 -90 -224 -90q-99 0 -166 63.5
t-67 159.5q-41 -89 -106.5 -147t-141.5 -58q-56 0 -98.5 28.5t-68 77.5t-38 108t-12.5 126q0 97 29 195t80.5 180.5t132.5 134t176 51.5q100 0 166 -90l20 88h137q-34 -140 -96 -374t-68 -255q-10 -36 -10 -80q0 -74 41.5 -115.5t106.5 -41.5q91 0 182 76q83 74 134.5 204
t51.5 258q0 129 -37 238t-101.5 185.5t-151 130t-184.5 79t-204 25.5q-148 0 -275 -44t-217.5 -119t-155 -174.5t-95.5 -211.5t-31 -229q0 -113 31.5 -221t96.5 -203t155.5 -166t216.5 -112.5t272 -41.5q358 0 529 174h78q-99 -113 -258.5 -171t-337.5 -58zM842 61
q45 -1 87.5 45t76.5 124.5t57.5 151t44.5 155.5l49 200q-11 47 -47.5 85.5t-75.5 39.5q-81 4 -145.5 -56t-101.5 -156t-56.5 -199t-19.5 -197q0 -53 12 -94.5t42 -69.5t77 -29z" />
    <glyph glyph-name="A" unicode="A" horiz-adv-x="1536" 
d="M123 0l575 1434h131l584 -1434h-182l-195 477h-659l-193 -477h-61zM397 532h617l-309 762z" />
    <glyph glyph-name="B" unicode="B" horiz-adv-x="1542" 
d="M184 0v1434h543q270 0 417.5 -87t147.5 -262q0 -99 -75 -190.5t-220 -138.5q381 -63 381 -367q0 -129 -77 -217.5t-210 -130t-313 -41.5h-594zM352 764h365q397 0 397 330q0 138 -95.5 214t-291.5 76h-375v-620zM352 49h430q198 0 308 89.5t110 244.5q0 160 -104 246
t-299 86h-445v-666z" />
    <glyph glyph-name="C" unicode="C" horiz-adv-x="1660" 
d="M954 -20q-224 0 -399.5 93t-273 261t-97.5 381t98 381t274 261t400 93q189 0 339.5 -76.5t201.5 -189.5l-74 -27q-56 120 -175.5 185t-270.5 65q-119 0 -229 -50t-194.5 -138t-135.5 -218.5t-51 -281.5q0 -152 50 -284t134 -221.5t194.5 -140t229.5 -50.5q152 0 271 64.5
t175 184.5l74 -26q-51 -113 -201.5 -189.5t-339.5 -76.5z" />
    <glyph glyph-name="D" unicode="D" horiz-adv-x="1634" 
d="M184 0v1434h488q380 0 589 -182t209 -502q0 -357 -206.5 -553.5t-589.5 -196.5h-490zM352 49h322q306 0 462 176.5t156 522.5q0 312 -158 475t-462 163h-320v-1337z" />
    <glyph glyph-name="E" unicode="E" horiz-adv-x="1361" 
d="M184 0v1434h994v-56h-826v-610h635v-55h-635v-658h826v-55h-994z" />
    <glyph glyph-name="F" unicode="F" horiz-adv-x="1280" 
d="M184 0v1434h973v-56h-805v-610h635v-55h-635v-713h-168z" />
    <glyph glyph-name="G" unicode="G" horiz-adv-x="1724" 
d="M954 -20q-224 0 -399.5 93t-273 261t-97.5 381t98 381t274 261t400 93q189 0 339.5 -76.5t201.5 -189.5l-74 -27q-56 120 -175.5 185t-270.5 65q-120 0 -231.5 -50t-196.5 -138t-136 -218.5t-51 -281.5q0 -153 50.5 -284.5t134.5 -220t195.5 -139t232.5 -50.5
q119 0 233.5 43t163.5 108v418h168v-143q0 -146 -82 -255t-213.5 -162.5t-290.5 -53.5z" />
    <glyph glyph-name="H" unicode="H" horiz-adv-x="1521" 
d="M184 0v1434h168v-666h817v666h168v-1434h-168v713h-817v-713h-168z" />
    <glyph glyph-name="I" unicode="I" horiz-adv-x="577" 
d="M205 0v1434h168v-1434h-168z" />
    <glyph glyph-name="J" unicode="J" horiz-adv-x="634" 
d="M102 -37v17q44 0 76 14.5t51.5 49.5t31 66t16 91.5t5.5 97t1 109.5v4v1022h168v-1133q0 -203 -75 -274.5t-274 -63.5z" />
    <glyph glyph-name="K" unicode="K" horiz-adv-x="1443" 
d="M184 0v1434h168v-705l860 705h88l-833 -682l833 -752h-251l-697 627v-627h-168z" />
    <glyph glyph-name="L" unicode="L" horiz-adv-x="1280" 
d="M184 0v1434h168v-1379h785v-55h-953z" />
    <glyph glyph-name="M" unicode="M" horiz-adv-x="1959" 
d="M184 0v1434h172l660 -1244l592 1244h168v-1434h-168v1300l-621 -1300h-59l-688 1292v-1292h-56z" />
    <glyph glyph-name="N" unicode="N" horiz-adv-x="1521" 
d="M184 0v1434h166l932 -1162v1162h55v-1434h-51l-1046 1298v-1298h-56z" />
    <glyph glyph-name="O" unicode="O" horiz-adv-x="1949" 
d="M973 -20q-119 0 -232.5 29t-214.5 89.5t-177 146t-120.5 207t-44.5 263.5t44.5 263.5t121 207.5t177.5 147.5t215 91t233 29.5q120 0 234 -29.5t215 -91t177 -147.5t120 -207.5t44 -263.5t-44.5 -263t-120.5 -206.5t-177.5 -146.5t-215.5 -90t-234 -29zM975 35
q179 0 318.5 87t216.5 241.5t77 351.5q0 146 -46 273t-126.5 217.5t-194 142t-245.5 51.5q-175 0 -315.5 -88.5t-219 -245t-78.5 -350.5q0 -146 45.5 -272.5t125.5 -216t194.5 -140.5t247.5 -51z" />
    <glyph glyph-name="P" unicode="P" horiz-adv-x="1492" 
d="M184 0v1434h600q269 0 417.5 -107.5t148.5 -302.5t-148.5 -302.5t-417.5 -107.5h-432v-614h-168zM352 664h432q197 0 292 88t95 272t-95 272t-292 88h-432v-720z" />
    <glyph glyph-name="Q" unicode="Q" horiz-adv-x="1949" 
d="M1335 -297q-70 0 -147 27t-144 66t-130 78.5t-125.5 68.5t-110.5 32q-84 5 -141.5 -26t-104.5 -107l-16 6q20 64 86 117t157 70q-211 77 -343 251.5t-132 428.5q0 142 44.5 263.5t121 207.5t177.5 147.5t215 91t233 29.5q120 0 234 -29.5t215 -91t177 -147.5t120 -207.5
t44 -263.5t-44.5 -263t-120.5 -206.5t-177.5 -146.5t-215.5 -90t-234 -29h-21q45 -21 146 -78t174.5 -86t144.5 -29q140 0 264 127l13 -4q-168 -207 -359 -207zM975 35q179 0 318.5 87t216.5 241.5t77 351.5q0 146 -46 273t-126.5 217.5t-194 142t-245.5 51.5
q-175 0 -315.5 -88.5t-219 -245t-78.5 -350.5q0 -146 45.5 -272.5t125.5 -216t194.5 -140.5t247.5 -51z" />
    <glyph glyph-name="R" unicode="R" horiz-adv-x="1533" 
d="M184 0v1434h600q269 0 417.5 -107.5t148.5 -302.5q0 -168 -111.5 -271.5t-316.5 -129.5l393 -623h-199l-389 614h-375v-614h-168zM352 664h432q197 0 292 88t95 272t-95 272t-292 88h-432v-720z" />
    <glyph glyph-name="S" unicode="S" horiz-adv-x="1454" 
d="M709 -23q-115 0 -218.5 28.5t-186 89t-120.5 145.5l78 26q26 -62 73.5 -108t109 -72.5t128.5 -39.5t140 -13q165 0 277 80t112 209q0 54 -20.5 97t-51.5 72.5t-87 57t-105.5 44.5t-128.5 40q-206 58 -294 101q-193 94 -224 257q-7 34 -7 72q0 93 48 169.5t128 124.5
t179.5 73.5t205.5 25.5q177 0 320 -67.5t199 -194.5l-78 -27q-51 120 -171.5 177t-273.5 57q-165 0 -277 -79t-112 -208q0 -39 11 -71.5t27 -57.5t47 -48t58.5 -38t74.5 -33t82 -29t93 -28q83 -24 128 -38.5t117.5 -43t113 -58.5t84 -73t63 -99.5t19.5 -125.5
q0 -93 -48 -169.5t-128 -124.5t-179.5 -74t-205.5 -26z" />
    <glyph glyph-name="T" unicode="T" horiz-adv-x="1503" 
d="M668 0v1378h-525v56h1217v-56h-524v-1378h-168z" />
    <glyph glyph-name="U" unicode="U" horiz-adv-x="1488" 
d="M762 -20q-283 0 -430.5 141.5t-147.5 441.5v871h168v-893q0 -108 22 -193.5t60.5 -143t94 -95t118.5 -54t137 -16.5q210 0 337.5 134t127.5 384v877h56v-875q0 -147 -40 -259t-113.5 -181.5t-171.5 -104t-218 -34.5z" />
    <glyph glyph-name="V" unicode="V" horiz-adv-x="1529" 
d="M707 0l-584 1434h182l524 -1289l517 1289h61l-576 -1434h-124z" />
    <glyph glyph-name="W" unicode="W" horiz-adv-x="2426" 
d="M666 0l-543 1434h182l479 -1280l467 1280h62l452 -1280l478 1280h61l-535 -1434h-124l-424 1182l-430 -1182h-125z" />
    <glyph glyph-name="X" unicode="X" horiz-adv-x="1583" 
d="M184 0l535 672l-535 762h209l436 -623l496 623h74l-535 -672l535 -762h-207l-438 625l-498 -625h-72z" />
    <glyph glyph-name="Y" unicode="Y" horiz-adv-x="1501" 
d="M680 0v561l-557 873h201l493 -775l496 775h65l-530 -826v-608h-168z" />
    <glyph glyph-name="Z" unicode="Z" horiz-adv-x="1558" 
d="M184 0v55l990 1323h-990v56h1190v-56l-989 -1323h989v-55h-1190z" />
    <glyph glyph-name="bracketleft" unicode="[" horiz-adv-x="577" 
d="M164 -240v1674h332v-48h-183v-1579h183v-47h-332z" />
    <glyph glyph-name="backslash" unicode="\" horiz-adv-x="948" 
d="M799 -240l-635 1694h67l635 -1694h-67z" />
    <glyph glyph-name="bracketright" unicode="]" horiz-adv-x="577" 
d="M164 -240v47h182v1579h-182v48h332v-1674h-332z" />
    <glyph glyph-name="asciicircum" unicode="^" horiz-adv-x="694" 
d="M164 1147l186 430h76l186 -430h-92l-131 295l-133 -295h-92z" />
    <glyph glyph-name="underscore" unicode="_" horiz-adv-x="1226" 
d="M164 -166v68h981v-68h-981z" />
    <glyph glyph-name="grave" unicode="`" horiz-adv-x="522" 
d="M360 1534l-258 252h162l156 -252h-60z" />
    <glyph glyph-name="a" unicode="a" 
d="M567 -20q-108 0 -195 41t-140 109.5t-81 153t-28 177.5q0 137 51 245.5t153.5 173t241.5 64.5q225 0 355 -207v185h161v-922h-167v186q-132 -206 -351 -206zM608 43q30 0 64 9.5t76 37.5t76.5 69.5t60.5 113.5t33 163v43q-7 91 -33 165t-60.5 118.5t-77 75t-79.5 42
t-70 11.5q-75 0 -134 -36.5t-93.5 -97.5t-52 -133.5t-17.5 -152.5q0 -79 19.5 -153.5t56 -137t96.5 -100t135 -37.5z" />
    <glyph glyph-name="b" unicode="b" 
d="M682 -20q-120 0 -205 48t-145 148v-176h-168v1434h168v-686q126 196 348 196q139 0 241.5 -64.5t153.5 -173t51 -245.5q0 -93 -28 -177.5t-81 -153t-140 -109.5t-195 -41zM641 43q75 0 135 37.5t96.5 100t56 137t19.5 153.5q0 80 -17.5 152.5t-52 133.5t-93.5 97.5
t-134 36.5q-33 0 -69.5 -11.5t-79 -42t-77 -75t-60.5 -118.5t-33 -165v-47q7 -95 33 -167.5t60 -113t76.5 -66.5t75.5 -34t64 -8z" />
    <glyph glyph-name="c" unicode="c" horiz-adv-x="1157" 
d="M614 -16q-94 0 -180.5 30.5t-156.5 88.5t-112 151.5t-42 208.5t42.5 208.5t114 151.5t159.5 88.5t184 30.5q129 0 233.5 -56.5t163.5 -164.5l-80 -43q-33 109 -111.5 162t-189.5 53q-67 0 -126 -25.5t-106 -75.5t-74.5 -130.5t-27.5 -182.5q0 -212 95.5 -323t248.5 -111
q228 0 312 215l73 -35q-140 -241 -420 -241z" />
    <glyph glyph-name="d" unicode="d" 
d="M567 -20q-108 0 -195 41t-140 109.5t-81 153t-28 177.5q0 137 51 245.5t153.5 173t241.5 64.5q223 0 349 -196v686h167v-1434h-167v186q-132 -206 -351 -206zM608 43q30 0 64 9.5t76 37.5t76.5 69.5t60.5 113.5t33 163v43q-7 91 -33 165t-60.5 118.5t-77 75t-79.5 42
t-70 11.5q-75 0 -134 -36.5t-93.5 -97.5t-52 -133.5t-17.5 -152.5q0 -79 19.5 -153.5t56 -137t96.5 -100t135 -37.5z" />
    <glyph glyph-name="e" unicode="e" horiz-adv-x="1200" 
d="M614 -16q-94 0 -180.5 30.5t-156.5 88.5t-112 151.5t-42 208.5t42.5 208.5t114 151.5t159.5 88.5t184 30.5q91 0 172 -30.5t144.5 -88.5t100.5 -151t37 -209h-776v-2q0 -117 56.5 -209t144.5 -139t188 -47q92 0 175 43.5t141 130.5l36 -29q-64 -110 -179.5 -168.5
t-248.5 -58.5zM303 518h623q-10 182 -93.5 278.5t-211.5 96.5q-56 0 -109 -24t-97.5 -69.5t-74.5 -118.5t-37 -163z" />
    <glyph glyph-name="f" unicode="f" horiz-adv-x="600" 
d="M186 0v866h-104v56h104v86q0 209 98 333.5t269 124.5q83 0 152 -36t106 -99l-117 -47q-42 117 -151 117q-103 0 -166.5 -82.5t-63.5 -204.5q0 -113 47 -192h209v-56h-215v-866h-168z" />
    <glyph glyph-name="g" unicode="g" 
d="M627 -434q-114 0 -214 40.5t-153 110.5l21 33q56 -59 139.5 -94t169.5 -35q66 0 122.5 22t104 67.5t74.5 124.5t27 183v168q-132 -206 -351 -206q-108 0 -195 41t-140 109.5t-81 153t-28 177.5q0 137 51 245.5t153.5 173t241.5 64.5q225 0 355 -207v185h161v-902
q0 -117 -39.5 -207t-106 -142.5t-145.5 -78.5t-167 -26zM608 59q30 0 64 10t76 37.5t76.5 69.5t60.5 114t33 163v16q-7 91 -33 165t-60.5 118.5t-77 75t-79.5 42t-70 11.5q-75 0 -134 -35t-93.5 -94t-52 -130t-17.5 -151q0 -107 32.5 -198t104 -152.5t170.5 -61.5z" />
    <glyph glyph-name="h" unicode="h" horiz-adv-x="1239" 
d="M164 0v1434h168v-766q77 146 190 211q109 63 234 63q170 0 255 -99.5t85 -324.5v-518h-168v518q0 195 -48.5 277t-164.5 82q-60 0 -123 -28.5t-119.5 -81t-95.5 -138.5t-45 -189v-440h-168z" />
    <glyph glyph-name="i" unicode="i" horiz-adv-x="495" 
d="M246 1106q-44 0 -76.5 32t-32.5 76t32.5 76.5t76.5 32.5t76 -32.5t32 -76.5t-32 -76t-76 -32zM164 0v922h168v-922h-168z" />
    <glyph glyph-name="j" unicode="j" horiz-adv-x="514" 
d="M242 1106q-44 0 -76.5 32t-32.5 76t32.5 76.5t76.5 32.5t76 -32.5t32 -76.5t-32 -76t-76 -32zM-20 -440v16q44 0 76 14.5t51 49t30.5 65.5t16 90.5t5.5 96t1 109.5v7v914h168v-1024q0 -203 -74.5 -274.5t-273.5 -63.5z" />
    <glyph glyph-name="k" unicode="k" horiz-adv-x="1171" 
d="M164 0v1434h168v-1102l663 590h84l-477 -424l471 -498h-233l-365 383l-143 -127v-256h-168z" />
    <glyph glyph-name="l" unicode="l" horiz-adv-x="536" 
d="M184 0v1434l168 61v-1495h-168z" />
    <glyph glyph-name="m" unicode="m" horiz-adv-x="1916" 
d="M164 0v922h162v-263q66 135 169 209t238 74q130 0 208.5 -68.5t100.5 -220.5q73 142 171 215.5t241 73.5q156 0 238 -100t82 -324v-518h-168v512q0 195 -46 278.5t-147 83.5q-57 0 -116 -28t-110 -79t-87.5 -130t-46.5 -172v-465h-168v512q0 195 -46 278.5t-147 83.5
q-57 0 -116 -27t-110 -76.5t-87.5 -129t-46.5 -176.5v-465h-168z" />
    <glyph glyph-name="n" unicode="n" horiz-adv-x="1236" 
d="M164 0v922h162v-263q32 68 83 127t111 93q109 63 234 63q170 0 255 -99.5t85 -324.5v-518h-168v512q0 198 -48.5 280t-164.5 82q-60 0 -122.5 -27.5t-118.5 -79t-95 -137t-45 -190.5v-440h-168z" />
    <glyph glyph-name="o" unicode="o" horiz-adv-x="1269" 
d="M635 -16q-101 0 -192.5 30.5t-163 88.5t-114 151t-42.5 209t42.5 209t114 151t163 88.5t192.5 30.5t192.5 -30.5t163 -88.5t114 -151t42.5 -209t-42.5 -209t-114 -151t-163 -88.5t-192.5 -30.5zM633 33q154 0 245 113.5t91 328.5q0 203 -92 310.5t-244 107.5
q-153 0 -242.5 -111t-89.5 -321q0 -208 90 -318t242 -110z" />
    <glyph glyph-name="p" unicode="p" 
d="M164 -410v1332h162v-185q130 207 354 207q139 0 241.5 -64.5t153.5 -173t51 -245.5q0 -93 -28 -177.5t-81 -153t-140 -109.5t-195 -41q-120 0 -205 48t-145 148v-586h-168zM641 43q75 0 135 37.5t96.5 100t56 137t19.5 153.5q0 80 -17.5 152.5t-52 133.5t-93.5 97.5
t-134 36.5q-33 0 -69.5 -11.5t-79 -42t-77 -75t-60.5 -118.5t-33 -165v-41q7 -96 33.5 -170t60.5 -115t76.5 -67t75.5 -34.5t63 -8.5z" />
    <glyph glyph-name="q" unicode="q" 
d="M918 -410v596q-132 -206 -351 -206q-108 0 -195 41t-140 109.5t-81 153t-28 177.5q0 137 51 245.5t153.5 173t241.5 64.5q225 0 355 -207v185h161v-1332h-167zM608 43q30 0 64 9.5t76 37.5t76.5 69.5t60.5 113.5t33 163v43q-7 91 -33 165t-60.5 118.5t-77 75t-79.5 42
t-70 11.5q-75 0 -134 -36.5t-93.5 -97.5t-52 -133.5t-17.5 -152.5q0 -79 19.5 -153.5t56 -137t96.5 -100t135 -37.5z" />
    <glyph glyph-name="r" unicode="r" horiz-adv-x="980" 
d="M164 0v922h162v-244q164 264 393 264q166 0 242 -137l-140 -70q-24 75 -54.5 109.5t-88.5 34.5q-45 0 -98.5 -28.5t-106 -80.5t-92 -139t-49.5 -191v-440h-168z" />
    <glyph glyph-name="s" unicode="s" horiz-adv-x="1093" 
d="M541 -20q-147 0 -265 51t-153 145l102 19q19 -77 111 -118.5t209 -41.5q120 0 191 46.5t71 143.5q0 43 -29.5 73t-77.5 44t-109.5 26.5t-125.5 21t-125.5 28.5t-109.5 47.5t-77.5 79t-29.5 121.5q0 88 66 152.5t163 94t209 29.5q145 0 260.5 -52t149.5 -145l-101 -18
q-20 77 -105.5 120.5t-197.5 43.5q-126 0 -203 -46t-77 -147q0 -50 37.5 -81.5t98 -47t133.5 -27t146 -29t133.5 -44.5t98 -81t37.5 -132q0 -68 -36.5 -122t-98 -87t-137 -50t-158.5 -17z" />
    <glyph glyph-name="t" unicode="t" horiz-adv-x="661" 
d="M375 -23q-102 0 -145.5 62.5t-43.5 200.5v626h-104v56h104v368l168 62v-430h224v-56h-224v-516q0 -31 -1 -83.5t-1 -73.5q0 -84 15 -124t59 -40q65 0 131 86l23 -19q-85 -119 -205 -119z" />
    <glyph glyph-name="u" unicode="u" horiz-adv-x="1236" 
d="M483 -20q-170 0 -255 99t-85 324v519h168v-519q0 -198 48.5 -280t164.5 -82q58 0 119 27t116.5 77t95.5 131.5t50 180.5v465h168v-922h-162v262q-85 -156 -194 -219t-234 -63z" />
    <glyph glyph-name="v" unicode="v" horiz-adv-x="1075" 
d="M483 0l-422 922h183l358 -785l350 785h62l-412 -922h-119z" />
    <glyph glyph-name="w" unicode="w" horiz-adv-x="1607" 
d="M436 0l-375 922h183l311 -768l274 768h70l275 -775l311 775h61l-370 -922h-125l-246 680l-244 -680h-125z" />
    <glyph glyph-name="x" unicode="x" horiz-adv-x="1058" 
d="M137 0l328 408l-363 512h207l264 -375l301 375h74l-340 -424l348 -496h-204l-254 358l-287 -358h-74z" />
    <glyph glyph-name="y" unicode="y" horiz-adv-x="1239" 
d="M616 -434q-114 0 -213 40.5t-153 110.5l20 33q56 -59 140 -94t170 -35q66 0 122.5 22t103.5 67.5t74 124.5t27 183v215q-80 -132 -193.5 -192.5t-230.5 -60.5q-170 0 -255 99t-85 324v519h168v-502q0 -198 48.5 -280.5t164.5 -82.5q60 0 123 28.5t119.5 81.5t95.5 139.5
t45 191.5v424h168v-902q0 -94 -26.5 -171t-70.5 -129t-103.5 -87t-124.5 -51t-134 -16z" />
    <glyph glyph-name="z" unicode="z" horiz-adv-x="1198" 
d="M123 0v55l731 811h-731v56h942v-56l-731 -811h741v-55h-952z" />
    <glyph glyph-name="braceleft" unicode="{" horiz-adv-x="641" 
d="M559 -240q-133 0 -220 58t-87 131v502q0 56 -22.5 94t-65.5 47v10q43 9 65.5 46t22.5 93v504q0 73 87 131t220 58v-17q-72 0 -114 -48.5t-42 -123.5l-2 -485q0 -56 -34 -98t-129 -66q95 -24 130 -66t35 -98l-2 -483q0 -76 43 -126t115 -50v-13z" />
    <glyph glyph-name="bar" unicode="|" horiz-adv-x="313" 
d="M164 -240v1674h67v-1674h-67z" />
    <glyph glyph-name="braceright" unicode="}" horiz-adv-x="641" 
d="M164 -240v13q72 0 115 50t43 126l-3 483q0 56 35.5 98t130.5 66q-95 24 -129 66t-34 98l-3 485q0 75 -41.5 123.5t-113.5 48.5v17q133 0 220 -58t87 -131v-504q0 -56 22.5 -93t65.5 -46v-10q-43 -9 -65.5 -47t-22.5 -94v-502q0 -73 -87 -131t-220 -58z" />
    <glyph glyph-name="asciitilde" unicode="~" horiz-adv-x="1124" 
d="M856 567q-56 0 -126.5 24.5t-126.5 53.5t-126.5 53.5t-126.5 24.5q-103 0 -186 -78v78q87 78 186 78q56 0 126.5 -24.5t126.5 -53.5t126.5 -53.5t126.5 -24.5q103 0 186 78v-78q-87 -78 -186 -78z" />
    <glyph glyph-name="exclamdown" unicode="&#xa1;" horiz-adv-x="442" 
d="M262 825q-41 0 -69.5 28.5t-28.5 68.5q0 41 28.5 69.5t69.5 28.5q40 0 69 -28.5t29 -69.5q0 -40 -29 -68.5t-69 -28.5zM168 -414l39 1104h106l41 -1104h-186z" />
    <glyph glyph-name="cent" unicode="&#xa2;" horiz-adv-x="1165" 
d="M618 -205v191q-89 5 -169.5 38.5t-144.5 91t-102 147.5t-38 200q0 109 38 198.5t102 147t144.5 91t169.5 40.5v227h74v-225q120 -6 216.5 -62.5t152.5 -158.5l-80 -43q-31 105 -106.5 158.5t-182.5 56.5v-836q101 -8 195.5 38.5t159.5 144.5l36 -29q-60 -102 -164 -159.5
t-227 -65.5v-191h-74zM618 72v817q-121 -22 -198.5 -124t-77.5 -276q0 -162 77.5 -272t198.5 -145z" />
    <glyph glyph-name="sterling" unicode="&#xa3;" horiz-adv-x="1226" 
d="M225 0v57q76 74 124 177t48 215q0 51 -9.5 110t-16 85t-25.5 101h-182v68h164q-29 123 -29 223q0 83 25 153t67.5 118.5t99 82.5t119.5 50t129 16q112 0 204 -42t147 -121.5t55 -182.5q0 -17 -4 -49l-84 29q4 36 4 51q0 130 -75 200t-189 70q-144 0 -241 -96t-97 -271
q0 -88 33 -231h319v-68h-305q35 -159 35 -262q0 -167 -140 -315h693l-62 -168h-807z" />
    <glyph glyph-name="currency" unicode="&#xa4;" horiz-adv-x="1241" 
d="M166 -152l147 258q-149 139 -149 361q0 225 151 360l-149 260h92l129 -206q118 71 275 71q155 0 276 -71l129 206h92l-149 -262q149 -136 149 -358t-149 -358l149 -261h-92l-129 207q-121 -73 -276 -73q-157 0 -275 71l-129 -205h-92zM662 33q68 0 130.5 28t113 80
t80.5 136.5t30 189.5t-30.5 190t-81 137.5t-113 80.5t-129.5 28t-129.5 -28t-113 -80.5t-80.5 -137.5t-30 -190q0 -104 30 -189t80.5 -137t113 -80t129.5 -28z" />
    <glyph glyph-name="yen" unicode="&#xa5;" horiz-adv-x="1501" 
d="M721 0v338h-281v68h281v124h-281v68h256l-532 836h201l493 -775l496 775h65l-530 -826v-10h301v-68h-301v-124h301v-68h-301v-338h-168z" />
    <glyph glyph-name="brokenbar" unicode="&#xa6;" horiz-adv-x="313" 
d="M164 682v752h67v-752h-67zM164 -240v752h67v-752h-67z" />
    <glyph glyph-name="section" unicode="&#xa7;" horiz-adv-x="950" 
d="M528 0q-138 0 -240 59t-98 160l93 2q-3 -88 69.5 -135t173.5 -47q94 0 164 40.5t70 108.5q0 40 -33 78.5t-85.5 71.5t-116 67t-127 70t-116 74.5t-85.5 87t-33 100.5q0 69 50 124.5t126 70.5q-129 83 -147 145q-9 30 -9 60q0 67 49.5 117t124 73t160.5 23t159 -23
t120.5 -73t44.5 -117l-92 -2q4 84 -71.5 130t-178.5 46q-93 0 -160.5 -38.5t-67.5 -105.5q0 -40 33 -78.5t85.5 -71.5t116 -67t127 -70.5t116 -74.5t85.5 -87t33 -102q0 -68 -49 -120.5t-127 -69.5q135 -85 150 -147q10 -38 10 -66q0 -101 -95.5 -157t-228.5 -56zM666 444
q112 42 112 134q0 28 -19 57.5t-47 55t-74 57t-84.5 54.5t-94.5 56t-90 55q-115 -43 -115 -135q0 -28 19.5 -58t47.5 -55t74.5 -56.5t85 -54.5t95.5 -56t90 -54z" />
    <glyph glyph-name="dieresis" unicode="&#xa8;" horiz-adv-x="745" 
d="M203 1516q-43 0 -72 28.5t-29 71.5q0 40 28 70t69 30q44 0 74 -28.5t30 -71.5t-28.5 -71.5t-71.5 -28.5zM543 1516q-43 0 -72 28.5t-29 71.5q0 41 29 69.5t72 28.5q41 0 70.5 -28.5t29.5 -69.5q0 -42 -29 -71t-71 -29z" />
    <glyph glyph-name="copyright" unicode="&#xa9;" horiz-adv-x="1554" 
d="M819 -18q-133 0 -254.5 52t-209 139.5t-139.5 208t-52 253.5t52 254t139.5 208.5t209 139t254.5 51.5q132 0 253 -52t209 -139.5t140 -208.5t52 -253t-52 -253t-140 -208.5t-209 -139.5t-253 -52zM819 51q158 0 292.5 78.5t213 213t78.5 292.5t-78.5 292.5t-213 213
t-292.5 78.5q-159 0 -293.5 -78t-212 -212.5t-77.5 -293.5t77.5 -293t212 -212.5t293.5 -78.5zM838 276q-107 0 -186 54.5t-115.5 136.5t-36.5 176q0 95 36.5 177t115 136t186.5 54q107 0 182 -56t82 -147l-105 -4q-7 55 -49 83.5t-110 28.5q-112 0 -174 -80t-62 -190
q0 -114 62 -195t174 -81q122 0 155 114h115q-13 -80 -87 -143.5t-183 -63.5z" />
    <glyph glyph-name="guillemotleft" unicode="&#xab;" horiz-adv-x="1314" 
d="M803 242l-639 448l639 449v-84l-508 -365l508 -364v-84zM1233 242l-639 448l639 449v-84l-508 -365l508 -364v-84z" />
    <glyph glyph-name="logicalnot" unicode="&#xac;" horiz-adv-x="1124" 
d="M975 336v344h-811v68h878v-412h-67z" />
    <glyph glyph-name="registered" unicode="&#xae;" horiz-adv-x="985" 
d="M535 901q-154 0 -262.5 108.5t-108.5 262.5q0 152 108.5 260t262.5 108q152 0 260 -108t108 -260q0 -154 -108 -262.5t-260 -108.5zM535 954q131 0 223 93t92 225q0 130 -92 222.5t-223 92.5q-132 0 -225 -92t-93 -223q0 -132 93 -225t225 -93zM428 1073v414h72
q59 0 90 -10q50 -16 74 -49t24 -74q0 -51 -35 -90.5t-96 -49.5l117 -141h-90l-84 103v-103h-72zM500 1233q66 1 95.5 34t29.5 85q0 118 -125 110v-229z" />
    <glyph glyph-name="macron" unicode="&#xaf;" horiz-adv-x="806" 
d="M102 1538v100h603v-100h-603z" />
    <glyph glyph-name="degree" unicode="&#xb0;" horiz-adv-x="847" 
d="M465 954q-125 0 -213 88t-88 213t88 213t213 88t213 -88t88 -213t-88 -213t-213 -88zM465 1014q98 0 167.5 70.5t69.5 170.5q0 98 -69.5 168t-167.5 70t-168 -70t-70 -168q0 -100 70 -170.5t168 -70.5z" />
    <glyph glyph-name="plusminus" unicode="&#xb1;" horiz-adv-x="1124" 
d="M569 295v426h-405v67h405v386h68v-386h405v-67h-405v-426h-68zM164 127v68h878v-68h-878z" />
    <glyph glyph-name="acute" unicode="&#xb4;" horiz-adv-x="522" 
d="M102 1534l156 252h162l-258 -252h-60z" />
    <glyph glyph-name="paragraph" unicode="&#xb6;" horiz-adv-x="1087" 
d="M506 0v670q-162 24 -252 135t-90 252q0 73 25.5 139.5t74 120t126.5 85.5t175 32h68v-1434h-127zM879 0v1434h127v-1434h-127z" />
    <glyph glyph-name="periodcentered" unicode="&#xb7;" horiz-adv-x="440" 
d="M262 541q-41 0 -69.5 28.5t-28.5 69.5q0 40 28.5 68t69.5 28q40 0 68 -28t28 -68q0 -41 -28 -69.5t-68 -28.5z" />
    <glyph glyph-name="cedilla" unicode="&#xb8;" horiz-adv-x="616" 
d="M324 -442q-124 0 -222 98l19 27q74 -50 129 -50q53 0 84 36t31 83t-32 81t-93 34q-27 0 -43 -4l67 137h70l-47 -94q112 7 169.5 -43.5t57.5 -124.5q0 -83 -54.5 -131.5t-135.5 -48.5z" />
    <glyph glyph-name="guillemotright" unicode="&#xbb;" horiz-adv-x="1314" 
d="M164 242v84l508 364l-508 365v84l639 -449zM594 242v84l508 364l-508 365v84l639 -449z" />
    <glyph glyph-name="onequarter" unicode="&#xbc;" horiz-adv-x="1521" 
d="M330 623v921l119 119v-1040h-119zM164 -283l1149 1860h88l-1149 -1860h-88zM1300 -229v292h-430l41 66l420 682h88v-1040h-119zM934 98h366v586z" />
    <glyph glyph-name="onehalf" unicode="&#xbd;" horiz-adv-x="1755" 
d="M309 623v921l119 119v-1040h-119zM164 -283l1149 1860h88l-1149 -1860h-88zM1032 -223q13 14 71.5 71t105 104t110 123.5t106.5 143.5t74 149t31 154q0 126 -59 188t-150 62q-86 0 -149.5 -54t-79.5 -173l-50 14q14 49 39.5 92t64.5 81.5t97.5 61.5t128.5 23
q127 0 203 -80t76 -202q0 -65 -25.5 -132.5t-62 -123.5t-97 -123t-110 -114.5t-121.5 -113.5l-33 -30h451v-121h-621z" />
    <glyph glyph-name="threequarters" unicode="&#xbe;" horiz-adv-x="1744" 
d="M459 635q-93 0 -171 41t-124 119l49 32q28 -79 87.5 -118t139.5 -39q116 0 191.5 75.5t75.5 206.5q0 112 -51 180t-154 68q-16 0 -62 -4l-2 29q89 10 134.5 77t45.5 144q0 68 -26 129q-19 42 -60 64t-90 22q-94 0 -146.5 -56t-55.5 -159l-56 14q30 116 106 176t179 60
q109 0 187.5 -59.5t78.5 -172.5q0 -69 -37.5 -129t-115.5 -96q113 -9 181 -85.5t68 -180.5q0 -158 -106.5 -248t-265.5 -90zM406 -283l1148 1860h88l-1148 -1860h-88zM1485 -229v292h-430l41 66l420 682h88v-1040h-119zM1118 98h367v586z" />
    <glyph glyph-name="questiondown" unicode="&#xbf;" horiz-adv-x="958" 
d="M590 825q-40 0 -69 28.5t-29 68.5q0 41 29 69.5t69 28.5t69 -28.5t29 -69.5q0 -40 -29 -68.5t-69 -28.5zM510 -514q-86 0 -163.5 34.5t-130 109t-52.5 173.5q0 89 42 185.5t102 183t119.5 173t101.5 182.5t42 184h41q1 -80 -27.5 -174.5t-69.5 -182.5t-82 -177.5
t-70 -189t-29 -188.5q0 -125 58.5 -193.5t166.5 -68.5q41 0 83.5 15.5t81 45.5t63 83.5t24.5 121.5q0 33 -6 74h72q0 -95 -31.5 -171.5t-84.5 -123.5t-117.5 -71.5t-133.5 -24.5z" />
    <glyph glyph-name="Agrave" unicode="&#xc0;" horiz-adv-x="1536" 
d="M793 1536l-258 252h161l156 -252h-59zM123 0l575 1434h131l584 -1434h-182l-195 477h-659l-193 -477h-61zM397 532h617l-309 762z" />
    <glyph glyph-name="Aacute" unicode="&#xc1;" horiz-adv-x="1536" 
d="M588 1536l155 252h162l-258 -252h-59zM123 0l575 1434h131l584 -1434h-182l-195 477h-659l-193 -477h-61zM397 532h617l-309 762z" />
    <glyph glyph-name="Acircumflex" unicode="&#xc2;" horiz-adv-x="1536" 
d="M461 1452l155 252h273l155 -252h-59l-231 227l-234 -227h-59zM123 0l575 1434h131l584 -1434h-182l-195 477h-659l-193 -477h-61zM397 532h617l-309 762z" />
    <glyph glyph-name="Atilde" unicode="&#xc3;" horiz-adv-x="1536" 
d="M944 1513q-52 0 -120 30t-131 59.5t-101 29.5q-57 0 -83 -27.5t-26 -70.5h-30q0 119 35.5 165t101.5 46q51 0 118.5 -27.5t130.5 -54.5t103 -27q46 0 77.5 25t31.5 63h30q0 -119 -35.5 -165t-101.5 -46zM123 0l575 1434h131l584 -1434h-182l-195 477h-659l-193 -477h-61z
M397 532h617l-309 762z" />
    <glyph glyph-name="Adieresis" unicode="&#xc4;" horiz-adv-x="1536" 
d="M580 1516q-43 0 -72 28.5t-29 71.5q0 41 27.5 70.5t68.5 29.5q44 0 74.5 -28.5t30.5 -71.5t-28.5 -71.5t-71.5 -28.5zM920 1516q-43 0 -72 28.5t-29 71.5q0 41 29 69.5t72 28.5q41 0 70.5 -28.5t29.5 -69.5q0 -42 -29 -71t-71 -29zM123 0l575 1434h131l584 -1434h-182
l-195 477h-659l-193 -477h-61zM397 532h617l-309 762z" />
    <glyph glyph-name="Aring" unicode="&#xc5;" horiz-adv-x="1536" 
d="M829 1434l584 -1434h-182l-195 477h-659l-193 -477h-61l575 1432q-59 20 -96 71t-37 113q0 79 57.5 136.5t137.5 57.5t137 -57t57 -137q0 -61 -35.5 -110.5t-91.5 -71.5h2zM621 1616q0 -58 41 -99.5t98 -41.5t98 41.5t41 99.5q0 56 -40 98.5t-95 42.5q-58 0 -100.5 -42
t-42.5 -99zM397 532h617l-309 762z" />
    <glyph glyph-name="AE" unicode="&#xc6;" horiz-adv-x="2099" 
d="M123 0l668 1434h1124v-56h-785v-610h594v-55h-594v-658h785v-55h-952v477h-555l-224 -477h-61zM432 532h531v846h-136v2z" />
    <glyph glyph-name="Ccedilla" unicode="&#xc7;" horiz-adv-x="1619" 
d="M975 23q152 0 271 64.5t175 184.5l74 -26q-47 -105 -181 -179.5t-308 -84.5l-37 -76q112 7 169.5 -43.5t57.5 -124.5q0 -83 -54.5 -131.5t-135.5 -48.5q-124 0 -222 98l19 27q74 -50 129 -50q53 0 84 36t31 83t-32 81t-93 34q-27 0 -43 -4l57 117q-219 4 -390 98
t-266.5 260.5t-95.5 376.5q0 213 98 381t274 261t400 93q189 0 339.5 -76.5t201.5 -189.5l-74 -27q-56 120 -175.5 185t-270.5 65q-119 0 -229 -50t-194.5 -138t-135.5 -218.5t-51 -281.5q0 -152 50 -284t134 -221.5t194.5 -140t229.5 -50.5z" />
    <glyph glyph-name="Egrave" unicode="&#xc8;" horiz-adv-x="1361" 
d="M725 1534l-258 252h162l155 -252h-59zM184 0v1434h994v-56h-826v-610h635v-55h-635v-658h826v-55h-994z" />
    <glyph glyph-name="Eacute" unicode="&#xc9;" horiz-adv-x="1361" 
d="M596 1534l156 252h161l-258 -252h-59zM184 0v1434h994v-56h-826v-610h635v-55h-635v-658h826v-55h-994z" />
    <glyph glyph-name="Ecircumflex" unicode="&#xca;" horiz-adv-x="1361" 
d="M401 1536l156 252h272l156 -252h-59l-232 227l-233 -227h-60zM184 0v1434h994v-56h-826v-610h635v-55h-635v-658h826v-55h-994z" />
    <glyph glyph-name="Edieresis" unicode="&#xcb;" horiz-adv-x="1361" 
d="M520 1534q-43 0 -71.5 28.5t-28.5 71.5q0 41 28 71t68 30q44 0 74.5 -29t30.5 -72t-29 -71.5t-72 -28.5zM860 1534q-43 0 -71.5 28.5t-28.5 71.5q0 42 29 70.5t71 28.5q41 0 71 -29t30 -70q0 -42 -29.5 -71t-71.5 -29zM184 0v1434h994v-56h-826v-610h635v-55h-635v-658
h826v-55h-994z" />
    <glyph glyph-name="Igrave" unicode="&#xcc;" horiz-adv-x="577" 
d="M297 1534l-258 252h162l155 -252h-59zM205 0v1434h168v-1434h-168z" />
    <glyph glyph-name="Iacute" unicode="&#xcd;" horiz-adv-x="577" 
d="M213 1532l156 252h161l-258 -252h-59zM205 0v1434h168v-1434h-168z" />
    <glyph glyph-name="Icircumflex" unicode="&#xce;" horiz-adv-x="577" 
d="M-4 1536l156 252h272l156 -252h-60l-231 227l-234 -227h-59zM205 0v1434h168v-1434h-168z" />
    <glyph glyph-name="Idieresis" unicode="&#xcf;" horiz-adv-x="577" 
d="M119 1536q-43 0 -72 28.5t-29 71.5q0 40 28 70.5t69 30.5q44 0 74 -29t30 -72t-28.5 -71.5t-71.5 -28.5zM459 1536q-43 0 -72 28.5t-29 71.5q0 41 29 70t72 29q41 0 70.5 -29t29.5 -70q0 -42 -29 -71t-71 -29zM205 0v1434h168v-1434h-168z" />
    <glyph glyph-name="Eth" unicode="&#xd0;" horiz-adv-x="1634" 
d="M184 0v696h-164v68h164v670h488q380 0 589 -182t209 -502q0 -357 -206.5 -553.5t-589.5 -196.5h-490zM352 49h322q306 0 462 176.5t156 522.5q0 312 -158 475t-462 163h-320v-622h260v-68h-260v-647z" />
    <glyph glyph-name="Ntilde" unicode="&#xd1;" horiz-adv-x="1521" 
d="M997 1534q-52 0 -120 30t-131 59.5t-101 29.5q-57 0 -82.5 -28t-25.5 -71h-31q0 119 35.5 165t101.5 46q51 0 118.5 -27t130.5 -54t103 -27q46 0 77.5 25t31.5 63h31q0 -119 -35.5 -165t-102.5 -46zM184 0v1434h166l932 -1162v1162h55v-1434h-51l-1046 1298v-1298h-56z
" />
    <glyph glyph-name="Ograve" unicode="&#xd2;" horiz-adv-x="1949" 
d="M971 1534l-258 252h161l156 -252h-59zM973 -20q-119 0 -232.5 29t-214.5 89.5t-177 146t-120.5 207t-44.5 263.5t44.5 263.5t121 207.5t177.5 147.5t215 91t233 29.5q120 0 234 -29.5t215 -91t177 -147.5t120 -207.5t44 -263.5t-44.5 -263t-120.5 -206.5t-177.5 -146.5
t-215.5 -90t-234 -29zM975 35q179 0 318.5 87t216.5 241.5t77 351.5q0 146 -46 273t-126.5 217.5t-194 142t-245.5 51.5q-175 0 -315.5 -88.5t-219 -245t-78.5 -350.5q0 -146 45.5 -272.5t125.5 -216t194.5 -140.5t247.5 -51z" />
    <glyph glyph-name="Oacute" unicode="&#xd3;" horiz-adv-x="1949" 
d="M944 1534l156 252h162l-258 -252h-60zM973 -20q-119 0 -232.5 29t-214.5 89.5t-177 146t-120.5 207t-44.5 263.5t44.5 263.5t121 207.5t177.5 147.5t215 91t233 29.5q120 0 234 -29.5t215 -91t177 -147.5t120 -207.5t44 -263.5t-44.5 -263t-120.5 -206.5t-177.5 -146.5
t-215.5 -90t-234 -29zM975 35q179 0 318.5 87t216.5 241.5t77 351.5q0 146 -46 273t-126.5 217.5t-194 142t-245.5 51.5q-175 0 -315.5 -88.5t-219 -245t-78.5 -350.5q0 -146 45.5 -272.5t125.5 -216t194.5 -140.5t247.5 -51z" />
    <glyph glyph-name="Ocircumflex" unicode="&#xd4;" horiz-adv-x="1949" 
d="M664 1534l155 252h273l155 -252h-59l-232 227l-233 -227h-59zM973 -20q-119 0 -232.5 29t-214.5 89.5t-177 146t-120.5 207t-44.5 263.5t44.5 263.5t121 207.5t177.5 147.5t215 91t233 29.5q120 0 234 -29.5t215 -91t177 -147.5t120 -207.5t44 -263.5t-44.5 -263
t-120.5 -206.5t-177.5 -146.5t-215.5 -90t-234 -29zM975 35q179 0 318.5 87t216.5 241.5t77 351.5q0 146 -46 273t-126.5 217.5t-194 142t-245.5 51.5q-175 0 -315.5 -88.5t-219 -245t-78.5 -350.5q0 -146 45.5 -272.5t125.5 -216t194.5 -140.5t247.5 -51z" />
    <glyph glyph-name="Otilde" unicode="&#xd5;" horiz-adv-x="1949" 
d="M1114 1536q-52 0 -120 30t-131 59.5t-101 29.5q-57 0 -83 -28t-26 -71h-30q0 119 35.5 165t101.5 46q51 0 118.5 -27t130.5 -54t103 -27q46 0 77.5 25t31.5 63h30q0 -119 -35.5 -165t-101.5 -46zM973 -20q-119 0 -232.5 29t-214.5 89.5t-177 146t-120.5 207t-44.5 263.5
t44.5 263.5t121 207.5t177.5 147.5t215 91t233 29.5q120 0 234 -29.5t215 -91t177 -147.5t120 -207.5t44 -263.5t-44.5 -263t-120.5 -206.5t-177.5 -146.5t-215.5 -90t-234 -29zM975 35q179 0 318.5 87t216.5 241.5t77 351.5q0 146 -46 273t-126.5 217.5t-194 142
t-245.5 51.5q-175 0 -315.5 -88.5t-219 -245t-78.5 -350.5q0 -146 45.5 -272.5t125.5 -216t194.5 -140.5t247.5 -51z" />
    <glyph glyph-name="Odieresis" unicode="&#xd6;" horiz-adv-x="1949" 
d="M793 1532q-43 0 -72 28.5t-29 71.5q0 41 28 71t68 30q44 0 74.5 -29t30.5 -72t-28.5 -71.5t-71.5 -28.5zM1133 1532q-43 0 -72 28.5t-29 71.5q0 41 29 70t72 29q41 0 70.5 -29t29.5 -70q0 -42 -29 -71t-71 -29zM973 -20q-119 0 -232.5 29t-214.5 89.5t-177 146
t-120.5 207t-44.5 263.5t44.5 263.5t121 207.5t177.5 147.5t215 91t233 29.5q120 0 234 -29.5t215 -91t177 -147.5t120 -207.5t44 -263.5t-44.5 -263t-120.5 -206.5t-177.5 -146.5t-215.5 -90t-234 -29zM975 35q179 0 318.5 87t216.5 241.5t77 351.5q0 146 -46 273
t-126.5 217.5t-194 142t-245.5 51.5q-175 0 -315.5 -88.5t-219 -245t-78.5 -350.5q0 -146 45.5 -272.5t125.5 -216t194.5 -140.5t247.5 -51z" />
    <glyph glyph-name="multiply" unicode="&#xd7;" horiz-adv-x="929" 
d="M211 332l-47 47l299 291l-285 284l49 47l283 -282l276 268l48 -47l-277 -268l291 -291l-47 -49l-291 291z" />
    <glyph glyph-name="Oslash" unicode="&#xd8;" horiz-adv-x="1949" 
d="M1491 1288q128 -96 201 -241t73 -332q0 -142 -44.5 -263t-120.5 -206.5t-177.5 -146.5t-215.5 -90t-234 -29q-143 0 -277 41.5t-241 123.5l-152 -165h-78l185 202q-226 206 -226 533q0 142 44.5 263.5t121 207.5t177.5 147.5t215 91t233 29.5q260 0 469 -131l119 131h79z
M362 715q0 -258 132 -439l880 971q-165 152 -399 152q-175 0 -315.5 -88.5t-219 -245t-78.5 -350.5zM975 35q179 0 318.5 87t216.5 241.5t77 351.5q0 146 -44.5 271.5t-127.5 217.5l-885 -975q172 -194 445 -194z" />
    <glyph glyph-name="Ugrave" unicode="&#xd9;" horiz-adv-x="1488" 
d="M805 1454l-258 252h162l155 -252h-59zM762 -20q-283 0 -430.5 141.5t-147.5 441.5v871h168v-893q0 -108 22 -193.5t60.5 -143t94 -95t118.5 -54t137 -16.5q210 0 337.5 134t127.5 384v877h56v-875q0 -147 -40 -259t-113.5 -181.5t-171.5 -104t-218 -34.5z" />
    <glyph glyph-name="Uacute" unicode="&#xda;" horiz-adv-x="1488" 
d="M752 1452l155 252h162l-258 -252h-59zM762 -20q-283 0 -430.5 141.5t-147.5 441.5v871h168v-893q0 -108 22 -193.5t60.5 -143t94 -95t118.5 -54t137 -16.5q210 0 337.5 134t127.5 384v877h56v-875q0 -147 -40 -259t-113.5 -181.5t-171.5 -104t-218 -34.5z" />
    <glyph glyph-name="Ucircumflex" unicode="&#xdb;" horiz-adv-x="1488" 
d="M510 1491l156 252h272l156 -252h-60l-231 227l-234 -227h-59zM762 -20q-283 0 -430.5 141.5t-147.5 441.5v871h168v-893q0 -108 22 -193.5t60.5 -143t94 -95t118.5 -54t137 -16.5q210 0 337.5 134t127.5 384v877h56v-875q0 -147 -40 -259t-113.5 -181.5t-171.5 -104
t-218 -34.5z" />
    <glyph glyph-name="Udieresis" unicode="&#xdc;" horiz-adv-x="1488" 
d="M643 1485q-43 0 -71.5 28.5t-28.5 71.5q0 41 28 71t68 30q44 0 74 -29t30 -72t-28.5 -71.5t-71.5 -28.5zM983 1485q-43 0 -71.5 28.5t-28.5 71.5q0 41 28.5 69.5t71.5 28.5q41 0 70.5 -28.5t29.5 -69.5q0 -42 -29 -71t-71 -29zM762 -20q-283 0 -430.5 141.5t-147.5 441.5
v871h168v-893q0 -108 22 -193.5t60.5 -143t94 -95t118.5 -54t137 -16.5q210 0 337.5 134t127.5 384v877h56v-875q0 -147 -40 -259t-113.5 -181.5t-171.5 -104t-218 -34.5z" />
    <glyph glyph-name="Yacute" unicode="&#xdd;" horiz-adv-x="1501" 
d="M791 1536l155 252h162l-258 -252h-59zM680 0v561l-557 873h201l493 -775l496 775h65l-530 -826v-608h-168z" />
    <glyph glyph-name="Thorn" unicode="&#xde;" horiz-adv-x="1492" 
d="M184 0v1434h168v-287h432q269 0 417.5 -107.5t148.5 -302.5t-148.5 -302t-417.5 -107h-432v-328h-168zM352 377h432q197 0 292 88t95 272t-95 272.5t-292 88.5h-432v-721z" />
    <glyph glyph-name="germandbls" unicode="&#xdf;" horiz-adv-x="1243" 
d="M709 -23q-113 0 -196 54t-101 162h24q19 -88 88.5 -130.5t155.5 -42.5q134 0 217.5 97.5t83.5 238.5q0 67 -17 123t-54 103.5t-104.5 74t-160.5 25.5q-16 -2 -49 -2v31q105 0 175.5 80.5t70.5 207.5q0 133 -67 206t-177 73q-51 0 -96 -17t-84.5 -53t-62.5 -101t-23 -153
v-954h-168v874q0 115 34.5 201.5t96 137.5t140 75.5t173.5 24.5q180 0 279.5 -93t99.5 -221q0 -91 -53 -169.5t-150 -118.5q165 -19 252.5 -117t87.5 -232q0 -170 -113 -277.5t-302 -107.5z" />
    <glyph glyph-name="agrave" unicode="&#xe0;" 
d="M608 1049l-258 251h162l156 -251h-60zM567 -20q-108 0 -195 41t-140 109.5t-81 153t-28 177.5q0 137 51 245.5t153.5 173t241.5 64.5q225 0 355 -207v185h161v-922h-167v186q-132 -206 -351 -206zM608 43q30 0 64 9.5t76 37.5t76.5 69.5t60.5 113.5t33 163v43
q-7 91 -33 165t-60.5 118.5t-77 75t-79.5 42t-70 11.5q-75 0 -134 -36.5t-93.5 -97.5t-52 -133.5t-17.5 -152.5q0 -79 19.5 -153.5t56 -137t96.5 -100t135 -37.5z" />
    <glyph glyph-name="aacute" unicode="&#xe1;" 
d="M555 1044l156 252h161l-258 -252h-59zM567 -20q-108 0 -195 41t-140 109.5t-81 153t-28 177.5q0 137 51 245.5t153.5 173t241.5 64.5q225 0 355 -207v185h161v-922h-167v186q-132 -206 -351 -206zM608 43q30 0 64 9.5t76 37.5t76.5 69.5t60.5 113.5t33 163v43
q-7 91 -33 165t-60.5 118.5t-77 75t-79.5 42t-70 11.5q-75 0 -134 -36.5t-93.5 -97.5t-52 -133.5t-17.5 -152.5q0 -79 19.5 -153.5t56 -137t96.5 -100t135 -37.5z" />
    <glyph glyph-name="acircumflex" unicode="&#xe2;" 
d="M311 1067l156 252h272l156 -252h-59l-232 227l-233 -227h-60zM567 -20q-108 0 -195 41t-140 109.5t-81 153t-28 177.5q0 137 51 245.5t153.5 173t241.5 64.5q225 0 355 -207v185h161v-922h-167v186q-132 -206 -351 -206zM608 43q30 0 64 9.5t76 37.5t76.5 69.5
t60.5 113.5t33 163v43q-7 91 -33 165t-60.5 118.5t-77 75t-79.5 42t-70 11.5q-75 0 -134 -36.5t-93.5 -97.5t-52 -133.5t-17.5 -152.5q0 -79 19.5 -153.5t56 -137t96.5 -100t135 -37.5z" />
    <glyph glyph-name="atilde" unicode="&#xe3;" 
d="M750 1049q-52 0 -120.5 29.5t-131.5 59t-101 29.5q-57 0 -82.5 -27.5t-25.5 -70.5h-31q0 119 35.5 165t101.5 46q51 0 118.5 -27t131 -54.5t103.5 -27.5q46 0 77 25.5t31 63.5h31q0 -119 -35.5 -165t-101.5 -46zM567 -20q-108 0 -195 41t-140 109.5t-81 153t-28 177.5
q0 137 51 245.5t153.5 173t241.5 64.5q225 0 355 -207v185h161v-922h-167v186q-132 -206 -351 -206zM608 43q30 0 64 9.5t76 37.5t76.5 69.5t60.5 113.5t33 163v43q-7 91 -33 165t-60.5 118.5t-77 75t-79.5 42t-70 11.5q-75 0 -134 -36.5t-93.5 -97.5t-52 -133.5
t-17.5 -152.5q0 -79 19.5 -153.5t56 -137t96.5 -100t135 -37.5z" />
    <glyph glyph-name="adieresis" unicode="&#xe4;" 
d="M410 1055q-43 0 -72 28.5t-29 71.5q0 40 28 70t69 30q44 0 74 -28.5t30 -71.5t-28.5 -71.5t-71.5 -28.5zM750 1055q-43 0 -72 28.5t-29 71.5q0 41 29 69.5t72 28.5q41 0 70.5 -28.5t29.5 -69.5q0 -42 -29 -71t-71 -29zM567 -20q-108 0 -195 41t-140 109.5t-81 153
t-28 177.5q0 137 51 245.5t153.5 173t241.5 64.5q225 0 355 -207v185h161v-922h-167v186q-132 -206 -351 -206zM608 43q30 0 64 9.5t76 37.5t76.5 69.5t60.5 113.5t33 163v43q-7 91 -33 165t-60.5 118.5t-77 75t-79.5 42t-70 11.5q-75 0 -134 -36.5t-93.5 -97.5t-52 -133.5
t-17.5 -152.5q0 -79 19.5 -153.5t56 -137t96.5 -100t135 -37.5z" />
    <glyph glyph-name="aring" unicode="&#xe5;" 
d="M582 1044q-80 0 -137.5 58t-57.5 137t57.5 137t137.5 58q79 0 136.5 -57.5t57.5 -137.5t-57.5 -137.5t-136.5 -57.5zM582 1098q57 0 98 41.5t41 99.5q0 56 -40 98.5t-95 42.5q-58 0 -101 -42t-43 -99q0 -58 41.5 -99.5t98.5 -41.5zM567 -20q-108 0 -195 41t-140 109.5
t-81 153t-28 177.5q0 137 51 245.5t153.5 173t241.5 64.5q225 0 355 -207v185h161v-922h-167v186q-132 -206 -351 -206zM608 43q30 0 64 9.5t76 37.5t76.5 69.5t60.5 113.5t33 163v43q-7 91 -33 165t-60.5 118.5t-77 75t-79.5 42t-70 11.5q-75 0 -134 -36.5t-93.5 -97.5
t-52 -133.5t-17.5 -152.5q0 -79 19.5 -153.5t56 -137t96.5 -100t135 -37.5z" />
    <glyph glyph-name="ae" unicode="&#xe6;" horiz-adv-x="1859" 
d="M471 -25q-99 0 -182 32.5t-135 96.5t-52 148q0 155 137 229t388 74q75 0 155 -6q0 66 -6.5 116.5t-23.5 96t-45 75.5t-72 47t-103 17q-221 0 -262 -188l-90 12q72 221 375 221q113 0 204 -43.5t142 -116.5q70 76 170.5 116t210.5 40q94 0 175.5 -30.5t144 -88.5t99 -151
t36.5 -209h-776v-2q0 -117 56.5 -209t144.5 -139t188 -47q92 0 174.5 43.5t140.5 130.5l37 -29q-64 -110 -179.5 -168.5t-248.5 -58.5q-116 0 -220 45.5t-173 132.5q-75 -93 -184.5 -140t-225.5 -47zM963 518h622q-10 182 -93.5 278.5t-211.5 96.5q-56 0 -109 -24t-97 -69.5
t-74 -118.5t-37 -163zM532 39q88 0 174.5 39t151.5 115q-76 116 -76 268v43q-102 8 -141 8q-186 0 -277.5 -64.5t-91.5 -199.5q0 -96 75 -152.5t185 -56.5z" />
    <glyph glyph-name="ccedilla" unicode="&#xe7;" horiz-adv-x="1157" 
d="M1034 225q-131 -224 -383 -239l-39 -80q112 7 170 -43.5t58 -124.5q0 -83 -55 -131.5t-136 -48.5q-123 0 -221 98l18 27q74 -50 129 -50q53 0 84 36t31 83t-32 81t-93 34q-27 0 -43 -4l60 121q-89 5 -170 38.5t-146.5 91.5t-104 148.5t-38.5 200.5q0 115 42.5 208.5
t114 151.5t159.5 88.5t184 30.5q129 0 233.5 -56.5t163.5 -164.5l-80 -43q-33 109 -111.5 162t-189.5 53q-67 0 -126 -25.5t-106 -75.5t-74.5 -130.5t-27.5 -182.5q0 -212 95.5 -323t248.5 -111q228 0 312 215z" />
    <glyph glyph-name="egrave" unicode="&#xe8;" horiz-adv-x="1200" 
d="M580 1042l-258 252h161l156 -252h-59zM614 -16q-94 0 -180.5 30.5t-156.5 88.5t-112 151.5t-42 208.5t42.5 208.5t114 151.5t159.5 88.5t184 30.5q91 0 172 -30.5t144.5 -88.5t100.5 -151t37 -209h-776v-2q0 -117 56.5 -209t144.5 -139t188 -47q92 0 175 43.5t141 130.5
l36 -29q-64 -110 -179.5 -168.5t-248.5 -58.5zM303 518h623q-10 182 -93.5 278.5t-211.5 96.5q-56 0 -109 -24t-97.5 -69.5t-74.5 -118.5t-37 -163z" />
    <glyph glyph-name="eacute" unicode="&#xe9;" horiz-adv-x="1200" 
d="M559 1049l156 251h162l-259 -251h-59zM614 -16q-94 0 -180.5 30.5t-156.5 88.5t-112 151.5t-42 208.5t42.5 208.5t114 151.5t159.5 88.5t184 30.5q91 0 172 -30.5t144.5 -88.5t100.5 -151t37 -209h-776v-2q0 -117 56.5 -209t144.5 -139t188 -47q92 0 175 43.5t141 130.5
l36 -29q-64 -110 -179.5 -168.5t-248.5 -58.5zM303 518h623q-10 182 -93.5 278.5t-211.5 96.5q-56 0 -109 -24t-97.5 -69.5t-74.5 -118.5t-37 -163z" />
    <glyph glyph-name="ecircumflex" unicode="&#xea;" horiz-adv-x="1200" 
d="M326 1044l155 252h273l155 -252h-59l-232 228l-233 -228h-59zM614 -16q-94 0 -180.5 30.5t-156.5 88.5t-112 151.5t-42 208.5t42.5 208.5t114 151.5t159.5 88.5t184 30.5q91 0 172 -30.5t144.5 -88.5t100.5 -151t37 -209h-776v-2q0 -117 56.5 -209t144.5 -139t188 -47
q92 0 175 43.5t141 130.5l36 -29q-64 -110 -179.5 -168.5t-248.5 -58.5zM303 518h623q-10 182 -93.5 278.5t-211.5 96.5q-56 0 -109 -24t-97.5 -69.5t-74.5 -118.5t-37 -163z" />
    <glyph glyph-name="edieresis" unicode="&#xeb;" horiz-adv-x="1200" 
d="M432 1047q-43 0 -71.5 28.5t-28.5 71.5q0 41 27.5 70.5t68.5 29.5q44 0 74 -28.5t30 -71.5t-28.5 -71.5t-71.5 -28.5zM772 1047q-43 0 -71.5 28.5t-28.5 71.5q0 41 28.5 69.5t71.5 28.5q41 0 70.5 -28.5t29.5 -69.5q0 -42 -29 -71t-71 -29zM614 -16q-94 0 -180.5 30.5
t-156.5 88.5t-112 151.5t-42 208.5t42.5 208.5t114 151.5t159.5 88.5t184 30.5q91 0 172 -30.5t144.5 -88.5t100.5 -151t37 -209h-776v-2q0 -117 56.5 -209t144.5 -139t188 -47q92 0 175 43.5t141 130.5l36 -29q-64 -110 -179.5 -168.5t-248.5 -58.5zM303 518h623
q-10 182 -93.5 278.5t-211.5 96.5q-56 0 -109 -24t-97.5 -69.5t-74.5 -118.5t-37 -163z" />
    <glyph glyph-name="igrave" unicode="&#xec;" horiz-adv-x="495" 
d="M223 1042l-258 252h162l156 -252h-60zM164 0v922h168v-922h-168z" />
    <glyph glyph-name="iacute" unicode="&#xed;" horiz-adv-x="495" 
d="M225 1040l156 252h162l-258 -252h-60zM164 0v922h168v-922h-168z" />
    <glyph glyph-name="icircumflex" unicode="&#xee;" horiz-adv-x="495" 
d="M-43 1044l156 252h272l156 -252h-60l-231 228l-234 -228h-59zM164 0v922h168v-922h-168z" />
    <glyph glyph-name="idieresis" unicode="&#xef;" horiz-adv-x="495" 
d="M78 1044q-43 0 -72 29t-29 72q0 40 28 70t69 30q44 0 74 -28.5t30 -71.5t-28.5 -72t-71.5 -29zM418 1044q-43 0 -72 29t-29 72q0 41 29 69.5t72 28.5q41 0 70.5 -28.5t29.5 -69.5q0 -43 -29 -72t-71 -29zM164 0v922h168v-922h-168z" />
    <glyph glyph-name="eth" unicode="&#xf0;" 
d="M1253 1171l-2 -55h-166v-1116h-167v186q-132 -206 -351 -206q-108 0 -195 41t-140 109.5t-81 153t-28 177.5q0 137 51 245.5t153.5 173t241.5 64.5q223 0 349 -196v368h-154v58h154v260h167v-263h168zM918 453v16q-7 91 -33 165t-60.5 118.5t-77 75t-79.5 42t-70 11.5
q-75 0 -134 -35t-93.5 -94t-52 -130t-17.5 -151q0 -107 32.5 -198t104 -152.5t170.5 -61.5q30 0 64 10t76 37.5t76.5 69.5t60.5 114t33 163z" />
    <glyph glyph-name="ntilde" unicode="&#xf1;" horiz-adv-x="1236" 
d="M797 1057q-52 0 -120.5 30t-131.5 59.5t-101 29.5q-57 0 -82.5 -28t-25.5 -71h-31q0 119 35.5 165t101.5 46q51 0 118.5 -27t131 -54t103.5 -27q46 0 77 25t31 63h31q0 -119 -35.5 -165t-101.5 -46zM164 0v922h162v-263q32 68 83 127t111 93q109 63 234 63
q170 0 255 -99.5t85 -324.5v-518h-168v512q0 198 -48.5 280t-164.5 82q-60 0 -122.5 -27.5t-118.5 -79t-95 -137t-45 -190.5v-440h-168z" />
    <glyph glyph-name="ograve" unicode="&#xf2;" horiz-adv-x="1269" 
d="M627 1047l-258 251h161l156 -251h-59zM635 -16q-101 0 -192.5 30.5t-163 88.5t-114 151t-42.5 209t42.5 209t114 151t163 88.5t192.5 30.5t192.5 -30.5t163 -88.5t114 -151t42.5 -209t-42.5 -209t-114 -151t-163 -88.5t-192.5 -30.5zM633 33q154 0 245 113.5t91 328.5
q0 203 -92 310.5t-244 107.5q-153 0 -242.5 -111t-89.5 -321q0 -208 90 -318t242 -110z" />
    <glyph glyph-name="oacute" unicode="&#xf3;" horiz-adv-x="1269" 
d="M559 1044l156 252h162l-259 -252h-59zM635 -16q-101 0 -192.5 30.5t-163 88.5t-114 151t-42.5 209t42.5 209t114 151t163 88.5t192.5 30.5t192.5 -30.5t163 -88.5t114 -151t42.5 -209t-42.5 -209t-114 -151t-163 -88.5t-192.5 -30.5zM633 33q154 0 245 113.5t91 328.5
q0 203 -92 310.5t-244 107.5q-153 0 -242.5 -111t-89.5 -321q0 -208 90 -318t242 -110z" />
    <glyph glyph-name="ocircumflex" unicode="&#xf4;" horiz-adv-x="1269" 
d="M336 1044l156 252h272l156 -252h-60l-231 228l-234 -228h-59zM635 -16q-101 0 -192.5 30.5t-163 88.5t-114 151t-42.5 209t42.5 209t114 151t163 88.5t192.5 30.5t192.5 -30.5t163 -88.5t114 -151t42.5 -209t-42.5 -209t-114 -151t-163 -88.5t-192.5 -30.5zM633 33
q154 0 245 113.5t91 328.5q0 203 -92 310.5t-244 107.5q-153 0 -242.5 -111t-89.5 -321q0 -208 90 -318t242 -110z" />
    <glyph glyph-name="otilde" unicode="&#xf5;" horiz-adv-x="1269" 
d="M811 1044q-52 0 -120 30t-131 59.5t-101 29.5q-57 0 -83 -27.5t-26 -70.5h-31q0 119 35.5 165t102.5 46q51 0 118.5 -27t130.5 -54.5t103 -27.5q46 0 77.5 25t31.5 63h30q0 -119 -35.5 -165t-101.5 -46zM635 -16q-101 0 -192.5 30.5t-163 88.5t-114 151t-42.5 209
t42.5 209t114 151t163 88.5t192.5 30.5t192.5 -30.5t163 -88.5t114 -151t42.5 -209t-42.5 -209t-114 -151t-163 -88.5t-192.5 -30.5zM633 33q154 0 245 113.5t91 328.5q0 203 -92 310.5t-244 107.5q-153 0 -242.5 -111t-89.5 -321q0 -208 90 -318t242 -110z" />
    <glyph glyph-name="odieresis" unicode="&#xf6;" horiz-adv-x="1269" 
d="M451 1042q-43 0 -72 29t-29 72q0 41 27.5 70.5t68.5 29.5q44 0 74.5 -28.5t30.5 -71.5t-28.5 -72t-71.5 -29zM791 1042q-43 0 -72 29t-29 72q0 41 29 69.5t72 28.5q41 0 70.5 -28.5t29.5 -69.5q0 -43 -29.5 -72t-70.5 -29zM635 -16q-101 0 -192.5 30.5t-163 88.5
t-114 151t-42.5 209t42.5 209t114 151t163 88.5t192.5 30.5t192.5 -30.5t163 -88.5t114 -151t42.5 -209t-42.5 -209t-114 -151t-163 -88.5t-192.5 -30.5zM633 33q154 0 245 113.5t91 328.5q0 203 -92 310.5t-244 107.5q-153 0 -242.5 -111t-89.5 -321q0 -208 90 -318
t242 -110z" />
    <glyph glyph-name="divide" unicode="&#xf7;" horiz-adv-x="1124" 
d="M590 856q-41 0 -69.5 28.5t-28.5 69.5t28.5 69t69.5 28q40 0 68 -28t28 -69t-28 -69.5t-68 -28.5zM164 639v68h878v-68h-878zM590 266q-42 0 -70 28t-28 71q0 40 28.5 68t69.5 28q40 0 68 -28t28 -68q0 -42 -28 -70.5t-68 -28.5z" />
    <glyph glyph-name="oslash" unicode="&#xf8;" horiz-adv-x="1269" 
d="M1001 813q146 -133 146 -350q0 -116 -42.5 -209t-114 -151t-163 -88.5t-192.5 -30.5q-190 0 -324 94l-108 -115h-78l141 152q-143 130 -143 348q0 116 42.5 209t114 151t163 88.5t192.5 30.5q183 0 319 -92l113 119h80zM301 461q0 -151 51 -256l533 569q-88 119 -252 119
q-153 0 -242.5 -111t-89.5 -321zM633 33q154 0 245 113.5t91 328.5q0 151 -51 248l-535 -569q86 -121 250 -121z" />
    <glyph glyph-name="ugrave" unicode="&#xf9;" horiz-adv-x="1236" 
d="M629 999l-258 252h161l156 -252h-59zM483 -20q-170 0 -255 99t-85 324v519h168v-519q0 -198 48.5 -280t164.5 -82q58 0 119 27t116.5 77t95.5 131.5t50 180.5v465h168v-922h-162v262q-85 -156 -194 -219t-234 -63z" />
    <glyph glyph-name="uacute" unicode="&#xfa;" horiz-adv-x="1236" 
d="M551 1004l156 251h161l-258 -251h-59zM483 -20q-170 0 -255 99t-85 324v519h168v-519q0 -198 48.5 -280t164.5 -82q58 0 119 27t116.5 77t95.5 131.5t50 180.5v465h168v-922h-162v262q-85 -156 -194 -219t-234 -63z" />
    <glyph glyph-name="ucircumflex" unicode="&#xfb;" horiz-adv-x="1236" 
d="M315 1044l156 252h272l156 -252h-59l-232 228l-233 -228h-60zM483 -20q-170 0 -255 99t-85 324v519h168v-519q0 -198 48.5 -280t164.5 -82q58 0 119 27t116.5 77t95.5 131.5t50 180.5v465h168v-922h-162v262q-85 -156 -194 -219t-234 -63z" />
    <glyph glyph-name="udieresis" unicode="&#xfc;" horiz-adv-x="1236" 
d="M432 1044q-43 0 -71.5 29t-28.5 72q0 41 27.5 70.5t68.5 29.5q44 0 74 -28.5t30 -71.5t-28.5 -72t-71.5 -29zM772 1044q-43 0 -71.5 29t-28.5 72q0 41 28.5 69.5t71.5 28.5q41 0 70.5 -28.5t29.5 -69.5q0 -43 -29 -72t-71 -29zM483 -20q-170 0 -255 99t-85 324v519h168
v-519q0 -198 48.5 -280t164.5 -82q58 0 119 27t116.5 77t95.5 131.5t50 180.5v465h168v-922h-162v262q-85 -156 -194 -219t-234 -63z" />
    <glyph glyph-name="yacute" unicode="&#xfd;" horiz-adv-x="1239" 
d="M539 1047l155 251h162l-258 -251h-59zM616 -434q-114 0 -213 40.5t-153 110.5l20 33q56 -59 140 -94t170 -35q66 0 122.5 22t103.5 67.5t74 124.5t27 183v215q-80 -132 -193.5 -192.5t-230.5 -60.5q-170 0 -255 99t-85 324v519h168v-502q0 -198 48.5 -280.5t164.5 -82.5
q60 0 123 28.5t119.5 81.5t95.5 139.5t45 191.5v424h168v-902q0 -94 -26.5 -171t-70.5 -129t-103.5 -87t-124.5 -51t-134 -16z" />
    <glyph glyph-name="thorn" unicode="&#xfe;" 
d="M164 -410v1844h168v-686q126 196 348 196q139 0 241.5 -64.5t153.5 -173t51 -245.5q0 -93 -28 -177.5t-81 -153t-140 -109.5t-195 -41q-218 0 -350 206v-596h-168zM641 59q99 0 170.5 61.5t104 152.5t32.5 198q0 80 -17.5 151t-52 130t-93.5 94t-134 35
q-33 0 -69.5 -11.5t-79 -42t-77 -75t-60.5 -118.5t-33 -165v-16q7 -91 33 -163t60 -114t76 -69.5t76 -37.5t64 -10z" />
    <glyph glyph-name="ydieresis" unicode="&#xff;" horiz-adv-x="1239" 
d="M453 1049q-43 0 -72 28.5t-29 71.5q0 40 28 70t69 30q44 0 74 -28.5t30 -71.5t-28.5 -71.5t-71.5 -28.5zM793 1049q-43 0 -72 28.5t-29 71.5q0 41 29 69.5t72 28.5q41 0 70.5 -28.5t29.5 -69.5q0 -42 -29 -71t-71 -29zM616 -434q-114 0 -213 40.5t-153 110.5l20 33
q56 -59 140 -94t170 -35q66 0 122.5 22t103.5 67.5t74 124.5t27 183v215q-80 -132 -193.5 -192.5t-230.5 -60.5q-170 0 -255 99t-85 324v519h168v-502q0 -198 48.5 -280.5t164.5 -82.5q60 0 123 28.5t119.5 81.5t95.5 139.5t45 191.5v424h168v-902q0 -94 -26.5 -171
t-70.5 -129t-103.5 -87t-124.5 -51t-134 -16z" />
    <glyph glyph-name="Amacron" unicode="&#x100;" horiz-adv-x="1536" 
d="M463 1536v100h602v-100h-602zM123 0l575 1434h131l584 -1434h-182l-195 477h-659l-193 -477h-61zM397 532h617l-309 762z" />
    <glyph glyph-name="amacron" unicode="&#x101;" 
d="M291 1083v101h602v-101h-602zM567 -20q-108 0 -195 41t-140 109.5t-81 153t-28 177.5q0 137 51 245.5t153.5 173t241.5 64.5q225 0 355 -207v185h161v-922h-167v186q-132 -206 -351 -206zM608 43q30 0 64 9.5t76 37.5t76.5 69.5t60.5 113.5t33 163v43q-7 91 -33 165
t-60.5 118.5t-77 75t-79.5 42t-70 11.5q-75 0 -134 -36.5t-93.5 -97.5t-52 -133.5t-17.5 -152.5q0 -79 19.5 -153.5t56 -137t96.5 -100t135 -37.5z" />
    <glyph glyph-name="Abreve" unicode="&#x102;" horiz-adv-x="1536" 
d="M762 1513q-57 0 -108.5 18t-94.5 53t-69.5 93.5t-28.5 132.5h39q6 -92 79 -138t183 -46t183 46t79 138h39q-2 -74 -28.5 -132.5t-69.5 -93.5t-94.5 -53t-108.5 -18zM123 0l575 1434h131l584 -1434h-182l-195 477h-659l-193 -477h-61zM397 532h617l-309 762z" />
    <glyph glyph-name="abreve" unicode="&#x103;" 
d="M594 1053q-57 0 -108.5 18t-94.5 53t-69.5 93.5t-28.5 132.5h39q6 -92 79 -138.5t183 -46.5t183 46.5t79 138.5h39q-2 -74 -28.5 -132.5t-69.5 -93.5t-94.5 -53t-108.5 -18zM567 -20q-108 0 -195 41t-140 109.5t-81 153t-28 177.5q0 137 51 245.5t153.5 173t241.5 64.5
q225 0 355 -207v185h161v-922h-167v186q-132 -206 -351 -206zM608 43q30 0 64 9.5t76 37.5t76.5 69.5t60.5 113.5t33 163v43q-7 91 -33 165t-60.5 118.5t-77 75t-79.5 42t-70 11.5q-75 0 -134 -36.5t-93.5 -97.5t-52 -133.5t-17.5 -152.5q0 -79 19.5 -153.5t56 -137
t96.5 -100t135 -37.5z" />
    <glyph glyph-name="Aogonek" unicode="&#x104;" horiz-adv-x="1536" 
d="M1518 -291l14 -22q-42 -55 -100.5 -83t-116.5 -28q-68 0 -113 37.5t-45 103.5q0 122 150 283h-76l-195 477h-659l-193 -477h-61l575 1434h131l584 -1434h-51q-86 -99 -86 -190q0 -63 37 -102.5t94 -39.5q56 0 111 41zM397 532h617l-309 762z" />
    <glyph glyph-name="aogonek" unicode="&#x105;" 
d="M1190 -274l14 -23q-42 -55 -100.5 -83t-116.5 -28q-68 0 -113 38t-45 104q0 114 134 266h-45v186q-132 -206 -351 -206q-108 0 -195 41t-140 109.5t-81 153t-28 177.5q0 137 51 245.5t153.5 173t241.5 64.5q225 0 355 -207v185h161v-922h-65q-72 -89 -72 -174
q0 -63 37 -102t94 -39q56 0 111 41zM918 436v43q-7 91 -33 165t-60.5 118.5t-77 75t-79.5 42t-70 11.5q-75 0 -134 -36.5t-93.5 -97.5t-52 -133.5t-17.5 -152.5q0 -79 19.5 -153.5t56 -137t96.5 -100t135 -37.5q30 0 64 9.5t76 37.5t76.5 69.5t60.5 113.5t33 163z" />
    <glyph glyph-name="Cacute" unicode="&#x106;" horiz-adv-x="1660" 
d="M881 1532l155 252h162l-258 -252h-59zM954 -20q-224 0 -399.5 93t-273 261t-97.5 381t98 381t274 261t400 93q189 0 339.5 -76.5t201.5 -189.5l-74 -27q-56 120 -175.5 185t-270.5 65q-119 0 -229 -50t-194.5 -138t-135.5 -218.5t-51 -281.5q0 -152 50 -284t134 -221.5
t194.5 -140t229.5 -50.5q152 0 271 64.5t175 184.5l74 -26q-51 -113 -201.5 -189.5t-339.5 -76.5z" />
    <glyph glyph-name="cacute" unicode="&#x107;" horiz-adv-x="1157" 
d="M557 1051l156 252h161l-258 -252h-59zM614 -16q-94 0 -180.5 30.5t-156.5 88.5t-112 151.5t-42 208.5t42.5 208.5t114 151.5t159.5 88.5t184 30.5q129 0 233.5 -56.5t163.5 -164.5l-80 -43q-33 109 -111.5 162t-189.5 53q-67 0 -126 -25.5t-106 -75.5t-74.5 -130.5
t-27.5 -182.5q0 -212 95.5 -323t248.5 -111q228 0 312 215l73 -35q-140 -241 -420 -241z" />
    <glyph glyph-name="Cdotaccent" unicode="&#x10a;" horiz-adv-x="1660" 
d="M944 1528q-43 0 -71.5 28.5t-28.5 71.5q0 41 28 71t68 30q44 0 74 -29t30 -72t-28.5 -71.5t-71.5 -28.5zM954 -20q-224 0 -399.5 93t-273 261t-97.5 381t98 381t274 261t400 93q189 0 339.5 -76.5t201.5 -189.5l-74 -27q-56 120 -175.5 185t-270.5 65q-119 0 -229 -50
t-194.5 -138t-135.5 -218.5t-51 -281.5q0 -152 50 -284t134 -221.5t194.5 -140t229.5 -50.5q152 0 271 64.5t175 184.5l74 -26q-51 -113 -201.5 -189.5t-339.5 -76.5z" />
    <glyph glyph-name="cdotaccent" unicode="&#x10b;" horiz-adv-x="1157" 
d="M602 1044q-43 0 -71.5 29t-28.5 72q0 41 27.5 70.5t68.5 29.5q44 0 74 -28.5t30 -71.5t-28.5 -72t-71.5 -29zM614 -16q-94 0 -180.5 30.5t-156.5 88.5t-112 151.5t-42 208.5t42.5 208.5t114 151.5t159.5 88.5t184 30.5q129 0 233.5 -56.5t163.5 -164.5l-80 -43
q-33 109 -111.5 162t-189.5 53q-67 0 -126 -25.5t-106 -75.5t-74.5 -130.5t-27.5 -182.5q0 -212 95.5 -323t248.5 -111q228 0 312 215l73 -35q-140 -241 -420 -241z" />
    <glyph glyph-name="Ccaron" unicode="&#x10c;" horiz-adv-x="1619" 
d="M801 1538l-156 252h60l233 -227l231 227h60l-156 -252h-272zM954 -20q-224 0 -399.5 93t-273 261t-97.5 381t98 381t274 261t400 93q189 0 339.5 -76.5t201.5 -189.5l-74 -27q-56 120 -175.5 185t-270.5 65q-119 0 -229 -50t-194.5 -138t-135.5 -218.5t-51 -281.5
q0 -152 50 -284t134 -221.5t194.5 -140t229.5 -50.5q152 0 271 64.5t175 184.5l74 -26q-51 -113 -201.5 -189.5t-339.5 -76.5z" />
    <glyph glyph-name="ccaron" unicode="&#x10d;" horiz-adv-x="1157" 
d="M459 1047l-156 251h59l234 -227l231 227h60l-156 -251h-272zM614 -16q-94 0 -180.5 30.5t-156.5 88.5t-112 151.5t-42 208.5t42.5 208.5t114 151.5t159.5 88.5t184 30.5q129 0 233.5 -56.5t163.5 -164.5l-80 -43q-33 109 -111.5 162t-189.5 53q-67 0 -126 -25.5
t-106 -75.5t-74.5 -130.5t-27.5 -182.5q0 -212 95.5 -323t248.5 -111q228 0 312 215l73 -35q-140 -241 -420 -241z" />
    <glyph glyph-name="Dcaron" unicode="&#x10e;" horiz-adv-x="1634" 
d="M522 1538l-155 252h59l233 -227l232 227h59l-155 -252h-273zM184 0v1434h488q380 0 589 -182t209 -502q0 -357 -206.5 -553.5t-589.5 -196.5h-490zM352 49h322q306 0 462 176.5t156 522.5q0 312 -158 475t-462 163h-320v-1337z" />
    <glyph glyph-name="dcaron" unicode="&#x10f;" 
d="M567 -20q-108 0 -195 41t-140 109.5t-81 153t-28 177.5q0 137 51 245.5t153.5 173t241.5 64.5q223 0 349 -196v686h167v-1434h-167v186q-132 -206 -351 -206zM1284 1100l-22 12q16 40 16 66q0 20 -16 36.5t-35 27.5t-35 35t-16 56q0 44 29.5 71.5t68.5 27.5
q29 0 53.5 -16.5t36.5 -47.5q8 -21 8 -55q0 -54 -26.5 -113.5t-61.5 -99.5zM608 43q30 0 64 9.5t76 37.5t76.5 69.5t60.5 113.5t33 163v43q-7 91 -33 165t-60.5 118.5t-77 75t-79.5 42t-70 11.5q-75 0 -134 -36.5t-93.5 -97.5t-52 -133.5t-17.5 -152.5q0 -79 19.5 -153.5
t56 -137t96.5 -100t135 -37.5z" />
    <glyph glyph-name="Dcroat" unicode="&#x110;" horiz-adv-x="1634" 
d="M184 0v696h-164v68h164v670h488q380 0 589 -182t209 -502q0 -357 -206.5 -553.5t-589.5 -196.5h-490zM352 49h322q306 0 462 176.5t156 522.5q0 312 -158 475t-462 163h-320v-622h260v-68h-260v-647z" />
    <glyph glyph-name="dcroat" unicode="&#x111;" 
d="M1253 1171l-2 -55h-166v-1116h-167v186q-132 -206 -351 -206q-108 0 -195 41t-140 109.5t-81 153t-28 177.5q0 137 51 245.5t153.5 173t241.5 64.5q223 0 349 -196v368h-154v58h154v260h167v-263h168zM918 436v43q-7 91 -33 165t-60.5 118.5t-77 75t-79.5 42t-70 11.5
q-75 0 -134 -36.5t-93.5 -97.5t-52 -133.5t-17.5 -152.5q0 -79 19.5 -153.5t56 -137t96.5 -100t135 -37.5q30 0 64 9.5t76 37.5t76.5 69.5t60.5 113.5t33 163z" />
    <glyph glyph-name="Emacron" unicode="&#x112;" horiz-adv-x="1361" 
d="M393 1579v100h602v-100h-602zM184 0v1434h994v-56h-826v-610h635v-55h-635v-658h826v-55h-994z" />
    <glyph glyph-name="emacron" unicode="&#x113;" horiz-adv-x="1200" 
d="M301 1042v101h602v-101h-602zM614 -16q-94 0 -180.5 30.5t-156.5 88.5t-112 151.5t-42 208.5t42.5 208.5t114 151.5t159.5 88.5t184 30.5q91 0 172 -30.5t144.5 -88.5t100.5 -151t37 -209h-776v-2q0 -117 56.5 -209t144.5 -139t188 -47q92 0 175 43.5t141 130.5l36 -29
q-64 -110 -179.5 -168.5t-248.5 -58.5zM303 518h623q-10 182 -93.5 278.5t-211.5 96.5q-56 0 -109 -24t-97.5 -69.5t-74.5 -118.5t-37 -163z" />
    <glyph glyph-name="Edotaccent" unicode="&#x116;" horiz-adv-x="1361" 
d="M717 1534q-43 0 -72 28.5t-29 71.5q0 40 28 70.5t69 30.5q44 0 74 -29t30 -72t-28.5 -71.5t-71.5 -28.5zM184 0v1434h994v-56h-826v-610h635v-55h-635v-658h826v-55h-994z" />
    <glyph glyph-name="edotaccent" unicode="&#x117;" horiz-adv-x="1200" 
d="M625 1042q-43 0 -72 29t-29 72q0 40 28 70t69 30q44 0 74 -28.5t30 -71.5t-28.5 -72t-71.5 -29zM614 -16q-94 0 -180.5 30.5t-156.5 88.5t-112 151.5t-42 208.5t42.5 208.5t114 151.5t159.5 88.5t184 30.5q91 0 172 -30.5t144.5 -88.5t100.5 -151t37 -209h-776v-2
q0 -117 56.5 -209t144.5 -139t188 -47q92 0 175 43.5t141 130.5l36 -29q-64 -110 -179.5 -168.5t-248.5 -58.5zM303 518h623q-10 182 -93.5 278.5t-211.5 96.5q-56 0 -109 -24t-97.5 -69.5t-74.5 -118.5t-37 -163z" />
    <glyph glyph-name="Eogonek" unicode="&#x118;" horiz-adv-x="1361" 
d="M1178 1378h-826v-610h635v-55h-635v-658h826v-55h-416q-72 -89 -72 -174q0 -63 37 -102t94 -39q56 0 111 41l14 -23q-42 -55 -100.5 -83t-116.5 -28q-68 0 -113 38t-45 104q0 114 134 266h-521v1434h994v-56z" />
    <glyph glyph-name="eogonek" unicode="&#x119;" horiz-adv-x="1200" 
d="M690 66q92 0 175 43.5t141 130.5l36 -29q-58 -100 -158 -157t-220 -68q-74 -88 -74 -176q0 -63 37 -102.5t94 -39.5q55 0 110 41l15 -22q-42 -55 -100.5 -83t-116.5 -28q-68 0 -113 37.5t-45 103.5q0 116 133 267q-93 2 -177.5 33t-153 89t-109.5 150.5t-41 206.5
q0 115 42.5 208.5t114 151.5t159.5 88.5t184 30.5q91 0 172 -30.5t144.5 -88.5t100.5 -151t37 -209h-776v-2q0 -117 56.5 -209t144.5 -139t188 -47zM621 893q-56 0 -109 -24t-97.5 -69.5t-74.5 -118.5t-37 -163h623q-10 182 -93.5 278.5t-211.5 96.5z" />
    <glyph glyph-name="Ecaron" unicode="&#x11a;" horiz-adv-x="1361" 
d="M575 1536l-155 252h59l234 -227l231 227h60l-156 -252h-273zM184 0v1434h994v-56h-826v-610h635v-55h-635v-658h826v-55h-994z" />
    <glyph glyph-name="ecaron" unicode="&#x11b;" horiz-adv-x="1200" 
d="M471 1047l-156 251h60l233 -227l232 227h59l-156 -251h-272zM614 -16q-94 0 -180.5 30.5t-156.5 88.5t-112 151.5t-42 208.5t42.5 208.5t114 151.5t159.5 88.5t184 30.5q91 0 172 -30.5t144.5 -88.5t100.5 -151t37 -209h-776v-2q0 -117 56.5 -209t144.5 -139t188 -47
q92 0 175 43.5t141 130.5l36 -29q-64 -110 -179.5 -168.5t-248.5 -58.5zM303 518h623q-10 182 -93.5 278.5t-211.5 96.5q-56 0 -109 -24t-97.5 -69.5t-74.5 -118.5t-37 -163z" />
    <glyph glyph-name="Gbreve" unicode="&#x11e;" horiz-adv-x="1724" 
d="M981 1520q-57 0 -108.5 18t-94.5 53t-69.5 93.5t-28.5 132.5h39q6 -92 79 -138.5t183 -46.5t183 46.5t79 138.5h39q-2 -74 -28.5 -132.5t-69.5 -93.5t-94.5 -53t-108.5 -18zM954 -20q-224 0 -399.5 93t-273 261t-97.5 381t98 381t274 261t400 93q189 0 339.5 -76.5
t201.5 -189.5l-74 -27q-56 120 -175.5 185t-270.5 65q-120 0 -231.5 -50t-196.5 -138t-136 -218.5t-51 -281.5q0 -153 50.5 -284.5t134.5 -220t195.5 -139t232.5 -50.5q119 0 233.5 43t163.5 108v418h168v-143q0 -146 -82 -255t-213.5 -162.5t-290.5 -53.5z" />
    <glyph glyph-name="gbreve" unicode="&#x11f;" 
d="M584 1049q-57 0 -108.5 18t-94.5 53t-69.5 93.5t-28.5 132.5h39q6 -92 79 -138.5t183 -46.5t183 46.5t79 138.5h39q-2 -74 -28.5 -132.5t-69.5 -93.5t-94.5 -53t-108.5 -18zM627 -434q-114 0 -214 40.5t-153 110.5l21 33q56 -59 139.5 -94t169.5 -35q66 0 122.5 22
t104 67.5t74.5 124.5t27 183v168q-132 -206 -351 -206q-108 0 -195 41t-140 109.5t-81 153t-28 177.5q0 137 51 245.5t153.5 173t241.5 64.5q225 0 355 -207v185h161v-902q0 -117 -39.5 -207t-106 -142.5t-145.5 -78.5t-167 -26zM608 59q30 0 64 10t76 37.5t76.5 69.5
t60.5 114t33 163v16q-7 91 -33 165t-60.5 118.5t-77 75t-79.5 42t-70 11.5q-75 0 -134 -35t-93.5 -94t-52 -130t-17.5 -151q0 -107 32.5 -198t104 -152.5t170.5 -61.5z" />
    <glyph glyph-name="Gdotaccent" unicode="&#x120;" horiz-adv-x="1724" 
d="M946 1567q-43 0 -71.5 28.5t-28.5 71.5q0 41 27.5 70.5t68.5 29.5q44 0 74.5 -28.5t30.5 -71.5t-29 -71.5t-72 -28.5zM954 -20q-224 0 -399.5 93t-273 261t-97.5 381t98 381t274 261t400 93q189 0 339.5 -76.5t201.5 -189.5l-74 -27q-56 120 -175.5 185t-270.5 65
q-120 0 -231.5 -50t-196.5 -138t-136 -218.5t-51 -281.5q0 -153 50.5 -284.5t134.5 -220t195.5 -139t232.5 -50.5q119 0 233.5 43t163.5 108v418h168v-143q0 -146 -82 -255t-213.5 -162.5t-290.5 -53.5z" />
    <glyph glyph-name="gdotaccent" unicode="&#x121;" 
d="M594 1049q-43 0 -71.5 28.5t-28.5 71.5q0 41 27.5 70.5t68.5 29.5q44 0 74 -28.5t30 -71.5t-28.5 -71.5t-71.5 -28.5zM627 -434q-114 0 -214 40.5t-153 110.5l21 33q56 -59 139.5 -94t169.5 -35q66 0 122.5 22t104 67.5t74.5 124.5t27 183v168q-132 -206 -351 -206
q-108 0 -195 41t-140 109.5t-81 153t-28 177.5q0 137 51 245.5t153.5 173t241.5 64.5q225 0 355 -207v185h161v-902q0 -117 -39.5 -207t-106 -142.5t-145.5 -78.5t-167 -26zM608 59q30 0 64 10t76 37.5t76.5 69.5t60.5 114t33 163v16q-7 91 -33 165t-60.5 118.5t-77 75
t-79.5 42t-70 11.5q-75 0 -134 -35t-93.5 -94t-52 -130t-17.5 -151q0 -107 32.5 -198t104 -152.5t170.5 -61.5z" />
    <glyph glyph-name="uni0122" unicode="&#x122;" horiz-adv-x="1724" 
d="M954 -20q-224 0 -399.5 93t-273 261t-97.5 381t98 381t274 261t400 93q189 0 339.5 -76.5t201.5 -189.5l-74 -27q-56 120 -175.5 185t-270.5 65q-120 0 -231.5 -50t-196.5 -138t-136 -218.5t-51 -281.5q0 -153 50.5 -284.5t134.5 -220t195.5 -139t232.5 -50.5
q119 0 233.5 43t163.5 108v418h168v-143q0 -146 -82 -255t-213.5 -162.5t-290.5 -53.5zM989 -487l-22 12q16 40 16 65q0 20 -16 36.5t-35 28t-35 35.5t-16 56q0 44 29.5 71t68.5 27q29 0 54 -16t36 -47q8 -21 8 -55q0 -54 -26.5 -113.5t-61.5 -99.5z" />
    <glyph glyph-name="uni0123" unicode="&#x123;" 
d="M627 -434q-114 0 -214 40.5t-153 110.5l21 33q56 -59 139.5 -94t169.5 -35q66 0 122.5 22t104 67.5t74.5 124.5t27 183v168q-132 -206 -351 -206q-108 0 -195 41t-140 109.5t-81 153t-28 177.5q0 137 51 245.5t153.5 173t241.5 64.5q225 0 355 -207v185h161v-902
q0 -117 -39.5 -207t-106 -142.5t-145.5 -78.5t-167 -26zM608 59q30 0 64 10t76 37.5t76.5 69.5t60.5 114t33 163v16q-7 91 -33 165t-60.5 118.5t-77 75t-79.5 42t-70 11.5q-75 0 -134 -35t-93.5 -94t-52 -130t-17.5 -151q0 -107 32.5 -198t104 -152.5t170.5 -61.5zM659 -866
l-22 12q16 40 16 66q0 20 -16 36.5t-35 27.5t-35 35t-16 56q0 44 29.5 71t68.5 27q29 0 54 -16t36 -47q9 -24 9 -55q0 -54 -27 -113.5t-62 -99.5z" />
    <glyph glyph-name="Hbar" unicode="&#x126;" horiz-adv-x="1521" 
d="M184 0v1434h168v-416h817v416h168v-1434h-168v713h-817v-713h-168zM352 768h817v195h-817v-195z" />
    <glyph glyph-name="hbar" unicode="&#x127;" horiz-adv-x="1239" 
d="M756 942q170 0 255 -99.5t85 -324.5v-518h-168v518q0 195 -48.5 277t-164.5 82q-60 0 -123 -28.5t-119.5 -81t-95.5 -138.5t-45 -189v-440h-168v1065h-125v63h125v306h168v-306h168v-63h-168v-397q77 146 190 211q109 63 234 63z" />
    <glyph glyph-name="Imacron" unicode="&#x12a;" horiz-adv-x="577" 
d="M-12 1538v100h602v-100h-602zM205 0v1434h168v-1434h-168z" />
    <glyph glyph-name="imacron" unicode="&#x12b;" horiz-adv-x="495" 
d="M-53 1042v101h602v-101h-602zM164 0v922h168v-922h-168z" />
    <glyph glyph-name="Iogonek" unicode="&#x12e;" horiz-adv-x="577" 
d="M481 -291l15 -22q-42 -55 -100.5 -83t-116.5 -28q-68 0 -113 37.5t-45 103.5q0 123 149 283h-65v1434h168v-1434h-47q-86 -99 -86 -190q0 -63 37 -102.5t94 -39.5q55 0 110 41z" />
    <glyph glyph-name="iogonek" unicode="&#x12f;" horiz-adv-x="495" 
d="M246 1106q-44 0 -76.5 32t-32.5 76t32.5 76.5t76.5 32.5t76 -32.5t32 -76.5t-32 -76t-76 -32zM430 -291l14 -22q-42 -55 -100.5 -83t-116.5 -28q-68 0 -112.5 37.5t-44.5 103.5q0 123 149 283h-55v922h168v-922h-58q-86 -99 -86 -190q0 -63 37 -102.5t94 -39.5
q56 0 111 41z" />
    <glyph glyph-name="Idotaccent" unicode="&#x130;" horiz-adv-x="577" 
d="M293 1538q-43 0 -71.5 28.5t-28.5 71.5q0 41 28 71t68 30q44 0 74 -29t30 -72t-28.5 -71.5t-71.5 -28.5zM205 0v1434h168v-1434h-168z" />
    <glyph glyph-name="dotlessi" unicode="&#x131;" horiz-adv-x="495" 
d="M164 0v922h168v-922h-168z" />
    <glyph glyph-name="uni0136" unicode="&#x136;" horiz-adv-x="1443" 
d="M184 0v1434h168v-705l860 705h88l-833 -682l833 -752h-251l-697 627v-627h-168zM748 -457l-23 13q16 40 16 65q0 20 -16 36.5t-35 28t-35 35.5t-16 56q0 44 29.5 71t68.5 27q29 0 54 -16t36 -47q9 -24 9 -56q0 -54 -26.5 -113.5t-61.5 -99.5z" />
    <glyph glyph-name="uni0137" unicode="&#x137;" horiz-adv-x="1171" 
d="M164 0v1434h168v-1102l663 590h84l-477 -424l471 -498h-233l-365 383l-143 -127v-256h-168zM598 -500l-23 13q17 43 17 65q0 20 -16 36.5t-35.5 28t-35.5 35.5t-16 56q0 44 30 71t69 27q29 0 54 -16t36 -47q8 -21 8 -56q0 -54 -26.5 -113.5t-61.5 -99.5z" />
    <glyph glyph-name="Lacute" unicode="&#x139;" horiz-adv-x="1280" 
d="M207 1536l155 252h162l-258 -252h-59zM184 0v1434h168v-1379h785v-55h-953z" />
    <glyph glyph-name="lacute" unicode="&#x13a;" horiz-adv-x="536" 
d="M178 1550l156 252h162l-258 -252h-60zM184 0v1434l168 61v-1495h-168z" />
    <glyph glyph-name="uni013B" unicode="&#x13b;" horiz-adv-x="1280" 
d="M184 0v1434h168v-1379h785v-55h-953zM717 -457l-23 13q17 42 17 65q0 20 -16 36.5t-35.5 28t-35.5 35.5t-16 56q0 44 30 71t69 27q29 0 54 -16t36 -47q8 -21 8 -56q0 -54 -26.5 -113.5t-61.5 -99.5z" />
    <glyph glyph-name="uni013C" unicode="&#x13c;" horiz-adv-x="536" 
d="M184 0v1434l168 61v-1495h-168zM283 -463l-23 12q16 40 16 66q0 20 -16 36.5t-35 28t-35 35.5t-16 56q0 44 29.5 71t68.5 27q29 0 53.5 -16.5t36.5 -47.5q9 -24 9 -55q0 -54 -26.5 -113.5t-61.5 -99.5z" />
    <glyph glyph-name="Lcaron" unicode="&#x13d;" horiz-adv-x="1280" 
d="M184 0v1434h168v-1379h785v-55h-953zM598 1100l-23 12q17 42 17 66q0 20 -16 36.5t-35.5 27.5t-35.5 35t-16 56q0 44 30 71.5t69 27.5q29 0 53.5 -16.5t36.5 -47.5q8 -21 8 -55q0 -54 -26.5 -113.5t-61.5 -99.5z" />
    <glyph glyph-name="lcaron" unicode="&#x13e;" horiz-adv-x="536" 
d="M184 0v1434l168 61v-1495h-168zM539 1155l-23 12q16 40 16 66q0 20 -16 36.5t-35 28t-35 35.5t-16 56q0 44 29.5 71t68.5 27q29 0 53.5 -16.5t36.5 -47.5q9 -24 9 -55q0 -54 -26.5 -113.5t-61.5 -99.5z" />
    <glyph glyph-name="Lslash" unicode="&#x141;" horiz-adv-x="1280" 
d="M352 55h785v-55h-953v532l-127 -155h-98l225 276v781h168v-574l117 144h100l-217 -267v-682z" />
    <glyph glyph-name="lslash" unicode="&#x142;" horiz-adv-x="536" 
d="M487 786l-135 -141v-645h-168v471l-69 -72l-45 43l114 119v873l168 61v-760l92 94z" />
    <glyph glyph-name="Nacute" unicode="&#x143;" horiz-adv-x="1521" 
d="M780 1536l156 252h162l-258 -252h-60zM184 0v1434h166l932 -1162v1162h55v-1434h-51l-1046 1298v-1298h-56z" />
    <glyph glyph-name="nacute" unicode="&#x144;" horiz-adv-x="1236" 
d="M543 1049l155 251h162l-258 -251h-59zM164 0v922h162v-263q32 68 83 127t111 93q109 63 234 63q170 0 255 -99.5t85 -324.5v-518h-168v512q0 198 -48.5 280t-164.5 82q-60 0 -122.5 -27.5t-118.5 -79t-95 -137t-45 -190.5v-440h-168z" />
    <glyph glyph-name="uni0145" unicode="&#x145;" horiz-adv-x="1521" 
d="M184 0v1434h166l932 -1162v1162h55v-1434h-51l-1046 1298v-1298h-56zM764 -383l-23 12q17 43 17 66q0 20 -16 36.5t-35.5 27.5t-35.5 35t-16 56q0 44 30 71.5t69 27.5q29 0 53.5 -16.5t36.5 -47.5q8 -21 8 -55q0 -54 -26.5 -113.5t-61.5 -99.5z" />
    <glyph glyph-name="uni0146" unicode="&#x146;" horiz-adv-x="1236" 
d="M164 0v922h162v-263q32 68 83 127t111 93q109 63 234 63q170 0 255 -99.5t85 -324.5v-518h-168v512q0 198 -48.5 280t-164.5 82q-60 0 -122.5 -27.5t-118.5 -79t-95 -137t-45 -190.5v-440h-168zM643 -436l-22 12q16 40 16 66q0 20 -16 36.5t-35 27.5t-35 35t-16 56
q0 44 29.5 71.5t68.5 27.5q29 0 53.5 -16.5t36.5 -47.5q8 -21 8 -55q0 -54 -26.5 -113.5t-61.5 -99.5z" />
    <glyph glyph-name="Ncaron" unicode="&#x147;" horiz-adv-x="1521" 
d="M670 1538l-156 252h59l234 -227l231 227h60l-156 -252h-272zM184 0v1434h166l932 -1162v1162h55v-1434h-51l-1046 1298v-1298h-56z" />
    <glyph glyph-name="ncaron" unicode="&#x148;" horiz-adv-x="1236" 
d="M481 1047l-155 251h59l233 -227l232 227h59l-155 -251h-273zM164 0v922h162v-263q32 68 83 127t111 93q109 63 234 63q170 0 255 -99.5t85 -324.5v-518h-168v512q0 198 -48.5 280t-164.5 82q-60 0 -122.5 -27.5t-118.5 -79t-95 -137t-45 -190.5v-440h-168z" />
    <glyph glyph-name="Eng" unicode="&#x14a;" horiz-adv-x="1521" 
d="M1047 -369v31q66 0 114 24.5t73 67t36.5 89t11.5 100.5v61l-1042 1294v-1298h-56v1434h166l932 -1162v1162h55v-1475q0 -150 -72.5 -239t-217.5 -89z" />
    <glyph glyph-name="eng" unicode="&#x14b;" horiz-adv-x="1236" 
d="M745 -440v16q44 0 76 14.5t51.5 49.5t31 66t16 91.5t5.5 97t1 109.5v4v504q0 198 -48.5 280t-164.5 82q-60 0 -122.5 -27.5t-118.5 -79t-95 -137t-45 -190.5v-440h-168v922h162v-263q32 68 83 127t111 93q109 63 234 63q170 0 255 -99.5t85 -324.5v-620
q0 -203 -75 -274.5t-274 -63.5z" />
    <glyph glyph-name="Omacron" unicode="&#x14c;" horiz-adv-x="1949" 
d="M664 1579v100h602v-100h-602zM973 -20q-119 0 -232.5 29t-214.5 89.5t-177 146t-120.5 207t-44.5 263.5t44.5 263.5t121 207.5t177.5 147.5t215 91t233 29.5q120 0 234 -29.5t215 -91t177 -147.5t120 -207.5t44 -263.5t-44.5 -263t-120.5 -206.5t-177.5 -146.5
t-215.5 -90t-234 -29zM975 35q179 0 318.5 87t216.5 241.5t77 351.5q0 146 -46 273t-126.5 217.5t-194 142t-245.5 51.5q-175 0 -315.5 -88.5t-219 -245t-78.5 -350.5q0 -146 45.5 -272.5t125.5 -216t194.5 -140.5t247.5 -51z" />
    <glyph glyph-name="omacron" unicode="&#x14d;" horiz-adv-x="1269" 
d="M334 1065v100h602v-100h-602zM635 -16q-101 0 -192.5 30.5t-163 88.5t-114 151t-42.5 209t42.5 209t114 151t163 88.5t192.5 30.5t192.5 -30.5t163 -88.5t114 -151t42.5 -209t-42.5 -209t-114 -151t-163 -88.5t-192.5 -30.5zM633 33q154 0 245 113.5t91 328.5
q0 203 -92 310.5t-244 107.5q-153 0 -242.5 -111t-89.5 -321q0 -208 90 -318t242 -110z" />
    <glyph glyph-name="Ohungarumlaut" unicode="&#x150;" horiz-adv-x="1949" 
d="M788 1534l156 252h162l-258 -252h-60zM1075 1534l156 252h162l-258 -252h-60zM973 -20q-119 0 -232.5 29t-214.5 89.5t-177 146t-120.5 207t-44.5 263.5t44.5 263.5t121 207.5t177.5 147.5t215 91t233 29.5q120 0 234 -29.5t215 -91t177 -147.5t120 -207.5t44 -263.5
t-44.5 -263t-120.5 -206.5t-177.5 -146.5t-215.5 -90t-234 -29zM975 35q179 0 318.5 87t216.5 241.5t77 351.5q0 146 -46 273t-126.5 217.5t-194 142t-245.5 51.5q-175 0 -315.5 -88.5t-219 -245t-78.5 -350.5q0 -146 45.5 -272.5t125.5 -216t194.5 -140.5t247.5 -51z" />
    <glyph glyph-name="ohungarumlaut" unicode="&#x151;" horiz-adv-x="1269" 
d="M438 1044l156 252h162l-258 -252h-60zM725 1044l156 252h161l-258 -252h-59zM635 -16q-101 0 -192.5 30.5t-163 88.5t-114 151t-42.5 209t42.5 209t114 151t163 88.5t192.5 30.5t192.5 -30.5t163 -88.5t114 -151t42.5 -209t-42.5 -209t-114 -151t-163 -88.5t-192.5 -30.5
zM633 33q154 0 245 113.5t91 328.5q0 203 -92 310.5t-244 107.5q-153 0 -242.5 -111t-89.5 -321q0 -208 90 -318t242 -110z" />
    <glyph glyph-name="OE" unicode="&#x152;" horiz-adv-x="2734" 
d="M973 -20q-119 0 -232.5 29t-214.5 89.5t-177 146t-120.5 207t-44.5 263.5t44.5 263.5t121 207.5t177.5 147.5t215 91t233 29.5q181 0 345.5 -68t276.5 -196v244h953v-56h-785v-610h594v-55h-594v-658h785v-55h-953v242q-111 -127 -276.5 -194.5t-347.5 -67.5zM975 35
q179 0 318.5 87t216.5 241.5t77 351.5q0 146 -46 273t-126.5 217.5t-194 142t-245.5 51.5q-175 0 -315.5 -88.5t-219 -245t-78.5 -350.5q0 -146 45.5 -272.5t125.5 -216t194.5 -140.5t247.5 -51z" />
    <glyph glyph-name="oe" unicode="&#x153;" horiz-adv-x="2045" 
d="M635 -16q-101 0 -192.5 30.5t-163 88.5t-114 151t-42.5 209t42.5 209t114 151t163 88.5t192.5 30.5q130 0 242 -48.5t182 -141.5q69 93 177.5 141.5t231.5 48.5q94 0 175.5 -30.5t144 -88.5t99 -151t36.5 -209h-776v-2q0 -117 56.5 -209t144.5 -139t188 -47
q92 0 174.5 43.5t140.5 130.5l37 -29q-64 -110 -179.5 -168.5t-248.5 -58.5q-121 0 -227.5 48.5t-175.5 141.5q-69 -93 -180.5 -141.5t-241.5 -48.5zM633 33q152 0 242.5 110t93.5 320v10q0 204 -92 312t-244 108q-153 0 -242.5 -111t-89.5 -321q0 -208 90 -318t242 -110z
M1149 518h623q-10 181 -94 278t-212 97q-56 0 -109 -24t-97 -69.5t-74 -118.5t-37 -163z" />
    <glyph glyph-name="Racute" unicode="&#x154;" horiz-adv-x="1533" 
d="M627 1534l155 252h162l-258 -252h-59zM184 0v1434h600q269 0 417.5 -107.5t148.5 -302.5q0 -168 -111.5 -271.5t-316.5 -129.5l393 -623h-199l-389 614h-375v-614h-168zM352 664h432q197 0 292 88t95 272t-95 272t-292 88h-432v-720z" />
    <glyph glyph-name="racute" unicode="&#x155;" horiz-adv-x="980" 
d="M465 1042l156 252h161l-258 -252h-59zM164 0v922h162v-244q164 264 393 264q166 0 242 -137l-140 -70q-24 75 -54.5 109.5t-88.5 34.5q-45 0 -98.5 -28.5t-106 -80.5t-92 -139t-49.5 -191v-440h-168z" />
    <glyph glyph-name="uni0156" unicode="&#x156;" horiz-adv-x="1533" 
d="M184 0v1434h600q269 0 417.5 -107.5t148.5 -302.5q0 -168 -111.5 -271.5t-316.5 -129.5l393 -623h-199l-389 614h-375v-614h-168zM352 664h432q197 0 292 88t95 272t-95 272t-292 88h-432v-720zM735 -446l-22 12q16 40 16 65q0 20 -16 36.5t-35 28t-35 35.5t-16 56
q0 44 29.5 71t68.5 27q29 0 54 -16t36 -47q8 -21 8 -55q0 -54 -26.5 -113.5t-61.5 -99.5z" />
    <glyph glyph-name="uni0157" unicode="&#x157;" horiz-adv-x="980" 
d="M164 0v922h162v-244q164 264 393 264q166 0 242 -137l-140 -70q-24 75 -54.5 109.5t-88.5 34.5q-45 0 -98.5 -28.5t-106 -80.5t-92 -139t-49.5 -191v-440h-168zM260 -457l-22 13q16 40 16 65q0 20 -16 36.5t-35 28t-35 35.5t-16 56q0 44 29.5 71t68.5 27q29 0 54 -16
t36 -47q8 -21 8 -56q0 -54 -26.5 -113.5t-61.5 -99.5z" />
    <glyph glyph-name="Rcaron" unicode="&#x158;" horiz-adv-x="1533" 
d="M541 1534l-156 252h59l234 -227l231 227h60l-156 -252h-272zM184 0v1434h600q269 0 417.5 -107.5t148.5 -302.5q0 -168 -111.5 -271.5t-316.5 -129.5l393 -623h-199l-389 614h-375v-614h-168zM352 664h432q197 0 292 88t95 272t-95 272t-292 88h-432v-720z" />
    <glyph glyph-name="rcaron" unicode="&#x159;" horiz-adv-x="980" 
d="M408 1053l-156 252h59l234 -228l231 228h60l-156 -252h-272zM164 0v922h162v-244q164 264 393 264q166 0 242 -137l-140 -70q-24 75 -54.5 109.5t-88.5 34.5q-45 0 -98.5 -28.5t-106 -80.5t-92 -139t-49.5 -191v-440h-168z" />
    <glyph glyph-name="Sacute" unicode="&#x15a;" horiz-adv-x="1454" 
d="M729 1540l156 252h162l-259 -252h-59zM709 -23q-115 0 -218.5 28.5t-186 89t-120.5 145.5l78 26q26 -62 73.5 -108t109 -72.5t128.5 -39.5t140 -13q165 0 277 80t112 209q0 54 -20.5 97t-51.5 72.5t-87 57t-105.5 44.5t-128.5 40q-206 58 -294 101q-193 94 -224 257
q-7 34 -7 72q0 93 48 169.5t128 124.5t179.5 73.5t205.5 25.5q177 0 320 -67.5t199 -194.5l-78 -27q-51 120 -171.5 177t-273.5 57q-165 0 -277 -79t-112 -208q0 -39 11 -71.5t27 -57.5t47 -48t58.5 -38t74.5 -33t82 -29t93 -28q83 -24 128 -38.5t117.5 -43t113 -58.5
t84 -73t63 -99.5t19.5 -125.5q0 -93 -48 -169.5t-128 -124.5t-179.5 -74t-205.5 -26z" />
    <glyph glyph-name="sacute" unicode="&#x15b;" horiz-adv-x="1093" 
d="M508 1044l156 252h161l-258 -252h-59zM541 -20q-147 0 -265 51t-153 145l102 19q19 -77 111 -118.5t209 -41.5q120 0 191 46.5t71 143.5q0 43 -29.5 73t-77.5 44t-109.5 26.5t-125.5 21t-125.5 28.5t-109.5 47.5t-77.5 79t-29.5 121.5q0 88 66 152.5t163 94t209 29.5
q145 0 260.5 -52t149.5 -145l-101 -18q-20 77 -105.5 120.5t-197.5 43.5q-126 0 -203 -46t-77 -147q0 -50 37.5 -81.5t98 -47t133.5 -27t146 -29t133.5 -44.5t98 -81t37.5 -132q0 -68 -36.5 -122t-98 -87t-137 -50t-158.5 -17z" />
    <glyph glyph-name="Scedilla" unicode="&#x15e;" horiz-adv-x="1454" 
d="M1270 371q0 -92 -46.5 -167.5t-124 -123.5t-174 -74.5t-200.5 -28.5l-37 -71q112 7 169.5 -43.5t57.5 -124.5q0 -83 -54.5 -131.5t-135.5 -48.5q-123 0 -221 98l18 27q74 -50 129 -50q53 0 84 36t31 83t-32 81t-93 34q-27 0 -43 -4l57 117q-163 9 -291 76t-180 184l78 26
q26 -62 73.5 -108t109 -72.5t128.5 -39.5t140 -13q165 0 277 80t112 209q0 54 -20.5 97t-51.5 72.5t-87 57t-105.5 44.5t-128.5 40q-206 58 -294 101q-193 94 -224 257q-7 34 -7 72q0 93 48 169.5t128 124.5t179.5 73.5t205.5 25.5q177 0 320 -67.5t199 -194.5l-78 -27
q-51 120 -171.5 177t-273.5 57q-165 0 -277 -79t-112 -208q0 -39 11 -71.5t27 -57.5t47 -48t58.5 -38t74.5 -33t82 -29t93 -28q83 -24 128 -38.5t117.5 -43t113 -58.5t84 -73t63 -99.5t19.5 -125.5z" />
    <glyph glyph-name="scedilla" unicode="&#x15f;" horiz-adv-x="1093" 
d="M287 698q0 -50 37.5 -81.5t98 -47t133.5 -27t146 -29t133.5 -44.5t98 -81t37.5 -132q0 -84 -56.5 -146t-142 -92.5t-190.5 -35.5l-37 -76q112 7 169.5 -43.5t57.5 -124.5q0 -83 -54.5 -131.5t-135.5 -48.5q-124 0 -222 98l19 27q74 -50 129 -50q53 0 84 36t31 83t-32 81
t-93 34q-27 0 -43 -4l57 117q-138 5 -246.5 55.5t-142.5 140.5l102 19q19 -77 111 -118.5t209 -41.5q120 0 191 46.5t71 143.5q0 43 -29.5 73t-77.5 44t-109.5 26.5t-125.5 21t-125.5 28.5t-109.5 47.5t-77.5 79t-29.5 121.5q0 88 66 152.5t163 94t209 29.5q145 0 260.5 -52
t149.5 -145l-101 -18q-20 77 -105.5 120.5t-197.5 43.5q-126 0 -203 -46t-77 -147z" />
    <glyph glyph-name="Scaron" unicode="&#x160;" horiz-adv-x="1454" 
d="M608 1538l-155 252h59l233 -227l232 227h59l-155 -252h-273zM709 -23q-115 0 -218.5 28.5t-186 89t-120.5 145.5l78 26q26 -62 73.5 -108t109 -72.5t128.5 -39.5t140 -13q165 0 277 80t112 209q0 54 -20.5 97t-51.5 72.5t-87 57t-105.5 44.5t-128.5 40q-206 58 -294 101
q-193 94 -224 257q-7 34 -7 72q0 93 48 169.5t128 124.5t179.5 73.5t205.5 25.5q177 0 320 -67.5t199 -194.5l-78 -27q-51 120 -171.5 177t-273.5 57q-165 0 -277 -79t-112 -208q0 -39 11 -71.5t27 -57.5t47 -48t58.5 -38t74.5 -33t82 -29t93 -28q83 -24 128 -38.5
t117.5 -43t113 -58.5t84 -73t63 -99.5t19.5 -125.5q0 -93 -48 -169.5t-128 -124.5t-179.5 -74t-205.5 -26z" />
    <glyph glyph-name="scaron" unicode="&#x161;" horiz-adv-x="1093" 
d="M414 1049l-156 251h59l234 -227l231 227h60l-156 -251h-272zM541 -20q-147 0 -265 51t-153 145l102 19q19 -77 111 -118.5t209 -41.5q120 0 191 46.5t71 143.5q0 43 -29.5 73t-77.5 44t-109.5 26.5t-125.5 21t-125.5 28.5t-109.5 47.5t-77.5 79t-29.5 121.5
q0 88 66 152.5t163 94t209 29.5q145 0 260.5 -52t149.5 -145l-101 -18q-20 77 -105.5 120.5t-197.5 43.5q-126 0 -203 -46t-77 -147q0 -50 37.5 -81.5t98 -47t133.5 -27t146 -29t133.5 -44.5t98 -81t37.5 -132q0 -68 -36.5 -122t-98 -87t-137 -50t-158.5 -17z" />
    <glyph glyph-name="uni0162" unicode="&#x162;" horiz-adv-x="1503" 
d="M836 0h-54l-32 -63q112 7 169.5 -43.5t57.5 -124.5q0 -83 -55 -132t-136 -49q-122 0 -221 99l19 26q73 -49 129 -49q53 0 83.5 35.5t30.5 83.5q0 47 -32 81t-93 34q-27 0 -43 -4l54 106h-45v1378h-525v56h1217v-56h-524v-1378z" />
    <glyph glyph-name="uni0163" unicode="&#x163;" horiz-adv-x="661" 
d="M365 -98q112 7 169.5 -43.5t57.5 -124.5q0 -83 -55 -131.5t-136 -48.5q-123 0 -221 98l19 26q73 -49 129 -49q53 0 83.5 35.5t30.5 83.5q0 47 -32 81t-93 34q-27 0 -43 -4l60 121q-79 12 -113.5 74t-34.5 186v626h-104v56h104v368l168 62v-430h224v-56h-224v-516
q0 -31 -1 -83.5t-1 -73.5q0 -84 15 -124t59 -40q65 0 131 86l23 -19q-72 -103 -177 -116z" />
    <glyph glyph-name="Tcaron" unicode="&#x164;" horiz-adv-x="1421" 
d="M618 1538l-155 252h59l234 -227l231 227h60l-156 -252h-273zM668 0v1378h-525v56h1217v-56h-524v-1378h-168z" />
    <glyph glyph-name="tcaron" unicode="&#x165;" horiz-adv-x="661" 
d="M375 -23q-102 0 -145.5 62.5t-43.5 200.5v626h-104v56h104v368l168 62v-430h224v-56h-224v-516q0 -31 -1 -83.5t-1 -73.5q0 -84 15 -124t59 -40q65 0 131 86l23 -19q-85 -119 -205 -119zM571 1018l-22 12q16 40 16 66q0 20 -16 36.5t-35 27.5t-35 35t-16 56
q0 44 29.5 71.5t68.5 27.5q29 0 53.5 -16.5t36.5 -47.5q8 -21 8 -55q0 -54 -26.5 -113.5t-61.5 -99.5z" />
    <glyph glyph-name="Tbar" unicode="&#x166;" horiz-adv-x="1503" 
d="M1360 1378h-524v-686h227v-67h-227v-625h-168v625h-197v67h197v686h-525v56h1217v-56z" />
    <glyph glyph-name="tbar" unicode="&#x167;" horiz-adv-x="661" 
d="M354 694v-344q0 -31 -1 -83.5t-1 -73.5q0 -84 15 -124t59 -40q65 0 131 86l23 -19q-85 -119 -205 -119q-102 0 -145.5 62.5t-43.5 200.5v454h-106v58h106v114h-104v56h104v368l168 62v-430h224v-56h-224v-114h228v-58h-228z" />
    <glyph glyph-name="Umacron" unicode="&#x16a;" horiz-adv-x="1488" 
d="M496 1540v100h602v-100h-602zM762 -20q-283 0 -430.5 141.5t-147.5 441.5v871h168v-893q0 -108 22 -193.5t60.5 -143t94 -95t118.5 -54t137 -16.5q210 0 337.5 134t127.5 384v877h56v-875q0 -147 -40 -259t-113.5 -181.5t-171.5 -104t-218 -34.5z" />
    <glyph glyph-name="umacron" unicode="&#x16b;" horiz-adv-x="1236" 
d="M309 1047v100h602v-100h-602zM483 -20q-170 0 -255 99t-85 324v519h168v-519q0 -198 48.5 -280t164.5 -82q58 0 119 27t116.5 77t95.5 131.5t50 180.5v465h168v-922h-162v262q-85 -156 -194 -219t-234 -63z" />
    <glyph glyph-name="Uring" unicode="&#x16e;" horiz-adv-x="1488" 
d="M819 1468q-79 0 -136.5 57.5t-57.5 137.5t57.5 137.5t136.5 57.5t137 -58t58 -137t-58 -137t-137 -58zM819 1522q57 0 98 41.5t41 99.5q0 56 -40 98.5t-95 42.5q-58 0 -100.5 -42t-42.5 -99q0 -58 41 -99.5t98 -41.5zM762 -20q-283 0 -430.5 141.5t-147.5 441.5v871h168
v-893q0 -108 22 -193.5t60.5 -143t94 -95t118.5 -54t137 -16.5q210 0 337.5 134t127.5 384v877h56v-875q0 -147 -40 -259t-113.5 -181.5t-171.5 -104t-218 -34.5z" />
    <glyph glyph-name="uring" unicode="&#x16f;" horiz-adv-x="1236" 
d="M627 1014q-80 0 -137.5 57.5t-57.5 136.5q0 80 58 137.5t137 57.5t136.5 -57.5t57.5 -137.5t-57.5 -137t-136.5 -57zM627 1067q57 0 98 41.5t41 99.5q0 56 -40 99t-95 43q-58 0 -101 -42.5t-43 -99.5q0 -58 41.5 -99.5t98.5 -41.5zM483 -20q-170 0 -255 99t-85 324v519
h168v-519q0 -198 48.5 -280t164.5 -82q58 0 119 27t116.5 77t95.5 131.5t50 180.5v465h168v-922h-162v262q-85 -156 -194 -219t-234 -63z" />
    <glyph glyph-name="Uhungarumlaut" unicode="&#x170;" horiz-adv-x="1488" 
d="M573 1454l156 252h162l-258 -252h-60zM860 1454l156 252h162l-258 -252h-60zM762 -20q-283 0 -430.5 141.5t-147.5 441.5v871h168v-893q0 -108 22 -193.5t60.5 -143t94 -95t118.5 -54t137 -16.5q210 0 337.5 134t127.5 384v877h56v-875q0 -147 -40 -259t-113.5 -181.5
t-171.5 -104t-218 -34.5z" />
    <glyph glyph-name="uhungarumlaut" unicode="&#x171;" horiz-adv-x="1236" 
d="M428 1049l156 251h161l-258 -251h-59zM715 1049l155 251h162l-258 -251h-59zM483 -20q-170 0 -255 99t-85 324v519h168v-519q0 -198 48.5 -280t164.5 -82q58 0 119 27t116.5 77t95.5 131.5t50 180.5v465h168v-922h-162v262q-85 -156 -194 -219t-234 -63z" />
    <glyph glyph-name="Uogonek" unicode="&#x172;" horiz-adv-x="1488" 
d="M1249 1434h56v-875q0 -282 -140.5 -426.5t-378.5 -152.5q-69 -86 -69 -170q0 -63 37 -102.5t94 -39.5q55 0 110 41l15 -22q-42 -55 -100.5 -83t-116.5 -28q-68 0 -113 37.5t-45 103.5q0 115 131 263q-545 16 -545 583v871h168v-893q0 -108 22 -193.5t60.5 -143t94 -95
t118.5 -54t137 -16.5q210 0 337.5 134t127.5 384v877z" />
    <glyph glyph-name="uogonek" unicode="&#x173;" horiz-adv-x="1236" 
d="M1194 -281l14 -22q-42 -55 -100.5 -83t-116.5 -28q-67 0 -112 37.5t-45 104.5q0 115 139 272h-62v262q-85 -156 -194 -219t-234 -63q-170 0 -255 99t-85 324v519h168v-519q0 -198 48.5 -280t164.5 -82q58 0 119 27t116.5 77t95.5 131.5t50 180.5v465h168v-922h-43
q-78 -94 -78 -180q0 -63 37 -102.5t94 -39.5q56 0 111 41z" />
    <glyph glyph-name="Wcircumflex" unicode="&#x174;" horiz-adv-x="2426" 
d="M997 1532l156 252h272l156 -252h-59l-232 227l-233 -227h-60zM666 0l-543 1434h182l479 -1280l467 1280h62l452 -1280l478 1280h61l-535 -1434h-124l-424 1182l-430 -1182h-125z" />
    <glyph glyph-name="wcircumflex" unicode="&#x175;" horiz-adv-x="1607" 
d="M582 1040l155 252h273l155 -252h-59l-232 228l-233 -228h-59zM436 0l-375 922h183l311 -768l274 768h70l275 -775l311 775h61l-370 -922h-125l-246 680l-244 -680h-125z" />
    <glyph glyph-name="Ycircumflex" unicode="&#x176;" horiz-adv-x="1501" 
d="M504 1538l155 252h273l155 -252h-59l-231 227l-234 -227h-59zM680 0v561l-557 873h201l493 -775l496 775h65l-530 -826v-608h-168z" />
    <glyph glyph-name="ycircumflex" unicode="&#x177;" horiz-adv-x="1239" 
d="M319 1042l156 252h273l155 -252h-59l-232 228l-233 -228h-60zM616 -434q-114 0 -213 40.5t-153 110.5l20 33q56 -59 140 -94t170 -35q66 0 122.5 22t103.5 67.5t74 124.5t27 183v215q-80 -132 -193.5 -192.5t-230.5 -60.5q-170 0 -255 99t-85 324v519h168v-502
q0 -198 48.5 -280.5t164.5 -82.5q60 0 123 28.5t119.5 81.5t95.5 139.5t45 191.5v424h168v-902q0 -94 -26.5 -171t-70.5 -129t-103.5 -87t-124.5 -51t-134 -16z" />
    <glyph glyph-name="Ydieresis" unicode="&#x178;" horiz-adv-x="1501" 
d="M653 1536q-43 0 -71.5 28.5t-28.5 71.5q0 41 28 71t68 30q44 0 74.5 -29t30.5 -72t-29 -71.5t-72 -28.5zM993 1536q-43 0 -71.5 28.5t-28.5 71.5q0 42 28.5 70.5t71.5 28.5q41 0 71 -29t30 -70q0 -42 -29.5 -71t-71.5 -29zM680 0v561l-557 873h201l493 -775l496 775h65
l-530 -826v-608h-168z" />
    <glyph glyph-name="Zacute" unicode="&#x179;" horiz-adv-x="1558" 
d="M725 1536l156 252h161l-258 -252h-59zM184 0v55l990 1323h-990v56h1190v-56l-989 -1323h989v-55h-1190z" />
    <glyph glyph-name="zacute" unicode="&#x17a;" horiz-adv-x="1198" 
d="M524 1047l156 251h162l-258 -251h-60zM123 0v55l731 811h-731v56h942v-56l-731 -811h741v-55h-952z" />
    <glyph glyph-name="Zdotaccent" unicode="&#x17b;" horiz-adv-x="1558" 
d="M756 1556q-43 0 -72 29t-29 72q0 40 28 70t69 30q44 0 74 -28.5t30 -71.5t-28.5 -72t-71.5 -29zM184 0v55l990 1323h-990v56h1190v-56l-989 -1323h989v-55h-1190z" />
    <glyph glyph-name="zdotaccent" unicode="&#x17c;" horiz-adv-x="1198" 
d="M602 1044q-43 0 -71.5 29t-28.5 72q0 41 27.5 70.5t68.5 29.5q44 0 74 -28.5t30 -71.5t-28.5 -72t-71.5 -29zM123 0v55l731 811h-731v56h942v-56l-731 -811h741v-55h-952z" />
    <glyph glyph-name="Zcaron" unicode="&#x17d;" horiz-adv-x="1558" 
d="M633 1542l-156 252h60l233 -227l231 227h60l-156 -252h-272zM184 0v55l990 1323h-990v56h1190v-56l-989 -1323h989v-55h-1190z" />
    <glyph glyph-name="zcaron" unicode="&#x17e;" horiz-adv-x="1218" 
d="M487 1044l-155 252h59l234 -227l231 227h59l-155 -252h-273zM123 0v55l731 811h-731v56h942v-56l-731 -811h741v-55h-952z" />
    <glyph glyph-name="uni0218" unicode="&#x218;" horiz-adv-x="1454" 
d="M709 -23q-115 0 -218.5 28.5t-186 89t-120.5 145.5l78 26q26 -62 73.5 -108t109 -72.5t128.5 -39.5t140 -13q165 0 277 80t112 209q0 54 -20.5 97t-51.5 72.5t-87 57t-105.5 44.5t-128.5 40q-206 58 -294 101q-193 94 -224 257q-7 34 -7 72q0 93 48 169.5t128 124.5
t179.5 73.5t205.5 25.5q177 0 320 -67.5t199 -194.5l-78 -27q-51 120 -171.5 177t-273.5 57q-165 0 -277 -79t-112 -208q0 -39 11 -71.5t27 -57.5t47 -48t58.5 -38t74.5 -33t82 -29t93 -28q83 -24 128 -38.5t117.5 -43t113 -58.5t84 -73t63 -99.5t19.5 -125.5
q0 -93 -48 -169.5t-128 -124.5t-179.5 -74t-205.5 -26zM719 -446l-23 12q17 42 17 65q0 20 -16 36.5t-35.5 28t-35.5 35.5t-16 56q0 44 30 71t69 27q29 0 54 -16t36 -47q8 -21 8 -55q0 -54 -26.5 -113.5t-61.5 -99.5z" />
    <glyph glyph-name="uni0219" unicode="&#x219;" horiz-adv-x="1093" 
d="M541 -20q-147 0 -265 51t-153 145l102 19q19 -77 111 -118.5t209 -41.5q120 0 191 46.5t71 143.5q0 43 -29.5 73t-77.5 44t-109.5 26.5t-125.5 21t-125.5 28.5t-109.5 47.5t-77.5 79t-29.5 121.5q0 88 66 152.5t163 94t209 29.5q145 0 260.5 -52t149.5 -145l-101 -18
q-20 77 -105.5 120.5t-197.5 43.5q-126 0 -203 -46t-77 -147q0 -50 37.5 -81.5t98 -47t133.5 -27t146 -29t133.5 -44.5t98 -81t37.5 -132q0 -68 -36.5 -122t-98 -87t-137 -50t-158.5 -17zM578 -463l-23 12q16 40 16 66q0 20 -16 36.5t-35 28t-35 35.5t-16 56q0 44 29.5 71
t68.5 27q29 0 53.5 -16.5t36.5 -47.5q9 -24 9 -55q0 -54 -26.5 -113.5t-61.5 -99.5z" />
    <glyph glyph-name="uni021A" unicode="&#x21a;" horiz-adv-x="1503" 
d="M668 0v1378h-525v56h1217v-56h-524v-1378h-168zM770 -434l-22 12q16 40 16 66q0 20 -16 36.5t-35 27.5t-35 35t-16 56q0 44 29.5 71.5t68.5 27.5q29 0 53.5 -16.5t36.5 -47.5q8 -21 8 -55q0 -54 -26.5 -113.5t-61.5 -99.5z" />
    <glyph glyph-name="uni021B" unicode="&#x21b;" horiz-adv-x="661" 
d="M375 -23q-102 0 -145.5 62.5t-43.5 200.5v626h-104v56h104v368l168 62v-430h224v-56h-224v-516q0 -31 -1 -83.5t-1 -73.5q0 -84 15 -124t59 -40q65 0 131 86l23 -19q-85 -119 -205 -119zM389 -453l-22 13q16 40 16 65q0 20 -16 36.5t-35 28t-35 35.5t-16 56q0 44 29.5 71
t68.5 27q29 0 54 -16t36 -47q8 -21 8 -56q0 -54 -26.5 -113.5t-61.5 -99.5z" />
    <glyph glyph-name="circumflex" unicode="&#x2c6;" horiz-adv-x="788" 
d="M102 1536l156 252h272l156 -252h-59l-232 227l-233 -227h-60z" />
    <glyph glyph-name="caron" unicode="&#x2c7;" horiz-adv-x="788" 
d="M258 1536l-156 252h60l233 -227l232 227h59l-156 -252h-272z" />
    <glyph glyph-name="breve" unicode="&#x2d8;" horiz-adv-x="806" 
d="M403 1499q-57 0 -108.5 18t-94.5 53t-69.5 93.5t-28.5 132.5h39q6 -92 79 -138t183 -46t183.5 46t79.5 138h39q-3 -98 -48.5 -167t-111 -99.5t-142.5 -30.5z" />
    <glyph glyph-name="dotaccent" unicode="&#x2d9;" horiz-adv-x="405" 
d="M203 1516q-43 0 -72 28.5t-29 71.5q0 40 28 70t69 30q44 0 74 -28.5t30 -71.5t-28.5 -71.5t-71.5 -28.5z" />
    <glyph glyph-name="ring" unicode="&#x2da;" horiz-adv-x="593" 
d="M297 1516q-80 0 -137.5 57.5t-57.5 136.5q0 80 58 137.5t137 57.5t137 -57.5t58 -137.5q0 -79 -57.5 -136.5t-137.5 -57.5zM297 1569q57 0 98 41.5t41 99.5q0 56 -40 98.5t-95 42.5q-58 0 -100.5 -42t-42.5 -99q0 -58 41 -99.5t98 -41.5z" />
    <glyph glyph-name="ogonek" unicode="&#x2db;" horiz-adv-x="577" 
d="M258 -424q-68 0 -113 37.5t-45 103.5q0 130 170 306l35 -23q-86 -99 -86 -190q0 -63 37 -102.5t94 -39.5q56 0 111 41l14 -22q-42 -55 -100.5 -83t-116.5 -28z" />
    <glyph glyph-name="tilde" unicode="&#x2dc;" horiz-adv-x="833" 
d="M594 1516q-52 0 -120 29.5t-131 59t-101 29.5q-57 0 -83 -27.5t-26 -70.5h-31q0 119 35.5 165t102.5 46q51 0 118.5 -27.5t130.5 -54.5t103 -27q46 0 77 25t31 63h31q0 -119 -35.5 -164.5t-101.5 -45.5z" />
    <glyph glyph-name="hungarumlaut" unicode="&#x2dd;" horiz-adv-x="808" 
d="M102 1534l156 252h162l-258 -252h-60zM389 1534l156 252h162l-258 -252h-60z" />
    <glyph glyph-name="gravecomb" unicode="&#x300;" horiz-adv-x="0" 
d="M-162 1534l-258 252h162l156 -252h-60z" />
    <glyph glyph-name="acutecomb" unicode="&#x301;" horiz-adv-x="0" 
d="M-420 1534l156 252h162l-258 -252h-60z" />
    <glyph glyph-name="uni0302" unicode="&#x302;" horiz-adv-x="0" 
d="M-686 1536l156 252h272l156 -252h-60l-231 227l-234 -227h-59z" />
    <glyph glyph-name="tildecomb" unicode="&#x303;" horiz-adv-x="0" 
d="M-240 1516q-52 0 -120 29.5t-131 59t-101 29.5q-57 0 -82.5 -27.5t-25.5 -70.5h-31q0 119 35.5 165t101.5 46q51 0 118.5 -27.5t130.5 -54.5t103 -27q46 0 77.5 25t31.5 63h31q0 -119 -35.5 -164.5t-102.5 -45.5z" />
    <glyph glyph-name="uni0304" unicode="&#x304;" horiz-adv-x="0" 
d="M-705 1538v100h603v-100h-603z" />
    <glyph glyph-name="uni0306" unicode="&#x306;" horiz-adv-x="0" 
d="M-403 1499q-77 0 -142.5 30.5t-111 99.5t-48.5 167h39q6 -92 79.5 -138t183.5 -46t183 46t79 138h39q-2 -74 -28.5 -132.5t-69.5 -93.5t-94.5 -53t-108.5 -18z" />
    <glyph glyph-name="uni0307" unicode="&#x307;" horiz-adv-x="0" 
d="M-203 1516q-43 0 -71.5 28.5t-28.5 71.5q0 41 27.5 70.5t68.5 29.5q44 0 74.5 -28.5t30.5 -71.5t-29 -71.5t-72 -28.5z" />
    <glyph glyph-name="uni0308" unicode="&#x308;" horiz-adv-x="0" 
d="M-543 1516q-43 0 -71.5 28.5t-28.5 71.5q0 41 27.5 70.5t68.5 29.5q44 0 74.5 -28.5t30.5 -71.5t-29 -71.5t-72 -28.5zM-203 1516q-43 0 -71.5 28.5t-28.5 71.5q0 41 28.5 69.5t71.5 28.5q42 0 71.5 -28.5t29.5 -69.5q0 -42 -29.5 -71t-71.5 -29z" />
    <glyph glyph-name="uni030A" unicode="&#x30a;" horiz-adv-x="0" 
d="M-297 1516q-80 0 -137.5 57.5t-57.5 136.5q0 80 58 137.5t137 57.5t137 -57.5t58 -137.5q0 -79 -57.5 -136.5t-137.5 -57.5zM-297 1569q57 0 98 41.5t41 99.5q0 56 -40 98.5t-95 42.5q-58 0 -100.5 -42t-42.5 -99q0 -58 41 -99.5t98 -41.5z" />
    <glyph glyph-name="uni030B" unicode="&#x30b;" horiz-adv-x="0" 
d="M-707 1536l156 252h162l-258 -252h-60zM-420 1536l156 252h162l-258 -252h-60z" />
    <glyph glyph-name="uni030C" unicode="&#x30c;" horiz-adv-x="0" 
d="M-530 1536l-156 252h59l234 -227l231 227h60l-156 -252h-272z" />
    <glyph glyph-name="uni0312" unicode="&#x312;" horiz-adv-x="0" 
d="M-201 1536q-29 0 -54 16t-36 47q-8 21 -8 56q0 54 26.5 113.5t61.5 99.5l23 -13q-17 -43 -17 -65q0 -20 16 -36.5t35.5 -28t35.5 -35.5t16 -56q0 -44 -30 -71t-69 -27z" />
    <glyph glyph-name="uni0326" unicode="&#x326;" horiz-adv-x="0" 
d="M-190 -492l-23 13q16 40 16 65q0 20 -16 36.5t-35 28t-35 35.5t-16 56q0 44 29.5 71t68.5 27q29 0 54 -16t36 -47q9 -24 9 -56q0 -54 -26.5 -113.5t-61.5 -99.5z" />
    <glyph glyph-name="uni0327" unicode="&#x327;" horiz-adv-x="0" 
d="M-293 -442q-123 0 -221 98l18 27q74 -50 129 -50q53 0 84 36t31 83t-32 81t-93 34q-27 0 -43 -4l68 137h69l-47 -94q112 7 170 -43.5t58 -124.5q0 -83 -55 -131.5t-136 -48.5z" />
    <glyph glyph-name="uni0328" unicode="&#x328;" horiz-adv-x="0" 
d="M-319 -424q-68 0 -113 37.5t-45 103.5q0 130 170 306l35 -23q-86 -99 -86 -190q0 -63 37 -102.5t94 -39.5q55 0 110 41l15 -22q-42 -55 -100.5 -83t-116.5 -28z" />
    <glyph glyph-name="uni0335" unicode="&#x335;" horiz-adv-x="0" 
d="M-694 598v68h592v-68h-592z" />
    <glyph glyph-name="uni0336" unicode="&#x336;" horiz-adv-x="0" 
d="M-797 598v68h695v-68h-695z" />
    <glyph glyph-name="uni0337" unicode="&#x337;" horiz-adv-x="0" 
d="M-983 0l801 983h80l-803 -983h-78z" />
    <glyph glyph-name="uni0338" unicode="&#x338;" horiz-adv-x="0" 
d="M-1176 0l994 1280h80l-996 -1280h-78z" />
    <glyph glyph-name="Wgrave" unicode="&#x1e80;" horiz-adv-x="2426" 
d="M1343 1534l-258 252h162l156 -252h-60zM666 0l-543 1434h182l479 -1280l467 1280h62l452 -1280l478 1280h61l-535 -1434h-124l-424 1182l-430 -1182h-125z" />
    <glyph glyph-name="wgrave" unicode="&#x1e81;" horiz-adv-x="1607" 
d="M901 1038l-258 252h162l156 -252h-60zM436 0l-375 922h183l311 -768l274 768h70l275 -775l311 775h61l-370 -922h-125l-246 680l-244 -680h-125z" />
    <glyph glyph-name="Wacute" unicode="&#x1e82;" horiz-adv-x="2426" 
d="M1153 1534l156 252h161l-258 -252h-59zM666 0l-543 1434h182l479 -1280l467 1280h62l452 -1280l478 1280h61l-535 -1434h-124l-424 1182l-430 -1182h-125z" />
    <glyph glyph-name="wacute" unicode="&#x1e83;" horiz-adv-x="1607" 
d="M745 1044l156 252h162l-258 -252h-60zM436 0l-375 922h183l311 -768l274 768h70l275 -775l311 775h61l-370 -922h-125l-246 680l-244 -680h-125z" />
    <glyph glyph-name="Wdieresis" unicode="&#x1e84;" horiz-adv-x="2426" 
d="M1120 1540q-43 0 -71.5 28.5t-28.5 71.5q0 41 28 71t68 30q44 0 74.5 -29t30.5 -72t-29 -71.5t-72 -28.5zM1460 1540q-43 0 -71.5 28.5t-28.5 71.5q0 42 29 70.5t71 28.5q41 0 71 -29t30 -70q0 -42 -29.5 -71t-71.5 -29zM666 0l-543 1434h182l479 -1280l467 1280h62
l452 -1280l478 1280h61l-535 -1434h-124l-424 1182l-430 -1182h-125z" />
    <glyph glyph-name="wdieresis" unicode="&#x1e85;" horiz-adv-x="1607" 
d="M684 1036q-43 0 -71.5 29t-28.5 72q0 41 27.5 70.5t68.5 29.5q44 0 74 -28.5t30 -71.5t-28.5 -72t-71.5 -29zM1024 1036q-43 0 -71.5 29t-28.5 72q0 41 28.5 69.5t71.5 28.5q41 0 70.5 -28.5t29.5 -69.5q0 -43 -29 -72t-71 -29zM436 0l-375 922h183l311 -768l274 768h70
l275 -775l311 775h61l-370 -922h-125l-246 680l-244 -680h-125z" />
    <glyph glyph-name="Ygrave" unicode="&#x1ef2;" horiz-adv-x="1501" 
d="M821 1534l-258 252h162l156 -252h-60zM680 0v561l-557 873h201l493 -775l496 775h65l-530 -826v-608h-168z" />
    <glyph glyph-name="ygrave" unicode="&#x1ef3;" horiz-adv-x="1239" 
d="M610 1047l-258 251h162l156 -251h-60zM616 -434q-114 0 -213 40.5t-153 110.5l20 33q56 -59 140 -94t170 -35q66 0 122.5 22t103.5 67.5t74 124.5t27 183v215q-80 -132 -193.5 -192.5t-230.5 -60.5q-170 0 -255 99t-85 324v519h168v-502q0 -198 48.5 -280.5t164.5 -82.5
q60 0 123 28.5t119.5 81.5t95.5 139.5t45 191.5v424h168v-902q0 -94 -26.5 -171t-70.5 -129t-103.5 -87t-124.5 -51t-134 -16z" />
    <glyph glyph-name="endash" unicode="&#x2013;" horiz-adv-x="1228" 
d="M164 444v68h983v-68h-983z" />
    <glyph glyph-name="emdash" unicode="&#x2014;" horiz-adv-x="1943" 
d="M164 444v68h1698v-68h-1698z" />
    <glyph glyph-name="quoteleft" unicode="&#x2018;" horiz-adv-x="442" 
d="M262 1122q-29 0 -53.5 16.5t-36.5 47.5q-8 21 -8 55q0 54 26.5 113.5t61.5 99.5l22 -12q-16 -40 -16 -66q0 -20 16 -36.5t35 -27.5t35 -35t16 -56q0 -44 -29.5 -71.5t-68.5 -27.5z" />
    <glyph glyph-name="quoteright" unicode="&#x2019;" horiz-adv-x="442" 
d="M272 1122l-22 13q16 40 16 65q0 20 -16 36.5t-35 28t-35 35.5t-16 56q0 44 29.5 71t68.5 27q29 0 54 -16t36 -47q8 -21 8 -56q0 -54 -26.5 -113.5t-61.5 -99.5z" />
    <glyph glyph-name="quotesinglbase" unicode="&#x201a;" horiz-adv-x="444" 
d="M272 -137l-22 12q16 40 16 66q0 20 -16 36.5t-35 27.5t-35 35t-16 56q0 44 29.5 71.5t68.5 27.5q29 0 53.5 -16.5t36.5 -47.5q10 -30 10 -55q0 -54 -27.5 -113.5t-62.5 -99.5z" />
    <glyph glyph-name="quotedblleft" unicode="&#x201c;" horiz-adv-x="729" 
d="M262 1122q-29 0 -53.5 16.5t-36.5 47.5q-8 21 -8 55q0 54 26.5 113.5t61.5 99.5l22 -12q-16 -40 -16 -66q0 -20 16 -36.5t35 -27.5t35 -35t16 -56q0 -44 -29.5 -71.5t-68.5 -27.5zM549 1122q-29 0 -53.5 16.5t-36.5 47.5q-8 21 -8 55q0 54 26.5 113.5t61.5 99.5l22 -12
q-16 -40 -16 -66q0 -20 16 -36.5t35 -27.5t35 -35t16 -56q0 -44 -29.5 -71.5t-68.5 -27.5z" />
    <glyph glyph-name="quotedblright" unicode="&#x201d;" horiz-adv-x="729" 
d="M272 1122l-22 13q16 40 16 65q0 20 -16 36.5t-35 28t-35 35.5t-16 56q0 44 29.5 71t68.5 27q29 0 54 -16t36 -47q8 -21 8 -56q0 -54 -26.5 -113.5t-61.5 -99.5zM559 1122l-22 13q16 40 16 65q0 20 -16 36.5t-35 28t-35 35.5t-16 56q0 44 29.5 71t68.5 27q29 0 54 -16
t36 -47q8 -21 8 -56q0 -54 -26.5 -113.5t-61.5 -99.5z" />
    <glyph glyph-name="quotedblbase" unicode="&#x201e;" horiz-adv-x="729" 
d="M272 -137l-22 12q16 40 16 66q0 20 -16 36.5t-35 27.5t-35 35t-16 56q0 44 29.5 71.5t68.5 27.5q29 0 53.5 -16.5t36.5 -47.5q8 -21 8 -55q0 -54 -26.5 -113.5t-61.5 -99.5zM559 -137l-22 12q16 40 16 66q0 20 -16 36.5t-35 27.5t-35 35t-16 56q0 44 29.5 71.5t68.5 27.5
q29 0 53.5 -16.5t36.5 -47.5q8 -21 8 -55q0 -54 -26.5 -113.5t-61.5 -99.5z" />
    <glyph glyph-name="dagger" unicode="&#x2020;" horiz-adv-x="894" 
d="M481 -8l-43 215l-26 827l-201 -45l-80 60l80 59l223 -49l23 147l-11 47l17 45q-27 8 -44.5 29.5t-17.5 50.5q0 34 24 58t58 24t57 -24t23 -58q0 -28 -15 -49t-40 -29l14 -47l-6 -47l21 -145l10 2l209 45l92 -59l-92 -60l-199 43l-25 -823l-43 -217h-8z" />
    <glyph glyph-name="daggerdbl" unicode="&#x2021;" horiz-adv-x="839" 
d="M459 -172q-29 0 -48.5 19.5t-19.5 48.5q0 23 14 41t37 22l-10 37v39l-16 39l-19 78v4l-168 -37l-65 49l65 49l170 -37l27 459l-27 461l-168 -37l-65 49l65 49l183 -41l18 123v41l10 37q-23 5 -38 22.5t-15 40.5q0 28 20 48t48 20t47.5 -20t19.5 -48q0 -23 -14.5 -40
t-36.5 -23l10 -37v-41l19 -121l180 39l74 -49l-74 -49l-166 35l-27 -459l27 -457l166 35l76 -49l-76 -49l-164 35v-2l-18 -78l-15 -39v-39l-12 -37q22 -4 35.5 -22t13.5 -41q0 -29 -18.5 -48.5t-44.5 -19.5z" />
    <glyph glyph-name="bullet" unicode="&#x2022;" horiz-adv-x="636" 
d="M360 449q-82 0 -139 57t-57 139t57 138.5t139 56.5t138.5 -56.5t56.5 -138.5t-56.5 -139t-138.5 -57z" />
    <glyph glyph-name="ellipsis" unicode="&#x2026;" horiz-adv-x="1210" 
d="M262 0q-41 0 -69.5 28.5t-28.5 69.5q0 40 28.5 68.5t69.5 28.5q40 0 69 -28.5t29 -68.5q0 -41 -29 -69.5t-69 -28.5zM647 0q-41 0 -69.5 28.5t-28.5 69.5q0 40 28.5 68.5t69.5 28.5q40 0 68 -28.5t28 -68.5q0 -41 -28 -69.5t-68 -28.5zM1032 0q-41 0 -69.5 28.5
t-28.5 69.5q0 40 28.5 68.5t69.5 28.5t68.5 -28.5t27.5 -68.5q0 -41 -27.5 -69.5t-68.5 -28.5z" />
    <glyph glyph-name="perthousand" unicode="&#x2030;" horiz-adv-x="2086" 
d="M244 0l981 1389q-141 -52 -287 -52q-109 0 -283 37q45 -42 71 -101.5t26 -125.5q0 -129 -85 -219t-208 -90t-209 90t-86 219q0 128 86 217.5t209 89.5h4q58 0 125 -31q217 -53 352 -53q154 0 317 62v2h68l-1014 -1434h-67zM461 874q64 0 101.5 77.5t37.5 195.5
q0 102 -29.5 176t-81.5 92q-2 0 -6.5 1t-7.5 1q-4 2 -14 2q-64 0 -101.5 -77t-37.5 -195t37.5 -195.5t101.5 -77.5zM1057 -18q-123 0 -209 90t-86 219q0 128 86 217.5t209 89.5q122 0 207.5 -90t85.5 -217q0 -129 -85 -219t-208 -90zM1712 -18q-123 0 -209 90t-86 219
q0 128 86 217.5t209 89.5q122 0 207.5 -90t85.5 -217q0 -129 -85 -219t-208 -90zM1059 18q64 0 101.5 77.5t37.5 195.5t-37.5 195t-101.5 77t-101.5 -77t-37.5 -195t37.5 -195.5t101.5 -77.5zM1714 18q64 0 101.5 77.5t37.5 195.5t-37.5 195t-101.5 77t-101.5 -77
t-37.5 -195t37.5 -195.5t101.5 -77.5z" />
    <glyph glyph-name="guilsinglleft" unicode="&#x2039;" horiz-adv-x="884" 
d="M803 242l-639 448l639 449v-84l-508 -365l508 -364v-84z" />
    <glyph glyph-name="guilsinglright" unicode="&#x203a;" horiz-adv-x="884" 
d="M164 242v84l508 364l-508 365v84l639 -449z" />
    <glyph glyph-name="fraction" unicode="&#x2044;" horiz-adv-x="1523" 
d="M143 -283l1149 1860h88l-1149 -1860h-88z" />
    <glyph glyph-name="Euro" unicode="&#x20ac;" horiz-adv-x="1759" 
d="M1135 -20q-295 0 -500 158t-256 419h-215l37 68h168q-4 58 -4 90q0 39 2 57h-162l39 68h131q41 275 249 442.5t513 167.5q189 0 339 -76.5t201 -189.5l-73 -27q-56 120 -175.5 185t-271.5 65q-242 0 -406 -154t-196 -413h657l-41 -68h-622q-2 -18 -2 -53q0 -32 4 -94h610
l-41 -68h-561q43 -245 203 -389.5t393 -144.5q152 0 271.5 64.5t175.5 184.5l73 -26q-51 -113 -201 -189.5t-339 -76.5z" />
    <glyph glyph-name="trademark" unicode="&#x2122;" horiz-adv-x="1513" 
d="M387 1047v583h-223v23h516v-23h-221v-583h-72zM756 1047v606h73l279 -523l252 523h72v-606h-72v552l-264 -552h-25l-293 546v-546h-22z" />
    <glyph glyph-name="oneeighth" unicode="&#x215b;" horiz-adv-x="1755" 
d="M309 623v921l119 119v-1040h-119zM164 -283l1149 1860h88l-1149 -1860h-88zM1317 -313q-129 0 -221 61t-92 170q0 84 57.5 170t167.5 156q-81 67 -125.5 128t-44.5 126q0 114 85 178.5t199 64.5q102 0 175 -54.5t73 -151.5q0 -145 -192 -267q57 -42 95.5 -74t78.5 -74
t60 -85.5t20 -89.5q0 -82 -50 -142.5t-125 -88t-161 -27.5zM1368 291q97 58 140.5 114t43.5 127q0 84 -60.5 131.5t-143.5 47.5q-81 0 -140 -45.5t-59 -126.5q0 -33 15.5 -64.5t47.5 -62t62 -53.5t78 -57q11 -7 16 -11zM1313 -272q102 0 175 46t73 130q0 21 -6 41t-23 42
t-29 36.5t-42.5 40t-43 35.5t-52.5 40t-50 37q-35 24 -58 45q-208 -131 -208 -301q0 -91 78.5 -141.5t185.5 -50.5z" />
    <glyph glyph-name="threeeighths" unicode="&#x215c;" horiz-adv-x="1974" 
d="M459 635q-93 0 -171 41t-124 119l49 32q28 -79 87.5 -118t139.5 -39q116 0 191.5 75.5t75.5 206.5q0 112 -51 180t-154 68q-16 0 -62 -4l-2 29q89 10 134.5 77t45.5 144q0 68 -26 129q-19 42 -60 64t-90 22q-94 0 -146.5 -56t-55.5 -159l-56 14q30 116 106 176t179 60
q109 0 187.5 -59.5t78.5 -172.5q0 -69 -37.5 -129t-115.5 -96q113 -9 181 -85.5t68 -180.5q0 -158 -106.5 -248t-265.5 -90zM406 -283l1148 1860h88l-1148 -1860h-88zM1536 -313q-129 0 -221 61t-92 170q0 84 57.5 170t167.5 156q-81 67 -125.5 128t-44.5 126
q0 114 85.5 178.5t199.5 64.5q102 0 174.5 -54t72.5 -152q0 -145 -192 -267q57 -42 95.5 -74t78.5 -74t60 -85.5t20 -89.5q0 -82 -50 -142.5t-125 -88t-161 -27.5zM1587 291q97 58 141 114t44 127q0 84 -61 131.5t-144 47.5q-81 0 -140 -45.5t-59 -126.5q0 -33 15.5 -64.5
t47.5 -62t62 -53.5t78 -57q11 -7 16 -11zM1532 -272q102 0 175 46t73 130q0 21 -6 41t-23 42t-29 36.5t-42.5 40t-43 35.5t-52.5 40t-50 37q-30 21 -57 45q-209 -132 -209 -301q0 -91 78.5 -141.5t185.5 -50.5z" />
    <glyph glyph-name="fiveeighths" unicode="&#x215d;" horiz-adv-x="1941" 
d="M442 623q-94 0 -169.5 40.5t-108.5 116.5l51 31q22 -77 80.5 -118.5t132.5 -41.5q57 0 111 26.5t90 76.5q57 77 57 196q0 138 -75.5 219.5t-192.5 81.5q-111 0 -223 -75v485h596v-121h-555v-307q111 63 225 63q145 0 248.5 -89.5t103.5 -227.5q0 -140 -98 -246
q-51 -54 -123 -82t-150 -28zM369 -283l1149 1860h88l-1149 -1860h-88zM1503 -313q-129 0 -221 61t-92 170q0 84 57.5 170t167.5 156q-81 67 -125.5 128t-44.5 126q0 114 85.5 178.5t199.5 64.5q102 0 175 -54.5t73 -151.5q0 -145 -193 -267q57 -42 95.5 -74t78.5 -74
t60 -85.5t20 -89.5q0 -82 -50 -142.5t-125 -88t-161 -27.5zM1554 291q97 58 141 114t44 127q0 84 -61 131.5t-144 47.5q-81 0 -140 -45.5t-59 -126.5q0 -33 15.5 -64.5t47.5 -62t62 -53.5t78 -57q11 -7 16 -11zM1499 -272q102 0 175 46t73 130q0 21 -6 41t-23 42t-29 36.5
t-42.5 40t-43 35.5t-52.5 40t-50 37q-30 21 -57 45q-209 -132 -209 -301q0 -91 78.5 -141.5t185.5 -50.5z" />
    <glyph glyph-name="seveneighths" unicode="&#x215e;" horiz-adv-x="1759" 
d="M285 655q15 102 50.5 215.5t93.5 239.5t105.5 219t122.5 230h-493v120h596q-310 -563 -330 -1024h-145zM168 -283l1149 1860h88l-1149 -1860h-88zM1321 -313q-129 0 -221 61t-92 170q0 84 57.5 170t167.5 156q-81 67 -125.5 128t-44.5 126q0 114 85.5 178.5t199.5 64.5
q102 0 174.5 -54t72.5 -152q0 -145 -192 -267q57 -42 95.5 -74t78.5 -74t60 -85.5t20 -89.5q0 -82 -50 -142.5t-125 -88t-161 -27.5zM1372 291q97 58 140.5 114t43.5 127q0 84 -60.5 131.5t-143.5 47.5q-81 0 -140 -45.5t-59 -126.5q0 -33 15.5 -64.5t47.5 -62t62 -53.5
t78 -57q11 -7 16 -11zM1317 -272q102 0 175 46t73 130q0 21 -6 41t-23 42t-29 36.5t-42.5 40t-43 35.5t-52.5 40t-50 37q-30 21 -57 45q-209 -132 -209 -301q0 -91 78.5 -141.5t185.5 -50.5z" />
    <glyph glyph-name="arrowleft" unicode="&#x2190;" horiz-adv-x="1515" 
d="M582 379l-418 225v53l418 226v-52l-260 -163h1112v-74h-1112l260 -164v-51z" />
    <glyph glyph-name="arrowup" unicode="&#x2191;" horiz-adv-x="749" 
d="M379 0v1112l-162 -260h-53l225 418h53l226 -418h-54l-161 260v-1112h-74z" />
    <glyph glyph-name="arrowright" unicode="&#x2192;" horiz-adv-x="1515" 
d="M1016 379v51l260 164h-1112v74h1112l-260 163v52l418 -226v-53z" />
    <glyph glyph-name="arrowdown" unicode="&#x2193;" horiz-adv-x="749" 
d="M389 -6l-225 418h51l164 -260v1112h74v-1112l163 260h52l-226 -418h-53z" />
    <glyph glyph-name="arrowboth" unicode="&#x2194;" horiz-adv-x="1802" 
d="M582 520l-418 225v54l418 225v-51l-260 -164h1241l-260 164v51l417 -225v-54l-417 -225v51l260 164h-1241l260 -164v-51z" />
    <glyph glyph-name="arrowupdn" unicode="&#x2195;" horiz-adv-x="749" 
d="M389 -6l-225 418h51l164 -260v1241l-164 -260h-51l225 417h53l226 -417h-52l-163 260v-1241l163 260h52l-226 -418h-53z" />
    <glyph glyph-name="uni2196" unicode="&#x2196;" horiz-adv-x="1187" 
d="M1053 160l-785 784l68 -297l-37 -37l-135 455l37 37l454 -135l-37 -37l-296 67l784 -784z" />
    <glyph glyph-name="uni2197" unicode="&#x2197;" horiz-adv-x="1187" 
d="M217 160l-53 53l784 784l-297 -67l-37 37l455 135l37 -37l-135 -455l-37 37l67 297z" />
    <glyph glyph-name="uni2198" unicode="&#x2198;" horiz-adv-x="1187" 
d="M1069 160l-455 135l37 37l297 -68l-784 785l53 53l784 -785l-67 297l37 37l135 -454z" />
    <glyph glyph-name="uni2199" unicode="&#x2199;" horiz-adv-x="1187" 
d="M201 160l-37 37l135 454l37 -37l-68 -297l785 785l53 -53l-784 -785l296 68l37 -37z" />
    <glyph glyph-name="partialdiff" unicode="&#x2202;" horiz-adv-x="1196" 
d="M621 -20q-90 0 -166.5 27t-129 72.5t-89.5 106.5t-54.5 128.5t-17.5 138.5q0 73 17.5 142t55 131t90.5 108.5t129 74t165 27.5q191 0 307 -156q-19 290 -115.5 444t-261.5 154q-131 0 -221 -139l-35 51q119 131 291 131q242 0 385 -211t143 -567q0 -90 -18.5 -181.5
t-58.5 -178.5t-96 -154t-139 -108t-181 -41zM621 20q132 0 221.5 178.5t89.5 444.5v10q-119 244 -291 244q-130 0 -216.5 -130.5t-86.5 -324.5q0 -112 31 -206t97 -155t155 -61z" />
    <glyph glyph-name="emptyset" unicode="&#x2205;" horiz-adv-x="1288" 
d="M215 -156l166 240q-101 72 -159 183t-58 241q0 218 152 370t370 152q156 0 289 -86l155 225h52l-170 -251q91 -73 142.5 -180t51.5 -230q0 -143 -69 -263t-189 -189.5t-262 -69.5q-140 0 -258 67l-141 -209h-72zM408 123l540 782q-121 78 -262 78q-198 0 -336.5 -138.5
t-138.5 -336.5q0 -118 53 -218.5t144 -166.5zM686 33q97 0 184.5 37.5t150.5 101t100.5 151.5t37.5 185q0 110 -46.5 206.5t-127.5 162.5l-530 -785q108 -59 231 -59z" />
    <glyph glyph-name="product" unicode="&#x220f;" horiz-adv-x="1288" 
d="M330 -240v1524h-166v150h1042v-150h-153v-1524h-68v1524h-588v-1524h-67z" />
    <glyph glyph-name="summation" unicode="&#x2211;" horiz-adv-x="1128" 
d="M164 -285v127l534 733l-534 734v125h883v-125h-793l487 -676v-115l-489 -678h795v-125h-883z" />
    <glyph glyph-name="minus" unicode="&#x2212;" horiz-adv-x="1124" 
d="M164 639v68h878v-68h-878z" />
    <glyph glyph-name="radical" unicode="&#x221a;" horiz-adv-x="1437" 
d="M432 -225l-268 782h166l221 -672l522 1549h283l-45 -150h-205l-518 -1509h-156z" />
    <glyph glyph-name="infinity" unicode="&#x221e;" horiz-adv-x="1716" 
d="M1300 211q-71 0 -130 23t-107 68.5t-81.5 91t-72.5 112.5q-55 -69 -92 -110t-92 -89t-113.5 -71t-122.5 -23q-104 0 -179.5 51t-110.5 129t-35 170q0 71 22.5 136t64.5 118t111 85t154 32q67 0 123 -21.5t101 -64t77 -86.5t68 -107q54 67 90 106.5t89 85t108.5 67
t117.5 20.5q108 -1 188 -57t118 -139.5t38 -178.5q0 -91 -35.5 -168.5t-113 -128.5t-185.5 -51zM471 346q56 0 107.5 20.5t101 63.5t84.5 81t86 101q-30 53 -51.5 86.5t-53.5 74t-62 63.5t-70 39t-85 16q-73 0 -131.5 -25.5t-94 -67.5t-54.5 -93.5t-19 -106.5
q0 -104 64 -178t178 -74zM1290 256q134 0 207.5 81t73.5 191q0 111 -70 193t-192 82q-43 0 -85.5 -14.5t-76.5 -36.5t-72.5 -58.5t-65.5 -68t-65 -78.5q36 -67 65.5 -111t71.5 -89.5t94.5 -68t114.5 -22.5z" />
    <glyph glyph-name="integral" unicode="&#x222b;" horiz-adv-x="1093" 
d="M219 -258q-19 0 -55 4v27q32 -4 45 -4q87 0 144.5 63t85 169.5t42 244.5t21 291t15.5 305.5t33 290.5t65.5 244.5t120 169.5t190.5 63q45 0 86 -8v-25q-31 8 -66 8q-83 0 -138.5 -63t-82.5 -169.5t-41 -245t-22 -291.5t-18.5 -305.5t-36.5 -291t-69.5 -245t-124 -169.5
t-194.5 -63z" />
    <glyph glyph-name="approxequal" unicode="&#x2248;" horiz-adv-x="1128" 
d="M856 733q-56 0 -126.5 24.5t-126.5 53.5t-126.5 53.5t-126.5 24.5q-103 0 -186 -78v78q87 78 186 78q56 0 126.5 -24.5t126.5 -53.5t126.5 -53.5t126.5 -24.5q103 0 186 78v-78q-87 -78 -186 -78zM860 424q-56 0 -126.5 24.5t-126.5 53.5t-126.5 53.5t-126.5 24.5
q-103 0 -186 -78v78q85 77 186 77q56 0 126.5 -24t126.5 -53.5t126.5 -53.5t126.5 -24q104 0 187 78v-78q-87 -78 -187 -78z" />
    <glyph glyph-name="notequal" unicode="&#x2260;" horiz-adv-x="1124" 
d="M322 0l210 481h-368v68h397l107 242h-504v67h532l185 422h67l-184 -422h278v-67h-307l-106 -242h413v-68h-442l-211 -481h-67z" />
    <glyph glyph-name="lessequal" unicode="&#x2264;" horiz-adv-x="1028" 
d="M946 262l-782 391v115l782 391v-84l-733 -364l733 -365v-84zM164 127v68h782v-68h-782z" />
    <glyph glyph-name="greaterequal" unicode="&#x2265;" horiz-adv-x="1028" 
d="M164 262v84l733 365l-733 364v84l782 -391v-115zM164 127v68h782v-68h-782z" />
    <glyph glyph-name="lozenge" unicode="&#x25ca;" horiz-adv-x="1021" 
d="M496 -8l-332 577l332 578h112l332 -580l-332 -575h-112zM551 41l303 526l-303 531l-303 -529z" />
    <glyph glyph-name="A.ss01" unicode="&#xe000;" horiz-adv-x="1681" 
d="M813 -18q-131 0 -240 42t-183.5 113.5t-126.5 166.5t-75.5 199t-23.5 214q0 171 55.5 313t148.5 233t212.5 141t250.5 50q170 0 290.5 -73.5t207.5 -213.5v267h168v-1434h-168v291q-77 -148 -210 -228.5t-306 -80.5zM852 49q37 0 77 7.5t87.5 28t90.5 52.5t84.5 85.5
t71.5 121.5t48 165.5t18 213.5v4q0 111 -17.5 205.5t-46 161.5t-68 120t-81 86t-87.5 54.5t-84.5 30.5t-74.5 10q-131 4 -232.5 -45.5t-165 -141.5t-96 -213.5t-32.5 -267.5q0 -77 12 -154t36 -154.5t65.5 -143t96 -117t131 -80.5t167.5 -29z" />
    <glyph glyph-name="E.ss01" unicode="&#xe001;" horiz-adv-x="1916" 
d="M985 -20q-234 0 -415.5 90t-283.5 257.5t-102 387.5q0 142 44 263.5t119.5 207.5t175.5 147.5t213 91t231 29.5q97 0 190.5 -20.5t179 -60.5t158 -103t125.5 -143t83 -186.5t30 -227.5h-1366q1 -189 75.5 -343t217 -245.5t329.5 -91.5q429 0 592 344l82 -35
q-106 -183 -280.5 -272.5t-397.5 -89.5zM369 768h1179q-8 154 -61 278t-135.5 201t-182.5 117.5t-208 40.5q-110 0 -211.5 -41t-184.5 -118.5t-136 -201t-60 -276.5z" />
    <glyph glyph-name="K.ss01" unicode="&#xe002;" horiz-adv-x="1443" 
d="M1249 -29q-103 0 -180.5 38t-125.5 98.5t-89 133.5t-83 145.5t-93 132t-133.5 96t-192.5 34.5v-649h-168v1434h168v-705l860 705h88l-872 -715q109 -4 198.5 -31t150.5 -69t110.5 -95.5t83 -111.5t63 -115.5t56.5 -109.5t56.5 -92t70 -63.5t90.5 -23.5q24 0 36 2l3 -30
q-79 -9 -97 -9z" />
    <glyph glyph-name="M.ss01" unicode="&#xe003;" horiz-adv-x="2301" 
d="M184 0v1434h168v-314q74 158 211 246t283 88q101 0 185.5 -42.5t137.5 -125.5q42 -63 58 -186q71 168 211 261t293 93q100 0 184 -42.5t137 -125.5q66 -105 66 -375v-911h-168v926q0 122 -7.5 192.5t-35.5 120.5q-36 65 -96 99t-132 34q-78 0 -155.5 -39t-142.5 -109.5
t-105.5 -183t-40.5 -245.5v-795h-168v926q0 122 -7.5 192.5t-35.5 120.5q-36 66 -96 99.5t-131 33.5q-78 0 -155.5 -39t-143 -109.5t-106 -183t-40.5 -245.5v-795h-168z" />
    <glyph glyph-name="N.ss01" unicode="&#xe004;" horiz-adv-x="1521" 
d="M184 0v1434h168v-347q57 117 152 209q81 78 185.5 119t209.5 41q123 0 222.5 -53t150.5 -154q65 -124 65 -375v-874h-168v889q0 220 -43 313q-41 89 -114.5 134.5t-163.5 45.5q-81 0 -161.5 -35t-145.5 -100q-88 -84 -138.5 -203.5t-50.5 -248.5v-795h-168z" />
    <glyph glyph-name="Q.ss01" unicode="&#xe005;" horiz-adv-x="1949" 
d="M1679 -205l-454 219q-118 -34 -252 -34q-119 0 -232.5 29t-214.5 89.5t-177 146t-120.5 207t-44.5 263.5t44.5 263.5t121 207.5t177.5 147.5t215 91t233 29.5q120 0 234 -29.5t215 -91t177 -147.5t120 -207.5t44 -263.5q0 -246 -125 -418.5t-329 -253.5l411 -121zM975 35
q179 0 318.5 87t216.5 241.5t77 351.5q0 146 -46 273t-126.5 217.5t-194 142t-245.5 51.5q-175 0 -315.5 -88.5t-219 -245t-78.5 -350.5q0 -146 45.5 -272.5t125.5 -216t194.5 -140.5t247.5 -51z" />
    <glyph glyph-name="R.ss01" unicode="&#xe006;" horiz-adv-x="1533" 
d="M1298 -27q-79 0 -138 22t-94.5 59t-61.5 85t-45.5 101t-39.5 106.5t-50 101.5t-71.5 85t-109.5 59t-158 22h-178v-614h-168v1434h600q269 0 417.5 -107.5t148.5 -302.5q0 -186 -135.5 -292.5t-383.5 -117.5q89 -31 153.5 -83.5t98.5 -110t58 -120t41.5 -117t39 -98
t60.5 -66t98 -17.5v-25q-29 -4 -82 -4zM352 664h432q197 0 292 88t95 272t-95 272t-292 88h-432v-720z" />
    <glyph glyph-name="T_h" unicode="&#xe007;" horiz-adv-x="2414" 
d="M668 0v1378h-525v56h1364v-768q83 151 191 213q109 63 233 63q170 0 255 -99.5t85 -324.5v-518h-168v518q0 195 -48.5 277t-164.5 82q-60 0 -123 -28.5t-119.5 -81t-95.5 -138.5t-45 -189v-440h-168v1378h-503v-1378h-168z" />
    <glyph glyph-name="c_b" unicode="&#xe008;" horiz-adv-x="2379" 
d="M1812 -20q-120 0 -205 48t-145 148v-176h-168v1137q0 124 -67.5 192t-161.5 68q-91 0 -158 -65t-67 -179q0 -41 10.5 -85.5t25 -79.5t35.5 -72.5t35.5 -58.5t31.5 -44.5t17 -24.5l41 -59l-96 -51q-33 109 -111.5 162t-189.5 53q-67 0 -126 -25.5t-106 -75.5t-74.5 -130.5
t-27.5 -182.5q0 -212 95.5 -323t248.5 -111q228 0 312 215l73 -35q-140 -241 -420 -241q-94 0 -180.5 30.5t-156.5 88.5t-112 151.5t-42 208.5t42.5 208.5t114 151.5t159.5 88.5t184 30.5q122 0 213 -45q-60 132 -60 244q0 148 93.5 231.5t228.5 83.5q103 0 201 -52
t163 -151v-505q126 196 348 196q139 0 241.5 -64.5t154 -173t51.5 -245.5q0 -93 -28 -177.5t-81.5 -153t-140.5 -109.5t-195 -41zM1772 43q75 0 135 37.5t96.5 100t56 137t19.5 153.5q0 80 -17.5 152.5t-52 133.5t-93.5 97.5t-134 36.5q-33 0 -70 -11.5t-79.5 -42t-77 -75
t-60.5 -118.5t-33 -165v-47q7 -94 33 -167t60 -113.5t76.5 -66.5t76 -34t64.5 -8z" />
    <glyph glyph-name="c_h" unicode="&#xe009;" horiz-adv-x="2369" 
d="M614 -16q-94 0 -180.5 30.5t-156.5 88.5t-112 151.5t-42 208.5t42.5 208.5t114 151.5t159.5 88.5t184 30.5q122 0 213 -45q-60 132 -60 244q0 148 93.5 231.5t228.5 83.5q103 0 201 -52t163 -151v-587q83 151 191 213q109 63 233 63q170 0 255 -99.5t85 -324.5v-518h-168
v518q0 195 -48.5 277t-164.5 82q-60 0 -123 -28.5t-119.5 -81t-95.5 -138.5t-45 -189v-440h-168v1137q0 124 -67.5 192t-161.5 68q-91 0 -158 -65t-67 -179q0 -41 10.5 -85.5t25 -79.5t35.5 -72.5t35.5 -58.5t31.5 -44.5t17 -24.5l41 -59l-96 -51q-33 109 -111.5 162
t-189.5 53q-67 0 -126 -25.5t-106 -75.5t-74.5 -130.5t-27.5 -182.5q0 -212 95.5 -323t248.5 -111q228 0 312 215l73 -35q-140 -241 -420 -241z" />
    <glyph glyph-name="c_k" unicode="&#xe00a;" horiz-adv-x="2301" 
d="M614 -16q-94 0 -180.5 30.5t-156.5 88.5t-112 151.5t-42 208.5t42.5 208.5t114 151.5t159.5 88.5t184 30.5q122 0 213 -45q-60 132 -60 244q0 148 93.5 231.5t228.5 83.5q103 0 201 -52t163 -151v-921l664 590h84l-477 -424l471 -498h-234l-364 383l-144 -127v-256h-168
v1137q0 124 -67.5 192t-161.5 68q-91 0 -158 -65t-67 -179q0 -41 10.5 -85.5t25 -79.5t35.5 -72.5t35.5 -58.5t31.5 -44.5t17 -24.5l41 -59l-96 -51q-33 109 -111.5 162t-189.5 53q-67 0 -126 -25.5t-106 -75.5t-74.5 -130.5t-27.5 -182.5q0 -212 95.5 -323t248.5 -111
q228 0 312 215l73 -35q-140 -241 -420 -241z" />
    <glyph glyph-name="c_l" unicode="&#xe00b;" horiz-adv-x="1646" 
d="M614 -16q-94 0 -180.5 30.5t-156.5 88.5t-112 151.5t-42 208.5t42.5 208.5t114 151.5t159.5 88.5t184 30.5q122 0 213 -45q-60 132 -60 244q0 148 97 231.5t237 83.5q106 0 207 -52t166 -151v-1253h-168v1137q0 124 -70.5 192t-169.5 68q-95 0 -165 -65t-70 -179
q0 -41 10.5 -85.5t25 -79.5t35.5 -72.5t35.5 -58.5t31.5 -44.5t17 -24.5l41 -59l-96 -51q-33 109 -111.5 162t-189.5 53q-67 0 -126 -25.5t-106 -75.5t-74.5 -130.5t-27.5 -182.5q0 -212 95.5 -323t248.5 -111q228 0 312 215l73 -35q-140 -241 -420 -241z" />
    <glyph glyph-name="c_t" unicode="&#xe00c;" horiz-adv-x="1787" 
d="M1501 -23q-101 0 -144.5 62.5t-43.5 200.5v626h-105v56h105v215q0 124 -70.5 192t-167.5 68q-96 0 -165.5 -65t-69.5 -179q0 -41 10.5 -85.5t25 -79.5t35.5 -72.5t35.5 -58.5t31.5 -44.5t17 -24.5l41 -59l-96 -51q-33 109 -111.5 162t-189.5 53q-67 0 -126 -25.5
t-106 -75.5t-74.5 -130.5t-27.5 -182.5q0 -212 95.5 -323t248.5 -111q228 0 312 215l73 -35q-140 -241 -420 -241q-94 0 -180.5 30.5t-156.5 88.5t-112 151.5t-42 208.5t42.5 208.5t114 151.5t159.5 88.5t184 30.5q122 0 213 -45q-60 132 -60 244q0 148 96.5 231.5
t235.5 83.5q107 0 207.5 -52t165.5 -151v-331h223v-56h-223v-516q0 -31 -1 -83.5t-1 -73.5q0 -84 14.5 -124t58.5 -40q65 0 131 86l23 -19q-85 -119 -205 -119z" />
    <glyph glyph-name="f_b" unicode="&#xe00d;" horiz-adv-x="1794" 
d="M1227 -20q-120 0 -205 48t-145 148v-176h-168v1196q0 94 -44.5 142t-111.5 48q-108 0 -171 -84t-63 -204q0 -97 39 -176h211v-56h-215v-866h-168v866h-104v56h104v69q0 211 109 337t295 126q173 0 287 -102v-604q126 196 348 196q139 0 241.5 -64.5t153.5 -173t51 -245.5
q0 -93 -28 -177.5t-81 -153t-140 -109.5t-195 -41zM1186 43q75 0 135 37.5t96.5 100t56 137t19.5 153.5q0 80 -17.5 152.5t-52 133.5t-93.5 97.5t-134 36.5q-33 0 -69.5 -11.5t-79 -42t-77 -75t-60.5 -118.5t-33 -165v-47q7 -95 33 -167.5t60 -113t76.5 -66.5t75.5 -34
t64 -8z" />
    <glyph glyph-name="f_h" unicode="&#xe010;" horiz-adv-x="1783" 
d="M186 0v866h-104v56h104v69q0 211 109 337t295 126q173 0 287 -102v-684q77 146 190 211q109 63 233 63q170 0 255 -99.5t85 -324.5v-518h-167v518q0 195 -48.5 277t-164.5 82q-60 0 -123 -28.5t-119.5 -81t-95.5 -138.5t-45 -189v-440h-168v1196q0 94 -44.5 142
t-111.5 48q-108 0 -171 -84t-63 -204q0 -97 39 -176h211v-56h-215v-866h-168z" />
    <glyph glyph-name="f_j" unicode="&#xe012;" horiz-adv-x="1091" 
d="M557 -440v16q44 0 76 14.5t51 49t30.5 65.5t16 90.5t5.5 96t1 109.5v7v858h-383v-866h-168v866h-104v56h104v86q0 211 104 334.5t279 123.5q111 0 214.5 -58t134.5 -151q10 -20 10 -43q0 -44 -32.5 -76t-76.5 -32q-43 0 -75 30.5t-33 73.5q-3 91 -47 141t-121 50
q-105 0 -167.5 -82t-62.5 -205q0 -113 47 -192h545v-1024q0 -203 -74.5 -274.5t-273.5 -63.5z" />
    <glyph glyph-name="f_k" unicode="&#xe013;" horiz-adv-x="1716" 
d="M186 0v866h-104v56h104v69q0 211 109 337t295 126q173 0 287 -102v-1020l663 590h84l-477 -424l471 -498h-234l-364 383l-143 -127v-256h-168v1196q0 94 -44.5 142t-111.5 48q-108 0 -171 -84t-63 -204q0 -97 39 -176h211v-56h-215v-866h-168z" />
    <glyph glyph-name="f_t" unicode="&#xe015;" horiz-adv-x="1183" 
d="M897 -23q-101 0 -144.5 62.5t-43.5 200.5v626h-355v-866h-168v866h-104v56h104v69q0 211 109 337t295 126q173 0 287 -102v-430h223v-56h-223v-516q0 -31 -1.5 -83.5t-1.5 -73.5q0 -84 15 -124t59 -40q65 0 131 86l23 -19q-85 -119 -205 -119zM358 922h351v274
q0 94 -44.5 142t-111.5 48q-108 0 -171 -84t-63 -204q0 -97 39 -176z" />
    <glyph glyph-name="s_b" unicode="&#xe016;" horiz-adv-x="2322" 
d="M541 -20q-147 0 -265 51t-153 145l102 19q19 -77 111 -118.5t209 -41.5q120 0 191 46.5t71 143.5q0 43 -29.5 73t-77.5 44t-109.5 26.5t-125.5 21t-125.5 28.5t-109.5 47.5t-77.5 79t-29.5 121.5q0 88 66 152.5t163 94t209 29.5q121 0 221 -35q-55 117 -55 234
q0 148 95 231.5t231 83.5q103 0 198.5 -52t153.5 -151v-505q126 196 348 196q139 0 241.5 -64.5t154 -173t51.5 -245.5q0 -93 -28 -177.5t-81.5 -153t-140.5 -109.5t-195 -41q-120 0 -205 48t-145 148v-176h-168v1137q0 124 -66 192t-157 68t-157 -65t-66 -179
q0 -55 21.5 -117.5t46 -103t53 -84t32.5 -51.5q21 -33 27 -52l-101 -18q-20 77 -105.5 120.5t-197.5 43.5q-126 0 -203 -46t-77 -147q0 -50 37.5 -81.5t98 -47t133.5 -27t146 -29t133.5 -44.5t98 -81t37.5 -132q0 -68 -36.5 -122t-98 -87t-137 -50t-158.5 -17zM1714 43
q75 0 135 37.5t96.5 100t56 137t19.5 153.5q0 80 -17.5 152.5t-52 133.5t-93.5 97.5t-134 36.5q-33 0 -69.5 -11.5t-79 -42t-77 -75t-60.5 -118.5t-33 -165v-47q7 -95 33 -167.5t60 -113t76.5 -66.5t75.5 -34t64 -8z" />
    <glyph glyph-name="s_h" unicode="&#xe017;" horiz-adv-x="2312" 
d="M541 -20q-147 0 -265 51t-153 145l102 19q19 -77 111 -118.5t209 -41.5q120 0 191 46.5t71 143.5q0 43 -29.5 73t-77.5 44t-109.5 26.5t-125.5 21t-125.5 28.5t-109.5 47.5t-77.5 79t-29.5 121.5q0 88 66 152.5t163 94t209 29.5q121 0 221 -35q-55 117 -55 234
q0 148 95 231.5t231 83.5q103 0 198.5 -52t153.5 -151v-587q83 152 190 213q109 63 234 63q170 0 255 -99.5t85 -324.5v-518h-168v518q0 195 -48.5 277t-164.5 82q-60 0 -123 -28t-119.5 -80t-95.5 -138t-45 -191v-440h-168v1137q0 124 -66 192t-157 68t-157 -65t-66 -179
q0 -55 21.5 -117.5t46 -103t53 -84t32.5 -51.5q21 -33 27 -52l-101 -18q-20 77 -105.5 120.5t-197.5 43.5q-126 0 -203 -46t-77 -147q0 -50 37.5 -81.5t98 -47t133.5 -27t146 -29t133.5 -44.5t98 -81t37.5 -132q0 -68 -36.5 -122t-98 -87t-137 -50t-158.5 -17z" />
    <glyph glyph-name="s_k" unicode="&#xe018;" horiz-adv-x="2244" 
d="M541 -20q-147 0 -265 51t-153 145l102 19q19 -77 111 -118.5t209 -41.5q120 0 191 46.5t71 143.5q0 43 -29.5 73t-77.5 44t-109.5 26.5t-125.5 21t-125.5 28.5t-109.5 47.5t-77.5 79t-29.5 121.5q0 88 66 152.5t163 94t209 29.5q121 0 221 -35q-55 117 -55 234
q0 148 95 231.5t231 83.5q103 0 198.5 -52t153.5 -151v-921l663 590h84l-477 -424l471 -498h-233l-365 383l-143 -127v-256h-168v1137q0 124 -66 192t-157 68t-157 -65t-66 -179q0 -55 21.5 -117.5t46 -103t53 -84t32.5 -51.5q21 -33 27 -52l-101 -18q-20 77 -105.5 120.5
t-197.5 43.5q-126 0 -203 -46t-77 -147q0 -50 37.5 -81.5t98 -47t133.5 -27t146 -29t133.5 -44.5t98 -81t37.5 -132q0 -68 -36.5 -122t-98 -87t-137 -50t-158.5 -17z" />
    <glyph glyph-name="s_l" unicode="&#xe019;" horiz-adv-x="1609" 
d="M541 -20q-147 0 -265 51t-153 145l102 19q19 -77 111 -118.5t209 -41.5q120 0 191 46.5t71 143.5q0 43 -29.5 73t-77.5 44t-109.5 26.5t-125.5 21t-125.5 28.5t-109.5 47.5t-77.5 79t-29.5 121.5q0 88 66 152.5t163 94t209 29.5q121 0 221 -35q-55 117 -55 234
q0 148 98.5 231.5t237.5 83.5q108 0 206 -52t156 -151v-1253h-168v1137q0 125 -69 192.5t-166 67.5q-93 0 -162 -65t-69 -179q0 -55 21.5 -117.5t46 -103t53 -84t32.5 -51.5q21 -33 27 -52l-101 -18q-20 77 -105.5 120.5t-197.5 43.5q-126 0 -203 -46t-77 -147
q0 -50 37.5 -81.5t98 -47t133.5 -27t146 -29t133.5 -44.5t98 -81t37.5 -132q0 -68 -36.5 -122t-98 -87t-137 -50t-158.5 -17z" />
    <glyph glyph-name="s_t" unicode="&#xe01a;" horiz-adv-x="1738" 
d="M1452 -23q-101 0 -144.5 62.5t-43.5 200.5v626h-105v56h105v215q0 124 -70.5 192t-167.5 68q-96 0 -165.5 -65t-69.5 -179q0 -55 21.5 -117.5t46 -103t53 -84t32.5 -51.5q21 -33 27 -52l-101 -18q-20 77 -105.5 120.5t-197.5 43.5q-126 0 -203 -46t-77 -147
q0 -50 37.5 -81.5t98 -47t133.5 -27t146 -29t133.5 -44.5t98 -81t37.5 -132q0 -68 -36.5 -122t-98 -87t-137 -50t-158.5 -17q-147 0 -265 51t-153 145l102 19q19 -77 111 -118.5t209 -41.5q120 0 191 46.5t71 143.5q0 43 -29.5 73t-77.5 44t-109.5 26.5t-125.5 21
t-125.5 28.5t-109.5 47.5t-77.5 79t-29.5 121.5q0 88 66 152.5t163 94t209 29.5q121 0 221 -35q-55 117 -55 234q0 148 96.5 231.5t235.5 83.5q107 0 207.5 -52t165.5 -151v-331h223v-56h-223v-516q0 -31 -1 -83.5t-1 -73.5q0 -84 14.5 -124t58.5 -40q65 0 131 86l23 -19
q-85 -119 -205 -119z" />
    <glyph glyph-name="t_t" unicode="&#xe01b;" horiz-adv-x="1241" 
d="M375 -23q-102 0 -145.5 62.5t-43.5 200.5v626h-104v56h104v327l168 62v-389h412v471l168 61v-532h223v-56h-223v-516q0 -31 -1 -83.5t-1 -73.5q0 -84 15 -124t59 -40q65 0 131 86l22 -19q-85 -119 -205 -119q-101 0 -144.5 62.5t-43.5 200.5v626h-412v-516
q0 -31 -1 -83.5t-1 -73.5q0 -84 15 -124t59 -40q65 0 131 86l23 -19q-85 -119 -205 -119z" />
    <glyph glyph-name="zero.dnom" unicode="&#xe01c;" horiz-adv-x="1081" 
d="M541 -254q-163 0 -270 148.5t-107 375.5q0 150 48.5 272t135 190.5t193.5 68.5t193.5 -68.5t135 -190.5t48.5 -272q0 -227 -107 -375.5t-270 -148.5zM541 -223q117 0 182 130.5t65 362.5q0 235 -65.5 368.5t-181.5 133.5t-182 -133.5t-66 -368.5q0 -232 65.5 -362.5
t182.5 -130.5z" />
    <glyph glyph-name="one.dnom" unicode="&#xe01d;" horiz-adv-x="446" 
d="M164 -250v922l119 119v-1041h-119z" />
    <glyph glyph-name="two.dnom" unicode="&#xe01e;" horiz-adv-x="948" 
d="M164 -244q13 14 71.5 71t105 104.5t110 124t106.5 143.5t74 149t31 154q0 126 -59 188t-150 62q-86 0 -150 -54.5t-80 -173.5l-49 15q14 49 39.5 92t64.5 81.5t97.5 61.5t128.5 23q127 0 202.5 -80.5t75.5 -202.5q0 -65 -25 -132.5t-63 -125t-96.5 -122.5t-111.5 -115.5
t-121 -113.5q-21 -19 -31 -28h450v-121h-620z" />
    <glyph glyph-name="three.dnom" unicode="&#xe01f;" horiz-adv-x="995" 
d="M459 -250q-93 0 -171 41t-124 119l49 33q28 -79 88 -118.5t139 -39.5q116 0 191.5 76t75.5 207q0 112 -51 179.5t-154 67.5q-16 0 -62 -4l-2 29q89 10 134.5 77t45.5 144q0 68 -26 129q-19 42 -60 64t-90 22q-94 0 -146.5 -56t-55.5 -159l-56 14q30 116 106 176t179 60
q70 0 128.5 -23.5t98 -77.5t39.5 -130q0 -69 -37.5 -129.5t-115.5 -96.5q113 -9 181 -85.5t68 -180.5q0 -158 -106.5 -248t-265.5 -90z" />
    <glyph glyph-name="four.dnom" unicode="&#xe020;" horiz-adv-x="876" 
d="M594 -242v293h-430l41 66l420 682h88v-1041h-119zM227 86h367v586z" />
    <glyph glyph-name="five.dnom" unicode="&#xe021;" horiz-adv-x="976" 
d="M442 -248q-94 0 -169.5 41t-108.5 117l51 31q22 -77 80.5 -118.5t132.5 -41.5q58 0 111.5 26.5t89.5 75.5q57 77 57 197q0 138 -75.5 219.5t-192.5 81.5q-110 0 -223 -76v486h596v-121h-555v-308q113 64 225 64q145 0 248.5 -89.5t103.5 -227.5q0 -140 -98 -246
q-51 -54 -123.5 -82.5t-149.5 -28.5z" />
    <glyph glyph-name="six.dnom" unicode="&#xe022;" horiz-adv-x="997" 
d="M516 -246q-70 0 -129 26.5t-99.5 70t-69 101.5t-41.5 120.5t-13 126.5q0 111 32.5 211t83.5 170t114 123t125 79.5t116 28.5v-18q-114 -7 -208 -141.5t-124 -321.5q94 108 234 108q128 0 212.5 -89.5t84.5 -227.5q0 -49 -13 -99.5t-39.5 -98.5t-63.5 -85.5t-89.5 -60.5
t-112.5 -23zM516 -217q89 0 145 94t56 242q0 129 -54.5 210t-140.5 81q-63 0 -124.5 -43.5t-104.5 -130.5v-37q0 -184 62.5 -300t160.5 -116z" />
    <glyph glyph-name="seven.dnom" unicode="&#xe023;" horiz-adv-x="923" 
d="M285 -231q15 102 50.5 215.5t93.5 239.5t105.5 218.5t122.5 229.5h-493v121h596q-310 -563 -330 -1024h-145z" />
    <glyph glyph-name="eight.dnom" unicode="&#xe024;" horiz-adv-x="976" 
d="M477 -242q-83 0 -152.5 25t-115 79t-45.5 128q0 84 57.5 169.5t167.5 155.5q-81 67 -125.5 128t-44.5 126q0 114 85.5 179t199.5 65q102 0 175 -54.5t73 -152.5q0 -144 -193 -266q57 -42 95.5 -74t78.5 -74t60 -86t20 -90q0 -82 -50 -142.5t-125 -88t-161 -27.5zM528 362
q97 58 141 114.5t44 127.5q0 84 -61 131t-144 47q-81 0 -140 -45.5t-59 -126.5q0 -33 15.5 -64.5t47.5 -62t62 -53.5t78 -57q11 -7 16 -11zM473 -201q102 0 175 46t73 130q0 18 -6.5 37t-14.5 34.5t-26.5 35.5t-30 32.5t-39 34.5l-40 32t-45.5 34.5t-44 32.5q-30 21 -57 45
q-209 -132 -209 -301q0 -91 78.5 -142t185.5 -51z" />
    <glyph glyph-name="nine.dnom" unicode="&#xe025;" horiz-adv-x="997" 
d="M362 -238v19q114 7 208 141.5t124 321.5q-95 -109 -233 -109q-128 0 -212.5 90t-84.5 228q0 62 21 125t59.5 117.5t100.5 89t136 34.5q87 0 156.5 -39.5t111.5 -104.5t63.5 -142t21.5 -158q0 -111 -32.5 -211t-83.5 -170.5t-114.5 -123t-125.5 -79.5t-116 -29zM475 164
q63 0 125 43.5t105 130.5v37q0 184 -62.5 300t-161.5 116q-89 0 -144.5 -94t-55.5 -242q0 -129 54 -210t140 -81z" />
    <glyph glyph-name="zero.numr" unicode="&#xe026;" horiz-adv-x="1081" 
d="M541 668q-163 0 -270 148.5t-107 375.5q0 150 48.5 271.5t135 190t193.5 68.5t193.5 -68.5t135 -190t48.5 -271.5q0 -227 -107 -375.5t-270 -148.5zM541 698q117 0 182 131t65 363q0 235 -65.5 368.5t-181.5 133.5t-182 -133.5t-66 -368.5q0 -232 65.5 -363t182.5 -131z
" />
    <glyph glyph-name="one.numr" unicode="&#xe027;" horiz-adv-x="446" 
d="M164 684v922l119 118v-1040h-119z" />
    <glyph glyph-name="two.numr" unicode="&#xe028;" horiz-adv-x="948" 
d="M164 698q13 14 71.5 71t105 104.5t110 124t106.5 143.5t74 149t31 154q0 126 -59 188t-150 62q-86 0 -150 -54.5t-80 -173.5l-49 15q14 49 39.5 92t64.5 81.5t97.5 61.5t128.5 23q127 0 202.5 -80.5t75.5 -202.5q0 -65 -25 -132.5t-63 -125t-96.5 -122.5t-111.5 -115.5
t-121 -113.5q-21 -19 -31 -28h450v-121h-620z" />
    <glyph glyph-name="three.numr" unicode="&#xe029;" horiz-adv-x="995" 
d="M459 674q-93 0 -171 41t-124 119l49 32q28 -79 87.5 -118t139.5 -39q116 0 191.5 75.5t75.5 206.5q0 112 -51 180t-154 68q-16 0 -62 -4l-2 29q89 10 134.5 77t45.5 144q0 68 -26 129q-19 42 -60 64t-90 22q-94 0 -146.5 -56t-55.5 -159l-56 14q30 116 106 176t179 60
q109 0 187.5 -59.5t78.5 -172.5q0 -69 -37.5 -129t-115.5 -96q113 -9 181 -85.5t68 -180.5q0 -158 -106.5 -248t-265.5 -90z" />
    <glyph glyph-name="four.numr" unicode="&#xe02a;" horiz-adv-x="876" 
d="M594 692v293h-430l41 66l420 682h88v-1041h-119zM227 1020h367v586z" />
    <glyph glyph-name="five.numr" unicode="&#xe02b;" horiz-adv-x="976" 
d="M442 680q-94 0 -169.5 41t-108.5 117l51 30q22 -77 80.5 -118t132.5 -41q58 0 111.5 26.5t89.5 75.5q57 77 57 197q0 138 -75.5 219.5t-192.5 81.5q-110 0 -223 -76v485h596v-121h-555v-307q113 64 225 64q145 0 248.5 -90t103.5 -228q0 -139 -98 -245
q-51 -54 -123.5 -82.5t-149.5 -28.5z" />
    <glyph glyph-name="six.numr" unicode="&#xe02c;" horiz-adv-x="997" 
d="M516 664q-70 0 -129 26t-99.5 70t-69 101.5t-41.5 120t-13 126.5q0 111 32.5 211t83.5 170t114 123t125 79.5t116 28.5v-18q-114 -7 -208 -141.5t-124 -321.5q95 109 234 109q128 0 212.5 -90t84.5 -228q0 -62 -21 -125t-59.5 -117.5t-101 -89t-136.5 -34.5zM516 692
q89 0 145 94t56 242q0 129 -54.5 210t-140.5 81q-63 0 -124.5 -43.5t-104.5 -130.5v-37q0 -184 62.5 -300t160.5 -116z" />
    <glyph glyph-name="seven.numr" unicode="&#xe02d;" horiz-adv-x="923" 
d="M285 678q15 102 50.5 215.5t93.5 239.5t105.5 218.5t122.5 229.5h-493v121h596q-310 -563 -330 -1024h-145z" />
    <glyph glyph-name="eight.numr" unicode="&#xe02e;" horiz-adv-x="976" 
d="M477 653q-83 0 -152.5 25t-115 79t-45.5 128q0 84 57.5 169.5t167.5 155.5q-81 67 -125.5 128t-44.5 126q0 114 85.5 179t199.5 65q102 0 175 -54.5t73 -152.5q0 -144 -193 -266q57 -42 95.5 -74t78.5 -74t60 -86t20 -90q0 -82 -50 -142.5t-125 -88t-161 -27.5zM528 1257
q97 58 141 114.5t44 127.5q0 84 -61 131t-144 47q-81 0 -140 -45.5t-59 -126.5q0 -33 15.5 -64.5t47.5 -62t62 -53.5t78 -57q11 -7 16 -11zM473 694q102 0 175 46t73 130q0 18 -6.5 37t-14.5 34.5t-26.5 35.5t-30 32.5t-39 34.5l-40 32t-45.5 34.5t-44 32.5q-30 21 -57 45
q-209 -132 -209 -301q0 -91 78.5 -142t185.5 -51z" />
    <glyph glyph-name="nine.numr" unicode="&#xe02f;" horiz-adv-x="997" 
d="M362 645v19q114 7 208 141t124 321q-94 -108 -233 -108q-128 0 -212.5 89.5t-84.5 227.5q0 62 21 125.5t59.5 118t100.5 89t136 34.5q87 0 156.5 -39.5t111 -105t63.5 -142.5t22 -158q0 -111 -32.5 -211t-83.5 -170t-114.5 -123t-125.5 -79.5t-116 -28.5zM475 1047
q63 0 125 43.5t105 130.5v36q0 184 -62.5 300t-161.5 116q-89 0 -144.5 -94t-55.5 -242q0 -129 54 -209.5t140 -80.5z" />
    <glyph glyph-name="ampersand.ss01" unicode="&#xe030;" horiz-adv-x="1466" 
d="M653 -20q-117 0 -212 34t-154.5 91t-91 129t-31.5 151q0 135 89 251t255 171l-207 240q-2 12 -2 36q0 109 63 196t161.5 132t211.5 45q326 0 408 -334l-78 -16q-17 151 -97.5 229t-205.5 78q-25 0 -37 -2q-123 -11 -199.5 -110t-66.5 -234l684 -788q57 114 57 286
q0 59 -6 117h61q7 -272 -84 -436l213 -246h-176l-116 135q-152 -155 -439 -155zM711 51q225 0 352 117l-520 600q-114 -44 -174 -137t-60 -203q0 -72 26.5 -138.5t75.5 -120t127 -86t173 -32.5z" />
    <glyph glyph-name="a.ss01" unicode="&#xe082;" horiz-adv-x="1210" 
d="M444 -25q-137 0 -229 71.5t-92 197.5q0 53 22.5 98t61 78t96.5 59t120.5 43.5t142 30.5t153 20.5t160.5 12.5v4q0 295 -304 295q-109 0 -190 -43.5t-104 -136.5l-111 12q44 108 161.5 166.5t260.5 58.5q127 0 227.5 -38.5t164 -122t63.5 -201.5v-580h-168v160
q-83 -91 -202 -138t-233 -47zM510 55q90 0 193 49t176 142v282q-86 -5 -153.5 -12.5t-136.5 -21t-118.5 -34t-89.5 -50t-60 -71.5t-20 -95q0 -91 59 -140t150 -49z" />
    <glyph glyph-name="b.ss01" unicode="&#xe083;" horiz-adv-x="1228" 
d="M623 -23q-226 0 -353 145.5t-127 401.5v910h168v-686q130 196 351 196q205 0 323.5 -136.5t118.5 -346.5q0 -229 -130 -356.5t-351 -127.5zM618 43q62 0 114.5 24.5t88 65.5t60 95.5t36 114.5t11.5 124q0 111 -32 205.5t-101.5 156.5t-163.5 62q-35 0 -74.5 -13
t-84 -47.5t-79.5 -85.5t-58.5 -135.5t-23.5 -189.5v-27q1 -169 88 -259.5t219 -90.5z" />
    <glyph glyph-name="d.ss01" unicode="&#xe085;" horiz-adv-x="1228" 
d="M594 -23q-215 0 -343 132.5t-128 351.5q0 137 51 245.5t153 173t240 64.5q221 0 351 -196v686h167v-910q0 -119 -30 -218t-89.5 -173t-154.5 -115t-217 -41zM610 35q131 0 219.5 98t88.5 273v14q0 105 -23.5 189.5t-58.5 135.5t-79.5 85.5t-84 47.5t-74.5 13
q-72 0 -130 -35.5t-93.5 -96t-54.5 -135.5t-19 -157q0 -72 10.5 -134.5t34 -118t58.5 -95t87.5 -62t118.5 -22.5z" />
    <glyph glyph-name="f.ss01" unicode="&#xe087;" horiz-adv-x="579" 
d="M186 -18v884h-104v56h104v69q0 76 7.5 138.5t29.5 124t56.5 103.5t93 67.5t135.5 25.5q24 0 90 -8v-39q-30 6 -59 6q-114 0 -168 -80.5t-54 -200.5q0 -113 41 -206h211v-56h-215v-884h-168z" />
    <glyph glyph-name="g.ss01" unicode="&#xe088;" horiz-adv-x="1288" 
d="M565 -498q-85 0 -156.5 12t-131 37t-93.5 70.5t-34 106.5q0 146 178 192q-67 26 -103.5 73t-36.5 103q0 62 44 115t128 78q-115 46 -176 128.5t-61 176.5q0 67 32 128t92.5 111t159 79.5t220.5 29.5q172 0 293 -59l192 174l74 -88l-217 -113q79 -49 120 -119.5t41 -146.5
q0 -67 -32 -128t-92.5 -111t-159 -79.5t-219.5 -29.5q-90 0 -168 16q-89 -3 -136 -38.5t-47 -84.5q0 -25 11.5 -40t42 -21t52 -7t71.5 -1h26h279q109 0 189 -21t124 -58.5t64 -81.5t20 -98q0 -145 -149 -225t-441 -80zM627 301q155 0 242 86.5t87 204.5t-87 204.5t-242 86.5
q-156 0 -243 -85.5t-87 -201.5q0 -119 88 -207t242 -88zM578 -434q208 0 324 41.5t130 116.5q2 8 2 24q0 65 -66 107.5t-188 42.5h-280q-138 -3 -216.5 -45t-78.5 -123q0 -59 52.5 -97t132.5 -52.5t188 -14.5z" />
    <glyph glyph-name="k.ss01" unicode="&#xe08c;" horiz-adv-x="1189" 
d="M164 0v1434h168v-689q69 97 173.5 147t217.5 50q169 0 272 -76.5t103 -222.5q0 -245 -338 -313l313 -330h-233l-291 305q-31 -2 -98 -2q-78 0 -119 2v-305h-168zM471 358q290 0 393 109q62 65 62 174q0 59 -22 112.5t-62 84.5q-57 43 -158 43q-105 0 -204 -68t-148 -188
v-263q98 -4 139 -4z" />
    <glyph glyph-name="l.ss01" unicode="&#xe08d;" horiz-adv-x="638" 
d="M352 -23q-101 0 -144.5 62.5t-43.5 200.5v1194h168v-1084q0 -31 -1 -83.5t-1 -73.5q0 -84 14.5 -124t58.5 -40q66 0 132 86l22 -19q-85 -119 -205 -119z" />
    <glyph glyph-name="p.ss01" unicode="&#xe091;" horiz-adv-x="1228" 
d="M143 -410v787q0 137 42 247.5t112.5 179t159.5 104.5t188 36q70 0 136.5 -19t125.5 -58.5t103 -96t70 -136t26 -173.5q0 -89 -26.5 -167.5t-71.5 -135.5t-103.5 -98.5t-125 -62t-134.5 -20.5q-102 0 -190.5 47.5t-143.5 139.5v-574h-168zM621 43q75 0 135 37.5t96.5 100
t56 137t19.5 153.5q0 120 -28 211.5t-95.5 150t-167.5 58.5q-146 0 -236 -110t-90 -273v-12q0 -113 24 -199.5t57.5 -133t79 -75.5t80.5 -37t69 -8z" />
    <glyph glyph-name="q.ss01" unicode="&#xe092;" horiz-adv-x="1228" 
d="M918 -410v576q-56 -98 -137.5 -142t-196.5 -44q-112 0 -202 40.5t-145.5 108.5t-84.5 153t-29 179q0 215 128.5 349t348.5 134q225 0 355 -144t130 -446v-764h-167zM608 43q34 0 69 8t80.5 37t79 75.5t57.5 133t24 199.5v32q0 153 -88.5 258t-215.5 105q-80 0 -141.5 -35
t-98 -95t-55 -133.5t-18.5 -156.5q0 -79 19.5 -153.5t56 -137t96.5 -100t135 -37.5z" />
    <glyph glyph-name="u.ss01" unicode="&#xe096;" horiz-adv-x="1095" 
d="M559 -20q-227 0 -321.5 114t-94.5 355v473h168v-467q0 -181 35 -260q65 -152 254 -152q80 0 151.5 40t108.5 110q47 87 47 227v502h66v-471q0 -236 -102 -353.5t-312 -117.5z" />
    <glyph glyph-name="w.ss01" unicode="&#xe098;" horiz-adv-x="1691" 
d="M512 -20q-188 0 -278.5 111.5t-90.5 352.5v478h168v-471q0 -217 56.5 -313.5t173.5 -96.5q122 0 197 104.5t75 284.5v492h168v-471q0 -217 56.5 -313.5t172.5 -96.5q122 0 197.5 104.5t75.5 284.5v492h65v-471q0 -225 -92 -348t-272 -123q-135 0 -219.5 56t-120.5 175
q-83 -231 -332 -231z" />
    <glyph glyph-name="y.ss01" unicode="&#xe09a;" horiz-adv-x="1046" 
d="M346 -408l166 408h-63l-367 920h182l307 -775l316 775h78l-543 -1328h-76z" />
    <glyph glyph-name="i.loclTRK" horiz-adv-x="495" 
d="M248 1042q-43 0 -72 29t-29 72q0 40 28 70t69 30q44 0 74 -28.5t30 -71.5t-28.5 -72t-71.5 -29zM164 0v922h168v-922h-168z" />
    <glyph glyph-name="t.ss01" horiz-adv-x="659" 
d="M469 -20q-162 0 -222.5 70t-60.5 251v565h-104v56h104v368l168 62v-430h224v-56h-224v-559q0 -41 1 -69t5.5 -61t12 -55t21.5 -43.5t33 -34t47.5 -20.5t64.5 -8q24 0 36 2v-32q-59 -6 -106 -6z" />
    </font>
</defs>
</svg>
