<?xml version="1.0" standalone="no"?>
<!DOCTYPE svg PUBLIC "-//W3C//DTD SVG 1.1//EN" "http://www.w3.org/Graphics/SVG/1.1/DTD/svg11.dtd" >
<svg xmlns="http://www.w3.org/2000/svg" xmlns:xlink="http://www.w3.org/1999/xlink" version="1.1">
<metadata>
Created by FontForge 20201107 at Fri Feb  7 01:06:18 2020
 By 
Pavel Larin
</metadata>
<defs>
<font id="Mansory-BoldOblique" horiz-adv-x="0" >
  <font-face 
    font-family="Mansory BoldOblique"
    font-weight="400"
    font-style="oblique"
    font-stretch="normal"
    units-per-em="1000"
    panose-1="0 0 5 0 0 0 0 0 0 0"
    ascent="800"
    descent="-200"
    x-height="459"
    cap-height="710"
    bbox="-782 -452 1366 1000"
    underline-thickness="50"
    underline-position="-100"
    unicode-range="U+0020-E09A"
  />
<missing-glyph horiz-adv-x="650" 
d="M533 -300h-412v1300h412v-1300zM218 913v-43h85v-48h-86v-43h216v43h-86v48h86v43h-215zM217 745v-135h216v44h-86v91h-130zM303 654h-43v47h43v-47zM217 575v-43h86v-48h-86v-43h130v91h86v43h-216zM390 497v-86h-173v-44h216v130h-43zM303 338v-72h44v29h43v-61h-130
v104h-43v-147h216v147h-130zM217 113v-147h216v147h-216zM390 9h-130v62h130v-62zM217 -63v-43h91l-91 -61v-43h216v43h-133l91 61h42v43h-216z" />
    <glyph glyph-name="f_f" unicode="ff" horiz-adv-x="606" 
d="M68 413h-51l10 47h51l8 32q25 110 102 172t191 62q43 0 83.5 -13t59.5 -30q29 20 68 31.5t78 11.5q51 0 93 -23t49 -53l-129 -49q-2 43 -8.5 58t-21.5 15q-31 0 -62.5 -38.5t-43.5 -91.5q-6 -25 -6 -56q0 -21 2 -28h109l-10 -47h-105l-98 -422h-154l98 422h-159l-98 -422
h-154zM391 460l8 32q11 52 37 98q-5 41 -25.5 62.5t-49.5 21.5q-45 0 -80.5 -36.5t-48.5 -93.5q-6 -25 -6 -56q0 -21 2 -28h163z" />
    <glyph glyph-name="f_f_i" unicode="ffi" horiz-adv-x="855" 
d="M670 413h-145l-98 -422h-154l98 422h-149l-98 -422h-154l98 422h-51l11 47h51l7 32q25 109 100.5 171.5t182.5 62.5q43 0 84 -13.5t61 -30.5q30 19 77.5 31.5t98.5 12.5q47 0 89 -14t69 -40t28 -59q0 -3 1 -9t-1 -11q-6 -25 -37 -44t-66 -19q-32 0 -54 15.5t-22 37.5
q0 5 1 8q2 9 2 26q0 26 -10 41.5t-28 15.5q-45 0 -79.5 -36t-47.5 -94q-6 -27 -6 -56q0 -21 2 -28h304l-109 -470h-154zM382 460l7 32q11 46 38 97q-6 36 -25.5 60.5t-49.5 24.5q-38 0 -72.5 -37t-47.5 -93q-6 -27 -6 -56q0 -21 2 -28h154z" />
    <glyph glyph-name="f_i" unicode="fi" horiz-adv-x="548" 
d="M377 413h-155l-98 -422h-154l98 422h-51l11 47h51l7 32q24 106 99.5 168t188.5 66q46 1 93 -14t79 -40.5t36 -53.5q2 -8 2 -17q0 -5 -1 -8q-6 -25 -37 -44t-66 -19q-34 0 -56.5 18t-19.5 41q3 12 3 23q0 27 -14 44.5t-35 17.5q-44 0 -78.5 -36t-47.5 -94q-6 -24 -6 -53
q0 -19 3 -31h313l-109 -470h-154z" />
    <glyph glyph-name="f_l" unicode="fl" horiz-adv-x="557" 
d="M402 584q2 7 2 20q0 26 -13 44.5t-30 18.5q-34 0 -65.5 -27t-50.5 -69t-19 -84q0 -18 2 -27h109l-11 -47h-105l-97 -422h-154l97 422h-51l11 47h51l6 24q25 109 106.5 172.5t200.5 63.5q56 0 112 -19t70 -44l-154 -667h-154z" />
    <glyph glyph-name=".notdef" horiz-adv-x="650" 
d="M533 -300h-412v1300h412v-1300zM218 913v-43h85v-48h-86v-43h216v43h-86v48h86v43h-215zM217 745v-135h216v44h-86v91h-130zM303 654h-43v47h43v-47zM217 575v-43h86v-48h-86v-43h130v91h86v43h-216zM390 497v-86h-173v-44h216v130h-43zM303 338v-72h44v29h43v-61h-130
v104h-43v-147h216v147h-130zM217 113v-147h216v147h-216zM390 9h-130v62h130v-62zM217 -63v-43h91l-91 -61v-43h216v43h-133l91 61h42v43h-216z" />
    <glyph glyph-name=".null" 
 />
    <glyph glyph-name="nonmarkingreturn" horiz-adv-x="333" 
 />
    <glyph glyph-name="space" unicode=" " horiz-adv-x="300" 
 />
    <glyph glyph-name="exclam" unicode="!" horiz-adv-x="263" 
d="M164 728h151l-158 -587h-108zM23 -18.5q-16 14.5 -16 37.5q0 31 27 55t60 24q25 0 41.5 -14.5t16.5 -36.5q0 -32 -27 -56t-61 -24q-25 0 -41 14.5z" />
    <glyph glyph-name="quotedbl" unicode="&#x22;" horiz-adv-x="336" 
d="M103 728h98l-71 -245h-68zM231 728h98l-71 -245h-68z" />
    <glyph glyph-name="numbersign" unicode="#" horiz-adv-x="845" 
d="M213 160h-183l37 57h178l86 154h-195l41 57h187l131 232h71l-131 -232l149 -1l132 233h71l-132 -233h198l-40 -56h-189l-87 -155h207l-39 -57h-201l-123 -219h-71l124 219l-150 1l-125 -220h-71zM553 371h-151l-87 -154l151 -1z" />
    <glyph glyph-name="dollar" unicode="$" horiz-adv-x="702" 
d="M233 -19q-87 9 -146.5 47t-67.5 90l107 35q6 -55 34 -85.5t84 -38.5l65 283q-94 29 -148.5 66t-54.5 104q0 15 5 37q17 74 97.5 128.5t194.5 69.5l17 73h105l-17 -71q88 -7 149 -45.5t70 -91.5l-108 -35q-4 56 -33.5 86.5t-88.5 38.5l-64 -279q96 -30 151.5 -68
t55.5 -106q0 -15 -5 -38q-11 -49 -53 -91t-105.5 -70.5t-138.5 -37.5l-21 -89h-105zM391 666q-49 -14 -82.5 -46t-43.5 -76q-4 -16 -4 -34q0 -32 18.5 -50.5t56.5 -33.5zM436 78.5q35 32.5 45 78.5q4 16 4 34q0 33 -19.5 53t-58.5 35l-57 -246q51 13 86 45.5z" />
    <glyph glyph-name="percent" unicode="%" horiz-adv-x="751" 
d="M665 669q-51 -11 -105 -11q-52 0 -100 9q15 -28 15 -60q0 -20 -4 -37q-11 -46 -43.5 -85t-78 -61.5t-94.5 -22.5q-64 0 -104 37.5t-40 95.5q0 19 4 36q10 46 43 84.5t79 61t95 22.5h2q21 0 41.5 -5t33.5 -12q47 -12 82.5 -18t71.5 -6q77 0 161 31h84l-709 -756h-88z
M303.5 481q23.5 40 35.5 89q7 30 7 65q0 28 -5 46.5t-16 18.5q-16 0 -39.5 -40.5t-34.5 -89.5q-8 -31 -8 -65q0 -28 6 -46t16 -18q15 0 38.5 40zM356.5 0q-39.5 37 -39.5 95q0 20 4 37q10 46 43 84.5t79 61t94 22.5q63 0 103.5 -38t40.5 -95q0 -19 -4 -35
q-11 -47 -43.5 -85.5t-78.5 -61t-95 -22.5q-64 0 -103.5 37zM508.5 42.5q23.5 40.5 35.5 89.5q7 31 7 63q0 29 -6 47.5t-16 18.5q-9 0 -24 -18.5t-28.5 -48.5t-20.5 -62q-8 -37 -8 -64q0 -29 6 -47.5t16 -18.5q15 0 38.5 40.5z" />
    <glyph glyph-name="ampersand" unicode="&#x26;" horiz-adv-x="791" 
d="M131.5 -10q-53.5 21 -82.5 59t-29 88q0 18 5 41q14 61 63.5 116.5t128.5 98.5q-11 60 -11 108q0 50 10 91q13 59 53.5 101t94.5 63t109 21q65 0 109 -30t44 -84q0 -16 -4 -31q-14 -58 -76.5 -115.5t-170.5 -111.5q17 -85 48.5 -163t70.5 -131q23 26 41.5 62.5t28.5 77.5
q5 23 5 41q0 39 -15 66l101 64q21 -33 21 -88q0 -32 -8 -70q-27 -117 -134 -202q30 -29 55.5 -42.5t51.5 -13.5q19 0 37 7l-10 -43q-24 -2 -37 -2q-45 0 -90 12.5t-82 35.5q-45 -22 -98.5 -34.5t-104.5 -12.5q-71 0 -124.5 21zM460 540.5q36 41.5 46 85.5q5 25 5 39
q0 30 -12.5 46t-32.5 16q-27 0 -54 -30.5t-40 -86.5q-8 -38 -8 -81q0 -35 4 -63q56 33 92 74.5zM413 50q-60 50 -106.5 121.5t-73.5 155.5q-30 -29 -51.5 -65.5t-29.5 -72.5q-6 -25 -6 -47q0 -56 35 -88.5t98 -32.5q73 0 134 29z" />
    <glyph glyph-name="quotesingle" unicode="'" horiz-adv-x="214" 
d="M106 728h98l-71 -245h-68z" />
    <glyph glyph-name="parenleft" unicode="(" horiz-adv-x="355" 
d="M59 164q0 141 71.5 281.5t215.5 285.5h76q-119 -155 -179.5 -314.5t-60.5 -318.5q0 -123 38 -246h-76q-85 157 -85 312z" />
    <glyph glyph-name="parenright" unicode=")" horiz-adv-x="355" 
d="M152.5 166.5q60.5 159.5 60.5 318.5q0 123 -38 246h76q85 -157 85 -312q0 -141 -71.5 -281.5t-215.5 -285.5h-76q119 155 179.5 314.5z" />
    <glyph glyph-name="asterisk" unicode="*" horiz-adv-x="458" 
d="M208 572l-119 -90l-31 74l137 61l-109 60l65 74l77 -90l11 126h98l-47 -126l119 90l31 -74l-137 -60l109 -61l-65 -74l-77 90l-11 -126h-98z" />
    <glyph glyph-name="plus" unicode="+" horiz-adv-x="627" 
d="M294 300h-231l14 60h231l50 219h71l-50 -219h231l-14 -60h-231l-56 -242h-71z" />
    <glyph glyph-name="comma" unicode="," horiz-adv-x="257" 
d="M102 -76q16 20 21 40l1 5q0 8 -12 20q-15 13 -21.5 23.5t-6.5 22.5q0 8 3 18q6 28 31 47t55 19q26 0 41.5 -15.5t15.5 -39.5q0 -35 -26.5 -79t-69.5 -81z" />
    <glyph glyph-name="hyphen" unicode="-" horiz-adv-x="516" 
d="M77 263h416l-14 -59h-416z" />
    <glyph glyph-name="period" unicode="." horiz-adv-x="256" 
d="M92 -3.5q-16 14.5 -16 37.5q0 31 27 55t60 24q25 0 41 -14.5t16 -37.5q0 -32 -26.5 -55.5t-60.5 -23.5q-25 0 -41 14.5z" />
    <glyph glyph-name="slash" unicode="/" horiz-adv-x="573" 
d="M559 741h88l-593 -889h-88z" />
    <glyph glyph-name="zero" unicode="0" horiz-adv-x="686" 
d="M104.5 48q-58.5 68 -58.5 183q0 59 14 118q25 107 82 192t135 132.5t162 47.5q103 0 162 -69.5t59 -185.5q0 -60 -14 -117q-25 -107 -81.5 -191t-134.5 -131t-163 -47q-104 0 -162.5 68zM355 63q40 42 75 116.5t57 169.5q21 90 21 170q0 76 -20.5 119t-58.5 43t-78.5 -43
t-75 -118.5t-56.5 -170.5q-22 -94 -22 -170q0 -74 21 -116t59 -42t78 42z" />
    <glyph glyph-name="one" unicode="1" horiz-adv-x="334" 
d="M140 571l188 149l-168 -730h-154z" />
    <glyph glyph-name="two" unicode="2" horiz-adv-x="602" 
d="M39 41q146 115 260.5 232t142.5 236q8 37 8 64q0 46 -19 71.5t-55 25.5q-55 0 -98 -43t-68 -125l-95 30q21 43 62.5 86t103.5 72.5t138 29.5q84 0 134.5 -42.5t50.5 -112.5q0 -22 -6 -48q-16 -70 -74 -141t-132 -133t-192 -151h301l-23 -102h-501q1 2 62 51z" />
    <glyph glyph-name="three" unicode="3" horiz-adv-x="628" 
d="M81.5 7.5q-60.5 32.5 -78.5 86.5l105 62q0 -69 25 -102.5t75 -33.5q67 0 118.5 50t70.5 133q8 32 8 66q0 45 -19 69.5t-56 24.5q-14 0 -52 -5q-21 -3 -27 -3l8 46q11 -3 21 -3q43 0 81.5 41t52.5 102q8 35 8 64q0 10 -2 20q-7 29 -20 41t-38 12q-51 0 -87.5 -41.5
t-50.5 -115.5l-104 26q37 80 110 127t161 47q83 0 132.5 -36.5t49.5 -96.5q0 -18 -4 -34q-21 -92 -134 -149q60 -14 94 -53.5t34 -93.5q0 -18 -5 -41q-16 -68 -63.5 -121.5t-118 -84.5t-155.5 -34q-79 -2 -139.5 30.5z" />
    <glyph glyph-name="four" unicode="4" horiz-adv-x="604" 
d="M322 190h-298l52 60l398 470h124l-168 -730h-154zM332 233l64 279l-240 -279h176z" />
    <glyph glyph-name="five" unicode="5" horiz-adv-x="615" 
d="M107.5 -3.5q-43.5 15.5 -71 42t-32.5 58.5l109 59l-1 -20q0 -56 23 -86t66 -30q32 0 61.5 16t61.5 50q18 20 36.5 56.5t26.5 71.5q7 31 7 63q0 61 -29.5 97.5t-80.5 36.5q-40 0 -88.5 -21.5t-121.5 -71.5l90 392h480l-23 -102h-379l-39 -168q63 21 123 21q66 0 118 -24
t81 -65.5t29 -94.5q0 -18 -5 -43q-22 -95 -117 -175q-42 -34 -106 -56t-124 -22q-51 0 -94.5 15.5z" />
    <glyph glyph-name="six" unicode="6" horiz-adv-x="631" 
d="M89.5 45.5q-52.5 65.5 -52.5 162.5q0 46 10 86q29 125 112 222.5t182.5 151.5t171.5 54q19 0 27 -2l-8 -37q-12 6 -26 6q-34 0 -77.5 -31.5t-87.5 -88t-79 -126.5q59 24 117 24q87 0 140 -48.5t53 -126.5q0 -24 -6 -51q-13 -57 -56.5 -118t-111 -102t-147.5 -41
q-109 0 -161.5 65.5zM317.5 50q30.5 30 56.5 80.5t39 108.5q9 41 9 76q0 50 -17 81.5t-45 31.5q-30 0 -67.5 -27t-77.5 -78l-7 -29q-15 -67 -15 -125q0 -67 18 -108t50 -41q26 0 56.5 30z" />
    <glyph glyph-name="seven" unicode="7" horiz-adv-x="584" 
d="M201 262q97 145 252 346h-333l23 102h483q-142 -180 -247 -366.5t-148 -353.5h-173q46 127 143 272z" />
    <glyph glyph-name="eight" unicode="8" horiz-adv-x="617" 
d="M80.5 262q53.5 57 142.5 109q-43 45 -63 80t-20 68q0 13 3 26q13 55 55 95t99.5 60t116.5 20q75 0 125 -31t50 -88q0 -9 -4 -31q-11 -47 -56 -93t-121 -89q63 -58 96.5 -103t33.5 -92q0 -12 -3 -26q-14 -59 -62 -101t-114.5 -63t-135.5 -21q-90 0 -152 35t-62 99
q0 17 4 32q14 57 67.5 114zM447 490.5q29 34.5 39 77.5q4 15 4 31q0 39 -23.5 60t-58.5 21q-41 0 -77 -28.5t-48 -79.5q-3 -12 -3 -23q0 -34 20.5 -60.5t63.5 -64.5q54 32 83 66.5zM395 158q0 35 -23.5 65.5t-70.5 73.5l-22 20l-15 15q-58 -36 -96 -83t-51 -98
q-4 -13 -4 -29q0 -45 35 -70t85 -25q55 0 101 29t59 82q2 7 2 20z" />
    <glyph glyph-name="nine" unicode="9" horiz-adv-x="631" 
d="M119 19q12 -6 26 -6q34 0 77.5 31.5t87.5 88t79 126.5q-59 -24 -117 -24q-87 0 -140 48.5t-53 126.5q0 24 6 51q13 57 56.5 118t111 102t147.5 41q109 0 161.5 -65.5t52.5 -162.5q0 -46 -10 -86q-29 -125 -112 -222.5t-182.5 -151.5t-171.5 -54q-19 0 -27 2zM358.5 301
q37.5 27 77.5 78l7 29q15 68 15 125q0 67 -18 108t-50 41q-26 0 -56.5 -30t-56.5 -80.5t-39 -108.5q-9 -40 -9 -76q0 -50 17 -81.5t45 -31.5q30 0 67.5 27z" />
    <glyph glyph-name="colon" unicode=":" horiz-adv-x="255" 
d="M139.5 380.5q-16.5 14.5 -16.5 37.5q0 32 27 56t61 24q25 0 41 -14t16 -36q0 -33 -27 -57.5t-60 -24.5q-25 0 -41.5 14.5zM43 -33.5q-16 14.5 -16 37.5q0 31 27.5 55.5t60.5 24.5q25 0 41 -14.5t16 -36.5q0 -4 -2 -14q-6 -28 -30.5 -47.5t-54.5 -19.5q-26 0 -42 14.5z
" />
    <glyph glyph-name="semicolon" unicode=";" horiz-adv-x="258" 
d="M148 386.5q-16 14.5 -16 37.5q0 32 27 55.5t61 23.5q25 0 41 -14t16 -36q0 -32 -26.5 -56.5t-60.5 -24.5q-26 0 -42 14.5zM55 -107q16 23 21 42l1 5q0 8 -12 19q-14 13 -20.5 23.5t-6.5 23.5q0 34 26.5 58.5t61.5 24.5q22 0 37.5 -11.5t18.5 -30.5q1 -4 1 -13
q0 -34 -25.5 -77t-69.5 -81z" />
    <glyph glyph-name="less" unicode="&#x3c;" horiz-adv-x="641" 
d="M136 305l-69 42l89 42l522 234l-17 -73l-454 -203l360 -203l-17 -73z" />
    <glyph glyph-name="equal" unicode="=" horiz-adv-x="629" 
d="M94 445h532l-14 -60h-532zM57 269h532l-14 -60h-532z" />
    <glyph glyph-name="greater" unicode="&#x3e;" horiz-adv-x="641" 
d="M20 144l454 203l-360 203l17 73l414 -234l69 -42l-89 -42l-522 -234z" />
    <glyph glyph-name="question" unicode="?" horiz-adv-x="520" 
d="M191 235q31 55 86 133q54 78 83.5 130.5t42.5 108.5q7 33 7 51q0 35 -17 54t-49 19t-61.5 -24t-48.5 -64t-19 -86h-101q12 64 51 114.5t95 79t120 28.5q76 0 122.5 -39t46.5 -100q0 -19 -4 -35q-13 -54 -52.5 -107t-112.5 -132q-70 -76 -106.5 -127t-47.5 -109h-75
q9 50 40 105zM109.5 -29q-15.5 15 -15.5 38q0 31 27 57.5t59 26.5q24 0 39.5 -15.5t15.5 -38.5q0 -9 -1 -14q-7 -29 -31.5 -49t-53.5 -20q-24 0 -39.5 15z" />
    <glyph glyph-name="at" unicode="@" horiz-adv-x="936" 
d="M220.5 -136.5q-82.5 43.5 -122.5 115.5t-40 157q0 37 10 84q24 103 97.5 199t187.5 156.5t252 60.5q99 0 172 -33.5t112.5 -94.5t39.5 -142q0 -42 -10 -83q-17 -74 -63 -140.5t-113 -115.5q-28 -20 -68 -33t-75 -13q-38 0 -69 15t-45 38q-27 -21 -60 -33t-63 -12
q-50 0 -77.5 30.5t-27.5 84.5q0 25 8 62q15 64 58 130t107.5 110t139.5 44q28 0 53 -10l4 9h140l-20 -41l-41 -84q-81 -162 -96 -195q-21 -42 -21 -68q0 -32 29 -32q28 0 72 31q38 28 77.5 94t52.5 125q11 49 11 88q0 103 -62 163t-172 60q-107 0 -196.5 -51t-149 -136
t-82.5 -183q-11 -50 -11 -91q0 -78 33 -137.5t94.5 -92t143.5 -32.5q83 0 141 19.5t113 65.5h101q-53 -58 -155 -95t-206 -37q-121 0 -203.5 43.5zM447.5 81q25.5 42 65.5 128l26 55l46 96q11 20 11 33q0 18 -26 18q-28 1 -65 -40.5t-70.5 -109t-49.5 -137.5q-7 -33 -7 -51
q0 -34 21 -34q23 0 48.5 42z" />
    <glyph glyph-name="A" unicode="A" horiz-adv-x="750" 
d="M391 710h129l127 -720h-161l-40 228h-287l-145 -228h-78zM436 275l-54 298l-188 -298h242z" />
    <glyph glyph-name="B" unicode="B" horiz-adv-x="753" 
d="M135 710h303q132 0 204.5 -38.5t72.5 -108.5q0 -17 -4 -33q-11 -47 -58 -89t-118 -69q144 -39 144 -141q0 -19 -4 -36q-13 -63 -63 -109t-131 -71t-184 -25h-328zM358 383q82 0 127 36t63 115q6 24 6 44q0 45 -31 66.5t-95 21.5h-145l-65 -283h140zM309 34q81 0 133 39.5
t68 113.5q7 33 7 51q0 101 -131 101h-179l-70 -305h172z" />
    <glyph glyph-name="C" unicode="C" horiz-adv-x="811" 
d="M201.5 15.5q-76.5 35.5 -118 99.5t-41.5 149q0 42 10 85q25 106 97.5 190t178 131.5t224.5 47.5q66 0 125.5 -19.5t98.5 -52t46 -69.5l-109 -35q-11 68 -50 101.5t-110 33.5t-141 -43.5t-122 -118.5t-73 -164q-11 -52 -11 -94q0 -68 24 -122t68 -84t102 -30
q141 0 222 135l93 -35q-24 -37 -77.5 -69.5t-122 -52t-134.5 -19.5q-103 0 -179.5 35.5z" />
    <glyph glyph-name="D" unicode="D" horiz-adv-x="798" 
d="M135 710h276q170 0 264.5 -68.5t94.5 -191.5q0 -34 -10 -81q-27 -119 -97 -204t-176 -130t-241 -45h-277zM256 34q131 0 217.5 84t123.5 250q14 62 14 107q0 95 -53 143.5t-157 48.5h-118l-146 -633h119z" />
    <glyph glyph-name="E" unicode="E" horiz-adv-x="665" 
d="M135 710h561l-13 -57h-403l-61 -263h310l-13 -57h-310l-66 -286h403l-13 -57h-561z" />
    <glyph glyph-name="F" unicode="F" horiz-adv-x="625" 
d="M135 710h551l-13 -57h-393l-61 -263h310l-13 -57h-310l-79 -343h-158z" />
    <glyph glyph-name="G" unicode="G" horiz-adv-x="842" 
d="M201.5 15.5q-76.5 35.5 -118 99.5t-41.5 149q0 42 10 85q25 106 97.5 190t178 131.5t224.5 47.5q66 0 125.5 -19.5t98.5 -52t46 -69.5l-109 -35q-11 68 -50 101.5t-110 33.5t-141.5 -43.5t-123 -118.5t-73.5 -164q-11 -52 -11 -93q0 -69 24.5 -122.5t69 -83.5t103.5 -30
q49 0 92 15.5t77 44.5l51 218h158l-19 -80q-16 -69 -70.5 -123.5t-135.5 -85.5t-173 -31q-103 0 -179.5 35.5z" />
    <glyph glyph-name="H" unicode="H" horiz-adv-x="743" 
d="M135 710h158l-74 -320h323l74 320h158l-166 -720h-158l79 343h-323l-79 -343h-158z" />
    <glyph glyph-name="I" unicode="I" horiz-adv-x="282" 
d="M145 710h158l-166 -720h-158z" />
    <glyph glyph-name="J" unicode="J" horiz-adv-x="313" 
d="M-69 -25l6 26h27q26 -1 42 13.5t30 56t35 130.5l117 509h158l-130 -563q-15 -65 -41.5 -102.5t-70.5 -55t-113 -17.5q-25 0 -38 1z" />
    <glyph glyph-name="K" unicode="K" horiz-adv-x="705" 
d="M135 710h158l-68 -296l427 296h103l-491 -340l333 -380h-191l-221 251l-58 -251h-158z" />
    <glyph glyph-name="L" unicode="L" horiz-adv-x="625" 
d="M135 710h158l-153 -663h383l-13 -57h-541z" />
    <glyph glyph-name="M" unicode="M" horiz-adv-x="970" 
d="M135 710h152l167 -557l394 557h153l-166 -720h-158l125 540l-383 -540h-80l-166 551l-127 -551h-77z" />
    <glyph glyph-name="N" unicode="N" horiz-adv-x="743" 
d="M135 710h146l296 -519l120 519h77l-166 -720h-90l-337 586l-135 -586h-77z" />
    <glyph glyph-name="O" unicode="O" horiz-adv-x="952" 
d="M207 16.5q-79 36.5 -122 101.5t-43 150q0 34 10 81q24 105 98.5 190t182.5 133t228 48q104 0 183.5 -36.5t122.5 -102.5t43 -151q0 -34 -10 -81q-24 -105 -98.5 -189t-182.5 -132t-229 -48q-104 0 -183 36.5zM546 68q69 41 119 114.5t72 166.5q12 51 12 97
q0 102 -53.5 164.5t-144.5 62.5q-74 0 -143.5 -42t-120.5 -116t-72 -166q-12 -52 -12 -99q0 -102 53 -162.5t145 -60.5q76 0 145 41z" />
    <glyph glyph-name="P" unicode="P" horiz-adv-x="729" 
d="M135 710h331q128 0 199.5 -45t71.5 -123q0 -17 -5 -42q-15 -64 -64 -111.5t-126 -73t-173 -25.5h-173l-69 -300h-158zM379 334q80 0 125 39t65 127q9 38 9 67q0 51 -29.5 75t-92.5 24h-173l-77 -332h173z" />
    <glyph glyph-name="Q" unicode="Q" horiz-adv-x="952" 
d="M69 -74q11 26 49.5 52t86.5 41q-79 38 -121 101.5t-42 146.5q0 41 10 82q24 105 99 189.5t183 133t228 48.5q104 0 183 -36.5t122 -102.5t43 -151q0 -34 -10 -81q-23 -99 -90.5 -180t-166 -130t-210.5 -57q18 -10 29 -18q48 -31 77 -44.5t53 -13.5q26 0 53.5 16t73.5 55
l54 -20q-114 -111 -229 -111q-96 0 -202 76q-42 29 -63.5 42t-35.5 14q-21 2 -35.5 -3.5t-31.5 -21.5t-47 -53zM546.5 68q68.5 41 119 114.5t71.5 166.5q12 51 12 97q0 102 -53.5 164.5t-144.5 62.5q-74 0 -143.5 -42t-120.5 -116t-72 -166q-12 -52 -12 -98
q0 -102 53.5 -163t145.5 -61q76 0 144.5 41z" />
    <glyph glyph-name="R" unicode="R" horiz-adv-x="739" 
d="M135 710h321q124 0 192.5 -43.5t68.5 -121.5q0 -25 -5 -45q-19 -79 -85 -131.5t-169 -70.5l124 -308h-151l-121 300h-134l-69 -300h-138zM369 334q84 0 132 39.5t68 126.5q8 37 8 62q0 54 -32 79t-99 25h-183l-77 -332h183z" />
    <glyph glyph-name="S" unicode="S" horiz-adv-x="710" 
d="M135.5 -3q-57.5 18 -94 50t-43.5 71l113 36q5 -66 44 -97t118 -31q69 0 118.5 36t63.5 95q4 16 4 33q0 29 -16 46.5t-42 28.5t-79 27q-70 21 -119 43t-83 58t-34 88q0 16 5 38q13 56 65.5 102t130 73t163.5 27q67 0 123.5 -18t92.5 -50t43 -71l-113 -36q-5 67 -43 97.5
t-116 30.5q-70 0 -119 -35.5t-63 -94.5q-4 -16 -4 -32q0 -29 16 -46t42 -27.5t80 -26.5q108 -33 171.5 -75.5t63.5 -116.5q0 -16 -5 -39q-13 -56 -65.5 -102t-130 -73t-163.5 -27q-67 0 -124.5 18z" />
    <glyph glyph-name="T" unicode="T" horiz-adv-x="734" 
d="M358 653h-243l13 57h644l-13 -57h-243l-153 -663h-158z" />
    <glyph glyph-name="U" unicode="U" horiz-adv-x="714" 
d="M90.5 31.5q-66.5 51.5 -66.5 151.5q0 43 12 92l100 435h158l-103 -446q-12 -51 -12 -91q0 -137 136 -137q99 0 160.5 58t89.5 178l101 438h80l-101 -437q-33 -145 -124 -219t-236 -74q-128 0 -194.5 51.5z" />
    <glyph glyph-name="V" unicode="V" horiz-adv-x="747" 
d="M103 710h161l103 -578l365 578h78l-447 -708h1l-3 -12h-131z" />
    <glyph glyph-name="W" unicode="W" horiz-adv-x="1186" 
d="M103 710h162l83 -569l338 569h72l68 -568l344 568h79l-434 -720h-128l-62 484l-288 -484h-128z" />
    <glyph glyph-name="X" unicode="X" horiz-adv-x="773" 
d="M313 325l-182 385h172l127 -270l273 270h96l-339 -334l182 -386h-171l-128 271l-274 -271h-95z" />
    <glyph glyph-name="Y" unicode="Y" horiz-adv-x="733" 
d="M277 277l-175 433h168l139 -346l301 346h91l-362 -415l-70 -305h-158z" />
    <glyph glyph-name="Z" unicode="Z" horiz-adv-x="761" 
d="M-21 26l604 627h-448l13 57h642l-8 -36l-603 -627h447l-13 -57h-642z" />
    <glyph glyph-name="bracketleft" unicode="[" horiz-adv-x="334" 
d="M176 731h224l-10 -45h-93l-182 -789h93l-10 -45h-224z" />
    <glyph glyph-name="backslash" unicode="\" horiz-adv-x="521" 
d="M173 741h88l127 -889h-88z" />
    <glyph glyph-name="bracketright" unicode="]" horiz-adv-x="334" 
d="M-16 -103h93l182 789h-93l10 45h224l-202 -879h-224z" />
    <glyph glyph-name="asciicircum" unicode="^" horiz-adv-x="403" 
d="M219 798h67l53 -266h-85l-30 142l-97 -142h-85z" />
    <glyph glyph-name="underscore" unicode="_" horiz-adv-x="681" 
d="M73 -35h589l-14 -59h-589z" />
    <glyph glyph-name="grave" unicode="`" horiz-adv-x="323" 
d="M63 893h133l64 -165h-66z" />
    <glyph glyph-name="a" unicode="a" horiz-adv-x="610" 
d="M71.5 30.5q-54.5 50.5 -54.5 133.5q0 32 7 61q17 73 62 129t110 86.5t141 30.5q74 0 126 -39l6 28h151l-108 -470h-154l6 29q-31 -18 -69 -28.5t-75 -10.5q-94 0 -148.5 50.5zM315.5 55q31.5 24 56.5 65.5t37 92.5l5 21q7 31 7 64q0 56 -22.5 91.5t-60.5 35.5
q-31 0 -61.5 -25.5t-55 -70t-37.5 -99.5q-9 -40 -9 -75q0 -56 20.5 -90t56.5 -34q32 0 63.5 24z" />
    <glyph glyph-name="b" unicode="b" horiz-adv-x="610" 
d="M178 -11q-33 9 -56 25l-6 -24h-154l166 720h154l-63 -275q67 36 140 36q97 0 152 -49t55 -133q0 -27 -8 -64q-16 -71 -61 -126.5t-110 -87t-138 -31.5q-38 0 -71 9zM304 57.5q32 26.5 58 72t38 100.5q10 40 10 78q0 54 -20 85.5t-54 31.5q-32 0 -65 -25.5t-59.5 -69.5
t-39.5 -96l-5 -23q-8 -37 -8 -65q0 -53 22 -84t60 -31q31 0 63 26.5z" />
    <glyph glyph-name="c" unicode="c" horiz-adv-x="565" 
d="M124.5 5.5q-51.5 23.5 -79.5 66.5t-28 99q0 22 7 55q16 70 65 125.5t120 87t151 31.5q75 0 131 -33t70 -84l-112 -54q1 67 -20.5 97t-70.5 30q-55 0 -103 -54t-68 -138q-10 -43 -10 -81q0 -58 24.5 -89.5t70.5 -31.5t82 28.5t74 95.5l84 -46q-46 -59 -118 -93.5
t-150 -34.5q-68 0 -119.5 23.5z" />
    <glyph glyph-name="d" unicode="d" horiz-adv-x="610" 
d="M44 30.5q-55 50.5 -55 133.5q0 32 7 61q17 73 62 129t110.5 86.5t140.5 30.5q35 0 67.5 -9.5t56.5 -26.5l63 275h154l-166 -720h-154l7 29q-32 -18 -69.5 -28.5t-74.5 -10.5q-94 0 -149 50.5zM288.5 55q31.5 24 56.5 65.5t37 92.5l4 21q8 37 8 65q0 56 -23 91t-61 35
q-31 0 -61.5 -25.5t-55 -70t-37.5 -99.5q-9 -39 -9 -74q0 -56 21 -90.5t57 -34.5q32 0 63.5 24z" />
    <glyph glyph-name="e" unicode="e" horiz-adv-x="586" 
d="M124.5 5.5q-51.5 23.5 -79.5 66.5t-28 99q0 22 7 55q16 70 65 125.5t120 87t151 31.5q98 0 154 -49.5t56 -133.5q0 -29 -10 -71h-379q-5 -28 -5 -47q0 -59 31 -92.5t80 -33.5q43 0 88.5 27.5t84.5 81.5l54 -50q-39 -51 -116 -85.5t-154 -34.5q-68 0 -119.5 23.5zM424 263
q4 23 4 48q0 54 -21 84.5t-58 30.5q-43 0 -87 -46t-68 -117h230z" />
    <glyph glyph-name="f" unicode="f" horiz-adv-x="293" 
d="M68 413h-51l10 47h51l8 32q25 109 97 171.5t172 62.5q51 0 93 -23t49 -53l-129 -49q-2 43 -8.5 58t-21.5 15q-31 0 -62.5 -38.5t-43.5 -91.5q-6 -25 -6 -56q0 -21 2 -28h109l-10 -47h-105l-98 -422h-154z" />
    <glyph glyph-name="g" unicode="g" horiz-adv-x="617" 
d="M72 -73q13 -45 50 -74t81 -29q54 0 99 45.5t67 139.5l2 10q-31 -18 -69 -28.5t-75 -10.5q-94 0 -148.5 50.5t-54.5 133.5q0 32 7 61q16 73 61 129t110.5 86.5t140.5 30.5q76 0 126 -39l7 28h151l-104 -450q-18 -78 -69 -131.5t-118 -79t-135 -25.5q-67 0 -117.5 23.5
t-66.5 64.5zM324.5 63q31.5 24 56.5 65.5t37 92.5l2 8q7 31 7 64q0 56 -22.5 91.5t-60.5 35.5q-47 0 -90.5 -53.5t-62.5 -136.5q-9 -39 -9 -72q0 -54 21.5 -86.5t57.5 -32.5q32 0 63.5 24z" />
    <glyph glyph-name="h" unicode="h" horiz-adv-x="577" 
d="M127 710h154l-71 -306q41 32 89.5 49t97.5 17q83 0 123 -33.5t40 -102.5q0 -34 -11 -81l-61 -263h-154l61 263q14 59 14 101q0 33 -10.5 48.5t-33.5 15.5q-37 0 -77 -28t-72.5 -75t-48.5 -101l-52 -224h-154z" />
    <glyph glyph-name="i" unicode="i" horiz-adv-x="242" 
d="M112.5 536.5q-20.5 17.5 -20.5 43.5q0 22 15.5 42t40.5 32.5t51 12.5q32 0 52.5 -17.5t20.5 -43.5q0 -22 -15.5 -42t-40.5 -32.5t-51 -12.5q-32 0 -52.5 17.5zM74 460h154l-108 -470h-154z" />
    <glyph glyph-name="j" unicode="j" horiz-adv-x="251" 
d="M136.5 536.5q-20.5 17.5 -20.5 43.5q0 22 15.5 42t40.5 32.5t51 12.5q32 0 52.5 -17.5t20.5 -43.5q0 -22 -15.5 -42t-40.5 -32.5t-51 -12.5q-32 0 -52.5 17.5zM-119 -195q4 -1 10 -1q30 0 53 44.5t48 155.5l105 456h154l-117 -510q-15 -65 -42 -103t-72 -55.5t-116 -17.5
q-23 0 -35 1z" />
    <glyph glyph-name="k" unicode="k" horiz-adv-x="572" 
d="M127 710h154l-114 -494l330 244h92l-290 -214l184 -256h-179l-123 170l-33 -25l-33 -145h-154z" />
    <glyph glyph-name="l" unicode="l" horiz-adv-x="262" 
d="M130 701l167 56l-178 -767h-154z" />
    <glyph glyph-name="m" unicode="m" horiz-adv-x="936" 
d="M97 460h151l-13 -58q41 33 86.5 50.5t91.5 17.5q62 0 100.5 -23t49.5 -67q88 90 202 90q77 0 115 -33t38 -101q0 -34 -11 -83l-60 -263h-154l60 260q14 59 14 102q0 65 -34 65q-31 0 -67 -26t-67.5 -70t-49.5 -95l-54 -236h-154l60 260q14 59 14 102q0 65 -34 65
q-32 0 -68 -25.5t-67 -69t-49 -95.5l-54 -237h-154z" />
    <glyph glyph-name="n" unicode="n" horiz-adv-x="604" 
d="M97 460h151l-13 -58q42 33 90.5 50.5t98.5 17.5q83 0 123 -33.5t40 -102.5q0 -34 -11 -81l-60 -263h-154l60 263q15 63 15 101q0 64 -45 64q-37 0 -77 -28t-72.5 -74.5t-48.5 -101.5l-51 -224h-154z" />
    <glyph glyph-name="o" unicode="o" horiz-adv-x="620" 
d="M128.5 5.5q-53.5 23.5 -82.5 66t-29 99.5q0 22 7 55q16 71 65.5 126.5t121.5 86.5t155 31q72 0 125.5 -23.5t82.5 -66t29 -99.5q0 -22 -7 -55q-16 -71 -65.5 -126.5t-121.5 -86.5t-155 -31q-72 0 -125.5 23.5zM367.5 79q46.5 53 69.5 147q11 49 11 83q0 56 -24 86.5
t-69 30.5q-58 0 -104 -54t-68 -147q-11 -47 -11 -82q0 -56 24 -86.5t67 -30.5q58 0 104.5 53z" />
    <glyph glyph-name="p" unicode="p" horiz-adv-x="660" 
d="M120 460h151l-6 -28q32 18 69.5 28.5t74.5 10.5q96 0 151.5 -49t55.5 -133q0 -27 -8 -64q-16 -71 -61.5 -126.5t-110.5 -87t-138 -31.5q-38 0 -71 9t-56 25l-52 -224h-154zM353 57.5q32 26.5 58 72t39 100.5q10 40 10 78q0 54 -20 85.5t-54 31.5q-32 0 -65.5 -25.5
t-60 -69.5t-38.5 -96l-5 -20q-7 -32 -7 -65q0 -54 21.5 -86t58.5 -32q31 0 63 26.5z" />
    <glyph glyph-name="q" unicode="q" horiz-adv-x="610" 
d="M364 19q-31 -18 -69 -28.5t-75 -10.5q-94 0 -148.5 50.5t-54.5 133.5q0 32 7 61q17 73 62 129t110 86.5t141 30.5q74 0 126 -39l6 28h151l-155 -670h-154zM315.5 55q31.5 24 56.5 65.5t37 92.5l5 21q7 31 7 64q0 56 -22.5 91.5t-60.5 35.5q-31 0 -61.5 -25.5t-55 -70
t-37.5 -99.5q-9 -40 -9 -75q0 -56 20.5 -90t56.5 -34q32 0 63.5 24z" />
    <glyph glyph-name="r" unicode="r" horiz-adv-x="479" 
d="M97 460h151l-13 -57q82 67 170 67q51 0 88.5 -21.5t47.5 -54.5l-138 -67q-1 48 -8 69.5t-21 22.5q-31 2 -69.5 -27.5t-69 -78t-40.5 -98.5l-52 -225h-154z" />
    <glyph glyph-name="s" unicode="s" horiz-adv-x="534" 
d="M100 -5q-49 15 -78 40.5t-29 55.5l124 21q-1 -6 -1 -17q0 -68 104 -68q53 0 82.5 18.5t36.5 56.5q1 5 1 13q0 22 -21.5 33t-80.5 21q-85 14 -139.5 41.5t-54.5 86.5q0 13 3 28q9 39 50.5 72.5t103.5 53t130 19.5q57 0 105 -15t76.5 -40.5t28.5 -55.5l-123 -21q1 6 1 17
q0 34 -24 52t-71 18q-62 0 -95 -24t-33 -70q0 -15 9 -23.5t29.5 -14.5t63.5 -14q58 -10 96.5 -21t67.5 -35.5t29 -65.5q0 -16 -4 -32q-10 -40 -50.5 -73t-101 -52.5t-128.5 -19.5q-58 0 -107 15z" />
    <glyph glyph-name="t" unicode="t" horiz-adv-x="323" 
d="M23 -1q-25 20 -25 63q0 26 7 55l68 296h-51l11 47h51l40 171l167 56l-53 -227h109l-11 -47h-109l-55 -242q-13 -57 -21 -96t-9 -50q9 0 27 15.5t41 44.5l40 -38q-25 -29 -67 -48.5t-82 -19.5q-53 0 -78 20z" />
    <glyph glyph-name="u" unicode="u" horiz-adv-x="606" 
d="M58 13.5q-40 33.5 -40 102.5q0 34 11 81l60 263h154l-60 -263q-15 -63 -15 -101q0 -64 45 -64q37 0 77 28t72.5 74.5t48.5 101.5l51 224h154l-108 -470h-151l13 58q-42 -33 -90.5 -50.5t-98.5 -17.5q-83 0 -123 33.5z" />
    <glyph glyph-name="v" unicode="v" horiz-adv-x="525" 
d="M45 460h158l77 -340l230 340h79l-318 -470h-119z" />
    <glyph glyph-name="w" unicode="w" horiz-adv-x="783" 
d="M45 460h157l56 -322l190 322h75l41 -323l205 323h78l-297 -470h-123l-33 244l-143 -244h-123z" />
    <glyph glyph-name="x" unicode="x" horiz-adv-x="517" 
d="M190 193l-126 266h167l75 -154l158 154h86l-219 -211l122 -258h-166l-70 146l-151 -146h-86z" />
    <glyph glyph-name="y" unicode="y" horiz-adv-x="618" 
d="M74 -72q7 -40 44.5 -69t84.5 -29q54 0 99.5 43.5t66.5 135.5l9 37q-42 -32 -90 -49t-96 -17q-83 0 -123 33.5t-40 102.5q0 34 11 81l61 263h154l-61 -263q-15 -63 -15 -101q0 -64 45 -64q37 0 77 28t72.5 74.5t48.5 101.5l52 224h154l-104 -450q-18 -78 -68 -130
t-116 -76.5t-135 -24.5q-67 0 -119 22.5t-68 60.5z" />
    <glyph glyph-name="z" unicode="z" horiz-adv-x="585" 
d="M-19 26l418 387h-321l11 47h518l-8 -36l-418 -387h326l-11 -47h-523z" />
    <glyph glyph-name="braceleft" unicode="{" horiz-adv-x="365" 
d="M128 -137.5q-40 12.5 -63.5 35t-23.5 49.5q0 8 1 12l60 257q3 15 3 27q0 16 -4.5 26.5t-11.5 9.5l5 26q11 -2 23.5 16.5t18.5 44.5l60 258q6 29 39.5 54.5t82.5 40t99 12.5l-9 -30q-27 4 -49 -17.5t-31 -59.5l-25 -107l-22 -91l-12 -51q-13 -57 -90 -84q54 -22 54 -64
q0 -13 -2 -20q-20 -89 -33 -141l-25 -107q-3 -15 -3 -28q0 -26 13 -40t35 -11l-3 -28q-47 -2 -87 10.5z" />
    <glyph glyph-name="bar" unicode="|" horiz-adv-x="205" 
d="M179 731h89l-202 -879h-89z" />
    <glyph glyph-name="braceright" unicode="}" horiz-adv-x="365" 
d="M-3 -120q26 -4 49 18.5t32 60.5l25 107l31 141q13 57 92 84q-54 23 -54 65q0 12 2 19q6 25 32 142l25 107q4 22 4 29q0 25 -13 38t-35 10l3 30q47 2 87 -10.5t63.5 -35t23.5 -49.5q0 -8 -1 -12l-60 -258q-3 -15 -3 -27q0 -16 4.5 -25.5t12.5 -8.5l-7 -26q-9 2 -22 -18
t-19 -45l-60 -257q-6 -29 -39.5 -54.5t-82.5 -40t-99 -12.5z" />
    <glyph glyph-name="asciitilde" unicode="~" horiz-adv-x="627" 
d="M73 359q67 52 132 52q35 0 67 -11.5t75 -33.5q43 -21 71 -31.5t57 -10.5q67 0 138 68l-19 -83q-67 -52 -132 -52q-35 0 -67 11.5t-75 33.5t-71 32t-57 10q-67 0 -138 -68z" />
    <glyph glyph-name="exclamdown" unicode="&#xa1;" horiz-adv-x="263" 
d="M168.5 414.5q-16.5 14.5 -16.5 37.5q0 31 27.5 55t60.5 24q25 0 41 -14.5t16 -37.5q0 -32 -26.5 -55.5t-60.5 -23.5q-25 0 -41.5 14.5zM145 357h108l-114 -587h-151z" />
    <glyph glyph-name="cent" unicode="&#xa2;" horiz-adv-x="621" 
d="M235 -14q-82 13 -128 62t-46 122q0 28 7 56q21 92 97 157t180 82l27 115h108l-27 -114q58 -10 99.5 -41t52.5 -72l-112 -54q1 100 -50 121l-88 -380q75 12 149 111l54 -49q-32 -41 -90.5 -73t-124.5 -43l-23 -96h-108zM331 405q-36 -24 -64.5 -72.5t-39.5 -107.5
q-5 -21 -5 -51q0 -65 32 -102z" />
    <glyph glyph-name="sterling" unicode="&#xa3;" horiz-adv-x="650" 
d="M24 25q43 30 79.5 85.5t48.5 108.5q10 43 10 93q0 28 -1 42h-91l12 53h79q2 64 10 99q14 62 57.5 111t107 76.5t135.5 27.5q89 0 142.5 -40.5t53.5 -105.5q0 -37 -21 -81l-101 36q15 39 15 71q0 36 -19 56.5t-54 20.5q-57 0 -102.5 -46.5t-62.5 -121.5q-11 -50 -10 -103
h158l-12 -53h-147q-1 -30 -3.5 -61t-9.5 -57q-16 -70 -96 -144h335l-60 -102h-461z" />
    <glyph glyph-name="currency" unicode="&#xa4;" horiz-adv-x="669" 
d="M111 54q-43 50 -43 118q0 29 7 56q24 104 116 175l-48 138h113l34 -86q54 20 121 20q66 0 112 -20l74 86h113l-112 -139q41 -53 41 -119q0 -26 -6 -55q-24 -99 -115 -174l48 -138h-113l-35 85q-55 -20 -121 -20q-67 0 -113 20l-71 -85h-114zM383 53q37 26 66 71.5
t42 103.5q9 38 9 71q0 60 -27 96t-72 36q-39 0 -76 -26t-65.5 -72.5t-41.5 -104.5q-9 -37 -9 -71q0 -59 26.5 -94.5t71.5 -35.5q39 0 76 26z" />
    <glyph glyph-name="yen" unicode="&#xa5;" horiz-adv-x="795" 
d="M302 155h-137l12 53h137l10 41h-137l12 53h122l-166 408h164l136 -336l293 336h98l-355 -408h146l-12 -53h-147l-10 -41h147l-12 -53h-147l-38 -165h-154z" />
    <glyph glyph-name="brokenbar" unicode="&#xa6;" horiz-adv-x="205" 
d="M179 731h89l-93 -406h-89zM70 258h89l-93 -406h-89z" />
    <glyph glyph-name="section" unicode="&#xa7;" horiz-adv-x="516" 
d="M76.5 2q-49.5 29 -49.5 74q0 15 6 30l103 2q-7 -18 -7 -35q0 -28 21 -43.5t60 -15.5q43 0 72 18t36 48q2 10 2 13q0 26 -23.5 47t-75.5 52q-67 40 -106 75t-39 77q0 38 31.5 71.5t79.5 48.5q-52 42 -55 69q0 17 4 33q7 33 40 60.5t82 43.5t103 16q74 0 121 -28t47 -71
q0 -14 -6 -31l-102 -2q7 17 7 33q0 28 -22 43t-63 15q-43 0 -70 -16.5t-35 -46.5q-1 -4 -1 -12q0 -26 22.5 -46.5t75.5 -52.5q70 -43 108 -77t38 -76q0 -37 -30.5 -69.5t-79.5 -49.5q56 -45 55 -74q0 -14 -4 -32q-8 -34 -39.5 -61.5t-79 -43t-101.5 -15.5q-76 0 -125.5 29z
M374 280q1 4 1 11q0 28 -28 54t-86 64q-19 16 -37 27q-32 -17 -41 -53q-1 -4 -1 -11q0 -27 27 -52.5t87 -66.5q21 -14 37 -26q32 18 41 53z" />
    <glyph glyph-name="dieresis" unicode="&#xa8;" horiz-adv-x="424" 
d="M56.5 736.5q-16.5 14.5 -16.5 37.5q0 32 27.5 57t61.5 25q27 0 44 -15t17 -38q0 -33 -27 -57t-63 -24q-27 0 -43.5 14.5zM250.5 736.5q-16.5 14.5 -16.5 37.5q0 33 27.5 57t62.5 24q26 0 43 -14.5t17 -37.5q0 -32 -28 -56.5t-62 -24.5q-27 0 -43.5 14.5z" />
    <glyph glyph-name="copyright" unicode="&#xa9;" horiz-adv-x="859" 
d="M201 -33.5q-71 38.5 -110 106.5t-39 152q0 44 10 85q24 104 96.5 191.5t173 139t206.5 51.5q90 0 160.5 -39t109.5 -107t39 -152q0 -43 -10 -84q-24 -103 -96 -191t-173 -139.5t-206 -51.5q-90 0 -161 38.5zM544.5 32q82.5 43 142 117t79.5 161q9 38 9 73q0 70 -32 127
t-89 89t-130 32q-86 0 -168.5 -43t-142 -116.5t-79.5 -161.5q-9 -37 -9 -74q0 -70 31.5 -126.5t88.5 -88.5t131 -32q86 0 168.5 43zM291.5 140q-44.5 44 -44.5 117q0 29 7 57q14 63 52 113.5t92 78.5t115 28q62 0 100 -29.5t38 -77.5q0 -9 -4 -29l-90 -3q2 12 2 17
q0 47 -64 47q-52 0 -94.5 -40t-57.5 -103q-5 -20 -5 -45q0 -47 23.5 -74.5t66.5 -27.5q31 0 52.5 15.5t37.5 49.5h96q-11 -37 -42 -69t-74 -50.5t-86 -18.5q-76 0 -120.5 44z" />
    <glyph glyph-name="guillemotleft" unicode="&#xab;" horiz-adv-x="735" 
d="M115 296l-51 41l467 281l-18 -77l-332 -204l238 -204l-18 -77zM360 296l-51 41l466 281l-18 -77l-331 -204l237 -204l-18 -77z" />
    <glyph glyph-name="logicalnot" unicode="&#xac;" horiz-adv-x="627" 
d="M545 332h-462l13 60h533l-58 -255h-71z" />
    <glyph glyph-name="registered" unicode="&#xae;" horiz-adv-x="551" 
d="M150.5 421.5q-41.5 22.5 -64.5 62.5t-23 89q0 23 6 48q14 60 56 110.5t101 80.5t121 30q53 0 94 -22.5t64 -62t23 -88.5q0 -24 -6 -48q-14 -60 -56 -111t-101 -81t-120 -30q-53 0 -94.5 22.5zM344 474q43 23 74 62t42 85q5 23 5 39q0 56 -36.5 93t-93.5 37q-45 0 -88 -23
t-74 -61.5t-42 -84.5q-5 -23 -5 -40q0 -56 36.5 -93t94.5 -37q44 0 87 23zM250 754h57q35 0 54 -6q51 -19 51 -63q0 -9 -1 -14q-7 -31 -30.5 -54.5t-58.5 -33.5l51 -86h-61l-35 60l-14 -60h-73zM343 666q3 12 3 21q0 16 -7.5 23t-23.5 9l-25 -108q41 7 53 55z" />
    <glyph glyph-name="macron" unicode="&#xaf;" horiz-adv-x="456" 
d="M50 815h374l-18 -79h-374z" />
    <glyph glyph-name="degree" unicode="&#xb0;" horiz-adv-x="476" 
d="M108 471.5q-42 40.5 -42 101.5q0 17 5 40q11 49 46 91t83.5 66.5t99.5 24.5q66 0 108 -40.5t42 -101.5q0 -17 -5 -40q-11 -49 -46 -91t-83.5 -66.5t-99.5 -24.5q-66 0 -108 40.5zM301.5 508q35.5 22 57.5 58t22 76q0 42 -26 69t-68 27q-37 0 -72.5 -21.5t-57.5 -57.5
t-22 -76q0 -42 26 -69.5t68 -27.5q37 0 72.5 22z" />
    <glyph glyph-name="plusminus" unicode="&#xb1;" horiz-adv-x="627" 
d="M305 347h-231l13 59h231l51 220h71l-51 -220h231l-13 -59h-231l-56 -242h-71zM10 69h533l-14 -60h-533z" />
    <glyph glyph-name="acute" unicode="&#xb4;" horiz-adv-x="323" 
d="M165 893h133l-207 -165h-66z" />
    <glyph glyph-name="paragraph" unicode="&#xb6;" horiz-adv-x="584" 
d="M232 323q-65 17 -97 56.5t-32 91.5q0 56 36 111.5t101 91.5t146 36h69l-166 -720h-134zM503 710h134l-166 -720h-134z" />
    <glyph glyph-name="periodcentered" unicode="&#xb7;" horiz-adv-x="255" 
d="M91 260.5q-16 14.5 -16 37.5q0 31 27 55t61 24q25 0 41 -14.5t16 -36.5q0 -32 -26.5 -56t-60.5 -24q-26 0 -42 14.5z" />
    <glyph glyph-name="cedilla" unicode="&#xb8;" horiz-adv-x="355" 
d="M174 -158q19 22 19 48q0 18 -11.5 29.5t-33.5 11.5q-21 0 -53 -12l79 109h71l-38 -53q47 -2 74.5 -24t27.5 -57q0 -15 -4 -27q-12 -51 -55 -81t-95 -30q-37 0 -70.5 16.5t-56.5 48.5l31 35q39 -36 69 -36q27 0 46 22z" />
    <glyph glyph-name="guillemotright" unicode="&#xbb;" horiz-adv-x="735" 
d="M18 133l331 204l-237 204l18 77l285 -240l51 -41l-466 -281zM262 133l332 204l-238 204l18 77l286 -240l51 -41l-467 -281z" />
    <glyph glyph-name="onequarter" unicode="&#xbc;" horiz-adv-x="800" 
d="M250 773l142 116l-138 -598h-115zM767 801h98l-827 -974h-98zM569 4h-226l344 404h92l-128 -554h-116zM578 43l48 205l-176 -205h128z" />
    <glyph glyph-name="onehalf" unicode="&#xbd;" horiz-adv-x="914" 
d="M236 773l143 116l-138 -598h-116zM764 801h98l-827 -974h-98zM406 -125l31 25q110 86 197 174t107 176q6 26 6 46q0 34 -15 52.5t-43 18.5q-41 0 -73 -32.5t-50 -92.5l-72 23q15 33 46.5 67t78.5 57t105 23q64 0 101.5 -32.5t37.5 -86.5q0 -20 -4 -37
q-12 -53 -54.5 -105.5t-96.5 -98.5t-142 -112h221l-19 -83h-354z" />
    <glyph glyph-name="threequarters" unicode="&#xbe;" horiz-adv-x="908" 
d="M125 323.5q-43 25.5 -53 67.5l78 47q1 -52 19.5 -76.5t57.5 -24.5q49 0 88 37t52 97q6 27 6 48q0 33 -14.5 51t-42.5 18q-4 0 -22 -2q-30 -2 -37 -2l6 38q10 -2 16 -2q33 0 62 30t39 74q5 22 5 41q0 9 -2 23q-5 20 -14.5 28t-27.5 8q-39 0 -66.5 -31t-38.5 -89l-79 23
q28 63 84 99.5t122 36.5q62 0 99.5 -28.5t37.5 -74.5q0 -13 -3 -27q-17 -69 -95 -110q42 -12 65.5 -41t23.5 -69q0 -17 -4 -32q-12 -53 -49.5 -95t-92.5 -65t-119 -23q-58 0 -101 25.5zM886 802h98l-828 -975h-98zM659 5h-226l42 49l300 355h92l-128 -554h-115zM668 44
l47 204l-175 -204h128z" />
    <glyph glyph-name="questiondown" unicode="&#xbf;" horiz-adv-x="520" 
d="M337 415.5q-16 14.5 -16 37.5q0 32 27.5 55.5t61.5 23.5q25 0 41 -14.5t16 -36.5q0 -32 -27 -56t-61 -24q-26 0 -42 14.5zM58.5 -241.5q-46.5 38.5 -46.5 99.5q0 19 4 35q13 54 52 106.5t113 132.5q49 54 76 86t49 71t29 80h75q-9 -51 -40 -106t-86 -133
q-54 -79 -83.5 -131t-42.5 -108q-7 -33 -7 -51q0 -35 17 -54t49 -19q35 0 67 24t50.5 64.5t18.5 85.5h94q-12 -64 -50.5 -114t-95 -78.5t-120.5 -28.5q-76 0 -122.5 38.5z" />
    <glyph glyph-name="Agrave" unicode="&#xc0;" horiz-adv-x="750" 
d="M391 710h129l127 -720h-161l-40 228h-287l-145 -228h-78zM436 275l-54 298l-188 -298h242zM386 894h133l64 -165h-66z" />
    <glyph glyph-name="Aacute" unicode="&#xc1;" horiz-adv-x="750" 
d="M391 710h129l127 -720h-161l-40 228h-287l-145 -228h-78zM436 275l-54 298l-188 -298h242zM479 899h133l-207 -165h-66z" />
    <glyph glyph-name="Acircumflex" unicode="&#xc2;" horiz-adv-x="750" 
d="M391 710h129l127 -720h-161l-40 228h-287l-145 -228h-78zM436 275l-54 298l-188 -298h242zM408 888h175l64 -165h-66l-95 122l-152 -122h-66z" />
    <glyph glyph-name="Atilde" unicode="&#xc3;" horiz-adv-x="750" 
d="M391 710h129l127 -720h-161l-40 228h-287l-145 -228h-78zM436 275l-54 298l-188 -298h242zM514.5 755q-23.5 9 -61.5 29q-28 16 -43.5 23t-29.5 7q-26 0 -40 -13.5t-18 -42.5h-50q15 73 45 107t81 34q24 0 46 -7.5t40.5 -16.5t23.5 -11q28 -14 44.5 -20.5t31.5 -6.5
q23 0 39.5 14t17.5 36h50q-15 -73 -45 -107t-81 -34q-27 0 -50.5 9z" />
    <glyph glyph-name="Adieresis" unicode="&#xc4;" horiz-adv-x="750" 
d="M391 710h129l127 -720h-161l-40 228h-287l-145 -228h-78zM436 275l-54 298l-188 -298h242zM319.5 760.5q-16.5 14.5 -16.5 37.5q0 32 27.5 57t61.5 25q27 0 44 -15t17 -38q0 -33 -27 -57t-63 -24q-27 0 -43.5 14.5zM513.5 760.5q-16.5 14.5 -16.5 37.5q0 33 27.5 57
t62.5 24q26 0 43 -14.5t17 -37.5q0 -32 -28 -56.5t-62 -24.5q-27 0 -43.5 14.5z" />
    <glyph glyph-name="Aring" unicode="&#xc5;" horiz-adv-x="750" 
d="M647 -10h-161l-40 228h-287l-145 -228h-78l452 716q-35 27 -35 74q0 38 23 72t59 54.5t75 20.5q45 0 73 -27t28 -68t-25 -76t-65 -54zM430.5 751q13.5 -15 35.5 -15q30 0 55.5 27t25.5 60q0 22 -13.5 37.5t-32.5 15.5q-31 0 -57.5 -27t-26.5 -60q0 -23 13.5 -38zM436 275
l-54 298l-188 -298h242z" />
    <glyph glyph-name="AE" unicode="&#xc6;" horiz-adv-x="1000" 
d="M437 710h594l-13 -57h-370l-61 -263h277l-13 -57h-277l-66 -286h370l-13 -57h-528l52 227h-216l-158 -227h-79zM402 274l90 389h-8l-271 -389h189z" />
    <glyph glyph-name="Ccedilla" unicode="&#xc7;" horiz-adv-x="811" 
d="M622 156l93 -35q-33 -52 -121 -92.5t-183 -47.5l-21 -29q47 -2 74.5 -24t27.5 -57q0 -15 -4 -27q-12 -51 -55 -81t-95 -30q-37 0 -70.5 16.5t-56.5 48.5l31 35q39 -36 69 -36q27 0 46 22t19 48q0 18 -11 29.5t-34 11.5q-20 0 -53 -12l62 86q-91 7 -158.5 44t-103.5 98
t-36 140q0 42 10 85q25 106 97.5 190t178 131.5t224.5 47.5q66 0 125.5 -19.5t98.5 -52t46 -69.5l-109 -35q-11 68 -50 101.5t-110 33.5t-141 -43.5t-122 -118.5t-73 -164q-11 -52 -11 -94q0 -68 24 -122t68 -84t102 -30q141 0 222 135z" />
    <glyph glyph-name="Egrave" unicode="&#xc8;" horiz-adv-x="665" 
d="M135 710h561l-13 -57h-403l-61 -263h310l-13 -57h-310l-66 -286h403l-13 -57h-561zM312 926h133l64 -165h-66z" />
    <glyph glyph-name="Eacute" unicode="&#xc9;" horiz-adv-x="665" 
d="M135 710h561l-13 -57h-403l-61 -263h310l-13 -57h-310l-66 -286h403l-13 -57h-561zM526 930h133l-207 -165h-66z" />
    <glyph glyph-name="Ecircumflex" unicode="&#xca;" horiz-adv-x="665" 
d="M135 710h561l-13 -57h-403l-61 -263h310l-13 -57h-310l-66 -286h403l-13 -57h-561zM378 929h175l64 -165h-66l-95 122l-152 -122h-66z" />
    <glyph glyph-name="Edieresis" unicode="&#xcb;" horiz-adv-x="665" 
d="M135 710h561l-13 -57h-403l-61 -263h310l-13 -57h-310l-66 -286h403l-13 -57h-561zM301.5 766.5q-16.5 14.5 -16.5 37.5q0 32 27.5 57t61.5 25q27 0 44 -15t17 -38q0 -33 -27 -57t-63 -24q-27 0 -43.5 14.5zM495.5 766.5q-16.5 14.5 -16.5 37.5q0 33 27.5 57t62.5 24
q26 0 43 -14.5t17 -37.5q0 -32 -28 -56.5t-62 -24.5q-27 0 -43.5 14.5z" />
    <glyph glyph-name="Igrave" unicode="&#xcc;" horiz-adv-x="282" 
d="M145 710h158l-166 -720h-158zM105 920h133l64 -165h-66z" />
    <glyph glyph-name="Iacute" unicode="&#xcd;" horiz-adv-x="282" 
d="M145 710h158l-166 -720h-158zM301 921h133l-207 -165h-66z" />
    <glyph glyph-name="Icircumflex" unicode="&#xce;" horiz-adv-x="282" 
d="M145 710h158l-166 -720h-158zM182 912h175l64 -165h-66l-95 122l-152 -122h-66z" />
    <glyph glyph-name="Idieresis" unicode="&#xcf;" horiz-adv-x="282" 
d="M145 710h158l-166 -720h-158zM95.5 766.5q-16.5 14.5 -16.5 37.5q0 32 27.5 57t61.5 25q27 0 44 -15t17 -38q0 -33 -27 -57t-63 -24q-27 0 -43.5 14.5zM289.5 766.5q-16.5 14.5 -16.5 37.5q0 33 27.5 57t62.5 24q26 0 43 -14.5t17 -37.5q0 -32 -28 -56.5t-62 -24.5
q-27 0 -43.5 14.5z" />
    <glyph glyph-name="Eth" unicode="&#xd0;" horiz-adv-x="798" 
d="M47 330h-80l13 53h80l75 327h276q170 0 264.5 -68.5t94.5 -191.5q0 -34 -10 -81q-27 -119 -97 -204t-176 -130t-241 -45h-277zM256 34q131 0 217.5 84t123.5 250q14 62 14 107q0 95 -53 143.5t-157 48.5h-118l-65 -284h127l-13 -53h-127l-68 -296h119z" />
    <glyph glyph-name="Ntilde" unicode="&#xd1;" horiz-adv-x="743" 
d="M135 710h146l296 -519l120 519h77l-166 -720h-90l-337 586l-135 -586h-77zM511.5 755q-23.5 9 -61.5 29q-28 16 -43.5 23t-29.5 7q-26 0 -40 -13.5t-18 -42.5h-50q15 73 45 107t81 34q24 0 46 -7.5t40.5 -16.5t23.5 -11q28 -14 44.5 -20.5t31.5 -6.5q23 0 39.5 14
t17.5 36h50q-15 -73 -45 -107t-81 -34q-27 0 -50.5 9z" />
    <glyph glyph-name="Ograve" unicode="&#xd2;" horiz-adv-x="952" 
d="M207 16.5q-79 36.5 -122 101.5t-43 150q0 34 10 81q24 105 98.5 190t182.5 133t228 48q104 0 183.5 -36.5t122.5 -102.5t43 -151q0 -34 -10 -81q-24 -105 -98.5 -189t-182.5 -132t-229 -48q-104 0 -183 36.5zM546 68q69 41 119 114.5t72 166.5q12 51 12 97
q0 102 -53.5 164.5t-144.5 62.5q-74 0 -143.5 -42t-120.5 -116t-72 -166q-12 -52 -12 -99q0 -102 53 -162.5t145 -60.5q76 0 145 41zM409 917h133l64 -165h-66z" />
    <glyph glyph-name="Oacute" unicode="&#xd3;" horiz-adv-x="952" 
d="M207 16.5q-79 36.5 -122 101.5t-43 150q0 34 10 81q24 105 98.5 190t182.5 133t228 48q104 0 183.5 -36.5t122.5 -102.5t43 -151q0 -34 -10 -81q-24 -105 -98.5 -189t-182.5 -132t-229 -48q-104 0 -183 36.5zM546 68q69 41 119 114.5t72 166.5q12 51 12 97
q0 102 -53.5 164.5t-144.5 62.5q-74 0 -143.5 -42t-120.5 -116t-72 -166q-12 -52 -12 -99q0 -102 53 -162.5t145 -60.5q76 0 145 41zM668 914h133l-207 -165h-66z" />
    <glyph glyph-name="Ocircumflex" unicode="&#xd4;" horiz-adv-x="952" 
d="M207 16.5q-79 36.5 -122 101.5t-43 150q0 34 10 81q24 105 98.5 190t182.5 133t228 48q104 0 183.5 -36.5t122.5 -102.5t43 -151q0 -34 -10 -81q-24 -105 -98.5 -189t-182.5 -132t-229 -48q-104 0 -183 36.5zM546 68q69 41 119 114.5t72 166.5q12 51 12 97
q0 102 -53.5 164.5t-144.5 62.5q-74 0 -143.5 -42t-120.5 -116t-72 -166q-12 -52 -12 -99q0 -102 53 -162.5t145 -60.5q76 0 145 41zM538 912h175l64 -165h-66l-95 122l-152 -122h-66z" />
    <glyph glyph-name="Otilde" unicode="&#xd5;" horiz-adv-x="952" 
d="M207 16.5q-79 36.5 -122 101.5t-43 150q0 34 10 81q24 105 98.5 190t182.5 133t228 48q104 0 183.5 -36.5t122.5 -102.5t43 -151q0 -34 -10 -81q-24 -105 -98.5 -189t-182.5 -132t-229 -48q-104 0 -183 36.5zM546 68q69 41 119 114.5t72 166.5q12 51 12 97
q0 102 -53.5 164.5t-144.5 62.5q-74 0 -143.5 -42t-120.5 -116t-72 -166q-12 -52 -12 -99q0 -102 53 -162.5t145 -60.5q76 0 145 41zM603.5 756q-23.5 9 -61.5 29q-28 16 -43.5 23t-29.5 7q-26 0 -40 -13.5t-18 -42.5h-50q15 73 45 107t81 34q24 0 46 -7.5t40.5 -16.5
t23.5 -11q28 -14 44.5 -20.5t31.5 -6.5q23 0 39.5 14t17.5 36h50q-15 -73 -45 -107t-81 -34q-27 0 -50.5 9z" />
    <glyph glyph-name="Odieresis" unicode="&#xd6;" horiz-adv-x="952" 
d="M207 16.5q-79 36.5 -122 101.5t-43 150q0 34 10 81q24 105 98.5 190t182.5 133t228 48q104 0 183.5 -36.5t122.5 -102.5t43 -151q0 -34 -10 -81q-24 -105 -98.5 -189t-182.5 -132t-229 -48q-104 0 -183 36.5zM546 68q69 41 119 114.5t72 166.5q12 51 12 97
q0 102 -53.5 164.5t-144.5 62.5q-74 0 -143.5 -42t-120.5 -116t-72 -166q-12 -52 -12 -99q0 -102 53 -162.5t145 -60.5q76 0 145 41zM428.5 768.5q-16.5 14.5 -16.5 37.5q0 32 27.5 57t61.5 25q27 0 44 -15t17 -38q0 -33 -27 -57t-63 -24q-27 0 -43.5 14.5zM622.5 768.5
q-16.5 14.5 -16.5 37.5q0 33 27.5 57t62.5 24q26 0 43 -14.5t17 -37.5q0 -32 -28 -56.5t-62 -24.5q-27 0 -43.5 14.5z" />
    <glyph glyph-name="multiply" unicode="&#xd7;" horiz-adv-x="525" 
d="M32 162l207 165l-124 162l58 45l124 -161l192 153l36 -45l-193 -153l127 -164l-55 -48l-129 166l-208 -166z" />
    <glyph glyph-name="Oslash" unicode="&#xd8;" horiz-adv-x="952" 
d="M878.5 560.5q31.5 -58.5 31.5 -130.5q0 -41 -10 -81q-24 -105 -98.5 -189t-182.5 -132t-229 -48q-104 0 -184 37l-33 -37h-86l63 70q-52 38 -79.5 94t-27.5 124q0 39 9 81q24 105 98.5 190t182.5 133t228 48q95 0 169 -31l28 31h87l-56 -62q58 -39 89.5 -97.5zM203 249
q0 -65 23 -116l450 497q-51 43 -125 43t-143.5 -42t-120.5 -116t-72 -166q-12 -54 -12 -100zM749 446q0 78 -32 133l-454 -499q53 -53 138 -53q76 0 145 41t119 114.5t72 166.5q12 51 12 97z" />
    <glyph glyph-name="Ugrave" unicode="&#xd9;" horiz-adv-x="714" 
d="M90.5 31.5q-66.5 51.5 -66.5 151.5q0 43 12 92l100 435h158l-103 -446q-12 -51 -12 -91q0 -137 136 -137q99 0 160.5 58t89.5 178l101 438h80l-101 -437q-33 -145 -124 -219t-236 -74q-128 0 -194.5 51.5zM357 885h133l64 -165h-66z" />
    <glyph glyph-name="Uacute" unicode="&#xda;" horiz-adv-x="714" 
d="M90.5 31.5q-66.5 51.5 -66.5 151.5q0 43 12 92l100 435h158l-103 -446q-12 -51 -12 -91q0 -137 136 -137q99 0 160.5 58t89.5 178l101 438h80l-101 -437q-33 -145 -124 -219t-236 -74q-128 0 -194.5 51.5zM561 892h133l-207 -165h-66z" />
    <glyph glyph-name="Ucircumflex" unicode="&#xdb;" horiz-adv-x="714" 
d="M90.5 31.5q-66.5 51.5 -66.5 151.5q0 43 12 92l100 435h158l-103 -446q-12 -51 -12 -91q0 -137 136 -137q99 0 160.5 58t89.5 178l101 438h80l-101 -437q-33 -145 -124 -219t-236 -74q-128 0 -194.5 51.5zM438 901h175l64 -165h-66l-95 122l-152 -122h-66z" />
    <glyph glyph-name="Udieresis" unicode="&#xdc;" horiz-adv-x="714" 
d="M90.5 31.5q-66.5 51.5 -66.5 151.5q0 43 12 92l100 435h158l-103 -446q-12 -51 -12 -91q0 -137 136 -137q99 0 160.5 58t89.5 178l101 438h80l-101 -437q-33 -145 -124 -219t-236 -74q-128 0 -194.5 51.5zM341.5 745.5q-16.5 14.5 -16.5 37.5q0 32 27.5 57t61.5 25
q27 0 44 -15t17 -38q0 -33 -27 -57t-63 -24q-27 0 -43.5 14.5zM535.5 745.5q-16.5 14.5 -16.5 37.5q0 33 27.5 57t62.5 24q26 0 43 -14.5t17 -37.5q0 -32 -28 -56.5t-62 -24.5q-27 0 -43.5 14.5z" />
    <glyph glyph-name="Yacute" unicode="&#xdd;" horiz-adv-x="733" 
d="M277 277l-175 433h168l139 -346l301 346h91l-362 -415l-70 -305h-158zM601 909h133l-207 -165h-66z" />
    <glyph glyph-name="Thorn" unicode="&#xde;" horiz-adv-x="729" 
d="M135 710h158l-32 -140h173q128 0 199 -44.5t71 -122.5q0 -18 -5 -43q-14 -64 -63.5 -111.5t-126 -73t-172.5 -25.5h-173l-37 -160h-158zM347 194q80 0 124.5 39t64.5 127q9 39 9 67q0 52 -29 75.5t-92 23.5h-173l-77 -332h173z" />
    <glyph glyph-name="germandbls" unicode="&#xdf;" horiz-adv-x="607" 
d="M186.5 -7q-35.5 14 -53.5 39l-10 -42h-154l101 437q24 106 104.5 165t200.5 59q58 0 100 -19t64 -50.5t22 -68.5q0 -46 -32 -89t-95 -73q59 -15 91.5 -50.5t32.5 -85.5q0 -16 -5 -38q-13 -58 -54 -103t-101 -70t-129 -25q-47 0 -82.5 14zM353 64.5q42 44.5 57 109.5
q8 34 8 57q0 89 -91 92q-54 -3 -71 -3l9 39q63 0 96.5 26.5t51.5 92.5q9 33 9 60q0 36 -16 56t-47 20q-41 0 -76 -40.5t-50 -107.5l-84 -362h39q-4 -41 15.5 -62.5t60.5 -21.5q47 0 89 44.5z" />
    <glyph glyph-name="agrave" unicode="&#xe0;" horiz-adv-x="610" 
d="M71.5 30.5q-54.5 50.5 -54.5 133.5q0 32 7 61q17 73 62 129t110 86.5t141 30.5q74 0 126 -39l6 28h151l-108 -470h-154l6 29q-31 -18 -69 -28.5t-75 -10.5q-94 0 -148.5 50.5zM315.5 55q31.5 24 56.5 65.5t37 92.5l5 21q7 31 7 64q0 56 -22.5 91.5t-60.5 35.5
q-31 0 -61.5 -25.5t-55 -70t-37.5 -99.5q-9 -40 -9 -75q0 -56 20.5 -90t56.5 -34q32 0 63.5 24zM214 656h133l64 -165h-66z" />
    <glyph glyph-name="aacute" unicode="&#xe1;" horiz-adv-x="610" 
d="M71.5 30.5q-54.5 50.5 -54.5 133.5q0 32 7 61q17 73 62 129t110 86.5t141 30.5q74 0 126 -39l6 28h151l-108 -470h-154l6 29q-31 -18 -69 -28.5t-75 -10.5q-94 0 -148.5 50.5zM315.5 55q31.5 24 56.5 65.5t37 92.5l5 21q7 31 7 64q0 56 -22.5 91.5t-60.5 35.5
q-31 0 -61.5 -25.5t-55 -70t-37.5 -99.5q-9 -40 -9 -75q0 -56 20.5 -90t56.5 -34q32 0 63.5 24zM446 654h133l-207 -165h-66z" />
    <glyph glyph-name="acircumflex" unicode="&#xe2;" horiz-adv-x="610" 
d="M71.5 30.5q-54.5 50.5 -54.5 133.5q0 32 7 61q17 73 62 129t110 86.5t141 30.5q74 0 126 -39l6 28h151l-108 -470h-154l6 29q-31 -18 -69 -28.5t-75 -10.5q-94 0 -148.5 50.5zM315.5 55q31.5 24 56.5 65.5t37 92.5l5 21q7 31 7 64q0 56 -22.5 91.5t-60.5 35.5
q-31 0 -61.5 -25.5t-55 -70t-37.5 -99.5q-9 -40 -9 -75q0 -56 20.5 -90t56.5 -34q32 0 63.5 24zM324 665h175l64 -165h-66l-95 122l-152 -122h-66z" />
    <glyph glyph-name="atilde" unicode="&#xe3;" horiz-adv-x="610" 
d="M71.5 30.5q-54.5 50.5 -54.5 133.5q0 32 7 61q17 73 62 129t110 86.5t141 30.5q74 0 126 -39l6 28h151l-108 -470h-154l6 29q-31 -18 -69 -28.5t-75 -10.5q-94 0 -148.5 50.5zM315.5 55q31.5 24 56.5 65.5t37 92.5l5 21q7 31 7 64q0 56 -22.5 91.5t-60.5 35.5
q-31 0 -61.5 -25.5t-55 -70t-37.5 -99.5q-9 -40 -9 -75q0 -56 20.5 -90t56.5 -34q32 0 63.5 24zM404.5 501q-23.5 9 -61.5 29q-28 16 -43.5 23t-29.5 7q-26 0 -40 -13.5t-18 -42.5h-50q15 73 45 107t81 34q24 0 46 -7.5t40.5 -16.5t23.5 -11q28 -14 44.5 -20.5t31.5 -6.5
q23 0 39.5 14t17.5 36h50q-15 -73 -45 -107t-81 -34q-27 0 -50.5 9z" />
    <glyph glyph-name="adieresis" unicode="&#xe4;" horiz-adv-x="610" 
d="M71.5 30.5q-54.5 50.5 -54.5 133.5q0 32 7 61q17 73 62 129t110 86.5t141 30.5q74 0 126 -39l6 28h151l-108 -470h-154l6 29q-31 -18 -69 -28.5t-75 -10.5q-94 0 -148.5 50.5zM315.5 55q31.5 24 56.5 65.5t37 92.5l5 21q7 31 7 64q0 56 -22.5 91.5t-60.5 35.5
q-31 0 -61.5 -25.5t-55 -70t-37.5 -99.5q-9 -40 -9 -75q0 -56 20.5 -90t56.5 -34q32 0 63.5 24zM217.5 511.5q-16.5 14.5 -16.5 37.5q0 32 27.5 57t61.5 25q27 0 44 -15t17 -38q0 -33 -27 -57t-63 -24q-27 0 -43.5 14.5zM411.5 511.5q-16.5 14.5 -16.5 37.5q0 33 27.5 57
t62.5 24q26 0 43 -14.5t17 -37.5q0 -32 -28 -56.5t-62 -24.5q-27 0 -43.5 14.5z" />
    <glyph glyph-name="aring" unicode="&#xe5;" horiz-adv-x="610" 
d="M71.5 30.5q-54.5 50.5 -54.5 133.5q0 32 7 61q17 73 62 129t110 86.5t141 30.5q74 0 126 -39l6 28h151l-108 -470h-154l6 29q-31 -18 -69 -28.5t-75 -10.5q-94 0 -148.5 50.5zM315.5 55q31.5 24 56.5 65.5t37 92.5l5 21q7 31 7 64q0 56 -22.5 91.5t-60.5 35.5
q-31 0 -61.5 -25.5t-55 -70t-37.5 -99.5q-9 -40 -9 -75q0 -56 20.5 -90t56.5 -34q32 0 63.5 24zM278 511q-28 27 -28 68q0 38 23 72t59 54.5t75 20.5q45 0 73 -27t28 -68q0 -38 -23 -72t-59 -54.5t-75 -20.5q-45 0 -73 27zM418.5 562q25.5 27 25.5 60q0 22 -13.5 37.5
t-32.5 15.5q-31 0 -57.5 -27t-26.5 -60q0 -23 13.5 -38t35.5 -15q30 0 55.5 27z" />
    <glyph glyph-name="ae" unicode="&#xe6;" horiz-adv-x="908" 
d="M464 -0.5q-48 17.5 -76 45.5q-46 -33 -101.5 -50t-110.5 -17q-80 0 -134.5 32.5t-54.5 87.5q0 12 3 25q17 75 104 116.5t225 41.5q26 0 40 -1q9 44 9 74q0 39 -15 57.5t-46 18.5q-42 0 -69.5 -23t-47.5 -75l-110 16q26 56 93.5 90t154.5 34q50 0 93.5 -15.5t65.5 -40.5
q41 25 93.5 39.5t102.5 14.5q98 0 153.5 -49t55.5 -133q0 -35 -10 -72h-379q-5 -28 -5 -47q0 -59 31 -92.5t80 -33.5q43 0 88.5 27.5t84.5 81.5l55 -50q-40 -51 -117 -85.5t-154 -34.5q-54 0 -102 17.5zM746 263q4 23 4 49q0 53 -21 83.5t-58 30.5q-43 0 -86.5 -46
t-68.5 -117h230zM339 168q0 28 7 57l3 14l-29 1q-80 0 -120.5 -27.5t-54.5 -91.5q-3 -15 -3 -27q0 -31 19.5 -48t51.5 -17t69 16t72 48q-15 39 -15 75z" />
    <glyph glyph-name="ccedilla" unicode="&#xe7;" horiz-adv-x="565" 
d="M354 60.5q36 28.5 74 95.5l84 -46q-42 -54 -105.5 -87.5t-134.5 -39.5l-6 -8q47 -2 74.5 -24t27.5 -57q0 -15 -4 -27q-12 -51 -55 -81t-95 -30q-37 0 -70.5 16.5t-56.5 48.5l31 35q39 -36 69 -36q27 0 46 22t19 48q0 18 -11 29.5t-34 11.5q-20 0 -53 -12l48 66
q-86 11 -135.5 60.5t-49.5 125.5q0 22 7 55q16 70 65 125.5t120 87t151 31.5q75 0 131 -33t70 -84l-112 -54q1 67 -20.5 97t-70.5 30q-55 0 -103 -54t-68 -138q-10 -43 -10 -81q0 -58 24.5 -89.5t70.5 -31.5t82 28.5z" />
    <glyph glyph-name="egrave" unicode="&#xe8;" horiz-adv-x="586" 
d="M124.5 5.5q-51.5 23.5 -79.5 66.5t-28 99q0 22 7 55q16 70 65 125.5t120 87t151 31.5q98 0 154 -49.5t56 -133.5q0 -29 -10 -71h-379q-5 -28 -5 -47q0 -59 31 -92.5t80 -33.5q43 0 88.5 27.5t84.5 81.5l54 -50q-39 -51 -116 -85.5t-154 -34.5q-68 0 -119.5 23.5zM424 263
q4 23 4 48q0 54 -21 84.5t-58 30.5q-43 0 -87 -46t-68 -117h230zM213 653h133l64 -165h-66z" />
    <glyph glyph-name="eacute" unicode="&#xe9;" horiz-adv-x="586" 
d="M124.5 5.5q-51.5 23.5 -79.5 66.5t-28 99q0 22 7 55q16 70 65 125.5t120 87t151 31.5q98 0 154 -49.5t56 -133.5q0 -29 -10 -71h-379q-5 -28 -5 -47q0 -59 31 -92.5t80 -33.5q43 0 88.5 27.5t84.5 81.5l54 -50q-39 -51 -116 -85.5t-154 -34.5q-68 0 -119.5 23.5zM424 263
q4 23 4 48q0 54 -21 84.5t-58 30.5q-43 0 -87 -46t-68 -117h230zM458 656h133l-207 -165h-66z" />
    <glyph glyph-name="ecircumflex" unicode="&#xea;" horiz-adv-x="586" 
d="M124.5 5.5q-51.5 23.5 -79.5 66.5t-28 99q0 22 7 55q16 70 65 125.5t120 87t151 31.5q98 0 154 -49.5t56 -133.5q0 -29 -10 -71h-379q-5 -28 -5 -47q0 -59 31 -92.5t80 -33.5q43 0 88.5 27.5t84.5 81.5l54 -50q-39 -51 -116 -85.5t-154 -34.5q-68 0 -119.5 23.5zM424 263
q4 23 4 48q0 54 -21 84.5t-58 30.5q-43 0 -87 -46t-68 -117h230zM301 654h175l64 -165h-66l-95 122l-152 -122h-66z" />
    <glyph glyph-name="edieresis" unicode="&#xeb;" horiz-adv-x="586" 
d="M124.5 5.5q-51.5 23.5 -79.5 66.5t-28 99q0 22 7 55q16 70 65 125.5t120 87t151 31.5q98 0 154 -49.5t56 -133.5q0 -29 -10 -71h-379q-5 -28 -5 -47q0 -59 31 -92.5t80 -33.5q43 0 88.5 27.5t84.5 81.5l54 -50q-39 -51 -116 -85.5t-154 -34.5q-68 0 -119.5 23.5zM424 263
q4 23 4 48q0 54 -21 84.5t-58 30.5q-43 0 -87 -46t-68 -117h230zM212.5 507.5q-16.5 14.5 -16.5 37.5q0 32 27.5 57t61.5 25q27 0 44 -15t17 -38q0 -33 -27 -57t-63 -24q-27 0 -43.5 14.5zM406.5 507.5q-16.5 14.5 -16.5 37.5q0 33 27.5 57t62.5 24q26 0 43 -14.5t17 -37.5
q0 -32 -28 -56.5t-62 -24.5q-27 0 -43.5 14.5z" />
    <glyph glyph-name="igrave" unicode="&#xec;" horiz-adv-x="242" 
d="M98 460h154l-108 -470h-154zM43 653h133l64 -165h-66z" />
    <glyph glyph-name="iacute" unicode="&#xed;" horiz-adv-x="242" 
d="M98 460h154l-108 -470h-154zM247 652h133l-207 -165h-66z" />
    <glyph glyph-name="icircumflex" unicode="&#xee;" horiz-adv-x="242" 
d="M98 460h154l-108 -470h-154zM122 654h175l64 -165h-66l-95 122l-152 -122h-66z" />
    <glyph glyph-name="idieresis" unicode="&#xef;" horiz-adv-x="242" 
d="M98 460h154l-108 -470h-154zM36.5 506.5q-16.5 14.5 -16.5 37.5q0 32 27.5 57t61.5 25q27 0 44 -15t17 -38q0 -33 -27 -57t-63 -24q-27 0 -43.5 14.5zM230.5 506.5q-16.5 14.5 -16.5 37.5q0 33 27.5 57t62.5 24q26 0 43 -14.5t17 -37.5q0 -32 -28 -56.5t-62 -24.5
q-27 0 -43.5 14.5z" />
    <glyph glyph-name="eth" unicode="&#xf0;" horiz-adv-x="610" 
d="M678 534h-69l-125 -544h-154l7 29q-32 -18 -69.5 -28.5t-74.5 -10.5q-94 0 -149 50.5t-55 133.5q0 32 7 61q17 73 62 129t110.5 86.5t140.5 30.5q35 0 67.5 -9.5t56.5 -26.5l23 100h-82l23 48h70l29 127h154l-29 -127h80zM394 299q0 56 -23 91t-61 35q-31 0 -61.5 -25.5
t-55 -70t-37.5 -99.5q-9 -39 -9 -74q0 -56 21 -90.5t57 -34.5q32 0 63.5 24t56.5 65.5t37 92.5l4 21q8 37 8 65z" />
    <glyph glyph-name="ntilde" unicode="&#xf1;" horiz-adv-x="604" 
d="M97 460h151l-13 -58q42 33 90.5 50.5t98.5 17.5q83 0 123 -33.5t40 -102.5q0 -34 -11 -81l-60 -263h-154l60 263q15 63 15 101q0 64 -45 64q-37 0 -77 -28t-72.5 -74.5t-48.5 -101.5l-51 -224h-154zM407.5 505q-23.5 9 -61.5 29q-28 16 -43.5 23t-29.5 7q-26 0 -40 -13.5
t-18 -42.5h-50q15 73 45 107t81 34q24 0 46 -7.5t40.5 -16.5t23.5 -11q28 -14 44.5 -20.5t31.5 -6.5q23 0 39.5 14t17.5 36h50q-15 -73 -45 -107t-81 -34q-27 0 -50.5 9z" />
    <glyph glyph-name="ograve" unicode="&#xf2;" horiz-adv-x="620" 
d="M128.5 5.5q-53.5 23.5 -82.5 66t-29 99.5q0 22 7 55q16 71 65.5 126.5t121.5 86.5t155 31q72 0 125.5 -23.5t82.5 -66t29 -99.5q0 -22 -7 -55q-16 -71 -65.5 -126.5t-121.5 -86.5t-155 -31q-72 0 -125.5 23.5zM367.5 79q46.5 53 69.5 147q11 49 11 83q0 56 -24 86.5
t-69 30.5q-58 0 -104 -54t-68 -147q-11 -47 -11 -82q0 -56 24 -86.5t67 -30.5q58 0 104.5 53zM232 655h133l64 -165h-66z" />
    <glyph glyph-name="oacute" unicode="&#xf3;" horiz-adv-x="620" 
d="M128.5 5.5q-53.5 23.5 -82.5 66t-29 99.5q0 22 7 55q16 71 65.5 126.5t121.5 86.5t155 31q72 0 125.5 -23.5t82.5 -66t29 -99.5q0 -22 -7 -55q-16 -71 -65.5 -126.5t-121.5 -86.5t-155 -31q-72 0 -125.5 23.5zM367.5 79q46.5 53 69.5 147q11 49 11 83q0 56 -24 86.5
t-69 30.5q-58 0 -104 -54t-68 -147q-11 -47 -11 -82q0 -56 24 -86.5t67 -30.5q58 0 104.5 53zM478 654h133l-207 -165h-66z" />
    <glyph glyph-name="ocircumflex" unicode="&#xf4;" horiz-adv-x="620" 
d="M128.5 5.5q-53.5 23.5 -82.5 66t-29 99.5q0 22 7 55q16 71 65.5 126.5t121.5 86.5t155 31q72 0 125.5 -23.5t82.5 -66t29 -99.5q0 -22 -7 -55q-16 -71 -65.5 -126.5t-121.5 -86.5t-155 -31q-72 0 -125.5 23.5zM367.5 79q46.5 53 69.5 147q11 49 11 83q0 56 -24 86.5
t-69 30.5q-58 0 -104 -54t-68 -147q-11 -47 -11 -82q0 -56 24 -86.5t67 -30.5q58 0 104.5 53zM338 654h175l64 -165h-66l-95 122l-152 -122h-66z" />
    <glyph glyph-name="otilde" unicode="&#xf5;" horiz-adv-x="620" 
d="M128.5 5.5q-53.5 23.5 -82.5 66t-29 99.5q0 22 7 55q16 71 65.5 126.5t121.5 86.5t155 31q72 0 125.5 -23.5t82.5 -66t29 -99.5q0 -22 -7 -55q-16 -71 -65.5 -126.5t-121.5 -86.5t-155 -31q-72 0 -125.5 23.5zM367.5 79q46.5 53 69.5 147q11 49 11 83q0 56 -24 86.5
t-69 30.5q-58 0 -104 -54t-68 -147q-11 -47 -11 -82q0 -56 24 -86.5t67 -30.5q58 0 104.5 53zM436.5 499q-23.5 9 -61.5 29q-28 16 -43.5 23t-29.5 7q-26 0 -40 -13.5t-18 -42.5h-50q15 73 45 107t81 34q24 0 46 -7.5t40.5 -16.5t23.5 -11q28 -14 44.5 -20.5t31.5 -6.5
q23 0 39.5 14t17.5 36h50q-15 -73 -45 -107t-81 -34q-27 0 -50.5 9z" />
    <glyph glyph-name="odieresis" unicode="&#xf6;" horiz-adv-x="620" 
d="M128.5 5.5q-53.5 23.5 -82.5 66t-29 99.5q0 22 7 55q16 71 65.5 126.5t121.5 86.5t155 31q72 0 125.5 -23.5t82.5 -66t29 -99.5q0 -22 -7 -55q-16 -71 -65.5 -126.5t-121.5 -86.5t-155 -31q-72 0 -125.5 23.5zM367.5 79q46.5 53 69.5 147q11 49 11 83q0 56 -24 86.5
t-69 30.5q-58 0 -104 -54t-68 -147q-11 -47 -11 -82q0 -56 24 -86.5t67 -30.5q58 0 104.5 53zM244.5 505.5q-16.5 14.5 -16.5 37.5q0 32 27.5 57t61.5 25q27 0 44 -15t17 -38q0 -33 -27 -57t-63 -24q-27 0 -43.5 14.5zM438.5 505.5q-16.5 14.5 -16.5 37.5q0 33 27.5 57
t62.5 24q26 0 43 -14.5t17 -37.5q0 -32 -28 -56.5t-62 -24.5q-27 0 -43.5 14.5z" />
    <glyph glyph-name="divide" unicode="&#xf7;" horiz-adv-x="627" 
d="M307.5 438.5q-16.5 14.5 -16.5 37.5q0 32 27 55.5t62 23.5q25 0 41 -14t16 -37q0 -32 -27 -56t-60 -24q-26 0 -42.5 14.5zM76 360h533l-14 -60h-533zM229 102.5q-16 14.5 -16 37.5q0 4 2 14q7 27 32 46t55 19q25 0 41 -14.5t16 -36.5q0 -4 -2 -14q-6 -28 -30.5 -47
t-54.5 -19q-27 0 -43 14.5z" />
    <glyph glyph-name="oslash" unicode="&#xf8;" horiz-adv-x="620" 
d="M585 360q17 -36 17 -80q0 -25 -6 -54q-16 -71 -65.5 -126.5t-121.5 -86.5t-155 -31q-66 0 -113 19l-27 -29h-87l56 60q-32 25 -49 60.5t-17 78.5q0 22 7 55q16 71 65.5 126.5t121.5 86.5t155 31q63 0 111 -18l29 31h88l-58 -62q32 -25 49 -61zM173 128l251 267
q-25 31 -69 31q-58 0 -104 -54t-68 -147q-13 -54 -10 -97zM448 307q0 14 -1 20l-252 -269q23 -32 68 -32q58 0 104.5 53t69.5 147q11 47 11 81z" />
    <glyph glyph-name="ugrave" unicode="&#xf9;" horiz-adv-x="604" 
d="M58 13.5q-40 33.5 -40 102.5q0 34 11 81l60 263h154l-60 -263q-15 -63 -15 -101q0 -64 45 -64q37 0 77 28t72.5 74.5t48.5 101.5l51 224h154l-108 -470h-151l13 58q-42 -33 -90.5 -50.5t-98.5 -17.5q-83 0 -123 33.5zM201 670h133l64 -165h-66z" />
    <glyph glyph-name="uacute" unicode="&#xfa;" horiz-adv-x="604" 
d="M58 13.5q-40 33.5 -40 102.5q0 34 11 81l60 263h154l-60 -263q-15 -63 -15 -101q0 -64 45 -64q37 0 77 28t72.5 74.5t48.5 101.5l51 224h154l-108 -470h-151l13 58q-42 -33 -90.5 -50.5t-98.5 -17.5q-83 0 -123 33.5zM464 666h133l-207 -165h-66z" />
    <glyph glyph-name="ucircumflex" unicode="&#xfb;" horiz-adv-x="604" 
d="M58 13.5q-40 33.5 -40 102.5q0 34 11 81l60 263h154l-60 -263q-15 -63 -15 -101q0 -64 45 -64q37 0 77 28t72.5 74.5t48.5 101.5l51 224h154l-108 -470h-151l13 58q-42 -33 -90.5 -50.5t-98.5 -17.5q-83 0 -123 33.5zM311 674h175l64 -165h-66l-95 122l-152 -122h-66z
" />
    <glyph glyph-name="udieresis" unicode="&#xfc;" horiz-adv-x="604" 
d="M58 13.5q-40 33.5 -40 102.5q0 34 11 81l60 263h154l-60 -263q-15 -63 -15 -101q0 -64 45 -64q37 0 77 28t72.5 74.5t48.5 101.5l51 224h154l-108 -470h-151l13 58q-42 -33 -90.5 -50.5t-98.5 -17.5q-83 0 -123 33.5zM218.5 506.5q-16.5 14.5 -16.5 37.5q0 32 27.5 57
t61.5 25q27 0 44 -15t17 -38q0 -33 -27 -57t-63 -24q-27 0 -43.5 14.5zM412.5 506.5q-16.5 14.5 -16.5 37.5q0 33 27.5 57t62.5 24q26 0 43 -14.5t17 -37.5q0 -32 -28 -56.5t-62 -24.5q-27 0 -43.5 14.5z" />
    <glyph glyph-name="yacute" unicode="&#xfd;" horiz-adv-x="605" 
d="M74 -72q7 -40 44.5 -69t84.5 -29q54 0 99.5 43.5t66.5 135.5l9 37q-42 -32 -90 -49t-96 -17q-83 0 -123 33.5t-40 102.5q0 34 11 81l61 263h154l-61 -263q-15 -63 -15 -101q0 -64 45 -64q37 0 77 28t72.5 74.5t48.5 101.5l52 224h154l-104 -450q-18 -78 -68 -130
t-116 -76.5t-135 -24.5q-67 0 -119 22.5t-68 60.5zM457 655h133l-207 -165h-66z" />
    <glyph glyph-name="thorn" unicode="&#xfe;" horiz-adv-x="659" 
d="M177 710h151l-64 -278q70 39 144 39q97 0 152 -49t55 -133q0 -27 -8 -64q-16 -71 -61 -126.5t-110 -87t-138 -31.5q-38 0 -71 9t-56 25l-52 -224h-154zM352.5 57.5q32.5 26.5 58.5 72.5t38 100q10 40 10 78q0 54 -20 85.5t-54 31.5q-32 0 -65 -25.5t-59.5 -69.5
t-39.5 -96l-4 -20q-8 -38 -8 -67q0 -53 21.5 -84.5t58.5 -31.5q31 0 63.5 26.5z" />
    <glyph glyph-name="ydieresis" unicode="&#xff;" horiz-adv-x="605" 
d="M74 -72q7 -40 44.5 -69t84.5 -29q54 0 99.5 43.5t66.5 135.5l9 37q-42 -32 -90 -49t-96 -17q-83 0 -123 33.5t-40 102.5q0 34 11 81l61 263h154l-61 -263q-15 -63 -15 -101q0 -64 45 -64q37 0 77 28t72.5 74.5t48.5 101.5l52 224h154l-104 -450q-18 -78 -68 -130
t-116 -76.5t-135 -24.5q-67 0 -119 22.5t-68 60.5zM256.5 508.5q-16.5 14.5 -16.5 37.5q0 32 27.5 57t61.5 25q27 0 44 -15t17 -38q0 -33 -27 -57t-63 -24q-27 0 -43.5 14.5zM450.5 508.5q-16.5 14.5 -16.5 37.5q0 33 27.5 57t62.5 24q26 0 43 -14.5t17 -37.5
q0 -32 -28 -56.5t-62 -24.5q-27 0 -43.5 14.5z" />
    <glyph glyph-name="Amacron" unicode="&#x100;" horiz-adv-x="750" 
d="M391 710h129l127 -720h-161l-40 228h-287l-145 -228h-78zM436 275l-54 298l-188 -298h242zM300 824h374l-18 -79h-374z" />
    <glyph glyph-name="amacron" unicode="&#x101;" horiz-adv-x="610" 
d="M71.5 30.5q-54.5 50.5 -54.5 133.5q0 32 7 61q17 73 62 129t110 86.5t141 30.5q74 0 126 -39l6 28h151l-108 -470h-154l6 29q-31 -18 -69 -28.5t-75 -10.5q-94 0 -148.5 50.5zM315.5 55q31.5 24 56.5 65.5t37 92.5l5 21q7 31 7 64q0 56 -22.5 91.5t-60.5 35.5
q-31 0 -61.5 -25.5t-55 -70t-37.5 -99.5q-9 -40 -9 -75q0 -56 20.5 -90t56.5 -34q32 0 63.5 24zM192 593h374l-18 -79h-374z" />
    <glyph glyph-name="Abreve" unicode="&#x102;" horiz-adv-x="750" 
d="M391 710h129l127 -720h-161l-40 228h-287l-145 -228h-78zM436 275l-54 298l-188 -298h242zM372.5 782q-40.5 37 -40.5 100q0 27 7 54h53q-3 -15 -3 -27q0 -38 29 -58t84 -20q65 0 106.5 27.5t51.5 77.5h53q-18 -85 -82.5 -138t-148.5 -53q-69 0 -109.5 37z" />
    <glyph glyph-name="abreve" unicode="&#x103;" horiz-adv-x="610" 
d="M71.5 30.5q-54.5 50.5 -54.5 133.5q0 32 7 61q17 73 62 129t110 86.5t141 30.5q74 0 126 -39l6 28h151l-108 -470h-154l6 29q-31 -18 -69 -28.5t-75 -10.5q-94 0 -148.5 50.5zM315.5 55q31.5 24 56.5 65.5t37 92.5l5 21q7 31 7 64q0 56 -22.5 91.5t-60.5 35.5
q-31 0 -61.5 -25.5t-55 -70t-37.5 -99.5q-9 -40 -9 -75q0 -56 20.5 -90t56.5 -34q32 0 63.5 24zM249.5 528q-40.5 37 -40.5 100q0 27 7 54h53q-3 -15 -3 -27q0 -38 29 -58t84 -20q65 0 106.5 27.5t51.5 77.5h53q-18 -85 -82.5 -138t-148.5 -53q-69 0 -109.5 37z" />
    <glyph glyph-name="Aogonek" unicode="&#x104;" horiz-adv-x="750" 
d="M649 -179q-35 -37 -77 -56t-81 -19q-38 0 -61.5 18t-23.5 51t27 77.5t84 97.5h-31l-40 228h-287l-145 -228h-78l455 720h129l127 -720h-64q-33 -30 -50 -63t-17 -60q0 -21 11 -34t31 -13q27 0 61 22zM436 275l-54 298l-188 -298h242z" />
    <glyph glyph-name="aogonek" unicode="&#x105;" horiz-adv-x="610" 
d="M437 -61q-11 -26 -11 -47t11 -34t31 -13q28 0 61 22l30 -21q-35 -37 -77 -56t-81 -19q-38 0 -61.5 18t-23.5 51q0 62 85 150h-43l6 29q-31 -18 -69 -28.5t-75 -10.5q-94 0 -148.5 50.5t-54.5 133.5q0 32 7 61q17 73 62 129t110 86.5t141 30.5q74 0 126 -39l6 28h151
l-108 -470h-43q-21 -25 -32 -51zM315.5 55q31.5 24 56.5 65.5t37 92.5l5 21q7 31 7 64q0 56 -22.5 91.5t-60.5 35.5q-31 0 -61.5 -25.5t-55 -70t-37.5 -99.5q-9 -40 -9 -75q0 -56 20.5 -90t56.5 -34q32 0 63.5 24z" />
    <glyph glyph-name="Cacute" unicode="&#x106;" horiz-adv-x="811" 
d="M201.5 15.5q-76.5 35.5 -118 99.5t-41.5 149q0 42 10 85q25 106 97.5 190t178 131.5t224.5 47.5q66 0 125.5 -19.5t98.5 -52t46 -69.5l-109 -35q-11 68 -50 101.5t-110 33.5t-141 -43.5t-122 -118.5t-73 -164q-11 -52 -11 -94q0 -68 24 -122t68 -84t102 -30
q141 0 222 135l93 -35q-24 -37 -77.5 -69.5t-122 -52t-134.5 -19.5q-103 0 -179.5 35.5zM660 911h133l-207 -165h-66z" />
    <glyph glyph-name="cacute" unicode="&#x107;" horiz-adv-x="565" 
d="M124.5 5.5q-51.5 23.5 -79.5 66.5t-28 99q0 22 7 55q16 70 65 125.5t120 87t151 31.5q75 0 131 -33t70 -84l-112 -54q1 67 -20.5 97t-70.5 30q-55 0 -103 -54t-68 -138q-10 -43 -10 -81q0 -58 24.5 -89.5t70.5 -31.5t82 28.5t74 95.5l84 -46q-46 -59 -118 -93.5
t-150 -34.5q-68 0 -119.5 23.5zM457 657h133l-207 -165h-66z" />
    <glyph glyph-name="Cdotaccent" unicode="&#x10a;" horiz-adv-x="811" 
d="M201.5 15.5q-76.5 35.5 -118 99.5t-41.5 149q0 42 10 85q25 106 97.5 190t178 131.5t224.5 47.5q66 0 125.5 -19.5t98.5 -52t46 -69.5l-109 -35q-11 68 -50 101.5t-110 33.5t-141 -43.5t-122 -118.5t-73 -164q-11 -52 -11 -94q0 -68 24 -122t68 -84t102 -30
q141 0 222 135l93 -35q-24 -37 -77.5 -69.5t-122 -52t-134.5 -19.5q-103 0 -179.5 35.5zM543.5 762.5q-16.5 14.5 -16.5 37.5q0 33 27 57.5t61 24.5q27 0 43.5 -15t16.5 -38q0 -33 -27 -57t-62 -24q-26 0 -42.5 14.5z" />
    <glyph glyph-name="cdotaccent" unicode="&#x10b;" horiz-adv-x="565" 
d="M124.5 5.5q-51.5 23.5 -79.5 66.5t-28 99q0 22 7 55q16 70 65 125.5t120 87t151 31.5q75 0 131 -33t70 -84l-112 -54q1 67 -20.5 97t-70.5 30q-55 0 -103 -54t-68 -138q-10 -43 -10 -81q0 -58 24.5 -89.5t70.5 -31.5t82 28.5t74 95.5l84 -46q-46 -59 -118 -93.5
t-150 -34.5q-68 0 -119.5 23.5zM316.5 506.5q-16.5 14.5 -16.5 37.5q0 33 27 57.5t61 24.5q27 0 43.5 -15t16.5 -38q0 -33 -27 -57t-62 -24q-26 0 -42.5 14.5z" />
    <glyph glyph-name="Ccaron" unicode="&#x10c;" horiz-adv-x="811" 
d="M201.5 15.5q-76.5 35.5 -118 99.5t-41.5 149q0 42 10 85q25 106 97.5 190t178 131.5t224.5 47.5q66 0 125.5 -19.5t98.5 -52t46 -69.5l-109 -35q-11 68 -50 101.5t-110 33.5t-141 -43.5t-122 -118.5t-73 -164q-11 -52 -11 -94q0 -68 24 -122t68 -84t102 -30
q141 0 222 135l93 -35q-24 -37 -77.5 -69.5t-122 -52t-134.5 -19.5q-103 0 -179.5 35.5zM417 911h66l96 -122l151 122h66l-140 -165h-175z" />
    <glyph glyph-name="ccaron" unicode="&#x10d;" horiz-adv-x="565" 
d="M124.5 5.5q-51.5 23.5 -79.5 66.5t-28 99q0 22 7 55q16 70 65 125.5t120 87t151 31.5q75 0 131 -33t70 -84l-112 -54q1 67 -20.5 97t-70.5 30q-55 0 -103 -54t-68 -138q-10 -43 -10 -81q0 -58 24.5 -89.5t70.5 -31.5t82 28.5t74 95.5l84 -46q-46 -59 -118 -93.5
t-150 -34.5q-68 0 -119.5 23.5zM235 655h66l96 -122l151 122h66l-140 -165h-175z" />
    <glyph glyph-name="Dcaron" unicode="&#x10e;" horiz-adv-x="798" 
d="M135 710h276q170 0 264.5 -68.5t94.5 -191.5q0 -34 -10 -81q-27 -119 -97 -204t-176 -130t-241 -45h-277zM256 34q131 0 217.5 84t123.5 250q14 62 14 107q0 95 -53 143.5t-157 48.5h-118l-146 -633h119zM289 895h66l96 -122l151 122h66l-140 -165h-175z" />
    <glyph glyph-name="dcaron" unicode="&#x10f;" horiz-adv-x="610" 
d="M44 30.5q-55 50.5 -55 133.5q0 32 7 61q17 73 62 129t110.5 86.5t140.5 30.5q35 0 67.5 -9.5t56.5 -26.5l63 275h154l-166 -720h-154l7 29q-32 -18 -69.5 -28.5t-74.5 -10.5q-94 0 -149 50.5zM288.5 55q31.5 24 56.5 65.5t37 92.5l4 21q8 37 8 65q0 56 -23 91t-61 35
q-31 0 -61.5 -25.5t-55 -70t-37.5 -99.5q-9 -39 -9 -74q0 -56 21 -90.5t57 -34.5q32 0 63.5 24zM676 528q16 20 21 40l1 5q0 8 -12 20q-15 13 -21.5 23.5t-6.5 22.5q0 7 3 18q6 28 31 47t55 19q25 0 41 -15t16 -39q0 -35 -26.5 -79t-69.5 -82z" />
    <glyph glyph-name="Dcroat" unicode="&#x110;" horiz-adv-x="798" 
d="M47 330h-80l13 53h80l75 327h276q170 0 264.5 -68.5t94.5 -191.5q0 -34 -10 -81q-27 -119 -97 -204t-176 -130t-241 -45h-277zM256 34q131 0 217.5 84t123.5 250q14 62 14 107q0 95 -53 143.5t-157 48.5h-118l-65 -284h127l-13 -53h-127l-68 -296h119z" />
    <glyph glyph-name="dcroat" unicode="&#x111;" horiz-adv-x="610" 
d="M714 534h-104l-126 -544h-154l7 29q-32 -18 -69.5 -28.5t-74.5 -10.5q-94 0 -149 50.5t-55 133.5q0 32 7 61q17 73 62 129t110.5 86.5t140.5 30.5q35 0 67.5 -9.5t56.5 -26.5l23 100h-47l12 48h46l29 127h154l-29 -127h105zM394 299q0 56 -23 91t-61 35
q-31 0 -61.5 -25.5t-55 -70t-37.5 -99.5q-9 -39 -9 -74q0 -56 21 -90.5t57 -34.5q32 0 63.5 24t56.5 65.5t37 92.5l4 21q8 37 8 65z" />
    <glyph glyph-name="Emacron" unicode="&#x112;" horiz-adv-x="665" 
d="M135 710h561l-13 -57h-403l-61 -263h310l-13 -57h-310l-66 -286h403l-13 -57h-561zM260 844h374l-18 -79h-374z" />
    <glyph glyph-name="emacron" unicode="&#x113;" horiz-adv-x="586" 
d="M124.5 5.5q-51.5 23.5 -79.5 66.5t-28 99q0 22 7 55q16 70 65 125.5t120 87t151 31.5q98 0 154 -49.5t56 -133.5q0 -29 -10 -71h-379q-5 -28 -5 -47q0 -59 31 -92.5t80 -33.5q43 0 88.5 27.5t84.5 81.5l54 -50q-39 -51 -116 -85.5t-154 -34.5q-68 0 -119.5 23.5zM424 263
q4 23 4 48q0 54 -21 84.5t-58 30.5q-43 0 -87 -46t-68 -117h230zM222 593h374l-18 -79h-374z" />
    <glyph glyph-name="Edotaccent" unicode="&#x116;" horiz-adv-x="665" 
d="M135 710h561l-13 -57h-403l-61 -263h310l-13 -57h-310l-66 -286h403l-13 -57h-561zM392.5 764.5q-16.5 14.5 -16.5 37.5q0 33 27 57.5t61 24.5q27 0 43.5 -15t16.5 -38q0 -33 -27 -57t-62 -24q-26 0 -42.5 14.5z" />
    <glyph glyph-name="edotaccent" unicode="&#x117;" horiz-adv-x="586" 
d="M124.5 5.5q-51.5 23.5 -79.5 66.5t-28 99q0 22 7 55q16 70 65 125.5t120 87t151 31.5q98 0 154 -49.5t56 -133.5q0 -29 -10 -71h-379q-5 -28 -5 -47q0 -59 31 -92.5t80 -33.5q43 0 88.5 27.5t84.5 81.5l54 -50q-39 -51 -116 -85.5t-154 -34.5q-68 0 -119.5 23.5zM424 263
q4 23 4 48q0 54 -21 84.5t-58 30.5q-43 0 -87 -46t-68 -117h230zM337.5 505.5q-16.5 14.5 -16.5 37.5q0 33 27 57.5t61 24.5q27 0 43.5 -15t16.5 -38q0 -33 -27 -57t-62 -24q-26 0 -42.5 14.5z" />
    <glyph glyph-name="Eogonek" unicode="&#x118;" horiz-adv-x="665" 
d="M280 653l-61 -263h310l-13 -57h-310l-66 -286h403l-13 -57h-218q-35 -31 -53.5 -64.5t-18.5 -61.5q0 -22 11 -35t31 -13q28 0 61 22l30 -21q-34 -37 -76.5 -56t-80.5 -19t-62 18.5t-24 51.5q0 34 28 79t87 99h-276l166 720h561l-13 -57h-403z" />
    <glyph glyph-name="eogonek" unicode="&#x119;" horiz-adv-x="586" 
d="M181 216q-5 -28 -5 -47q0 -59 31 -92.5t80 -33.5q43 0 88.5 27.5t84.5 81.5l54 -50q-32 -42 -90.5 -73t-123.5 -42q-24 -27 -36.5 -54.5t-12.5 -50.5q0 -21 11 -34t31 -13q27 0 61 22l30 -21q-35 -37 -77 -56t-81 -19q-37 0 -61 18t-24 51q0 63 88 152q-97 4 -154.5 56
t-57.5 133q0 22 7 55q16 70 65 125.5t120 87t151 31.5q98 0 154 -49.5t56 -133.5q0 -29 -10 -71h-379zM262 380q-44 -46 -68 -117h230q4 23 4 48q0 54 -21 84.5t-58 30.5q-43 0 -87 -46z" />
    <glyph glyph-name="Ecaron" unicode="&#x11a;" horiz-adv-x="665" 
d="M135 710h561l-13 -57h-403l-61 -263h310l-13 -57h-310l-66 -286h403l-13 -57h-561zM290 928h66l96 -122l151 122h66l-140 -165h-175z" />
    <glyph glyph-name="ecaron" unicode="&#x11b;" horiz-adv-x="586" 
d="M124.5 5.5q-51.5 23.5 -79.5 66.5t-28 99q0 22 7 55q16 70 65 125.5t120 87t151 31.5q98 0 154 -49.5t56 -133.5q0 -29 -10 -71h-379q-5 -28 -5 -47q0 -59 31 -92.5t80 -33.5q43 0 88.5 27.5t84.5 81.5l54 -50q-39 -51 -116 -85.5t-154 -34.5q-68 0 -119.5 23.5zM424 263
q4 23 4 48q0 54 -21 84.5t-58 30.5q-43 0 -87 -46t-68 -117h230zM194 655h66l96 -122l151 122h66l-140 -165h-175z" />
    <glyph glyph-name="Gbreve" unicode="&#x11e;" horiz-adv-x="842" 
d="M201.5 15.5q-76.5 35.5 -118 99.5t-41.5 149q0 42 10 85q25 106 97.5 190t178 131.5t224.5 47.5q66 0 125.5 -19.5t98.5 -52t46 -69.5l-109 -35q-11 68 -50 101.5t-110 33.5t-141.5 -43.5t-123 -118.5t-73.5 -164q-11 -52 -11 -93q0 -69 24.5 -122.5t69 -83.5t103.5 -30
q49 0 92 15.5t77 44.5l51 218h158l-19 -80q-16 -69 -70.5 -123.5t-135.5 -85.5t-173 -31q-103 0 -179.5 35.5zM475.5 784q-40.5 37 -40.5 100q0 27 7 54h53q-3 -15 -3 -27q0 -38 29 -58t84 -20q65 0 106.5 27.5t51.5 77.5h53q-18 -85 -82.5 -138t-148.5 -53q-69 0 -109.5 37
z" />
    <glyph glyph-name="gbreve" unicode="&#x11f;" horiz-adv-x="617" 
d="M72 -73q13 -45 50 -74t81 -29q54 0 99 45.5t67 139.5l2 10q-31 -18 -69 -28.5t-75 -10.5q-94 0 -148.5 50.5t-54.5 133.5q0 32 7 61q16 73 61 129t110.5 86.5t140.5 30.5q76 0 126 -39l7 28h151l-104 -450q-18 -78 -69 -131.5t-118 -79t-135 -25.5q-67 0 -117.5 23.5
t-66.5 64.5zM324.5 63q31.5 24 56.5 65.5t37 92.5l2 8q7 31 7 64q0 56 -22.5 91.5t-60.5 35.5q-47 0 -90.5 -53.5t-62.5 -136.5q-9 -39 -9 -72q0 -54 21.5 -86.5t57.5 -32.5q32 0 63.5 24zM294.5 544q-40.5 37 -40.5 100q0 27 7 54h53q-3 -15 -3 -27q0 -38 29 -58t84 -20
q65 0 106.5 27.5t51.5 77.5h53q-18 -85 -82.5 -138t-148.5 -53q-69 0 -109.5 37z" />
    <glyph glyph-name="Gdotaccent" unicode="&#x120;" horiz-adv-x="842" 
d="M201.5 15.5q-76.5 35.5 -118 99.5t-41.5 149q0 42 10 85q25 106 97.5 190t178 131.5t224.5 47.5q66 0 125.5 -19.5t98.5 -52t46 -69.5l-109 -35q-11 68 -50 101.5t-110 33.5t-141.5 -43.5t-123 -118.5t-73.5 -164q-11 -52 -11 -93q0 -69 24.5 -122.5t69 -83.5t103.5 -30
q49 0 92 15.5t77 44.5l51 218h158l-19 -80q-16 -69 -70.5 -123.5t-135.5 -85.5t-173 -31q-103 0 -179.5 35.5zM534.5 761.5q-16.5 14.5 -16.5 37.5q0 33 27 57.5t61 24.5q27 0 43.5 -15t16.5 -38q0 -33 -27 -57t-62 -24q-26 0 -42.5 14.5z" />
    <glyph glyph-name="gdotaccent" unicode="&#x121;" horiz-adv-x="617" 
d="M72 -73q13 -45 50 -74t81 -29q54 0 99 45.5t67 139.5l2 10q-31 -18 -69 -28.5t-75 -10.5q-94 0 -148.5 50.5t-54.5 133.5q0 32 7 61q16 73 61 129t110.5 86.5t140.5 30.5q76 0 126 -39l7 28h151l-104 -450q-18 -78 -69 -131.5t-118 -79t-135 -25.5q-67 0 -117.5 23.5
t-66.5 64.5zM324.5 63q31.5 24 56.5 65.5t37 92.5l2 8q7 31 7 64q0 56 -22.5 91.5t-60.5 35.5q-47 0 -90.5 -53.5t-62.5 -136.5q-9 -39 -9 -72q0 -54 21.5 -86.5t57.5 -32.5q32 0 63.5 24zM357.5 531.5q-16.5 14.5 -16.5 37.5q0 33 27 57.5t61 24.5q27 0 43.5 -15t16.5 -38
q0 -33 -27 -57t-62 -24q-26 0 -42.5 14.5z" />
    <glyph glyph-name="uni0122" unicode="&#x122;" horiz-adv-x="842" 
d="M201.5 15.5q-76.5 35.5 -118 99.5t-41.5 149q0 42 10 85q25 106 97.5 190t178 131.5t224.5 47.5q66 0 125.5 -19.5t98.5 -52t46 -69.5l-109 -35q-11 68 -50 101.5t-110 33.5t-141.5 -43.5t-123 -118.5t-73.5 -164q-11 -52 -11 -93q0 -69 24.5 -122.5t69 -83.5t103.5 -30
q49 0 92 15.5t77 44.5l51 218h158l-19 -80q-16 -69 -70.5 -123.5t-135.5 -85.5t-173 -31q-103 0 -179.5 35.5zM312 -247q16 20 21 40l1 5q0 8 -12 20q-15 13 -21.5 23.5t-6.5 22.5q0 7 3 18q6 28 31 47t55 19q25 0 41 -15t16 -39q0 -35 -26.5 -79t-69.5 -82z" />
    <glyph glyph-name="uni0123" unicode="&#x123;" horiz-adv-x="617" 
d="M72 -73q13 -45 50 -74t81 -29q54 0 99 45.5t67 139.5l2 10q-31 -18 -69 -28.5t-75 -10.5q-94 0 -148.5 50.5t-54.5 133.5q0 32 7 61q16 73 61 129t110.5 86.5t140.5 30.5q76 0 126 -39l7 28h151l-104 -450q-18 -78 -69 -131.5t-118 -79t-135 -25.5q-67 0 -117.5 23.5
t-66.5 64.5zM324.5 63q31.5 24 56.5 65.5t37 92.5l2 8q7 31 7 64q0 56 -22.5 91.5t-60.5 35.5q-47 0 -90.5 -53.5t-62.5 -136.5q-9 -39 -9 -72q0 -54 21.5 -86.5t57.5 -32.5q32 0 63.5 24zM151 -432q16 20 21 40l1 5q0 8 -12 20q-15 13 -21.5 23.5t-6.5 22.5q0 7 3 18
q6 28 31 47t55 19q25 0 41 -15t16 -39q0 -35 -26.5 -79t-69.5 -82z" />
    <glyph glyph-name="Hbar" unicode="&#x126;" horiz-adv-x="743" 
d="M135 710h158l-46 -198h323l46 198h158l-166 -720h-158l79 343h-323l-79 -343h-158zM542 390l15 65h-323l-15 -65h323z" />
    <glyph glyph-name="hbar" unicode="&#x127;" horiz-adv-x="605" 
d="M520 436.5q40 -33.5 40 -102.5q0 -34 -11 -81l-61 -263h-154l61 263q14 59 14 101q0 33 -10.5 48.5t-33.5 15.5q-37 0 -77 -28t-72.5 -75t-48.5 -101l-52 -224h-154l120 520h-53l12 51h53l34 149h154l-35 -149h69l-12 -51h-68l-25 -106q41 32 89.5 49t97.5 17
q83 0 123 -33.5z" />
    <glyph glyph-name="Imacron" unicode="&#x12a;" horiz-adv-x="338" 
d="M145 710h158l-166 -720h-158zM71 834h374l-18 -79h-374z" />
    <glyph glyph-name="imacron" unicode="&#x12b;" horiz-adv-x="242" 
d="M98 460h154l-108 -470h-154zM4 573h374l-18 -79h-374z" />
    <glyph glyph-name="Iogonek" unicode="&#x12e;" horiz-adv-x="282" 
d="M31 -74q-17 -33 -17 -59q0 -22 11 -35t31 -13q28 0 61 22l30 -21q-35 -37 -77 -56t-81 -19q-37 0 -61 18t-24 51q0 34 27 78t85 98h-37l166 720h158l-166 -720h-55q-34 -31 -51 -64z" />
    <glyph glyph-name="iogonek" unicode="&#x12f;" horiz-adv-x="242" 
d="M276.5 650q21.5 -17 21.5 -43q0 -22 -16 -42.5t-41 -33t-51 -12.5q-32 0 -52.5 17.5t-20.5 43.5q0 22 15.5 42t40.5 32.5t51 12.5q31 0 52.5 -17zM103 -10q-25 -27 -37.5 -55t-12.5 -51q0 -21 11 -34t31 -13q28 0 61 22l30 -21q-34 -37 -76.5 -56t-80.5 -19t-62 18.5
t-24 51.5q0 65 93 157h-44l109 470h154l-109 -470h-43z" />
    <glyph glyph-name="Idotaccent" unicode="&#x130;" horiz-adv-x="282" 
d="M145 710h158l-166 -720h-158zM189.5 767.5q-16.5 14.5 -16.5 37.5q0 33 27 57.5t61 24.5q27 0 43.5 -15t16.5 -38q0 -33 -27 -57t-62 -24q-26 0 -42.5 14.5z" />
    <glyph glyph-name="dotlessi" unicode="&#x131;" horiz-adv-x="242" 
d="M98 460h154l-108 -470h-154z" />
    <glyph glyph-name="uni0136" unicode="&#x136;" horiz-adv-x="705" 
d="M135 710h158l-68 -296l427 296h103l-491 -340l333 -380h-191l-221 251l-58 -251h-158zM180 -232q16 20 21 40l1 5q0 8 -12 20q-15 13 -21.5 23.5t-6.5 22.5q0 7 3 18q6 28 31 47t55 19q25 0 41 -15t16 -39q0 -35 -26.5 -79t-69.5 -82z" />
    <glyph glyph-name="uni0137" unicode="&#x137;" horiz-adv-x="572" 
d="M127 710h154l-114 -494l330 244h92l-290 -214l184 -256h-179l-123 170l-33 -25l-33 -145h-154zM143 -253q16 20 21 40l1 5q0 8 -12 20q-15 13 -21.5 23.5t-6.5 22.5q0 7 3 18q6 28 31 47t55 19q25 0 41 -15t16 -39q0 -35 -26.5 -79t-69.5 -82z" />
    <glyph glyph-name="Lacute" unicode="&#x139;" horiz-adv-x="625" 
d="M135 710h158l-153 -663h383l-13 -57h-541zM287 912h133l-207 -165h-66z" />
    <glyph glyph-name="lacute" unicode="&#x13a;" horiz-adv-x="262" 
d="M130 701l167 56l-178 -767h-154zM285 914h133l-207 -165h-66z" />
    <glyph glyph-name="uni013B" unicode="&#x13b;" horiz-adv-x="625" 
d="M135 710h158l-153 -663h383l-13 -57h-541zM178 -244q16 20 21 40l1 5q0 8 -12 20q-15 13 -21.5 23.5t-6.5 22.5q0 7 3 18q6 28 31 47t55 19q25 0 41 -15t16 -39q0 -35 -26.5 -79t-69.5 -82z" />
    <glyph glyph-name="uni013C" unicode="&#x13c;" horiz-adv-x="262" 
d="M130 701l167 56l-178 -767h-154zM-33 -235q16 20 21 40l1 5q0 8 -12 20q-15 13 -21.5 23.5t-6.5 22.5q0 7 3 18q6 28 31 47t55 19q25 0 41 -15t16 -39q0 -35 -26.5 -79t-69.5 -82z" />
    <glyph glyph-name="Lcaron" unicode="&#x13d;" horiz-adv-x="625" 
d="M135 710h158l-153 -663h383l-13 -57h-541zM326 528q16 20 21 40l1 5q0 8 -12 20q-15 13 -21.5 23.5t-6.5 22.5q0 7 3 18q6 28 31 47t55 19q25 0 41 -15t16 -39q0 -35 -26.5 -79t-69.5 -82z" />
    <glyph glyph-name="lcaron" unicode="&#x13e;" horiz-adv-x="262" 
d="M130 701l167 56l-178 -767h-154zM331 567q16 20 21 40l1 5q0 8 -12 20q-15 13 -21.5 23.5t-6.5 22.5q0 7 3 18q6 28 31 47t55 19q25 0 41 -15t16 -39q0 -35 -26.5 -79t-69.5 -82z" />
    <glyph glyph-name="Lslash" unicode="&#x141;" horiz-adv-x="625" 
d="M523 47l-13 -57h-541l42 184h-63l89 109l98 427h158l-48 -210h67l-94 -115l-78 -338h383z" />
    <glyph glyph-name="lslash" unicode="&#x142;" horiz-adv-x="262" 
d="M255 418l-48 -50l-88 -378h-154l47 203l-19 29l34 36l103 443l167 56l-69 -298z" />
    <glyph glyph-name="Nacute" unicode="&#x143;" horiz-adv-x="743" 
d="M135 710h146l296 -519l120 519h77l-166 -720h-90l-337 586l-135 -586h-77zM579 912h133l-207 -165h-66z" />
    <glyph glyph-name="nacute" unicode="&#x144;" horiz-adv-x="604" 
d="M97 460h151l-13 -58q42 33 90.5 50.5t98.5 17.5q83 0 123 -33.5t40 -102.5q0 -34 -11 -81l-60 -263h-154l60 263q15 63 15 101q0 64 -45 64q-37 0 -77 -28t-72.5 -74.5t-48.5 -101.5l-51 -224h-154zM440 677h133l-207 -165h-66z" />
    <glyph glyph-name="uni0145" unicode="&#x145;" horiz-adv-x="743" 
d="M135 710h146l296 -519l120 519h77l-166 -720h-90l-337 586l-135 -586h-77zM232 -213q16 20 21 40l1 5q0 8 -12 20q-15 13 -21.5 23.5t-6.5 22.5q0 7 3 18q6 28 31 47t55 19q25 0 41 -15t16 -39q0 -35 -26.5 -79t-69.5 -82z" />
    <glyph glyph-name="uni0146" unicode="&#x146;" horiz-adv-x="604" 
d="M97 460h151l-13 -58q42 33 90.5 50.5t98.5 17.5q83 0 123 -33.5t40 -102.5q0 -34 -11 -81l-60 -263h-154l60 263q15 63 15 101q0 64 -45 64q-37 0 -77 -28t-72.5 -74.5t-48.5 -101.5l-51 -224h-154zM181 -222q16 20 21 40l1 5q0 8 -12 20q-15 13 -21.5 23.5t-6.5 22.5
q0 7 3 18q6 28 31 47t55 19q25 0 41 -15t16 -39q0 -35 -26.5 -79t-69.5 -82z" />
    <glyph glyph-name="Ncaron" unicode="&#x147;" horiz-adv-x="743" 
d="M135 710h146l296 -519l120 519h77l-166 -720h-90l-337 586l-135 -586h-77zM330 910h66l96 -122l151 122h66l-140 -165h-175z" />
    <glyph glyph-name="ncaron" unicode="&#x148;" horiz-adv-x="604" 
d="M97 460h151l-13 -58q42 33 90.5 50.5t98.5 17.5q83 0 123 -33.5t40 -102.5q0 -34 -11 -81l-60 -263h-154l60 263q15 63 15 101q0 64 -45 64q-37 0 -77 -28t-72.5 -74.5t-48.5 -101.5l-51 -224h-154zM202 675h66l96 -122l151 122h66l-140 -165h-175z" />
    <glyph glyph-name="Eng" unicode="&#x14a;" horiz-adv-x="743" 
d="M383 -153q16 -2 23 -2q49 0 79 36t42 92l-11 21l-335 582l-135 -586h-77l166 720h146l296 -519l120 519h77l-169 -730q-18 -80 -72.5 -125t-132.5 -45q-17 0 -26 1z" />
    <glyph glyph-name="eng" unicode="&#x14b;" horiz-adv-x="604" 
d="M227 -212l1 3l26 14q4 -1 10 -1q30 0 53 44.5t48 155.5l57 249q15 63 15 101q0 64 -45 64q-37 0 -77 -28t-72.5 -74.5t-48.5 -101.5l-51 -224h-154l108 470h151l-13 -58q42 33 90.5 50.5t98.5 17.5q83 0 123 -33.5t40 -102.5q0 -34 -11 -81l-70 -303q-15 -65 -42 -103
t-71.5 -55.5t-115.5 -17.5q-23 0 -35 1z" />
    <glyph glyph-name="Omacron" unicode="&#x14c;" horiz-adv-x="952" 
d="M207 16.5q-79 36.5 -122 101.5t-43 150q0 34 10 81q24 105 98.5 190t182.5 133t228 48q104 0 183.5 -36.5t122.5 -102.5t43 -151q0 -34 -10 -81q-24 -105 -98.5 -189t-182.5 -132t-229 -48q-104 0 -183 36.5zM546 68q69 41 119 114.5t72 166.5q12 51 12 97
q0 102 -53.5 164.5t-144.5 62.5q-74 0 -143.5 -42t-120.5 -116t-72 -166q-12 -52 -12 -99q0 -102 53 -162.5t145 -60.5q76 0 145 41zM404 850h374l-18 -79h-374z" />
    <glyph glyph-name="omacron" unicode="&#x14d;" horiz-adv-x="620" 
d="M128.5 5.5q-53.5 23.5 -82.5 66t-29 99.5q0 22 7 55q16 71 65.5 126.5t121.5 86.5t155 31q72 0 125.5 -23.5t82.5 -66t29 -99.5q0 -22 -7 -55q-16 -71 -65.5 -126.5t-121.5 -86.5t-155 -31q-72 0 -125.5 23.5zM367.5 79q46.5 53 69.5 147q11 49 11 83q0 56 -24 86.5
t-69 30.5q-58 0 -104 -54t-68 -147q-11 -47 -11 -82q0 -56 24 -86.5t67 -30.5q58 0 104.5 53zM207 584h374l-18 -79h-374z" />
    <glyph glyph-name="Ohungarumlaut" unicode="&#x150;" horiz-adv-x="952" 
d="M207 16.5q-79 36.5 -122 101.5t-43 150q0 34 10 81q24 105 98.5 190t182.5 133t228 48q104 0 183.5 -36.5t122.5 -102.5t43 -151q0 -34 -10 -81q-24 -105 -98.5 -189t-182.5 -132t-229 -48q-104 0 -183 36.5zM546 68q69 41 119 114.5t72 166.5q12 51 12 97
q0 102 -53.5 164.5t-144.5 62.5q-74 0 -143.5 -42t-120.5 -116t-72 -166q-12 -52 -12 -99q0 -102 53 -162.5t145 -60.5q76 0 145 41zM576 910h132l-207 -165h-65zM739 910h131l-206 -165h-65z" />
    <glyph glyph-name="ohungarumlaut" unicode="&#x151;" horiz-adv-x="620" 
d="M128.5 5.5q-53.5 23.5 -82.5 66t-29 99.5q0 22 7 55q16 71 65.5 126.5t121.5 86.5t155 31q72 0 125.5 -23.5t82.5 -66t29 -99.5q0 -22 -7 -55q-16 -71 -65.5 -126.5t-121.5 -86.5t-155 -31q-72 0 -125.5 23.5zM367.5 79q46.5 53 69.5 147q11 49 11 83q0 56 -24 86.5
t-69 30.5q-58 0 -104 -54t-68 -147q-11 -47 -11 -82q0 -56 24 -86.5t67 -30.5q58 0 104.5 53zM391 654h132l-207 -165h-65zM554 654h131l-206 -165h-65z" />
    <glyph glyph-name="OE" unicode="&#x152;" horiz-adv-x="1335" 
d="M207 16.5q-79 36.5 -122 101.5t-43 150q0 34 10 81q24 105 98.5 190t182.5 133t228 48q73 0 138.5 -20.5t110.5 -56.5l15 67h541l-13 -57h-383l-61 -263h290l-13 -57h-290l-66 -286h383l-13 -57h-541l15 66q-61 -36 -136 -56t-148 -20q-104 0 -183 36.5zM546 68
q69 41 119 114.5t72 166.5q12 51 12 97q0 102 -53.5 164.5t-144.5 62.5q-74 0 -143.5 -42t-120.5 -116t-72 -166q-12 -52 -12 -99q0 -102 53 -162.5t145 -60.5q76 0 145 41z" />
    <glyph glyph-name="oe" unicode="&#x153;" horiz-adv-x="999" 
d="M128.5 5.5q-53.5 23.5 -82.5 66t-29 99.5q0 22 7 55q16 71 65.5 126.5t121.5 86.5t155 31q61 0 112 -18t80 -50q41 32 98.5 50t116.5 18q98 0 154 -49t56 -133q0 -36 -10 -72h-379q-5 -28 -5 -47q0 -59 31 -92.5t80 -33.5q43 0 88.5 27.5t84.5 81.5l54 -50
q-39 -51 -116 -85.5t-154 -34.5q-58 0 -106 18t-76 50q-43 -32 -101.5 -50t-119.5 -18q-72 0 -125.5 23.5zM367.5 79q46.5 53 69.5 147l1 5q10 41 10 78q0 55 -24 86t-69 31q-58 0 -104 -54t-68 -147q-11 -47 -11 -82q0 -56 24 -86.5t67 -30.5q58 0 104.5 53zM837 263
q4 23 4 48q0 54 -21 84.5t-58 30.5q-43 0 -87 -46t-68 -117h230z" />
    <glyph glyph-name="Racute" unicode="&#x154;" horiz-adv-x="739" 
d="M135 710h321q124 0 192.5 -43.5t68.5 -121.5q0 -25 -5 -45q-19 -79 -85 -131.5t-169 -70.5l124 -308h-151l-121 300h-134l-69 -300h-138zM369 334q84 0 132 39.5t68 126.5q8 37 8 62q0 54 -32 79t-99 25h-183l-77 -332h183zM531 907h133l-207 -165h-66z" />
    <glyph glyph-name="racute" unicode="&#x155;" horiz-adv-x="479" 
d="M97 460h151l-13 -57q82 67 170 67q51 0 88.5 -21.5t47.5 -54.5l-138 -67q-1 48 -8 69.5t-21 22.5q-31 2 -69.5 -27.5t-69 -78t-40.5 -98.5l-52 -225h-154zM432 673h133l-207 -165h-66z" />
    <glyph glyph-name="uni0156" unicode="&#x156;" horiz-adv-x="739" 
d="M135 710h321q124 0 192.5 -43.5t68.5 -121.5q0 -25 -5 -45q-19 -79 -85 -131.5t-169 -70.5l124 -308h-151l-121 300h-134l-69 -300h-138zM369 334q84 0 132 39.5t68 126.5q8 37 8 62q0 54 -32 79t-99 25h-183l-77 -332h183zM228 -227q16 20 21 40l1 5q0 8 -12 20
q-15 13 -21.5 23.5t-6.5 22.5q0 7 3 18q6 28 31 47t55 19q25 0 41 -15t16 -39q0 -35 -26.5 -79t-69.5 -82z" />
    <glyph glyph-name="uni0157" unicode="&#x157;" horiz-adv-x="479" 
d="M97 460h151l-13 -57q82 67 170 67q51 0 88.5 -21.5t47.5 -54.5l-138 -67q-1 48 -8 69.5t-21 22.5q-31 2 -69.5 -27.5t-69 -78t-40.5 -98.5l-52 -225h-154zM-14 -232q16 20 21 40l1 5q0 8 -12 20q-15 13 -21.5 23.5t-6.5 22.5q0 7 3 18q6 28 31 47t55 19q25 0 41 -15
t16 -39q0 -35 -26.5 -79t-69.5 -82z" />
    <glyph glyph-name="Rcaron" unicode="&#x158;" horiz-adv-x="749" 
d="M135 710h321q124 0 192.5 -43.5t68.5 -121.5q0 -25 -5 -45q-19 -79 -85 -131.5t-169 -70.5l124 -308h-151l-121 300h-134l-69 -300h-138zM369 334q84 0 132 39.5t68 126.5q8 37 8 62q0 54 -32 79t-99 25h-183l-77 -332h183zM284 909h66l96 -122l151 122h66l-140 -165
h-175z" />
    <glyph glyph-name="rcaron" unicode="&#x159;" horiz-adv-x="479" 
d="M97 460h151l-13 -57q82 67 170 67q51 0 88.5 -21.5t47.5 -54.5l-138 -67q-1 48 -8 69.5t-21 22.5q-31 2 -69.5 -27.5t-69 -78t-40.5 -98.5l-52 -225h-154zM182 668h66l96 -122l151 122h66l-140 -165h-175z" />
    <glyph glyph-name="Sacute" unicode="&#x15a;" horiz-adv-x="710" 
d="M135.5 -3q-57.5 18 -94 50t-43.5 71l113 36q5 -66 44 -97t118 -31q69 0 118.5 36t63.5 95q4 16 4 33q0 29 -16 46.5t-42 28.5t-79 27q-70 21 -119 43t-83 58t-34 88q0 16 5 38q13 56 65.5 102t130 73t163.5 27q67 0 123.5 -18t92.5 -50t43 -71l-113 -36q-5 67 -43 97.5
t-116 30.5q-70 0 -119 -35.5t-63 -94.5q-4 -16 -4 -32q0 -29 16 -46t42 -27.5t80 -26.5q108 -33 171.5 -75.5t63.5 -116.5q0 -16 -5 -39q-13 -56 -65.5 -102t-130 -73t-163.5 -27q-67 0 -124.5 18zM563 911h133l-207 -165h-66z" />
    <glyph glyph-name="sacute" unicode="&#x15b;" horiz-adv-x="534" 
d="M100 -5q-49 15 -78 40.5t-29 55.5l124 21q-1 -6 -1 -17q0 -68 104 -68q53 0 82.5 18.5t36.5 56.5q1 5 1 13q0 22 -21.5 33t-80.5 21q-85 14 -139.5 41.5t-54.5 86.5q0 13 3 28q9 39 50.5 72.5t103.5 53t130 19.5q57 0 105 -15t76.5 -40.5t28.5 -55.5l-123 -21q1 6 1 17
q0 34 -24 52t-71 18q-62 0 -95 -24t-33 -70q0 -15 9 -23.5t29.5 -14.5t63.5 -14q58 -10 96.5 -21t67.5 -35.5t29 -65.5q0 -16 -4 -32q-10 -40 -50.5 -73t-101 -52.5t-128.5 -19.5q-58 0 -107 15zM449 654h133l-207 -165h-66z" />
    <glyph glyph-name="Scedilla" unicode="&#x15e;" horiz-adv-x="710" 
d="M560.5 336.5q63.5 -42.5 63.5 -116.5q0 -16 -5 -39q-12 -51 -57.5 -94.5t-114.5 -71.5t-147 -34l-22 -31q47 -2 74.5 -24t27.5 -57q0 -15 -4 -27q-12 -51 -55 -81t-95 -30q-37 0 -70.5 16.5t-56.5 48.5l31 35q39 -36 69 -36q27 0 46 22t19 48q0 18 -11 29.5t-34 11.5
q-20 0 -53 -12l62 86q-91 6 -155.5 44.5t-74.5 93.5l113 36q5 -66 44 -97t118 -31q69 0 118.5 36t63.5 95q4 16 4 33q0 29 -16 46.5t-42 28.5t-79 27q-70 21 -119 43t-83 58t-34 88q0 16 5 38q13 56 65.5 102t130 73t163.5 27q67 0 123.5 -18t92.5 -50t43 -71l-113 -36
q-5 67 -43 97.5t-116 30.5q-70 0 -119 -35.5t-63 -94.5q-4 -16 -4 -32q0 -29 16 -46t42 -27.5t80 -26.5q108 -33 171.5 -75.5z" />
    <glyph glyph-name="scedilla" unicode="&#x15f;" horiz-adv-x="534" 
d="M394.5 258q38.5 -11 67.5 -35.5t29 -65.5q0 -16 -4 -32q-10 -38 -46.5 -70t-92 -51.5t-119.5 -22.5l-6 -9q47 -2 74.5 -24t27.5 -57q0 -15 -4 -27q-12 -51 -55 -81t-95 -30q-37 0 -70.5 16.5t-56.5 48.5l31 35q39 -36 69 -36q27 0 46 22t19 48q0 18 -11 29.5t-34 11.5
q-20 0 -53 -12l48 67q-71 8 -118 38.5t-48 69.5l124 21q-1 -6 -1 -17q0 -68 104 -68q53 0 82.5 18.5t36.5 56.5q1 5 1 13q0 22 -21.5 33t-80.5 21q-85 14 -139.5 41.5t-54.5 86.5q0 13 3 28q9 39 50.5 72.5t103.5 53t130 19.5q57 0 105 -15t76.5 -40.5t28.5 -55.5l-123 -21
q1 6 1 17q0 34 -24 52t-71 18q-62 0 -95 -24t-33 -70q0 -15 9 -23.5t29.5 -14.5t63.5 -14q58 -10 96.5 -21z" />
    <glyph glyph-name="Scaron" unicode="&#x160;" horiz-adv-x="710" 
d="M135.5 -3q-57.5 18 -94 50t-43.5 71l113 36q5 -66 44 -97t118 -31q69 0 118.5 36t63.5 95q4 16 4 33q0 29 -16 46.5t-42 28.5t-79 27q-70 21 -119 43t-83 58t-34 88q0 16 5 38q13 56 65.5 102t130 73t163.5 27q67 0 123.5 -18t92.5 -50t43 -71l-113 -36q-5 67 -43 97.5
t-116 30.5q-70 0 -119 -35.5t-63 -94.5q-4 -16 -4 -32q0 -29 16 -46t42 -27.5t80 -26.5q108 -33 171.5 -75.5t63.5 -116.5q0 -16 -5 -39q-13 -56 -65.5 -102t-130 -73t-163.5 -27q-67 0 -124.5 18zM308 908h66l96 -122l151 122h66l-140 -165h-175z" />
    <glyph glyph-name="scaron" unicode="&#x161;" horiz-adv-x="534" 
d="M100 -5q-49 15 -78 40.5t-29 55.5l124 21q-1 -6 -1 -17q0 -68 104 -68q53 0 82.5 18.5t36.5 56.5q1 5 1 13q0 22 -21.5 33t-80.5 21q-85 14 -139.5 41.5t-54.5 86.5q0 13 3 28q9 39 50.5 72.5t103.5 53t130 19.5q57 0 105 -15t76.5 -40.5t28.5 -55.5l-123 -21q1 6 1 17
q0 34 -24 52t-71 18q-62 0 -95 -24t-33 -70q0 -15 9 -23.5t29.5 -14.5t63.5 -14q58 -10 96.5 -21t67.5 -35.5t29 -65.5q0 -16 -4 -32q-10 -40 -50.5 -73t-101 -52.5t-128.5 -19.5q-58 0 -107 15zM202 656h66l96 -122l151 122h66l-140 -165h-175z" />
    <glyph glyph-name="uni0162" unicode="&#x162;" horiz-adv-x="734" 
d="M772 710l-13 -57h-243l-153 -663h-46l-21 -29q47 -2 74.5 -24t27.5 -57q0 -15 -4 -27q-12 -51 -55 -81t-95 -30q-37 0 -70.5 16.5t-56.5 48.5l31 35q39 -36 69 -36q27 0 46 22t19 48q0 18 -11 29.5t-34 11.5q-20 0 -53 -12l62 85h-41l153 663h-243l13 57h644z" />
    <glyph glyph-name="uni0163" unicode="&#x163;" horiz-adv-x="323" 
d="M172 171q-13 -57 -21 -96t-9 -50q9 0 27 15.5t41 44.5l40 -38q-25 -29 -67 -48.5t-82 -19.5h-2l-4 -6q47 -2 74.5 -24t27.5 -57q0 -15 -4 -27q-12 -51 -55 -81t-95 -30q-37 0 -70.5 16.5t-56.5 48.5l31 35q39 -36 69 -36q27 0 46 22t19 48q0 18 -11 29.5t-34 11.5
q-20 0 -53 -12l53 73q-38 18 -38 71q0 27 7 56l68 296h-51l11 47h51l40 171l167 56l-53 -227h109l-11 -47h-109z" />
    <glyph glyph-name="Tcaron" unicode="&#x164;" horiz-adv-x="734" 
d="M358 653h-243l13 57h644l-13 -57h-243l-153 -663h-158zM303 913h66l96 -122l151 122h66l-140 -165h-175z" />
    <glyph glyph-name="tcaron" unicode="&#x165;" horiz-adv-x="323" 
d="M23 -1q-25 20 -25 63q0 26 7 55l68 296h-51l11 47h51l40 171l167 56l-53 -227h109l-11 -47h-109l-55 -242q-13 -57 -21 -96t-9 -50q9 0 27 15.5t41 44.5l40 -38q-25 -29 -67 -48.5t-82 -19.5q-53 0 -78 20zM336 498q16 20 21 40l1 5q0 8 -12 20q-15 13 -21.5 23.5
t-6.5 22.5q0 7 3 18q6 28 31 47t55 19q25 0 41 -15t16 -39q0 -35 -26.5 -79t-69.5 -82z" />
    <glyph glyph-name="Tbar" unicode="&#x166;" horiz-adv-x="734" 
d="M516 653l-70 -302h109l-14 -59h-108l-70 -302h-158l70 302h-103l14 59h102l70 302h-243l13 57h644l-13 -57h-243z" />
    <glyph glyph-name="tbar" unicode="&#x167;" horiz-adv-x="323" 
d="M227 413l-8 -35h111l-12 -50h-110l-36 -157q-13 -57 -21 -96t-9 -50q9 0 27 15.5t41 44.5l40 -38q-25 -29 -67 -48.5t-82 -19.5q-53 0 -78 20t-25 63q0 26 7 55l48 211h-47l12 50h47l8 35h-51l11 47h51l40 171l167 56l-53 -227h109l-11 -47h-109z" />
    <glyph glyph-name="Umacron" unicode="&#x16a;" horiz-adv-x="714" 
d="M90.5 31.5q-66.5 51.5 -66.5 151.5q0 43 12 92l100 435h158l-103 -446q-12 -51 -12 -91q0 -137 136 -137q99 0 160.5 58t89.5 178l101 438h80l-101 -437q-33 -145 -124 -219t-236 -74q-128 0 -194.5 51.5zM317 836h374l-18 -79h-374z" />
    <glyph glyph-name="umacron" unicode="&#x16b;" horiz-adv-x="604" 
d="M58 13.5q-40 33.5 -40 102.5q0 34 11 81l60 263h154l-60 -263q-15 -63 -15 -101q0 -64 45 -64q37 0 77 28t72.5 74.5t48.5 101.5l51 224h154l-108 -470h-151l13 58q-42 -33 -90.5 -50.5t-98.5 -17.5q-83 0 -123 33.5zM188 591h374l-18 -79h-374z" />
    <glyph glyph-name="Uring" unicode="&#x16e;" horiz-adv-x="714" 
d="M90.5 31.5q-66.5 51.5 -66.5 151.5q0 43 12 92l100 435h158l-103 -446q-12 -51 -12 -91q0 -137 136 -137q99 0 160.5 58t89.5 178l101 438h80l-101 -437q-33 -145 -124 -219t-236 -74q-128 0 -194.5 51.5zM398 743q-28 27 -28 68q0 38 23 72t59 54.5t75 20.5q45 0 73 -27
t28 -68q0 -38 -23 -72t-59 -54.5t-75 -20.5q-45 0 -73 27zM538.5 794q25.5 27 25.5 60q0 22 -13.5 37.5t-32.5 15.5q-31 0 -57.5 -27t-26.5 -60q0 -23 13.5 -38t35.5 -15q30 0 55.5 27z" />
    <glyph glyph-name="uring" unicode="&#x16f;" horiz-adv-x="606" 
d="M58 13.5q-40 33.5 -40 102.5q0 34 11 81l60 263h154l-60 -263q-15 -63 -15 -101q0 -64 45 -64q37 0 77 28t72.5 74.5t48.5 101.5l51 224h154l-108 -470h-151l13 58q-42 -33 -90.5 -50.5t-98.5 -17.5q-83 0 -123 33.5zM294 512q-28 27 -28 68q0 38 23 72t59 54.5t75 20.5
q45 0 73 -27t28 -68q0 -38 -23 -72t-59 -54.5t-75 -20.5q-45 0 -73 27zM434.5 563q25.5 27 25.5 60q0 22 -13.5 37.5t-32.5 15.5q-31 0 -57.5 -27t-26.5 -60q0 -23 13.5 -38t35.5 -15q30 0 55.5 27z" />
    <glyph glyph-name="Uhungarumlaut" unicode="&#x170;" horiz-adv-x="714" 
d="M90.5 31.5q-66.5 51.5 -66.5 151.5q0 43 12 92l100 435h158l-103 -446q-12 -51 -12 -91q0 -137 136 -137q99 0 160.5 58t89.5 178l101 438h80l-101 -437q-33 -145 -124 -219t-236 -74q-128 0 -194.5 51.5zM491 890h132l-207 -165h-65zM654 890h131l-206 -165h-65z" />
    <glyph glyph-name="uhungarumlaut" unicode="&#x171;" horiz-adv-x="604" 
d="M58 13.5q-40 33.5 -40 102.5q0 34 11 81l60 263h154l-60 -263q-15 -63 -15 -101q0 -64 45 -64q37 0 77 28t72.5 74.5t48.5 101.5l51 224h154l-108 -470h-151l13 58q-42 -33 -90.5 -50.5t-98.5 -17.5q-83 0 -123 33.5zM389 672h132l-207 -165h-65zM552 672h131l-206 -165
h-65z" />
    <glyph glyph-name="Uogonek" unicode="&#x172;" horiz-adv-x="714" 
d="M746 710l-101 -437q-30 -133 -108 -206t-202 -85q-35 -31 -53 -64.5t-18 -61.5q0 -21 11 -34t31 -13q27 0 61 22l30 -21q-35 -37 -77 -56t-81 -19q-37 0 -61 18t-24 51q0 34 27 78t85 98q-119 4 -180 55.5t-61 148.5q0 46 11 91l100 435h158l-103 -446q-12 -51 -12 -91
q0 -137 136 -137q99 0 160.5 58t89.5 178l101 438h80z" />
    <glyph glyph-name="uogonek" unicode="&#x173;" horiz-adv-x="604" 
d="M410 -74.5q-18 -33.5 -18 -61.5q0 -21 11 -34t31 -13q27 0 61 22l30 -21q-34 -37 -76.5 -56t-80.5 -19t-62 18.5t-24 51.5q0 34 27.5 78.5t86.5 98.5h-39l13 58q-42 -33 -90.5 -50.5t-98.5 -17.5q-83 0 -123 33.5t-40 102.5q0 34 11 81l60 263h154l-60 -263
q-15 -63 -15 -101q0 -64 45 -64q37 0 77 28t72.5 74.5t48.5 101.5l51 224h154l-108 -470h-45q-35 -31 -53 -64.5z" />
    <glyph glyph-name="Wcircumflex" unicode="&#x174;" horiz-adv-x="1185" 
d="M103 710h162l83 -569l338 569h72l68 -568l344 568h79l-434 -720h-128l-62 484l-288 -484h-128zM665 886h175l64 -165h-66l-95 122l-152 -122h-66z" />
    <glyph glyph-name="wcircumflex" unicode="&#x175;" horiz-adv-x="785" 
d="M45 460h157l56 -322l190 322h75l41 -323l205 323h78l-297 -470h-123l-33 244l-143 -244h-123zM446 652h175l64 -165h-66l-95 122l-152 -122h-66z" />
    <glyph glyph-name="Ycircumflex" unicode="&#x176;" horiz-adv-x="733" 
d="M277 277l-175 433h168l139 -346l301 346h91l-362 -415l-70 -305h-158zM447 911h175l64 -165h-66l-95 122l-152 -122h-66z" />
    <glyph glyph-name="ycircumflex" unicode="&#x177;" horiz-adv-x="605" 
d="M74 -72q7 -40 44.5 -69t84.5 -29q54 0 99.5 43.5t66.5 135.5l9 37q-42 -32 -90 -49t-96 -17q-83 0 -123 33.5t-40 102.5q0 34 11 81l61 263h154l-61 -263q-15 -63 -15 -101q0 -64 45 -64q37 0 77 28t72.5 74.5t48.5 101.5l52 224h154l-104 -450q-18 -78 -68 -130
t-116 -76.5t-135 -24.5q-67 0 -119 22.5t-68 60.5zM329 653h175l64 -165h-66l-95 122l-152 -122h-66z" />
    <glyph glyph-name="Ydieresis" unicode="&#x178;" horiz-adv-x="733" 
d="M277 277l-175 433h168l139 -346l301 346h91l-362 -415l-70 -305h-158zM366.5 748.5q-16.5 14.5 -16.5 37.5q0 32 27.5 57t61.5 25q27 0 44 -15t17 -38q0 -33 -27 -57t-63 -24q-27 0 -43.5 14.5zM560.5 748.5q-16.5 14.5 -16.5 37.5q0 33 27.5 57t62.5 24q26 0 43 -14.5
t17 -37.5q0 -32 -28 -56.5t-62 -24.5q-27 0 -43.5 14.5z" />
    <glyph glyph-name="Zacute" unicode="&#x179;" horiz-adv-x="761" 
d="M-21 26l604 627h-448l13 57h642l-8 -36l-603 -627h447l-13 -57h-642zM569 916h133l-207 -165h-66z" />
    <glyph glyph-name="zacute" unicode="&#x17a;" horiz-adv-x="585" 
d="M-19 26l418 387h-321l11 47h518l-8 -36l-418 -387h326l-11 -47h-523zM441 655h133l-207 -165h-66z" />
    <glyph glyph-name="Zdotaccent" unicode="&#x17b;" horiz-adv-x="761" 
d="M-21 26l604 627h-448l13 57h642l-8 -36l-603 -627h447l-13 -57h-642zM431.5 778.5q-16.5 14.5 -16.5 37.5q0 33 27 57.5t61 24.5q27 0 43.5 -15t16.5 -38q0 -33 -27 -57t-62 -24q-26 0 -42.5 14.5z" />
    <glyph glyph-name="zdotaccent" unicode="&#x17c;" horiz-adv-x="585" 
d="M-19 26l418 387h-321l11 47h518l-8 -36l-418 -387h326l-11 -47h-523zM332.5 506.5q-16.5 14.5 -16.5 37.5q0 33 27 57.5t61 24.5q27 0 43.5 -15t16.5 -38q0 -33 -27 -57t-62 -24q-26 0 -42.5 14.5z" />
    <glyph glyph-name="Zcaron" unicode="&#x17d;" horiz-adv-x="761" 
d="M-21 26l604 627h-448l13 57h642l-8 -36l-603 -627h447l-13 -57h-642zM343 921h66l96 -122l151 122h66l-140 -165h-175z" />
    <glyph glyph-name="zcaron" unicode="&#x17e;" horiz-adv-x="595" 
d="M-19 26l418 387h-321l11 47h518l-8 -36l-418 -387h326l-11 -47h-523zM203 656h66l96 -122l151 122h66l-140 -165h-175z" />
    <glyph glyph-name="uni0218" unicode="&#x218;" horiz-adv-x="710" 
d="M135.5 -3q-57.5 18 -94 50t-43.5 71l113 36q5 -66 44 -97t118 -31q69 0 118.5 36t63.5 95q4 16 4 33q0 29 -16 46.5t-42 28.5t-79 27q-70 21 -119 43t-83 58t-34 88q0 16 5 38q13 56 65.5 102t130 73t163.5 27q67 0 123.5 -18t92.5 -50t43 -71l-113 -36q-5 67 -43 97.5
t-116 30.5q-70 0 -119 -35.5t-63 -94.5q-4 -16 -4 -32q0 -29 16 -46t42 -27.5t80 -26.5q108 -33 171.5 -75.5t63.5 -116.5q0 -16 -5 -39q-13 -56 -65.5 -102t-130 -73t-163.5 -27q-67 0 -124.5 18zM210 -227q16 20 21 40l1 5q0 8 -12 20q-15 13 -21.5 23.5t-6.5 22.5
q0 7 3 18q6 28 31 47t55 19q25 0 41 -15t16 -39q0 -35 -26.5 -79t-69.5 -82z" />
    <glyph glyph-name="uni0219" unicode="&#x219;" horiz-adv-x="534" 
d="M100 -5q-49 15 -78 40.5t-29 55.5l124 21q-1 -6 -1 -17q0 -68 104 -68q53 0 82.5 18.5t36.5 56.5q1 5 1 13q0 22 -21.5 33t-80.5 21q-85 14 -139.5 41.5t-54.5 86.5q0 13 3 28q9 39 50.5 72.5t103.5 53t130 19.5q57 0 105 -15t76.5 -40.5t28.5 -55.5l-123 -21q1 6 1 17
q0 34 -24 52t-71 18q-62 0 -95 -24t-33 -70q0 -15 9 -23.5t29.5 -14.5t63.5 -14q58 -10 96.5 -21t67.5 -35.5t29 -65.5q0 -16 -4 -32q-10 -40 -50.5 -73t-101 -52.5t-128.5 -19.5q-58 0 -107 15zM141 -235q16 20 21 40l1 5q0 8 -12 20q-15 13 -21.5 23.5t-6.5 22.5q0 7 3 18
q6 28 31 47t55 19q25 0 41 -15t16 -39q0 -35 -26.5 -79t-69.5 -82z" />
    <glyph glyph-name="uni021A" unicode="&#x21a;" horiz-adv-x="734" 
d="M358 653h-243l13 57h644l-13 -57h-243l-153 -663h-158zM210 -221q16 20 21 40l1 5q0 8 -12 20q-15 13 -21.5 23.5t-6.5 22.5q0 7 3 18q6 28 31 47t55 19q25 0 41 -15t16 -39q0 -35 -26.5 -79t-69.5 -82z" />
    <glyph glyph-name="uni021B" unicode="&#x21b;" horiz-adv-x="323" 
d="M23 -1q-25 20 -25 63q0 26 7 55l68 296h-51l11 47h51l40 171l167 56l-53 -227h109l-11 -47h-109l-55 -242q-13 -57 -21 -96t-9 -50q9 0 27 15.5t41 44.5l40 -38q-25 -29 -67 -48.5t-82 -19.5q-53 0 -78 20zM-1 -230q16 20 21 40l1 5q0 8 -12 20q-15 13 -21.5 23.5
t-6.5 22.5q0 7 3 18q6 28 31 47t55 19q25 0 41 -15t16 -39q0 -35 -26.5 -79t-69.5 -82z" />
    <glyph glyph-name="circumflex" unicode="&#x2c6;" horiz-adv-x="461" 
d="M162 894h175l64 -165h-66l-95 122l-152 -122h-66z" />
    <glyph glyph-name="caron" unicode="&#x2c7;" horiz-adv-x="461" 
d="M60 894h66l96 -122l151 122h66l-140 -165h-175z" />
    <glyph glyph-name="breve" unicode="&#x2d8;" horiz-adv-x="456" 
d="M96.5 746q-40.5 37 -40.5 100q0 27 7 54h53q-3 -15 -3 -27q0 -38 29 -58t84 -20q65 0 106.5 27.5t51.5 77.5h53q-18 -85 -82.5 -138t-148.5 -53q-69 0 -109.5 37z" />
    <glyph glyph-name="dotaccent" unicode="&#x2d9;" horiz-adv-x="238" 
d="M61.5 736.5q-16.5 14.5 -16.5 37.5q0 33 27 57.5t61 24.5q27 0 43.5 -15t16.5 -38q0 -33 -27 -57t-62 -24q-26 0 -42.5 14.5z" />
    <glyph glyph-name="ring" unicode="&#x2da;" horiz-adv-x="340" 
d="M69 741q-28 27 -28 68q0 38 23 72t59 54.5t75 20.5q45 0 73 -27t28 -68q0 -38 -23 -72t-59 -54.5t-75 -20.5q-45 0 -73 27zM209.5 792q25.5 27 25.5 60q0 22 -13.5 37.5t-32.5 15.5q-31 0 -57.5 -27t-26.5 -60q0 -23 13.5 -38t35.5 -15q30 0 55.5 27z" />
    <glyph glyph-name="ogonek" unicode="&#x2db;" horiz-adv-x="332" 
d="M196 -218q-42 -19 -81 -19q-37 0 -61 18t-24 51q0 39 37.5 93.5t117.5 119.5l35 -27q-39 -32 -59.5 -68t-20.5 -66q0 -21 11 -34t31 -13q27 0 61 22l30 -21q-35 -37 -77 -56z" />
    <glyph glyph-name="tilde" unicode="&#x2dc;" horiz-adv-x="471" 
d="M268.5 729q-23.5 9 -61.5 29q-28 16 -43.5 23t-29.5 7q-26 0 -40 -13.5t-18 -42.5h-50q15 73 45 107t81 34q24 0 46 -7.5t40.5 -16.5t23.5 -11q28 -14 44.5 -20.5t31.5 -6.5q23 0 39.5 14t17.5 36h50q-15 -73 -45 -107t-81 -34q-27 0 -50.5 9z" />
    <glyph glyph-name="hungarumlaut" unicode="&#x2dd;" horiz-adv-x="477" 
d="M161 893h132l-207 -165h-65zM324 893h131l-206 -165h-65z" />
    <glyph glyph-name="gravecomb" unicode="&#x300;" 
d="M-260 893h133l64 -165h-66z" />
    <glyph glyph-name="acutecomb" unicode="&#x301;" 
d="M-158 893h133l-207 -165h-66z" />
    <glyph glyph-name="uni0302" unicode="&#x302;" 
d="M-299 894h175l64 -165h-66l-95 122l-152 -122h-66z" />
    <glyph glyph-name="tildecomb" unicode="&#x303;" 
d="M-202.5 729q-23.5 9 -61.5 29q-28 16 -43.5 23t-29.5 7q-26 0 -40 -13.5t-18 -42.5h-50q15 73 45 107t81 34q24 0 46 -7.5t40.5 -16.5t23.5 -11q27 -14 44 -20.5t32 -6.5q23 0 39.5 14t17.5 36h50q-15 -73 -45 -107t-81 -34q-27 0 -50.5 9z" />
    <glyph glyph-name="uni0304" unicode="&#x304;" 
d="M-406 815h374l-18 -79h-374z" />
    <glyph glyph-name="uni0306" unicode="&#x306;" 
d="M-359.5 746q-40.5 37 -40.5 100q0 27 7 54h53q-3 -15 -3 -27q0 -38 29 -58t84 -20q65 0 106.5 27.5t51.5 77.5h53q-18 -85 -82.5 -138t-148.5 -53q-69 0 -109.5 37z" />
    <glyph glyph-name="uni0307" unicode="&#x307;" 
d="M-176.5 736.5q-16.5 14.5 -16.5 37.5q0 33 27 57.5t61 24.5q27 0 43.5 -15t16.5 -38q0 -33 -27 -57t-62 -24q-26 0 -42.5 14.5z" />
    <glyph glyph-name="uni0308" unicode="&#x308;" 
d="M-367.5 736.5q-16.5 14.5 -16.5 37.5q0 32 27.5 57t61.5 25q27 0 44 -15t17 -38q0 -33 -27 -57t-63 -24q-27 0 -43.5 14.5zM-173.5 736.5q-16.5 14.5 -16.5 37.5q0 33 27.5 57t62.5 24q26 0 43 -14.5t17 -37.5q0 -32 -28 -56.5t-62 -24.5q-27 0 -43.5 14.5z" />
    <glyph glyph-name="uni030A" unicode="&#x30a;" 
d="M-271 741q-28 27 -28 68q0 38 23 72t59 54.5t75 20.5q45 0 73 -27t28 -68q0 -38 -23 -72t-59 -54.5t-75 -20.5q-45 0 -73 27zM-130.5 792q25.5 27 25.5 60q0 22 -13.5 37.5t-32.5 15.5q-31 0 -57.5 -27t-26.5 -60q0 -23 13.5 -38t35.5 -15q30 0 55.5 27z" />
    <glyph glyph-name="uni030B" unicode="&#x30b;" 
d="M-316 894h132l-207 -165h-65zM-153 894h131l-206 -165h-65z" />
    <glyph glyph-name="uni030C" unicode="&#x30c;" 
d="M-401 894h66l96 -122l151 122h66l-140 -165h-175z" />
    <glyph glyph-name="uni0312" unicode="&#x312;" 
d="M-184 741q-16 15 -16 39q0 35 26.5 79t69.5 82l32 -20q-16 -20 -21 -40l-1 -5q0 -8 12 -20q15 -13 21.5 -23.5t6.5 -22.5q0 -7 -3 -18q-6 -28 -31 -47t-55 -19q-25 0 -41 15z" />
    <glyph glyph-name="uni0326" unicode="&#x326;" 
d="M-165 -249q16 20 21 40l1 5q0 8 -12 20q-15 13 -21.5 23.5t-6.5 22.5q0 7 3 18q6 28 31 47t55 19q25 0 41 -15t16 -39q0 -35 -26.5 -79t-69.5 -82z" />
    <glyph glyph-name="uni0327" unicode="&#x327;" 
d="M-181 -158q19 22 19 48q0 18 -11.5 29.5t-33.5 11.5q-21 0 -53 -12l79 109h71l-38 -53q47 -2 74.5 -24t27.5 -57q0 -15 -4 -27q-12 -51 -55 -81t-95 -30q-37 0 -70.5 16.5t-56.5 48.5l31 35q39 -36 69 -36q27 0 46 22z" />
    <glyph glyph-name="uni0328" unicode="&#x328;" 
d="M-136 -218q-42 -19 -81 -19q-37 0 -61 18t-24 51q0 39 37.5 93.5t117.5 119.5l35 -27q-39 -32 -59.5 -68t-20.5 -66q0 -21 11 -34t31 -13q27 0 61 22l30 -21q-35 -37 -77 -56z" />
    <glyph glyph-name="uni0335" unicode="&#x335;" 
d="M-403 338h369l-14 -59h-369z" />
    <glyph glyph-name="uni0336" unicode="&#x336;" 
d="M-460 338h427l-14 -59h-427z" />
    <glyph glyph-name="uni0337" unicode="&#x337;" 
d="M-51 530h81l-608 -580h-80z" />
    <glyph glyph-name="uni0338" unicode="&#x338;" 
d="M-28 687h80l-755 -749h-79z" />
    <glyph glyph-name="Wgrave" unicode="&#x1e80;" horiz-adv-x="1185" 
d="M103 710h162l83 -569l338 569h72l68 -568l344 568h79l-434 -720h-128l-62 484l-288 -484h-128zM554 903h133l64 -165h-66z" />
    <glyph glyph-name="wgrave" unicode="&#x1e81;" horiz-adv-x="785" 
d="M45 460h157l56 -322l190 322h75l41 -323l205 323h78l-297 -470h-123l-33 244l-143 -244h-123zM327 651h133l64 -165h-66z" />
    <glyph glyph-name="Wacute" unicode="&#x1e82;" horiz-adv-x="1185" 
d="M103 710h162l83 -569l338 569h72l68 -568l344 568h79l-434 -720h-128l-62 484l-288 -484h-128zM778 904h133l-207 -165h-66z" />
    <glyph glyph-name="wacute" unicode="&#x1e83;" horiz-adv-x="785" 
d="M45 460h157l56 -322l190 322h75l41 -323l205 323h78l-297 -470h-123l-33 244l-143 -244h-123zM539 654h133l-207 -165h-66z" />
    <glyph glyph-name="Wdieresis" unicode="&#x1e84;" horiz-adv-x="1185" 
d="M103 710h162l83 -569l338 569h72l68 -568l344 568h79l-434 -720h-128l-62 484l-288 -484h-128zM576.5 748.5q-16.5 14.5 -16.5 37.5q0 32 27.5 57t61.5 25q27 0 44 -15t17 -38q0 -33 -27 -57t-63 -24q-27 0 -43.5 14.5zM770.5 748.5q-16.5 14.5 -16.5 37.5q0 33 27.5 57
t62.5 24q26 0 43 -14.5t17 -37.5q0 -32 -28 -56.5t-62 -24.5q-27 0 -43.5 14.5z" />
    <glyph glyph-name="wdieresis" unicode="&#x1e85;" horiz-adv-x="785" 
d="M45 460h157l56 -322l190 322h75l41 -323l205 323h78l-297 -470h-123l-33 244l-143 -244h-123zM353.5 502.5q-16.5 14.5 -16.5 37.5q0 32 27.5 57t61.5 25q27 0 44 -15t17 -38q0 -33 -27 -57t-63 -24q-27 0 -43.5 14.5zM547.5 502.5q-16.5 14.5 -16.5 37.5q0 33 27.5 57
t62.5 24q26 0 43 -14.5t17 -37.5q0 -32 -28 -56.5t-62 -24.5q-27 0 -43.5 14.5z" />
    <glyph glyph-name="Ygrave" unicode="&#x1ef2;" horiz-adv-x="733" 
d="M277 277l-175 433h168l139 -346l301 346h91l-362 -415l-70 -305h-158zM341 893h133l64 -165h-66z" />
    <glyph glyph-name="ygrave" unicode="&#x1ef3;" horiz-adv-x="605" 
d="M74 -72q7 -40 44.5 -69t84.5 -29q54 0 99.5 43.5t66.5 135.5l9 37q-42 -32 -90 -49t-96 -17q-83 0 -123 33.5t-40 102.5q0 34 11 81l61 263h154l-61 -263q-15 -63 -15 -101q0 -64 45 -64q37 0 77 28t72.5 74.5t48.5 101.5l52 224h154l-104 -450q-18 -78 -68 -130
t-116 -76.5t-135 -24.5q-67 0 -119 22.5t-68 60.5zM221 655h133l64 -165h-66z" />
    <glyph glyph-name="endash" unicode="&#x2013;" horiz-adv-x="682" 
d="M73 263h590l-14 -59h-590z" />
    <glyph glyph-name="emdash" unicode="&#x2014;" horiz-adv-x="1071" 
d="M63 263h999l-14 -59h-999z" />
    <glyph glyph-name="quoteleft" unicode="&#x2018;" horiz-adv-x="257" 
d="M83 539q-16 15 -16 39q0 35 26.5 79t69.5 82l32 -20q-16 -20 -21 -40l-1 -5q0 -8 12 -20q15 -13 21.5 -23.5t6.5 -22.5q0 -7 -3 -18q-6 -28 -31 -47t-55 -19q-25 0 -41 15z" />
    <glyph glyph-name="quoteright" unicode="&#x2019;" horiz-adv-x="257" 
d="M102 539q16 20 21 40l1 5q0 8 -12 20q-15 13 -21.5 23.5t-6.5 22.5q0 8 3 18q6 28 31 47t55 19q25 0 41 -15t16 -39q0 -35 -26.5 -79t-69.5 -82z" />
    <glyph glyph-name="quotesinglbase" unicode="&#x201a;" horiz-adv-x="257" 
d="M102 -76q16 20 21 40l1 5q0 8 -12 20q-15 13 -21.5 23.5t-6.5 22.5q0 8 3 18q6 28 31 47t55 19q26 0 41.5 -15.5t15.5 -39.5q0 -35 -26.5 -79t-69.5 -81z" />
    <glyph glyph-name="quotedblleft" unicode="&#x201c;" horiz-adv-x="412" 
d="M78 538.5q-16 14.5 -16 38.5q0 35 27.5 80.5t70.5 81.5l30 -20q-16 -20 -21 -40l-1 -5q0 -7 13 -20q15 -13 21.5 -24t6.5 -23q0 -11 -2 -17q-6 -28 -31.5 -47t-56.5 -19q-25 0 -41 14.5zM244.5 536q-15.5 12 -17.5 31q-1 4 -1 11q0 36 27 80.5t70 80.5l29 -20
q-14 -22 -19 -40l-1 -5q0 -8 12 -20q15 -13 21.5 -23.5t6.5 -22.5q0 -7 -3 -18q-6 -28 -31 -47t-55 -19q-23 0 -38.5 12z" />
    <glyph glyph-name="quotedblright" unicode="&#x201d;" horiz-adv-x="412" 
d="M100 539q14 22 19 40l1 5q0 8 -12 20q-15 13 -21.5 23.5t-6.5 22.5q0 8 3 18q6 28 31 47t55 19q23 0 38.5 -12t17.5 -31q1 -4 1 -11q0 -36 -27 -80.5t-70 -80.5zM262 539q16 20 21 40l1 5q0 7 -13 20q-15 13 -21.5 24t-6.5 23q0 11 2 17q6 28 31.5 47t56.5 19
q25 0 41 -14.5t16 -38.5q0 -35 -27.5 -80.5t-70.5 -81.5z" />
    <glyph glyph-name="quotedblbase" unicode="&#x201e;" horiz-adv-x="412" 
d="M100 -76q14 22 19 40l1 5q0 8 -12 20q-15 13 -21.5 23.5t-6.5 22.5q0 8 3 18q6 28 31 47t55 19q23 0 38.5 -12t17.5 -31q1 -4 1 -11q0 -36 -27 -80.5t-70 -80.5zM262 -76q16 20 21 40l1 5q0 7 -13 20q-15 13 -21.5 24t-6.5 23q0 11 2 17q6 28 31.5 47t56.5 19
q25 0 41 -14.5t16 -38.5q0 -35 -27.5 -80.5t-70.5 -81.5z" />
    <glyph glyph-name="dagger" unicode="&#x2020;" horiz-adv-x="549" 
d="M185 58l91 457l-109 -23l-50 46l71 46l111 -26l27 70l2 27l11 20q-22 13 -22 39q0 27 23.5 47.5t53.5 20.5q22 0 35.5 -12.5t13.5 -32.5q0 -18 -11.5 -34t-30.5 -26l2 -22l-12 -27l-5 -70l120 26l61 -46l-82 -46l-96 22l-119 -455l-80 -169h-5v168z" />
    <glyph glyph-name="daggerdbl" unicode="&#x2021;" horiz-adv-x="483" 
d="M118.5 -149.5q-12.5 11.5 -12.5 28.5q0 16 10.5 29.5t27.5 22.5l-1 14l5 22l-3 22l1 45l-3 -12l-89 -18l-45 40l63 39l82 -18l72 247l42 248l-89 -18l-45 39l63 40l89 -21l21 56l6 24l7 14q-19 11 -19 32q0 23 20.5 41.5t46.5 18.5q19 0 31 -11.5t12 -28.5
q0 -16 -10.5 -29.5t-26.5 -22.5v-14l-6 -24l-3 -55l-13 -3l110 23l51 -40l-69 -39l-80 17l-72 -247l-42 -246l88 17l52 -39l-70 -40l-78 17l3 13l-21 -45l-14 -22l-5 -22l-6 -15q15 -9 15 -30q0 -25 -19 -43t-44 -18q-20 0 -32.5 11.5z" />
    <glyph glyph-name="bullet" unicode="&#x2022;" horiz-adv-x="363" 
d="M100 219q-29 27 -29 69q0 38 23 72.5t60 55.5t76 21q45 0 73.5 -26.5t28.5 -68.5q0 -38 -23 -73t-59.5 -56t-75.5 -21q-45 0 -74 27z" />
    <glyph glyph-name="ellipsis" unicode="&#x2026;" horiz-adv-x="673" 
d="M81 -3.5q-16 14.5 -16 37.5q0 31 27 55t61 24q25 0 41.5 -14.5t16.5 -37.5q0 -31 -27.5 -55t-60.5 -24q-26 0 -42 14.5zM300 -3.5q-16 14.5 -16 37.5q0 31 27 55t61 24q25 0 41 -14.5t16 -36.5q0 -32 -26.5 -56t-60.5 -24q-26 0 -42 14.5zM519 -3.5q-16 14.5 -16 37.5
q0 31 27 55t61 24q25 0 41.5 -14t16.5 -36q0 -33 -27 -57t-61 -24q-26 0 -42 14.5z" />
    <glyph glyph-name="perthousand" unicode="&#x2030;" horiz-adv-x="1071" 
d="M657 669q-51 -11 -105 -11q-52 0 -100 9q15 -28 15 -60q0 -20 -4 -37q-11 -46 -43.5 -85t-78 -61.5t-94.5 -22.5q-64 0 -104 37.5t-40 95.5q0 19 4 36q10 46 43 84.5t79 61t95 22.5h2q21 0 41.5 -5t33.5 -12q47 -12 82.5 -18t71.5 -6q77 0 161 31h84l-709 -756h-88z
M295.5 481q23.5 40 35.5 89q7 30 7 65q0 28 -5 46.5t-16 18.5q-16 0 -39.5 -40.5t-34.5 -89.5q-8 -31 -8 -65q0 -28 6 -46t16 -18q15 0 38.5 40zM348.5 0q-39.5 37 -39.5 95q0 20 4 37q10 46 43 84.5t79 61t94 22.5q57 0 96 -31.5t47 -80.5q30 49 83 80.5t110 31.5
q63 0 103.5 -38t40.5 -95q0 -19 -4 -35q-11 -47 -43.5 -85.5t-78.5 -61t-95 -22.5q-58 0 -96.5 31t-45.5 81q-30 -50 -82.5 -81t-111.5 -31q-64 0 -103.5 37zM500.5 42.5q23.5 40.5 35.5 89.5q7 31 7 63q0 29 -6 47.5t-16 18.5q-9 0 -24 -18.5t-28.5 -48.5t-20.5 -62
q-8 -37 -8 -64q0 -29 6 -47.5t16 -18.5q15 0 38.5 40.5zM836.5 42.5q23.5 40.5 35.5 89.5q7 31 7 63q0 29 -6 47.5t-16 18.5q-9 0 -24 -18.5t-28.5 -48.5t-20.5 -62q-8 -37 -8 -64q0 -29 6 -47.5t16 -18.5q15 0 38.5 40.5z" />
    <glyph glyph-name="guilsinglleft" unicode="&#x2039;" horiz-adv-x="501" 
d="M70 337l466 281l-18 -77l-330 -204l236 -204l-18 -77z" />
    <glyph glyph-name="guilsinglright" unicode="&#x203a;" horiz-adv-x="501" 
d="M23 133l330 204l-236 204l18 77l336 -281l-466 -281z" />
    <glyph glyph-name="fraction" unicode="&#x2044;" horiz-adv-x="806" 
d="M767 803h98l-826 -974h-98z" />
    <glyph glyph-name="Euro" unicode="&#x20ac;" horiz-adv-x="916" 
d="M322.5 15q-76.5 35 -118 99t-41.5 148h-112l41 53h74l4 17l3 17l4 18h-83l43 53h59q36 88 108 155.5t167.5 105t199.5 37.5q66 0 125 -19.5t97.5 -52t44.5 -69.5l-104 -35q-11 68 -50.5 101.5t-111.5 33.5q-100 0 -186 -69.5t-131 -187.5h324l-44 -53h-297l-4 -16
q-1 -4 -2 -8.5t-1 -10.5l-4 -17h303l-44 -53h-264q-4 -113 48.5 -177t148.5 -64q143 0 224 135l88 -35q-23 -37 -76 -69.5t-121 -52t-134 -19.5q-101 0 -177.5 35z" />
    <glyph glyph-name="trademark" unicode="&#x2122;" horiz-adv-x="837" 
d="M223 808h-127l8 34h326l-8 -34h-126l-76 -332h-73zM441 842h69l84 -275l195 275h68l-84 -366h-73l59 256l-182 -256h-35l-81 263l-60 -263h-44z" />
    <glyph glyph-name="oneeighth" unicode="&#x215b;" horiz-adv-x="914" 
d="M238 774l142 115l-138 -598h-116zM766 801h98l-827 -974h-98zM451 26.5q40 42.5 105 80.5q-60 61 -60 111q0 6 2 20q10 42 42 72.5t75.5 46t87.5 15.5q55 0 92.5 -23.5t37.5 -67.5q0 -41 -33.5 -82.5t-98.5 -78.5q45 -42 69.5 -75t24.5 -69q0 -10 -3 -22
q-10 -45 -46 -77.5t-85.5 -48.5t-101.5 -16q-68 0 -114.5 27t-46.5 76q0 11 3 25q10 44 50 86.5zM727.5 198q21.5 25 28.5 57q3 12 3 21q0 29 -18 44.5t-45 15.5q-30 0 -56.5 -20.5t-35.5 -56.5q-2 -12 -2 -16q0 -25 16.5 -46t47.5 -47q40 23 61.5 48zM687 -53
q0 26 -18.5 49.5t-40.5 42.5t-28 25l-12 12q-90 -57 -108 -134q-3 -11 -3 -21q0 -33 26 -51t64 -18q41 0 75.5 21.5t43.5 59.5q1 5 1 14z" />
    <glyph glyph-name="threeeighths" unicode="&#x215c;" horiz-adv-x="1015" 
d="M126 323.5q-44 25.5 -56 67.5l80 47q1 -53 19 -77t57 -24q49 0 87.5 36.5t52.5 97.5q6 27 6 48q0 34 -14.5 51.5t-42.5 17.5l-23 -2l-36 -2l7 39q5 -2 17 -2q32 0 60.5 29.5t38.5 73.5q5 23 5 41q0 9 -2 23q-5 20 -14.5 28t-28.5 8q-39 0 -66 -30.5t-37 -88.5l-79 22
q28 63 83 99.5t122 36.5q62 0 99 -28t37 -74q0 -42 -25 -77t-71 -61q42 -12 65.5 -41t23.5 -68q0 -17 -4 -32q-12 -54 -49 -95.5t-92 -65t-118 -23.5q-58 0 -102 25.5zM884 802h98l-827 -974h-98zM558.5 28q39.5 43 103.5 80q-31 31 -45 57.5t-14 52.5q0 13 2 20
q10 42 42 73t75.5 46.5t87.5 15.5q55 0 92.5 -24t37.5 -68q0 -41 -34 -82t-99 -78q45 -40 69.5 -74.5t24.5 -70.5q0 -14 -2 -21q-10 -45 -46 -77.5t-86 -48.5t-101 -16q-68 0 -114.5 27t-46.5 76q0 11 3 25q11 44 50.5 87zM833 199q21 25 29 57q3 12 3 22q0 28 -17.5 43.5
t-43.5 15.5q-31 0 -57.5 -20.5t-35.5 -57.5q-2 -12 -2 -16q0 -24 16 -44.5t47 -47.5q40 23 61 48zM794 -52q0 25 -18 48t-40 42.5t-29 26.5l-12 11q-89 -54 -109 -133q-3 -12 -3 -21q0 -33 26 -51t64 -18q41 0 75.5 21.5t43.5 59.5q2 10 2 14z" />
    <glyph glyph-name="fiveeighths" unicode="&#x215d;" horiz-adv-x="1000" 
d="M118.5 318.5q-42.5 26.5 -46.5 66.5l83 43q-4 -49 13.5 -74.5t52.5 -25.5q45 0 92 48q14 14 26.5 40.5t19.5 54.5q6 26 6 47q0 45 -22 71t-61 26q-31 0 -68 -16.5t-90 -53.5l69 301h360l-19 -83h-284l-28 -120q48 16 92 16q50 0 89 -18.5t61 -50.5t22 -72q0 -18 -4 -33
q-17 -72 -89 -133q-31 -26 -79.5 -43t-94.5 -17q-58 0 -100.5 26.5zM869 803h97l-827 -975h-97zM533.5 16q41.5 50 115.5 92q-59 60 -59 111q0 13 2 20q15 63 75 98.5t129 35.5q55 0 92.5 -23.5t37.5 -67.5q0 -42 -33.5 -82.5t-98.5 -77.5q45 -41 69.5 -75.5t24.5 -70.5
q0 -14 -2 -21q-10 -45 -46 -77.5t-86 -48.5t-101 -16q-68 0 -114.5 27.5t-46.5 76.5t41.5 99zM820 199q21 25 29 58q3 12 3 21q0 28 -18 43.5t-44 15.5q-31 0 -58 -20t-35 -57q-2 -12 -2 -16q0 -25 16.5 -46t47.5 -47q40 23 61 48zM780 -52q0 26 -18.5 49.5t-40.5 42.5
t-28 25l-12 12q-43 -27 -70.5 -61t-37.5 -73q-3 -11 -3 -21q0 -33 26 -51t64 -18q41 0 75.5 21.5t43.5 59.5q1 5 1 14z" />
    <glyph glyph-name="seveneighths" unicode="&#x215e;" horiz-adv-x="914" 
d="M225 515q73 110 187 257h-247l19 83h365q-108 -135 -188 -277t-113 -269h-130q34 96 107 206zM770 802h98l-827 -974h-98zM455 27.5q40 42.5 105 80.5q-60 61 -60 111q0 7 2 19q10 43 42 73.5t75 46t87 15.5q56 0 93.5 -24t37.5 -68q0 -10 -3 -24q-8 -35 -41 -70t-88 -66
q45 -40 69.5 -74.5t24.5 -70.5q0 -14 -2 -21q-11 -45 -46.5 -77.5t-85.5 -48.5t-102 -16q-68 0 -114.5 27t-46.5 76q0 11 3 25q10 44 50 86.5zM731.5 199q21.5 25 28.5 57q3 12 3 21q0 29 -18 44.5t-44 15.5q-31 0 -57.5 -20.5t-35.5 -57.5q-2 -12 -2 -16q0 -24 16 -45
t48 -47q40 23 61.5 48zM691 -52q0 25 -18 48t-40 42.5t-29 26.5l-13 11q-87 -55 -107 -133q-3 -11 -3 -21q0 -33 26 -51t64 -18q41 0 75.5 21.5t43.5 59.5q1 5 1 14z" />
    <glyph glyph-name="arrowleft" unicode="&#x2190;" horiz-adv-x="838" 
d="M58 289l8 38l303 147l-13 -56l-142 -79h609l-14 -62h-609l106 -79l-13 -56z" />
    <glyph glyph-name="arrowup" unicode="&#x2191;" horiz-adv-x="436" 
d="M252 529l-91 -106h-63l200 259h52l80 -259h-63l-41 106l-137 -591h-74z" />
    <glyph glyph-name="arrowright" unicode="&#x2192;" horiz-adv-x="838" 
d="M522 198l142 79h-609l14 62h609l-106 79l13 56l235 -147l-8 -38l-303 -147z" />
    <glyph glyph-name="arrowdown" unicode="&#x2193;" horiz-adv-x="436" 
d="M46 194h62l42 -106l137 591h74l-137 -591l92 106h62l-200 -259h-52z" />
    <glyph glyph-name="arrowboth" unicode="&#x2194;" horiz-adv-x="994" 
d="M54 358l8 38l304 147l-13 -56l-142 -79h626l-106 79l13 56l236 -147l-8 -38l-304 -147l13 56l142 79h-626l106 -79l-13 -56z" />
    <glyph glyph-name="arrowupdn" unicode="&#x2195;" horiz-adv-x="436" 
d="M27 183h62l43 -106l138 600l-91 -106h-62l200 260h52l80 -260h-62l-43 106l-138 -600l91 106h62l-200 -260h-52z" />
    <glyph glyph-name="uni2196" unicode="&#x2196;" horiz-adv-x="664" 
d="M200 442l-1 -127l-55 -45l-19 287l39 32l268 -85l-47 -38l-130 31l328 -426l-60 -49z" />
    <glyph glyph-name="uni2197" unicode="&#x2197;" horiz-adv-x="664" 
d="M-22 47l578 469l-158 -34l-33 42l338 93l27 -35l-167 -316l-39 50l65 140l-569 -462z" />
    <glyph glyph-name="uni2198" unicode="&#x2198;" horiz-adv-x="664" 
d="M272 112l47 38l130 -31l-328 426l60 49l323 -420l1 127l55 45l19 -287l-39 -32z" />
    <glyph glyph-name="uni2199" unicode="&#x2199;" horiz-adv-x="664" 
d="M9 59l151 287l35 -45l-59 -127l517 420l38 -49l-524 -426l144 31l29 -38l-306 -85z" />
    <glyph glyph-name="partialdiff" unicode="&#x2202;" horiz-adv-x="636" 
d="M87 14q-57 52 -57 138q0 28 8 63q17 74 64 132.5t114.5 92t142.5 33.5q69 0 116 -35q4 32 4 67q0 84 -28 129t-80 45q-32 0 -62.5 -23.5t-72.5 -79.5l-23 75h-1q37 32 87.5 51.5t99.5 19.5q107 0 164.5 -68t57.5 -190q0 -71 -19 -151q-18 -81 -68 -162t-125.5 -135
t-167.5 -54q-97 0 -154 52zM325.5 46.5q40.5 42.5 75 113.5t53.5 153l2 6q-31 113 -96 113q-34 0 -70.5 -30t-65.5 -81t-43 -111q-10 -41 -10 -82q0 -56 21.5 -90t58.5 -34q34 0 74.5 42.5z" />
    <glyph glyph-name="emptyset" unicode="&#x2205;" horiz-adv-x="715" 
d="M129 5q-35 34 -53.5 78.5t-18.5 95.5q0 32 8 69q20 85 78 155.5t139 111.5t167 41q42 0 80.5 -11.5t68.5 -31.5l112 122h64l-139 -152q63 -66 63 -165q0 -38 -8 -70q-19 -84 -77 -155t-139 -112t-167 -41q-73 0 -134 32l-101 -112h-75zM560 471q-53 37 -122 37
t-135.5 -34.5t-114 -94.5t-64.5 -131q-7 -29 -7 -60q0 -42 13.5 -78t38.5 -62zM453.5 23.5q66.5 34.5 114 94t63.5 130.5q7 29 7 62q0 77 -42 128l-384 -423q46 -26 106 -26q69 0 135.5 34.5z" />
    <glyph glyph-name="product" unicode="&#x220f;" horiz-adv-x="681" 
d="M230 633h-85l22 98h589l-22 -98h-79l-180 -781h-89l180 781h-247l-180 -781h-89z" />
    <glyph glyph-name="summation" unicode="&#x2211;" horiz-adv-x="603" 
d="M-16 -85l358 366l-188 374l18 76h507l-20 -85h-399l165 -335l-15 -70l-319 -326h400l-20 -85h-507z" />
    <glyph glyph-name="minus" unicode="&#x2212;" horiz-adv-x="627" 
d="M74 358h533l-14 -59h-533z" />
    <glyph glyph-name="radical" unicode="&#x221a;" horiz-adv-x="760" 
d="M61 281h139l29 -295l424 745h184l-52 -98h-107l-443 -774h-128z" />
    <glyph glyph-name="infinity" unicode="&#x221e;" horiz-adv-x="890" 
d="M514.5 117.5q-40.5 33.5 -65.5 90.5q-59 -56 -117 -89.5t-122 -33.5q-78 0 -117 40t-39 103q0 57 32.5 114.5t91 95t134.5 37.5q68 0 106.5 -31t61.5 -85q58 54 113.5 85.5t117.5 30.5q80 -1 121.5 -44.5t41.5 -109.5q0 -56 -30.5 -111t-87 -90.5t-130.5 -35.5
q-71 0 -111.5 33.5zM307 205.5q44 31.5 111 95.5q-22 65 -45.5 98t-62.5 33q-47 0 -84 -27t-57.5 -68.5t-20.5 -80.5q0 -36 19 -59t55 -23q41 0 85 31.5zM710.5 153q34.5 25 53 64t18.5 77q0 40 -20.5 66.5t-61.5 26.5q-40 0 -82 -29.5t-106 -90.5q21 -69 46.5 -104
t72.5 -35q45 0 79.5 25z" />
    <glyph glyph-name="integral" unicode="&#x222b;" horiz-adv-x="586" 
d="M-16 -120q12 -4 27 -4q50 0 88 54t66.5 136.5t68.5 226.5q47 169 87 273.5t107 179t166 74.5q36 0 75 -10l-29 -32q-21 7 -34 7q-47 0 -84 -52.5t-65 -132.5t-69 -222q-49 -172 -90.5 -278.5t-111.5 -183t-173 -76.5q-27 0 -57 6z" />
    <glyph glyph-name="approxequal" unicode="&#x2248;" horiz-adv-x="629" 
d="M93 452q67 52 134 52q35 0 66.5 -11.5t74.5 -33.5q41 -21 69 -31.5t58 -10.5q67 0 138 68l-20 -83q-66 -52 -132 -52q-34 0 -65 11.5t-76 34.5q-41 21 -69 31.5t-58 10.5q-66 0 -139 -69zM56 277q66 52 132 52q34 0 65 -11.5t76 -34.5q41 -21 69 -31.5t58 -10.5
q66 0 139 69l-19 -83q-67 -52 -134 -52q-35 0 -66.5 11.5t-74.5 33.5q-41 21 -69 31.5t-58 10.5q-67 0 -138 -68z" />
    <glyph glyph-name="notequal" unicode="&#x2260;" horiz-adv-x="627" 
d="M249 211h-205l13 60h231l78 117h-282l14 59h308l160 240h71l-160 -240h154l-14 -59h-180l-77 -117h230l-13 -60h-256l-183 -273h-72z" />
    <glyph glyph-name="lessequal" unicode="&#x2264;" horiz-adv-x="574" 
d="M68 315l17 75l532 239l-18 -75l-452 -201l359 -203l-17 -73zM11 69h476l-14 -60h-476z" />
    <glyph glyph-name="greaterequal" unicode="&#x2265;" horiz-adv-x="574" 
d="M30 150l453 203l-360 201l18 75l420 -239l-17 -75l-531 -238zM11 69h476l-14 -60h-476z" />
    <glyph glyph-name="lozenge" unicode="&#x25ca;" horiz-adv-x="551" 
d="M69 278l256 317h87l110 -318l-256 -316h-87zM423 277l-76 225l-180 -224l76 -224z" />
    <glyph glyph-name="A.ss01" unicode="&#xe000;" horiz-adv-x="830" 
d="M142 20.5q-63 39.5 -92 103.5t-29 139q0 43 9 85q25 107 91 191.5t159.5 132.5t197.5 48q69 0 121.5 -21.5t86.5 -62.5l17 74h158l-166 -720h-158l18 80q-52 -42 -118.5 -65.5t-135.5 -23.5q-96 0 -159 39.5zM515 111q68 78 106 242v2q20 89 20 149q0 87 -39 128.5
t-119 41.5q-66 0 -123 -38.5t-99.5 -110.5t-64.5 -170q-13 -58 -13 -114q0 -95 38 -155.5t119 -57.5q107 5 175 83z" />
    <glyph glyph-name="E.ss01" unicode="&#xe001;" horiz-adv-x="936" 
d="M207 15q-80 35 -122.5 99t-42.5 150q0 42 10 85q24 105 98 190t181 133t226 48q102 0 178.5 -36t117.5 -100.5t41 -149.5q0 -42 -13 -96h-667q-9 -45 -9 -86q0 -103 54.5 -164.5t148.5 -61.5q102 0 172.5 42.5t134.5 141.5l91 -43q-69 -87 -178.5 -137t-232.5 -50
q-108 0 -188 35zM725 385q6 36 6 69q0 102 -50 162t-137 60q-67 0 -130 -37t-112 -103t-75 -151h498z" />
    <glyph glyph-name="K.ss01" unicode="&#xe002;" horiz-adv-x="705" 
d="M519 -24q-68 0 -107.5 24t-57 58t-34.5 86q-16 50 -28.5 79t-34.5 51.5t-56 29.5l-72 -314h-158l166 720h158l-70 -303l439 303h93l-508 -351q89 -9 140 -44.5t71.5 -78t37.5 -105.5q12 -46 21 -69t21.5 -33.5t33.5 -10.5q19 0 46 7l-7 -39q-51 -10 -94 -10z" />
    <glyph glyph-name="M.ss01" unicode="&#xe003;" horiz-adv-x="1124" 
d="M134 710h158l-20 -87q54 47 118 72.5t124 25.5q54 0 95 -22t59 -66q8 -24 9 -35q56 58 128.5 90.5t139.5 32.5q54 0 95 -22t58 -66q13 -34 13 -68q0 -40 -18 -120l-105 -455h-158l106 462q21 87 21 126q0 15 -3 22q-9 33 -28 49t-45 16q-41 0 -88.5 -37t-87 -100
t-56.5 -139l-92 -399h-158l106 462q21 87 21 126q0 15 -3 22q-9 33 -28 49t-45 16q-41 0 -88.5 -37t-87 -100t-56.5 -139l-92 -399h-158z" />
    <glyph glyph-name="N.ss01" unicode="&#xe004;" horiz-adv-x="743" 
d="M134 710h158l-21 -92q56 48 125 75.5t136 27.5q69 0 119 -29.5t64 -76.5q9 -33 9 -69q0 -48 -16 -119l-101 -437h-158l102 444q21 90 21 138q0 9 -2 21q-19 82 -83 82q-58 0 -112.5 -36t-95.5 -100.5t-60 -144.5l-93 -404h-158z" />
    <glyph glyph-name="Q.ss01" unicode="&#xe005;" horiz-adv-x="952" 
d="M523 -6q-58 -14 -121 -14q-104 0 -183 36.5t-122 101.5t-43 150q0 34 10 81q25 105 99.5 190t182.5 133t228 48q104 0 183 -36.5t122 -102t43 -150.5q0 -42 -10 -82q-25 -109 -101.5 -193.5t-194.5 -132.5l187 -59l-53 -94zM558.5 68q68.5 41 119 114.5t71.5 166.5
q12 51 12 97q0 102 -53.5 164.5t-144.5 62.5q-74 0 -143.5 -42t-120.5 -116t-72 -166q-12 -52 -12 -98q0 -102 53.5 -163t145.5 -61q76 0 144.5 41z" />
    <glyph glyph-name="R.ss01" unicode="&#xe006;" horiz-adv-x="749" 
d="M542 -24q-66 0 -100.5 22.5t-46 54t-16.5 80.5q-10 56 -19 84.5t-33 49.5t-70 23h-59l-69 -300h-158l166 720h331q128 0 199 -44.5t71 -122.5q0 -18 -5 -43q-19 -82 -93.5 -136t-190.5 -69q52 -29 74 -69.5t31 -118.5q5 -50 19 -70t40 -20q13 0 33 5l-5 -36
q-56 -10 -99 -10zM381 334q80 0 124.5 39t64.5 127q9 39 9 67q0 52 -29 75.5t-92 23.5h-173l-77 -332h173z" />
    <glyph glyph-name="T_h" unicode="&#xe007;" horiz-adv-x="1151" 
d="M362 663h-256l11 47h738l-71 -306q41 32 89.5 49t97.5 17q83 0 123 -33.5t40 -102.5q0 -34 -11 -81l-61 -263h-154l61 263q14 59 14 101q0 33 -10.5 48.5t-33.5 15.5q-37 0 -77 -28t-72.5 -75t-48.5 -101l-52 -224h-154l155 673h-174l-155 -673h-154z" />
    <glyph glyph-name="c_b" unicode="&#xe008;" horiz-adv-x="1211" 
d="M777 -11q-33 9 -56 25l-5 -24h-154l130 565q5 25 5 40q0 37 -18 57t-46 20q-34 0 -66 -29.5t-43 -79.5q-5 -25 -5 -44q0 -44 11 -73.5t23 -54.5l16 -35l-120 -57q2 66 -20 96.5t-71 30.5q-55 0 -103 -54t-68 -138q-10 -43 -10 -81q0 -58 24.5 -89.5t70.5 -31.5
q47 0 83 29t73 95l84 -46q-46 -59 -118 -93.5t-150 -34.5q-68 0 -119.5 23.5t-79.5 66.5t-28 99q0 22 7 55q16 70 65.5 125.5t120.5 87t151 31.5q29 0 56 -5q-3 21 -3 40q0 27 6 52q12 51 49.5 88t90.5 56.5t108 19.5q66 0 118.5 -28.5t72.5 -83.5l-40 -174q67 36 140 36
q97 0 152 -49t55 -133q0 -27 -8 -64q-16 -71 -61.5 -126.5t-110.5 -87t-138 -31.5q-38 0 -71 9zM903.5 57.5q32.5 26.5 58.5 72.5t38 100q10 40 10 78q0 54 -20 85.5t-54 31.5q-32 0 -66 -26t-60 -69.5t-38 -95.5l-5 -23q-8 -38 -8 -67q0 -52 21.5 -82.5t59.5 -30.5
q31 0 63.5 26.5z" />
    <glyph glyph-name="c_h" unicode="&#xe009;" horiz-adv-x="1177" 
d="M124.5 5.5q-51.5 23.5 -79.5 66.5t-28 99q0 22 7 55q16 70 65 125.5t120 87t151 31.5q30 0 57 -5q-4 30 -4 43q0 24 6 49q12 51 50 88t90.5 56.5t107.5 19.5q67 0 119.5 -28.5t71.5 -83.5l-47 -205q42 32 90 49t96 17q83 0 123 -33.5t40 -102.5q0 -34 -11 -81l-60 -263
h-154l60 263q15 63 15 101q0 64 -45 64q-37 0 -77 -28t-72.5 -74.5t-48.5 -101.5l-51 -224h-154l130 565q5 25 5 40q0 37 -18 57t-46 20q-34 0 -66 -29.5t-43 -79.5q-5 -25 -5 -44q0 -44 11 -73.5t23 -54.5l16 -35l-119 -57l-1 22q-2 55 -24 80t-67 25q-55 0 -103 -54
t-68 -138q-10 -43 -10 -81q0 -58 24.5 -89.5t70.5 -31.5t82 28.5t74 95.5l84 -46q-46 -59 -118 -93.5t-150 -34.5q-68 0 -119.5 23.5z" />
    <glyph glyph-name="c_k" unicode="&#xe00a;" horiz-adv-x="1173" 
d="M124.5 5.5q-51.5 23.5 -79.5 66.5t-28 99q0 22 7 55q16 70 65 125.5t120 87t151 31.5q30 0 57 -5q-4 30 -4 43q0 24 6 49q12 51 50 88t90.5 56.5t107.5 19.5q67 0 119.5 -28.5t71.5 -83.5l-90 -393l330 244h92l-290 -214l184 -256h-179l-123 170l-33 -25l-33 -145h-154
l130 565q5 25 5 40q0 37 -18 57t-46 20q-34 0 -66 -29.5t-43 -79.5q-5 -25 -5 -44q0 -44 11 -73.5t23 -54.5l16 -35l-120 -58v23q-2 55 -24 80t-67 25q-55 0 -103 -54t-68 -138q-10 -43 -10 -81q0 -58 24.5 -89.5t70.5 -31.5t82 28.5t74 95.5l84 -46q-46 -59 -118 -93.5
t-150 -34.5q-68 0 -119.5 23.5z" />
    <glyph glyph-name="c_l" unicode="&#xe00b;" horiz-adv-x="853" 
d="M124.5 5.5q-51.5 23.5 -79.5 66.5t-28 99q0 22 7 55q16 70 65 125.5t120 87t151 31.5q30 0 57 -5q-4 30 -4 43q0 24 6 49q12 51 51 88t93 56.5t111 19.5q68 0 121.5 -28.5t72.5 -83.5l-142 -619h-154l130 565q5 23 5 39q0 38 -19.5 58t-48.5 20q-37 0 -70.5 -29
t-44.5 -80q-5 -20 -5 -45q0 -43 11 -72.5t23 -54.5l16 -35l-120 -58v23q-2 55 -24 80t-67 25q-55 0 -103 -54t-68 -138q-10 -43 -10 -81q0 -58 24.5 -89.5t70.5 -31.5t82 28.5t74 95.5l84 -46q-46 -59 -118 -93.5t-150 -34.5q-68 0 -119.5 23.5z" />
    <glyph glyph-name="c_t" unicode="&#xe00c;" horiz-adv-x="921" 
d="M617 -1q-25 20 -25 63q0 26 7 55l69 296h-51l10 47h51l22 95q5 25 5 39q0 38 -19.5 58t-48.5 20q-36 0 -69.5 -29t-44.5 -80q-5 -25 -5 -44q0 -44 11 -73.5t23 -54.5l16 -35l-120 -57v22q-2 55 -23.5 80t-66.5 25q-56 0 -104.5 -54t-67.5 -138q-10 -41 -10 -80
q0 -58 25 -90t71 -32q47 0 82.5 28.5t72.5 95.5l85 -46q-46 -59 -118.5 -93.5t-150.5 -34.5q-69 0 -120 24t-78.5 67t-27.5 99q0 26 6 54q16 70 65.5 125.5t120.5 87t151 31.5q29 0 57 -5q-4 20 -4 42q0 25 6 50q12 51 50.5 88t92.5 56.5t110 19.5q68 0 121.5 -28.5
t73.5 -83.5l-35 -149h109l-10 -47h-109l-56 -242l-7 -27l-6 -24q-13 -53 -14.5 -73t-2.5 -22q10 2 28.5 18.5t39.5 41.5l40 -38q-25 -29 -67 -48.5t-82 -19.5q-53 0 -78 20z" />
    <glyph glyph-name="f_b" unicode="&#xe00d;" horiz-adv-x="914" 
d="M424 14l-5 -24h-154l137 594q3 14 3 26q0 25 -10 41t-24 16q-38 0 -72 -26.5t-54 -68t-20 -84.5q0 -14 3 -28h109l-10 -47h-105l-98 -422h-154l98 422h-51l10 47h51l6 24q26 111 109 173.5t208 62.5q53 0 104.5 -18.5t67.5 -44.5l-51 -222q67 36 140 36q97 0 152 -49
t55 -133q0 -27 -8 -64q-16 -71 -61 -126.5t-110 -87t-138 -31.5q-78 0 -128 34zM606.5 57.5q32.5 26.5 58.5 72.5t38 100q10 40 10 78q0 54 -20 85.5t-54 31.5q-33 0 -66 -25t-59 -68.5t-39 -97.5l-5 -23q-8 -31 -8 -64q0 -52 22 -84t59 -32q31 0 63.5 26.5z" />
    <glyph glyph-name="f_h" unicode="&#xe010;" horiz-adv-x="880" 
d="M398 566q3 15 3 30q0 30 -12 50.5t-28 20.5q-34 0 -65.5 -27t-50.5 -69t-19 -84q0 -18 2 -27h109l-11 -47h-105l-97 -422h-154l97 422h-51l11 47h51l6 24q25 109 106.5 172.5t200.5 63.5q53 0 110.5 -18.5t71.5 -41.5l-59 -256q41 32 89.5 49t97.5 17q82 0 122 -33
t40 -101q0 -34 -11 -83l-60 -263h-154l60 263q15 65 15 102q0 33 -10.5 48t-33.5 15q-37 0 -77 -28t-73 -74.5t-49 -101.5l-51 -224h-154z" />
    <glyph glyph-name="f_j" unicode="&#xe012;" horiz-adv-x="548" 
d="M171 -195q4 -1 10 -1q30 0 53 44.5t48 155.5l95 409h-155l-98 -422h-154l98 422h-51l10 47h51l8 32q24 106 99.5 168t188.5 66q46 1 93 -14t79 -40.5t36 -53.5q0 -3 1.5 -11t-0.5 -14q-6 -25 -37 -44t-66 -19q-34 0 -56.5 18t-19.5 41q3 12 3 23q0 27 -14 44.5t-35 17.5
q-44 0 -78.5 -36t-47.5 -94q-6 -25 -6 -56q0 -21 2 -28h313l-117 -510q-15 -65 -42 -103t-72 -55.5t-116 -17.5q-23 0 -35 1z" />
    <glyph glyph-name="f_k" unicode="&#xe013;" horiz-adv-x="877" 
d="M398 566q3 15 3 30q0 30 -12 50.5t-28 20.5q-34 0 -65.5 -27t-50.5 -69t-19 -84q0 -18 2 -27h109l-11 -47h-105l-97 -422h-154l97 422h-51l11 47h51l6 24q25 109 106.5 172.5t200.5 63.5q53 0 110.5 -18.5t71.5 -41.5l-102 -444l330 244h92l-290 -214l184 -256h-179
l-123 170l-33 -25l-33 -145h-154z" />
    <glyph glyph-name="f_t" unicode="&#xe015;" horiz-adv-x="616" 
d="M312 -1q-25 20 -25 63q0 26 7 55l69 296h-141l-98 -422h-154l98 422h-51l11 47h51l5 24q26 109 107.5 172.5t200.5 63.5q56 0 111.5 -19t69.5 -44l-45 -197h109l-11 -47h-109l-56 -242l-34 -146q8 -3 28 14t44 46l40 -38q-25 -29 -67 -48.5t-82 -19.5q-53 0 -78 20z
M374 460l28 124q3 11 3 21q0 26 -13.5 44t-30.5 18q-34 0 -65.5 -27t-50.5 -68.5t-19 -83.5q0 -14 3 -28h145z" />
    <glyph glyph-name="s_b" unicode="&#xe016;" horiz-adv-x="1183" 
d="M115 -4.5q-54 15.5 -88 41t-34 54.5l124 21q-1 -6 -1 -17q0 -68 104 -68q53 0 82.5 18.5t36.5 56.5q1 5 1 13q0 22 -22 33.5t-80 20.5q-85 14 -139.5 41.5t-54.5 86.5q0 13 3 28q9 39 50.5 72.5t103.5 53t130 19.5q30 0 62 -5q-3 21 -3 40q0 25 6 52q12 50 50 87.5t91 57
t108 19.5q67 0 117.5 -29t67.5 -84l-39 -173q67 36 140 36q97 0 152 -49t55 -133q0 -27 -8 -64q-16 -71 -61.5 -126.5t-110.5 -87t-138 -31.5q-38 0 -71 9t-56 25l-5 -24h-154l130 565q5 25 5 41q0 37 -17.5 56.5t-44.5 19.5q-33 0 -64 -29t-43 -80q-4 -15 -4 -36
q0 -46 26 -112l3 -8l14 -30l9 -18l-130 -21q1 6 1 16q0 71 -96 71q-51 0 -82.5 -22t-37.5 -61q-1 -4 -1 -12q0 -21 19.5 -31t76.5 -20q58 -10 96.5 -21t67.5 -35t29 -65q0 -17 -4 -33q-11 -41 -46.5 -74t-90.5 -52t-123 -19q-58 0 -112 15.5zM875.5 57.5
q32.5 26.5 58.5 72.5t38 100q10 40 10 78q0 54 -20 85.5t-54 31.5q-32 0 -65 -25.5t-59.5 -69.5t-39.5 -96l-5 -23q-8 -38 -8 -67q0 -52 21.5 -82.5t59.5 -30.5q31 0 63.5 26.5z" />
    <glyph glyph-name="s_h" unicode="&#xe017;" horiz-adv-x="1129" 
d="M100 -5q-49 15 -78 40.5t-29 55.5l124 21q-1 -6 -1 -17q0 -68 104 -68q53 0 82.5 18.5t36.5 56.5q1 5 1 13q0 22 -21.5 33t-80.5 21q-85 14 -139.5 41.5t-54.5 86.5q0 13 3 28q9 39 50.5 72.5t103.5 53t130 19.5q34 0 62 -5q-3 21 -3 40q0 25 6 52q12 50 48 87.5t86.5 57
t102.5 19.5q63 0 111.5 -29t65.5 -84l-47 -204q41 32 89.5 49t97.5 17q82 0 122 -33t40 -101q0 -34 -11 -83l-60 -263h-154l60 263q15 65 15 102q0 33 -10.5 48t-33.5 15q-37 0 -77 -28t-73 -74.5t-49 -101.5l-51 -224h-154l130 565q6 26 6 45q0 35 -15 53.5t-38 18.5
q-29 0 -57.5 -29.5t-39.5 -79.5q-5 -22 -5 -41q0 -47 25 -106l4 -6v-3l3 -6q1 -3 3 -6.5t1 -4.5q10 -19 10 -31l-123 -21q1 6 1 16q0 71 -96 71q-52 0 -83.5 -22t-36.5 -61q-1 -4 -1 -12q0 -20 19.5 -30t76.5 -21q58 -10 96.5 -21t67.5 -35.5t29 -65.5q0 -16 -4 -32
q-10 -40 -50.5 -73t-101 -52.5t-128.5 -19.5q-58 0 -107 15z" />
    <glyph glyph-name="s_k" unicode="&#xe018;" horiz-adv-x="1145" 
d="M100 -5q-49 15 -78 40.5t-29 55.5l124 21q-1 -6 -1 -17q0 -68 104 -68q53 0 82.5 18.5t36.5 56.5q1 5 1 13q0 22 -22 33.5t-80 20.5q-85 14 -139.5 41.5t-54.5 86.5q0 13 3 28q9 39 50.5 72.5t103.5 53t130 19.5q34 0 62 -5q-3 21 -3 40q0 25 6 52q12 50 50 87.5t91 57
t108 19.5q67 0 117.5 -29t67.5 -84l-90 -392l330 244h92l-290 -214l184 -256h-179l-123 170l-33 -25l-33 -145h-154l130 565q5 25 5 41q0 37 -17.5 56.5t-44.5 19.5q-33 0 -64 -29t-43 -80q-5 -22 -5 -41q0 -47 25 -106l4 -6v-3l22 -47l-128 -22q1 6 1 16q0 71 -96 71
q-51 0 -82.5 -22t-37.5 -61q-1 -4 -1 -12q0 -21 19.5 -31t76.5 -20q58 -10 96.5 -21t67.5 -35t29 -65q0 -17 -4 -33q-10 -40 -50.5 -73t-101 -52.5t-128.5 -19.5q-58 0 -107 15z" />
    <glyph glyph-name="s_l" unicode="&#xe019;" horiz-adv-x="826" 
d="M101 -5q-49 15 -78.5 40.5t-29.5 55.5l124 21q-1 -6 -1 -17q0 -68 104 -68q53 0 82.5 18.5t36.5 56.5q1 5 1 13q0 22 -22 33.5t-80 20.5q-85 14 -139.5 41.5t-54.5 86.5q0 13 3 28q9 39 50.5 72.5t103.5 53t130 19.5q30 0 63 -5q-4 20 -4 42q0 25 6 50q12 50 51 87
t93.5 56.5t110.5 19.5q69 0 121.5 -28.5t68.5 -83.5l-143 -618h-154l130 565q5 25 5 40q0 37 -18.5 57.5t-47.5 20.5q-36 0 -69 -29.5t-44 -80.5q-4 -15 -4 -36q0 -46 26 -112l3 -8l20 -48l-127 -21q1 6 1 16q0 71 -96 71q-51 0 -82.5 -22t-37.5 -61q-1 -4 -1 -11
q0 -21 20 -31.5t77 -20.5t95.5 -21t67.5 -35t29 -65q0 -17 -4 -33q-10 -40 -50 -73t-100.5 -52.5t-128.5 -19.5q-58 0 -107 15z" />
    <glyph glyph-name="s_t" unicode="&#xe01a;" horiz-adv-x="898" 
d="M594 -1q-25 20 -25 63q0 26 7 55l69 296h-51l10 47h51l22 95q5 25 5 39q0 38 -19.5 58t-48.5 20q-36 0 -69.5 -29t-44.5 -80q-4 -15 -4 -36q0 -46 26 -112l3 -8l20 -48l-127 -21q1 6 1 16q0 71 -96 71q-51 0 -82.5 -22t-37.5 -61q-1 -4 -1 -11q0 -21 20 -31.5t77 -20.5
t95.5 -21t67.5 -35t29 -65q0 -17 -4 -33q-10 -40 -50 -73t-100.5 -52.5t-128.5 -19.5q-58 0 -107 15t-78.5 40.5t-29.5 55.5l124 21q-1 -6 -1 -17q0 -68 104 -68q53 0 82.5 18.5t36.5 56.5q1 5 1 13q0 22 -22 33.5t-80 20.5q-85 14 -139.5 41.5t-54.5 86.5q0 13 3 28
q9 39 50.5 72.5t103.5 53t130 19.5q30 0 63 -5q-4 20 -4 42q0 25 6 50q12 51 50.5 88t92.5 56.5t110 19.5q68 0 121.5 -28.5t73.5 -83.5l-35 -149h109l-10 -47h-109l-56 -242l-11 -46q-11 -48 -15 -74t-1 -26q13 -1 65 60l40 -38q-25 -29 -67 -48.5t-82 -19.5q-53 0 -78 20z
" />
    <glyph glyph-name="t_t" unicode="&#xe01b;" horiz-adv-x="626" 
d="M17 -1q-25 20 -25 63q0 26 7 55l69 296h-51l11 47h51l34 151l167 56l-47 -207h149l51 221l166 56l-63 -277h109l-11 -47h-109l-56 -242q-20 -86 -30 -146q19 2 68 60l40 -38q-25 -29 -66.5 -48.5t-81.5 -19.5q-54 0 -79 20t-25 63q0 26 7 55l69 296h-149l-56 -242
q-20 -86 -30 -146q19 2 68 60l40 -38q-25 -29 -66.5 -48.5t-81.5 -19.5q-54 0 -79 20z" />
    <glyph glyph-name="zero.dnom" unicode="&#xe01c;" horiz-adv-x="580" 
d="M103.5 -95q-44.5 52 -44.5 138q0 40 11 89q19 82 62 146t101 100t122 36q77 0 121.5 -52t44.5 -140q0 -40 -11 -90q-19 -81 -62 -144.5t-101 -99t-122 -35.5q-77 0 -121.5 52zM321.5 -43.5q43.5 67.5 68.5 175.5q16 70 16 128q0 56 -15.5 87.5t-43.5 31.5t-58.5 -31.5
t-56.5 -88t-42 -127.5q-17 -74 -17 -127q0 -54 16 -85t45 -31q44 0 87.5 67.5z" />
    <glyph glyph-name="one.dnom" unicode="&#xe01d;" horiz-adv-x="270" 
d="M119 336l143 116l-138 -598h-116z" />
    <glyph glyph-name="two.dnom" unicode="&#xe01e;" horiz-adv-x="511" 
d="M15 -124l31 25q110 86 196.5 173.5t106.5 175.5q6 26 6 46q0 34 -15.5 53t-42.5 19q-41 0 -73 -32.5t-49 -93.5l-74 23q16 33 47.5 67t79 57t105.5 23q63 0 100.5 -32t37.5 -86q0 -20 -4 -37q-12 -53 -54.5 -105.5t-96.5 -98.5t-142 -112h221l-19 -83h-354z" />
    <glyph glyph-name="three.dnom" unicode="&#xe01f;" horiz-adv-x="537" 
d="M81 -119.5q-43 25.5 -54 66.5l79 48q1 -53 19 -77.5t58 -24.5q49 0 87.5 37t52.5 98q6 27 6 48q0 33 -14.5 50.5t-42.5 17.5q-13 0 -23 -1l-36 -3l6 39q10 -2 16 -2q33 0 62 30t39 74q5 22 5 41q0 9 -2 23q-5 19 -15 27.5t-28 8.5q-39 0 -66.5 -31t-37.5 -89l-79 23
q28 62 83.5 98.5t121.5 36.5q63 0 100 -28t37 -74q0 -84 -97 -137q42 -12 65.5 -41t23.5 -69q0 -17 -4 -32q-12 -53 -49.5 -95t-92.5 -65t-119 -23q-58 0 -101 25.5z" />
    <glyph glyph-name="four.dnom" unicode="&#xe020;" horiz-adv-x="485" 
d="M269 9h-226l42 50l300 354h92l-128 -554h-115zM278 48l47 204l-175 -204h128z" />
    <glyph glyph-name="five.dnom" unicode="&#xe021;" horiz-adv-x="529" 
d="M75.5 -117.5q-42.5 26.5 -46.5 66.5l83 43q-3 -49 14 -74.5t52 -25.5q45 0 92 48q14 14 27 40.5t19 53.5q6 26 6 48q0 44 -22 70t-61 26q-31 0 -68.5 -16.5t-88.5 -52.5l69 300h360l-19 -83h-285l-28 -119q47 15 92 15q50 0 89 -18t61 -49.5t22 -71.5q0 -19 -4 -34
q-18 -72 -89 -133q-31 -27 -79 -43.5t-94 -16.5q-59 0 -101.5 26.5z" />
    <glyph glyph-name="six.dnom" unicode="&#xe022;" horiz-adv-x="539" 
d="M95.5 -97q-42.5 46 -42.5 123q0 37 8 69q22 95 84.5 169t137 115t129.5 41q8 0 20 -2l-25 -29q-25 3 -61.5 -21t-70 -66t-51.5 -92q42 18 86 18q66 0 105 -36t39 -95q0 -17 -5 -42q-10 -44 -42.5 -90t-83 -77t-110.5 -31q-75 0 -117.5 46zM285.5 -60.5
q33.5 47.5 49.5 114.5q7 28 7 56q0 37 -12.5 60t-34.5 23q-23 0 -51.5 -20.5t-56.5 -57.5q-3 -5 -6 -20q-12 -51 -12 -94q0 -49 14 -79t38 -30q31 0 64.5 47.5z" />
    <glyph glyph-name="seven.dnom" unicode="&#xe023;" horiz-adv-x="508" 
d="M176 70q73 110 187 257h-248l19 83h366q-108 -135 -188 -276.5t-113 -269.5h-130q34 96 107 206z" />
    <glyph glyph-name="eight.dnom" unicode="&#xe024;" horiz-adv-x="529" 
d="M74.5 62q41.5 50 115.5 93q-60 60 -60 109q0 11 3 21q10 42 41.5 73t75 46.5t88.5 15.5q55 0 92.5 -24t37.5 -68q0 -41 -34 -82t-99 -78q45 -42 69 -76t24 -70q0 -14 -2 -21q-11 -45 -46.5 -77.5t-85 -48.5t-100.5 -16q-68 0 -114.5 27.5t-46.5 76.5t41.5 99zM361.5 246
q20.5 25 28.5 57q3 12 3 22q0 28 -17.5 43.5t-43.5 15.5q-31 0 -58 -20.5t-36 -57.5q-2 -10 -2 -16q0 -24 16.5 -44.5t48.5 -47.5q40 23 60.5 48zM321 -5q0 25 -17 47t-52 54l-17 16l-13 11q-89 -55 -109 -133q-3 -11 -3 -21q0 -33 26.5 -51.5t64.5 -18.5q41 0 75 21.5
t43 59.5q2 10 2 15z" />
    <glyph glyph-name="nine.dnom" unicode="&#xe025;" horiz-adv-x="539" 
d="M132 -109q38 -4 90.5 48t92.5 131q-42 -18 -86 -18q-66 0 -105 36t-39 95q0 17 5 42q10 44 42.5 90t83 77t110.5 31q75 0 117.5 -46t42.5 -123q0 -37 -8 -69q-22 -95 -84.5 -169t-137 -115t-129.5 -41q-8 0 -20 2zM295.5 107.5q28.5 20.5 56.5 57.5q3 5 6 20q12 51 12 94
q0 49 -14 79t-38 30q-31 0 -64.5 -47.5t-49.5 -114.5q-7 -28 -7 -56q0 -37 12.5 -60t34.5 -23q23 0 51.5 20.5z" />
    <glyph glyph-name="zero.numr" unicode="&#xe026;" horiz-adv-x="580" 
d="M103.5 355q-44.5 52 -44.5 138q0 40 11 89q19 82 62 146t101 100t122 36q77 0 121.5 -52t44.5 -140q0 -40 -11 -90q-19 -81 -62 -144.5t-101 -99t-122 -35.5q-77 0 -121.5 52zM321.5 406.5q43.5 67.5 68.5 175.5q16 70 16 128q0 56 -15.5 87.5t-43.5 31.5t-58.5 -31.5
t-56.5 -88t-42 -127.5q-17 -74 -17 -127q0 -54 16 -85t45 -31q44 0 87.5 67.5z" />
    <glyph glyph-name="one.numr" unicode="&#xe027;" horiz-adv-x="270" 
d="M119 792l143 116l-138 -598h-116z" />
    <glyph glyph-name="two.numr" unicode="&#xe028;" horiz-adv-x="511" 
d="M15 336l31 25q110 86 196.5 173.5t106.5 175.5q6 26 6 46q0 34 -15.5 53t-42.5 19q-41 0 -73 -32.5t-49 -93.5l-74 23q16 33 47.5 67t79 57t105.5 23q63 0 100.5 -32t37.5 -86q0 -20 -4 -37q-12 -53 -54.5 -105.5t-96.5 -98.5t-142 -112h221l-19 -83h-354z" />
    <glyph glyph-name="three.numr" unicode="&#xe029;" horiz-adv-x="537" 
d="M81 331.5q-43 25.5 -54 66.5l79 48q1 -53 19 -77.5t58 -24.5q49 0 87.5 37t52.5 98q6 27 6 48q0 33 -14.5 50.5t-42.5 17.5q-13 0 -23 -1l-36 -3l6 39q10 -2 16 -2q33 0 62 30t39 74q5 22 5 41q0 9 -2 23q-5 19 -15 27.5t-28 8.5q-39 0 -66.5 -31t-37.5 -89l-79 23
q28 62 83.5 98.5t121.5 36.5q63 0 100 -28t37 -74q0 -84 -97 -137q42 -12 65.5 -41t23.5 -69q0 -17 -4 -32q-12 -53 -49.5 -95t-92.5 -65t-119 -23q-58 0 -101 25.5z" />
    <glyph glyph-name="four.numr" unicode="&#xe02a;" horiz-adv-x="485" 
d="M269 465h-226l42 50l300 354h92l-128 -554h-115zM278 504l47 204l-175 -204h128z" />
    <glyph glyph-name="five.numr" unicode="&#xe02b;" horiz-adv-x="529" 
d="M75.5 335.5q-42.5 26.5 -46.5 66.5l83 43q-3 -49 14 -74.5t52 -25.5q45 0 92 48q14 14 27 40.5t19 53.5q6 26 6 48q0 44 -22 70t-61 26q-31 0 -68.5 -16.5t-88.5 -52.5l69 300h360l-19 -83h-285l-28 -119q47 15 92 15q50 0 89 -18t61 -49.5t22 -71.5q0 -19 -4 -34
q-18 -72 -89 -133q-31 -27 -79 -43.5t-94 -16.5q-59 0 -101.5 26.5z" />
    <glyph glyph-name="six.numr" unicode="&#xe02c;" horiz-adv-x="539" 
d="M95.5 347q-42.5 46 -42.5 123q0 37 8 69q22 95 84.5 169t137 115t129.5 41q8 0 20 -2l-25 -29q-25 3 -65 -23t-74 -69t-44 -87q42 18 86 18q66 0 105 -36t39 -95q0 -17 -5 -42q-10 -44 -42.5 -90t-83 -77t-110.5 -31q-75 0 -117.5 46zM285.5 383.5q33.5 47.5 49.5 114.5
q7 28 7 56q0 37 -12.5 60t-34.5 23q-23 0 -51.5 -20.5t-56.5 -57.5q-3 -5 -6 -20q-12 -51 -12 -94q0 -49 14 -79t38 -30q31 0 64.5 47.5z" />
    <glyph glyph-name="seven.numr" unicode="&#xe02d;" horiz-adv-x="508" 
d="M176 514q73 110 187 257h-248l19 83h366q-108 -135 -188 -276.5t-113 -269.5h-130q34 96 107 206z" />
    <glyph glyph-name="eight.numr" unicode="&#xe02e;" horiz-adv-x="529" 
d="M74.5 499q41.5 50 115.5 93q-60 60 -60 109q0 11 3 21q10 42 41.5 73t75 46.5t88.5 15.5q55 0 92.5 -24t37.5 -68q0 -41 -34 -82t-99 -78q45 -42 69 -76t24 -70q0 -14 -2 -21q-11 -45 -46.5 -77.5t-85 -48.5t-100.5 -16q-68 0 -114.5 27.5t-46.5 76.5t41.5 99zM361.5 683
q20.5 25 28.5 57q3 12 3 22q0 28 -17.5 43.5t-43.5 15.5q-31 0 -58 -20.5t-36 -57.5q-2 -10 -2 -16q0 -24 16.5 -44.5t48.5 -47.5q40 23 60.5 48zM321 432q0 25 -17 47t-52 54l-17 16l-13 11q-89 -55 -109 -133q-3 -10 -3 -21q0 -33 26.5 -51.5t64.5 -18.5q41 0 75 21.5
t43 59.5q2 10 2 15z" />
    <glyph glyph-name="nine.numr" unicode="&#xe02f;" horiz-adv-x="539" 
d="M132 322q38 -4 90.5 48t92.5 131q-42 -18 -86 -18q-66 0 -105 36t-39 95q0 17 5 42q10 44 42.5 90t83 77t110.5 31q75 0 117.5 -46t42.5 -123q0 -37 -8 -69q-22 -95 -84.5 -169t-137 -115t-129.5 -41q-8 0 -20 2zM295.5 538.5q28.5 20.5 56.5 57.5q3 5 6 20q12 51 12 94
q0 49 -14 79t-38 30q-31 0 -64.5 -47.5t-49.5 -114.5q-7 -28 -7 -56q0 -37 12.5 -60t34.5 -23q23 0 51.5 20.5z" />
    <glyph glyph-name="ampersand.ss01" unicode="&#xe030;" horiz-adv-x="777" 
d="M134 3q-52 23 -78.5 62t-26.5 86q0 71 58 139t166 107l-77 117q9 56 52 104t108 75.5t136 27.5q93 0 144 -46t50 -130l-115 -25q6 33 6 58q0 50 -21.5 76t-62.5 26l-13 -1q-30 -3 -61.5 -23t-54 -53t-27.5 -71l216 -339q29 71 38 150h103q-13 -68 -36 -122t-59 -102
l83 -129h-151l-30 45q-43 -26 -101.5 -40.5t-120.5 -14.5q-73 0 -125 23zM382 46q34 11 69 36l-171 271q-52 -28 -81.5 -79.5t-29.5 -105.5q0 -57 34.5 -95t99.5 -38q45 0 79 11z" />
    <glyph glyph-name="a.ss01" unicode="&#xe082;" horiz-adv-x="591" 
d="M41.5 9.5q-44.5 31.5 -44.5 82.5q0 84 104 134.5t308 67.5q5 23 5 48q0 41 -21.5 60.5t-65.5 19.5q-50 0 -81.5 -21.5t-50.5 -69.5l-121 13q18 34 60.5 63t98.5 46t113 17q101 0 160 -41t59 -110q0 -19 -4 -36l-68 -293h-154l8 34q-43 -21 -92 -33.5t-95 -12.5
q-74 0 -118.5 31.5zM285 57.5q42 20.5 83 59.5l30 127q-81 -6 -129.5 -20t-74.5 -39t-35 -66q-4 -15 -4 -30q0 -25 13 -38.5t38 -13.5q37 0 79 20.5z" />
    <glyph glyph-name="b.ss01" unicode="&#xe083;" horiz-adv-x="600" 
d="M56.5 26q-56.5 47 -56.5 136q0 37 11 84l107 464h154l-66 -286q34 22 71.5 34.5t74.5 12.5q95 0 149 -49t54 -132q0 -28 -8 -65q-26 -113 -114 -179.5t-213 -66.5q-107 0 -163.5 47zM294 56.5q32 25.5 57.5 70.5t38.5 101q9 41 9 77q0 54 -19.5 87t-52.5 33
q-31 0 -66 -30.5t-63.5 -81t-41.5 -108.5l-3 -13q-7 -29 -7 -57q0 -48 22 -76t62 -28q32 0 64 25.5z" />
    <glyph glyph-name="d.ss01" unicode="&#xe085;" horiz-adv-x="610" 
d="M47 29.5q-58 50.5 -58 135.5q0 31 7 60q17 73 61.5 128.5t109 86.5t139.5 31q37 0 69.5 -11.5t55.5 -31.5l65 282h154l-107 -464q-29 -128 -117 -197.5t-220 -69.5q-101 0 -159 50.5zM318 75q43 48 60 123l2 7q9 42 9 81q0 61 -21.5 100t-56.5 39q-30 0 -61 -26
t-56 -71.5t-38 -99.5q-11 -45 -11 -89q0 -54 20.5 -83t59.5 -29q50 0 93 48z" />
    <glyph glyph-name="f.ss01" unicode="&#xe087;" horiz-adv-x="283" 
d="M70 413h-51l11 47h51l5 24q54 234 240 234q38 0 85 -11l-11 -45q-31 14 -54 14q-38 0 -64.5 -28t-39.5 -71t-13 -85q0 -22 2 -32h109l-11 -47h-105l-100 -432h-154z" />
    <glyph glyph-name="g.ss01" unicode="&#xe088;" horiz-adv-x="605" 
d="M1.5 -231.5q-57.5 27.5 -57.5 74.5q0 6 2 18q15 63 109 96q-24 13 -36.5 32t-12.5 40q0 34 28 63.5t79 48.5q-41 22 -62.5 53t-21.5 67q0 57 45 105t120.5 76t161.5 28q75 0 127 -20l134 99l45 -77l-118 -55h1q55 -46 55 -101q0 -8 -4 -28q-12 -50 -59 -91.5t-116.5 -65
t-148.5 -23.5q-52 0 -88 9q-24 -2 -37 -11.5t-17 -29.5q-1 -3 -1 -9q0 -12 12 -16t45 -4h136q96 0 148.5 -30t52.5 -84q0 -14 -3 -27q-17 -77 -113 -121t-249 -44q-99 0 -156.5 27.5zM382 193.5q43 36.5 57 95.5q4 17 4 37q0 43 -26 69t-72 26q-56 0 -98.5 -35.5
t-56.5 -94.5q-5 -22 -5 -38q0 -44 26.5 -70t72.5 -26q55 0 98 36.5zM323.5 -188.5q47.5 19.5 58.5 65.5q2 10 2 14q0 43 -77 43h-140q-56 -2 -84 -18.5t-37 -53.5q-2 -12 -2 -17q0 -28 31 -40.5t101 -12.5q100 0 147.5 19.5z" />
    <glyph glyph-name="k.ss01" unicode="&#xe08c;" horiz-adv-x="581" 
d="M127 710h154l-67 -291q36 24 80 37.5t87 13.5q87 0 137 -34t50 -91q0 -9 -4 -31q-13 -56 -64 -95.5t-137 -60.5l120 -168h-179l-106 148h-49l-34 -148h-154zM192 185q95 0 147 30.5t67 94.5q5 19 5 42q0 33 -15.5 50.5t-45.5 17.5q-40 0 -84 -31t-79 -84h1l-28 -120h32z
" />
    <glyph glyph-name="l.ss01" unicode="&#xe08d;" horiz-adv-x="312" 
d="M-15 68q0 22 6 49l137 593h154l-124 -539q-21 -88 -21 -120q0 -14 5 -14q6 0 16.5 9.5t24.5 24.5l16 17l37 -42q-27 -31 -66.5 -49t-81.5 -18q-103 0 -103 89z" />
    <glyph glyph-name="p.ss01" unicode="&#xe091;" horiz-adv-x="610" 
d="M56 184q20 84 70.5 149t123 101.5t154.5 36.5q96 0 153.5 -51.5t57.5 -135.5q0 -30 -7 -59q-16 -68 -63.5 -124.5t-115 -89t-139.5 -32.5q-33 0 -65 9t-54 24l-52 -222h-154zM353 57.5q32 26.5 58 72t39 100.5q11 50 11 87q0 51 -18.5 79.5t-53.5 28.5q-34 0 -67.5 -23.5
t-59.5 -64t-37 -89.5l-1 -6q-12 -51 -12 -93q0 -55 20.5 -86.5t57.5 -31.5q31 0 63 26.5z" />
    <glyph glyph-name="q.ss01" unicode="&#xe092;" horiz-adv-x="578" 
d="M362 10q-58 -30 -130 -30q-100 0 -157.5 50t-57.5 134q0 32 7 61q17 73 63.5 128.5t115 86.5t147.5 31q106 0 161.5 -50.5t55.5 -146.5q0 -41 -13 -101l-89 -383h-154zM348.5 89q45.5 58 67.5 153l3 16q6 27 6 52q0 50 -21.5 82.5t-56.5 32.5q-53 0 -98 -53.5t-65 -141.5
q-9 -40 -9 -75q0 -56 20.5 -90t56.5 -34q51 0 96.5 58z" />
    <glyph glyph-name="u.ss01" unicode="&#xe096;" horiz-adv-x="541" 
d="M66 16.5q-48 36.5 -48 113.5q0 40 12 89l55 241h154l-55 -238q-15 -63 -15 -108q0 -11 1 -15q8 -39 24 -53.5t51 -14.5q58 0 102 46t63 128l58 255h83l-55 -240q-27 -118 -98.5 -179t-183.5 -61q-100 0 -148 36.5z" />
    <glyph glyph-name="w.ss01" unicode="&#xe098;" horiz-adv-x="830" 
d="M18 129q0 43 11 88l56 243h154l-55 -240q-16 -65 -16 -112q0 -78 49 -78q44 0 81 48t57 132l57 250h154l-55 -240q-16 -72 -16 -111q0 -81 53 -79t92 48.5t59 131.5l57 250h84l-55 -240q-28 -121 -95.5 -180.5t-176.5 -59.5q-57 0 -97 18.5t-57 53.5q-31 -33 -76 -52.5
t-95 -19.5q-170 0 -170 149z" />
    <glyph glyph-name="y.ss01" unicode="&#xe09a;" horiz-adv-x="511" 
d="M201 -10h-43l-79 469h157l55 -327l209 327h87l-428 -668h-85z" />
    <glyph glyph-name="i.loclTRK" horiz-adv-x="242" 
d="M98 460h154l-108 -470h-154zM135.5 505.5q-16.5 14.5 -16.5 37.5q0 33 27 57.5t61 24.5q27 0 43.5 -15t16.5 -38q0 -33 -27 -57t-62 -24q-26 0 -42.5 14.5z" />
    <glyph glyph-name="t.ss01" horiz-adv-x="322" 
d="M145 -20q-75 0 -108.5 24t-33.5 77q0 29 9 66l61 266h-51l11 47h51l40 171l167 56l-53 -227h109l-11 -47h-109l-50 -218l-6 -27q-18 -72 -18 -100q0 -49 47 -49q21 0 46 7l-9 -40q-52 -6 -92 -6z" />
    </font>
</defs>
</svg>
