<?xml version="1.0" standalone="no"?>
<!DOCTYPE svg PUBLIC "-//W3C//DTD SVG 1.1//EN" "http://www.w3.org/Graphics/SVG/1.1/DTD/svg11.dtd" >
<svg xmlns="http://www.w3.org/2000/svg" xmlns:xlink="http://www.w3.org/1999/xlink" version="1.1">
<metadata>
Created by FontForge 20201107 at Sat May 17 14:54:24 2025
 By 
Pavel Larin
</metadata>
<defs>
<font id="Mansory-RegularOblique" horiz-adv-x="0" >
  <font-face 
    font-family="Mansory Oblique"
    font-weight="400"
    font-style="oblique"
    font-stretch="normal"
    units-per-em="2048"
    panose-1="0 0 5 0 0 0 0 0 0 0"
    ascent="1638"
    descent="-410"
    x-height="920"
    cap-height="1434"
    bbox="-1323 -866 2716 2048"
    underline-thickness="102"
    underline-position="-204"
    unicode-range="U+0020-E09A"
  />
<missing-glyph horiz-adv-x="1331" 
d="M1092 2048v-2662h-844v2662h844zM887 1870h-441v-88h175v-99h-177v-88h443v88h-176v99h176v88zM711 1526h-267v-277h443v90h-176v187zM621 1436v-97h-89v97h89zM887 1178h-443v-88h177v-99h-177v-88h267v187h176v88zM887 1018h-88v-176h-355v-90h443v266zM887 692h-266
v-147h90v59h88v-125h-267v213h-88v-301h443v301zM887 231h-443v-301h443v301zM799 145v-127h-267v127h267zM887 -129h-443v-88h187l-187 -125v-88h443v88h-273l187 125h86v88z" />
    <glyph glyph-name="f_f" unicode="ff" horiz-adv-x="1159" 
d="M14 0l205 866h-104l12 56h104l21 86q47 207 175 331t298 127q173 3 252 -133q130 133 307 133q83 0 143 -36t82 -99l-127 -47q-15 117 -125 117q-103 0 -184 -82.5t-110 -204.5q-25 -111 2 -192h209l-13 -56h-215l-205 -866h-168l205 866h-391l-205 -866h-168zM406 922
h385l20 86q23 105 76 200q-4 30 -8.5 52t-17.5 51t-32 47.5t-52.5 31t-78.5 11.5q-100 -3 -183.5 -85t-111.5 -202q-25 -109 3 -192z" />
    <glyph glyph-name="f_f_i" unicode="ffi" horiz-adv-x="1628" 
d="M14 0l205 866h-104l12 56h104l21 86q47 207 175 331t298 127q170 2 252 -137q134 131 307 137q114 5 209.5 -54t105.5 -155q6 -18 0 -43q-9 -44 -48.5 -76t-84.5 -32q-43 0 -68 30.5t-16 73.5q19 92 -14 142.5t-111 48.5q-103 -1 -184 -83t-110 -204q-25 -111 2 -192h544
l-213 -922h-168l201 866h-383l-205 -866h-168l205 866h-391l-205 -866h-168zM406 922h385l20 86q21 97 74 198q-4 32 -8 52.5t-16.5 51t-31 48.5t-52.5 31t-79 12q-100 -3 -183.5 -85t-111.5 -202q-25 -109 3 -192z" />
    <glyph glyph-name="f_i" unicode="fi" horiz-adv-x="1069" 
d="M14 0l205 866h-104l12 56h104l21 86q47 205 175 327.5t298 130.5q114 5 209.5 -54t105.5 -155q6 -18 0 -43q-9 -44 -48.5 -76t-84.5 -32q-43 0 -68 30.5t-16 73.5q19 92 -15 142.5t-114 48.5q-103 -1 -182.5 -83t-108.5 -204q-25 -109 3 -192h544l-213 -922h-168l201 866
h-383l-205 -866h-168z" />
    <glyph glyph-name="f_l" unicode="fl" horiz-adv-x="1058" 
d="M14 0l205 866h-104l12 56h104l17 69q48 210 186 336.5t324 126.5q81 0 150 -26t112 -76l-311 -1352h-168l276 1196q22 94 -11.5 142t-100.5 48q-100 0 -179.5 -74t-112 -182t-10.5 -208h211l-12 -56h-215l-205 -866h-168z" />
    <glyph glyph-name=".notdef" horiz-adv-x="1331" 
d="M1092 2048v-2662h-844v2662h844zM887 1870h-441v-88h175v-99h-177v-88h443v88h-176v99h176v88zM711 1526h-267v-277h443v90h-176v187zM621 1436v-97h-89v97h89zM887 1178h-443v-88h177v-99h-177v-88h267v187h176v88zM887 1018h-88v-176h-355v-90h443v266zM887 692h-266
v-147h90v59h88v-125h-267v213h-88v-301h443v301zM887 231h-443v-301h443v301zM799 145v-127h-267v127h267zM887 -129h-443v-88h187l-187 -125v-88h443v88h-273l187 125h86v88z" />
    <glyph glyph-name=".null" 
 />
    <glyph glyph-name="nonmarkingreturn" horiz-adv-x="682" 
 />
    <glyph glyph-name="space" unicode=" " horiz-adv-x="614" 
 />
    <glyph glyph-name="exclam" unicode="!" horiz-adv-x="442" 
d="M117 330l217 1104h186l-297 -1104h-106zM96 0q-41 0 -63 28.5t-13 69.5q9 40 44.5 68.5t76.5 28.5q40 0 62.5 -28.5t13.5 -68.5q-9 -41 -45 -69.5t-76 -28.5z" />
    <glyph glyph-name="quotedbl" unicode="&#x22;" horiz-adv-x="585" 
d="M143 1044l66 392h115l-115 -392h-66zM369 1044l65 392h115l-115 -392h-65z" />
    <glyph glyph-name="numbersign" unicode="#" horiz-adv-x="1509" 
d="M213 0l217 387h-319l43 64h313l172 307h-340l45 63h332l229 408h68l-230 -408l320 -2l231 410h68l-232 -410h345l-43 -61h-336l-174 -309h362l-43 -64h-354l-217 -385h-68l217 385l-321 2l-217 -387h-68zM854 449l174 309h-321l-172 -307z" />
    <glyph glyph-name="dollar" unicode="$" horiz-adv-x="1331" 
d="M461 -199l41 176q-171 5 -294.5 73t-150.5 190l84 26q22 -114 124.5 -171t248.5 -62l141 610q-43 13 -69 21t-66 22t-65.5 26t-58.5 29t-53.5 35t-43.5 40.5t-34.5 48t-20 56t-7 66.5t10.5 76q26 115 120 203t216.5 134t257.5 54l32 143h68l-33 -141q175 -2 301.5 -69.5
t153.5 -192.5l-84 -27q-16 80 -73.5 133t-135 76t-174.5 25l-137 -598q51 -16 78 -25t74 -26t73.5 -30.5t63.5 -35.5t56.5 -43t41 -51t29 -62t8.5 -72.5t-10 -86.5q-21 -88 -81 -161.5t-144 -121t-181.5 -75.5t-198.5 -33l-41 -179h-67zM696 821l133 578
q-153 -12 -269.5 -89.5t-143.5 -195.5q-7 -29 -7 -54t4.5 -46t16 -40t25 -34t35 -29.5t42 -26t49.5 -23t55 -20.5t60 -20zM582 35q156 11 276.5 89t147.5 198q7 29 7 55t-5 47.5t-16.5 41t-26.5 35t-36 30.5t-43 27t-51 23.5t-56.5 21t-61.5 20.5z" />
    <glyph glyph-name="percent" unicode="%" horiz-adv-x="1431" 
d="M78 0l1302 1389q-106 -35 -210 -45t-184.5 -1.5t-178.5 31.5q36 -42 47.5 -100.5t-4.5 -126.5q-29 -129 -134.5 -219t-228.5 -90t-188.5 90t-36.5 219q31 128 137.5 217.5t229.5 89.5h4q59 0 119 -31q90 -23 157 -34.5t152.5 -16.5t174.5 10t185 50l2 2h68l-1346 -1434
h-67zM498 874q64 0 118.5 77.5t81.5 195.5q24 99 11.5 174.5t-58.5 93.5q-2 0 -6.5 1t-7.5 1q-4 2 -14 2q-64 0 -120 -77.5t-83 -194.5q-28 -114 -7 -193.5t85 -79.5zM887 -18q-123 0 -188.5 90t-34.5 219q29 128 135 217.5t229 89.5q122 0 187 -90t36 -217
q-31 -129 -136 -219t-228 -90zM897 18q64 0 120 77.5t83 195.5q28 114 8 193t-84 79t-120 -77.5t-83 -194.5q-28 -114 -8 -193.5t84 -79.5z" />
    <glyph glyph-name="ampersand" unicode="&#x26;" horiz-adv-x="1513" 
d="M1245 -45q-182 0 -352 119q-197 -117 -418 -117q-96 0 -173 22t-125.5 60t-79 89.5t-34 111.5t8.5 125q29 125 129.5 242.5t259.5 199.5q-42 219 2 405q41 183 195 284q125 83 266 77q130 -6 192 -87q58 -75 31 -192q-28 -122 -155 -242t-347 -225q38 -188 118.5 -367.5
t186.5 -299.5q175 131 226 354q24 111 -29 219l102 64q11 -37 10.5 -90.5t-6 -93t-12.5 -72.5q-58 -252 -266 -412q140 -137 278 -137zM635 887q186 88 292 190t130 205q30 128 -42 192q-60 53 -152 33q-104 -22 -171 -123q-39 -59 -57 -135q-37 -147 0 -362zM512 23
q190 0 344 79q-138 110 -238.5 284t-144.5 368q-118 -72 -192.5 -169t-98.5 -198q-34 -153 52 -258.5t278 -105.5z" />
    <glyph glyph-name="quotesingle" unicode="'" horiz-adv-x="360" 
d="M143 1044l66 392h115l-115 -392h-66z" />
    <glyph glyph-name="parenleft" unicode="(" horiz-adv-x="610" 
d="M289 -240q-445 835 385 1674h47q-625 -840 -385 -1674h-47z" />
    <glyph glyph-name="parenright" unicode=")" horiz-adv-x="610" 
d="M-29 -240q625 840 385 1674h47q445 -835 -385 -1674h-47z" />
    <glyph glyph-name="asterisk" unicode="*" horiz-adv-x="802" 
d="M319 981l93 250l8 16h-2l-244 -184l-37 88l252 109l4 4h-2l-2 2l-199 108l78 88l158 -184h2q-3 6 0 16l23 250h114l-92 -250l-8 -16h2l244 184l37 -88l-252 -108l-2 -2h-2l4 -4l198 -109l-78 -88l-157 184h-2q3 -6 0 -16l-23 -250h-115z" />
    <glyph glyph-name="plus" unicode="+" horiz-adv-x="1124" 
d="M467 213l98 426h-405l16 68h406l90 385h67l-90 -385h406l-17 -68h-405l-98 -426h-68z" />
    <glyph glyph-name="comma" unicode="," horiz-adv-x="444" 
d="M233 -137l-18 12q28 49 31 66q4 17 -3.5 30.5t-20 22.5t-25 23.5t-18 31.5t0.5 47q10 44 46 71.5t75 27.5q29 0 49.5 -16.5t26.5 -47.5q10 -60 -37 -137.5t-107 -130.5z" />
    <glyph glyph-name="hyphen" unicode="-" horiz-adv-x="921" 
d="M156 444l16 68h676l-17 -68h-675z" />
    <glyph glyph-name="period" unicode="." horiz-adv-x="442" 
d="M240 0q-40 0 -62.5 28.5t-13.5 69.5q9 40 45 68.5t76 28.5t62 -28.5t13 -68.5q-9 -41 -44.5 -69.5t-75.5 -28.5z" />
    <glyph glyph-name="slash" unicode="/" horiz-adv-x="1050" 
d="M-31 -240l1127 1694h67l-1126 -1694h-68z" />
    <glyph glyph-name="zero" unicode="0" horiz-adv-x="1298" 
d="M500 -20q-113 0 -198.5 55t-131.5 153t-55.5 232.5t28.5 294.5q48 210 155 379.5t250 265.5t292 96q112 0 197.5 -56t131 -155t55.5 -234.5t-28 -295.5q-48 -210 -154.5 -378t-248.5 -262.5t-293 -94.5zM510 23q163 0 298 183.5t210 508.5q49 220 44 375.5t-64.5 240
t-166.5 84.5q-162 0 -298 -187t-211 -513q-75 -325 -25 -508.5t213 -183.5z" />
    <glyph glyph-name="one" unicode="1" horiz-adv-x="577" 
d="M37 0l297 1290l207 164l-336 -1454h-168z" />
    <glyph glyph-name="two" unicode="2" horiz-adv-x="1112" 
d="M-25 0q19 16 122.5 98t181 146t193 172.5t196 202t150.5 208t93 215.5q39 172 -18 260t-178 91q-58 2 -114 -14t-111.5 -51t-104 -99.5t-80.5 -153.5l-63 19q27 53 63.5 102.5t87.5 97.5t109 82.5t131.5 56t152.5 21.5q178 0 257 -112t40 -283q-12 -52 -36.5 -105.5
t-52.5 -100t-74.5 -102t-83.5 -96t-100.5 -97.5t-104 -92t-115 -93.5t-113 -88t-116.5 -88.5q-25 -19 -37 -28h631l-39 -168h-867z" />
    <glyph glyph-name="three" unicode="3" horiz-adv-x="1179" 
d="M403 -27q-137 -5 -237.5 52.5t-140.5 171.5l77 45q13 -112 88 -168.5t189 -53.5q160 5 287 110t168 286q37 158 -12 253t-193 95q-41 0 -88 -6l6 39q127 14 211 108t110 203q25 104 9 180q-14 60 -65 90.5t-120 30.5q-130 0 -222.5 -79t-129.5 -222l-74 18
q81 163 206.5 246.5t270.5 83.5q71 0 131 -19t105.5 -58t61 -99.5t-2.5 -144.5q-23 -98 -94.5 -181.5t-191.5 -134.5q156 -13 226.5 -121t37.5 -254q-34 -146 -127.5 -252.5t-217.5 -160t-268 -58.5z" />
    <glyph glyph-name="four" unicode="4" horiz-adv-x="1118" 
d="M578 0l94 410h-602l82 92l806 952h123l-336 -1454h-167zM170 457h514l188 819z" />
    <glyph glyph-name="five" unicode="5" horiz-adv-x="1153" 
d="M365 -18q-131 0 -224.5 57t-113.5 162l79 43q6 -108 75.5 -166t172.5 -58q80 0 164 37.5t150 106.5q107 113 145 274q42 194 -38 309t-243 115q-150 0 -337 -106l157 678h836l-39 -168h-776l-101 -430q177 88 336 88q98 0 180.5 -32.5t135.5 -91t74.5 -140.5t-1.5 -181
q-22 -95 -78 -185t-139 -159q-88 -75 -198 -114t-217 -39z" />
    <glyph glyph-name="six" unicode="6" horiz-adv-x="1185" 
d="M467 -20q-82 0 -148 25.5t-108.5 70.5t-70.5 105t-38 130t-6 143.5t21 147.5q36 155 113.5 294.5t172 238t200 172t201 110.5t171.5 41l-6 -26q-106 -7 -224.5 -96.5t-220.5 -234.5t-168 -315q77 71 171.5 110.5t189.5 39.5q179 0 268.5 -125t46.5 -317
q-20 -87 -70.5 -175.5t-122 -165t-170 -125t-202.5 -48.5zM475 20q124 0 234 131.5t157 337.5q41 181 -8.5 294.5t-169.5 113.5q-87 0 -186 -61t-189 -181q-7 -20 -14 -53q-38 -174 -30.5 -303.5t62 -204t144.5 -74.5z" />
    <glyph glyph-name="seven" unicode="7" horiz-adv-x="1079" 
d="M145 0q54 143 141 301t210.5 336t218 305.5t246.5 323.5h-691l39 168h834q-287 -367 -495 -735.5t-298 -698.5h-205z" />
    <glyph glyph-name="eight" unicode="8" horiz-adv-x="1157" 
d="M47 303q30 119 137.5 237.5t284.5 217.5q-92 96 -134.5 182t-21.5 176q39 167 197 262q136 82 293 77q151 -4 226 -87q70 -78 42 -201q-23 -100 -115 -196t-241 -178q67 -59 110 -104t86 -104t57.5 -120t0.5 -123q-40 -173 -217 -274q-157 -89 -348 -87q-182 1 -284 85
q-109 89 -73 237zM680 823q154 83 233.5 162.5t102.5 177.5q31 133 -65 202q-82 59 -208 44q-133 -16 -218 -104q-54 -57 -72 -134q-10 -45 1 -87.5t44.5 -84.5t67.5 -74.5t87 -78.5q18 -15 27 -23zM825 283q11 45 -1.5 89t-48.5 89t-71 79.5t-91 84.5q-31 27 -46 41l-65 61
q-331 -182 -389 -418q-33 -137 81 -213q99 -67 256 -59q164 8 273 92q81 63 102 154z" />
    <glyph glyph-name="nine" unicode="9" horiz-adv-x="1185" 
d="M252 -20l6 26q106 7 224 96t220 234t168 315q-77 -71 -171 -110t-189 -39q-179 0 -268.5 125t-46.5 317q20 87 70.5 175.5t122 165t170 125t202.5 48.5q82 0 148 -25.5t108.5 -70.5t70.5 -105t38 -130t6 -143.5t-21 -147.5q-36 -155 -113.5 -294.5t-172 -238t-200 -172
t-201 -110.5t-171.5 -41zM539 541q87 0 186 60.5t188 180.5q9 27 15 54q38 174 30 303.5t-62 203.5t-144 74q-125 0 -235 -132t-157 -337q-41 -181 9 -294t170 -113z" />
    <glyph glyph-name="colon" unicode=":" horiz-adv-x="440" 
d="M324 727q-41 0 -63 28.5t-13 69.5t44 69t77 28q40 0 61 -28t12 -69t-43.5 -69.5t-74.5 -28.5zM156 0q-41 0 -63 27.5t-13 70.5q9 40 44.5 68.5t76.5 28.5q40 0 61 -28.5t12 -68.5q-9 -42 -43.5 -70t-74.5 -28z" />
    <glyph glyph-name="semicolon" unicode=";" horiz-adv-x="446" 
d="M340 727q-41 0 -63 28.5t-13 69.5t44 69t77 28q40 0 61.5 -28t12.5 -69t-44 -69.5t-75 -28.5zM152 -137l-19 12q28 49 31 66q4 17 -3.5 30.5t-20 22.5t-25 23.5t-18 31.5t0.5 47q10 44 46 71.5t75 27.5q29 0 49.5 -16.5t26.5 -47.5q10 -60 -37 -137.5t-106 -130.5z" />
    <glyph glyph-name="less" unicode="&#x3c;" horiz-adv-x="1134" 
d="M948 262l-690 391l-94 58l119 57l874 391l-20 -84l-818 -364l650 -365z" />
    <glyph glyph-name="equal" unicode="=" horiz-adv-x="1128" 
d="M193 791l14 67h878l-14 -67h-878zM125 481l14 68h879l-14 -68h-879z" />
    <glyph glyph-name="greater" unicode="&#x3e;" horiz-adv-x="1134" 
d="M59 262l21 84l817 365l-649 364l20 84l690 -391l95 -57l-119 -58z" />
    <glyph glyph-name="question" unicode="?" horiz-adv-x="958" 
d="M322 309q18 80 68.5 174.5t111.5 182.5t123 177.5t114 189t72 188.5q29 125 -13.5 193.5t-150.5 68.5q-36 0 -75 -12t-79 -39t-72.5 -65.5t-55.5 -96.5t-29 -127h-86q22 95 71.5 171.5t113 123.5t133.5 71.5t139 24.5q64 0 119.5 -20t97 -60t57.5 -99.5t0 -137.5
q-21 -89 -85.5 -185.5t-144.5 -183l-160 -173t-144.5 -182.5t-84.5 -184h-40zM274 0q-40 0 -62.5 28.5t-12.5 69.5q9 40 43.5 68.5t74.5 28.5t63.5 -29t14.5 -68q-10 -41 -45.5 -69.5t-75.5 -28.5z" />
    <glyph glyph-name="at" unicode="@" horiz-adv-x="1810" 
d="M819 -348q-116 0 -215 23t-173 65t-131.5 100t-92.5 128t-52.5 149t-16 163.5t21.5 170.5q29 125 90.5 245t155 226.5t209 186.5t262.5 126.5t305 46.5q144 0 263 -43t205 -130.5t114.5 -219.5t-9.5 -309q-34 -143 -124.5 -283t-207.5 -225q-124 -90 -243 -90
q-99 0 -152 63.5t-31 159.5q-58 -84 -131.5 -141.5t-144.5 -63.5q-61 -5 -101 22t-56 76.5t-15.5 111t16.5 130.5q22 97 73.5 195t122 180.5t163.5 134t188 51.5q98 0 145 -90l41 88h138q-65 -137 -177 -361t-133 -268q-34 -68 -36 -121t24.5 -80t70 -34.5t103 12
t121.5 62.5q100 74 181.5 204t111.5 258q35 167 9.5 290.5t-104 205t-188.5 122t-243 40.5q-148 0 -285 -44t-245 -119t-195.5 -174.5t-145 -211.5t-84.5 -229q-18 -81 -20 -159.5t14 -152t48.5 -138.5t84.5 -119t120 -93t158 -60.5t195 -21.5q357 0 570 174h77
q-126 -113 -298.5 -171t-350.5 -58zM748 61q45 -1 98 45t105.5 125t92.5 151t80 155l95 200q0 47 -27.5 85.5t-65.5 39.5q-65 3 -129.5 -36.5t-115.5 -104.5t-96 -148t-75.5 -164t-47.5 -155q-10 -52 -9 -94.5t25 -70t70 -28.5z" />
    <glyph glyph-name="A" unicode="A" horiz-adv-x="1536" 
d="M-43 0l907 1434h131l252 -1434h-182l-84 477h-659l-304 -477h-61zM354 532h617l-133 762z" />
    <glyph glyph-name="B" unicode="B" horiz-adv-x="1542" 
d="M18 0l332 1434h543q270 0 397 -87t88 -262q-24 -99 -120 -190.5t-252 -138.5q362 -63 299 -357q-27 -132 -125 -223.5t-241.5 -133.5t-326.5 -42h-594zM362 764h365q398 0 473 330q33 138 -45 214t-274 76h-375zM199 49h430q198 0 327.5 89.5t165.5 244.5
q37 160 -46.5 246t-278.5 86h-445z" />
    <glyph glyph-name="C" unicode="C" horiz-adv-x="1660" 
d="M784 -20q-224 0 -378 93t-212.5 261t-9.5 381t186 381t334.5 261t421.5 93q189 0 322 -76.5t158 -189.5l-80 -27q-29 120 -133.5 185t-255.5 65q-119 0 -241 -50t-227 -138t-186 -218.5t-116 -281.5q-36 -157 -15 -285t83.5 -219.5t161.5 -141.5t218 -50
q152 0 286.5 64.5t217.5 184.5l67 -26q-75 -113 -244 -189.5t-358 -76.5z" />
    <glyph glyph-name="D" unicode="D" horiz-adv-x="1634" 
d="M18 0l332 1434h488q377 0 545 -180t96 -498q-80 -359 -333 -557.5t-638 -198.5h-490zM199 49h321q308 0 505 178t275 527q70 310 -51 471t-424 161h-319z" />
    <glyph glyph-name="E" unicode="E" horiz-adv-x="1361" 
d="M18 0l332 1434h993l-12 -56h-825l-141 -610h634l-12 -55h-635l-153 -658h825l-12 -55h-994z" />
    <glyph glyph-name="F" unicode="F" horiz-adv-x="1280" 
d="M18 0l332 1434h973l-12 -56h-805l-141 -610h634l-12 -55h-635l-166 -713h-168z" />
    <glyph glyph-name="G" unicode="G" horiz-adv-x="1724" 
d="M784 -20q-224 0 -378 93t-212.5 261t-9.5 381t186 381t334.5 261t421.5 93q189 0 322 -76.5t158 -189.5l-80 -27q-29 120 -133.5 185t-255.5 65q-120 0 -243.5 -50t-229 -138t-186.5 -218.5t-116 -281.5q-36 -157 -15 -285t84 -219t163 -140.5t221 -49.5q119 0 243.5 43
t188.5 108l96 418h168l-32 -143q-34 -146 -141 -255t-251 -162.5t-303 -53.5z" />
    <glyph glyph-name="H" unicode="H" horiz-adv-x="1521" 
d="M18 0l332 1434h168l-153 -666h817l153 666h168l-332 -1434h-167l165 713h-817l-166 -713h-168z" />
    <glyph glyph-name="I" unicode="I" horiz-adv-x="536" 
d="M18 0l332 1434h168l-332 -1434h-168z" />
    <glyph glyph-name="J" unicode="J" horiz-adv-x="638" 
d="M-68 -37l5 17q44 0 79.5 16t61.5 46t47 69t36.5 87.5t28.5 99.5t26 108q1 4 1 6l236 1022h168l-263 -1133q-45 -203 -136.5 -274.5t-289.5 -63.5z" />
    <glyph glyph-name="K" unicode="K" horiz-adv-x="1443" 
d="M18 0l332 1434h168l-164 -705l1024 705h88l-991 -682l660 -752h-252l-551 627l-146 -627h-168z" />
    <glyph glyph-name="L" unicode="L" horiz-adv-x="1259" 
d="M18 0l332 1434h168l-319 -1379h784l-12 -55h-953z" />
    <glyph glyph-name="M" unicode="M" horiz-adv-x="1959" 
d="M18 0l332 1434h172l373 -1244l879 1244h168l-332 -1434h-168l301 1300l-922 -1300h-59l-389 1292l-299 -1292h-56z" />
    <glyph glyph-name="N" unicode="N" horiz-adv-x="1521" 
d="M18 0l332 1434h166l664 -1162l268 1162h55l-332 -1434h-51l-745 1298l-301 -1298h-56z" />
    <glyph glyph-name="O" unicode="O" horiz-adv-x="1949" 
d="M803 -20q-150 0 -277.5 46t-221 138t-126.5 230t6 321q33 142 105.5 263.5t168.5 207.5t211.5 147.5t236 91t239.5 29.5q151 0 279.5 -47t221 -140t126 -231t-6.5 -321q-41 -176 -142 -319t-234 -232t-284 -136.5t-302 -47.5zM817 35q179 0 338.5 87t272.5 241.5
t159 351.5q36 148 17 273.5t-77 216.5t-160 142.5t-234 51.5q-266 0 -484.5 -194.5t-286.5 -489.5q-36 -148 -18 -273t76 -215.5t161 -141t236 -50.5z" />
    <glyph glyph-name="P" unicode="P" horiz-adv-x="1492" 
d="M18 0l332 1434h600q268 0 391.5 -107.5t79.5 -302.5q-46 -195 -219 -302.5t-442 -107.5h-432l-142 -614h-168zM340 664h432q197 0 312.5 88t158.5 272q41 184 -33.5 272t-271.5 88h-432z" />
    <glyph glyph-name="Q" unicode="Q" horiz-adv-x="1949" 
d="M231 -158l-14 6q33 64 112.5 117t174.5 70q-93 37 -163.5 96.5t-118 146t-57 195t18.5 242.5q33 142 105.5 263.5t169 207.5t212 147.5t236.5 91t240 29.5q151 0 279 -47t220.5 -140t125.5 -231t-7 -321q-41 -176 -142 -319t-234 -232t-284 -136.5t-302 -47.5h-21
q41 -21 106 -62.5t106 -66.5t104 -46.5t118 -19t128.5 33t152.5 95.5l12 -4q-106 -101 -204 -152.5t-176.5 -53.5t-149 20t-134 64t-117.5 82t-112.5 71t-107.5 34q-82 5 -146.5 -26t-130.5 -107zM819 35q271 0 485.5 191t282.5 489q36 148 17.5 273.5t-76.5 216.5
t-160.5 142.5t-234.5 51.5q-131 0 -257 -52t-227.5 -142.5t-177 -217.5t-109.5 -272q-36 -148 -17.5 -273t77 -215.5t161.5 -141t236 -50.5z" />
    <glyph glyph-name="R" unicode="R" horiz-adv-x="1533" 
d="M18 0l332 1434h600q268 0 391.5 -107.5t79.5 -302.5q-40 -168 -175 -271.5t-347 -129.5l250 -623h-199l-248 614h-374l-142 -614h-168zM340 664h432q197 0 312.5 88t158.5 272q41 184 -33.5 272t-271.5 88h-432z" />
    <glyph glyph-name="S" unicode="S" horiz-adv-x="1454" 
d="M539 -23q-115 0 -212 28.5t-166 89t-87 145.5l84 26q12 -62 49 -108t92 -72.5t119 -39.5t137 -13q165 0 295.5 80t159.5 209q7 30 7 57t-5.5 49t-19 42t-29 35.5t-40 31t-47.5 27t-56.5 24.5t-61.5 22.5t-68 22.5q-189 57 -267 99q-171 91 -169 249q0 39 10 82
q21 93 87 169.5t156.5 124.5t196 73.5t211.5 25.5q177 0 304.5 -67.5t154.5 -194.5l-84 -27q-16 82 -75 136t-138 76t-178 22q-165 0 -295 -79t-160 -208q-7 -30 -6.5 -56.5t5.5 -48t19.5 -41.5t29 -35t40.5 -30.5t47.5 -26t57 -23.5t61.5 -22t68 -22q46 -14 71 -22
t68.5 -23.5t68 -27.5t60.5 -30t56.5 -36t45.5 -42t36.5 -50.5t20.5 -58t8 -69t-11 -79.5q-21 -93 -87 -169.5t-156.5 -124.5t-196 -74t-211.5 -26z" />
    <glyph glyph-name="T" unicode="T" horiz-adv-x="1503" 
d="M502 0l319 1378h-524l12 56h1217l-13 -56h-524l-319 -1378h-168z" />
    <glyph glyph-name="U" unicode="U" horiz-adv-x="1490" 
d="M594 -20q-283 0 -397 141.5t-45 441.5l200 871h168l-207 -893q-28 -138 -19.5 -234t57 -155.5t118 -86t162.5 -26.5q209 0 367 133.5t216 384.5l203 877h56l-203 -875q-34 -147 -100 -259t-155 -181.5t-195 -104t-226 -34.5z" />
    <glyph glyph-name="V" unicode="V" horiz-adv-x="1529" 
d="M541 0l-252 1434h182l227 -1289l813 1289h62l-907 -1434h-125z" />
    <glyph glyph-name="W" unicode="W" horiz-adv-x="2426" 
d="M500 0l-211 1434h182l184 -1280l762 1280h62l157 -1280l772 1280h62l-866 -1434h-125l-152 1182l-702 -1182h-125z" />
    <glyph glyph-name="X" unicode="X" horiz-adv-x="1583" 
d="M18 0l691 672l-359 762h209l293 -623l639 623h74l-691 -672l359 -762h-207l-293 625l-643 -625h-72z" />
    <glyph glyph-name="Y" unicode="Y" horiz-adv-x="1501" 
d="M514 0l129 561l-354 873h200l316 -775l674 775h65l-721 -826l-141 -608h-168z" />
    <glyph glyph-name="Z" unicode="Z" horiz-adv-x="1558" 
d="M18 0l13 55l1296 1323h-989l12 56h1190l-12 -56l-1297 -1323h990l-13 -55h-1190z" />
    <glyph glyph-name="bracketleft" unicode="[" horiz-adv-x="577" 
d="M-29 -240l385 1674h332l-10 -48h-182l-365 -1579h182l-10 -47h-332z" />
    <glyph glyph-name="backslash" unicode="\" horiz-adv-x="948" 
d="M604 -240l-246 1694h68l246 -1694h-68z" />
    <glyph glyph-name="bracketright" unicode="]" horiz-adv-x="577" 
d="M-29 -240l11 47h182l364 1579h-182l10 48h332l-385 -1674h-332z" />
    <glyph glyph-name="asciicircum" unicode="^" horiz-adv-x="694" 
d="M115 1147l284 430h76l88 -430h-92l-63 295l-201 -295h-92z" />
    <glyph glyph-name="underscore" unicode="_" horiz-adv-x="1226" 
d="M156 -166l16 68h981l-16 -68h-981z" />
    <glyph glyph-name="grave" unicode="`" horiz-adv-x="522" 
d="M332 1534l-201 252h162l98 -252h-59z" />
    <glyph glyph-name="a" unicode="a" horiz-adv-x="1249" 
d="M457 -20q-87 0 -155 27t-108 73t-63.5 107.5t-22.5 130.5t15 143q31 136 106.5 244.5t191.5 173t253 65.5q233 3 313 -207l43 185h162l-213 -922h-168l43 186q-180 -206 -397 -206zM512 43q30 0 66.5 9.5t84.5 37.5t91.5 69.5t86.5 113.5t70 163l11 43q17 95 6 165.5
t-34.5 117.5t-60 76t-70.5 41t-67 12q-75 0 -142 -36.5t-115.5 -97.5t-83 -133.5t-52.5 -152.5q-14 -63 -16.5 -123.5t10 -115.5t38.5 -97t71.5 -67t105.5 -25z" />
    <glyph glyph-name="b" unicode="b" horiz-adv-x="1167" 
d="M514 -20q-120 0 -194 48t-111 148l-41 -176h-168l332 1434h168l-158 -686q171 199 399 196q103 -1 178.5 -38.5t114.5 -102.5t50 -153t-15 -189q-21 -93 -68.5 -177.5t-116.5 -153t-165.5 -109.5t-204.5 -41zM487 43q98 0 185.5 65.5t141.5 160.5t79 202
q15 63 18.5 122.5t-7.5 114t-35.5 95t-69 64.5t-105.5 24q-33 0 -72.5 -11.5t-89 -42t-94.5 -75t-88.5 -118.5t-70.5 -165l-11 -47q-13 -71 -9 -126t14 -96t31 -70.5t43 -48t49 -29.5t48.5 -15t42.5 -4z" />
    <glyph glyph-name="c" unicode="c" horiz-adv-x="1157" 
d="M504 -16q-94 0 -173.5 30t-137 90t-77 149.5t6.5 209.5q27 115 91 208.5t148.5 151.5t179.5 88.5t191 30.5q129 0 221 -56.5t125 -164.5l-90 -43q-7 109 -73.5 162t-178.5 53q-90 0 -174 -43.5t-154 -139.5t-100 -231q-49 -211 21 -322.5t223 -111.5q227 0 360 215
l66 -35q-195 -241 -475 -241z" />
    <glyph glyph-name="d" unicode="d" horiz-adv-x="1306" 
d="M457 -20q-87 0 -155 27t-108 73t-63.5 107.5t-22.5 130.5t15 143q32 136 108 244.5t192 173t253 65.5q223 3 309 -196l158 686h168l-332 -1434h-168l43 186q-180 -206 -397 -206zM512 43q30 0 66.5 9.5t85 37.5t92.5 69.5t87 113.5t70 163l9 43q17 95 6 165.5t-34 117.5
t-59 76t-70 41t-67 12q-75 0 -142 -36.5t-116 -97.5t-83.5 -133.5t-53.5 -152.5q-14 -63 -16.5 -123.5t10 -115.5t38.5 -97t71.5 -67t105.5 -25z" />
    <glyph glyph-name="e" unicode="e" horiz-adv-x="1200" 
d="M504 -16q-94 0 -173.5 30t-137 90t-77 149.5t6.5 209.5q27 115 91 208.5t148.5 151.5t179.5 88.5t191 30.5q91 0 165 -30t124.5 -90t65.5 -149.5t-11 -209.5h-776v-2q-13 -63 -10.5 -120t23.5 -101.5t52 -80t74.5 -56.5t91.5 -31.5t103 -4t108.5 25.5t108.5 56.5
t102 90.5l31 -29q-89 -110 -218.5 -168.5t-262.5 -58.5zM315 518h623q31 182 -30 278.5t-189 96.5q-118 0 -233 -99t-171 -276z" />
    <glyph glyph-name="f" unicode="f" horiz-adv-x="600" 
d="M14 0l205 866h-104l12 56h104l21 86q48 209 174.5 333.5t298.5 124.5q83 0 143 -36t82 -99l-127 -47q-15 117 -125 117q-103 0 -184.5 -82.5t-110.5 -204.5q-25 -109 3 -192h208l-12 -56h-215l-205 -866h-168z" />
    <glyph glyph-name="g" unicode="g" horiz-adv-x="1249" 
d="M88 -283l29 33q30 -41 76.5 -71t103 -44t118 -13t122.5 26.5t114.5 70t97 121.5t66.5 178l39 168q-180 -206 -397 -206q-73 0 -132.5 19t-100 52t-68 78.5t-39 99.5t-10 112.5t15.5 119.5q49 209 197.5 344.5t355.5 138.5q231 3 311 -207l43 185h162l-207 -902
q-29 -129 -100 -225.5t-158.5 -146t-187.5 -70.5t-188.5 -8.5t-159.5 50.5t-103 97zM516 59q30 0 66.5 10t84.5 37.5t91.5 69.5t86.5 114t70 163l5 16q17 95 6 165.5t-34 117.5t-59 76t-70 41t-67 12q-100 0 -183.5 -61t-134 -151t-75.5 -198q-20 -77 -15.5 -151t26.5 -132
t74.5 -93.5t127.5 -35.5z" />
    <glyph glyph-name="h" unicode="h" horiz-adv-x="1181" 
d="M-2 0l332 1434h168l-179 -766q112 145 240 211q123 63 248 63q170 0 232.5 -99.5t11.5 -324.5l-121 -518h-168l121 518q44 195 14 277t-145 82q-60 0 -129.5 -28.5t-138 -81t-127.5 -138.5t-89 -189l-102 -440h-168z" />
    <glyph glyph-name="i" unicode="i" horiz-adv-x="495" 
d="M348 1106q-44 0 -68.5 32t-15.5 76q10 44 50.5 76.5t84.5 32.5t68.5 -32.5t13.5 -76.5q-9 -44 -48.5 -76t-84.5 -32zM10 0l213 922h168l-213 -922h-168z" />
    <glyph glyph-name="j" unicode="j" horiz-adv-x="514" 
d="M395 1106q-44 0 -68.5 32t-15.5 76q11 44 50 76.5t83 32.5t69 -32.5t15 -76.5q-9 -44 -48.5 -76t-84.5 -32zM-223 -440l4 16q37 0 69 13t54.5 31t44 54t34.5 64t28.5 81t23 83.5t21.5 92.5q2 9 3 13l211 914h168l-235 -1024q-47 -203 -137.5 -274.5t-288.5 -63.5z" />
    <glyph glyph-name="k" unicode="k" horiz-adv-x="1171" 
d="M-2 0l332 1434h168l-254 -1102l798 590h84l-575 -424l356 -498h-233l-277 383l-172 -127l-59 -256h-168z" />
    <glyph glyph-name="l" unicode="l" horiz-adv-x="536" 
d="M12 0l330 1434l182 61l-344 -1495h-168z" />
    <glyph glyph-name="m" unicode="m" horiz-adv-x="1916" 
d="M55 0l213 922h162l-61 -263q98 135 218 209t255 74q130 0 192.5 -68.5t50.5 -220.5q106 142 221 215.5t257 73.5q156 0 214.5 -100t6.5 -324l-119 -518h-168l119 512q43 198 16.5 280t-127.5 82q-77 0 -164.5 -47t-168 -143t-121.5 -219l-107 -465h-168l119 512
q43 198 16.5 280t-127.5 82q-57 0 -122 -27t-127.5 -76.5t-117.5 -129t-87 -176.5l-107 -465h-168z" />
    <glyph glyph-name="n" unicode="n" horiz-adv-x="1236" 
d="M55 0l213 922h162l-61 -263q48 68 112.5 127t132.5 93q123 63 248 63q170 0 232 -99.5t10 -324.5l-119 -518h-168l119 512q44 198 14.5 280t-145.5 82q-60 0 -128.5 -27.5t-136 -79t-125.5 -137t-89 -190.5l-103 -440h-168z" />
    <glyph glyph-name="o" unicode="o" horiz-adv-x="1269" 
d="M524 -16q-101 0 -185 30t-143 90t-79 149.5t6 209.5q27 116 90.5 209t149 151t183.5 88.5t199 30.5q102 0 185.5 -30t143 -90t79.5 -149.5t-6 -209.5q-27 -116 -91 -209t-149 -151t-183.5 -88.5t-199.5 -30.5zM535 33q152 0 267.5 110t166.5 320q51 208 -16.5 319
t-221.5 111q-153 0 -267.5 -111t-162.5 -321q-48 -208 17 -318t217 -110z" />
    <glyph glyph-name="p" unicode="p" horiz-adv-x="1269" 
d="M8 -410l307 1332h162l-43 -185q181 210 408 207q103 -1 178.5 -38.5t114 -102.5t50 -153t-13.5 -189q-21 -93 -68.5 -177.5t-116.5 -153t-165.5 -109.5t-204.5 -41q-120 0 -194 48t-111 148l-135 -586h-168zM590 43q75 0 143.5 37.5t119.5 100t87.5 137t54.5 153.5
q14 63 17.5 122.5t-7.5 114t-35.5 95t-69 64.5t-105.5 24q-33 0 -72.5 -11.5t-89 -42t-94.5 -75t-88 -118.5t-70 -165l-10 -41q-11 -84 -9 -146t22 -106t43.5 -71.5t55.5 -43.5t57.5 -22t49.5 -6z" />
    <glyph glyph-name="q" unicode="q" horiz-adv-x="1249" 
d="M717 -410l137 596q-180 -206 -397 -206q-87 0 -155 27t-108 73t-63.5 107.5t-22.5 130.5t15 143q31 136 106.5 244.5t191.5 173t253 65.5q233 3 313 -207l43 185h162l-307 -1332h-168zM512 43q30 0 66.5 9.5t84.5 37.5t91.5 69.5t86.5 113.5t70 163l11 43q17 95 6 165.5
t-34.5 117.5t-60 76t-70.5 41t-67 12q-75 0 -142 -36.5t-115.5 -97.5t-83 -133.5t-52.5 -152.5q-14 -63 -16.5 -123.5t10 -115.5t38.5 -97t71.5 -67t105.5 -25z" />
    <glyph glyph-name="r" unicode="r" horiz-adv-x="980" 
d="M55 0l213 922h162l-57 -244q223 261 446 264q170 3 219 -137l-155 -70q-6 74 -29 108.5t-80 35.5q-44 1 -105 -27t-125.5 -80t-124.5 -139.5t-93 -192.5l-103 -440h-168z" />
    <glyph glyph-name="s" unicode="s" horiz-adv-x="1093" 
d="M430 -20q-95 0 -174.5 21t-134.5 66.5t-64 108.5l107 19q1 -77 83 -118.5t199 -41.5q120 0 202 46.5t104 143.5q10 43 -12.5 73t-67 44t-103 26.5t-121 21t-119 28.5t-98.5 47.5t-59.5 79t-1.5 121.5q21 88 101.5 152.5t184.5 94t216 29.5q145 0 248.5 -52t115.5 -145
l-104 -18q-1 80 -82 123.5t-199 40.5q-121 -3 -204 -49t-105 -144q-11 -50 19 -81.5t87 -47t127 -27t139 -29t123 -44.5t79.5 -81t7.5 -132q-21 -90 -99.5 -154t-180.5 -93t-214 -29z" />
    <glyph glyph-name="t" unicode="t" horiz-adv-x="661" 
d="M217 -23q-101 0 -131 63.5t2 199.5l145 626h-104l12 56h105l86 368l180 62l-98 -430h223l-12 -56h-224l-118 -516q-7 -31 -18 -74.5t-17 -68t-12.5 -56t-7 -48.5t2 -34.5t12 -26t25.5 -11.5q26 -5 68.5 14t93.5 70l19 -19q-113 -119 -232 -119z" />
    <glyph glyph-name="u" unicode="u" horiz-adv-x="1236" 
d="M375 -20q-170 0 -232 99t-10 324l119 519h168l-119 -519q-46 -198 -16.5 -280t145.5 -82q58 0 125.5 27t134.5 77t125.5 131.5t91.5 180.5l107 465h168l-213 -922h-162l61 262q-119 -155 -245 -219q-123 -63 -248 -63z" />
    <glyph glyph-name="v" unicode="v" horiz-adv-x="1075" 
d="M377 0l-209 922h182l178 -785l531 785h61l-624 -922h-119z" />
    <glyph glyph-name="w" unicode="w" horiz-adv-x="1607" 
d="M330 0l-162 922h182l133 -768l453 768h70l96 -775l489 775h62l-584 -922h-125l-88 680l-401 -680h-125z" />
    <glyph glyph-name="x" unicode="x" horiz-adv-x="1058" 
d="M31 0l422 408l-244 512h207l178 -375l387 375h74l-439 -424l234 -496h-205l-170 358l-371 -358h-73z" />
    <glyph glyph-name="y" unicode="y" horiz-adv-x="1241" 
d="M82 -283l27 33q30 -41 76.5 -71t103.5 -44t118.5 -13t123 26.5t115 70t97 121.5t66.5 178l49 215q-112 -132 -239 -192.5t-244 -60.5q-170 0 -232 99t-10 324l119 519h168l-115 -502q-46 -198 -16.5 -280.5t145.5 -82.5q47 0 101 17.5t111.5 54t109.5 87.5t95.5 124
t68.5 158l96 424h168l-207 -902q-29 -129 -100 -225.5t-158.5 -146t-187 -70.5t-188 -8.5t-159.5 50.5t-102 97z" />
    <glyph glyph-name="z" unicode="z" horiz-adv-x="1198" 
d="M16 0l13 55l899 811h-711l12 56h942l-12 -56l-899 -811h721l-12 -55h-953z" />
    <glyph glyph-name="braceleft" unicode="{" horiz-adv-x="641" 
d="M367 -240q-133 0 -207 58t-58 131l115 502q15 54 1 93t-56 48l4 10q45 9 76 46.5t43 92.5l116 504q16 73 116.5 131t234.5 58l-4 -17q-72 0 -124.5 -48t-70.5 -124l-115 -485q-8 -36 -25 -63.5t-61.5 -55.5t-113.5 -45q158 -42 127 -164l-113 -483q-18 -75 13.5 -125.5
t103.5 -50.5z" />
    <glyph glyph-name="bar" unicode="|" horiz-adv-x="313" 
d="M-29 -240l385 1674h68l-385 -1674h-68z" />
    <glyph glyph-name="braceright" unicode="}" horiz-adv-x="641" 
d="M-29 -240l2 13q72 0 126.5 50t72.5 126l109 483q14 56 59 98t145 66q-90 24 -114.5 66t-12.5 98l111 485q18 75 -13.5 123.5t-103.5 48.5l4 17q133 0 207 -58t58 -131l-117 -504q-12 -56 2 -93t55 -46l-4 -10q-44 -9 -75.5 -47t-45.5 -94l-114 -502q-16 -73 -116.5 -131
t-234.5 -58z" />
    <glyph glyph-name="asciitilde" unicode="~" horiz-adv-x="1124" 
d="M156 645l16 78q72 54 141 69.5t126.5 0.5t114.5 -42.5t114.5 -55t115 -42.5t126.5 0.5t141 69.5l-17 -78q-72 -54 -141 -69.5t-126.5 -0.5t-114.5 42.5l-114 55t-114.5 42.5t-126.5 -0.5t-141 -69.5z" />
    <glyph glyph-name="exclamdown" unicode="&#xa1;" horiz-adv-x="442" 
d="M383 825q-41 0 -63 28.5t-13 68.5q9 41 44.5 69.5t76.5 28.5q40 0 62.5 -28.5t13.5 -69.5q-9 -40 -45 -68.5t-76 -28.5zM2 -414l295 1104h106l-215 -1104h-186z" />
    <glyph glyph-name="cent" unicode="&#xa2;" horiz-adv-x="1165" 
d="M461 -205l43 191q-88 5 -160.5 37.5t-124 92.5t-67.5 146.5t8 200.5q20 88 62.5 163.5t98 130t123 94.5t138 62t143.5 27l51 227h74l-51 -225q118 -6 201.5 -62.5t115.5 -158.5l-90 -43q-6 105 -69.5 158.5t-170.5 56.5l-192 -836q99 -8 204 38.5t193 144.5l31 -29
q-83 -102 -201 -159.5t-243 -65.5l-43 -191h-74zM524 72l189 817q-131 -22 -235.5 -132t-139.5 -296q-31 -150 23 -252.5t163 -136.5z" />
    <glyph glyph-name="sterling" unicode="&#xa3;" horiz-adv-x="1226" 
d="M57 0l13 57q94 74 165.5 176.5t96.5 215.5q18 71 20 153t-2 143h-182l16 68h164q-3 104 23 223q24 103 80.5 185t131 132.5t158 76.5t166.5 26q120 0 206 -49.5t116 -137.5t-10 -208l-78 29q40 115 17.5 188t-83.5 105.5t-149 25.5q-138 -11 -247 -105t-147 -260
q-23 -101 -20 -231h319l-16 -68h-305q0 -152 -27 -262q-39 -169 -211 -315h693l-101 -168h-807z" />
    <glyph glyph-name="currency" unicode="&#xa4;" horiz-adv-x="1241" 
d="M23 -152l206 258q-79 94 -79 238q0 63 14 123q52 226 235 360l-90 260h92l82 -206q133 71 291 71q154 0 260 -71l176 206h93l-211 -262q82 -91 82 -235q0 -58 -15 -123q-51 -223 -233 -358l90 -261h-92l-82 207q-137 -73 -293 -73q-155 0 -258 71l-176 -205h-92zM563 33
q67 0 136 28t131.5 80t112 137t73.5 189q16 65 16 137q0 143 -77 221t-193 78q-91 0 -180 -47t-165 -148.5t-108 -240.5q-16 -65 -16 -135q0 -143 77 -221t193 -78z" />
    <glyph glyph-name="yen" unicode="&#xa5;" horiz-adv-x="1501" 
d="M555 0l78 338h-281l17 68h280l29 124h-281l17 68h256l-340 836h200l316 -775l674 775h65l-721 -826l-2 -10h301l-16 -68h-301l-29 -124h301l-16 -68h-301l-78 -338h-168z" />
    <glyph glyph-name="brokenbar" unicode="&#xa6;" horiz-adv-x="313" 
d="M184 682l172 752h68l-172 -752h-68zM-29 -240l172 752h68l-172 -752h-68z" />
    <glyph glyph-name="section" unicode="&#xa7;" horiz-adv-x="950" 
d="M373 0q-88 0 -159 24t-109.5 75.5t-18.5 119.5l92 2q-23 -88 38.5 -135t162.5 -47q94 0 173 40.5t95 108.5q9 40 -15 78.5t-69 71.5t-100.5 67t-110.5 70t-99 74.5t-65.5 87t-9.5 100.5q15 69 78 124.5t143 70.5q-109 85 -114 145q0 33 6 60q16 67 77 117t140.5 73
t165.5 23t153.5 -23t103.5 -73t17 -117l-92 -2q23 84 -41.5 130t-167.5 46q-93 0 -169.5 -38.5t-90.5 -105.5q-9 -40 14.5 -78.5t68.5 -71.5t100.5 -67t110.5 -70.5t98.5 -74.5t65 -87t9.5 -102q-15 -68 -76.5 -120t-142.5 -70q115 -85 115 -147q2 -29 -5 -66
q-16 -68 -74.5 -118t-135.5 -72.5t-162 -22.5zM612 444q123 43 144 134q6 28 -6 57.5t-34.5 55t-61 57t-72.5 54.5t-81.5 56t-76.5 55q-124 -43 -145 -135q-6 -28 6 -58t34 -55t61 -57t72 -54t82.5 -56t77.5 -54z" />
    <glyph glyph-name="dieresis" unicode="&#xa8;" horiz-adv-x="745" 
d="M180 1516q-43 0 -65 28.5t-13 71.5q9 42 45.5 71.5t77.5 28.5q43 -1 65 -30t13 -70q-9 -43 -44.5 -71.5t-78.5 -28.5zM520 1516q-43 0 -65 28.5t-13 71.5q9 41 44.5 69.5t78.5 28.5q41 0 64 -28.5t14 -69.5q-9 -42 -45 -71t-78 -29z" />
    <glyph glyph-name="copyright" unicode="&#xa9;" horiz-adv-x="1554" 
d="M668 -18q-107 0 -199.5 33.5t-158.5 93t-109 141.5t-51.5 179t14.5 206q41 178 164 328.5t294 237.5t349 87q106 0 198 -33.5t157.5 -93t109 -141.5t52 -179t-14.5 -206q-41 -177 -164 -327.5t-294 -238t-347 -87.5zM684 51q119 0 237.5 46.5t215 124.5t168 186t98.5 227
q36 158 -11 292.5t-163.5 213t-274.5 78.5q-159 0 -311.5 -78t-261.5 -212.5t-145 -293.5t10 -293t162.5 -212.5t275.5 -78.5zM756 276q-81 0 -140.5 32t-87 83.5t-36.5 117.5t10 134q16 70 53 135t89.5 117.5t125.5 83.5t154 31q107 0 168.5 -56t48.5 -147l-105 -4
q4 55 -30.5 83.5t-102.5 28.5q-112 0 -193 -80t-106 -190q-27 -114 16.5 -195t155.5 -81q122 0 182 114h115q-33 -80 -120.5 -143.5t-196.5 -63.5z" />
    <glyph glyph-name="guillemotleft" unicode="&#xab;" horiz-adv-x="1314" 
d="M698 242l-534 448l743 449l-20 -84l-592 -365l424 -364zM1128 242l-534 448l743 449l-20 -84l-592 -365l424 -364z" />
    <glyph glyph-name="logicalnot" unicode="&#xac;" horiz-adv-x="1124" 
d="M928 336l80 344h-811l14 68h879l-95 -412h-67z" />
    <glyph glyph-name="registered" unicode="&#xae;" horiz-adv-x="985" 
d="M449 901q-154 0 -237 108.5t-48 262.5q35 152 169 260t288 108q152 0 234.5 -108t47.5 -260q-35 -154 -168.5 -262.5t-285.5 -108.5zM461 954q131 0 244.5 93t144.5 225q31 130 -40 222.5t-202 92.5q-132 0 -246 -92t-145 -223q-31 -132 40.5 -225t203.5 -93zM383 1073
l94 414h72q59 0 88 -10q86 -32 72 -119q-11 -53 -55.5 -93.5t-108.5 -50.5l84 -141h-90l-62 103l-22 -103h-72zM492 1233q125 3 151 119q13 58 -10 86t-88 24z" />
    <glyph glyph-name="macron" unicode="&#xaf;" horiz-adv-x="806" 
d="M90 1538l25 100h602l-25 -100h-602z" />
    <glyph glyph-name="degree" unicode="&#xb0;" horiz-adv-x="847" 
d="M395 954q-125 0 -192.5 88.5t-38.5 212.5q29 125 138 213t233 88q125 0 192.5 -88.5t38.5 -212.5q-29 -125 -138 -213t-233 -88zM410 1014q98 0 183.5 70.5t108.5 170.5q23 98 -30.5 168t-151.5 70t-184 -70t-109 -168q-23 -100 31 -170.5t152 -70.5z" />
    <glyph glyph-name="plusminus" unicode="&#xb1;" horiz-adv-x="1124" 
d="M487 295l99 426h-406l17 67h405l88 386h68l-88 -386h405l-16 -67h-406l-98 -426h-68zM43 127l16 68h879l-16 -68h-879z" />
    <glyph glyph-name="acute" unicode="&#xb4;" horiz-adv-x="522" 
d="M74 1534l213 252h162l-316 -252h-59z" />
    <glyph glyph-name="paragraph" unicode="&#xb6;" horiz-adv-x="1087" 
d="M340 0l156 670q-170 25 -234 156q-57 117 -11 265q47 149 174 244q132 99 306 99h68l-332 -1434h-127zM713 0l331 1434h127l-331 -1434h-127z" />
    <glyph glyph-name="periodcentered" unicode="&#xb7;" horiz-adv-x="440" 
d="M240 541q-41 0 -63 28.5t-13 69.5q9 40 44.5 68t76.5 28q40 0 61 -28t12 -68q-9 -41 -43.5 -69.5t-74.5 -28.5z" />
    <glyph glyph-name="cedilla" unicode="&#xb8;" horiz-adv-x="616" 
d="M223 -367q70 4 112 67q39 58 21 110q-20 63 -108 57q-15 -1 -33 -4l100 137h70l-70 -94q115 7 161.5 -45t27.5 -127q-24 -92 -103.5 -140t-173 -32t-153.5 94l24 27q65 -53 125 -50z" />
    <glyph glyph-name="guillemotright" unicode="&#xbb;" horiz-adv-x="1314" 
d="M59 242l21 84l592 364l-424 365l20 84l535 -449zM489 242l21 84l592 364l-424 365l20 84l535 -449z" />
    <glyph glyph-name="onequarter" unicode="&#xbc;" horiz-adv-x="1521" 
d="M313 623l213 921l148 119l-242 -1040h-119zM-61 -283l1579 1860h88l-1579 -1860h-88zM1087 -229l68 292h-430l57 66l578 682h88l-242 -1040h-119zM797 98h366l135 586z" />
    <glyph glyph-name="onehalf" unicode="&#xbd;" horiz-adv-x="1755" 
d="M293 623l213 921l147 119l-241 -1040h-119zM-61 -283l1579 1860h88l-1579 -1860h-88zM821 -223q17 14 88 71t129 104.5t139 123.5t139.5 143.5t108 149t66.5 153.5q28 122 -13.5 184.5t-127.5 65.5q-55 2 -107.5 -17t-103.5 -73t-80 -137l-47 14q35 67 85 121.5t131 95.5
t173 41q127 0 184.5 -80t28.5 -202q-12 -54 -40 -108t-72.5 -107.5t-88.5 -99t-111 -101t-114.5 -93t-121.5 -93.5q-31 -23 -46 -35h450l-28 -121h-621z" />
    <glyph glyph-name="threequarters" unicode="&#xbe;" horiz-adv-x="1744" 
d="M457 635q-99 -3 -171.5 38t-101.5 122l58 32q9 -80 61.5 -119.5t134.5 -37.5q113 2 204.5 77.5t121.5 204.5q26 112 -9.5 180t-138.5 68q-17 0 -63 -4l4 29q91 10 152 77t79 144q16 70 5 129q-9 42 -44.5 64t-84.5 22q-94 0 -160 -56t-94 -159l-52 14q57 116 147 176
t193 60q109 0 173 -59.5t38 -172.5q-14 -69 -65.5 -129t-138.5 -96q112 -9 162 -85.5t26 -180.5q-35 -155 -157.5 -244t-278.5 -94zM176 -283l1579 1860h88l-1579 -1860h-88zM1268 -229l69 292h-430l633 748h88l-242 -1040h-118zM977 98h366l136 586z" />
    <glyph glyph-name="questiondown" unicode="&#xbf;" horiz-adv-x="958" 
d="M723 825q-40 0 -63.5 29t-14.5 68q10 41 45.5 69.5t75.5 28.5t63 -28.5t13 -69.5q-9 -40 -44 -68.5t-75 -28.5zM334 -514q-64 0 -120 20t-97.5 60t-57.5 99.5t0 137.5q21 89 85.5 185.5t144.5 183l160 173t144.5 182.5t84.5 184h41q-18 -80 -68.5 -174.5t-112 -182.5
t-123.5 -177.5t-114 -189t-72 -188.5q-29 -125 13.5 -193.5t150.5 -68.5q47 0 99 19.5t102 58t85 107t40 155.5h72q-22 -95 -71.5 -171.5t-113 -123.5t-133.5 -71.5t-139 -24.5z" />
    <glyph glyph-name="Agrave" unicode="&#xc0;" horiz-adv-x="1536" 
d="M907 1536l-200 252h161l99 -252h-60zM-43 0l907 1434h131l252 -1434h-182l-84 477h-659l-304 -477h-61zM354 532h617l-133 762z" />
    <glyph glyph-name="Aacute" unicode="&#xc1;" horiz-adv-x="1536" 
d="M764 1536l213 252h162l-316 -252h-59zM-43 0l907 1434h131l252 -1434h-182l-84 477h-659l-304 -477h-61zM354 532h617l-133 762z" />
    <glyph glyph-name="Acircumflex" unicode="&#xc2;" horiz-adv-x="1536" 
d="M637 1452l213 252h272l99 -252h-60l-180 227l-285 -227h-59zM-43 0l907 1434h131l252 -1434h-182l-84 477h-659l-304 -477h-61zM354 532h617l-133 762z" />
    <glyph glyph-name="Atilde" unicode="&#xc3;" horiz-adv-x="1536" 
d="M1122 1513q-52 0 -113.5 30t-117.5 59.5t-94 29.5q-108 0 -131 -98h-31q27 119 73.5 165t112.5 46q51 0 112.5 -27.5t118.5 -54.5t97 -27q46 0 83 25t46 63h31q-27 -119 -73.5 -165t-113.5 -46zM-43 0l907 1434h131l252 -1434h-182l-84 477h-659l-304 -477h-61zM354 532
h617l-133 762z" />
    <glyph glyph-name="Adieresis" unicode="&#xc4;" horiz-adv-x="1536" 
d="M762 1516q-43 0 -65 28.5t-13 71.5q9 42 45.5 71.5t77.5 28.5q43 -1 65 -30t13 -70q-9 -43 -44.5 -71.5t-78.5 -28.5zM1102 1516q-43 0 -65 28.5t-13 71.5q9 41 44.5 69.5t78.5 28.5q41 0 64 -28.5t14 -69.5q-9 -42 -45 -71t-78 -29zM-43 0l907 1434h131l252 -1434h-182
l-84 477h-659l-304 -477h-61zM354 532h617l-133 762z" />
    <glyph glyph-name="Aring" unicode="&#xc5;" horiz-adv-x="1536" 
d="M995 1434l252 -1434h-182l-84 477h-659l-304 -477h-61l905 1432q-55 19 -81 69.5t-11 114.5q19 79 89.5 136.5t150.5 57.5t124 -57.5t25 -136.5q-13 -61 -60.5 -110.5t-109.5 -71.5h6zM825 1616q-13 -58 18.5 -99.5t88.5 -41.5t108 41.5t64 99.5q14 57 -18 99.5t-89 41.5
q-57 -2 -108 -43t-64 -98zM354 532h617l-133 762z" />
    <glyph glyph-name="AE" unicode="&#xc6;" horiz-adv-x="2099" 
d="M-43 0l999 1434h1125l-13 -56h-784l-141 -610h594l-13 -55h-594l-153 -658h784l-12 -55h-952l110 477h-555l-334 -477h-61zM389 532h531l196 846h-135v2z" />
    <glyph glyph-name="Ccedilla" unicode="&#xc7;" horiz-adv-x="1619" 
d="M1126 1450q189 0 322 -76.5t158 -189.5l-80 -27q-29 120 -133.5 185t-255.5 65q-119 0 -241 -50t-227 -138t-186 -218.5t-116 -281.5q-36 -157 -15 -285t83.5 -219.5t161.5 -141.5t218 -50q152 0 286.5 64.5t217.5 184.5l67 -26q-74 -110 -234.5 -186t-344.5 -80l-55 -74
q115 7 161 -45t27 -127q-24 -92 -103.5 -140t-173 -32t-153.5 94l25 27q65 -53 124 -50q70 4 112 67q39 58 21 110q-20 63 -108 57q-15 -1 -33 -4l86 119q-209 9 -351.5 104t-195.5 259t-6 370q49 213 186 381t334.5 261t421.5 93z" />
    <glyph glyph-name="Egrave" unicode="&#xc8;" horiz-adv-x="1361" 
d="M901 1534l-201 252h162l99 -252h-60zM18 0l332 1434h993l-12 -56h-825l-141 -610h634l-12 -55h-635l-153 -658h825l-12 -55h-994z" />
    <glyph glyph-name="Eacute" unicode="&#xc9;" horiz-adv-x="1361" 
d="M793 1534l213 252h161l-315 -252h-59zM18 0l332 1434h993l-12 -56h-825l-141 -610h634l-12 -55h-635l-153 -658h825l-12 -55h-994z" />
    <glyph glyph-name="Ecircumflex" unicode="&#xca;" horiz-adv-x="1361" 
d="M578 1536l213 252h272l98 -252h-59l-180 227l-285 -227h-59zM18 0l332 1434h993l-12 -56h-825l-141 -610h634l-12 -55h-635l-153 -658h825l-12 -55h-994z" />
    <glyph glyph-name="Edieresis" unicode="&#xcb;" horiz-adv-x="1361" 
d="M723 1534q-43 0 -65 28.5t-13 71.5q9 42 45.5 72t77.5 29q43 -1 65 -30.5t13 -70.5q-9 -43 -44.5 -71.5t-78.5 -28.5zM1063 1534q-43 0 -65 28.5t-13 71.5q9 41 44.5 70t78.5 29q41 0 64 -29t14 -70q-9 -42 -45 -71t-78 -29zM18 0l332 1434h993l-12 -56h-825l-141 -610
h634l-12 -55h-635l-153 -658h825l-12 -55h-994z" />
    <glyph glyph-name="Igrave" unicode="&#xcc;" horiz-adv-x="577" 
d="M473 1534l-201 252h162l98 -252h-59zM18 0l332 1434h168l-332 -1434h-168z" />
    <glyph glyph-name="Iacute" unicode="&#xcd;" horiz-adv-x="577" 
d="M389 1532l213 252h162l-315 -252h-60zM18 0l332 1434h168l-332 -1434h-168z" />
    <glyph glyph-name="Icircumflex" unicode="&#xce;" horiz-adv-x="577" 
d="M172 1536l213 252h272l99 -252h-60l-180 227l-285 -227h-59zM18 0l332 1434h168l-332 -1434h-168z" />
    <glyph glyph-name="Idieresis" unicode="&#xcf;" horiz-adv-x="577" 
d="M301 1536q-43 0 -65 28.5t-13 71.5q9 42 45.5 72t77.5 29q43 -1 65 -30.5t13 -70.5q-9 -43 -44.5 -71.5t-78.5 -28.5zM641 1536q-43 0 -65 28.5t-13 71.5q9 41 44.5 70t78.5 29q41 0 64 -29t14 -70q-9 -42 -45 -71t-78 -29zM18 0l332 1434h168l-332 -1434h-168z" />
    <glyph glyph-name="Eth" unicode="&#xd0;" horiz-adv-x="1634" 
d="M18 0l162 696h-164l15 68h164l155 670h488q377 0 545 -180t96 -498q-80 -359 -333 -557.5t-638 -198.5h-490zM199 49h321q308 0 505 178t275 527q70 310 -51 471t-424 161h-319l-144 -622h261l-15 -68h-260z" />
    <glyph glyph-name="Ntilde" unicode="&#xd1;" horiz-adv-x="1521" 
d="M1176 1534q-41 0 -89.5 18.5t-84.5 41t-78.5 41t-73.5 18.5q-57 0 -89 -28t-42 -71h-31q27 119 73.5 165t112.5 46q51 0 112.5 -27t118.5 -54t97 -27q46 0 83 25t46 63h31q-27 -119 -73.5 -165t-112.5 -46zM18 0l332 1434h166l664 -1162l268 1162h55l-332 -1434h-51
l-745 1298l-301 -1298h-56z" />
    <glyph glyph-name="Ograve" unicode="&#xd2;" horiz-adv-x="1949" 
d="M1147 1534l-201 252h162l98 -252h-59zM803 -20q-150 0 -277.5 46t-221 138t-126.5 230t6 321q33 142 105.5 263.5t168.5 207.5t211.5 147.5t236 91t239.5 29.5q151 0 279.5 -47t221 -140t126 -231t-6.5 -321q-41 -176 -142 -319t-234 -232t-284 -136.5t-302 -47.5z
M817 35q179 0 338.5 87t272.5 241.5t159 351.5q36 148 17 273.5t-77 216.5t-160 142.5t-234 51.5q-266 0 -484.5 -194.5t-286.5 -489.5q-36 -148 -18 -273t76 -215.5t161 -141t236 -50.5z" />
    <glyph glyph-name="Oacute" unicode="&#xd3;" horiz-adv-x="1949" 
d="M1120 1534l213 252h162l-315 -252h-60zM803 -20q-150 0 -277.5 46t-221 138t-126.5 230t6 321q33 142 105.5 263.5t168.5 207.5t211.5 147.5t236 91t239.5 29.5q151 0 279.5 -47t221 -140t126 -231t-6.5 -321q-41 -176 -142 -319t-234 -232t-284 -136.5t-302 -47.5z
M817 35q179 0 338.5 87t272.5 241.5t159 351.5q36 148 17 273.5t-77 216.5t-160 142.5t-234 51.5q-266 0 -484.5 -194.5t-286.5 -489.5q-36 -148 -18 -273t76 -215.5t161 -141t236 -50.5z" />
    <glyph glyph-name="Ocircumflex" unicode="&#xd4;" horiz-adv-x="1949" 
d="M860 1534l213 252h273l98 -252h-60l-180 227l-284 -227h-60zM803 -20q-150 0 -277.5 46t-221 138t-126.5 230t6 321q33 142 105.5 263.5t168.5 207.5t211.5 147.5t236 91t239.5 29.5q151 0 279.5 -47t221 -140t126 -231t-6.5 -321q-41 -176 -142 -319t-234 -232
t-284 -136.5t-302 -47.5zM817 35q179 0 338.5 87t272.5 241.5t159 351.5q36 148 17 273.5t-77 216.5t-160 142.5t-234 51.5q-266 0 -484.5 -194.5t-286.5 -489.5q-36 -148 -18 -273t76 -215.5t161 -141t236 -50.5z" />
    <glyph glyph-name="Otilde" unicode="&#xd5;" horiz-adv-x="1949" 
d="M1313 1536q-41 0 -89.5 18.5t-84.5 41t-78.5 41t-73.5 18.5q-57 0 -89 -28t-42 -71h-31q27 119 73.5 165t113.5 46q51 0 112 -27t118 -54t97 -27q46 0 83 25t46 63h31q-27 -119 -73.5 -165t-112.5 -46zM803 -20q-150 0 -277.5 46t-221 138t-126.5 230t6 321
q33 142 105.5 263.5t168.5 207.5t211.5 147.5t236 91t239.5 29.5q151 0 279.5 -47t221 -140t126 -231t-6.5 -321q-41 -176 -142 -319t-234 -232t-284 -136.5t-302 -47.5zM817 35q179 0 338.5 87t272.5 241.5t159 351.5q36 148 17 273.5t-77 216.5t-160 142.5t-234 51.5
q-266 0 -484.5 -194.5t-286.5 -489.5q-36 -148 -18 -273t76 -215.5t161 -141t236 -50.5z" />
    <glyph glyph-name="Odieresis" unicode="&#xd6;" horiz-adv-x="1949" 
d="M1016 1532q-43 0 -65 28.5t-13 71.5q9 42 45.5 72t77.5 29q43 -1 65 -30.5t13 -70.5q-9 -43 -44.5 -71.5t-78.5 -28.5zM1356 1532q-43 0 -65 28.5t-13 71.5q9 41 44.5 70t78.5 29q41 0 64 -29t14 -70q-9 -42 -45 -71t-78 -29zM803 -20q-150 0 -277.5 46t-221 138
t-126.5 230t6 321q33 142 105.5 263.5t168.5 207.5t211.5 147.5t236 91t239.5 29.5q151 0 279.5 -47t221 -140t126 -231t-6.5 -321q-41 -176 -142 -319t-234 -232t-284 -136.5t-302 -47.5zM817 35q179 0 338.5 87t272.5 241.5t159 351.5q36 148 17 273.5t-77 216.5
t-160 142.5t-234 51.5q-266 0 -484.5 -194.5t-286.5 -489.5q-36 -148 -18 -273t76 -215.5t161 -141t236 -50.5z" />
    <glyph glyph-name="multiply" unicode="&#xd7;" horiz-adv-x="929" 
d="M133 332l-35 47l365 291l-219 284l61 47l217 -282l338 268l37 -47l-338 -268l223 -291l-59 -49l-223 291z" />
    <glyph glyph-name="Oslash" unicode="&#xd8;" horiz-adv-x="1949" 
d="M1546 1348q146 -93 207.5 -254t11.5 -379q-41 -176 -142 -319t-234 -232t-284 -136.5t-302 -47.5q-238 0 -404 106l-96 -106h-78l127 141q-120 95 -166.5 245t-1.5 349q33 142 105.5 263.5t168.5 207.5t211.5 147.5t236 91t239.5 29.5q190 0 348 -76l70 76h79zM362 715
q-36 -157 -17.5 -285.5t87.5 -220.5l998 1100q-120 90 -297 90q-266 0 -484.5 -194.5t-286.5 -489.5zM1587 715q39 178 9.5 320.5t-121.5 234.5l-1004 -1106q129 -129 346 -129q179 0 338.5 87t272.5 241.5t159 351.5z" />
    <glyph glyph-name="Ugrave" unicode="&#xd9;" horiz-adv-x="1488" 
d="M940 1454l-201 252h162l98 -252h-59zM594 -20q-283 0 -397 141.5t-45 441.5l200 871h168l-207 -893q-28 -138 -19.5 -234t57 -155.5t118 -86t162.5 -26.5q209 0 367 133.5t216 384.5l203 877h56l-203 -875q-34 -147 -100 -259t-155 -181.5t-195 -104t-226 -34.5z" />
    <glyph glyph-name="Uacute" unicode="&#xda;" horiz-adv-x="1488" 
d="M887 1452l213 252h162l-316 -252h-59zM594 -20q-283 0 -397 141.5t-45 441.5l200 871h168l-207 -893q-28 -138 -19.5 -234t57 -155.5t118 -86t162.5 -26.5q209 0 367 133.5t216 384.5l203 877h56l-203 -875q-34 -147 -100 -259t-155 -181.5t-195 -104t-226 -34.5z" />
    <glyph glyph-name="Ucircumflex" unicode="&#xdb;" horiz-adv-x="1488" 
d="M686 1491l213 252h272l99 -252h-60l-180 227l-285 -227h-59zM594 -20q-283 0 -397 141.5t-45 441.5l200 871h168l-207 -893q-28 -138 -19.5 -234t57 -155.5t118 -86t162.5 -26.5q209 0 367 133.5t216 384.5l203 877h56l-203 -875q-34 -147 -100 -259t-155 -181.5
t-195 -104t-226 -34.5z" />
    <glyph glyph-name="Udieresis" unicode="&#xdc;" horiz-adv-x="1488" 
d="M772 1485q-43 0 -65 28.5t-13 71.5q9 42 45.5 72t77.5 29q43 -1 65 -30.5t13 -70.5q-9 -43 -44.5 -71.5t-78.5 -28.5zM1112 1485q-43 0 -65 28.5t-13 71.5q9 41 44.5 69.5t78.5 28.5q41 0 64 -28.5t14 -69.5q-9 -42 -45 -71t-78 -29zM594 -20q-283 0 -397 141.5
t-45 441.5l200 871h168l-207 -893q-28 -138 -19.5 -234t57 -155.5t118 -86t162.5 -26.5q209 0 367 133.5t216 384.5l203 877h56l-203 -875q-34 -147 -100 -259t-155 -181.5t-195 -104t-226 -34.5z" />
    <glyph glyph-name="Yacute" unicode="&#xdd;" horiz-adv-x="1501" 
d="M926 1536l213 252h161l-315 -252h-59zM514 0l129 561l-354 873h200l316 -775l674 775h65l-721 -826l-141 -608h-168z" />
    <glyph glyph-name="Thorn" unicode="&#xde;" horiz-adv-x="1492" 
d="M18 0l332 1434h168l-67 -287h432q269 0 393 -107.5t78 -302.5q-44 -195 -217.5 -302t-442.5 -107h-432l-76 -328h-168zM274 377h433q197 0 312.5 88t156.5 272q43 184 -32 272.5t-272 88.5h-432z" />
    <glyph glyph-name="germandbls" unicode="&#xdf;" horiz-adv-x="1243" 
d="M541 -23q-108 3 -174 57.5t-60 158.5h25q-1 -88 59 -130.5t146 -42.5q134 0 239 97.5t137 238.5q18 63 12 122t-30.5 104.5t-86.5 73t-155 26.5q-16 -2 -49 -2l6 31q100 0 188.5 74.5t121.5 193.5q39 146 -13 224t-172 75q-50 -2 -97.5 -19.5t-94 -54t-83.5 -101
t-57 -149.5l-221 -954h-168l203 874q27 115 81 201.5t127.5 137.5t157.5 75.5t179 24.5q80 0 142 -20.5t98.5 -55.5t55.5 -81t17.5 -96t-20.5 -102t-53.5 -98.5t-87 -85.5t-115.5 -63q108 -13 175 -65t86 -124.5t-1 -159.5q-39 -173 -181.5 -281t-336.5 -104z" />
    <glyph glyph-name="agrave" unicode="&#xe0;" horiz-adv-x="1249" 
d="M682 1049l-201 251h162l98 -251h-59zM457 -20q-87 0 -155 27t-108 73t-63.5 107.5t-22.5 130.5t15 143q31 136 106.5 244.5t191.5 173t253 65.5q233 3 313 -207l43 185h162l-213 -922h-168l43 186q-180 -206 -397 -206zM512 43q30 0 66.5 9.5t84.5 37.5t91.5 69.5
t86.5 113.5t70 163l11 43q17 95 6 165.5t-34.5 117.5t-60 76t-70.5 41t-67 12q-75 0 -142 -36.5t-115.5 -97.5t-83 -133.5t-52.5 -152.5q-14 -63 -16.5 -123.5t10 -115.5t38.5 -97t71.5 -67t105.5 -25z" />
    <glyph glyph-name="aacute" unicode="&#xe1;" horiz-adv-x="1249" 
d="M690 1044l213 252h162l-315 -252h-60zM457 -20q-87 0 -155 27t-108 73t-63.5 107.5t-22.5 130.5t15 143q31 136 106.5 244.5t191.5 173t253 65.5q233 3 313 -207l43 185h162l-213 -922h-168l43 186q-180 -206 -397 -206zM512 43q30 0 66.5 9.5t84.5 37.5t91.5 69.5
t86.5 113.5t70 163l11 43q17 95 6 165.5t-34.5 117.5t-60 76t-70.5 41t-67 12q-75 0 -142 -36.5t-115.5 -97.5t-83 -133.5t-52.5 -152.5q-14 -63 -16.5 -123.5t10 -115.5t38.5 -97t71.5 -67t105.5 -25z" />
    <glyph glyph-name="acircumflex" unicode="&#xe2;" horiz-adv-x="1249" 
d="M426 1067l213 252h272l99 -252h-60l-180 227l-285 -227h-59zM457 -20q-87 0 -155 27t-108 73t-63.5 107.5t-22.5 130.5t15 143q31 136 106.5 244.5t191.5 173t253 65.5q233 3 313 -207l43 185h162l-213 -922h-168l43 186q-180 -206 -397 -206zM512 43q30 0 66.5 9.5
t84.5 37.5t91.5 69.5t86.5 113.5t70 163l11 43q17 95 6 165.5t-34.5 117.5t-60 76t-70.5 41t-67 12q-75 0 -142 -36.5t-115.5 -97.5t-83 -133.5t-52.5 -152.5q-14 -63 -16.5 -123.5t10 -115.5t38.5 -97t71.5 -67t105.5 -25z" />
    <glyph glyph-name="atilde" unicode="&#xe3;" horiz-adv-x="1249" 
d="M928 1049q-52 0 -113.5 29.5t-118 59t-94.5 29.5q-108 0 -131 -98h-31q27 119 73.5 165t113.5 46q51 0 112 -27t118 -54.5t97 -27.5q46 0 83 25.5t46 63.5h31q-27 -119 -73.5 -165t-112.5 -46zM457 -20q-87 0 -155 27t-108 73t-63.5 107.5t-22.5 130.5t15 143
q31 136 106.5 244.5t191.5 173t253 65.5q233 3 313 -207l43 185h162l-213 -922h-168l43 186q-180 -206 -397 -206zM512 43q30 0 66.5 9.5t84.5 37.5t91.5 69.5t86.5 113.5t70 163l11 43q17 95 6 165.5t-34.5 117.5t-60 76t-70.5 41t-67 12q-75 0 -142 -36.5t-115.5 -97.5
t-83 -133.5t-52.5 -152.5q-14 -63 -16.5 -123.5t10 -115.5t38.5 -97t71.5 -67t105.5 -25z" />
    <glyph glyph-name="adieresis" unicode="&#xe4;" horiz-adv-x="1249" 
d="M612 1055q-43 0 -64.5 28.5t-12.5 71.5q9 42 45 71.5t77 28.5q43 -1 65 -30t13 -70q-9 -43 -44.5 -71.5t-78.5 -28.5zM952 1055q-43 0 -65 28.5t-13 71.5q9 41 44.5 69.5t78.5 28.5q41 0 64 -28.5t14 -69.5q-9 -42 -45 -71t-78 -29zM457 -20q-87 0 -155 27t-108 73
t-63.5 107.5t-22.5 130.5t15 143q31 136 106.5 244.5t191.5 173t253 65.5q233 3 313 -207l43 185h162l-213 -922h-168l43 186q-180 -206 -397 -206zM512 43q30 0 66.5 9.5t84.5 37.5t91.5 69.5t86.5 113.5t70 163l11 43q17 95 6 165.5t-34.5 117.5t-60 76t-70.5 41t-67 12
q-75 0 -142 -36.5t-115.5 -97.5t-83 -133.5t-52.5 -152.5q-14 -63 -16.5 -123.5t10 -115.5t38.5 -97t71.5 -67t105.5 -25z" />
    <glyph glyph-name="aring" unicode="&#xe5;" horiz-adv-x="1249" 
d="M741 1044q-79 0 -123.5 57.5t-25.5 137.5t89.5 137.5t149.5 57.5q80 0 124.5 -58t25.5 -137q-19 -80 -90 -137.5t-150 -57.5zM754 1098q57 0 108 41.5t64 99.5q14 57 -18 99.5t-89 41.5q-57 -2 -108 -43t-64 -98q-13 -58 18.5 -99.5t88.5 -41.5zM457 -20q-87 0 -155 27
t-108 73t-63.5 107.5t-22.5 130.5t15 143q31 136 106.5 244.5t191.5 173t253 65.5q233 3 313 -207l43 185h162l-213 -922h-168l43 186q-180 -206 -397 -206zM512 43q30 0 66.5 9.5t84.5 37.5t91.5 69.5t86.5 113.5t70 163l11 43q17 95 6 165.5t-34.5 117.5t-60 76t-70.5 41
t-67 12q-75 0 -142 -36.5t-115.5 -97.5t-83 -133.5t-52.5 -152.5q-14 -63 -16.5 -123.5t10 -115.5t38.5 -97t71.5 -67t105.5 -25z" />
    <glyph glyph-name="ae" unicode="&#xe6;" horiz-adv-x="1859" 
d="M1163 -16q-116 0 -209 45.5t-143 132.5q-152 -145 -355 -178q-171 -28 -291 34q-114 59 -118 171q-2 30 6 63q21 90 84.5 154.5t160.5 98t225.5 45.5t279.5 -1q22 105 22 183t-46.5 123.5t-143.5 45.5q-220 0 -307 -188l-86 12q121 218 417 221q116 1 199.5 -42.5
t118.5 -117.5q87 76 196.5 116t219.5 40q94 0 168 -30t124 -90t64 -149.5t-12 -209.5h-776v-2q-18 -74 -9.5 -134t33 -109.5t67.5 -82t93.5 -52t111.5 -18t120.5 18t121.5 57t115 99.5l31 -29q-89 -110 -219 -168.5t-263 -58.5zM975 518h622q33 182 -28 278.5t-189 96.5
q-118 0 -233.5 -99t-171.5 -276zM797 193q-51 117 -15 268l11 43q-253 25 -393.5 -36.5t-176.5 -219.5q-26 -112 61 -170q84 -57 223 -33q160 27 290 148z" />
    <glyph glyph-name="ccedilla" unicode="&#xe7;" horiz-adv-x="1157" 
d="M737 893q-90 0 -174 -43.5t-154 -139.5t-100 -231q-49 -211 21 -322.5t223 -111.5q227 0 360 215l66 -35q-177 -219 -422 -239l-59 -80q115 7 161 -45t27 -127q-24 -92 -103.5 -140t-173 -32t-153.5 94l25 27q65 -53 125 -50q70 4 112 67q38 58 21 110q-21 63 -109 57
q-16 -1 -33 -4l88 121q-91 3 -167 34.5t-130 91.5t-72 148t7 205q27 115 91 208.5t148.5 151.5t179.5 88.5t191 30.5q129 0 221 -56.5t125 -164.5l-90 -43q-7 109 -73.5 162t-178.5 53z" />
    <glyph glyph-name="egrave" unicode="&#xe8;" horiz-adv-x="1200" 
d="M694 1042l-200 252h161l99 -252h-60zM504 -16q-94 0 -173.5 30t-137 90t-77 149.5t6.5 209.5q27 115 91 208.5t148.5 151.5t179.5 88.5t191 30.5q91 0 165 -30t124.5 -90t65.5 -149.5t-11 -209.5h-776v-2q-13 -63 -10.5 -120t23.5 -101.5t52 -80t74.5 -56.5t91.5 -31.5
t103 -4t108.5 25.5t108.5 56.5t102 90.5l31 -29q-89 -110 -218.5 -168.5t-262.5 -58.5zM315 518h623q31 182 -30 278.5t-189 96.5q-118 0 -233 -99t-171 -276z" />
    <glyph glyph-name="eacute" unicode="&#xe9;" horiz-adv-x="1200" 
d="M735 1049l213 251h162l-315 -251h-60zM504 -16q-94 0 -173.5 30t-137 90t-77 149.5t6.5 209.5q27 115 91 208.5t148.5 151.5t179.5 88.5t191 30.5q91 0 165 -30t124.5 -90t65.5 -149.5t-11 -209.5h-776v-2q-13 -63 -10.5 -120t23.5 -101.5t52 -80t74.5 -56.5t91.5 -31.5
t103 -4t108.5 25.5t108.5 56.5t102 90.5l31 -29q-89 -110 -218.5 -168.5t-262.5 -58.5zM315 518h623q31 182 -30 278.5t-189 96.5q-118 0 -233 -99t-171 -276z" />
    <glyph glyph-name="ecircumflex" unicode="&#xea;" horiz-adv-x="1200" 
d="M440 1044l213 252h273l98 -252h-59l-181 228l-284 -228h-60zM504 -16q-94 0 -173.5 30t-137 90t-77 149.5t6.5 209.5q27 115 91 208.5t148.5 151.5t179.5 88.5t191 30.5q91 0 165 -30t124.5 -90t65.5 -149.5t-11 -209.5h-776v-2q-13 -63 -10.5 -120t23.5 -101.5t52 -80
t74.5 -56.5t91.5 -31.5t103 -4t108.5 25.5t108.5 56.5t102 90.5l31 -29q-89 -110 -218.5 -168.5t-262.5 -58.5zM315 518h623q31 182 -30 278.5t-189 96.5q-118 0 -233 -99t-171 -276z" />
    <glyph glyph-name="edieresis" unicode="&#xeb;" horiz-adv-x="1200" 
d="M594 1047q-43 0 -65 28.5t-13 71.5q9 42 45.5 71.5t77.5 28.5q43 -1 65 -30t13 -70q-9 -43 -44.5 -71.5t-78.5 -28.5zM934 1047q-43 0 -65 28.5t-13 71.5q9 41 44.5 69.5t78.5 28.5q41 0 64 -28.5t14 -69.5q-9 -42 -45 -71t-78 -29zM504 -16q-94 0 -173.5 30t-137 90
t-77 149.5t6.5 209.5q27 115 91 208.5t148.5 151.5t179.5 88.5t191 30.5q91 0 165 -30t124.5 -90t65.5 -149.5t-11 -209.5h-776v-2q-13 -63 -10.5 -120t23.5 -101.5t52 -80t74.5 -56.5t91.5 -31.5t103 -4t108.5 25.5t108.5 56.5t102 90.5l31 -29q-89 -110 -218.5 -168.5
t-262.5 -58.5zM315 518h623q31 182 -30 278.5t-189 96.5q-118 0 -233 -99t-171 -276z" />
    <glyph glyph-name="igrave" unicode="&#xec;" horiz-adv-x="495" 
d="M379 1042l-201 252h162l98 -252h-59zM57 0l213 922h168l-213 -922h-168z" />
    <glyph glyph-name="iacute" unicode="&#xed;" horiz-adv-x="495" 
d="M299 1040l213 252h162l-316 -252h-59zM57 0l213 922h168l-213 -922h-168z" />
    <glyph glyph-name="icircumflex" unicode="&#xee;" horiz-adv-x="495" 
d="M92 1044l213 252h273l98 -252h-60l-180 228l-284 -228h-60zM57 0l213 922h168l-213 -922h-168z" />
    <glyph glyph-name="idieresis" unicode="&#xef;" horiz-adv-x="495" 
d="M199 1044q-43 0 -65 29t-13 72q9 42 45.5 71.5t77.5 28.5q43 -1 65 -30t13 -70q-9 -43 -44.5 -72t-78.5 -29zM539 1044q-43 0 -65 29t-13 72q9 41 44.5 69.5t78.5 28.5q41 0 64 -28.5t14 -69.5q-9 -42 -45 -71.5t-78 -29.5zM57 0l213 922h168l-213 -922h-168z" />
    <glyph glyph-name="eth" unicode="&#xf0;" horiz-adv-x="1249" 
d="M1368 1171l-27 -55h-161l-258 -1116h-168l43 186q-180 -206 -398 -206q-87 0 -154.5 27t-107.5 73t-63.5 107.5t-22.5 130.5t15 143q32 136 107.5 244t191.5 173t253 66q224 3 310 -196l84 368h-160l27 58h147l59 260h168l-61 -263h176zM862 469q17 95 6 165.5t-34 117.5
t-59 76t-69.5 41t-66.5 12q-75 0 -142 -35t-115 -94t-82.5 -130t-53.5 -151q-20 -77 -15.5 -151t26.5 -132t74.5 -93.5t127.5 -35.5q30 0 66.5 10t84.5 37.5t91.5 69.5t86.5 114t70 163z" />
    <glyph glyph-name="ntilde" unicode="&#xf1;" horiz-adv-x="1236" 
d="M893 1057q-41 0 -89.5 18.5t-84.5 41t-78.5 41t-73.5 18.5q-57 0 -89 -28t-42 -71h-30q27 119 73.5 165t112.5 46q51 0 112.5 -27t118.5 -54t97 -27q46 0 83 25t46 63h30q-27 -119 -73.5 -165t-112.5 -46zM55 0l213 922h162l-61 -263q48 68 112.5 127t132.5 93
q123 63 248 63q170 0 232 -99.5t10 -324.5l-119 -518h-168l119 512q44 198 14.5 280t-145.5 82q-60 0 -128.5 -27.5t-136 -79t-125.5 -137t-89 -190.5l-103 -440h-168z" />
    <glyph glyph-name="ograve" unicode="&#xf2;" horiz-adv-x="1269" 
d="M700 1047l-200 251h162l98 -251h-60zM524 -16q-101 0 -185 30t-143 90t-79 149.5t6 209.5q27 116 90.5 209t149 151t183.5 88.5t199 30.5q102 0 185.5 -30t143 -90t79.5 -149.5t-6 -209.5q-27 -116 -91 -209t-149 -151t-183.5 -88.5t-199.5 -30.5zM535 33
q152 0 267.5 110t166.5 320q51 208 -16.5 319t-221.5 111q-153 0 -267.5 -111t-162.5 -321q-48 -208 17 -318t217 -110z" />
    <glyph glyph-name="oacute" unicode="&#xf3;" horiz-adv-x="1269" 
d="M735 1044l213 252h162l-315 -252h-60zM524 -16q-101 0 -185 30t-143 90t-79 149.5t6 209.5q27 116 90.5 209t149 151t183.5 88.5t199 30.5q102 0 185.5 -30t143 -90t79.5 -149.5t-6 -209.5q-27 -116 -91 -209t-149 -151t-183.5 -88.5t-199.5 -30.5zM535 33
q152 0 267.5 110t166.5 320q51 208 -16.5 319t-221.5 111q-153 0 -267.5 -111t-162.5 -321q-48 -208 17 -318t217 -110z" />
    <glyph glyph-name="ocircumflex" unicode="&#xf4;" horiz-adv-x="1269" 
d="M471 1044l213 252h272l99 -252h-60l-180 228l-285 -228h-59zM524 -16q-101 0 -185 30t-143 90t-79 149.5t6 209.5q27 116 90.5 209t149 151t183.5 88.5t199 30.5q102 0 185.5 -30t143 -90t79.5 -149.5t-6 -209.5q-27 -116 -91 -209t-149 -151t-183.5 -88.5t-199.5 -30.5z
M535 33q152 0 267.5 110t166.5 320q51 208 -16.5 319t-221.5 111q-153 0 -267.5 -111t-162.5 -321q-48 -208 17 -318t217 -110z" />
    <glyph glyph-name="otilde" unicode="&#xf5;" horiz-adv-x="1269" 
d="M948 1044q-52 0 -113.5 30t-117.5 59.5t-94 29.5q-108 0 -131 -98h-31q27 119 73.5 165t112.5 46q41 0 88.5 -17t84 -37.5t80 -37.5t75.5 -17q46 0 83 25t46 63h31q-27 -119 -73.5 -165t-113.5 -46zM524 -16q-101 0 -185 30t-143 90t-79 149.5t6 209.5q27 116 90.5 209
t149 151t183.5 88.5t199 30.5q102 0 185.5 -30t143 -90t79.5 -149.5t-6 -209.5q-27 -116 -91 -209t-149 -151t-183.5 -88.5t-199.5 -30.5zM535 33q152 0 267.5 110t166.5 320q51 208 -16.5 319t-221.5 111q-153 0 -267.5 -111t-162.5 -321q-48 -208 17 -318t217 -110z" />
    <glyph glyph-name="odieresis" unicode="&#xf6;" horiz-adv-x="1269" 
d="M571 1042q-42 0 -64 29t-13 72q9 42 45 71.5t77 28.5q43 -1 65 -30t13 -70q-9 -43 -44.5 -72t-78.5 -29zM911 1042q-42 0 -64 29t-13 72q9 41 44 69.5t78 28.5q41 0 64 -28.5t14 -69.5q-9 -42 -45 -71.5t-78 -29.5zM524 -16q-101 0 -185 30t-143 90t-79 149.5t6 209.5
q27 116 90.5 209t149 151t183.5 88.5t199 30.5q102 0 185.5 -30t143 -90t79.5 -149.5t-6 -209.5q-27 -116 -91 -209t-149 -151t-183.5 -88.5t-199.5 -30.5zM535 33q152 0 267.5 110t166.5 320q51 208 -16.5 319t-221.5 111q-153 0 -267.5 -111t-162.5 -321q-48 -208 17 -318
t217 -110z" />
    <glyph glyph-name="divide" unicode="&#xf7;" horiz-adv-x="1124" 
d="M635 856q-41 0 -63 28.5t-13 69.5q11 41 45.5 69t75.5 28q40 0 62 -28t12 -69q-9 -41 -44 -69.5t-75 -28.5zM160 639l14 68h879l-15 -68h-878zM500 266q-42 0 -64 28.5t-12 70.5q9 40 44.5 68t76.5 28q40 0 61 -28t12 -68q-10 -43 -44 -71t-74 -28z" />
    <glyph glyph-name="oslash" unicode="&#xf8;" horiz-adv-x="1269" 
d="M1038 854q79 -61 109.5 -160.5t-0.5 -230.5q-27 -116 -91 -209t-149 -151t-183.5 -88.5t-199.5 -30.5q-146 0 -248 57l-73 -78h-78l104 111q-78 61 -107 159.5t1 229.5q27 116 90.5 209t149 151t183.5 88.5t199 30.5q143 0 244 -55l78 82h80zM301 461q-45 -186 8 -301
l617 657q-67 76 -195 76q-153 0 -267.5 -111t-162.5 -321zM969 463q47 191 -11 305l-618 -657q69 -78 195 -78q152 0 267.5 110t166.5 320z" />
    <glyph glyph-name="ugrave" unicode="&#xf9;" horiz-adv-x="1236" 
d="M723 999l-201 252h162l98 -252h-59zM375 -20q-170 0 -232 99t-10 324l119 519h168l-119 -519q-46 -198 -16.5 -280t145.5 -82q58 0 125.5 27t134.5 77t125.5 131.5t91.5 180.5l107 465h168l-213 -922h-162l61 262q-119 -155 -245 -219q-123 -63 -248 -63z" />
    <glyph glyph-name="uacute" unicode="&#xfa;" horiz-adv-x="1236" 
d="M522 1004l213 251h162l-315 -251h-60zM375 -20q-170 0 -232 99t-10 324l119 519h168l-119 -519q-46 -198 -16.5 -280t145.5 -82q58 0 125.5 27t134.5 77t125.5 131.5t91.5 180.5l107 465h168l-213 -922h-162l61 262q-119 -155 -245 -219q-123 -63 -248 -63z" />
    <glyph glyph-name="ucircumflex" unicode="&#xfb;" horiz-adv-x="1236" 
d="M430 1044l213 252h272l99 -252h-60l-180 228l-285 -228h-59zM375 -20q-170 0 -232 99t-10 324l119 519h168l-119 -519q-46 -198 -16.5 -280t145.5 -82q58 0 125.5 27t134.5 77t125.5 131.5t91.5 180.5l107 465h168l-213 -922h-162l61 262q-119 -155 -245 -219
q-123 -63 -248 -63z" />
    <glyph glyph-name="udieresis" unicode="&#xfc;" horiz-adv-x="1236" 
d="M553 1044q-43 0 -65 29t-13 72q9 42 45.5 71.5t77.5 28.5q43 -1 65 -30t13 -70q-9 -43 -44.5 -72t-78.5 -29zM893 1044q-43 0 -65 29t-13 72q9 41 44.5 69.5t78.5 28.5q41 0 64 -28.5t14 -69.5q-9 -42 -45 -71.5t-78 -29.5zM375 -20q-170 0 -232 99t-10 324l119 519h168
l-119 -519q-46 -198 -16.5 -280t145.5 -82q58 0 125.5 27t134.5 77t125.5 131.5t91.5 180.5l107 465h168l-213 -922h-162l61 262q-119 -155 -245 -219q-123 -63 -248 -63z" />
    <glyph glyph-name="yacute" unicode="&#xfd;" horiz-adv-x="1239" 
d="M715 1047l213 251h162l-316 -251h-59zM82 -283l27 33q30 -41 76.5 -71t103.5 -44t118.5 -13t123 26.5t115 70t97 121.5t66.5 178l49 215q-112 -132 -239 -192.5t-244 -60.5q-170 0 -232 99t-10 324l119 519h168l-115 -502q-46 -198 -16.5 -280.5t145.5 -82.5
q47 0 101 17.5t111.5 54t109.5 87.5t95.5 124t68.5 158l96 424h168l-207 -902q-29 -129 -100 -225.5t-158.5 -146t-187 -70.5t-188 -8.5t-159.5 50.5t-102 97z" />
    <glyph glyph-name="thorn" unicode="&#xfe;" horiz-adv-x="1249" 
d="M8 -410l426 1844h168l-158 -686q171 199 400 196q102 -1 177.5 -38.5t114 -102.5t50 -153t-14.5 -189q-21 -93 -68.5 -177.5t-116.5 -153t-165.5 -109.5t-204.5 -41q-219 0 -303 206l-137 -596h-168zM594 59q99 0 184.5 61.5t139 152.5t77.5 198q14 63 17.5 121.5
t-7.5 111.5t-35.5 92t-69 62t-105.5 23q-33 0 -72.5 -11.5t-89.5 -42t-95 -75t-88.5 -118.5t-70.5 -165l-4 -16q-11 -80 -8 -140t22.5 -104t43 -73t54.5 -46t57 -24t50 -7z" />
    <glyph glyph-name="ydieresis" unicode="&#xff;" horiz-adv-x="1239" 
d="M594 1049q-43 0 -65 28.5t-13 71.5q9 42 45.5 71.5t77.5 28.5q43 -1 65 -30t13 -70q-9 -43 -44.5 -71.5t-78.5 -28.5zM934 1049q-43 0 -65 28.5t-13 71.5q9 41 44.5 69.5t78.5 28.5q41 0 64 -28.5t14 -69.5q-9 -42 -45 -71t-78 -29zM82 -283l27 33q30 -41 76.5 -71
t103.5 -44t118.5 -13t123 26.5t115 70t97 121.5t66.5 178l49 215q-112 -132 -239 -192.5t-244 -60.5q-170 0 -232 99t-10 324l119 519h168l-115 -502q-46 -198 -16.5 -280.5t145.5 -82.5q47 0 101 17.5t111.5 54t109.5 87.5t95.5 124t68.5 158l96 424h168l-207 -902
q-29 -129 -100 -225.5t-158.5 -146t-187 -70.5t-188 -8.5t-159.5 50.5t-102 97z" />
    <glyph glyph-name="Amacron" unicode="&#x100;" horiz-adv-x="1536" 
d="M614 1536l25 100h602l-24 -100h-603zM-43 0l907 1434h131l252 -1434h-182l-84 477h-659l-304 -477h-61zM354 532h617l-133 762z" />
    <glyph glyph-name="amacron" unicode="&#x101;" horiz-adv-x="1249" 
d="M422 1083l24 101h603l-25 -101h-602zM457 -20q-87 0 -155 27t-108 73t-63.5 107.5t-22.5 130.5t15 143q31 136 106.5 244.5t191.5 173t253 65.5q233 3 313 -207l43 185h162l-213 -922h-168l43 186q-180 -206 -397 -206zM512 43q30 0 66.5 9.5t84.5 37.5t91.5 69.5
t86.5 113.5t70 163l11 43q17 95 6 165.5t-34.5 117.5t-60 76t-70.5 41t-67 12q-75 0 -142 -36.5t-115.5 -97.5t-83 -133.5t-52.5 -152.5q-14 -63 -16.5 -123.5t10 -115.5t38.5 -97t71.5 -67t105.5 -25z" />
    <glyph glyph-name="Abreve" unicode="&#x102;" horiz-adv-x="1536" 
d="M952 1513q-57 0 -104 17.5t-82 54t-47 92.5t2 133h39q-16 -92 46.5 -138t172.5 -46t193.5 46t111.5 138h39q-25 -98 -87 -167t-134.5 -99.5t-149.5 -30.5zM-43 0l907 1434h131l252 -1434h-182l-84 477h-659l-304 -477h-61zM354 532h617l-133 762z" />
    <glyph glyph-name="abreve" unicode="&#x103;" horiz-adv-x="1249" 
d="M702 1053q-57 0 -104 17.5t-82 54t-47 92.5t2 133h39q-16 -92 46.5 -138.5t172.5 -46.5t193.5 46.5t111.5 138.5h39q-25 -98 -87 -167t-134.5 -99.5t-149.5 -30.5zM457 -20q-87 0 -155 27t-108 73t-63.5 107.5t-22.5 130.5t15 143q31 136 106.5 244.5t191.5 173t253 65.5
q233 3 313 -207l43 185h162l-213 -922h-168l43 186q-180 -206 -397 -206zM512 43q30 0 66.5 9.5t84.5 37.5t91.5 69.5t86.5 113.5t70 163l11 43q17 95 6 165.5t-34.5 117.5t-60 76t-70.5 41t-67 12q-75 0 -142 -36.5t-115.5 -97.5t-83 -133.5t-52.5 -152.5
q-14 -63 -16.5 -123.5t10 -115.5t38.5 -97t71.5 -67t105.5 -25z" />
    <glyph glyph-name="Aogonek" unicode="&#x104;" horiz-adv-x="1536" 
d="M1272 -291l8 -22q-96 -94 -211 -109q-96 -12 -138 39q-53 65 19 186q55 91 176 197h-61l-84 477h-659l-304 -477h-61l907 1434h131l252 -1434h-63q-127 -112 -136 -216q-6 -74 49 -103q65 -35 162 20q6 4 13 8zM354 532h617l-133 762z" />
    <glyph glyph-name="aogonek" unicode="&#x105;" horiz-adv-x="1249" 
d="M920 0q-117 -112 -118 -211q-1 -70 56 -95q69 -30 168 32l8 -23q-96 -94 -211 -108q-95 -12 -138 40q-52 65 20 186q51 83 157 179h-51l43 186q-180 -206 -397 -206q-87 0 -155 27t-108 73t-63.5 107.5t-22.5 130.5t15 143q31 136 106.5 244.5t191.5 173t253 65.5
q233 3 313 -207l43 185h162l-213 -922h-59zM512 43q30 0 66.5 9.5t84.5 37.5t91.5 69.5t86.5 113.5t70 163l11 43q17 95 6 165.5t-34.5 117.5t-60 76t-70.5 41t-67 12q-75 0 -142 -36.5t-115.5 -97.5t-83 -133.5t-52.5 -152.5q-14 -63 -16.5 -123.5t10 -115.5t38.5 -97
t71.5 -67t105.5 -25z" />
    <glyph glyph-name="Cacute" unicode="&#x106;" horiz-adv-x="1660" 
d="M1077 1532l213 252h162l-315 -252h-60zM784 -20q-224 0 -378 93t-212.5 261t-9.5 381t186 381t334.5 261t421.5 93q189 0 322 -76.5t158 -189.5l-80 -27q-29 120 -133.5 185t-255.5 65q-119 0 -241 -50t-227 -138t-186 -218.5t-116 -281.5q-36 -157 -15 -285t83.5 -219.5
t161.5 -141.5t218 -50q152 0 286.5 64.5t217.5 184.5l67 -26q-75 -113 -244 -189.5t-358 -76.5z" />
    <glyph glyph-name="cacute" unicode="&#x107;" horiz-adv-x="1157" 
d="M692 1051l213 252h162l-315 -252h-60zM504 -16q-94 0 -173.5 30t-137 90t-77 149.5t6.5 209.5q27 115 91 208.5t148.5 151.5t179.5 88.5t191 30.5q129 0 221 -56.5t125 -164.5l-90 -43q-7 109 -73.5 162t-178.5 53q-90 0 -174 -43.5t-154 -139.5t-100 -231
q-49 -211 21 -322.5t223 -111.5q227 0 360 215l66 -35q-195 -241 -475 -241z" />
    <glyph glyph-name="Cdotaccent" unicode="&#x10a;" horiz-adv-x="1660" 
d="M1126 1528q-43 0 -64.5 28.5t-12.5 71.5q9 42 45 72t77 29q43 -1 65 -30.5t13 -70.5q-9 -43 -44.5 -71.5t-78.5 -28.5zM784 -20q-224 0 -378 93t-212.5 261t-9.5 381t186 381t334.5 261t421.5 93q189 0 322 -76.5t158 -189.5l-80 -27q-29 120 -133.5 185t-255.5 65
q-119 0 -241 -50t-227 -138t-186 -218.5t-116 -281.5q-36 -157 -15 -285t83.5 -219.5t161.5 -141.5t218 -50q152 0 286.5 64.5t217.5 184.5l67 -26q-75 -113 -244 -189.5t-358 -76.5z" />
    <glyph glyph-name="cdotaccent" unicode="&#x10b;" horiz-adv-x="1157" 
d="M723 1044q-43 0 -65 29t-13 72q9 42 45.5 71.5t77.5 28.5q43 -1 65 -30t13 -70q-9 -43 -44.5 -72t-78.5 -29zM504 -16q-94 0 -173.5 30t-137 90t-77 149.5t6.5 209.5q27 115 91 208.5t148.5 151.5t179.5 88.5t191 30.5q129 0 221 -56.5t125 -164.5l-90 -43
q-7 109 -73.5 162t-178.5 53q-90 0 -174 -43.5t-154 -139.5t-100 -231q-49 -211 21 -322.5t223 -111.5q227 0 360 215l66 -35q-195 -241 -475 -241z" />
    <glyph glyph-name="Ccaron" unicode="&#x10c;" horiz-adv-x="1619" 
d="M1018 1538l-98 252h59l182 -227l283 227h59l-213 -252h-272zM784 -20q-224 0 -378 93t-212.5 261t-9.5 381t186 381t334.5 261t421.5 93q189 0 322 -76.5t158 -189.5l-80 -27q-29 120 -133.5 185t-255.5 65q-119 0 -241 -50t-227 -138t-186 -218.5t-116 -281.5
q-36 -157 -15 -285t83.5 -219.5t161.5 -141.5t218 -50q152 0 286.5 64.5t217.5 184.5l67 -26q-75 -113 -244 -189.5t-358 -76.5z" />
    <glyph glyph-name="ccaron" unicode="&#x10d;" horiz-adv-x="1157" 
d="M594 1047l-98 251h59l182 -227l283 227h59l-213 -251h-272zM504 -16q-94 0 -173.5 30t-137 90t-77 149.5t6.5 209.5q27 115 91 208.5t148.5 151.5t179.5 88.5t191 30.5q129 0 221 -56.5t125 -164.5l-90 -43q-7 109 -73.5 162t-178.5 53q-90 0 -174 -43.5t-154 -139.5
t-100 -231q-49 -211 21 -322.5t223 -111.5q227 0 360 215l66 -35q-195 -241 -475 -241z" />
    <glyph glyph-name="Dcaron" unicode="&#x10e;" horiz-adv-x="1634" 
d="M719 1538l-98 252h59l182 -227l283 227h59l-213 -252h-272zM18 0l332 1434h488q377 0 545 -180t96 -498q-80 -359 -333 -557.5t-638 -198.5h-490zM199 49h321q308 0 505 178t275 527q70 310 -51 471t-424 161h-319z" />
    <glyph glyph-name="dcaron" unicode="&#x10f;" horiz-adv-x="1306" 
d="M457 -20q-87 0 -155 27t-108 73t-63.5 107.5t-22.5 130.5t15 143q32 136 108 244.5t192 173t253 65.5q223 3 309 -196l158 686h168l-332 -1434h-168l43 186q-180 -206 -397 -206zM1368 1100l-18 12q26 47 30 66q5 20 -7 36.5t-28.5 27.5t-27 35t-2.5 56q10 44 46 71.5
t75 27.5q29 0 49 -16.5t26 -47.5q8 -60 -38 -138t-105 -130zM512 43q30 0 66.5 9.5t85 37.5t92.5 69.5t87 113.5t70 163l9 43q17 95 6 165.5t-34 117.5t-59 76t-70 41t-67 12q-75 0 -142 -36.5t-116 -97.5t-83.5 -133.5t-53.5 -152.5q-14 -63 -16.5 -123.5t10 -115.5
t38.5 -97t71.5 -67t105.5 -25z" />
    <glyph glyph-name="Dcroat" unicode="&#x110;" horiz-adv-x="1634" 
d="M18 0l162 696h-164l15 68h164l155 670h488q377 0 545 -180t96 -498q-80 -359 -333 -557.5t-638 -198.5h-490zM199 49h321q308 0 505 178t275 527q70 310 -51 471t-424 161h-319l-144 -622h261l-15 -68h-260z" />
    <glyph glyph-name="dcroat" unicode="&#x111;" horiz-adv-x="1306" 
d="M1362 1171l-14 -55h-111l-258 -1116h-168l43 186q-180 -206 -397 -206q-87 0 -155 27t-108 73t-63.5 107.5t-22.5 130.5t15 143q32 136 108 244.5t192 173t253 65.5q223 3 309 -196l84 368h-211l14 58h211l60 260h168l-62 -263h113zM922 479q17 95 6 165.5t-34 117.5
t-59 76t-70 41t-67 12q-75 0 -142 -36.5t-116 -97.5t-83.5 -133.5t-53.5 -152.5q-14 -63 -16.5 -123.5t10 -115.5t38.5 -97t71.5 -67t105.5 -25q30 0 66.5 9.5t85 37.5t92.5 69.5t87 113.5t70 163z" />
    <glyph glyph-name="Emacron" unicode="&#x112;" horiz-adv-x="1361" 
d="M565 1579l25 100h602l-25 -100h-602zM18 0l332 1434h993l-12 -56h-825l-141 -610h634l-12 -55h-635l-153 -658h825l-12 -55h-994z" />
    <glyph glyph-name="emacron" unicode="&#x113;" horiz-adv-x="1200" 
d="M432 1042l25 101h602l-25 -101h-602zM504 -16q-94 0 -173.5 30t-137 90t-77 149.5t6.5 209.5q27 115 91 208.5t148.5 151.5t179.5 88.5t191 30.5q91 0 165 -30t124.5 -90t65.5 -149.5t-11 -209.5h-776v-2q-13 -63 -10.5 -120t23.5 -101.5t52 -80t74.5 -56.5t91.5 -31.5
t103 -4t108.5 25.5t108.5 56.5t102 90.5l31 -29q-89 -110 -218.5 -168.5t-262.5 -58.5zM315 518h623q31 182 -30 278.5t-189 96.5q-118 0 -233 -99t-171 -276z" />
    <glyph glyph-name="Edotaccent" unicode="&#x116;" horiz-adv-x="1361" 
d="M899 1534q-43 0 -65 28.5t-13 71.5q9 42 45.5 72t77.5 29q43 -1 65 -30.5t13 -70.5q-9 -43 -44.5 -71.5t-78.5 -28.5zM18 0l332 1434h993l-12 -56h-825l-141 -610h634l-12 -55h-635l-153 -658h825l-12 -55h-994z" />
    <glyph glyph-name="edotaccent" unicode="&#x117;" horiz-adv-x="1200" 
d="M745 1042q-42 0 -64 29t-13 72q9 42 45.5 71.5t77.5 28.5q43 -1 64.5 -30t12.5 -70q-9 -43 -44.5 -72t-78.5 -29zM504 -16q-94 0 -173.5 30t-137 90t-77 149.5t6.5 209.5q27 115 91 208.5t148.5 151.5t179.5 88.5t191 30.5q91 0 165 -30t124.5 -90t65.5 -149.5
t-11 -209.5h-776v-2q-13 -63 -10.5 -120t23.5 -101.5t52 -80t74.5 -56.5t91.5 -31.5t103 -4t108.5 25.5t108.5 56.5t102 90.5l31 -29q-89 -110 -218.5 -168.5t-262.5 -58.5zM315 518h623q31 182 -30 278.5t-189 96.5q-118 0 -233 -99t-171 -276z" />
    <glyph glyph-name="Eogonek" unicode="&#x118;" horiz-adv-x="1361" 
d="M1331 1378h-825l-141 -610h634l-12 -55h-635l-153 -658h825l-12 -55h-412q-117 -112 -118 -211q-1 -70 56 -94q69 -31 169 31l8 -23q-96 -94 -211 -108q-95 -12 -138 40q-52 65 20 186q51 83 157 179h-525l332 1434h993z" />
    <glyph glyph-name="eogonek" unicode="&#x119;" horiz-adv-x="1200" 
d="M301 463v-2q-13 -63 -10.5 -120t23.5 -101.5t52 -80t74.5 -56.5t91.5 -31.5t103 -4t108.5 25.5t108.5 56.5t102 90.5l31 -29q-80 -97 -191 -154.5t-229 -68.5q-118 -112 -121 -213q-2 -71 54 -97q68 -32 166 29l4 2l8 -22q-96 -94 -211 -108q-95 -12 -138 40
q-52 65 20 186q51 83 157 179q-94 0 -173.5 30t-137 90t-77 149.5t6.5 209.5q27 115 91 208.5t148.5 151.5t179.5 88.5t191 30.5q91 0 165 -30t124.5 -90t65.5 -149.5t-11 -209.5h-776zM719 893q-118 0 -233 -99t-171 -276h623q31 182 -30 278.5t-189 96.5z" />
    <glyph glyph-name="Ecaron" unicode="&#x11a;" horiz-adv-x="1361" 
d="M752 1536l-99 252h60l182 -227l283 227h59l-213 -252h-272zM18 0l332 1434h993l-12 -56h-825l-141 -610h634l-12 -55h-635l-153 -658h825l-12 -55h-994z" />
    <glyph glyph-name="ecaron" unicode="&#x11b;" horiz-adv-x="1200" 
d="M647 1047l-98 251h59l183 -227l282 227h60l-213 -251h-273zM504 -16q-94 0 -173.5 30t-137 90t-77 149.5t6.5 209.5q27 115 91 208.5t148.5 151.5t179.5 88.5t191 30.5q91 0 165 -30t124.5 -90t65.5 -149.5t-11 -209.5h-776v-2q-13 -63 -10.5 -120t23.5 -101.5t52 -80
t74.5 -56.5t91.5 -31.5t103 -4t108.5 25.5t108.5 56.5t102 90.5l31 -29q-89 -110 -218.5 -168.5t-262.5 -58.5zM315 518h623q31 182 -30 278.5t-189 96.5q-118 0 -233 -99t-171 -276z" />
    <glyph glyph-name="Gbreve" unicode="&#x11e;" horiz-adv-x="1724" 
d="M1171 1520q-57 0 -104 17.5t-82 54t-47 92.5t2 133h39q-16 -92 46.5 -138.5t172.5 -46.5t193.5 46.5t111.5 138.5h39q-25 -98 -87 -167t-134.5 -99.5t-149.5 -30.5zM784 -20q-224 0 -378 93t-212.5 261t-9.5 381t186 381t334.5 261t421.5 93q189 0 322 -76.5t158 -189.5
l-80 -27q-29 120 -133.5 185t-255.5 65q-120 0 -243.5 -50t-229 -138t-186.5 -218.5t-116 -281.5q-36 -157 -15 -285t84 -219t163 -140.5t221 -49.5q119 0 243.5 43t188.5 108l96 418h168l-32 -143q-34 -146 -141 -255t-251 -162.5t-303 -53.5z" />
    <glyph glyph-name="gbreve" unicode="&#x11f;" horiz-adv-x="1249" 
d="M774 1049q-57 0 -104 17.5t-82 54t-47 92.5t2 133h39q-16 -92 46.5 -138.5t172.5 -46.5t193.5 46.5t111.5 138.5h39q-25 -98 -87 -167t-134.5 -99.5t-149.5 -30.5zM88 -283l29 33q30 -41 76.5 -71t103 -44t118 -13t122.5 26.5t114.5 70t97 121.5t66.5 178l39 168
q-180 -206 -397 -206q-73 0 -132.5 19t-100 52t-68 78.5t-39 99.5t-10 112.5t15.5 119.5q49 209 197.5 344.5t355.5 138.5q231 3 311 -207l43 185h162l-207 -902q-29 -129 -100 -225.5t-158.5 -146t-187.5 -70.5t-188.5 -8.5t-159.5 50.5t-103 97zM516 59q30 0 66.5 10
t84.5 37.5t91.5 69.5t86.5 114t70 163l5 16q17 95 6 165.5t-34 117.5t-59 76t-70 41t-67 12q-100 0 -183.5 -61t-134 -151t-75.5 -198q-20 -77 -15.5 -151t26.5 -132t74.5 -93.5t127.5 -35.5z" />
    <glyph glyph-name="Gdotaccent" unicode="&#x120;" horiz-adv-x="1724" 
d="M1169 1567q-43 0 -64.5 28.5t-12.5 71.5q9 42 45 71.5t77 28.5q43 -1 65 -30t13 -70q-9 -43 -44.5 -71.5t-78.5 -28.5zM784 -20q-224 0 -378 93t-212.5 261t-9.5 381t186 381t334.5 261t421.5 93q189 0 322 -76.5t158 -189.5l-80 -27q-29 120 -133.5 185t-255.5 65
q-120 0 -243.5 -50t-229 -138t-186.5 -218.5t-116 -281.5q-36 -157 -15 -285t84 -219t163 -140.5t221 -49.5q119 0 243.5 43t188.5 108l96 418h168l-32 -143q-34 -146 -141 -255t-251 -162.5t-303 -53.5z" />
    <glyph glyph-name="gdotaccent" unicode="&#x121;" horiz-adv-x="1249" 
d="M776 1049q-43 0 -65 28.5t-13 71.5q9 42 45.5 71.5t77.5 28.5q43 -1 65 -30t13 -70q-9 -43 -44.5 -71.5t-78.5 -28.5zM88 -283l29 33q30 -41 76.5 -71t103 -44t118 -13t122.5 26.5t114.5 70t97 121.5t66.5 178l39 168q-180 -206 -397 -206q-73 0 -132.5 19t-100 52
t-68 78.5t-39 99.5t-10 112.5t15.5 119.5q49 209 197.5 344.5t355.5 138.5q231 3 311 -207l43 185h162l-207 -902q-29 -129 -100 -225.5t-158.5 -146t-187.5 -70.5t-188.5 -8.5t-159.5 50.5t-103 97zM516 59q30 0 66.5 10t84.5 37.5t91.5 69.5t86.5 114t70 163l5 16
q17 95 6 165.5t-34 117.5t-59 76t-70 41t-67 12q-100 0 -183.5 -61t-134 -151t-75.5 -198q-20 -77 -15.5 -151t26.5 -132t74.5 -93.5t127.5 -35.5z" />
    <glyph glyph-name="uni0122" unicode="&#x122;" horiz-adv-x="1724" 
d="M784 -20q-224 0 -378 93t-212.5 261t-9.5 381t186 381t334.5 261t421.5 93q189 0 322 -76.5t158 -189.5l-80 -27q-29 120 -133.5 185t-255.5 65q-120 0 -243.5 -50t-229 -138t-186.5 -218.5t-116 -281.5q-36 -157 -15 -285t84 -219t163 -140.5t221 -49.5q119 0 243.5 43
t188.5 108l96 418h168l-32 -143q-34 -146 -141 -255t-251 -162.5t-303 -53.5zM745 -487l-18 12q28 50 31 65q4 17 -3.5 30.5t-20 23t-25 23.5t-18 31.5t0.5 47.5q10 44 46 71t75 27q64 0 76 -63q8 -60 -38.5 -137.5t-105.5 -130.5z" />
    <glyph glyph-name="uni0123" unicode="&#x123;" horiz-adv-x="1249" 
d="M88 -283l29 33q30 -41 76.5 -71t103 -44t118 -13t122.5 26.5t114.5 70t97 121.5t66.5 178l39 168q-180 -206 -397 -206q-73 0 -132.5 19t-100 52t-68 78.5t-39 99.5t-10 112.5t15.5 119.5q49 209 197.5 344.5t355.5 138.5q231 3 311 -207l43 185h162l-207 -902
q-29 -129 -100 -225.5t-158.5 -146t-187.5 -70.5t-188.5 -8.5t-159.5 50.5t-103 97zM516 59q30 0 66.5 10t84.5 37.5t91.5 69.5t86.5 114t70 163l5 16q17 95 6 165.5t-34 117.5t-59 76t-70 41t-67 12q-100 0 -183.5 -61t-134 -151t-75.5 -198q-20 -77 -15.5 -151t26.5 -132
t74.5 -93.5t127.5 -35.5zM416 -866l-19 12q28 49 31 66q4 17 -3.5 30.5t-20 22.5t-25 23.5t-18 31.5t0.5 47q10 44 46 71t75 27q64 0 76 -63q8 -60 -38 -138t-105 -130z" />
    <glyph glyph-name="Hbar" unicode="&#x126;" horiz-adv-x="1521" 
d="M18 0l332 1434h168l-96 -416h817l96 416h168l-332 -1434h-167l165 713h-817l-166 -713h-168zM365 768h817l45 195h-817z" />
    <glyph glyph-name="hbar" unicode="&#x127;" horiz-adv-x="1239" 
d="M807 942q170 0 232.5 -99.5t11.5 -324.5l-121 -518h-168l121 518q44 195 14 277t-145 82q-60 0 -129.5 -28.5t-138 -81t-127.5 -138.5t-89 -189l-102 -440h-168l246 1065h-152l17 63h151l70 306h168l-72 -306h143l-16 -63h-141l-93 -397q112 145 240 211q123 63 248 63z
" />
    <glyph glyph-name="Imacron" unicode="&#x12a;" horiz-adv-x="577" 
d="M160 1538l24 100h602l-24 -100h-602zM18 0l332 1434h168l-332 -1434h-168z" />
    <glyph glyph-name="imacron" unicode="&#x12b;" horiz-adv-x="495" 
d="M57 1042l25 101h602l-25 -101h-602zM57 0l213 922h168l-213 -922h-168z" />
    <glyph glyph-name="Iogonek" unicode="&#x12e;" horiz-adv-x="577" 
d="M168 0q-127 -112 -136 -216q-6 -74 49 -103q65 -35 162 20q6 4 13 8l8 -22q-96 -94 -211 -109q-95 -12 -138 39q-53 65 20 186q55 91 176 197h-93l332 1434h168l-332 -1434h-18z" />
    <glyph glyph-name="iogonek" unicode="&#x12f;" horiz-adv-x="495" 
d="M446 1323q44 0 69 -32.5t15 -76.5q-9 -44 -48.5 -76t-84.5 -32q-44 0 -68.5 32t-15.5 76q11 44 50 76.5t83 32.5zM170 0q-127 -112 -136 -216q-6 -74 49 -103q65 -35 162 20q6 4 13 8l8 -22q-96 -94 -211 -109q-95 -12 -138 39q-53 65 20 186q55 91 176 197h-54l213 922
h168l-213 -922h-57z" />
    <glyph glyph-name="Idotaccent" unicode="&#x130;" horiz-adv-x="536" 
d="M475 1538q-43 0 -65 28.5t-13 71.5q9 42 45.5 72t77.5 29q43 -1 65 -30.5t13 -70.5q-9 -43 -44.5 -71.5t-78.5 -28.5zM18 0l332 1434h168l-332 -1434h-168z" />
    <glyph glyph-name="dotlessi" unicode="&#x131;" horiz-adv-x="495" 
d="M57 0l213 922h168l-213 -922h-168z" />
    <glyph glyph-name="uni0136" unicode="&#x136;" horiz-adv-x="1443" 
d="M18 0l332 1434h168l-164 -705l1024 705h88l-991 -682l660 -752h-252l-551 627l-146 -627h-168zM475 -457l-18 13q26 47 30 65q5 20 -7 36.5t-28.5 28t-27 35.5t-2.5 56q10 44 46 71t75 27q63 0 75 -63q8 -60 -38.5 -138.5t-104.5 -130.5z" />
    <glyph glyph-name="uni0137" unicode="&#x137;" horiz-adv-x="1171" 
d="M-2 0l332 1434h168l-254 -1102l798 590h84l-575 -424l356 -498h-233l-275 383l-174 -127l-59 -256h-168zM315 -500l-18 13q28 50 31 65q4 17 -3.5 30.5t-20 23t-25 23.5t-18 31.5t0.5 47.5q10 44 46 71t75 27q64 0 76 -63q8 -60 -38.5 -138.5t-105.5 -130.5z" />
    <glyph glyph-name="Lacute" unicode="&#x139;" horiz-adv-x="1259" 
d="M383 1536l213 252h162l-316 -252h-59zM18 0l332 1434h168l-319 -1379h784l-12 -55h-953z" />
    <glyph glyph-name="lacute" unicode="&#x13a;" horiz-adv-x="536" 
d="M354 1550l213 252h162l-315 -252h-60zM12 0l330 1434l182 61l-344 -1495h-168z" />
    <glyph glyph-name="uni013B" unicode="&#x13b;" horiz-adv-x="1259" 
d="M18 0l332 1434h168l-319 -1379h784l-12 -55h-953zM473 -457l-18 13q26 47 30 65q5 20 -7 36.5t-28.5 28t-27 35.5t-2.5 56q10 44 46 71t75 27q63 0 75 -63q8 -60 -38.5 -138.5t-104.5 -130.5z" />
    <glyph glyph-name="uni013C" unicode="&#x13c;" horiz-adv-x="536" 
d="M12 0l330 1434l182 61l-344 -1495h-168zM-2 -463l-18 12q26 47 30 66q5 20 -7 36.5t-28.5 28t-27 35.5t-2.5 56q10 44 46 71t75 27q29 0 49 -16.5t26 -47.5q8 -60 -38 -138t-105 -130z" />
    <glyph glyph-name="Lcaron" unicode="&#x13d;" horiz-adv-x="1259" 
d="M18 0l332 1434h168l-319 -1379h784l-12 -55h-953zM641 1100l-18 12q26 47 30 66q5 20 -7 36.5t-28.5 27.5t-27 35t-2.5 56q10 44 46 71.5t75 27.5q29 0 49 -16.5t26 -47.5q8 -60 -38 -138t-105 -130z" />
    <glyph glyph-name="lcaron" unicode="&#x13e;" horiz-adv-x="536" 
d="M12 0l330 1434l182 61l-344 -1495h-168zM643 1155l-18 12q26 47 30 66q5 20 -7 36.5t-28.5 28t-27 35.5t-2.5 56q10 44 46 71t75 27q29 0 49 -16.5t26 -47.5q8 -60 -38 -138t-105 -130z" />
    <glyph glyph-name="Lslash" unicode="&#x141;" horiz-adv-x="1280" 
d="M199 55h784l-12 -55h-953l107 459l-68 -82h-98l205 252l186 805h168l-121 -516l72 86h100l-211 -259z" />
    <glyph glyph-name="lslash" unicode="&#x142;" horiz-adv-x="536" 
d="M408 836l34 -54l-108 -112l-154 -670h-168l101 438l-43 -45l-35 53l106 111l201 877l182 61l-164 -709z" />
    <glyph glyph-name="Nacute" unicode="&#x143;" horiz-adv-x="1521" 
d="M956 1536l213 252h162l-315 -252h-60zM18 0l332 1434h166l664 -1162l268 1162h55l-332 -1434h-51l-745 1298l-301 -1298h-56z" />
    <glyph glyph-name="nacute" unicode="&#x144;" horiz-adv-x="1236" 
d="M637 1049l213 251h162l-316 -251h-59zM55 0l213 922h162l-61 -263q48 68 112.5 127t132.5 93q123 63 248 63q170 0 232 -99.5t10 -324.5l-119 -518h-168l119 512q44 198 14.5 280t-145.5 82q-60 0 -128.5 -27.5t-136 -79t-125.5 -137t-89 -190.5l-103 -440h-168z" />
    <glyph glyph-name="uni0145" unicode="&#x145;" horiz-adv-x="1521" 
d="M18 0l332 1434h166l664 -1162l268 1162h55l-332 -1434h-51l-745 1298l-301 -1298h-56zM520 -383l-18 12q26 47 30 66q5 20 -7 36.5t-28.5 27.5t-27 35t-2.5 56q10 44 46 71.5t75 27.5q29 0 49.5 -16.5t26.5 -47.5q8 -60 -38.5 -137.5t-105.5 -130.5z" />
    <glyph glyph-name="uni0146" unicode="&#x146;" horiz-adv-x="1236" 
d="M55 0l213 922h162l-61 -263q48 68 112.5 127t132.5 93q123 63 248 63q170 0 232 -99.5t10 -324.5l-119 -518h-168l119 512q44 198 14.5 280t-145.5 82q-60 0 -128.5 -27.5t-136 -79t-125.5 -137t-89 -190.5l-103 -440h-168zM461 -436l-19 12q28 49 31 66q5 20 -7 36.5
t-28.5 27.5t-27 35t-2.5 56q10 44 45.5 71.5t74.5 27.5q29 0 49.5 -16.5t26.5 -47.5q8 -60 -38 -138t-105 -130z" />
    <glyph glyph-name="Ncaron" unicode="&#x147;" horiz-adv-x="1521" 
d="M846 1538l-98 252h59l182 -227l283 227h59l-213 -252h-272zM18 0l332 1434h166l664 -1162l268 1162h55l-332 -1434h-51l-745 1298l-301 -1298h-56z" />
    <glyph glyph-name="ncaron" unicode="&#x148;" horiz-adv-x="1236" 
d="M575 1047l-98 251h60l182 -227l282 227h60l-213 -251h-273zM55 0l213 922h162l-61 -263q48 68 112.5 127t132.5 93q123 63 248 63q170 0 232 -99.5t10 -324.5l-119 -518h-168l119 512q44 198 14.5 280t-145.5 82q-60 0 -128.5 -27.5t-136 -79t-125.5 -137t-89 -190.5
l-103 -440h-168z" />
    <glyph glyph-name="Eng" unicode="&#x14a;" horiz-adv-x="1521" 
d="M838 -369l8 31q66 0 119.5 24.5t89 66.5t57.5 89t35 101l12 61l-743 1294l-299 -1298h-56l332 1434h166l664 -1162l268 1162h55l-342 -1475q-34 -149 -127.5 -238.5t-238.5 -89.5z" />
    <glyph glyph-name="eng" unicode="&#x14b;" horiz-adv-x="1236" 
d="M535 -440l4 16q44 0 79.5 16t61.5 46t47 69t36.5 87.5t28.5 99.5t26 108q1 4 1 6l115 504q46 198 16.5 280t-145.5 82q-60 0 -128.5 -27.5t-136.5 -79t-126.5 -137t-89.5 -190.5l-101 -440h-168l213 922h162l-61 -263q48 68 112.5 127t132.5 93q123 63 248 63
q170 0 232 -99.5t10 -324.5l-143 -620q-45 -203 -136.5 -274.5t-289.5 -63.5z" />
    <glyph glyph-name="Omacron" unicode="&#x14c;" horiz-adv-x="1949" 
d="M897 1579l25 100h602l-25 -100h-602zM803 -20q-150 0 -277.5 46t-221 138t-126.5 230t6 321q33 142 105.5 263.5t168.5 207.5t211.5 147.5t236 91t239.5 29.5q151 0 279.5 -47t221 -140t126 -231t-6.5 -321q-41 -176 -142 -319t-234 -232t-284 -136.5t-302 -47.5zM817 35
q179 0 338.5 87t272.5 241.5t159 351.5q36 148 17 273.5t-77 216.5t-160 142.5t-234 51.5q-266 0 -484.5 -194.5t-286.5 -489.5q-36 -148 -18 -273t76 -215.5t161 -141t236 -50.5z" />
    <glyph glyph-name="omacron" unicode="&#x14d;" horiz-adv-x="1269" 
d="M465 1065l24 100h603l-25 -100h-602zM524 -16q-101 0 -185 30t-143 90t-79 149.5t6 209.5q27 116 90.5 209t149 151t183.5 88.5t199 30.5q102 0 185.5 -30t143 -90t79.5 -149.5t-6 -209.5q-27 -116 -91 -209t-149 -151t-183.5 -88.5t-199.5 -30.5zM535 33
q152 0 267.5 110t166.5 320q51 208 -16.5 319t-221.5 111q-153 0 -267.5 -111t-162.5 -321q-48 -208 17 -318t217 -110z" />
    <glyph glyph-name="Ohungarumlaut" unicode="&#x150;" horiz-adv-x="1949" 
d="M965 1534l213 252h161l-315 -252h-59zM1251 1534l213 252h162l-315 -252h-60zM803 -20q-150 0 -277.5 46t-221 138t-126.5 230t6 321q33 142 105.5 263.5t168.5 207.5t211.5 147.5t236 91t239.5 29.5q151 0 279.5 -47t221 -140t126 -231t-6.5 -321q-41 -176 -142 -319
t-234 -232t-284 -136.5t-302 -47.5zM817 35q179 0 338.5 87t272.5 241.5t159 351.5q36 148 17 273.5t-77 216.5t-160 142.5t-234 51.5q-266 0 -484.5 -194.5t-286.5 -489.5q-36 -148 -18 -273t76 -215.5t161 -141t236 -50.5z" />
    <glyph glyph-name="ohungarumlaut" unicode="&#x151;" horiz-adv-x="1269" 
d="M573 1044l213 252h162l-315 -252h-60zM860 1044l213 252h162l-315 -252h-60zM524 -16q-101 0 -185 30t-143 90t-79 149.5t6 209.5q27 116 90.5 209t149 151t183.5 88.5t199 30.5q102 0 185.5 -30t143 -90t79.5 -149.5t-6 -209.5q-27 -116 -91 -209t-149 -151
t-183.5 -88.5t-199.5 -30.5zM535 33q152 0 267.5 110t166.5 320q51 208 -16.5 319t-221.5 111q-153 0 -267.5 -111t-162.5 -321q-48 -208 17 -318t217 -110z" />
    <glyph glyph-name="OE" unicode="&#x152;" horiz-adv-x="2734" 
d="M803 -20q-150 0 -277.5 46t-221 138t-126.5 230t6 321q33 142 105.5 263.5t168.5 207.5t211.5 147.5t236 91t239.5 29.5q181 0 330 -68t231 -196l57 244h953l-13 -56h-784l-141 -610h594l-13 -55h-594l-153 -658h784l-12 -55h-952l55 242q-139 -127 -320.5 -194.5
t-363.5 -67.5zM817 35q179 0 338.5 87t272.5 241.5t159 351.5q36 148 17 273.5t-77 216.5t-160 142.5t-234 51.5q-266 0 -484.5 -194.5t-286.5 -489.5q-36 -148 -18 -273t76 -215.5t161 -141t236 -50.5z" />
    <glyph glyph-name="oe" unicode="&#x153;" horiz-adv-x="2045" 
d="M524 -16q-101 0 -185 30t-143 90t-79 149.5t6 209.5q27 116 90.5 209t149 151t183.5 88.5t199 30.5q130 0 230.5 -48.5t150.5 -141.5q90 93 210 141.5t243 48.5q94 0 168 -30t124 -90t64 -149.5t-12 -209.5h-776v-2q-13 -63 -10.5 -120t23.5 -101.5t52 -80t74.5 -56.5
t91.5 -31.5t103 -4t108.5 25.5t108.5 56.5t102 90.5l31 -29q-89 -110 -218.5 -168.5t-262.5 -58.5q-121 0 -217 48.5t-144 141.5q-90 -93 -212.5 -141.5t-252.5 -48.5zM535 33q152 0 267.5 110t166.5 320l2 10q48 204 -20 312t-220 108q-153 0 -267.5 -111t-162.5 -321
q-48 -208 17 -318t217 -110zM1161 518h623q31 182 -30 278.5t-189 96.5q-118 0 -233 -99t-171 -276z" />
    <glyph glyph-name="Racute" unicode="&#x154;" horiz-adv-x="1533" 
d="M803 1534l213 252h162l-316 -252h-59zM18 0l332 1434h600q268 0 391.5 -107.5t79.5 -302.5q-40 -168 -175 -271.5t-347 -129.5l250 -623h-199l-248 614h-374l-142 -614h-168zM340 664h432q197 0 312.5 88t158.5 272q41 184 -33.5 272t-271.5 88h-432z" />
    <glyph glyph-name="racute" unicode="&#x155;" horiz-adv-x="980" 
d="M559 1042l213 252h162l-316 -252h-59zM55 0l213 922h162l-57 -244q223 261 446 264q170 3 219 -137l-155 -70q-6 74 -29 108.5t-80 35.5q-44 1 -105 -27t-125.5 -80t-124.5 -139.5t-93 -192.5l-103 -440h-168z" />
    <glyph glyph-name="uni0156" unicode="&#x156;" horiz-adv-x="1533" 
d="M18 0l332 1434h600q268 0 391.5 -107.5t79.5 -302.5q-40 -168 -175 -271.5t-347 -129.5l250 -623h-199l-248 614h-374l-142 -614h-168zM340 664h432q197 0 312.5 88t158.5 272q41 184 -33.5 272t-271.5 88h-432zM492 -446l-19 12q28 50 31 65q4 17 -3.5 30.5t-20 23
t-25 23.5t-18 31.5t0.5 47.5q10 44 46 71t75 27q64 0 76 -63q8 -60 -38 -138t-105 -130z" />
    <glyph glyph-name="uni0157" unicode="&#x157;" horiz-adv-x="980" 
d="M55 0l213 922h162l-57 -244q223 261 446 264q170 3 219 -137l-155 -70q-6 74 -29 108.5t-80 35.5q-44 1 -105 -27t-125.5 -80t-124.5 -139.5t-93 -192.5l-103 -440h-168zM57 -457l-18 13q28 50 31 65q4 17 -3.5 30.5t-20 23t-25 23.5t-18 31.5t0.5 47.5q10 44 46 71
t75 27q64 0 76 -63q8 -60 -38.5 -138.5t-105.5 -130.5z" />
    <glyph glyph-name="Rcaron" unicode="&#x158;" horiz-adv-x="1533" 
d="M717 1534l-99 252h60l182 -227l283 227h59l-213 -252h-272zM18 0l332 1434h600q268 0 391.5 -107.5t79.5 -302.5q-40 -168 -175 -271.5t-347 -129.5l250 -623h-199l-248 614h-374l-142 -614h-168zM340 664h432q197 0 312.5 88t158.5 272q41 184 -33.5 272t-271.5 88h-432
z" />
    <glyph glyph-name="rcaron" unicode="&#x159;" horiz-adv-x="980" 
d="M522 1053l-98 252h59l183 -228l282 228h60l-213 -252h-273zM55 0l213 922h162l-57 -244q223 261 446 264q170 3 219 -137l-155 -70q-6 74 -29 108.5t-80 35.5q-44 1 -105 -27t-125.5 -80t-124.5 -139.5t-93 -192.5l-103 -440h-168z" />
    <glyph glyph-name="Sacute" unicode="&#x15a;" horiz-adv-x="1454" 
d="M905 1540l213 252h162l-315 -252h-60zM539 -23q-115 0 -212 28.5t-166 89t-87 145.5l84 26q12 -62 49 -108t92 -72.5t119 -39.5t137 -13q165 0 295.5 80t159.5 209q7 30 7 57t-5.5 49t-19 42t-29 35.5t-40 31t-47.5 27t-56.5 24.5t-61.5 22.5t-68 22.5q-189 57 -267 99
q-171 91 -169 249q0 39 10 82q21 93 87 169.5t156.5 124.5t196 73.5t211.5 25.5q177 0 304.5 -67.5t154.5 -194.5l-84 -27q-16 82 -75 136t-138 76t-178 22q-165 0 -295 -79t-160 -208q-7 -30 -6.5 -56.5t5.5 -48t19.5 -41.5t29 -35t40.5 -30.5t47.5 -26t57 -23.5t61.5 -22
t68 -22q46 -14 71 -22t68.5 -23.5t68 -27.5t60.5 -30t56.5 -36t45.5 -42t36.5 -50.5t20.5 -58t8 -69t-11 -79.5q-21 -93 -87 -169.5t-156.5 -124.5t-196 -74t-211.5 -26z" />
    <glyph glyph-name="sacute" unicode="&#x15b;" horiz-adv-x="1093" 
d="M623 1044l213 252h161l-315 -252h-59zM430 -20q-95 0 -174.5 21t-134.5 66.5t-64 108.5l107 19q1 -77 83 -118.5t199 -41.5q120 0 202 46.5t104 143.5q10 43 -12.5 73t-67 44t-103 26.5t-121 21t-119 28.5t-98.5 47.5t-59.5 79t-1.5 121.5q21 88 101.5 152.5t184.5 94
t216 29.5q145 0 248.5 -52t115.5 -145l-104 -18q-1 80 -82 123.5t-199 40.5q-121 -3 -204 -49t-105 -144q-11 -50 19 -81.5t87 -47t127 -27t139 -29t123 -44.5t79.5 -81t7.5 -132q-21 -90 -99.5 -154t-180.5 -93t-214 -29z" />
    <glyph glyph-name="Scedilla" unicode="&#x15e;" horiz-adv-x="1454" 
d="M915 1456q177 0 304.5 -67.5t154.5 -194.5l-84 -27q-16 82 -75 136t-138 76t-178 22q-165 0 -295 -79t-160 -208q-7 -30 -6.5 -56.5t5.5 -48t19.5 -41.5t29 -35t40.5 -30.5t47.5 -26t57 -23.5t61.5 -22t68 -22q46 -14 71 -22t68.5 -23.5t68 -27.5t60.5 -30t56.5 -36
t45.5 -42t36.5 -50.5t20.5 -58t8 -69t-11 -79.5q-21 -91 -83 -165.5t-149 -122.5t-188 -75.5t-205 -30.5l-53 -71q115 7 161 -45t27 -127q-24 -92 -103.5 -140t-173 -32t-153.5 94l25 27q65 -53 125 -50q70 4 112 67q39 58 21 110q-20 63 -108 57q-15 -1 -33 -4l84 117
q-106 4 -193.5 33.5t-149.5 88t-79 138.5l84 26q12 -62 49 -108t92 -72.5t119 -39.5t137 -13q165 0 295.5 80t159.5 209q7 30 7 57t-5.5 49t-19 42t-29 35.5t-40 31t-47.5 27t-56.5 24.5t-61.5 22.5t-68 22.5q-189 57 -267 99q-171 91 -169 249q0 39 10 82q21 93 87 169.5
t156.5 124.5t196 73.5t211.5 25.5z" />
    <glyph glyph-name="scedilla" unicode="&#x15f;" horiz-adv-x="1093" 
d="M651 891q-121 -3 -204 -49t-105 -144q-11 -50 19 -81.5t87 -47t127 -27t139 -29t123 -44.5t79.5 -81t7.5 -132q-19 -82 -87 -143.5t-158 -92.5t-194 -38l-55 -76q115 7 161 -45t27 -127q-24 -92 -103.5 -140t-173 -32t-153.5 94l25 27q65 -53 125 -50q70 4 112 67
q39 58 21 110q-20 63 -108 57q-15 -1 -33 -4l86 117q-142 3 -244 54t-115 142l107 19q1 -77 83 -118.5t199 -41.5q120 0 202 46.5t104 143.5q10 43 -12.5 73t-67 44t-103 26.5t-121 21t-119 28.5t-98.5 47.5t-59.5 79t-1.5 121.5q21 88 101.5 152.5t184.5 94t216 29.5
q145 0 248.5 -52t115.5 -145l-104 -18q-1 80 -82 123.5t-199 40.5z" />
    <glyph glyph-name="Scaron" unicode="&#x160;" horiz-adv-x="1454" 
d="M825 1538l-98 252h59l183 -227l282 227h60l-213 -252h-273zM539 -23q-115 0 -212 28.5t-166 89t-87 145.5l84 26q12 -62 49 -108t92 -72.5t119 -39.5t137 -13q165 0 295.5 80t159.5 209q7 30 7 57t-5.5 49t-19 42t-29 35.5t-40 31t-47.5 27t-56.5 24.5t-61.5 22.5
t-68 22.5q-189 57 -267 99q-171 91 -169 249q0 39 10 82q21 93 87 169.5t156.5 124.5t196 73.5t211.5 25.5q177 0 304.5 -67.5t154.5 -194.5l-84 -27q-16 82 -75 136t-138 76t-178 22q-165 0 -295 -79t-160 -208q-7 -30 -6.5 -56.5t5.5 -48t19.5 -41.5t29 -35t40.5 -30.5
t47.5 -26t57 -23.5t61.5 -22t68 -22q46 -14 71 -22t68.5 -23.5t68 -27.5t60.5 -30t56.5 -36t45.5 -42t36.5 -50.5t20.5 -58t8 -69t-11 -79.5q-21 -93 -87 -169.5t-156.5 -124.5t-196 -74t-211.5 -26z" />
    <glyph glyph-name="scaron" unicode="&#x161;" horiz-adv-x="1093" 
d="M528 1049l-98 251h59l183 -227l282 227h60l-213 -251h-273zM430 -20q-95 0 -174.5 21t-134.5 66.5t-64 108.5l107 19q1 -77 83 -118.5t199 -41.5q120 0 202 46.5t104 143.5q10 43 -12.5 73t-67 44t-103 26.5t-121 21t-119 28.5t-98.5 47.5t-59.5 79t-1.5 121.5
q21 88 101.5 152.5t184.5 94t216 29.5q145 0 248.5 -52t115.5 -145l-104 -18q-1 80 -82 123.5t-199 40.5q-121 -3 -204 -49t-105 -144q-11 -50 19 -81.5t87 -47t127 -27t139 -29t123 -44.5t79.5 -81t7.5 -132q-21 -90 -99.5 -154t-180.5 -93t-214 -29z" />
    <glyph glyph-name="uni0162" unicode="&#x162;" horiz-adv-x="1503" 
d="M309 1434h1217l-13 -56h-524l-319 -1378h-49l-48 -63q115 7 161.5 -45.5t27.5 -127.5q-24 -92 -103.5 -140t-173 -31.5t-153.5 94.5l24 26q64 -52 125 -49q70 4 112 67q39 58 21 110q-20 63 -108 57q-15 -1 -33 -4l78 106h-49l319 1378h-524z" />
    <glyph glyph-name="uni0163" unicode="&#x163;" horiz-adv-x="661" 
d="M401 866l-118 -516q-7 -31 -18 -74.5t-17 -68t-12.5 -56t-7 -48.5t2 -34.5t12 -26t25.5 -11.5q26 -5 68.5 14t93.5 70l19 -19q-97 -103 -203 -116l-58 -78q115 7 161.5 -45t27.5 -127q-24 -92 -103.5 -140t-173 -32t-153.5 94l24 26q64 -52 125 -49q70 4 112 67
q39 58 21 110q-20 63 -108 57q-15 -1 -33 -4l88 121q-76 12 -96.5 74.5t8.5 185.5l145 626h-104l12 56h105l86 368l180 62l-98 -430h223l-12 -56h-224z" />
    <glyph glyph-name="Tcaron" unicode="&#x164;" horiz-adv-x="1421" 
d="M795 1538l-99 252h60l182 -227l283 227h59l-213 -252h-272zM502 0l319 1378h-524l12 56h1217l-13 -56h-524l-319 -1378h-168z" />
    <glyph glyph-name="tcaron" unicode="&#x165;" horiz-adv-x="661" 
d="M217 -23q-101 0 -131 63.5t2 199.5l145 626h-104l12 56h105l86 368l180 62l-98 -430h223l-12 -56h-224l-118 -516q-7 -31 -18 -74.5t-17 -68t-12.5 -56t-7 -48.5t2 -34.5t12 -26t25.5 -11.5q26 -5 68.5 14t93.5 70l19 -19q-113 -119 -232 -119zM655 1018l-18 12
q28 49 31 66q4 17 -3.5 30.5t-20 22.5t-25 23.5t-18 31.5t0.5 47q10 44 46 71.5t75 27.5q29 0 49.5 -16.5t26.5 -47.5q8 -60 -38.5 -137.5t-105.5 -130.5z" />
    <glyph glyph-name="Tbar" unicode="&#x166;" horiz-adv-x="1503" 
d="M1513 1378h-524l-160 -686h222l-17 -67h-219l-145 -625h-168l145 625h-205l17 67h203l159 686h-524l12 56h1217z" />
    <glyph glyph-name="tbar" unicode="&#x167;" horiz-adv-x="661" 
d="M625 866h-224l-26 -114h213l-15 -58h-211l-79 -344q-7 -31 -18 -74.5t-17 -68t-12.5 -56t-7 -48.5t2 -34.5t12 -26t25.5 -11.5q26 -5 68.5 14t93.5 70l19 -19q-113 -119 -232 -119q-101 0 -131 63.5t2 199.5l107 454h-121l14 58h119l26 114h-104l12 56h105l86 368l180 62
l-98 -430h223z" />
    <glyph glyph-name="Umacron" unicode="&#x16a;" horiz-adv-x="1488" 
d="M649 1540l25 100h602l-25 -100h-602zM594 -20q-283 0 -397 141.5t-45 441.5l200 871h168l-207 -893q-28 -138 -19.5 -234t57 -155.5t118 -86t162.5 -26.5q209 0 367 133.5t216 384.5l203 877h56l-203 -875q-34 -147 -100 -259t-155 -181.5t-195 -104t-226 -34.5z" />
    <glyph glyph-name="umacron" unicode="&#x16b;" horiz-adv-x="1236" 
d="M436 1047l25 100h602l-25 -100h-602zM375 -20q-170 0 -232 99t-10 324l119 519h168l-119 -519q-46 -198 -16.5 -280t145.5 -82q58 0 125.5 27t134.5 77t125.5 131.5t91.5 180.5l107 465h168l-213 -922h-162l61 262q-119 -155 -245 -219q-123 -63 -248 -63z" />
    <glyph glyph-name="Uring" unicode="&#x16e;" horiz-adv-x="1490" 
d="M938 1468q-80 0 -124.5 58t-25.5 137q19 80 90 137.5t150 57.5q80 0 124.5 -58t25.5 -137q-19 -80 -90 -137.5t-150 -57.5zM950 1522q57 0 108 41.5t64 99.5q14 57 -17.5 99.5t-88.5 41.5q-57 -2 -108 -43t-64 -98q-13 -58 18 -99.5t88 -41.5zM594 -20q-283 0 -397 141.5
t-45 441.5l200 871h168l-207 -893q-28 -138 -19.5 -234t57 -155.5t118 -86t162.5 -26.5q209 0 367 133.5t216 384.5l203 877h56l-203 -875q-34 -147 -100 -259t-155 -181.5t-195 -104t-226 -34.5z" />
    <glyph glyph-name="uring" unicode="&#x16f;" horiz-adv-x="1236" 
d="M705 1014q-80 0 -124.5 57.5t-25.5 136.5q19 80 90 137.5t150 57.5t123.5 -57.5t25.5 -137.5t-89.5 -137t-149.5 -57zM717 1067q57 0 108 41.5t64 99.5q14 57 -18 100t-89 42q-57 -2 -108 -43.5t-64 -98.5q-13 -58 18.5 -99.5t88.5 -41.5zM375 -20q-170 0 -232 99
t-10 324l119 519h168l-119 -519q-46 -198 -16.5 -280t145.5 -82q58 0 125.5 27t134.5 77t125.5 131.5t91.5 180.5l107 465h168l-213 -922h-162l61 262q-119 -155 -245 -219q-123 -63 -248 -63z" />
    <glyph glyph-name="Uhungarumlaut" unicode="&#x170;" horiz-adv-x="1488" 
d="M750 1454l213 252h161l-315 -252h-59zM1036 1454l213 252h162l-315 -252h-60zM594 -20q-283 0 -397 141.5t-45 441.5l200 871h168l-207 -893q-28 -138 -19.5 -234t57 -155.5t118 -86t162.5 -26.5q209 0 367 133.5t216 384.5l203 877h56l-203 -875q-34 -147 -100 -259
t-155 -181.5t-195 -104t-226 -34.5z" />
    <glyph glyph-name="uhungarumlaut" unicode="&#x171;" horiz-adv-x="1236" 
d="M522 1049l213 251h162l-315 -251h-60zM809 1049l213 251h162l-316 -251h-59zM375 -20q-170 0 -232 99t-10 324l119 519h168l-119 -519q-46 -198 -16.5 -280t145.5 -82q58 0 125.5 27t134.5 77t125.5 131.5t91.5 180.5l107 465h168l-213 -922h-162l61 262
q-119 -155 -245 -219q-123 -63 -248 -63z" />
    <glyph glyph-name="Uogonek" unicode="&#x172;" horiz-adv-x="1488" 
d="M1417 1434h56l-203 -875q-33 -143 -96 -252.5t-148 -179t-186 -106t-217 -41.5q-114 -111 -114 -210q0 -69 57 -93q69 -30 167 32l8 -22q-96 -95 -211 -109q-95 -12 -137 40q-54 64 18 184q49 82 154 178q-267 8 -373.5 149.5t-39.5 433.5l200 871h168l-207 -893
q-28 -138 -19.5 -234t57 -155.5t118 -86t162.5 -26.5q209 0 367 133.5t216 384.5z" />
    <glyph glyph-name="uogonek" unicode="&#x173;" horiz-adv-x="1236" 
d="M909 0q-119 -111 -123 -212q-3 -71 52 -99q67 -33 164 25q4 2 8 5l8 -22q-96 -94 -210 -109q-96 -12 -138 40q-53 64 19 185q52 86 165 187h-47l61 262q-119 -155 -245 -219q-123 -63 -248 -63q-170 0 -232 99t-10 324l119 519h168l-119 -519q-46 -198 -16.5 -280
t145.5 -82q58 0 125.5 27t134.5 77t125.5 131.5t91.5 180.5l107 465h168l-213 -922h-60z" />
    <glyph glyph-name="Wcircumflex" unicode="&#x174;" horiz-adv-x="2426" 
d="M1153 1532l213 252h272l99 -252h-60l-180 227l-285 -227h-59zM500 0l-211 1434h182l184 -1280l762 1280h62l157 -1280l772 1280h62l-866 -1434h-125l-152 1182l-702 -1182h-125z" />
    <glyph glyph-name="wcircumflex" unicode="&#x175;" horiz-adv-x="1607" 
d="M676 1040l213 252h272l99 -252h-60l-180 228l-285 -228h-59zM330 0l-162 922h182l133 -768l453 768h70l96 -775l489 775h62l-584 -922h-125l-88 680l-401 -680h-125z" />
    <glyph glyph-name="Ycircumflex" unicode="&#x176;" horiz-adv-x="1501" 
d="M700 1538l213 252h273l98 -252h-59l-181 227l-284 -227h-60zM514 0l129 561l-354 873h200l316 -775l674 775h65l-721 -826l-141 -608h-168z" />
    <glyph glyph-name="ycircumflex" unicode="&#x177;" horiz-adv-x="1239" 
d="M455 1042l213 252h272l98 -252h-59l-180 228l-285 -228h-59zM82 -283l27 33q30 -41 76.5 -71t103.5 -44t118.5 -13t123 26.5t115 70t97 121.5t66.5 178l49 215q-112 -132 -239 -192.5t-244 -60.5q-170 0 -232 99t-10 324l119 519h168l-115 -502q-46 -198 -16.5 -280.5
t145.5 -82.5q47 0 101 17.5t111.5 54t109.5 87.5t95.5 124t68.5 158l96 424h168l-207 -902q-29 -129 -100 -225.5t-158.5 -146t-187 -70.5t-188 -8.5t-159.5 50.5t-102 97z" />
    <glyph glyph-name="Ydieresis" unicode="&#x178;" horiz-adv-x="1501" 
d="M815 1536q-43 0 -65 28.5t-13 71.5q9 42 45.5 72t77.5 29q43 -1 65 -30.5t13 -70.5q-9 -43 -44.5 -71.5t-78.5 -28.5zM1155 1536q-43 0 -65 28.5t-13 71.5q9 41 44.5 70t78.5 29q41 0 64 -29t14 -70q-9 -42 -45 -71t-78 -29zM514 0l129 561l-354 873h200l316 -775
l674 775h65l-721 -826l-141 -608h-168z" />
    <glyph glyph-name="Zacute" unicode="&#x179;" horiz-adv-x="1558" 
d="M901 1536l213 252h162l-315 -252h-60zM18 0l13 55l1296 1323h-989l12 56h1190l-12 -56l-1297 -1323h990l-13 -55h-1190z" />
    <glyph glyph-name="zacute" unicode="&#x17a;" horiz-adv-x="1198" 
d="M659 1047l213 251h162l-315 -251h-60zM16 0l13 55l899 811h-711l12 56h942l-12 -56l-899 -811h721l-12 -55h-953z" />
    <glyph glyph-name="Zdotaccent" unicode="&#x17b;" horiz-adv-x="1558" 
d="M938 1556q-43 0 -65 29t-13 72q9 42 45.5 71.5t77.5 28.5q43 -1 65 -30t13 -70q-9 -43 -44.5 -72t-78.5 -29zM18 0l13 55l1296 1323h-989l12 56h1190l-12 -56l-1297 -1323h990l-13 -55h-1190z" />
    <glyph glyph-name="zdotaccent" unicode="&#x17c;" horiz-adv-x="1198" 
d="M682 1044q-43 0 -65 29t-13 72q9 42 45.5 71.5t77.5 28.5q43 -1 65 -30t13 -70q-9 -43 -44.5 -72t-78.5 -29zM16 0l13 55l899 811h-711l12 56h942l-12 -56l-899 -811h721l-12 -55h-953z" />
    <glyph glyph-name="Zcaron" unicode="&#x17d;" horiz-adv-x="1558" 
d="M809 1542l-98 252h59l182 -227l283 227h59l-213 -252h-272zM18 0l13 55l1296 1323h-989l12 56h1190l-12 -56l-1297 -1323h990l-13 -55h-1190z" />
    <glyph glyph-name="zcaron" unicode="&#x17e;" horiz-adv-x="1218" 
d="M561 1044l-98 252h59l183 -227l282 227h60l-213 -252h-273zM16 0l13 55l899 811h-711l12 56h942l-12 -56l-899 -811h721l-12 -55h-953z" />
    <glyph glyph-name="uni0218" unicode="&#x218;" horiz-adv-x="1454" 
d="M539 -23q-115 0 -212 28.5t-166 89t-87 145.5l84 26q12 -62 49 -108t92 -72.5t119 -39.5t137 -13q165 0 295.5 80t159.5 209q7 30 7 57t-5.5 49t-19 42t-29 35.5t-40 31t-47.5 27t-56.5 24.5t-61.5 22.5t-68 22.5q-189 57 -267 99q-171 91 -169 249q0 39 10 82
q21 93 87 169.5t156.5 124.5t196 73.5t211.5 25.5q177 0 304.5 -67.5t154.5 -194.5l-84 -27q-16 82 -75 136t-138 76t-178 22q-165 0 -295 -79t-160 -208q-7 -30 -6.5 -56.5t5.5 -48t19.5 -41.5t29 -35t40.5 -30.5t47.5 -26t57 -23.5t61.5 -22t68 -22q46 -14 71 -22
t68.5 -23.5t68 -27.5t60.5 -30t56.5 -36t45.5 -42t36.5 -50.5t20.5 -58t8 -69t-11 -79.5q-21 -93 -87 -169.5t-156.5 -124.5t-196 -74t-211.5 -26zM475 -446l-18 12q26 47 30 65q5 20 -7 36.5t-28.5 28t-27 35.5t-2.5 56q10 44 46 71t75 27q63 0 75 -63q8 -60 -38 -138
t-105 -130z" />
    <glyph glyph-name="uni0219" unicode="&#x219;" horiz-adv-x="1093" 
d="M430 -20q-95 0 -174.5 21t-134.5 66.5t-64 108.5l107 19q1 -77 83 -118.5t199 -41.5q120 0 202 46.5t104 143.5q10 43 -12.5 73t-67 44t-103 26.5t-121 21t-119 28.5t-98.5 47.5t-59.5 79t-1.5 121.5q21 88 101.5 152.5t184.5 94t216 29.5q145 0 248.5 -52t115.5 -145
l-104 -18q-1 80 -82 123.5t-199 40.5q-121 -3 -204 -49t-105 -144q-11 -50 19 -81.5t87 -47t127 -27t139 -29t123 -44.5t79.5 -81t7.5 -132q-21 -90 -99.5 -154t-180.5 -93t-214 -29zM334 -463l-19 12q28 49 31 66q5 20 -7 36.5t-28.5 28t-27 35.5t-2.5 56q10 44 45.5 71
t74.5 27q29 0 49.5 -16.5t26.5 -47.5q8 -60 -38 -138t-105 -130z" />
    <glyph glyph-name="uni021A" unicode="&#x21a;" horiz-adv-x="1503" 
d="M502 0l319 1378h-524l12 56h1217l-13 -56h-524l-319 -1378h-168zM492 -434l-19 12q28 49 31 66q4 17 -3.5 30.5t-20 22.5t-25 23.5t-18 31.5t0.5 47q10 44 46 71.5t75 27.5q29 0 49.5 -16.5t26.5 -47.5q8 -60 -38 -138t-105 -130z" />
    <glyph glyph-name="uni021B" unicode="&#x21b;" horiz-adv-x="661" 
d="M217 -23q-101 0 -131 63.5t2 199.5l145 626h-104l12 56h105l86 368l180 62l-98 -430h223l-12 -56h-224l-118 -516q-7 -31 -18 -74.5t-17 -68t-12.5 -56t-7 -48.5t2 -34.5t12 -26t25.5 -11.5q26 -5 68.5 14t93.5 70l19 -19q-113 -119 -232 -119zM125 -453l-19 13
q28 50 31 65q5 20 -7 36.5t-28.5 28t-27 35.5t-2.5 56q10 44 46 71t75 27q63 0 75 -63q8 -60 -38.5 -138.5t-104.5 -130.5z" />
    <glyph glyph-name="circumflex" unicode="&#x2c6;" horiz-adv-x="788" 
d="M74 1536l213 252h272l98 -252h-59l-180 227l-285 -227h-59z" />
    <glyph glyph-name="caron" unicode="&#x2c7;" horiz-adv-x="788" 
d="M229 1536l-98 252h59l183 -227l282 227h60l-213 -252h-273z" />
    <glyph glyph-name="breve" unicode="&#x2d8;" horiz-adv-x="806" 
d="M369 1499q-57 0 -104 17.5t-82.5 54t-47.5 92.5t2 133h39q-16 -92 46.5 -138t172.5 -46t193.5 46t111.5 138h39q-25 -98 -86.5 -167t-134 -99.5t-149.5 -30.5z" />
    <glyph glyph-name="dotaccent" unicode="&#x2d9;" horiz-adv-x="405" 
d="M180 1516q-43 0 -65 28.5t-13 71.5q9 42 45.5 71.5t77.5 28.5q43 -1 65 -30t13 -70q-9 -43 -44.5 -71.5t-78.5 -28.5z" />
    <glyph glyph-name="ring" unicode="&#x2da;" horiz-adv-x="593" 
d="M252 1516q-80 0 -124.5 57.5t-25.5 136.5q19 80 90 137.5t150 57.5q80 0 124.5 -58t25.5 -137t-89.5 -136.5t-150.5 -57.5zM264 1569q57 0 108 41.5t64 99.5q14 57 -17.5 99.5t-88.5 41.5q-57 -2 -108 -43t-64 -98q-13 -58 18 -99.5t88 -41.5z" />
    <glyph glyph-name="ogonek" unicode="&#x2db;" horiz-adv-x="577" 
d="M449 -313q-97 -95 -211 -109q-96 -12 -138 40q-53 65 20 186q61 100 202 219l30 -23q-127 -112 -136 -216q-6 -74 49 -103q65 -35 162 20q6 4 13 8z" />
    <glyph glyph-name="tilde" unicode="&#x2dc;" horiz-adv-x="833" 
d="M567 1516q-52 0 -113.5 29.5t-117.5 59t-94 29.5q-108 0 -131 -98h-31q27 119 73.5 165t112.5 46q51 0 112.5 -27.5t118.5 -54.5t97 -27q46 0 83 25t46 63h31q-27 -119 -73.5 -164.5t-113.5 -45.5z" />
    <glyph glyph-name="hungarumlaut" unicode="&#x2dd;" horiz-adv-x="808" 
d="M74 1534l213 252h162l-316 -252h-59zM360 1534l213 252h162l-315 -252h-60z" />
    <glyph glyph-name="gravecomb" unicode="&#x300;" 
d="M-190 1534l-201 252h162l98 -252h-59z" />
    <glyph glyph-name="acutecomb" unicode="&#x301;" 
d="M-449 1534l213 252h162l-315 -252h-60z" />
    <glyph glyph-name="uni0302" unicode="&#x302;" 
d="M-715 1536l213 252h273l98 -252h-59l-181 227l-284 -227h-60z" />
    <glyph glyph-name="tildecomb" unicode="&#x303;" 
d="M-266 1516q-52 0 -113.5 29.5t-118 59t-94.5 29.5q-108 0 -131 -98h-31q27 119 73.5 165t113.5 46q41 0 88.5 -17t83.5 -37.5t79.5 -37.5t75.5 -17q46 0 83 25t46 63h31q-27 -119 -73 -164.5t-113 -45.5z" />
    <glyph glyph-name="uni0304" unicode="&#x304;" 
d="M-717 1538l25 100h602l-25 -100h-602z" />
    <glyph glyph-name="uni0306" unicode="&#x306;" 
d="M-438 1499q-57 0 -104 17.5t-82.5 54t-47.5 92.5t2 133h39q-16 -92 46.5 -138t172.5 -46t194 46t112 138h38q-25 -98 -86.5 -167t-134 -99.5t-149.5 -30.5z" />
    <glyph glyph-name="uni0307" unicode="&#x307;" 
d="M-225 1516q-43 0 -65 28.5t-13 71.5q9 42 45.5 71.5t77.5 28.5q43 -1 65 -30t13 -70q-9 -43 -44.5 -71.5t-78.5 -28.5z" />
    <glyph glyph-name="uni0308" unicode="&#x308;" 
d="M-565 1516q-43 0 -65 28.5t-13 71.5q9 42 45.5 71.5t77.5 28.5q43 -1 65 -30t13 -70q-9 -43 -44.5 -71.5t-78.5 -28.5zM-225 1516q-43 0 -65 28.5t-13 71.5q9 41 44.5 69.5t78.5 28.5q41 0 64 -28.5t14 -69.5q-9 -42 -45 -71t-78 -29z" />
    <glyph glyph-name="uni030A" unicode="&#x30a;" 
d="M-342 1516q-80 0 -124.5 57.5t-25.5 136.5q19 80 90 137.5t150 57.5q80 0 124.5 -58t25.5 -137t-89.5 -136.5t-150.5 -57.5zM-330 1569q57 0 108 41.5t64 99.5q14 57 -17.5 99.5t-88.5 41.5q-57 -2 -108 -43t-64 -98q-13 -58 18 -99.5t88 -41.5z" />
    <glyph glyph-name="uni030B" unicode="&#x30b;" 
d="M-735 1536l213 252h162l-316 -252h-59zM-449 1536l213 252h162l-315 -252h-60z" />
    <glyph glyph-name="uni030C" unicode="&#x30c;" 
d="M-559 1536l-98 252h59l182 -227l283 227h59l-213 -252h-272z" />
    <glyph glyph-name="uni0312" unicode="&#x312;" 
d="M-240 1536q-63 0 -75 63q-8 60 38.5 138.5t104.5 130.5l18 -13q-26 -47 -30 -65q-5 -20 7 -36.5t28.5 -28t27 -35.5t2.5 -56q-10 -44 -46 -71t-75 -27z" />
    <glyph glyph-name="uni0326" unicode="&#x326;" 
d="M-229 -492l-19 13q28 50 31 65q4 17 -3.5 30.5t-20 23t-25 23.5t-18 31.5t0.5 47.5q10 44 46 71t75 27q64 0 76 -63q8 -60 -38.5 -138.5t-104.5 -130.5z" />
    <glyph glyph-name="uni0327" unicode="&#x327;" 
d="M-393 -367q70 4 112 67q39 58 21 110q-20 63 -108 57q-15 -1 -33 -4l100 137h70l-70 -94q115 7 161 -45t27 -127q-24 -92 -103.5 -140t-173 -32t-153.5 94l25 27q65 -53 125 -50z" />
    <glyph glyph-name="uni0328" unicode="&#x328;" 
d="M-129 -313q-97 -95 -211 -109q-96 -12 -138 40q-53 65 20 186q61 100 202 219l31 -23q-127 -112 -136 -216q-6 -74 49 -103q65 -35 162 20q6 4 13 8z" />
    <glyph glyph-name="uni0335" unicode="&#x335;" 
d="M-702 598l16 68h592l-17 -68h-591z" />
    <glyph glyph-name="uni0336" unicode="&#x336;" 
d="M-805 598l17 68h694l-17 -68h-694z" />
    <glyph glyph-name="uni0337" unicode="&#x337;" 
d="M-1096 0l1026 983h80l-1028 -983h-78z" />
    <glyph glyph-name="uni0338" unicode="&#x338;" 
d="M-1323 0l1288 1280h80l-1290 -1280h-78z" />
    <glyph glyph-name="Wgrave" unicode="&#x1e80;" horiz-adv-x="2426" 
d="M1397 1534l-201 252h162l98 -252h-59zM500 0l-211 1434h182l184 -1280l762 1280h62l157 -1280l772 1280h62l-866 -1434h-125l-152 1182l-702 -1182h-125z" />
    <glyph glyph-name="wgrave" unicode="&#x1e81;" horiz-adv-x="1607" 
d="M913 1038l-200 252h161l99 -252h-60zM330 0l-162 922h182l133 -768l453 768h70l96 -775l489 775h62l-584 -922h-125l-88 680l-401 -680h-125z" />
    <glyph glyph-name="Wacute" unicode="&#x1e82;" horiz-adv-x="2426" 
d="M1329 1534l213 252h162l-315 -252h-60zM500 0l-211 1434h182l184 -1280l762 1280h62l157 -1280l772 1280h62l-866 -1434h-125l-152 1182l-702 -1182h-125z" />
    <glyph glyph-name="wacute" unicode="&#x1e83;" horiz-adv-x="1607" 
d="M881 1044l213 252h161l-315 -252h-59zM330 0l-162 922h182l133 -768l453 768h70l96 -775l489 775h62l-584 -922h-125l-88 680l-401 -680h-125z" />
    <glyph glyph-name="Wdieresis" unicode="&#x1e84;" horiz-adv-x="2426" 
d="M1303 1540q-43 0 -65 28.5t-13 71.5q9 42 45.5 72t77.5 29q42 -1 64 -30t13 -71q-9 -43 -44 -71.5t-78 -28.5zM1642 1540q-43 0 -64.5 28.5t-12.5 71.5q9 41 44.5 70t78.5 29q41 0 63.5 -29t13.5 -70q-9 -42 -45 -71t-78 -29zM500 0l-211 1434h182l184 -1280l762 1280h62
l157 -1280l772 1280h62l-866 -1434h-125l-152 1182l-702 -1182h-125z" />
    <glyph glyph-name="wdieresis" unicode="&#x1e85;" horiz-adv-x="1607" 
d="M825 1036q-42 0 -64 29t-13 72q9 42 45 71.5t77 28.5q43 -1 65 -30t13 -70q-9 -43 -44.5 -72t-78.5 -29zM1165 1036q-43 0 -65 29t-13 72q9 41 44.5 69.5t78.5 28.5q41 0 64 -28.5t14 -69.5q-9 -42 -45 -71.5t-78 -29.5zM330 0l-162 922h182l133 -768l453 768h70l96 -775
l489 775h62l-584 -922h-125l-88 680l-401 -680h-125z" />
    <glyph glyph-name="Ygrave" unicode="&#x1ef2;" horiz-adv-x="1501" 
d="M915 1534l-200 252h162l98 -252h-60zM514 0l129 561l-354 873h200l316 -775l674 775h65l-721 -826l-141 -608h-168z" />
    <glyph glyph-name="ygrave" unicode="&#x1ef3;" horiz-adv-x="1239" 
d="M745 1047l-200 251h162l98 -251h-60zM82 -283l27 33q30 -41 76.5 -71t103.5 -44t118.5 -13t123 26.5t115 70t97 121.5t66.5 178l49 215q-112 -132 -239 -192.5t-244 -60.5q-170 0 -232 99t-10 324l119 519h168l-115 -502q-46 -198 -16.5 -280.5t145.5 -82.5
q47 0 101 17.5t111.5 54t109.5 87.5t95.5 124t68.5 158l96 424h168l-207 -902q-29 -129 -100 -225.5t-158.5 -146t-187 -70.5t-188 -8.5t-159.5 50.5t-102 97z" />
    <glyph glyph-name="endash" unicode="&#x2013;" horiz-adv-x="1228" 
d="M156 444l16 68h983l-16 -68h-983z" />
    <glyph glyph-name="emdash" unicode="&#x2014;" horiz-adv-x="1943" 
d="M156 444l16 68h1698l-17 -68h-1697z" />
    <glyph glyph-name="quoteleft" unicode="&#x2018;" horiz-adv-x="442" 
d="M223 1122q-29 0 -49.5 16.5t-26.5 47.5q-8 60 38.5 137.5t105.5 130.5l18 -12q-26 -47 -30 -66q-5 -20 7 -36.5t28.5 -27.5t27 -35t2.5 -56q-10 -44 -46 -71.5t-75 -27.5z" />
    <glyph glyph-name="quoteright" unicode="&#x2019;" horiz-adv-x="442" 
d="M233 1122l-18 13q28 50 31 65q4 17 -3.5 30.5t-20 23t-25 23.5t-18 31.5t0.5 47.5q10 44 46 71t75 27q64 0 76 -63q8 -60 -38.5 -138.5t-105.5 -130.5z" />
    <glyph glyph-name="quotesinglbase" unicode="&#x201a;" horiz-adv-x="444" 
d="M233 -137l-18 12q28 49 31 66q4 17 -3.5 30.5t-20 22.5t-25 23.5t-18 31.5t0.5 47q10 44 46 71.5t75 27.5q29 0 49.5 -16.5t26.5 -47.5q10 -60 -37 -137.5t-107 -130.5z" />
    <glyph glyph-name="quotedblleft" unicode="&#x201c;" horiz-adv-x="729" 
d="M223 1122q-29 0 -49.5 16.5t-26.5 47.5q-8 60 38.5 137.5t105.5 130.5l18 -12q-26 -47 -30 -66q-5 -20 7 -36.5t28.5 -27.5t27 -35t2.5 -56q-10 -44 -46 -71.5t-75 -27.5zM510 1122q-29 0 -49.5 16.5t-26.5 47.5q-8 60 38.5 137.5t105.5 130.5l18 -12q-28 -49 -31 -66
q-4 -17 3.5 -30.5t20 -22.5t25 -23.5t18 -31.5t-0.5 -47q-10 -44 -46 -71.5t-75 -27.5z" />
    <glyph glyph-name="quotedblright" unicode="&#x201d;" horiz-adv-x="729" 
d="M233 1122l-18 13q28 50 31 65q4 17 -3.5 30.5t-20 23t-25 23.5t-18 31.5t0.5 47.5q10 44 46 71t75 27q64 0 76 -63q8 -60 -38.5 -138.5t-105.5 -130.5zM520 1122l-18 13q26 47 30 65q5 20 -7 36.5t-28.5 28t-27 35.5t-2.5 56q10 44 46 71t75 27q64 0 76 -63
q8 -60 -38.5 -138.5t-105.5 -130.5z" />
    <glyph glyph-name="quotedblbase" unicode="&#x201e;" horiz-adv-x="729" 
d="M233 -137l-18 12q28 49 31 66q4 17 -3.5 30.5t-20 22.5t-25 23.5t-18 31.5t0.5 47q10 44 46 71.5t75 27.5q29 0 49.5 -16.5t26.5 -47.5q8 -60 -38.5 -137.5t-105.5 -130.5zM520 -137l-18 12q26 47 30 66q5 20 -7 36.5t-28.5 27.5t-27 35t-2.5 56q10 44 46 71.5t75 27.5
q29 0 49.5 -16.5t26.5 -47.5q8 -60 -38.5 -137.5t-105.5 -130.5z" />
    <glyph glyph-name="dagger" unicode="&#x2020;" horiz-adv-x="894" 
d="M311 -8l6 215l166 827l-211 -45l-67 60l94 59l213 -49l55 147v47l29 45q-25 8 -37.5 29.5t-5.5 50.5q8 34 37 58t63 24t52 -24t10 -58q-8 -28 -28 -49.5t-46 -28.5l2 -47l-16 -47l-13 -145l230 47l78 -59l-105 -60l-188 43l-215 -823l-95 -217h-8z" />
    <glyph glyph-name="daggerdbl" unicode="&#x2021;" horiz-adv-x="839" 
d="M270 -172q-29 0 -43 19t-8 49q6 23 24.5 41t41.5 22l-2 37l10 39l-8 39v82l-176 -37l-54 49l76 49l162 -37l133 459l80 461l-176 -37l-56 49l78 49l172 -41l47 123l11 41l18 37q-23 4 -34 22t-5 41q6 28 31 48t53 20t42.5 -20t8.5 -48q-6 -23 -23.5 -40t-41.5 -23l2 -37
l-10 -41l-11 -121l191 39l61 -49l-84 -49l-157 35l-134 -459l-79 -457l174 35l65 -49l-88 -49l-155 35v-2l-37 -78l-23 -39l-10 -39l-21 -37q22 -4 31.5 -22t3.5 -41q-6 -29 -29.5 -48.5t-50.5 -19.5z" />
    <glyph glyph-name="bullet" unicode="&#x2022;" horiz-adv-x="636" 
d="M315 449q-82 0 -126 57t-25 139t89.5 138.5t152.5 56.5t125 -56.5t24 -138.5t-88.5 -139t-151.5 -57z" />
    <glyph glyph-name="ellipsis" unicode="&#x2026;" horiz-adv-x="1210" 
d="M240 0q-41 0 -63 28.5t-13 69.5q9 40 44.5 68.5t76.5 28.5q40 0 62 -28.5t13 -68.5q-9 -41 -44.5 -69.5t-75.5 -28.5zM625 0q-41 0 -63 28.5t-13 69.5q9 40 44.5 68.5t76.5 28.5q40 0 61 -28.5t12 -68.5q-9 -41 -43.5 -69.5t-74.5 -28.5zM1010 0q-41 0 -63 28.5t-13 69.5
q9 40 44.5 68.5t76.5 28.5t61.5 -28.5t11.5 -68.5q-9 -41 -43 -69.5t-75 -28.5z" />
    <glyph glyph-name="perthousand" unicode="&#x2030;" horiz-adv-x="2086" 
d="M78 0l1302 1389q-106 -35 -210 -45t-184.5 -1.5t-178.5 31.5q36 -42 47.5 -100.5t-4.5 -126.5q-29 -129 -134.5 -219t-228.5 -90t-188.5 90t-36.5 219q31 128 137.5 217.5t229.5 89.5h4q59 0 119 -31q90 -23 157 -34.5t152.5 -16.5t174.5 10t185 50l2 2h68l-1346 -1434
h-67zM498 874q64 0 118.5 77.5t81.5 195.5q24 99 11.5 174.5t-58.5 93.5q-2 0 -6.5 1t-7.5 1q-4 2 -14 2q-64 0 -120 -77.5t-83 -194.5q-28 -114 -7 -193.5t85 -79.5zM887 -18q-123 0 -188.5 90t-34.5 219q29 128 135 217.5t229 89.5q122 0 187 -90t36 -217
q-31 -129 -136 -219t-228 -90zM1542 -18q-123 0 -188.5 90t-34.5 219q29 128 135 217.5t229 89.5q122 0 187.5 -90t36.5 -217q-31 -129 -136.5 -219t-228.5 -90zM897 18q64 0 120 77.5t83 195.5q28 114 8 193t-84 79t-120 -77.5t-83 -194.5q-28 -114 -8 -193.5t84 -79.5z
M1552 18q64 0 120 77.5t83 195.5q28 114 8 193t-84 79t-119.5 -77t-82.5 -195q-28 -114 -8.5 -193.5t83.5 -79.5z" />
    <glyph glyph-name="guilsinglleft" unicode="&#x2039;" horiz-adv-x="884" 
d="M698 242l-534 448l743 449l-20 -84l-592 -365l424 -364z" />
    <glyph glyph-name="guilsinglright" unicode="&#x203a;" horiz-adv-x="884" 
d="M59 242l21 84l592 364l-424 365l20 84l535 -449z" />
    <glyph glyph-name="fraction" unicode="&#x2044;" horiz-adv-x="1523" 
d="M-72 -283l1579 1860h88l-1579 -1860h-88z" />
    <glyph glyph-name="Euro" unicode="&#x20ac;" horiz-adv-x="1759" 
d="M965 -20q-295 0 -463.5 158t-159.5 419h-215l53 68h168q1 8 17 90q10 45 14 57h-162l55 68h131q105 275 352 442.5t552 167.5q189 0 321.5 -76.5t157.5 -189.5l-80 -27q-29 120 -133.5 185t-255.5 65q-242 0 -441.5 -154t-291.5 -413h657l-57 -68h-623q-3 -9 -7 -26.5
t-7 -26.5q-17 -92 -17 -94h611l-58 -68h-561q-12 -246 114.5 -390t358.5 -144q152 0 286.5 64.5t217.5 184.5l68 -26q-75 -113 -244 -189.5t-358 -76.5z" />
    <glyph glyph-name="trademark" unicode="&#x2122;" horiz-adv-x="1513" 
d="M317 1047l136 583h-224l4 23h517l-5 -23h-221l-135 -583h-72zM686 1047l139 606h74l158 -523l373 523h71l-139 -606h-72l127 552l-391 -552h-25l-167 546l-125 -546h-23z" />
    <glyph glyph-name="oneeighth" unicode="&#x215b;" horiz-adv-x="1755" 
d="M297 623l213 921l145 119l-239 -1040h-119zM-57 -283l1579 1860h88l-1579 -1860h-88zM829 -82q19 84 96.5 169.5t202.5 156.5q-65 67 -95.5 128t-14.5 126q30 128 157 196q110 60 227 45q111 -15 148 -90q24 -48 9 -114q-35 -146 -254 -267q48 -41 79.5 -73.5t61.5 -74.5
t39.5 -85.5t-0.5 -89.5q-31 -133 -172 -205q-126 -64 -269 -51q-136 13 -192 90q-42 58 -23 139zM1280 291q109 58 166 114t74 127q23 101 -56 150q-69 42 -167 21q-104 -22 -154 -103q-17 -28 -25 -61t0.5 -64.5t32 -60.5t50 -54t63.5 -56q11 -8 16 -13zM1382 -96
q10 42 -15 89.5t-48.5 71.5t-87.5 82q-21 19 -31 29q-24 19 -47 45q-235 -128 -279 -299q-25 -105 69 -159q84 -49 206 -32q128 17 194 95q29 35 39 78z" />
    <glyph glyph-name="threeeighths" unicode="&#x215c;" horiz-adv-x="1974" 
d="M461 635q-99 -3 -171.5 38t-101.5 122l56 32q10 -81 62.5 -120t135.5 -37q113 2 203.5 77t120.5 205q26 112 -9.5 180t-138.5 68q-15 0 -61 -4l4 29q91 10 153 77t79 144q15 67 4 129q-10 42 -46 64t-85 22q-93 0 -158.5 -56t-93.5 -159l-52 14q57 117 146 176.5
t192 59.5q109 0 174 -59.5t39 -172.5q-16 -69 -67 -129t-137 -96q111 -9 161.5 -86t26.5 -180q-37 -155 -159 -244t-277 -94zM180 -283l1579 1860h88l-1579 -1860h-88zM1044 -82q19 84 97.5 169.5t204.5 156.5q-138 138 -113 254q30 128 157 196q110 60 227 45
q111 -15 148 -90q24 -48 9 -114q-35 -146 -254 -267q48 -41 79.5 -73.5t61.5 -74.5t39.5 -85.5t-0.5 -89.5q-31 -133 -172 -205q-126 -64 -269 -51q-136 13 -192 90q-42 58 -23 139zM1495 291q109 58 166 114t74 127q23 101 -56 150q-69 42 -167 21q-104 -22 -154 -103
q-17 -28 -25 -61t0.5 -64.5t32 -60.5t50 -54t63.5 -56q11 -8 16 -13zM1597 -96q10 41 -13 87t-49.5 73.5t-85.5 80.5q-23 21 -34 31q-33 28 -47 45q-235 -130 -278 -299q-25 -105 69 -160q83 -48 205 -31q128 17 194 95q29 35 39 78z" />
    <glyph glyph-name="fiveeighths" unicode="&#x215d;" horiz-adv-x="1941" 
d="M430 623q-94 0 -160.5 41t-81.5 116l58 31q4 -77 53 -118.5t123 -41.5q57 0 117 26.5t108 76.5q77 80 103 196q32 138 -25 219.5t-174 81.5q-114 0 -240 -75l111 485h596l-27 -121h-555l-71 -307q126 63 239 63q145 0 228.5 -89.5t50.5 -227.5q-32 -139 -154 -246
q-131 -110 -299 -110zM147 -283l1579 1860h89l-1579 -1860h-89zM1016 -82q19 84 96.5 169.5t202.5 156.5q-64 66 -94.5 127.5t-16.5 126.5q30 128 157 196q110 60 227 45q111 -15 148 -90q24 -48 9 -114q-35 -146 -254 -267q48 -41 79.5 -73.5t61.5 -74.5t39.5 -85.5
t-0.5 -89.5q-31 -133 -173 -205q-125 -64 -267 -51q-136 13 -192 90q-42 58 -23 139zM1466 291q109 58 166 114t74 127q23 101 -56 150q-69 42 -167 21q-104 -23 -153 -103q-17 -28 -25 -61t-0.5 -63.5t34.5 -63t47.5 -52t65.5 -57.5q9 -8 14 -12zM1569 -96q10 42 -13.5 88
t-51 73.5t-85.5 80.5l-33 30q-24 19 -47 45q-234 -128 -278 -299q-25 -105 69 -159q84 -49 206 -32q128 17 194 95q29 35 39 78z" />
    <glyph glyph-name="seveneighths" unicode="&#x215e;" horiz-adv-x="1759" 
d="M279 655q38 102 99.5 215t150.5 241t155 217t176 231h-493l26 120h596q-204 -261 -352 -524t-213 -500h-145zM-55 -283l1579 1860h88l-1579 -1860h-88zM831 -82q19 84 96.5 169.5t202.5 156.5q-65 67 -95.5 128t-14.5 126q30 128 157 196q110 60 227 45q111 -15 148 -90
q24 -48 9 -114q-35 -146 -254 -267q48 -41 79.5 -73.5t61.5 -74.5t39.5 -85.5t-0.5 -89.5q-31 -133 -172 -205q-126 -64 -269 -51q-136 13 -192 90q-42 58 -23 139zM1282 291q109 58 166 114t74 127q23 101 -56 150q-69 42 -167 21q-104 -22 -154 -103q-17 -28 -25 -61
t0.5 -64.5t32 -60.5t50 -54t63.5 -56q11 -8 16 -13zM1384 -96q10 42 -15 89.5t-48.5 71.5t-87.5 82q-21 19 -31 29q-24 19 -47 45q-234 -128 -278 -299q-25 -105 69 -160q83 -48 205 -31q128 17 194 95q29 35 39 78z" />
    <glyph glyph-name="arrowleft" unicode="&#x2190;" horiz-adv-x="1515" 
d="M524 379l-366 225l12 53l469 226l-10 -52l-299 -163h1112l-17 -74h-1112l222 -164z" />
    <glyph glyph-name="arrowup" unicode="&#x2191;" horiz-adv-x="749" 
d="M231 0l258 1112l-223 -260h-53l324 418h53l127 -418h-53l-101 260l-258 -1112h-74z" />
    <glyph glyph-name="arrowright" unicode="&#x2192;" horiz-adv-x="1515" 
d="M958 379l11 51l299 164h-1112l16 74h1112l-221 163l10 52l367 -226l-13 -53z" />
    <glyph glyph-name="arrowdown" unicode="&#x2193;" horiz-adv-x="749" 
d="M242 -6l-127 418h51l102 -260l258 1112h74l-258 -1112l225 260h51l-323 -418h-53z" />
    <glyph glyph-name="arrowboth" unicode="&#x2194;" horiz-adv-x="1802" 
d="M524 520l-366 225l12 54l469 225l-10 -51l-299 -164h1241l-221 164l10 51l366 -225l-12 -54l-469 -225l10 51l299 164h-1241l222 -164z" />
    <glyph glyph-name="arrowupdn" unicode="&#x2195;" horiz-adv-x="749" 
d="M209 -6l-129 418h51l105 -260l286 1241l-223 -260h-51l321 417h54l129 -417h-52l-104 260l-287 -1241l223 260h52l-322 -418h-53z" />
    <glyph glyph-name="uni2196" unicode="&#x2196;" horiz-adv-x="1187" 
d="M944 160l-604 784v-297l-45 -37l-31 455l45 37l424 -135l-45 -37l-282 67l604 -784z" />
    <glyph glyph-name="uni2197" unicode="&#x2197;" horiz-adv-x="1187" 
d="M109 160l-41 53l964 784l-311 -67l-29 37l486 135l28 -37l-239 -455l-29 37l135 297z" />
    <glyph glyph-name="uni2198" unicode="&#x2198;" horiz-adv-x="1187" 
d="M961 160l-424 135l45 37l282 -68l-604 785l66 53l604 -785v297l45 37l31 -454z" />
    <glyph glyph-name="uni2199" unicode="&#x2199;" horiz-adv-x="1187" 
d="M92 160l-29 37l240 454l29 -37l-135 -297l964 785l41 -53l-964 -785l311 68l29 -37z" />
    <glyph glyph-name="partialdiff" unicode="&#x2202;" horiz-adv-x="1196" 
d="M455 -20q-76 0 -137.5 19t-103 52t-70 78t-40.5 98t-11.5 110t13.5 116q21 91 70 176t120 154.5t170 111t210 41.5q192 0 270 -156q47 290 -13.5 444t-225.5 154q-132 0 -252 -139l-25 51q149 131 322 131q160 0 258.5 -96.5t121 -269.5t-29.5 -412q-21 -90 -60.5 -181.5
t-99.5 -178.5t-132 -154t-164.5 -108t-190.5 -41zM463 20q132 0 263 178t194 445l2 10q-31 120 -91 182t-145 62q-130 0 -246.5 -130.5t-160.5 -324.5q-21 -81 -18.5 -157.5t22 -135t66.5 -94t114 -35.5z" />
    <glyph glyph-name="emptyset" unicode="&#x2205;" horiz-adv-x="1288" 
d="M61 -156l222 240q-85 72 -117 183t-2 241q51 218 238 370t405 152q154 0 268 -86l209 225h51l-229 -251q74 -74 101 -179t-1 -231q-33 -143 -130.5 -263t-233 -189.5t-277.5 -69.5q-138 0 -241 67l-191 -209h-72zM319 123l721 782q-105 78 -243 78q-198 0 -369 -138.5
t-217 -336.5q-27 -118 2.5 -218.5t105.5 -166.5zM578 33q196 0 365.5 138.5t215.5 336.5q25 114 1.5 208.5t-89.5 160.5l-713 -785q94 -59 220 -59z" />
    <glyph glyph-name="product" unicode="&#x220f;" horiz-adv-x="1288" 
d="M137 -240l350 1524h-165l34 150h1043l-35 -150h-154l-350 -1524h-67l350 1524h-588l-350 -1524h-68z" />
    <glyph glyph-name="summation" unicode="&#x2211;" horiz-adv-x="1128" 
d="M-35 -285l29 127l704 733l-364 734l28 125h883l-28 -125h-793l332 -676l-27 -115l-647 -678h795l-29 -125h-883z" />
    <glyph glyph-name="minus" unicode="&#x2212;" horiz-adv-x="1124" 
d="M156 639l16 68h879l-17 -68h-878z" />
    <glyph glyph-name="radical" unicode="&#x221a;" horiz-adv-x="1437" 
d="M240 -225l-86 782h165l66 -672l881 1549h282l-80 -150h-204l-869 -1509h-155z" />
    <glyph glyph-name="infinity" unicode="&#x221e;" horiz-adv-x="1716" 
d="M1217 211q-71 0 -125 23t-91.5 68.5t-60.5 91t-47 112.5q-55 -54 -92 -88t-91.5 -77.5t-98.5 -68t-98.5 -42t-106.5 -17.5q-164 0 -227 121q-55 105 -13 252q43 148 159 246q122 103 279 102q66 -1 116.5 -23t84.5 -64.5t55.5 -85.5t42.5 -106q57 54 91.5 85.5t88.5 74
t95.5 65t93.5 39t102 15.5q163 -1 231 -124q60 -107 25 -254q-36 -149 -147 -246q-114 -99 -266 -99zM418 346q56 0 112.5 20.5t116 63t103.5 81t110 101.5q-19 54 -32 87t-36 74t-47.5 63.5t-61 38.5t-81.5 16q-162 0 -273 -120q-88 -93 -100 -210q-13 -115 58 -174
q50 -41 131 -41zM1217 256q161 0 264 118q82 93 88 210q6 116 -69 176q-55 44 -142 43q-53 -1 -106.5 -20.5t-109.5 -60t-99.5 -78.5t-104.5 -97q21 -67 40 -111t51 -89.5t79 -68t109 -22.5z" />
    <glyph glyph-name="integral" unicode="&#x222b;" horiz-adv-x="1093" 
d="M-51 -254l6 27q69 -12 128.5 10t108.5 85t86.5 128t77.5 181.5t65 199t65 225.5q42 150 65 227.5t68.5 211t82 204.5t95 160.5t118 130t139.5 62.5t171 4l-4 -25q-175 46 -303 -161q-87 -141 -187 -480q-16 -54 -48 -165q-106 -369 -173 -533q-139 -346 -322 -448
q-108 -60 -239 -44z" />
    <glyph glyph-name="approxequal" unicode="&#x2248;" horiz-adv-x="1128" 
d="M190 811l19 78q72 54 141 69.5t126.5 0.5t114.5 -42.5l114 -55t114.5 -42.5t126.5 0.5t141 69.5l-18 -78q-72 -54 -141 -69.5t-126.5 -0.5t-114.5 42.5t-114.5 55t-115 42.5t-126.5 -0.5t-141 -69.5zM123 502l18 78q72 54 141 69.5t126.5 0.5t114.5 -42.5t114.5 -55
t115 -42.5t126.5 0.5t141 69.5l-19 -78q-72 -54 -141 -69.5t-126.5 -0.5t-114.5 42.5l-114 55t-114.5 42.5t-126.5 -0.5t-141 -69.5z" />
    <glyph glyph-name="notequal" unicode="&#x2260;" horiz-adv-x="1124" 
d="M174 0l322 481h-369l16 68h398l161 242h-503l16 67h533l280 422h68l-281 -422h279l-17 -67h-307l-162 -242h414l-16 -68h-443l-321 -481h-68z" />
    <glyph glyph-name="lessequal" unicode="&#x2264;" horiz-adv-x="1028" 
d="M858 262l-692 391l27 115l872 391l-18 -84l-818 -364l650 -365zM45 127l14 68h783l-15 -68h-782z" />
    <glyph glyph-name="greaterequal" unicode="&#x2265;" horiz-adv-x="1028" 
d="M76 262l20 84l817 365l-649 364l19 84l692 -391l-27 -115zM45 127l14 68h783l-15 -68h-782z" />
    <glyph glyph-name="lozenge" unicode="&#x25ca;" horiz-adv-x="1021" 
d="M362 -8l-198 577l465 578h112l199 -580l-465 -575h-113zM428 41l426 526l-180 531l-426 -529z" />
    <glyph glyph-name="A.ss01" unicode="&#xe000;" horiz-adv-x="1681" 
d="M643 -18q-109 0 -196 29t-145 80.5t-96.5 120.5t-53.5 151.5t-12.5 170t22.5 179.5q40 173 129 316.5t204.5 235.5t248.5 141.5t266 47.5q167 -3 269 -76t155 -211l61 267h168l-332 -1434h-168l68 291q-111 -148 -263 -228.5t-325 -80.5zM719 49q55 2 115 20t135 65.5
t140 119.5t125.5 193.5t96.5 275.5v4q26 111 30.5 205.5t-9 161.5t-40.5 120t-61 86t-74.5 54.5t-77.5 30.5t-73 10q-130 4 -243.5 -45.5t-198 -141.5t-144.5 -213.5t-94 -267.5q-18 -79 -24 -157.5t1.5 -157t35 -144.5t72.5 -117t118.5 -78t169.5 -24z" />
    <glyph glyph-name="E.ss01" unicode="&#xe001;" horiz-adv-x="1916" 
d="M799 -20q-229 3 -386 94t-218 257.5t-11 383.5q33 142 105 263.5t167.5 207.5t209.5 147.5t233.5 91t237.5 29.5q148 0 272 -46t213.5 -138t120 -231t-9.5 -326h-1366q-23 -115 -21 -217.5t38.5 -188t97 -147.5t153.5 -95.5t209 -31.5q421 7 659 344l74 -35
q-151 -186 -350.5 -275.5t-427.5 -86.5zM381 768h1180q26 160 3 279.5t-88.5 199t-156.5 119t-199 39.5q-110 0 -221 -41t-212 -118.5t-182.5 -201t-123.5 -276.5z" />
    <glyph glyph-name="K.ss01" unicode="&#xe002;" horiz-adv-x="1443" 
d="M1178 -20q-55 -10 -102 -7.5t-83.5 8t-67.5 21.5t-54 33t-42.5 42.5t-34 50t-27 56t-22 60t-20.5 62.5q-12 38 -18.5 57.5t-20 55t-24.5 54.5t-29.5 48t-37 44.5t-45.5 34.5t-57 28t-69 15.5t-84 5.5l-150 -649h-167l329 1434h168l-162 -705l1022 705h88l-1036 -715
q112 -4 197 -32.5t136.5 -73t87.5 -101t56 -117t36 -120t32 -111t40 -89.5t65.5 -55.5t101.5 -9.5z" />
    <glyph glyph-name="M.ss01" unicode="&#xe003;" horiz-adv-x="2301" 
d="M16 0l332 1434h168l-74 -314q63 91 145.5 160.5t167 110t170.5 55.5t158.5 3t129.5 -54t85 -109q28 -65 15 -186q62 94 144.5 167.5t168 116.5t174 60t163 5.5t132.5 -53t86 -110.5q17 -40 18 -100t-8.5 -123.5t-29.5 -151.5l-211 -911h-168l213 926q14 59 21.5 96.5
t13.5 80.5t4.5 76t-9.5 60q-36 109 -150 130q-122 21 -268 -64q-165 -96 -268 -279q-60 -107 -88 -231l-184 -795h-168l213 926q14 61 21.5 96.5t14 80t5 77t-9.5 59.5q-36 109 -150 130q-122 21 -268 -64q-165 -96 -268 -279q-60 -107 -88 -231l-185 -795h-168z" />
    <glyph glyph-name="N.ss01" unicode="&#xe004;" horiz-adv-x="1521" 
d="M16 0l332 1434h168l-80 -347q87 122 199 209q143 111 307 146.5t290 -16t161 -177.5q37 -124 -23 -375l-201 -874h-168l205 889q51 219 29 313q-19 86 -80.5 132.5t-142.5 48.5t-174 -33t-176 -103q-107 -84 -186 -203.5t-109 -248.5l-183 -795h-168z" />
    <glyph glyph-name="Q.ss01" unicode="&#xe005;" horiz-adv-x="1949" 
d="M1487 -205l-404 219q-124 -34 -260 -34q-150 0 -277.5 46t-220.5 138t-126 230t6 321q33 142 105.5 263.5t169 207.5t211.5 147.5t236 91t240 29.5q151 0 279.5 -47t220.5 -140t125.5 -231t-6.5 -321q-39 -166 -131.5 -303t-213 -226.5t-265.5 -142.5l385 -121zM840 35
q178 0 338 87t272 241.5t158 351.5q36 148 17.5 273.5t-77 216.5t-161 142.5t-234.5 51.5q-266 0 -484 -194.5t-286 -489.5q-36 -148 -17.5 -273t77 -215.5t161.5 -141t236 -50.5z" />
    <glyph glyph-name="R.ss01" unicode="&#xe006;" horiz-adv-x="1533" 
d="M1212 -23q-92 -11 -157.5 2t-101.5 37.5t-58.5 72t-30.5 87t-17 101.5q-9 67 -15.5 101t-29 87.5t-55 80t-93 47.5t-144.5 21h-178l-142 -614h-167l329 1434h600q269 0 393 -107.5t78 -302.5q-43 -186 -202 -292.5t-410 -117.5q82 -31 135 -83.5t73.5 -110t30 -120
t14 -117t16.5 -98t45.5 -66t93.5 -17.5zM344 664h432q197 0 311.5 88t157.5 272t-31.5 272t-271.5 88h-432z" />
    <glyph glyph-name="T_h" unicode="&#xe007;" horiz-adv-x="2357" 
d="M502 0l319 1378h-524l12 56h1364l-178 -768q114 149 240 213q123 63 247 63q170 0 232.5 -99.5t11.5 -324.5l-121 -518h-168l121 518q44 195 14 277t-145 82q-60 0 -129.5 -28.5t-138 -81t-127 -138.5t-88.5 -189l-103 -440h-167l319 1378h-504l-319 -1378h-168z" />
    <glyph glyph-name="c_b" unicode="&#xe008;" horiz-adv-x="2355" 
d="M1702 -20q-120 0 -194 48t-111 148l-41 -176h-168l262 1137q35 149 -48 219q-66 56 -168 36q-108 -21 -177 -113q-42 -55 -58 -126q-8 -35 -9 -72.5t4.5 -71t12.5 -63.5t18.5 -57.5t19.5 -45.5t16.5 -35.5t9.5 -19.5l27 -59l-107 -51q-9 109 -75 162t-177 53
q-140 0 -261.5 -107t-168.5 -307q-49 -211 21 -322.5t223 -111.5q227 0 360 215l66 -35q-195 -241 -475 -241q-94 0 -173.5 30t-137 90t-77 149.5t6.5 209.5q27 115 91 208.5t148.5 151.5t179.5 88.5t191 30.5q123 0 203 -45q-27 131 -2 244q20 89 72.5 157.5t119.5 105.5
t145 47.5t149 -7t132 -67t93 -124.5l-117 -505q176 199 401 196q102 -1 177.5 -38.5t114.5 -102.5t50.5 -153t-14.5 -189q-21 -93 -68.5 -177.5t-116.5 -153t-165.5 -109.5t-204.5 -41zM1675 43q98 0 185.5 65.5t141.5 160.5t79 202q14 63 17.5 122.5t-7 114t-35 95
t-69 64.5t-105.5 24q-33 0 -72.5 -11.5t-89.5 -42t-95 -75t-88.5 -118.5t-70.5 -165l-10 -47q-11 -83 -9 -144t22 -104.5t43 -70.5t55 -42.5t57.5 -21.5t50.5 -6z" />
    <glyph glyph-name="c_h" unicode="&#xe009;" horiz-adv-x="2371" 
d="M504 -16q-94 0 -173.5 30t-137 90t-77 149.5t6.5 209.5q27 115 91 208.5t148.5 151.5t179.5 88.5t191 30.5q120 0 203 -45q-28 136 -4 244q21 89 73.5 157.5t120 105.5t145.5 47.5t149 -7t132 -67t93 -124.5l-136 -587q114 149 240 213q123 63 248 63q170 0 231.5 -99.5
t9.5 -324.5l-118 -518h-168l119 518q46 195 16.5 277t-145.5 82q-60 0 -129.5 -28.5t-138.5 -81t-128 -138.5t-90 -189l-100 -440h-168l262 1137q34 149 -49 219q-66 56 -168 36q-108 -21 -177 -114q-41 -54 -57 -125q-10 -41 -9.5 -85.5t7 -79.5t19 -72.5t22 -58.5
t21.5 -44.5t12 -24.5l27 -59l-109 -51q-7 109 -73 162t-177 53q-140 0 -261.5 -107t-168.5 -307q-49 -211 21 -322.5t223 -111.5q227 0 360 215l66 -35q-195 -241 -475 -241z" />
    <glyph glyph-name="c_k" unicode="&#xe00a;" horiz-adv-x="2361" 
d="M504 -16q-94 0 -173.5 30t-137 90t-77 149.5t6.5 209.5q27 115 91 208.5t148.5 151.5t179.5 88.5t191 30.5q120 0 203 -45q-28 136 -4 244q21 89 73.5 157.5t120 105.5t145.5 47.5t149 -7t132 -67t93 -124.5l-213 -921l800 590h84l-575 -424l356 -498h-233l-277 383
l-172 -127l-59 -256h-168l262 1137q34 149 -49 219q-66 56 -168 36q-108 -21 -177 -114q-41 -54 -57 -125q-10 -41 -9.5 -85.5t7 -79.5t19 -72.5t22 -58.5t21.5 -44.5t12 -24.5l27 -59l-109 -51q-7 109 -73 162t-177 53q-140 0 -261.5 -107t-168.5 -307q-49 -211 21 -322.5
t223 -111.5q227 0 360 215l66 -35q-195 -241 -475 -241z" />
    <glyph glyph-name="c_l" unicode="&#xe00b;" horiz-adv-x="1705" 
d="M504 -16q-94 0 -173.5 30t-137 90t-77 149.5t6.5 209.5q27 115 91 208.5t148.5 151.5t179.5 88.5t191 30.5q120 0 203 -45q-28 136 -4 244q21 89 75 157.5t123.5 105.5t150.5 47.5t154 -7t135.5 -67t94.5 -124.5l-289 -1253h-168l262 1137q34 148 -52 218q-69 57 -175 38
q-112 -21 -184 -112q-43 -56 -60 -128q-10 -41 -9.5 -85.5t7 -79.5t19 -72.5t22 -58.5t21.5 -44.5t12 -24.5l27 -59l-109 -51q-7 109 -73 162t-177 53q-140 0 -261.5 -107t-168.5 -307q-49 -211 21 -322.5t223 -111.5q227 0 360 215l66 -35q-195 -241 -475 -241z" />
    <glyph glyph-name="c_t" unicode="&#xe00c;" horiz-adv-x="1847" 
d="M1391 -23q-101 0 -131 63.5t2 199.5l145 626h-104l12 56h104l49 215q34 147 -50 218q-69 57 -175 38q-112 -21 -184 -112q-43 -56 -60 -128q-8 -35 -9 -72.5t4.5 -71t12.5 -63.5t18.5 -57.5t19.5 -45.5t16.5 -35.5t9.5 -19.5l27 -59l-107 -51q-9 109 -75 162t-177 53
q-140 0 -261.5 -107t-168.5 -307q-49 -211 21 -322.5t223 -111.5q227 0 362 215l66 -35q-195 -241 -477 -241q-94 0 -173.5 30t-137 90t-77 149.5t6.5 209.5q27 115 91 208.5t148.5 151.5t179.5 88.5t191 30.5q123 0 203 -45q-27 131 -2 244q20 89 74 157.5t123 105.5
t149.5 47.5t153.5 -7t135 -67t94 -124.5l-76 -331h223l-12 -56h-223l-119 -516q-6 -27 -20 -80t-19 -77q-10 -41 -13.5 -68.5t-1.5 -50.5t14.5 -34t35.5 -11q66 0 152 86l18 -19q-113 -119 -231 -119z" />
    <glyph glyph-name="f_b" unicode="&#xe00d;" horiz-adv-x="1708" 
d="M1055 -20q-120 0 -194 48t-111 148l-41 -176h-168l276 1196q22 94 -11.5 142t-100.5 48q-100 0 -179.5 -74t-112 -182t-10.5 -208h211l-12 -56h-215l-205 -866h-168l205 866h-104l12 56h104l17 69q48 210 186 336.5t324 126.5q172 0 264 -102l-141 -604q176 199 401 196
q102 -1 177.5 -38.5t114.5 -102.5t50.5 -153t-14.5 -189q-21 -93 -68.5 -177.5t-116.5 -153t-165.5 -109.5t-204.5 -41zM1028 43q98 0 185.5 65.5t141.5 160.5t79 202q14 63 17.5 122.5t-7 114t-35 95t-69 64.5t-105.5 24q-33 0 -72.5 -11.5t-89.5 -42t-95 -75t-88.5 -118.5
t-70.5 -165l-10 -47q-13 -71 -9 -126t14 -96t31 -70.5t43 -48t49 -29.5t48.5 -15t42.5 -4z" />
    <glyph glyph-name="f_h" unicode="&#xe010;" horiz-adv-x="1724" 
d="M14 0l205 866h-104l12 56h104l17 69q48 210 186 336.5t324 126.5q81 0 150 -26t112 -76l-158 -684q112 145 240 211q123 63 248 63q170 0 231.5 -99.5t9.5 -324.5l-118 -518h-168l118 518q46 195 16.5 277t-145.5 82q-60 0 -129.5 -28.5t-138 -81t-127 -138.5t-88.5 -189
l-102 -440h-168l276 1196q22 94 -11.5 142t-100.5 48q-100 0 -179.5 -74t-112 -182t-10.5 -208h211l-12 -56h-215l-205 -866h-168z" />
    <glyph glyph-name="f_j" unicode="&#xe012;" horiz-adv-x="1042" 
d="M289 -440l2 16q44 0 79.5 16t61.5 46t47 69t36.5 87.5t28.5 99.5t26 108q1 4 1 6l199 858h-383l-205 -866h-168l205 866h-104l12 56h104l21 86q47 206 174.5 328t298.5 130q114 5 209.5 -54t105.5 -155q6 -18 0 -43q-11 -44 -50 -76t-83 -32q-43 0 -68 30.5t-16 73.5
q17 92 -17 142.5t-112 48.5q-103 -1 -182.5 -83t-108.5 -204q-25 -109 3 -192h544l-235 -1024q-47 -203 -138.5 -274.5t-287.5 -63.5z" />
    <glyph glyph-name="f_k" unicode="&#xe013;" horiz-adv-x="1714" 
d="M14 0l205 866h-104l12 56h104l17 69q48 210 186 336.5t324 126.5q81 0 150 -26t112 -76l-236 -1020l801 590h84l-575 -424l356 -498h-233l-277 383l-172 -127l-59 -256h-168l276 1196q22 94 -11.5 142t-100.5 48q-100 0 -179.5 -74t-112 -182t-10.5 -208h211l-12 -56
h-215l-205 -866h-168z" />
    <glyph glyph-name="f_t" unicode="&#xe015;" horiz-adv-x="1181" 
d="M725 -23q-101 0 -131 63.5t2 199.5l145 626h-354l-205 -866h-168l205 866h-104l12 56h104l17 69q48 210 186 336.5t324 126.5q172 0 264 -102l-100 -430h223l-12 -56h-224l-118 -516q-6 -27 -20 -80t-19 -77q-9 -41 -13 -68.5t-1.5 -50.5t15 -34t35.5 -11q64 0 150 86
l18 -19q-113 -119 -231 -119zM403 922h351l63 274q22 94 -10.5 142t-99.5 48q-100 0 -180 -74t-113 -182t-11 -208z" />
    <glyph glyph-name="s_b" unicode="&#xe016;" horiz-adv-x="2297" 
d="M430 -20q-95 0 -174.5 21t-134.5 66.5t-64 108.5l107 19q1 -77 83 -118.5t199 -41.5q120 0 202 46.5t104 143.5q10 43 -12.5 73t-67 44t-103 26.5t-121 21t-119 28.5t-98.5 47.5t-59.5 79t-1.5 121.5q21 88 101.5 152.5t184.5 94t216 29.5q123 0 213 -35q-26 122 0 234
q20 89 73 157.5t121 105.5t146 47.5t148.5 -7t128.5 -67t85 -124.5l-117 -505q176 199 402 196q102 -1 177.5 -38.5t114.5 -102.5t50.5 -153t-14.5 -189q-21 -93 -68.5 -177.5t-116.5 -153t-165.5 -109.5t-204.5 -41q-120 0 -194.5 48t-111.5 148l-41 -176h-168l263 1137
q35 149 -47 220q-64 55 -164 35q-107 -21 -175 -113q-41 -55 -57 -126q-9 -52 -8 -94t13.5 -87.5t25 -76t25.5 -59.5t16 -39q12 -31 14 -52l-104 -18q-1 77 -76.5 120.5t-187.5 43.5q-81 0 -146 -17.5t-114.5 -62t-65.5 -113.5q-11 -50 19 -81.5t87 -47t127 -27t139 -29
t123 -44.5t79.5 -81t7.5 -132q-21 -90 -99.5 -154t-180.5 -93t-214 -29zM1618 43q75 0 143.5 37.5t119.5 100t87.5 137t54.5 153.5q15 63 18 122.5t-7.5 114t-34.5 95t-68.5 64.5t-105.5 24q-33 0 -72.5 -11.5t-89.5 -42t-95 -75t-88.5 -118.5t-70.5 -165l-10 -47
q-11 -83 -9 -144t22 -104.5t43 -70.5t55 -42.5t57.5 -21.5t50.5 -6z" />
    <glyph glyph-name="s_h" unicode="&#xe017;" horiz-adv-x="2314" 
d="M430 -20q-95 0 -174.5 21t-134.5 66.5t-64 108.5l107 19q1 -77 83 -118.5t199 -41.5q120 0 202 46.5t104 143.5q10 43 -12.5 73t-67 44t-103 26.5t-121 21t-119 28.5t-98.5 47.5t-59.5 79t-1.5 121.5q21 88 101.5 152.5t184.5 94t216 29.5q123 0 213 -35q-26 122 0 234
q20 89 73 157.5t121 105.5t146 47.5t148.5 -7t128.5 -67t85 -124.5l-135 -587q114 149 240 213q123 63 247 63q170 0 232.5 -99.5t11.5 -324.5l-121 -518h-168l121 518q44 195 14 277t-145 82q-60 0 -129 -28t-137.5 -80t-127 -138t-89.5 -191l-103 -440h-168l263 1137
q35 149 -47 220q-64 55 -164 35q-107 -21 -175 -113q-41 -55 -57 -126q-9 -52 -8 -94t13.5 -87.5t25 -76t25.5 -59.5t16 -39q12 -31 14 -52l-104 -18q-1 77 -76.5 120.5t-187.5 43.5q-81 0 -146 -17.5t-114.5 -62t-65.5 -113.5q-11 -50 19 -81.5t87 -47t127 -27t139 -29
t123 -44.5t79.5 -81t7.5 -132q-21 -90 -99.5 -154t-180.5 -93t-214 -29z" />
    <glyph glyph-name="s_k" unicode="&#xe018;" horiz-adv-x="2304" 
d="M430 -20q-95 0 -174.5 21t-134.5 66.5t-64 108.5l107 19q1 -77 83 -118.5t199 -41.5q120 0 202 46.5t104 143.5q10 43 -12.5 73t-67 44t-103 26.5t-121 21t-119 28.5t-98.5 47.5t-59.5 79t-1.5 121.5q21 88 101.5 152.5t184.5 94t216 29.5q123 0 213 -35q-26 122 0 234
q20 89 73 157.5t121 105.5t146 47.5t148.5 -7t128.5 -67t85 -124.5l-213 -921l801 590h84l-576 -424l357 -498h-234l-276 383l-172 -127l-60 -256h-168l263 1137q35 149 -47 220q-64 55 -164 35q-107 -21 -175 -113q-41 -55 -57 -126q-9 -52 -8 -94t13.5 -87.5t25 -76
t25.5 -59.5t16 -39q12 -31 14 -52l-104 -18q-1 77 -76.5 120.5t-187.5 43.5q-81 0 -146 -17.5t-114.5 -62t-65.5 -113.5q-11 -50 19 -81.5t87 -47t127 -27t139 -29t123 -44.5t79.5 -81t7.5 -132q-21 -90 -99.5 -154t-180.5 -93t-214 -29z" />
    <glyph glyph-name="s_l" unicode="&#xe019;" horiz-adv-x="1648" 
d="M430 -20q-95 0 -174.5 21t-134.5 66.5t-64 108.5l107 19q1 -77 83 -118.5t199 -41.5q120 0 202 46.5t104 143.5q10 43 -12.5 73t-67 44t-103 26.5t-121 21t-119 28.5t-98.5 47.5t-59.5 79t-1.5 121.5q21 88 101.5 152.5t184.5 94t216 29.5q123 0 213 -35q-26 122 0 234
q20 89 75 157.5t125 105.5t151 47.5t153 -7t132 -67t87 -124.5l-289 -1253h-168l262 1137q35 148 -50 219q-67 56 -171 37q-111 -21 -182 -112q-43 -56 -60 -128q-9 -52 -8 -94t13.5 -87.5t25 -76t25.5 -59.5t16 -39q12 -31 14 -52l-104 -18q-1 77 -76.5 120.5t-187.5 43.5
q-81 0 -146 -17.5t-114.5 -62t-65.5 -113.5q-11 -50 19 -81.5t87 -47t127 -27t139 -29t123 -44.5t79.5 -81t7.5 -132q-21 -90 -99.5 -154t-180.5 -93t-214 -29z" />
    <glyph glyph-name="s_t" unicode="&#xe01a;" horiz-adv-x="1798" 
d="M1341 -23q-101 0 -131 63.5t2 199.5l146 626h-105l13 56h104l49 215q34 147 -50 218q-69 57 -175 38q-112 -21 -184 -112q-43 -56 -60 -128q-9 -52 -8 -94t13.5 -87.5t25 -76t25.5 -59.5t16 -39q12 -31 14 -52l-104 -18q-1 77 -76.5 120.5t-187.5 43.5q-81 0 -146 -17.5
t-114.5 -62t-65.5 -113.5q-11 -50 19 -81.5t87 -47t127 -27t139 -29t123 -44.5t79.5 -81t7.5 -132q-21 -90 -99.5 -154t-180.5 -93t-214 -29q-95 0 -174.5 21t-134.5 66.5t-64 108.5l107 19q1 -77 83 -118.5t199 -41.5q119 0 201.5 46.5t106.5 143.5q10 43 -13 73t-68 44
t-103.5 26.5t-120.5 21t-119 28.5t-99 47.5t-59.5 79t-1.5 121.5q21 88 101.5 152.5t184.5 94t216 29.5q123 0 213 -35q-26 122 0 234q20 89 74 157.5t123 105.5t149.5 47.5t153.5 -7t135 -67t94 -124.5l-76 -331h223l-12 -56h-223l-119 -516q-6 -27 -20 -80t-19 -77
q-10 -41 -13.5 -68.5t-1.5 -50.5t14.5 -34t35.5 -11q65 0 151 86l19 -19q-113 -119 -232 -119z" />
    <glyph glyph-name="t_t" unicode="&#xe01b;" horiz-adv-x="1241" 
d="M205 -23q-101 0 -131 63.5t2 199.5l145 626h-104l12 56h104l76 327l183 62l-91 -389h412l109 471l182 61l-123 -532h223l-12 -56h-223l-119 -516q-6 -26 -14 -59t-13.5 -54.5t-11.5 -48t-9 -43.5t-5 -35.5t0 -30.5t6 -22.5t12.5 -16.5t20.5 -9q26 -5 68 14t93 70l19 -19
q-113 -119 -232 -119q-101 0 -131 63.5t2 199.5l146 626h-412l-119 -516q-6 -26 -14 -59t-13.5 -55l-12 -48t-9.5 -43t-5 -36t0 -31t6 -22.5t12.5 -16.5t21.5 -8q26 -5 68.5 14t93.5 70l18 -19q-113 -119 -231 -119z" />
    <glyph glyph-name="zero.dnom" unicode="&#xe01c;" horiz-adv-x="1081" 
d="M420 -254q-163 0 -236.5 148.5t-19.5 375.5q53 229 194 380t304 151q107 0 178.5 -70t90.5 -188t-13 -273q-54 -228 -194.5 -376t-303.5 -148zM426 -223q117 0 212.5 130.5t149.5 362.5q54 235 18.5 368.5t-151.5 133.5q-115 0 -211.5 -133.5t-150.5 -368.5
q-54 -232 -19 -362.5t152 -130.5z" />
    <glyph glyph-name="one.dnom" unicode="&#xe01d;" horiz-adv-x="446" 
d="M43 -250l213 922l147 119l-241 -1041h-119z" />
    <glyph glyph-name="two.dnom" unicode="&#xe01e;" horiz-adv-x="948" 
d="M43 -244q17 14 74 59t105 85t116.5 99t124 117.5t109 123t90.5 132.5t51 130q29 121 -13 184t-127 66q-88 3 -168 -51.5t-124 -176.5l-45 15q53 105 154 181.5t235 76.5q127 0 184.5 -80.5t28.5 -202.5q-15 -65 -56.5 -133t-91 -124t-126.5 -123.5t-137.5 -115
t-148.5 -114.5l-36 -27h450l-28 -121h-621z" />
    <glyph glyph-name="three.dnom" unicode="&#xe01f;" horiz-adv-x="995" 
d="M350 -250q-98 -3 -170 38t-102 122l57 33q9 -80 62 -120t135 -38q113 2 204 77.5t121 205.5q26 112 -9 179.5t-138 67.5q-14 0 -64 -4l7 29q90 10 152 77.5t79 143.5q14 62 2 129q-9 42 -44.5 64t-84.5 22q-94 0 -160 -56t-92 -159l-53 14q57 116 147 176t193 60
q51 0 94.5 -13.5t76 -42t43.5 -72t-1 -103.5q-16 -69 -68.5 -129.5t-138.5 -96.5q112 -9 162 -85.5t26 -180.5q-35 -155 -157.5 -244t-278.5 -94z" />
    <glyph glyph-name="four.dnom" unicode="&#xe020;" horiz-adv-x="876" 
d="M473 -242l68 293h-430l57 66l577 682h89l-242 -1041h-119zM182 86h367l135 586z" />
    <glyph glyph-name="five.dnom" unicode="&#xe021;" horiz-adv-x="976" 
d="M322 -248q-94 0 -160.5 41t-81.5 117l59 31q4 -77 53 -118.5t123 -41.5q58 0 118 26.5t106 75.5q76 79 102 197q33 138 -24.5 219.5t-174.5 81.5q-108 0 -239 -76l112 486h596l-28 -121h-555l-72 -308q128 64 240 64q94 0 165.5 -39.5t103.5 -113t11 -164.5
q-15 -67 -55.5 -131.5t-99.5 -114.5q-63 -54 -142 -82.5t-157 -28.5z" />
    <glyph glyph-name="six.dnom" unicode="&#xe022;" horiz-adv-x="997" 
d="M393 -246q-70 0 -123 26.5t-83 70t-45 101.5t-13.5 120.5t16.5 126.5q25 111 80.5 211t123 170t143 123t144 79.5t122.5 28.5l-6 -18q-115 -7 -240.5 -141.5t-198.5 -321.5q121 108 260 108q128 0 192 -90t32 -227q-14 -62 -50 -125.5t-87.5 -118t-122 -89t-144.5 -34.5z
M401 -217q89 0 166.5 94t112.5 242q29 129 -7 210t-122 81q-63 0 -133.5 -43t-134.5 -131l-9 -37q-43 -185 -7 -300.5t134 -115.5z" />
    <glyph glyph-name="seven.dnom" unicode="&#xe023;" horiz-adv-x="923" 
d="M166 -231q39 102 101 215t150 240t155.5 218t175.5 230h-494l29 121h596q-443 -567 -568 -1024h-145z" />
    <glyph glyph-name="eight.dnom" unicode="&#xe024;" horiz-adv-x="976" 
d="M96 -10q19 83 96.5 168.5t202.5 156.5q-65 67 -95.5 128t-14.5 126q30 127 156 196q109 59 225 45q111 -14 149 -88q26 -49 10 -116q-35 -145 -254 -266q48 -41 79.5 -73.5t61.5 -74.5t40 -86t0 -90q-31 -133 -172 -205q-126 -64 -269 -50q-136 13 -192 90
q-42 58 -23 139zM547 362q109 58 165.5 114.5t73.5 127.5q23 101 -56 150q-69 42 -167 21q-104 -23 -153 -104q-17 -28 -25 -61t0.5 -64.5t32 -60.5t50 -54t63.5 -56q11 -8 16 -13zM649 -25q7 32 -1.5 63.5t-35 64.5t-50.5 57t-65 61l-30 27q-24 19 -47 45
q-235 -128 -279 -299q-26 -105 68 -160q83 -48 206 -32q128 17 194 94q30 35 40 79z" />
    <glyph glyph-name="nine.dnom" unicode="&#xe025;" horiz-adv-x="997" 
d="M240 -238l6 19q115 7 240 141t198 322q-122 -109 -260 -109q-128 0 -191.5 90t-31.5 228q14 62 50 125t87 117.5t121.5 89t144.5 34.5q70 0 123 -26t83 -70t45 -101.5t13.5 -120t-16.5 -126.5q-25 -111 -80 -211t-122.5 -170.5t-143 -123t-144 -79.5t-122.5 -29zM446 164
q63 0 134 43t135 131l8 37q43 185 7 300.5t-134 115.5q-89 0 -166.5 -94t-112.5 -242q-29 -129 7 -210t122 -81z" />
    <glyph glyph-name="zero.numr" unicode="&#xe026;" horiz-adv-x="1081" 
d="M420 668q-163 0 -236.5 148.5t-19.5 375.5q53 229 194 379.5t304 150.5q107 0 178.5 -69.5t90.5 -187.5t-13 -273q-54 -228 -194.5 -376t-303.5 -148zM426 698q117 0 212.5 131t149.5 363q54 235 18.5 368.5t-151.5 133.5q-115 0 -211.5 -133.5t-150.5 -368.5
q-54 -232 -19 -363t152 -131z" />
    <glyph glyph-name="one.numr" unicode="&#xe027;" horiz-adv-x="446" 
d="M43 684l213 922l147 118l-241 -1040h-119z" />
    <glyph glyph-name="two.numr" unicode="&#xe028;" horiz-adv-x="948" 
d="M43 698q17 14 74 59t105 85t116.5 99t124 117.5t109 123t90.5 132.5t51 130q29 121 -13 184t-127 66q-88 3 -168 -51.5t-124 -176.5l-45 15q53 105 154 181.5t235 76.5q127 0 184.5 -80.5t28.5 -202.5q-15 -65 -56.5 -133t-91 -124t-126.5 -123.5t-137.5 -115
t-148.5 -114.5l-36 -27h450l-28 -121h-621z" />
    <glyph glyph-name="three.numr" unicode="&#xe029;" horiz-adv-x="995" 
d="M350 674q-98 -3 -170 38t-102 122l57 32q9 -80 62 -119.5t135 -37.5q113 2 204 77.5t121 204.5q26 112 -9 180t-138 68q-14 0 -64 -4l7 29q90 10 152 77.5t79 143.5q14 62 2 129q-9 42 -44.5 64t-84.5 22q-94 0 -160 -56t-92 -159l-53 14q57 116 147 176t193 60
q109 0 174 -59.5t39 -172.5q-16 -69 -68.5 -129t-138.5 -96q112 -9 162 -85.5t26 -180.5q-35 -155 -157.5 -244t-278.5 -94z" />
    <glyph glyph-name="four.numr" unicode="&#xe02a;" horiz-adv-x="876" 
d="M473 692l68 293h-430l57 66l577 682h89l-242 -1041h-119zM182 1020h367l135 586z" />
    <glyph glyph-name="five.numr" unicode="&#xe02b;" horiz-adv-x="976" 
d="M322 680q-94 0 -160.5 41t-81.5 117l59 30q4 -77 53 -118t123 -41q58 0 118 26.5t106 75.5q76 79 102 197q33 138 -24.5 219.5t-174.5 81.5q-108 0 -239 -76l112 485h596l-28 -121h-555l-72 -307q128 64 240 64q70 0 129 -23t97.5 -65t54.5 -101t-1 -129
q-32 -140 -155 -245q-63 -54 -142 -82.5t-157 -28.5z" />
    <glyph glyph-name="six.numr" unicode="&#xe02c;" horiz-adv-x="997" 
d="M393 664q-70 0 -123 26t-83 70t-45 101.5t-13.5 120t16.5 126.5q25 111 80.5 211t123 170t143 123t144 79.5t122.5 28.5l-6 -18q-115 -7 -240.5 -141.5t-198.5 -321.5q122 109 260 109q128 0 192 -90t32 -228q-14 -62 -50 -125t-87.5 -117.5t-122 -89t-144.5 -34.5z
M401 692q89 0 166.5 94t112.5 242q29 129 -7 210t-122 81q-63 0 -133.5 -43t-134.5 -131l-9 -37q-43 -184 -7 -300t134 -116z" />
    <glyph glyph-name="seven.numr" unicode="&#xe02d;" horiz-adv-x="923" 
d="M166 678q39 102 101 215t150 240t155.5 218t175.5 230h-494l29 121h596q-443 -567 -568 -1024h-145z" />
    <glyph glyph-name="eight.numr" unicode="&#xe02e;" horiz-adv-x="976" 
d="M96 885q19 83 96.5 168.5t202.5 156.5q-65 67 -95.5 128t-14.5 126q30 127 156 196q109 59 225 45q111 -14 149 -88q26 -49 10 -116q-35 -145 -254 -266q48 -41 79.5 -73.5t61.5 -74.5t40 -86t0 -90q-31 -133 -172 -205q-126 -64 -269 -50q-136 13 -192 90
q-42 58 -23 139zM547 1257q109 58 165.5 114.5t73.5 127.5q23 101 -56 150q-69 42 -167 21q-104 -23 -153 -104q-17 -28 -25 -61t0.5 -64.5t32 -60.5t50 -54t63.5 -56q11 -8 16 -13zM649 870q7 32 -1.5 63.5t-35 64.5t-50.5 57t-65 61l-30 27q-24 19 -47 45
q-235 -128 -279 -299q-26 -105 68 -160q83 -48 206 -32q128 17 194 94q30 35 40 79z" />
    <glyph glyph-name="nine.numr" unicode="&#xe02f;" horiz-adv-x="997" 
d="M240 645l6 19q115 7 240 141t198 321q-121 -108 -260 -108q-128 0 -191.5 89.5t-31.5 227.5q14 62 50 125.5t87 118t121.5 89t144.5 34.5q70 0 123 -26.5t83 -70t45 -101.5t13.5 -120.5t-16.5 -126.5q-25 -111 -80 -211t-122.5 -170t-143 -123t-144 -79.5t-122.5 -28.5z
M446 1047q63 0 134 43t135 131l8 36q43 185 7 300.5t-134 115.5q-89 0 -166.5 -94t-112.5 -242q-29 -129 7 -209.5t122 -80.5z" />
    <glyph glyph-name="ampersand.ss01" unicode="&#xe030;" horiz-adv-x="1466" 
d="M510 -20q-250 -8 -364 123q-91 105 -65 258q27 156 160 283q118 112 287 163l-151 240q16 119 98 214.5t196 145t234 49.5q70 0 126.5 -16.5t103.5 -53t74 -104t28 -160.5l-82 -16q20 163 -53.5 240t-216.5 65q-125 -11 -224.5 -110t-121.5 -234l503 -788
q111 154 144 403h61q-58 -273 -184 -436l156 -246h-177l-86 135q-178 -147 -446 -155zM582 51q212 8 354 117l-381 600q-67 -24 -123 -64t-94.5 -88t-65 -103.5t-33.5 -111t-2 -108.5t32 -98t67.5 -78.5t104 -51t141.5 -14.5z" />
    <glyph glyph-name="a.ss01" unicode="&#xe082;" horiz-adv-x="1210" 
d="M334 -25q-137 0 -213.5 72t-46.5 197q17 74 74 131.5t134 93t186.5 60.5t210.5 37t228 20l2 4q68 295 -235 295q-109 0 -200.5 -43.5t-135.5 -136.5l-109 12q69 108 200 166.5t273 58.5q94 0 170 -22.5t129 -66.5t73.5 -114t0.5 -159l-135 -580h-168l37 160
q-103 -91 -232 -138t-243 -47zM418 55q90 0 203 48.5t208 142.5l66 282q-106 -6 -187 -15.5t-163.5 -30t-139 -50t-98 -77.5t-55.5 -111q-22 -91 26.5 -140t139.5 -49z" />
    <glyph glyph-name="b.ss01" unicode="&#xe083;" horiz-adv-x="1228" 
d="M455 -23q-227 0 -320 145.5t-33 401.5l209 910h168l-157 -686q172 196 395 196q103 0 179 -37t115 -102.5t50.5 -153.5t-14.5 -190q-52 -229 -211.5 -356.5t-380.5 -127.5zM465 43q62 0 120 24.5t103 65.5t82 95.5t62.5 115t39.5 123.5q21 81 17.5 157t-24 135.5
t-70.5 95.5t-121 36q-35 0 -77.5 -13t-95 -47.5t-99.5 -85.5t-89.5 -135.5t-66.5 -189.5l-6 -27q-38 -169 27.5 -259.5t197.5 -90.5z" />
    <glyph glyph-name="d.ss01" unicode="&#xe085;" horiz-adv-x="1308" 
d="M504 -23q-223 -6 -326.5 127t-52.5 357q49 210 199.5 346.5t357.5 136.5q219 0 305 -196l158 686h168l-209 -910q-57 -241 -211.5 -391t-388.5 -156zM514 35q131 0 242 98t151 273l4 14q27 109 20.5 189.5t-28 134.5t-59 86.5t-73.5 46.5t-71 14q-72 0 -138.5 -35.5
t-116 -96t-85.5 -135.5t-55 -157q-21 -91 -21 -166.5t21 -136.5t74 -95t135 -34z" />
    <glyph glyph-name="f.ss01" unicode="&#xe087;" horiz-adv-x="579" 
d="M16 -18l205 884h-104l12 56h104l17 69q19 85 44 153t67.5 133t96.5 105t133 57.5t175 2.5l-8 -39q-61 11 -114 -0.5t-90.5 -40t-68.5 -69.5t-48 -89t-28.5 -98.5t-9.5 -97.5t7 -86h210l-12 -56h-215l-205 -884h-168z" />
    <glyph glyph-name="g.ss01" unicode="&#xe088;" horiz-adv-x="1288" 
d="M356 -498q-85 0 -153 12t-121.5 37t-77 70.5t-10.5 106.5q31 145 221 192q-61 25 -85.5 72.5t-12.5 103.5q14 62 70.5 115t146.5 78q-104 46 -147 128.5t-21 176.5q16 67 62.5 128t118.5 111t177.5 79.5t227.5 29.5q170 0 278 -59l234 174l53 -88l-244 -113
q68 -50 93.5 -120.5t7.5 -145.5q-12 -53 -43.5 -103t-83.5 -94.5t-118 -78t-153.5 -53t-185.5 -19.5q-92 0 -164 16q-90 -3 -145 -38t-66 -85q-6 -25 2 -40t36.5 -21t50 -7t71.5 -1h26h279q88 0 154.5 -14t105 -38.5t61 -57t24 -70.5t-6.5 -79q-36 -146 -203 -225.5
t-459 -79.5zM602 301q155 0 261.5 86.5t135.5 204.5q28 117 -39.5 204t-222.5 87q-156 0 -261 -85t-134 -202q-18 -76 2.5 -142t87 -109.5t170.5 -43.5zM385 -434q207 0 332.5 41.5t156.5 116.5q6 12 9 24q16 65 -40.5 107.5t-178.5 42.5h-281q-138 0 -226 -43t-108 -125
q-20 -86 74 -125t262 -39z" />
    <glyph glyph-name="k.ss01" unicode="&#xe08c;" horiz-adv-x="1189" 
d="M-2 0l332 1434h168l-160 -689q92 97 207.5 147t228.5 50q169 0 254.5 -76.5t52.5 -222.5q-57 -245 -411 -313l237 -330h-233l-219 305q-33 -2 -101 -2q-77 0 -116 2l-72 -305h-168zM389 358q291 0 418 109q54 46 84 119t25 143.5t-46 108.5q-49 43 -149 43
q-105 0 -220 -68.5t-190 -187.5l-61 -263q98 -4 139 -4z" />
    <glyph glyph-name="l.ss01" unicode="&#xe08d;" horiz-adv-x="638" 
d="M184 -23q-101 0 -131 63.5t2 199.5l277 1194h168l-250 -1084q-6 -26 -14 -59t-13.5 -54.5t-11.5 -48t-9 -43.5t-5 -35.5t0 -30.5t6 -22.5t12.5 -16.5t20.5 -9q26 -5 68 14t93 70l19 -19q-113 -119 -232 -119z" />
    <glyph glyph-name="p.ss01" unicode="&#xe091;" horiz-adv-x="1269" 
d="M8 -410l180 787q32 138 100 249t155.5 179t185 104t196.5 35q88 -1 162 -31.5t125.5 -91t68 -150.5t-9.5 -210q-34 -147 -129.5 -260t-212 -168.5t-231.5 -55.5q-102 0 -179.5 47.5t-111.5 139.5l-131 -574h-168zM590 43q75 0 143.5 37.5t119.5 100t87.5 137t54.5 153.5
q21 89 21.5 163t-20 132.5t-70 91.5t-125.5 33q-146 0 -261 -109.5t-153 -273.5l-2 -12q-19 -82 -22.5 -150.5t6 -114t29 -81t43 -55t52 -32t51.5 -16.5t46 -4z" />
    <glyph glyph-name="q.ss01" unicode="&#xe092;" horiz-adv-x="1183" 
d="M717 -410l133 576q-82 -101 -177.5 -145t-215.5 -41q-87 3 -154 30.5t-107.5 73.5t-64 106.5t-23 128.5t14.5 142q50 216 210.5 350t381.5 133q224 -2 319.5 -146.5t26.5 -443.5l-176 -764h-168zM512 43q34 0 70.5 8t88.5 37t97 75.5t88.5 133t69.5 199.5l6 32
q35 152 -27.5 256.5t-187.5 106.5q-81 1 -151.5 -33.5t-121.5 -94.5t-86.5 -134t-54.5 -158q-14 -63 -16.5 -123.5t10 -115.5t38.5 -97t71.5 -67t105.5 -25z" />
    <glyph glyph-name="u.ss01" unicode="&#xe096;" horiz-adv-x="1107" 
d="M442 -20q-228 0 -295.5 114.5t-11.5 354.5l109 473h168l-109 -467q-40 -178 -24 -260q29 -152 219 -152q80 0 160.5 40t134.5 110q68 89 100 227l115 502h65l-108 -471q-108 -471 -523 -471z" />
    <glyph glyph-name="w.ss01" unicode="&#xe098;" horiz-adv-x="1683" 
d="M412 -20q-197 -5 -266 107t-13 357l111 478h168l-109 -471q-50 -227 -13 -321t161 -89q119 5 214 109t136 280l112 492h168l-108 -471q-50 -227 -13.5 -321t160.5 -89q119 5 214 109t136 280l113 492h66l-109 -471q-52 -221 -168 -344t-291 -127q-142 -3 -216.5 53
t-84.5 178q-132 -225 -368 -231z" />
    <glyph glyph-name="y.ss01" unicode="&#xe09a;" horiz-adv-x="1046" 
d="M193 -408l260 408h-64l-153 920h182l129 -775l493 775h78l-850 -1328h-75z" />
    <glyph glyph-name="i.loclTRK" horiz-adv-x="495" 
d="M389 1042q-43 0 -65 29t-13 72q9 42 45.5 71.5t77.5 28.5q43 -1 65 -30t13 -70q-9 -43 -44.5 -72t-78.5 -29zM57 0l213 922h168l-213 -922h-168z" />
    <glyph glyph-name="t.ss01" horiz-adv-x="659" 
d="M418 -14q-77 -5 -135.5 -5t-98.5 14t-64 36t-33 61.5t-5 89t20 119.5l131 565h-104l12 56h105l84 368l182 62l-98 -430h223l-12 -56h-224l-108 -467q-38 -165 -43 -201q-16 -123 45 -160q43 -27 131 -20z" />
    </font>
</defs>
</svg>
