<?xml version="1.0" standalone="no"?>
<!DOCTYPE svg PUBLIC "-//W3C//DTD SVG 1.1//EN" "http://www.w3.org/Graphics/SVG/1.1/DTD/svg11.dtd" >
<svg xmlns="http://www.w3.org/2000/svg" xmlns:xlink="http://www.w3.org/1999/xlink" version="1.1">
<metadata>
Created by FontForge 20201107 at Fri Feb  7 01:08:58 2020
 By 
Pavel Larin
</metadata>
<defs>
<font id="Mansory-SemiBold" horiz-adv-x="610" >
  <font-face 
    font-family="Mansory SemiBold"
    font-weight="600"
    font-stretch="normal"
    units-per-em="1000"
    panose-1="0 0 7 0 0 0 0 0 0 0"
    ascent="800"
    descent="-200"
    x-height="459"
    cap-height="710"
    bbox="-680 -447 1273 1000"
    underline-thickness="50"
    underline-position="-100"
    unicode-range="U+0020-E09A"
  />
<missing-glyph horiz-adv-x="650" 
d="M533 -300h-412v1300h412v-1300zM218 913v-43h85v-48h-86v-43h216v43h-86v48h86v43h-215zM217 745v-135h216v44h-86v91h-130zM303 654h-43v47h43v-47zM217 575v-43h86v-48h-86v-43h130v91h86v43h-216zM390 497v-86h-173v-44h216v130h-43zM303 338v-72h44v29h43v-61h-130
v104h-43v-147h216v147h-130zM217 113v-147h216v147h-216zM390 9h-130v62h130v-62zM217 -63v-43h91l-91 -61v-43h216v43h-133l91 61h42v43h-216z" />
    <glyph glyph-name="f_f" unicode="ff" horiz-adv-x="566" 
d="M45 413h-51v47h51v32q0 108 58 171t161 63q42 0 80.5 -14.5t62.5 -34.5q25 24 60 36.5t76 12.5q50 0 94 -22.5t58 -55.5l-102 -42q-11 39 -23 53.5t-32 14.5q-36 0 -61 -37.5t-25 -92.5q0 -22 4.5 -45t12.5 -39h108v-47h-105v-422h-134v422h-159v-422h-134v422zM338 460
v32q0 55 14 98q-31 84 -93 84q-45 0 -72.5 -37.5t-27.5 -92.5q0 -22 4.5 -45t12.5 -39h162z" />
    <glyph glyph-name="f_f_i" unicode="ffi" horiz-adv-x="795" 
d="M607 413h-155v-422h-134v422h-159v-422h-134v422h-51v47h51v32q0 108 58 171t161 63q44 0 83.5 -15t61.5 -35q25 23 67.5 36.5t88.5 13.5q70 0 129.5 -30.5t73.5 -82.5q4 -11 4 -20q0 -26 -23.5 -44.5t-55.5 -18.5t-55 18t-24 43q-1 38 -19.5 60.5t-44.5 22.5
q-44 0 -71 -36.5t-27 -93.5q0 -23 4.5 -45.5t11.5 -38.5h293v-470h-134v423zM318 460v32q0 46 15 97q-34 85 -94 85q-45 0 -72.5 -37.5t-27.5 -92.5q0 -23 4.5 -45.5t11.5 -38.5h163z" />
    <glyph glyph-name="f_i" unicode="fi" horiz-adv-x="522" 
d="M334 413h-155v-422h-134v422h-51v47h51v32q0 105 56.5 167.5t157.5 66.5q43 1 88.5 -13t80 -39.5t45.5 -55.5q6 -16 6 -25q0 -26 -23.5 -44.5t-55.5 -18.5q-30 0 -53.5 17t-25.5 42q-1 39 -20 62t-46 23q-44 0 -70 -36.5t-26 -93.5q0 -22 4.5 -45t12.5 -39h292v-470h-134
v423z" />
    <glyph glyph-name="f_l" unicode="fl" horiz-adv-x="518" 
d="M320 584q0 36 -18 59.5t-42 23.5q-44 0 -71 -39.5t-27 -94.5q0 -41 14 -73h108v-47h-105v-422h-134v422h-51v47h51v24q0 108 62 172t171 64q50 0 101 -17t75 -43v-670h-134v594z" />
    <glyph glyph-name=".notdef" horiz-adv-x="650" 
d="M533 -300h-412v1300h412v-1300zM218 913v-43h85v-48h-86v-43h216v43h-86v48h86v43h-215zM217 745v-135h216v44h-86v91h-130zM303 654h-43v47h43v-47zM217 575v-43h86v-48h-86v-43h130v91h86v43h-216zM390 497v-86h-173v-44h216v130h-43zM303 338v-72h44v29h43v-61h-130
v104h-43v-147h216v147h-130zM217 113v-147h216v147h-216zM390 9h-130v62h130v-62zM217 -63v-43h91l-91 -61v-43h216v43h-133l91 61h42v43h-216z" />
    <glyph glyph-name=".null" horiz-adv-x="0" 
 />
    <glyph glyph-name="nonmarkingreturn" horiz-adv-x="333" 
 />
    <glyph glyph-name="space" unicode=" " horiz-adv-x="300" 
 />
    <glyph glyph-name="exclam" unicode="!" horiz-adv-x="263" 
d="M80 710h143l-20 -559h-104zM104 3.5q-20 18.5 -20 44.5q0 25 20 43.5t48 18.5t48 -18.5t20 -43.5q0 -26 -20 -44.5t-48 -18.5t-48 18.5z" />
    <glyph glyph-name="quotedbl" unicode="&#x22;" horiz-adv-x="336" 
d="M80 722h94l-15 -233h-64zM202 722h94l-15 -233h-64z" />
    <glyph glyph-name="numbersign" unicode="#" horiz-adv-x="845" 
d="M254 167h-174l23 54h169l49 147h-185l25 54h178l74 221h68l-74 -221l143 -1l74 222h68l-74 -222h187l-25 -53h-180l-49 -148h197l-24 -54h-191l-70 -209h-68l70 209l-143 1l-70 -210h-68zM532 368h-143l-49 -147l143 -1z" />
    <glyph glyph-name="dollar" unicode="$" horiz-adv-x="702" 
d="M326 -20q-90 8 -158 46t-88 94l82 29q37 -108 164 -121v282q-74 21 -125.5 44t-86 63.5t-34.5 101.5q0 50 31 92.5t87 70.5t128 36v72h85v-70q91 -6 160.5 -44.5t90.5 -95.5l-82 -29q-36 109 -169 122v-278q75 -22 127.5 -45.5t88 -65t35.5 -103.5q0 -51 -32 -93.5
t-89 -70.5t-130 -36v-88h-85v87zM326 669q-55 -12 -86.5 -45.5t-31.5 -79.5q0 -50 28.5 -76t89.5 -47v248zM501 75q33 34 33 82q0 51 -30 78.5t-93 48.5v-254q57 11 90 45z" />
    <glyph glyph-name="percent" unicode="%" horiz-adv-x="751" 
d="M582 653q-47 -10 -96 -10q-40 0 -98 9q31 -41 31 -92q0 -44 -22.5 -81t-61.5 -58.5t-85 -21.5t-85 21.5t-62 58.5t-23 81t23 80.5t62 58t85 21.5h2q20 0 40.5 -5t34.5 -12q49 -12 83.5 -17.5t67.5 -5.5q72 0 147 30h80l-509 -720h-83zM270 454.5q10 17.5 16.5 46
t6.5 59.5q0 36 -12.5 79.5t-29.5 43.5q-9 0 -19 -17.5t-16.5 -46t-6.5 -59.5t6.5 -59.5t16.5 -46t19 -17.5t19 17.5zM457 2.5q-39 21.5 -62 58.5t-23 81t23 80.5t62 58t85 21.5t84.5 -21.5t61.5 -58.5t23 -80q0 -44 -22.5 -81t-61.5 -58.5t-85 -21.5t-85 21.5zM562 36.5
q10 17.5 16.5 46t6.5 59.5t-6.5 59.5t-16.5 46t-19 17.5t-19 -17.5t-16.5 -46t-6.5 -59.5t6.5 -59.5t16.5 -46t19 -17.5t19 17.5z" />
    <glyph glyph-name="ampersand" unicode="&#x26;" horiz-adv-x="791" 
d="M541 19q-41 -24 -90.5 -37t-101.5 -13q-78 0 -139 26.5t-95.5 74.5t-34.5 108q0 62 37 119t103 98q-45 107 -45 197q0 59 29.5 101.5t76 63.5t98.5 21q72 0 122.5 -38.5t50.5 -107.5q0 -60 -49 -118t-143 -111q37 -86 88.5 -166t106.5 -135q47 58 47 149q0 59 -38 108
l77 57q23 -30 32.5 -74t9.5 -78q0 -120 -84 -202q73 -56 127 -56q13 0 25 3v-40q-9 -1 -26 -1q-93 0 -184 51zM427.5 536.5q30.5 43.5 30.5 89.5q0 47 -22 74.5t-52 27.5q-31 0 -54 -31t-23 -87q0 -64 32 -152q58 35 88.5 78.5zM492 50q-72 50 -135.5 125t-109.5 163
q-30 -31 -46.5 -70t-16.5 -79q0 -75 48.5 -121.5t127.5 -46.5q78 0 132 29z" />
    <glyph glyph-name="quotesingle" unicode="'" horiz-adv-x="214" 
d="M80 722h94l-15 -233h-64z" />
    <glyph glyph-name="parenleft" unicode="(" horiz-adv-x="355" 
d="M80 292q0 206 163 418h72q-110 -206 -110 -418q0 -213 110 -419h-72q-163 212 -163 419z" />
    <glyph glyph-name="parenright" unicode=")" horiz-adv-x="355" 
d="M190 292q0 214 -110 418h72q164 -214 164 -418q0 -205 -164 -419h-72q110 204 110 419z" />
    <glyph glyph-name="asterisk" unicode="*" horiz-adv-x="458" 
d="M219 574l-93 -86l-46 71l118 58l-118 57l46 71l93 -86l-17 120h94l-17 -120l93 86l46 -71l-118 -57l118 -58l-46 -71l-93 86l17 -120h-94z" />
    <glyph glyph-name="plus" unicode="+" horiz-adv-x="627" 
d="M300 301h-220v57h220v209h67v-209h220v-57h-220v-231h-67v231z" />
    <glyph glyph-name="comma" unicode="," horiz-adv-x="257" 
d="M124 -72q11 22 11 38q0 7 -3.5 12t-13.5 12q-21 16 -29.5 29t-8.5 32q0 27 19.5 45t48.5 18q21 0 38.5 -11.5t24.5 -29.5q6 -15 6 -34q0 -30 -15.5 -64.5t-43.5 -65.5z" />
    <glyph glyph-name="hyphen" unicode="-" horiz-adv-x="516" 
d="M80 262h396v-57h-396v57z" />
    <glyph glyph-name="period" unicode="." horiz-adv-x="256" 
d="M100 3.5q-20 18.5 -20 44.5q0 25 20 43.5t48 18.5t48 -18.5t20 -43.5q0 -26 -20 -44.5t-48 -18.5t-48 18.5z" />
    <glyph glyph-name="slash" unicode="/" horiz-adv-x="573" 
d="M449 720h84l-369 -847h-84z" />
    <glyph glyph-name="zero" unicode="0" horiz-adv-x="686" 
d="M206.5 27q-64.5 47 -100.5 131t-36 191t36.5 191.5t101 132.5t145.5 48t145.5 -48t101 -132.5t36.5 -191.5t-36 -191t-100.5 -131t-146.5 -47t-146.5 47zM428.5 61.5q32.5 40.5 50.5 115t18 172.5t-18 173.5t-51 117t-75 41.5t-75 -41.5t-51 -117t-18 -173.5t18 -172.5
t50.5 -115t75.5 -40.5t75.5 40.5z" />
    <glyph glyph-name="one" unicode="1" horiz-adv-x="334" 
d="M100 590l134 130v-730h-134v600z" />
    <glyph glyph-name="two" unicode="2" horiz-adv-x="602" 
d="M118 41q74 71 136 140.5t112 157.5t50 170q0 75 -30 118t-83 43q-59 0 -94 -42t-43 -122l-83 24q11 45 42 88.5t84 72.5t126 29q63 0 112 -26t76.5 -72t27.5 -105q0 -71 -41 -142t-100 -132.5t-156 -150.5h298v-102h-482q3 8 48 51z" />
    <glyph glyph-name="three" unicode="3" horiz-adv-x="628" 
d="M165.5 7.5q-64.5 32.5 -95.5 88.5l75 51q33 -127 139 -127q71 0 114 50t43 133q0 76 -30 118t-84 42q-14 0 -67 -7l-3 43l12 -1q48 0 79.5 41t31.5 102q0 24 -4 47t-11 37q-13 28 -31.5 40.5t-47.5 12.5q-56 0 -85 -40t-27 -114l-91 21q19 82 78 129t144 47q60 0 107 -21
t73.5 -59t26.5 -87q0 -94 -94 -149q72 -16 116 -67.5t44 -120.5t-33.5 -122.5t-95 -84t-142.5 -33.5q-77 -2 -141.5 30.5z" />
    <glyph glyph-name="four" unicode="4" horiz-adv-x="604" 
d="M370 190h-300l39 60l290 470h105v-730h-134v200zM370 233v308l-194 -308h194z" />
    <glyph glyph-name="five" unicode="5" horiz-adv-x="615" 
d="M150 14q-61 33 -80 85l79 49q11 -61 44 -94.5t83 -33.5q70 0 116 66q16 22 25.5 57.5t9.5 70.5q0 58 -20.5 102.5t-56 69.5t-81.5 25q-40 0 -82.5 -19t-96.5 -61v379h460v-102h-379v-173q63 26 128 26q73 0 134 -30t96.5 -82t35.5 -115q0 -98 -74 -175
q-34 -35 -90.5 -56.5t-114.5 -21.5q-75 0 -136 33z" />
    <glyph glyph-name="six" unicode="6" horiz-adv-x="631" 
d="M189 27q-60 47 -89.5 119t-29.5 148q0 126 59 223.5t143.5 151t154.5 53.5q12 0 18 -1v-34q-12 2 -18 2q-38 0 -77.5 -33t-71 -91.5t-49.5 -130.5q58 33 123 33t117 -29.5t82 -81t30 -115.5q0 -58 -28.5 -119t-84 -101.5t-131.5 -40.5q-88 0 -148 47zM393 49
q26 29 41 79.5t15 110.5q0 53 -14 96.5t-38.5 68t-54.5 24.5q-35 0 -68.5 -28t-61.5 -80q-1 -9 -1 -26q0 -76 17 -139t46 -99t63 -36q30 0 56 29z" />
    <glyph glyph-name="seven" unicode="7" horiz-adv-x="584" 
d="M231.5 264q63.5 146 170.5 344h-332v102h464q-101 -181 -163.5 -367t-66.5 -353h-153q17 128 80.5 274z" />
    <glyph glyph-name="eight" unicode="8" horiz-adv-x="617" 
d="M191.5 0q-54.5 19 -88 56.5t-33.5 90.5q0 58 39.5 115.5t114.5 108.5q-60 50 -88 92t-28 82q0 56 31.5 95.5t82.5 59.5t107 20q51 0 95.5 -17t72 -51t27.5 -82q0 -47 -33.5 -94t-97.5 -88q84 -63 129 -114t45 -107q0 -59 -37 -101t-96 -63.5t-125 -21.5q-63 0 -117.5 19z
M422.5 489q23.5 35 23.5 79q0 53 -34 82.5t-80 29.5q-45 0 -77.5 -28.5t-32.5 -79.5q0 -41 30 -73t95 -79q52 34 75.5 69zM409.5 56q42.5 29 42.5 82q0 28 -17.5 54t-43 48t-71.5 57q-9 6 -27 20l-25 19q-56 -38 -85.5 -86t-29.5 -101q0 -57 46.5 -89.5t108.5 -32.5
q59 0 101.5 29z" />
    <glyph glyph-name="nine" unicode="9" horiz-adv-x="631" 
d="M206 -19v34q12 -2 18 -2q38 0 77.5 33t71 91.5t49.5 130.5q-58 -33 -123 -33t-117 29.5t-82 81t-30 115.5q0 58 28.5 119t84 101.5t131.5 40.5q88 0 148 -47t89.5 -119t29.5 -148q0 -126 -59 -223.5t-143.5 -151t-154.5 -53.5q-12 0 -18 1zM377.5 302q33.5 28 61.5 80
q1 9 1 26q0 76 -17 139t-46 99t-63 36q-30 0 -56 -29t-41 -79.5t-15 -110.5q0 -53 14 -96.5t38.5 -68t54.5 -24.5q35 0 68.5 28z" />
    <glyph glyph-name="colon" unicode=":" horiz-adv-x="255" 
d="M99.5 377.5q-19.5 18.5 -19.5 45.5q0 26 19.5 44t48.5 18q28 0 47.5 -18t19.5 -44q0 -27 -19.5 -45.5t-47.5 -18.5q-29 0 -48.5 18.5zM99.5 -17q-19.5 18 -19.5 46q0 25 20 43.5t48 18.5t47.5 -18t19.5 -44q0 -28 -19 -46t-48 -18t-48.5 18z" />
    <glyph glyph-name="semicolon" unicode=";" horiz-adv-x="258" 
d="M100 381.5q-20 18.5 -20 44.5t19.5 44t48.5 18q28 0 47.5 -18t19.5 -44t-19.5 -44.5t-47.5 -18.5t-48 18.5zM125 -93q11 22 11 40q0 7 -3 11t-14 12q-21 16 -29.5 29t-8.5 32q0 27 19.5 45t48.5 18q21 0 38.5 -11t24.5 -29q6 -16 6 -35q0 -30 -15 -63.5t-43 -64.5z" />
    <glyph glyph-name="less" unicode="&#x3c;" horiz-adv-x="641" 
d="M155 307l-75 40l75 40l446 223v-70l-387 -193l387 -193v-70z" />
    <glyph glyph-name="equal" unicode="=" horiz-adv-x="629" 
d="M80 439h506v-57h-506v57zM83 272h506v-57h-506v57z" />
    <glyph glyph-name="greater" unicode="&#x3e;" horiz-adv-x="641" 
d="M80 154l387 193l-387 193v70l446 -223l75 -40l-75 -40l-446 -223v70z" />
    <glyph glyph-name="question" unicode="?" horiz-adv-x="520" 
d="M224.5 241.5q17.5 52.5 52.5 126.5q34 72 51 123t17 105q0 57 -21.5 87.5t-62.5 30.5q-39 0 -64 -35.5t-25 -88.5q0 -23 4 -42h-96q-2 61 23.5 109t73 75t108.5 27q54 0 98.5 -22t70.5 -59.5t26 -83.5q0 -52 -26.5 -103t-78.5 -125q-36 -53 -53.5 -82.5t-30 -66.5
t-10.5 -76h-72q-2 48 15.5 100.5zM199.5 -6q-19.5 18 -19.5 45t18.5 47t45.5 20q28 0 47.5 -18.5t19.5 -46.5t-19 -46.5t-46 -18.5t-46.5 18z" />
    <glyph glyph-name="at" unicode="@" horiz-adv-x="936" 
d="M281.5 -122.5q-99.5 57.5 -150.5 149.5t-51 193q0 104 50.5 200t148 156t232.5 60q112 0 199.5 -44.5t136.5 -125t49 -183.5q0 -73 -30 -141t-83 -115q-26 -21 -59.5 -33.5t-66.5 -12.5q-39 0 -73 17t-52 45q-22 -26 -52 -40t-60 -14q-60 0 -95 47.5t-35 129.5
q0 65 27.5 131t79.5 109.5t123 43.5q34 0 64 -16l3 15h120l-11 -41l-37 -143l-6 -23l-6 -22l-11 -44q-7 -25 -12 -47q-6 -24 -6 -42q0 -28 13 -44t35 -16q31 0 71 33q34 31 58 95t24 124q0 93 -38 163.5t-107 109t-160 38.5q-110 0 -190 -51.5t-121 -136.5t-41 -182
q0 -101 45 -181.5t125 -126t181 -45.5q85 0 142 20t100 65h86q-42 -59 -131.5 -95.5t-191.5 -36.5q-137 0 -236.5 57.5zM486.5 103.5q30.5 64.5 54.5 160.5l24 96q-4 18 -16 34t-20 17q-32 1 -62.5 -38.5t-49 -106.5t-18.5 -142q0 -38 10.5 -60.5t27.5 -23.5
q19 -1 49.5 63.5z" />
    <glyph glyph-name="A" unicode="A" horiz-adv-x="750" 
d="M317 710h111l293 -720h-143l-95 233h-301l-94 -233h-60zM464 270l-133 326l-131 -326h264z" />
    <glyph glyph-name="B" unicode="B" horiz-adv-x="753" 
d="M62 710h293q144 0 224 -47t80 -133q0 -48 -35.5 -90t-96.5 -68q174 -42 174 -182q0 -94 -85.5 -147t-235.5 -53h-318v720zM350 383q86 0 126 36.5t40 114.5q0 67 -39.5 99.5t-121.5 32.5h-155v-283h150zM382 34q85 0 130.5 39.5t45.5 113.5q0 152 -169 152h-189v-305h182
z" />
    <glyph glyph-name="C" unicode="C" horiz-adv-x="811" 
d="M257 27q-92 47 -143.5 131t-51.5 191q0 106 52 190t144 131.5t209 47.5q65 0 127 -19t106.5 -52t59.5 -72l-84 -29q-26 65 -76 98t-123 33q-74 0 -136 -43.5t-98 -118t-36 -164.5q0 -91 35.5 -166.5t97.5 -119.5t136 -44q73 0 123 33t76 98l84 -29q-15 -39 -59.5 -72
t-106.5 -52t-127 -19q-117 0 -209 47z" />
    <glyph glyph-name="D" unicode="D" horiz-adv-x="798" 
d="M62 710h266q129 0 223.5 -41.5t144.5 -119t50 -182.5q0 -119 -49 -203.5t-143 -129t-225 -44.5h-267v720zM329 34q136 0 205 83t69 247q0 149 -69.5 226t-205.5 77h-128v-633h129z" />
    <glyph glyph-name="E" unicode="E" horiz-adv-x="665" 
d="M62 710h541v-47h-403v-278h310v-47h-310v-301h403v-47h-541v720z" />
    <glyph glyph-name="F" unicode="F" horiz-adv-x="625" 
d="M62 710h531v-47h-393v-278h310v-47h-310v-348h-138v720z" />
    <glyph glyph-name="G" unicode="G" horiz-adv-x="842" 
d="M257 27q-92 47 -143.5 131t-51.5 191q0 106 52 190t144 131.5t209 47.5q65 0 127 -19t106.5 -52t59.5 -72l-84 -29q-26 65 -76 98t-123 33q-75 0 -137.5 -43.5t-98.5 -118t-36 -164.5q0 -91 36 -166.5t98 -119t137 -43.5q51 0 96 17t70 46v215h138v-80
q0 -69 -40.5 -123.5t-112 -85.5t-161.5 -31q-117 0 -209 47z" />
    <glyph glyph-name="H" unicode="H" horiz-adv-x="743" 
d="M62 710h138v-325h343v325h138v-720h-138v348h-343v-348h-138v720z" />
    <glyph glyph-name="I" unicode="I" horiz-adv-x="282" 
d="M72 710h138v-720h-138v720z" />
    <glyph glyph-name="J" unicode="J" horiz-adv-x="313" 
d="M39 -27l-14 1v27h17q33 -1 48 15t19 55.5t4 129.5v509h138v-563q0 -65 -16.5 -103t-54.5 -55t-103 -17q-25 0 -38 1z" />
    <glyph glyph-name="K" unicode="K" horiz-adv-x="705" 
d="M62 710h138v-316l385 316h81l-414 -340l421 -380h-177l-296 266v-266h-138v720z" />
    <glyph glyph-name="L" unicode="L" horiz-adv-x="625" 
d="M62 710h138v-673h383v-47h-521v720z" />
    <glyph glyph-name="M" unicode="M" horiz-adv-x="970" 
d="M62 710h133l305 -575l274 575h134v-720h-138v580l-277 -580h-62l-312 586v-586h-57v720z" />
    <glyph glyph-name="N" unicode="N" horiz-adv-x="743" 
d="M62 710h128l434 -541v541h57v-720h-72l-490 608v-608h-57v720z" />
    <glyph glyph-name="O" unicode="O" horiz-adv-x="952" 
d="M263 27.5q-94 47.5 -147.5 131.5t-53.5 190q0 105 54 190t148.5 133t211.5 48t211.5 -48t148.5 -132.5t54 -190.5t-54 -190t-148.5 -131.5t-212.5 -47.5t-212 47.5zM616.5 68q61.5 41 96 114t34.5 167q0 92 -35 166t-97 116t-139 42t-139 -42t-97 -116t-35 -166
q0 -93 34.5 -166.5t96.5 -114.5t140 -41q79 0 140.5 41z" />
    <glyph glyph-name="P" unicode="P" horiz-adv-x="729" 
d="M62 710h321q141 0 222.5 -56t81.5 -154t-81.5 -154t-222.5 -56h-183v-300h-138v720zM383 334q84 0 122.5 39.5t38.5 126.5t-38.5 126.5t-122.5 39.5h-183v-332h183z" />
    <glyph glyph-name="Q" unicode="Q" horiz-adv-x="1008" 
d="M468 -78q-48 29 -72.5 42t-39.5 14q-21 2 -34 -3.5t-26.5 -22t-35.5 -52.5l-66 26q6 26 38.5 52t76.5 41q-110 47 -169.5 133t-59.5 197q0 105 55 189.5t152 133t217 48.5t217 -48t152 -133t55 -190q0 -99 -49 -180t-136.5 -130t-197.5 -57q17 -8 34 -18q55 -31 87 -44.5
t56 -13.5q26 0 50 16t61 55l58 -20q-87 -111 -203 -111q-96 0 -220 76zM639 68q59 41 92.5 114.5t33.5 166.5q0 92 -34 166t-93.5 116t-133.5 42t-133.5 -42t-93.5 -116t-34 -166q0 -93 33.5 -166.5t93 -114.5t134.5 -41q76 0 135 41z" />
    <glyph glyph-name="R" unicode="R" horiz-adv-x="749" 
d="M62 710h321q141 0 222.5 -56t81.5 -154q0 -79 -54 -131.5t-153 -70.5l195 -308h-151l-190 300h-134v-300h-138v720zM383 334q84 0 122.5 39.5t38.5 126.5t-38.5 126.5t-122.5 39.5h-183v-332h183z" />
    <glyph glyph-name="S" unicode="S" horiz-adv-x="710" 
d="M220.5 -3q-59.5 18 -101.5 50t-58 73l87 30q21 -63 70.5 -93.5t129.5 -30.5q73 0 117.5 36t44.5 95q0 41 -20 65t-53 37.5t-99 32.5q-80 23 -137.5 48t-98 69.5t-40.5 109.5q0 57 40 103t109.5 72.5t152.5 26.5q66 0 124.5 -18t100 -50t57.5 -73l-87 -30
q-21 63 -69.5 93.5t-127.5 30.5q-73 0 -117.5 -35.5t-44.5 -94.5q0 -41 19.5 -64.5t51.5 -35.5t101 -32q81 -24 139 -50t97.5 -70.5t39.5 -110.5q0 -57 -40 -103t-109.5 -72.5t-152.5 -26.5q-66 0 -125.5 18z" />
    <glyph glyph-name="T" unicode="T" horiz-adv-x="734" 
d="M298 663h-243v47h624v-47h-243v-673h-138v673z" />
    <glyph glyph-name="U" unicode="U" horiz-adv-x="714" 
d="M140 54.5q-78 74.5 -78 220.5v435h138v-446q0 -113 47 -170.5t139 -57.5q104 0 155 58.5t51 177.5v438h60v-437q0 -146 -71 -219.5t-212 -73.5q-151 0 -229 74.5z" />
    <glyph glyph-name="V" unicode="V" horiz-adv-x="747" 
d="M29 710h143l245 -601l241 601h60l-284 -708v-12h-112z" />
    <glyph glyph-name="W" unicode="W" horiz-adv-x="1185" 
d="M29 710h144l223 -594l216 594h54l208 -594l222 594h61l-268 -720h-110l-183 510l-185 -510h-110z" />
    <glyph glyph-name="X" unicode="X" horiz-adv-x="773" 
d="M329 321l-273 389h156l200 -285l226 285h70l-264 -330l273 -390h-155l-201 285l-227 -285h-69z" />
    <glyph glyph-name="Y" unicode="Y" horiz-adv-x="733" 
d="M304 275l-277 435h152l232 -365l234 365h65l-268 -417v-303h-138v285z" />
    <glyph glyph-name="Z" unicode="Z" horiz-adv-x="761" 
d="M64 29l474 634h-463v47h622v-39l-474 -634h463v-47h-622v39z" />
    <glyph glyph-name="bracketleft" unicode="[" horiz-adv-x="334" 
d="M80 710h214v-43h-89v-751h89v-43h-214v837z" />
    <glyph glyph-name="backslash" unicode="\" horiz-adv-x="521" 
d="M80 720h84l317 -847h-84z" />
    <glyph glyph-name="bracketright" unicode="]" horiz-adv-x="334" 
d="M80 -84h89v751h-89v43h214v-837h-214v43z" />
    <glyph glyph-name="asciicircum" unicode="^" horiz-adv-x="403" 
d="M190 792h63l110 -254h-81l-60 135l-61 -135h-81z" />
    <glyph glyph-name="underscore" unicode="_" horiz-adv-x="681" 
d="M80 -36h561v-57h-561v57z" />
    <glyph glyph-name="grave" unicode="`" horiz-adv-x="323" 
d="M50 889h126l97 -157h-63z" />
    <glyph glyph-name="a" unicode="a" 
d="M151 11.5q-55 31.5 -86 87t-31 126.5q0 73 30.5 129t86.5 86.5t128 30.5q84 0 146 -51v40h131v-470h-134v41q-29 -25 -66.5 -38t-78.5 -13q-71 0 -126 31.5zM360.5 54.5q28.5 23.5 45 65t16.5 93.5v21q0 54 -17.5 97.5t-47 68.5t-65.5 25q-35 0 -62 -24.5t-42 -69
t-15 -101.5q0 -56 16 -101.5t44.5 -71.5t63.5 -26t63.5 23.5z" />
    <glyph glyph-name="b" unicode="b" 
d="M188 25v-35h-134v720h134v-287q29 23 65.5 35.5t76.5 12.5q73 0 128.5 -30.5t86.5 -86.5t31 -129q0 -71 -31 -126.5t-86 -87t-126 -31.5q-86 0 -145 45zM376.5 57q28.5 26 44.5 71.5t16 101.5q0 57 -15 101.5t-42 69t-62 24.5q-36 0 -65.5 -25t-47 -68.5t-17.5 -97.5v-23
q1 -80 35.5 -130t89.5 -50q35 0 63.5 26z" />
    <glyph glyph-name="c" unicode="c" horiz-adv-x="565" 
d="M162.5 13.5q-60.5 31.5 -94.5 87t-34 125.5t34.5 125.5t96 87t139.5 31.5q73 0 133 -32.5t87 -86.5l-84 -45q-14 62 -45 91t-83 29q-61 0 -99 -53.5t-38 -138.5q0 -94 38 -148t104 -54q50 0 82 28t53 90l79 -38q-33 -61 -94 -95.5t-137 -34.5q-77 0 -137.5 31.5z" />
    <glyph glyph-name="d" unicode="d" 
d="M151 11.5q-55 31.5 -86 87t-31 126.5q0 73 31 129t86.5 86.5t128.5 30.5q40 0 76.5 -12.5t65.5 -35.5v287h134v-720h-134v41q-29 -25 -66.5 -38t-78.5 -13q-71 0 -126 31.5zM360.5 54.5q28.5 23.5 45 65t16.5 93.5v21q0 54 -17.5 97.5t-47 68.5t-65.5 25q-35 0 -62 -24.5
t-42 -69t-15 -101.5q0 -56 16 -101.5t44.5 -71.5t63.5 -26t63.5 23.5z" />
    <glyph glyph-name="e" unicode="e" horiz-adv-x="586" 
d="M162.5 13.5q-60.5 31.5 -94.5 87t-34 125.5t34.5 125.5t96 87t139.5 31.5q75 0 132 -32t87.5 -89.5t28.5 -132.5h-379q2 -52 24.5 -91.5t58 -60.5t76.5 -21q44 0 83.5 25.5t66.5 75.5l53 -40q-28 -54 -94 -88t-141 -34q-77 0 -137.5 31.5zM425 263q-6 76 -39 119.5
t-83 43.5q-48 0 -84 -45.5t-44 -117.5h250z" />
    <glyph glyph-name="f" unicode="f" horiz-adv-x="293" 
d="M65 413h-51v47h51v32q0 109 55 171.5t150 62.5q50 0 94 -22.5t58 -55.5l-102 -42q-11 39 -23 53.5t-32 14.5q-36 0 -61 -37.5t-25 -92.5q0 -22 4.5 -45t12.5 -39h108v-47h-105v-422h-134v422z" />
    <glyph glyph-name="g" unicode="g" 
d="M182 -202.5q-54 23.5 -80 64.5l32 51q25 -39 68 -64t87 -25q58 0 95.5 45t37.5 140v22q-29 -25 -66.5 -38t-78.5 -13q-71 0 -126 31.5t-86 87t-31 126.5q0 73 30.5 129t86.5 86.5t128 30.5q84 0 146 -51v40h131v-450q0 -78 -36.5 -131.5t-95 -79t-124.5 -25.5
q-64 0 -118 23.5zM360.5 62.5q28.5 23.5 45 65t16.5 93.5v8q0 54 -17.5 97.5t-47 68.5t-65.5 25q-53 0 -86 -52.5t-33 -137.5q0 -55 16 -98.5t44 -68t64 -24.5q35 0 63.5 23.5z" />
    <glyph glyph-name="h" unicode="h" horiz-adv-x="605" 
d="M54 710h134v-324q36 41 82 62.5t99 21.5q98 0 145 -53t47 -164v-263h-134v263q0 89 -18 127t-60 38q-40 0 -76 -27.5t-59 -74.5t-26 -102v-224h-134v720z" />
    <glyph glyph-name="i" unicode="i" horiz-adv-x="242" 
d="M65.5 541q-23.5 22 -23.5 52t23.5 52t55.5 22t55.5 -22t23.5 -52t-23.5 -52t-55.5 -22t-55.5 22zM54 460h134v-470h-134v470z" />
    <glyph glyph-name="j" unicode="j" horiz-adv-x="251" 
d="M64.5 541q-23.5 22 -23.5 52t23.5 52t55.5 22t55.5 -22t23.5 -52t-23.5 -52t-55.5 -22t-55.5 22zM-22 -225l-14 10v9l17 10q27 -3 42.5 13.5t22 60.5t6.5 126v456h134v-510q0 -66 -17 -104t-55.5 -55t-105.5 -17z" />
    <glyph glyph-name="k" unicode="k" horiz-adv-x="572" 
d="M54 710h134v-509l291 259h78l-241 -214l243 -256h-165l-168 177l-38 -35v-142h-134v720z" />
    <glyph glyph-name="l" unicode="l" horiz-adv-x="262" 
d="M64 703l134 49v-762h-134v713z" />
    <glyph glyph-name="m" unicode="m" horiz-adv-x="936" 
d="M54 460h131v-78q34 43 78 65.5t95 22.5q129 0 167 -106q70 106 185 106q92 0 137 -53.5t45 -163.5v-263h-134v260q0 86 -17 126.5t-51 40.5t-66.5 -26t-55 -70t-28.5 -95v-236h-134v260q0 86 -17 126.5t-51 40.5q-35 0 -67.5 -25t-54.5 -68.5t-28 -96.5v-237h-134v470z
" />
    <glyph glyph-name="n" unicode="n" horiz-adv-x="604" 
d="M54 460h131v-77q36 43 83 65t101 22q98 0 145 -53t47 -164v-263h-134v263q0 89 -18 127t-60 38q-40 0 -76 -27.5t-59 -74.5t-26 -102v-224h-134v470z" />
    <glyph glyph-name="o" unicode="o" horiz-adv-x="620" 
d="M166.5 13q-62.5 31 -97.5 86.5t-35 126.5t35 126.5t97.5 86.5t143.5 31t143.5 -31t97.5 -86.5t35 -126.5t-35 -126.5t-97.5 -86.5t-143.5 -31t-143.5 31zM410.5 81q36.5 55 36.5 152q0 90 -37 141.5t-101 51.5t-100 -53.5t-36 -147.5t36 -146.5t100 -52.5q65 0 101.5 55z
" />
    <glyph glyph-name="p" unicode="p" 
d="M54 460h131v-40q62 51 146 51q72 0 128 -30.5t86.5 -86.5t30.5 -129q0 -71 -31 -126.5t-86 -87t-126 -31.5q-86 0 -145 45v-235h-134v670zM376.5 57q28.5 26 44.5 71.5t16 101.5q0 57 -15 101.5t-42 69t-62 24.5q-36 0 -65.5 -25t-47 -68.5t-17.5 -97.5v-20
q0 -53 16.5 -94.5t44.5 -65t64 -23.5q35 0 63.5 26z" />
    <glyph glyph-name="q" unicode="q" 
d="M422 31q-29 -25 -66.5 -38t-78.5 -13q-71 0 -126 31.5t-86 87t-31 126.5q0 73 30.5 129t86.5 86.5t128 30.5q84 0 146 -51v40h131v-670h-134v241zM360.5 54.5q28.5 23.5 45 65t16.5 93.5v21q0 54 -17.5 97.5t-47 68.5t-65.5 25q-35 0 -62 -24.5t-42 -69t-15 -101.5
q0 -56 16 -101.5t44.5 -71.5t63.5 -26t63.5 23.5z" />
    <glyph glyph-name="r" unicode="r" horiz-adv-x="479" 
d="M54 460h131v-77q70 87 165 87q48 0 87.5 -21t57.5 -57l-106 -58q-12 48 -26.5 66.5t-35.5 18.5q-30 0 -60.5 -29t-52 -76.5t-26.5 -99.5v-224h-134v470z" />
    <glyph glyph-name="s" unicode="s" horiz-adv-x="534" 
d="M157 -5.5q-50 14.5 -83.5 40.5t-40.5 57l100 18q4 -40 38 -61.5t95 -21.5q111 0 111 70q0 20 -10.5 32.5t-37 21.5t-76.5 18q-96 15 -157.5 48t-61.5 108q0 41 32 74t87 52t121 19q56 0 105.5 -14.5t82 -40.5t39.5 -57l-99 -18q-5 40 -37.5 62.5t-87.5 22.5
q-58 0 -88 -19t-30 -54q0 -24 14 -37.5t38 -20t73 -15.5q66 -12 108.5 -24.5t75 -43t32.5 -83.5q0 -42 -30.5 -76t-84.5 -53t-121 -19q-57 0 -107 14.5z" />
    <glyph glyph-name="t" unicode="t" horiz-adv-x="323" 
d="M92.5 11.5q-27.5 32.5 -27.5 105.5v296h-51v47h51v173l134 49v-222h109v-47h-109v-299q0 -53 2.5 -71t11.5 -18q27 0 58 52l37 -29q-19 -31 -53.5 -50t-71.5 -19q-63 0 -90.5 32.5z" />
    <glyph glyph-name="u" unicode="u" horiz-adv-x="604" 
d="M91 33q-47 53 -47 164v263h134v-263q0 -89 18 -127t60 -38q40 0 76 27.5t59 74.5t26 102v224h134v-470h-131v77q-36 -43 -83 -65t-101 -22q-98 0 -145 53z" />
    <glyph glyph-name="v" unicode="v" horiz-adv-x="525" 
d="M0 460h140l164 -360l161 360h61l-210 -470h-101z" />
    <glyph glyph-name="w" unicode="w" horiz-adv-x="785" 
d="M1 460h139l140 -346l124 346h57l123 -348l141 348h60l-189 -470h-105l-98 270l-96 -270h-105z" />
    <glyph glyph-name="x" unicode="x" horiz-adv-x="517" 
d="M205 193l-187 266h151l117 -165l132 165h70l-170 -211l181 -258h-150l-111 157l-126 -157h-70z" />
    <glyph glyph-name="y" unicode="y" horiz-adv-x="605" 
d="M178 -198.5q-55 22.5 -81 60.5l32 51q21 -35 64.5 -59t89.5 -24q58 0 96 43.5t38 135.5v55q-36 -41 -82 -62.5t-99 -21.5q-98 0 -145 53t-47 164v263h134v-263q0 -89 18 -127t60 -38q40 0 76 27.5t59 74.5t26 102v224h134v-450q0 -78 -36 -130t-94 -76.5t-124 -24.5
q-64 0 -119 22.5z" />
    <glyph glyph-name="z" unicode="z" horiz-adv-x="585" 
d="M37 29l346 384h-338v47h498v-39l-346 -384h343v-47h-503v39z" />
    <glyph glyph-name="braceleft" unicode="{" horiz-adv-x="365" 
d="M219.5 -115q-43.5 14 -70 38.5t-26.5 51.5v245q0 24 -8.5 42.5t-17.5 16.5v25q10 -2 18 16t8 42v246q0 27 26.5 51.5t70 38.5t91.5 12l-3 -29q-3 1 -9 1q-23 0 -36.5 -20t-13.5 -54v-102q-1 -52 -1 -135q0 -55 -68 -80q69 -25 69 -80q0 -82 -1 -134v-102q0 -34 14.5 -55
t37.5 -21l8 1l3 -27q-48 -2 -91.5 12z" />
    <glyph glyph-name="bar" unicode="|" horiz-adv-x="205" 
d="M80 710h85v-837h-85v837z" />
    <glyph glyph-name="braceright" unicode="}" horiz-adv-x="365" 
d="M97 -100l8 -1q23 0 37.5 21t14.5 55v102q-1 52 -1 134q0 55 69 80q-68 25 -68 80q0 83 -1 135v102q0 34 -13.5 54t-36.5 20q-6 0 -9 -1l-3 29q48 2 91.5 -12t70 -38.5t26.5 -51.5v-246q0 -24 8 -42t18 -16v-25q-9 2 -17.5 -16.5t-8.5 -42.5v-245q0 -27 -26.5 -51.5
t-70 -38.5t-91.5 -12z" />
    <glyph glyph-name="asciitilde" unicode="~" horiz-adv-x="627" 
d="M406 272q-33 11 -79 32q-45 20 -73.5 30t-56.5 10q-63 0 -117 -65v79q52 49 115 49q33 0 66 -11t79 -32q45 -20 73.5 -30t56.5 -10q63 0 117 65v-79q-52 -49 -115 -49q-33 0 -66 11z" />
    <glyph glyph-name="exclamdown" unicode="&#xa1;" horiz-adv-x="263" 
d="M104 406.5q-20 18.5 -20 44.5q0 25 20 43.5t48 18.5t48 -18.5t20 -43.5q0 -26 -20 -44.5t-48 -18.5t-48 18.5zM99 347h104l20 -559h-143z" />
    <glyph glyph-name="cent" unicode="&#xa2;" horiz-adv-x="621" 
d="M302 -15q-66 8 -116.5 41t-78 85t-27.5 115q0 62 27.5 113.5t78 84.5t116.5 42v114h88v-113q61 -8 109.5 -39t70.5 -77l-84 -45q-11 52 -34.5 81t-61.5 37v-386q41 4 76.5 30.5t61.5 74.5l53 -39q-25 -46 -76.5 -78t-114.5 -41v-95h-88v95zM302 414q-39 -20 -61 -66.5
t-22 -110.5q0 -58 22 -104.5t61 -72.5v354z" />
    <glyph glyph-name="sterling" unicode="&#xa3;" horiz-adv-x="650" 
d="M110 28q38 33 61 86t23 105q0 34 -6 64t-17 71h-91v53h79q-13 58 -13 99q0 62 31 111t85.5 76.5t124.5 27.5q64 0 115 -23.5t79.5 -64.5t28.5 -92q0 -18 -5 -43l-90 30q2 11 2 32q0 54 -28 86t-76 32q-62 0 -99.5 -46t-37.5 -122q0 -44 14 -103h158v-53h-147
q15 -71 15 -118q0 -74 -61 -144h334l-37 -102h-442v38z" />
    <glyph glyph-name="currency" unicode="&#xa4;" horiz-adv-x="669" 
d="M159 53q-36 34 -55 78.5t-19 96.5t19 97t55 79l-79 137h96l56 -90q54 24 122 24q69 0 123 -24l56 90h96l-79 -138q35 -35 54 -79.5t19 -95.5t-19 -95.5t-54 -79.5l79 -137h-96l-56 89q-54 -24 -123 -24t-123 24l-55 -89h-96zM425.5 50q33.5 23 54.5 68.5t21 109.5
t-21 110t-54.5 69.5t-71.5 23.5t-71.5 -23.5t-54 -69t-20.5 -110.5q0 -64 20.5 -109.5t54 -68.5t71.5 -23t71.5 23z" />
    <glyph glyph-name="yen" unicode="&#xa5;" horiz-adv-x="795" 
d="M357 155h-137v53h137v41h-137v53h120l-260 408h148l221 -349l224 349h82l-261 -408h144v-53h-147v-41h147v-53h-147v-165h-134v165z" />
    <glyph glyph-name="brokenbar" unicode="&#xa6;" horiz-adv-x="205" 
d="M80 710h85v-387h-85v387zM80 260h85v-387h-85v387z" />
    <glyph glyph-name="section" unicode="&#xa7;" horiz-adv-x="516" 
d="M188 5q-44 15 -69.5 41t-25.5 58q0 9 1 13l97 1q-1 -5 -1 -15q0 -35 25 -54.5t68 -19.5q41 0 64.5 17t23.5 46t-28 51t-89 55q-82 43 -128 79.5t-46 82.5q0 31 22.5 57.5t58.5 39.5q-29 21 -45.5 36.5t-20.5 29.5q-5 16 -5 32q0 32 25 58t68.5 41t95.5 15q51 0 93 -14.5
t66.5 -40t24.5 -56.5q0 -9 -1 -13l-97 -1q1 5 1 15q0 33 -25.5 52t-70.5 19q-40 0 -62.5 -15.5t-22.5 -44.5t26.5 -50t89.5 -56q83 -43 129 -80t46 -83q0 -30 -21.5 -56t-58.5 -40q64 -43 67 -70q5 -22 5 -31q0 -32 -24 -58t-66.5 -41t-93.5 -15q-52 0 -96 15zM380 282
q0 29 -31.5 55t-103.5 69l-42 25q-27 -16 -27 -51q0 -29 32 -55t104 -68q8 -5 17.5 -10.5t24.5 -14.5q26 17 26 50z" />
    <glyph glyph-name="dieresis" unicode="&#xa8;" horiz-adv-x="424" 
d="M70.5 743.5q-20.5 18.5 -20.5 45.5q0 26 20 45t48 19q30 0 50.5 -18.5t20.5 -45.5t-20 -45.5t-49 -18.5t-49.5 18.5zM255 743.5q-20 18.5 -20 45.5t20 45t49 18t49.5 -18.5t20.5 -44.5q0 -27 -20.5 -45.5t-49.5 -18.5t-49 18.5z" />
    <glyph glyph-name="copyright" unicode="&#xa9;" horiz-adv-x="859" 
d="M265 -5q-85 49 -135 132.5t-50 182.5t50 182.5t135 132.5t185 49t184.5 -49t134.5 -133t50 -182t-50 -182t-134.5 -133t-184.5 -49t-185 49zM601 45q69 41 109.5 111.5t40.5 153.5t-40.5 153.5t-109.5 111.5t-151 41t-151 -41t-109.5 -111t-40.5 -154q0 -83 40.5 -153.5
t109.5 -111.5t151 -41t151 41zM358 133q-45 27 -70.5 74.5t-25.5 106.5q0 60 25.5 107.5t70.5 74.5t102 27q69 0 114 -36.5t44 -92.5l-85 -4q-3 62 -73 62q-49 0 -81 -38.5t-32 -97.5q0 -62 31.5 -101t81.5 -39q30 0 46.5 15t24.5 47h92q-2 -35 -25 -65.5t-60 -48.5t-78 -18
q-57 0 -102 27z" />
    <glyph glyph-name="guillemotleft" unicode="&#xab;" horiz-adv-x="735" 
d="M80 337l382 268v-74l-271 -194l271 -194v-74zM313 337l382 268v-74l-271 -194l271 -194v-74z" />
    <glyph glyph-name="logicalnot" unicode="&#xac;" horiz-adv-x="627" 
d="M520 329h-440v57h507v-243h-67v186z" />
    <glyph glyph-name="registered" unicode="&#xae;" horiz-adv-x="551" 
d="M187.5 438.5q-49.5 28.5 -78.5 77t-29 105.5t29 105t78.5 76.5t108.5 28.5q58 0 107.5 -28.5t78.5 -76.5t29 -105t-29 -105.5t-78.5 -77t-107.5 -28.5q-59 0 -108.5 28.5zM374 481q36 22 57 59t21 81t-21 81t-57 58.5t-78 21.5q-43 0 -79 -21.5t-57 -58.5t-21 -81
t21 -81.5t57 -59t79 -21.5q42 0 78 22zM223 748h54q33 0 54 -6q30 -10 46.5 -30t16.5 -46q0 -28 -17.5 -49.5t-47.5 -31.5l68 -82h-63l-42 47v-47h-69v245zM330 664q0 49 -38 50v-102q38 7 38 52z" />
    <glyph glyph-name="macron" unicode="&#xaf;" horiz-adv-x="456" 
d="M50 813h356v-75h-356v75z" />
    <glyph glyph-name="degree" unicode="&#xb0;" horiz-adv-x="476" 
d="M169 463.5q-41 23.5 -65 63t-24 86.5t24 86.5t65 63t89 23.5t89 -23.5t65 -63t24 -86.5t-24 -86.5t-65 -63t-89 -23.5t-89 23.5zM338.5 527.5q33.5 35.5 33.5 85.5q0 49 -33.5 84t-80.5 35t-80.5 -35t-33.5 -84q0 -50 33.5 -85.5t80.5 -35.5t80.5 35.5z" />
    <glyph glyph-name="plusminus" unicode="&#xb1;" horiz-adv-x="627" 
d="M300 346h-220v56h220v209h67v-209h220v-56h-220v-231h-67v231zM80 81h507v-57h-507v57z" />
    <glyph glyph-name="acute" unicode="&#xb4;" horiz-adv-x="323" 
d="M147 889h126l-160 -157h-63z" />
    <glyph glyph-name="paragraph" unicode="&#xb6;" horiz-adv-x="584" 
d="M248 321q-82 18 -125 71t-43 119q0 51 26 96.5t77 74t120 28.5h59v-720h-114v331zM430 710h114v-720h-114v720z" />
    <glyph glyph-name="periodcentered" unicode="&#xb7;" horiz-adv-x="255" 
d="M100 267.5q-20 18.5 -20 44.5t19.5 44t48.5 18q28 0 47.5 -18t19.5 -44t-19.5 -44.5t-47.5 -18.5t-48 18.5z" />
    <glyph glyph-name="cedilla" unicode="&#xb8;" horiz-adv-x="355" 
d="M114 -222.5q-36 15.5 -64 46.5l22 33q45 -34 74 -34q22 0 35 16t13 38q0 21 -14 36.5t-39 15.5q-22 0 -48 -11l51 104h69l-25 -51q53 -2 85 -30t32 -71q0 -50 -34.5 -79t-84.5 -29q-36 0 -72 15.5z" />
    <glyph glyph-name="guillemotright" unicode="&#xbb;" horiz-adv-x="735" 
d="M80 143l271 194l-271 194v74l382 -268l-382 -268v74zM313 143l271 194l-271 194v74l382 -268l-382 -268v74z" />
    <glyph glyph-name="onequarter" unicode="&#xbc;" horiz-adv-x="800" 
d="M166 754l110 110v-570h-110v460zM653 780h93l-573 -928h-93zM640 21h-215l237 385h88v-528h-110v143zM640 58v194l-122 -194h122z" />
    <glyph glyph-name="onehalf" unicode="&#xbd;" horiz-adv-x="914" 
d="M156 754l110 110v-570h-110v460zM653 780h93l-573 -928h-93zM516 -102l25 25q87 85 149 167t62 165q0 52 -20.5 82t-55.5 30q-38 0 -61 -31t-27 -89l-75 22q8 32 31 64t62.5 54t94.5 22q71 0 116.5 -41.5t45.5 -106.5q0 -50 -29 -100.5t-70.5 -94t-109.5 -106.5h210v-79
h-337z" />
    <glyph glyph-name="threequarters" unicode="&#xbe;" horiz-adv-x="908" 
d="M147.5 324.5q-47.5 24.5 -67.5 63.5l65 46q13 -50 36 -73.5t60 -23.5q46 0 74.5 35t28.5 93q0 53 -19.5 82t-54.5 29l-21 -1q-11 -2 -34 -3l-3 37q10 -2 16 -2q31 0 52 29t21 70q0 33 -11 61q-10 19 -21 26.5t-28 7.5q-37 0 -56 -29.5t-17 -84.5l-80 22q14 59 58.5 94
t107.5 35q68 0 112 -34.5t44 -88.5q0 -64 -66 -105q51 -14 82 -50.5t31 -84.5q0 -51 -26 -91t-73 -62t-108 -22q-55 0 -102.5 24.5zM765 780h93l-573 -928h-93zM724 21h-215l237 385h88v-528h-110v143zM724 58v194l-122 -194h122z" />
    <glyph glyph-name="questiondown" unicode="&#xbf;" horiz-adv-x="520" 
d="M266 406.5q-20 18.5 -20 43.5q0 26 20 44.5t48 18.5t48 -18.5t20 -44.5q0 -25 -20 -43.5t-48 -18.5t-48 18.5zM176.5 -239q-44.5 22 -70.5 59.5t-26 83.5q0 52 26.5 103t78.5 125q36 53 53.5 82.5t30 66.5t10.5 76h72q2 -48 -15.5 -100.5t-52.5 -126.5q-34 -72 -51 -123
t-17 -105q0 -57 21.5 -87.5t62.5 -30.5q42 0 69.5 35t27.5 87q0 25 -5 44h89q2 -61 -23.5 -109t-73 -75t-108.5 -27q-54 0 -98.5 22z" />
    <glyph glyph-name="Agrave" unicode="&#xc0;" horiz-adv-x="750" 
d="M317 710h111l293 -720h-143l-95 233h-301l-94 -233h-60zM464 270l-133 326l-131 -326h264zM253 890h126l97 -157h-63z" />
    <glyph glyph-name="Aacute" unicode="&#xc1;" horiz-adv-x="750" 
d="M317 710h111l293 -720h-143l-95 233h-301l-94 -233h-60zM464 270l-133 326l-131 -326h264zM381 895h126l-160 -157h-63z" />
    <glyph glyph-name="Acircumflex" unicode="&#xc2;" horiz-adv-x="750" 
d="M317 710h111l293 -720h-143l-95 233h-301l-94 -233h-60zM464 270l-133 326l-131 -326h264zM283 884h167l97 -157h-63l-117 116l-118 -116h-63z" />
    <glyph glyph-name="Atilde" unicode="&#xc3;" horiz-adv-x="750" 
d="M317 710h111l293 -720h-143l-95 233h-301l-94 -233h-60zM464 270l-133 326l-131 -326h264zM414.5 759.5q-26.5 9.5 -61.5 26.5q-28 14 -45.5 21t-30.5 7q-25 0 -35.5 -13t-8.5 -40h-47q-2 70 19.5 102t69.5 32q26 0 51.5 -8.5t60.5 -24.5q29 -13 47 -19.5t32 -6.5
q20 0 32 10.5t12 27.5q0 7 -1 10h48q2 -70 -19.5 -102t-69.5 -32q-27 0 -53.5 9.5z" />
    <glyph glyph-name="Adieresis" unicode="&#xc4;" horiz-adv-x="750" 
d="M317 710h111l293 -720h-143l-95 233h-301l-94 -233h-60zM464 270l-133 326l-131 -326h264zM223.5 767.5q-20.5 18.5 -20.5 45.5q0 26 20 45t48 19q30 0 50.5 -18.5t20.5 -45.5t-20 -45.5t-49 -18.5t-49.5 18.5zM408 767.5q-20 18.5 -20 45.5t20 45t49 18t49.5 -18.5
t20.5 -44.5q0 -27 -20.5 -45.5t-49.5 -18.5t-49 18.5z" />
    <glyph glyph-name="Aring" unicode="&#xc5;" horiz-adv-x="750" 
d="M721 -10h-143l-95 233h-301l-94 -233h-60l287 715q-28 15 -45.5 42t-17.5 59q0 47 35.5 81t84.5 34t84.5 -34t35.5 -81q0 -32 -17 -59t-45 -42zM330.5 853q-18.5 -20 -18.5 -47q0 -28 17.5 -47.5t42.5 -19.5t42.5 19.5t17.5 47.5q0 26 -17.5 46.5t-40.5 20.5
q-25 0 -43.5 -20zM464 270l-133 326l-131 -326h264z" />
    <glyph glyph-name="AE" unicode="&#xc6;" horiz-adv-x="1025" 
d="M375 710h575v-47h-370v-278h277v-47h-277v-301h370v-47h-508v233h-232l-109 -233h-61zM442 270v393h-27l-184 -393h211z" />
    <glyph glyph-name="Ccedilla" unicode="&#xc7;" horiz-adv-x="811" 
d="M599 54q50 33 76 98l84 -29q-21 -55 -95.5 -95t-166.5 -47l-16 -33q53 -2 85 -30t32 -71q0 -50 -34.5 -79t-84.5 -29q-36 0 -72 15.5t-64 46.5l22 33q45 -34 74 -34q22 0 35 16t13 38q0 21 -14 36.5t-39 15.5q-22 0 -48 -11l42 86q-107 8 -190 57t-129.5 129.5
t-46.5 181.5q0 106 52 190t144 131.5t209 47.5q65 0 127 -19t106.5 -52t59.5 -72l-84 -29q-26 65 -76 98t-123 33q-74 0 -136 -43.5t-98 -118t-36 -164.5q0 -91 35.5 -166.5t97.5 -119.5t136 -44q73 0 123 33z" />
    <glyph glyph-name="Egrave" unicode="&#xc8;" horiz-adv-x="665" 
d="M62 710h541v-47h-403v-278h310v-47h-310v-301h403v-47h-541v720zM189 922h126l97 -157h-63z" />
    <glyph glyph-name="Eacute" unicode="&#xc9;" horiz-adv-x="665" 
d="M62 710h541v-47h-403v-278h310v-47h-310v-301h403v-47h-541v720zM388 926h126l-160 -157h-63z" />
    <glyph glyph-name="Ecircumflex" unicode="&#xca;" horiz-adv-x="665" 
d="M62 710h541v-47h-403v-278h310v-47h-310v-301h403v-47h-541v720zM243 925h167l97 -157h-63l-117 116l-118 -116h-63z" />
    <glyph glyph-name="Edieresis" unicode="&#xcb;" horiz-adv-x="665" 
d="M62 710h541v-47h-403v-278h310v-47h-310v-301h403v-47h-541v720zM195.5 773.5q-20.5 18.5 -20.5 45.5q0 26 20 45t48 19q30 0 50.5 -18.5t20.5 -45.5t-20 -45.5t-49 -18.5t-49.5 18.5zM380 773.5q-20 18.5 -20 45.5t20 45t49 18t49.5 -18.5t20.5 -44.5q0 -27 -20.5 -45.5
t-49.5 -18.5t-49 18.5z" />
    <glyph glyph-name="Igrave" unicode="&#xcc;" horiz-adv-x="282" 
d="M72 710h138v-720h-138v720zM-18 916h126l97 -157h-63z" />
    <glyph glyph-name="Iacute" unicode="&#xcd;" horiz-adv-x="282" 
d="M72 710h138v-720h-138v720zM173 917h126l-160 -157h-63z" />
    <glyph glyph-name="Icircumflex" unicode="&#xce;" horiz-adv-x="282" 
d="M72 710h138v-720h-138v720zM57 908h167l97 -157h-63l-117 116l-118 -116h-63z" />
    <glyph glyph-name="Idieresis" unicode="&#xcf;" horiz-adv-x="282" 
d="M72 710h138v-720h-138v720zM-0.5 773.5q-20.5 18.5 -20.5 45.5q0 26 20 45t48 19q30 0 50.5 -18.5t20.5 -45.5t-20 -45.5t-49 -18.5t-49.5 18.5zM184 773.5q-20 18.5 -20 45.5t20 45t49 18t49.5 -18.5t20.5 -44.5q0 -27 -20.5 -45.5t-49.5 -18.5t-49 18.5z" />
    <glyph glyph-name="Eth" unicode="&#xd0;" horiz-adv-x="798" 
d="M62 330h-80v53h80v327h266q129 0 223.5 -41.5t144.5 -119t50 -182.5q0 -119 -49 -203.5t-143 -129t-225 -44.5h-267v340zM329 34q136 0 205 83t69 247q0 149 -69.5 226t-205.5 77h-128v-284h127v-53h-127v-296h129z" />
    <glyph glyph-name="Ntilde" unicode="&#xd1;" horiz-adv-x="743" 
d="M62 710h128l434 -541v541h57v-720h-72l-490 608v-608h-57v720zM421.5 759.5q-26.5 9.5 -61.5 26.5q-28 14 -45.5 21t-30.5 7q-25 0 -35.5 -13t-8.5 -40h-47q-2 70 19.5 102t69.5 32q26 0 51.5 -8.5t60.5 -24.5q29 -13 47 -19.5t32 -6.5q20 0 32 10.5t12 27.5q0 7 -1 10
h48q2 -70 -19.5 -102t-69.5 -32q-27 0 -53.5 9.5z" />
    <glyph glyph-name="Ograve" unicode="&#xd2;" horiz-adv-x="952" 
d="M263 27.5q-94 47.5 -147.5 131.5t-53.5 190q0 105 54 190t148.5 133t211.5 48t211.5 -48t148.5 -132.5t54 -190.5t-54 -190t-148.5 -131.5t-212.5 -47.5t-212 47.5zM616.5 68q61.5 41 96 114t34.5 167q0 92 -35 166t-97 116t-139 42t-139 -42t-97 -116t-35 -166
q0 -93 34.5 -166.5t96.5 -114.5t140 -41q79 0 140.5 41zM286 913h126l97 -157h-63z" />
    <glyph glyph-name="Oacute" unicode="&#xd3;" horiz-adv-x="952" 
d="M263 27.5q-94 47.5 -147.5 131.5t-53.5 190q0 105 54 190t148.5 133t211.5 48t211.5 -48t148.5 -132.5t54 -190.5t-54 -190t-148.5 -131.5t-212.5 -47.5t-212 47.5zM616.5 68q61.5 41 96 114t34.5 167q0 92 -35 166t-97 116t-139 42t-139 -42t-97 -116t-35 -166
q0 -93 34.5 -166.5t96.5 -114.5t140 -41q79 0 140.5 41zM530 910h126l-160 -157h-63z" />
    <glyph glyph-name="Ocircumflex" unicode="&#xd4;" horiz-adv-x="952" 
d="M263 27.5q-94 47.5 -147.5 131.5t-53.5 190q0 105 54 190t148.5 133t211.5 48t211.5 -48t148.5 -132.5t54 -190.5t-54 -190t-148.5 -131.5t-212.5 -47.5t-212 47.5zM616.5 68q61.5 41 96 114t34.5 167q0 92 -35 166t-97 116t-139 42t-139 -42t-97 -116t-35 -166
q0 -93 34.5 -166.5t96.5 -114.5t140 -41q79 0 140.5 41zM403 908h167l97 -157h-63l-117 116l-118 -116h-63z" />
    <glyph glyph-name="Otilde" unicode="&#xd5;" horiz-adv-x="952" 
d="M263 27.5q-94 47.5 -147.5 131.5t-53.5 190q0 105 54 190t148.5 133t211.5 48t211.5 -48t148.5 -132.5t54 -190.5t-54 -190t-148.5 -131.5t-212.5 -47.5t-212 47.5zM616.5 68q61.5 41 96 114t34.5 167q0 92 -35 166t-97 116t-139 42t-139 -42t-97 -116t-35 -166
q0 -93 34.5 -166.5t96.5 -114.5t140 -41q79 0 140.5 41zM503.5 760.5q-26.5 9.5 -61.5 26.5q-28 14 -45.5 21t-30.5 7q-25 0 -35.5 -13t-8.5 -40h-47q-2 70 19.5 102t69.5 32q26 0 51.5 -8.5t60.5 -24.5q29 -13 47 -19.5t32 -6.5q20 0 32 10.5t12 27.5q0 7 -1 10h48
q2 -70 -19.5 -102t-69.5 -32q-27 0 -53.5 9.5z" />
    <glyph glyph-name="Odieresis" unicode="&#xd6;" horiz-adv-x="952" 
d="M263 27.5q-94 47.5 -147.5 131.5t-53.5 190q0 105 54 190t148.5 133t211.5 48t211.5 -48t148.5 -132.5t54 -190.5t-54 -190t-148.5 -131.5t-212.5 -47.5t-212 47.5zM616.5 68q61.5 41 96 114t34.5 167q0 92 -35 166t-97 116t-139 42t-139 -42t-97 -116t-35 -166
q0 -93 34.5 -166.5t96.5 -114.5t140 -41q79 0 140.5 41zM332.5 775.5q-20.5 18.5 -20.5 45.5q0 26 20 45t48 19q30 0 50.5 -18.5t20.5 -45.5t-20 -45.5t-49 -18.5t-49.5 18.5zM517 775.5q-20 18.5 -20 45.5t20 45t49 18t49.5 -18.5t20.5 -44.5q0 -27 -20.5 -45.5
t-49.5 -18.5t-49 18.5z" />
    <glyph glyph-name="multiply" unicode="&#xd7;" horiz-adv-x="525" 
d="M80 170l161 157l-154 154l45 43l154 -153l149 145l44 -42l-150 -146l156 -157l-42 -45l-158 158l-162 -158z" />
    <glyph glyph-name="Oslash" unicode="&#xd8;" horiz-adv-x="952" 
d="M854.5 506q35.5 -72 35.5 -157q0 -106 -54 -190t-148.5 -131.5t-212.5 -47.5q-70 0 -133 17.5t-114 50.5l-62 -68h-72l90 100q-58 50 -90 119t-32 150q0 105 54 190t148.5 133t211.5 48q131 0 234 -60l55 60h73l-83 -91q64 -51 99.5 -123zM254 156l401 442
q-36 36 -81.5 55.5t-97.5 19.5q-77 0 -139 -42t-97 -116t-35 -166q0 -111 49 -193zM616.5 68q61.5 41 96 114t34.5 167q0 121 -58 207l-403 -444q36 -41 84.5 -63t105.5 -22q79 0 140.5 41z" />
    <glyph glyph-name="Ugrave" unicode="&#xd9;" horiz-adv-x="714" 
d="M140 54.5q-78 74.5 -78 220.5v435h138v-446q0 -113 47 -170.5t139 -57.5q104 0 155 58.5t51 177.5v438h60v-437q0 -146 -71 -219.5t-212 -73.5q-151 0 -229 74.5zM234 881h126l97 -157h-63z" />
    <glyph glyph-name="Uacute" unicode="&#xda;" horiz-adv-x="714" 
d="M140 54.5q-78 74.5 -78 220.5v435h138v-446q0 -113 47 -170.5t139 -57.5q104 0 155 58.5t51 177.5v438h60v-437q0 -146 -71 -219.5t-212 -73.5q-151 0 -229 74.5zM433 888h126l-160 -157h-63z" />
    <glyph glyph-name="Ucircumflex" unicode="&#xdb;" horiz-adv-x="714" 
d="M140 54.5q-78 74.5 -78 220.5v435h138v-446q0 -113 47 -170.5t139 -57.5q104 0 155 58.5t51 177.5v438h60v-437q0 -146 -71 -219.5t-212 -73.5q-151 0 -229 74.5zM313 897h167l97 -157h-63l-117 116l-118 -116h-63z" />
    <glyph glyph-name="Udieresis" unicode="&#xdc;" horiz-adv-x="714" 
d="M140 54.5q-78 74.5 -78 220.5v435h138v-446q0 -113 47 -170.5t139 -57.5q104 0 155 58.5t51 177.5v438h60v-437q0 -146 -71 -219.5t-212 -73.5q-151 0 -229 74.5zM255.5 752.5q-20.5 18.5 -20.5 45.5q0 26 20 45t48 19q30 0 50.5 -18.5t20.5 -45.5t-20 -45.5t-49 -18.5
t-49.5 18.5zM440 752.5q-20 18.5 -20 45.5t20 45t49 18t49.5 -18.5t20.5 -44.5q0 -27 -20.5 -45.5t-49.5 -18.5t-49 18.5z" />
    <glyph glyph-name="Yacute" unicode="&#xdd;" horiz-adv-x="733" 
d="M304 275l-277 435h152l232 -365l234 365h65l-268 -417v-303h-138v285zM483 905h126l-160 -157h-63z" />
    <glyph glyph-name="Thorn" unicode="&#xde;" horiz-adv-x="729" 
d="M62 710h138v-140h183q141 0 222.5 -56t81.5 -154t-81.5 -154t-222.5 -56h-183v-160h-138v720zM383 194q84 0 122.5 39.5t38.5 126.5t-38.5 126.5t-122.5 39.5h-183v-332h183z" />
    <glyph glyph-name="germandbls" unicode="&#xdf;" horiz-adv-x="607" 
d="M250 -0.5q-42 20.5 -62 56.5v-66h-134v437q0 106 63.5 165t179.5 59q64 0 112 -24t74 -63t26 -82q0 -39 -22 -73.5t-65 -57.5q71 -17 112 -63.5t41 -110.5q0 -58 -29 -103t-81.5 -70t-118.5 -25q-54 0 -96 20.5zM393.5 40q27.5 20 43.5 55.5t16 78.5q0 144 -128 149
q-20 -2 -35 -2q-7 0 -25 2v39q12 -4 26 -4q41 0 67.5 37.5t26.5 94.5q0 58 -25 91t-68 33q-48 0 -76 -39.5t-28 -108.5v-362h39q5 -40 32.5 -62t72.5 -22q34 0 61.5 20z" />
    <glyph glyph-name="agrave" unicode="&#xe0;" 
d="M151 11.5q-55 31.5 -86 87t-31 126.5q0 73 30.5 129t86.5 86.5t128 30.5q84 0 146 -51v40h131v-470h-134v41q-29 -25 -66.5 -38t-78.5 -13q-71 0 -126 31.5zM360.5 54.5q28.5 23.5 45 65t16.5 93.5v21q0 54 -17.5 97.5t-47 68.5t-65.5 25q-35 0 -62 -24.5t-42 -69
t-15 -101.5q0 -56 16 -101.5t44.5 -71.5t63.5 -26t63.5 23.5zM171 652h126l97 -157h-63z" />
    <glyph glyph-name="aacute" unicode="&#xe1;" 
d="M151 11.5q-55 31.5 -86 87t-31 126.5q0 73 30.5 129t86.5 86.5t128 30.5q84 0 146 -51v40h131v-470h-134v41q-29 -25 -66.5 -38t-78.5 -13q-71 0 -126 31.5zM360.5 54.5q28.5 23.5 45 65t16.5 93.5v21q0 54 -17.5 97.5t-47 68.5t-65.5 25q-35 0 -62 -24.5t-42 -69
t-15 -101.5q0 -56 16 -101.5t44.5 -71.5t63.5 -26t63.5 23.5zM368 650h126l-160 -157h-63z" />
    <glyph glyph-name="acircumflex" unicode="&#xe2;" 
d="M151 11.5q-55 31.5 -86 87t-31 126.5q0 73 30.5 129t86.5 86.5t128 30.5q84 0 146 -51v40h131v-470h-134v41q-29 -25 -66.5 -38t-78.5 -13q-71 0 -126 31.5zM360.5 54.5q28.5 23.5 45 65t16.5 93.5v21q0 54 -17.5 97.5t-47 68.5t-65.5 25q-35 0 -62 -24.5t-42 -69
t-15 -101.5q0 -56 16 -101.5t44.5 -71.5t63.5 -26t63.5 23.5zM249 661h167l97 -157h-63l-117 116l-118 -116h-63z" />
    <glyph glyph-name="atilde" unicode="&#xe3;" 
d="M151 11.5q-55 31.5 -86 87t-31 126.5q0 73 30.5 129t86.5 86.5t128 30.5q84 0 146 -51v40h131v-470h-134v41q-29 -25 -66.5 -38t-78.5 -13q-71 0 -126 31.5zM360.5 54.5q28.5 23.5 45 65t16.5 93.5v21q0 54 -17.5 97.5t-47 68.5t-65.5 25q-35 0 -62 -24.5t-42 -69
t-15 -101.5q0 -56 16 -101.5t44.5 -71.5t63.5 -26t63.5 23.5zM354.5 505.5q-26.5 9.5 -61.5 26.5q-28 14 -45.5 21t-30.5 7q-25 0 -35.5 -13t-8.5 -40h-47q-2 70 19.5 102t69.5 32q26 0 51.5 -8.5t60.5 -24.5q29 -13 47 -19.5t32 -6.5q20 0 32 10.5t12 27.5q0 7 -1 10h48
q2 -70 -19.5 -102t-69.5 -32q-27 0 -53.5 9.5z" />
    <glyph glyph-name="adieresis" unicode="&#xe4;" 
d="M151 11.5q-55 31.5 -86 87t-31 126.5q0 73 30.5 129t86.5 86.5t128 30.5q84 0 146 -51v40h131v-470h-134v41q-29 -25 -66.5 -38t-78.5 -13q-71 0 -126 31.5zM360.5 54.5q28.5 23.5 45 65t16.5 93.5v21q0 54 -17.5 97.5t-47 68.5t-65.5 25q-35 0 -62 -24.5t-42 -69
t-15 -101.5q0 -56 16 -101.5t44.5 -71.5t63.5 -26t63.5 23.5zM171.5 518.5q-20.5 18.5 -20.5 45.5q0 26 20 45t48 19q30 0 50.5 -18.5t20.5 -45.5t-20 -45.5t-49 -18.5t-49.5 18.5zM356 518.5q-20 18.5 -20 45.5t20 45t49 18t49.5 -18.5t20.5 -44.5q0 -27 -20.5 -45.5
t-49.5 -18.5t-49 18.5z" />
    <glyph glyph-name="aring" unicode="&#xe5;" 
d="M151 11.5q-55 31.5 -86 87t-31 126.5q0 73 30.5 129t86.5 86.5t128 30.5q84 0 146 -51v40h131v-470h-134v41q-29 -25 -66.5 -38t-78.5 -13q-71 0 -126 31.5zM360.5 54.5q28.5 23.5 45 65t16.5 93.5v21q0 54 -17.5 97.5t-47 68.5t-65.5 25q-35 0 -62 -24.5t-42 -69
t-15 -101.5q0 -56 16 -101.5t44.5 -71.5t63.5 -26t63.5 23.5zM224.5 524q-35.5 34 -35.5 81t35.5 81t84.5 34t84.5 -34t35.5 -81t-35.5 -81t-84.5 -34t-84.5 34zM351.5 557.5q17.5 19.5 17.5 47.5q0 26 -17.5 46.5t-40.5 20.5q-25 0 -43.5 -20t-18.5 -47q0 -28 17.5 -47.5
t42.5 -19.5t42.5 19.5z" />
    <glyph glyph-name="ae" unicode="&#xe6;" horiz-adv-x="908" 
d="M129.5 -4q-47.5 17 -76.5 50t-29 77q0 76 73.5 117t208.5 41q33 0 50 -1q-1 79 -24.5 114.5t-71.5 35.5q-47 0 -72 -23t-33 -73l-94 13q14 59 70 92t140 33q50 0 96 -16.5t75 -44.5q35 28 84 43.5t100 15.5q75 0 132 -32t87.5 -89.5t28.5 -132.5h-379q2 -52 24.5 -91.5
t58 -60.5t76.5 -21q44 0 83.5 25.5t66.5 75.5l53 -40q-28 -54 -94 -88t-141 -34q-54 0 -105.5 18.5t-86.5 50.5q-37 -36 -89.5 -54t-108.5 -18q-55 0 -102.5 17zM747 263q-6 76 -38.5 119.5t-83.5 43.5q-48 0 -84 -45.5t-44 -117.5h250zM328 45.5q36 16.5 65 48.5
q-19 31 -28 62t-9 69v13q-15 1 -42 1q-83 0 -119 -27.5t-36 -90.5q0 -43 28 -67.5t71 -24.5q34 0 70 16.5z" />
    <glyph glyph-name="ccedilla" unicode="&#xe7;" horiz-adv-x="565" 
d="M458.5 30q-45.5 -32 -103.5 -43l-8 -16q53 -2 85 -30t32 -71q0 -50 -34.5 -79t-84.5 -29q-36 0 -72 15.5t-64 46.5l22 33q45 -34 74 -34q22 0 35 16t13 38q0 21 -14 36.5t-39 15.5q-22 0 -48 -11l32 64q-73 3 -129.5 35.5t-88.5 86.5t-32 122q0 70 34.5 125.5t96 87
t139.5 31.5q73 0 133 -32.5t87 -86.5l-84 -45q-14 62 -45 91t-83 29q-61 0 -99 -53.5t-38 -138.5q0 -94 38 -148t104 -54q50 0 82 28t53 90l79 -38q-27 -50 -72.5 -82z" />
    <glyph glyph-name="egrave" unicode="&#xe8;" horiz-adv-x="586" 
d="M162.5 13.5q-60.5 31.5 -94.5 87t-34 125.5t34.5 125.5t96 87t139.5 31.5q75 0 132 -32t87.5 -89.5t28.5 -132.5h-379q2 -52 24.5 -91.5t58 -60.5t76.5 -21q44 0 83.5 25.5t66.5 75.5l53 -40q-28 -54 -94 -88t-141 -34q-77 0 -137.5 31.5zM425 263q-6 76 -39 119.5
t-83 43.5q-48 0 -84 -45.5t-44 -117.5h250zM130 649h126l97 -157h-63z" />
    <glyph glyph-name="eacute" unicode="&#xe9;" horiz-adv-x="586" 
d="M162.5 13.5q-60.5 31.5 -94.5 87t-34 125.5t34.5 125.5t96 87t139.5 31.5q75 0 132 -32t87.5 -89.5t28.5 -132.5h-379q2 -52 24.5 -91.5t58 -60.5t76.5 -21q44 0 83.5 25.5t66.5 75.5l53 -40q-28 -54 -94 -88t-141 -34q-77 0 -137.5 31.5zM425 263q-6 76 -39 119.5
t-83 43.5q-48 0 -84 -45.5t-44 -117.5h250zM370 652h126l-160 -157h-63z" />
    <glyph glyph-name="ecircumflex" unicode="&#xea;" horiz-adv-x="586" 
d="M162.5 13.5q-60.5 31.5 -94.5 87t-34 125.5t34.5 125.5t96 87t139.5 31.5q75 0 132 -32t87.5 -89.5t28.5 -132.5h-379q2 -52 24.5 -91.5t58 -60.5t76.5 -21q44 0 83.5 25.5t66.5 75.5l53 -40q-28 -54 -94 -88t-141 -34q-77 0 -137.5 31.5zM425 263q-6 76 -39 119.5
t-83 43.5q-48 0 -84 -45.5t-44 -117.5h250zM216 650h167l97 -157h-63l-117 116l-118 -116h-63z" />
    <glyph glyph-name="edieresis" unicode="&#xeb;" horiz-adv-x="586" 
d="M162.5 13.5q-60.5 31.5 -94.5 87t-34 125.5t34.5 125.5t96 87t139.5 31.5q75 0 132 -32t87.5 -89.5t28.5 -132.5h-379q2 -52 24.5 -91.5t58 -60.5t76.5 -21q44 0 83.5 25.5t66.5 75.5l53 -40q-28 -54 -94 -88t-141 -34q-77 0 -137.5 31.5zM425 263q-6 76 -39 119.5
t-83 43.5q-48 0 -84 -45.5t-44 -117.5h250zM156.5 514.5q-20.5 18.5 -20.5 45.5q0 26 20 45t48 19q30 0 50.5 -18.5t20.5 -45.5t-20 -45.5t-49 -18.5t-49.5 18.5zM341 514.5q-20 18.5 -20 45.5t20 45t49 18t49.5 -18.5t20.5 -44.5q0 -27 -20.5 -45.5t-49.5 -18.5t-49 18.5z
" />
    <glyph glyph-name="igrave" unicode="&#xec;" horiz-adv-x="242" 
d="M54 460h134v-470h-134v470zM-40 649h126l97 -157h-63z" />
    <glyph glyph-name="iacute" unicode="&#xed;" horiz-adv-x="242" 
d="M54 460h134v-470h-134v470zM159 648h126l-160 -157h-63z" />
    <glyph glyph-name="icircumflex" unicode="&#xee;" horiz-adv-x="242" 
d="M54 460h134v-470h-134v470zM37 650h167l97 -157h-63l-117 116l-118 -116h-63z" />
    <glyph glyph-name="idieresis" unicode="&#xef;" horiz-adv-x="242" 
d="M54 460h134v-470h-134v470zM-19.5 513.5q-20.5 18.5 -20.5 45.5q0 26 20 45t48 19q30 0 50.5 -18.5t20.5 -45.5t-20 -45.5t-49 -18.5t-49.5 18.5zM165 513.5q-20 18.5 -20 45.5t20 45t49 18t49.5 -18.5t20.5 -44.5q0 -27 -20.5 -45.5t-49.5 -18.5t-49 18.5z" />
    <glyph glyph-name="eth" unicode="&#xf0;" 
d="M633 535h-77v-545h-134v41q-29 -25 -66.5 -38t-78.5 -13q-71 0 -126 31.5t-86 87t-31 126.5q0 73 31 129t86.5 86.5t128.5 30.5q40 0 76.5 -12.5t65.5 -35.5v112h-79v47h79v128h134v-128h77v-47zM422 234q0 54 -17.5 97.5t-47 68.5t-65.5 25q-35 0 -62 -24.5t-42 -69
t-15 -101.5q0 -56 16 -101.5t44.5 -71.5t63.5 -26t63.5 23.5t45 65t16.5 93.5v21z" />
    <glyph glyph-name="ntilde" unicode="&#xf1;" horiz-adv-x="604" 
d="M54 460h131v-77q36 43 83 65t101 22q98 0 145 -53t47 -164v-263h-134v263q0 89 -18 127t-60 38q-40 0 -76 -27.5t-59 -74.5t-26 -102v-224h-134v470zM377.5 509.5q-26.5 9.5 -61.5 26.5q-28 14 -45.5 21t-30.5 7q-25 0 -35.5 -13t-8.5 -40h-47q-2 70 19.5 102t69.5 32
q26 0 51.5 -8.5t60.5 -24.5q29 -13 47 -19.5t32 -6.5q20 0 32 10.5t12 27.5q0 7 -1 10h48q2 -70 -19.5 -102t-69.5 -32q-27 0 -53.5 9.5z" />
    <glyph glyph-name="ograve" unicode="&#xf2;" horiz-adv-x="620" 
d="M166.5 13q-62.5 31 -97.5 86.5t-35 126.5t35 126.5t97.5 86.5t143.5 31t143.5 -31t97.5 -86.5t35 -126.5t-35 -126.5t-97.5 -86.5t-143.5 -31t-143.5 31zM410.5 81q36.5 55 36.5 152q0 90 -37 141.5t-101 51.5t-100 -53.5t-36 -147.5t36 -146.5t100 -52.5q65 0 101.5 55z
M119 651h126l97 -157h-63z" />
    <glyph glyph-name="oacute" unicode="&#xf3;" horiz-adv-x="620" 
d="M166.5 13q-62.5 31 -97.5 86.5t-35 126.5t35 126.5t97.5 86.5t143.5 31t143.5 -31t97.5 -86.5t35 -126.5t-35 -126.5t-97.5 -86.5t-143.5 -31t-143.5 31zM410.5 81q36.5 55 36.5 152q0 90 -37 141.5t-101 51.5t-100 -53.5t-36 -147.5t36 -146.5t100 -52.5q65 0 101.5 55z
M370 650h126l-160 -157h-63z" />
    <glyph glyph-name="ocircumflex" unicode="&#xf4;" horiz-adv-x="620" 
d="M166.5 13q-62.5 31 -97.5 86.5t-35 126.5t35 126.5t97.5 86.5t143.5 31t143.5 -31t97.5 -86.5t35 -126.5t-35 -126.5t-97.5 -86.5t-143.5 -31t-143.5 31zM410.5 81q36.5 55 36.5 152q0 90 -37 141.5t-101 51.5t-100 -53.5t-36 -147.5t36 -146.5t100 -52.5q65 0 101.5 55z
M223 650h167l97 -157h-63l-117 116l-118 -116h-63z" />
    <glyph glyph-name="otilde" unicode="&#xf5;" horiz-adv-x="620" 
d="M166.5 13q-62.5 31 -97.5 86.5t-35 126.5t35 126.5t97.5 86.5t143.5 31t143.5 -31t97.5 -86.5t35 -126.5t-35 -126.5t-97.5 -86.5t-143.5 -31t-143.5 31zM410.5 81q36.5 55 36.5 152q0 90 -37 141.5t-101 51.5t-100 -53.5t-36 -147.5t36 -146.5t100 -52.5q65 0 101.5 55z
M346.5 503.5q-26.5 9.5 -61.5 26.5q-28 14 -45.5 21t-30.5 7q-25 0 -35.5 -13t-8.5 -40h-47q-2 70 19.5 102t69.5 32q26 0 51.5 -8.5t60.5 -24.5q29 -13 47 -19.5t32 -6.5q20 0 32 10.5t12 27.5q0 7 -1 10h48q2 -70 -19.5 -102t-69.5 -32q-27 0 -53.5 9.5z" />
    <glyph glyph-name="odieresis" unicode="&#xf6;" horiz-adv-x="620" 
d="M166.5 13q-62.5 31 -97.5 86.5t-35 126.5t35 126.5t97.5 86.5t143.5 31t143.5 -31t97.5 -86.5t35 -126.5t-35 -126.5t-97.5 -86.5t-143.5 -31t-143.5 31zM410.5 81q36.5 55 36.5 152q0 90 -37 141.5t-101 51.5t-100 -53.5t-36 -147.5t36 -146.5t100 -52.5q65 0 101.5 55z
M158.5 512.5q-20.5 18.5 -20.5 45.5q0 26 20 45t48 19q30 0 50.5 -18.5t20.5 -45.5t-20 -45.5t-49 -18.5t-49.5 18.5zM343 512.5q-20 18.5 -20 45.5t20 45t49 18t49.5 -18.5t20.5 -44.5q0 -27 -20.5 -45.5t-49.5 -18.5t-49 18.5z" />
    <glyph glyph-name="divide" unicode="&#xf7;" horiz-adv-x="627" 
d="M278 437.5q-20 18.5 -20 44.5t19.5 44t48.5 18q28 0 47.5 -18t19.5 -44t-19.5 -44.5t-47.5 -18.5t-48 18.5zM80 358h507v-57h-507v57zM277.5 117q-19.5 18 -19.5 45q0 26 19.5 44t48.5 18q28 0 47.5 -18t19.5 -44q0 -27 -19 -45t-48 -18t-48.5 18z" />
    <glyph glyph-name="oslash" unicode="&#xf8;" horiz-adv-x="620" 
d="M566.5 323.5q19.5 -44.5 19.5 -97.5q0 -71 -35 -126.5t-97.5 -86.5t-143.5 -31q-88 0 -158 38l-45 -48h-73l75 80q-36 33 -55.5 77t-19.5 97q0 71 35 126.5t97.5 86.5t143.5 31q90 0 156 -37l47 50h74l-77 -82q37 -33 56.5 -77.5zM185 133l225 241q-17 25 -43 38.5
t-58 13.5q-64 0 -100 -53.5t-36 -147.5q0 -53 12 -92zM410.5 81q36.5 55 36.5 152q0 51 -12 88l-227 -241q37 -54 101 -54q65 0 101.5 55z" />
    <glyph glyph-name="ugrave" unicode="&#xf9;" horiz-adv-x="604" 
d="M91 33q-47 53 -47 164v263h134v-263q0 -89 18 -127t60 -38q40 0 76 27.5t59 74.5t26 102v224h134v-470h-131v77q-36 -43 -83 -65t-101 -22q-98 0 -145 53zM138 666h126l97 -157h-63z" />
    <glyph glyph-name="uacute" unicode="&#xfa;" horiz-adv-x="604" 
d="M91 33q-47 53 -47 164v263h134v-263q0 -89 18 -127t60 -38q40 0 76 27.5t59 74.5t26 102v224h134v-470h-131v77q-36 -43 -83 -65t-101 -22q-98 0 -145 53zM366 662h126l-160 -157h-63z" />
    <glyph glyph-name="ucircumflex" unicode="&#xfb;" horiz-adv-x="604" 
d="M91 33q-47 53 -47 164v263h134v-263q0 -89 18 -127t60 -38q40 0 76 27.5t59 74.5t26 102v224h134v-470h-131v77q-36 -43 -83 -65t-101 -22q-98 0 -145 53zM216 670h167l97 -157h-63l-117 116l-118 -116h-63z" />
    <glyph glyph-name="udieresis" unicode="&#xfc;" horiz-adv-x="604" 
d="M91 33q-47 53 -47 164v263h134v-263q0 -89 18 -127t60 -38q40 0 76 27.5t59 74.5t26 102v224h134v-470h-131v77q-36 -43 -83 -65t-101 -22q-98 0 -145 53zM182.5 513.5q-20.5 18.5 -20.5 45.5q0 26 20 45t48 19q30 0 50.5 -18.5t20.5 -45.5t-20 -45.5t-49 -18.5
t-49.5 18.5zM367 513.5q-20 18.5 -20 45.5t20 45t49 18t49.5 -18.5t20.5 -44.5q0 -27 -20.5 -45.5t-49.5 -18.5t-49 18.5z" />
    <glyph glyph-name="yacute" unicode="&#xfd;" horiz-adv-x="605" 
d="M178 -198.5q-55 22.5 -81 60.5l32 51q21 -35 64.5 -59t89.5 -24q58 0 96 43.5t38 135.5v55q-36 -41 -82 -62.5t-99 -21.5q-98 0 -145 53t-47 164v263h134v-263q0 -89 18 -127t60 -38q40 0 76 27.5t59 74.5t26 102v224h134v-450q0 -78 -36 -130t-94 -76.5t-124 -24.5
q-64 0 -119 22.5zM339 651h126l-160 -157h-63z" />
    <glyph glyph-name="thorn" unicode="&#xfe;" 
d="M54 710h131v-290q62 51 146 51q72 0 128 -30.5t86.5 -86.5t30.5 -129q0 -71 -31 -126.5t-86 -87t-126 -31.5q-86 0 -145 45v-235h-134v920zM376.5 57q28.5 26 44.5 71.5t16 101.5q0 57 -15 101.5t-42 69t-62 24.5q-36 0 -65.5 -25t-47 -68.5t-17.5 -97.5v-20
q0 -53 16.5 -94.5t44.5 -65t64 -23.5q35 0 63.5 26z" />
    <glyph glyph-name="ydieresis" unicode="&#xff;" horiz-adv-x="605" 
d="M178 -198.5q-55 22.5 -81 60.5l32 51q21 -35 64.5 -59t89.5 -24q58 0 96 43.5t38 135.5v55q-36 -41 -82 -62.5t-99 -21.5q-98 0 -145 53t-47 164v263h134v-263q0 -89 18 -127t60 -38q40 0 76 27.5t59 74.5t26 102v224h134v-450q0 -78 -36 -130t-94 -76.5t-124 -24.5
q-64 0 -119 22.5zM150.5 515.5q-20.5 18.5 -20.5 45.5q0 26 20 45t48 19q30 0 50.5 -18.5t20.5 -45.5t-20 -45.5t-49 -18.5t-49.5 18.5zM335 515.5q-20 18.5 -20 45.5t20 45t49 18t49.5 -18.5t20.5 -44.5q0 -27 -20.5 -45.5t-49.5 -18.5t-49 18.5z" />
    <glyph glyph-name="Amacron" unicode="&#x100;" horiz-adv-x="750" 
d="M317 710h111l293 -720h-143l-95 233h-301l-94 -233h-60zM464 270l-133 326l-131 -326h264zM190 822h356v-75h-356v75z" />
    <glyph glyph-name="amacron" unicode="&#x101;" 
d="M151 11.5q-55 31.5 -86 87t-31 126.5q0 73 30.5 129t86.5 86.5t128 30.5q84 0 146 -51v40h131v-470h-134v41q-29 -25 -66.5 -38t-78.5 -13q-71 0 -126 31.5zM360.5 54.5q28.5 23.5 45 65t16.5 93.5v21q0 54 -17.5 97.5t-47 68.5t-65.5 25q-35 0 -62 -24.5t-42 -69
t-15 -101.5q0 -56 16 -101.5t44.5 -71.5t63.5 -26t63.5 23.5zM142 591h356v-75h-356v75z" />
    <glyph glyph-name="Abreve" unicode="&#x102;" horiz-adv-x="750" 
d="M317 710h111l293 -720h-143l-95 233h-301l-94 -233h-60zM464 270l-133 326l-131 -326h264zM244.5 800q-49.5 50 -48.5 131h51q-1 -47 32 -73.5t95 -26.5t95 26.5t32 73.5h51q1 -81 -48.5 -131t-129.5 -50t-129.5 50z" />
    <glyph glyph-name="abreve" unicode="&#x103;" 
d="M151 11.5q-55 31.5 -86 87t-31 126.5q0 73 30.5 129t86.5 86.5t128 30.5q84 0 146 -51v40h131v-470h-134v41q-29 -25 -66.5 -38t-78.5 -13q-71 0 -126 31.5zM360.5 54.5q28.5 23.5 45 65t16.5 93.5v21q0 54 -17.5 97.5t-47 68.5t-65.5 25q-35 0 -62 -24.5t-42 -69
t-15 -101.5q0 -56 16 -101.5t44.5 -71.5t63.5 -26t63.5 23.5zM191.5 546q-49.5 50 -48.5 131h51q-1 -47 32 -73.5t95 -26.5t95 26.5t32 73.5h51q1 -81 -48.5 -131t-129.5 -50t-129.5 50z" />
    <glyph glyph-name="Aogonek" unicode="&#x104;" horiz-adv-x="750" 
d="M768 -176q-25 -35 -61 -53t-72 -18q-42 0 -70.5 23.5t-28.5 64.5q0 63 73 149h-31l-95 233h-301l-94 -233h-60l289 720h111l293 -720h-48q-22 -24 -33 -50.5t-11 -50.5q0 -29 14.5 -47.5t38.5 -18.5q25 0 53 21zM464 270l-133 326l-131 -326h264z" />
    <glyph glyph-name="aogonek" unicode="&#x105;" 
d="M638 -151q-25 -35 -61 -53t-72 -18q-42 0 -70.5 23.5t-28.5 64.5q0 54 53 124h-37v41q-29 -25 -66.5 -38t-78.5 -13q-71 0 -126 31.5t-86 87t-31 126.5q0 73 30.5 129t86.5 86.5t128 30.5q84 0 146 -51v40h131v-470h-32q-25 -38 -25 -76q0 -29 14.5 -47.5t38.5 -18.5
q25 0 53 21zM422 234q0 54 -17.5 97.5t-47 68.5t-65.5 25q-35 0 -62 -24.5t-42 -69t-15 -101.5q0 -56 16 -101.5t44.5 -71.5t63.5 -26t63.5 23.5t45 65t16.5 93.5v21z" />
    <glyph glyph-name="Cacute" unicode="&#x106;" horiz-adv-x="811" 
d="M257 27q-92 47 -143.5 131t-51.5 191q0 106 52 190t144 131.5t209 47.5q65 0 127 -19t106.5 -52t59.5 -72l-84 -29q-26 65 -76 98t-123 33q-74 0 -136 -43.5t-98 -118t-36 -164.5q0 -91 35.5 -166.5t97.5 -119.5t136 -44q73 0 123 33t76 98l84 -29q-15 -39 -59.5 -72
t-106.5 -52t-127 -19q-117 0 -209 47zM522 907h126l-160 -157h-63z" />
    <glyph glyph-name="cacute" unicode="&#x107;" horiz-adv-x="565" 
d="M162.5 13.5q-60.5 31.5 -94.5 87t-34 125.5t34.5 125.5t96 87t139.5 31.5q73 0 133 -32.5t87 -86.5l-84 -45q-14 62 -45 91t-83 29q-61 0 -99 -53.5t-38 -138.5q0 -94 38 -148t104 -54q50 0 82 28t53 90l79 -38q-33 -61 -94 -95.5t-137 -34.5q-77 0 -137.5 31.5zM369 653
h126l-160 -157h-63z" />
    <glyph glyph-name="Cdotaccent" unicode="&#x10a;" horiz-adv-x="811" 
d="M257 27q-92 47 -143.5 131t-51.5 191q0 106 52 190t144 131.5t209 47.5q65 0 127 -19t106.5 -52t59.5 -72l-84 -29q-26 65 -76 98t-123 33q-74 0 -136 -43.5t-98 -118t-36 -164.5q0 -91 35.5 -166.5t97.5 -119.5t136 -44q73 0 123 33t76 98l84 -29q-15 -39 -59.5 -72
t-106.5 -52t-127 -19q-117 0 -209 47zM412 769.5q-20 18.5 -20 45.5t19.5 45.5t47.5 18.5q30 0 50.5 -18.5t20.5 -45.5t-20 -45.5t-49 -18.5t-49 18.5z" />
    <glyph glyph-name="cdotaccent" unicode="&#x10b;" horiz-adv-x="565" 
d="M162.5 13.5q-60.5 31.5 -94.5 87t-34 125.5t34.5 125.5t96 87t139.5 31.5q73 0 133 -32.5t87 -86.5l-84 -45q-14 62 -45 91t-83 29q-61 0 -99 -53.5t-38 -138.5q0 -94 38 -148t104 -54q50 0 82 28t53 90l79 -38q-33 -61 -94 -95.5t-137 -34.5q-77 0 -137.5 31.5z
M265 513.5q-20 18.5 -20 45.5t19.5 45.5t47.5 18.5q30 0 50.5 -18.5t20.5 -45.5t-20 -45.5t-49 -18.5t-49 18.5z" />
    <glyph glyph-name="Ccaron" unicode="&#x10c;" horiz-adv-x="811" 
d="M257 27q-92 47 -143.5 131t-51.5 191q0 106 52 190t144 131.5t209 47.5q65 0 127 -19t106.5 -52t59.5 -72l-84 -29q-26 65 -76 98t-123 33q-74 0 -136 -43.5t-98 -118t-36 -164.5q0 -91 35.5 -166.5t97.5 -119.5t136 -44q73 0 123 33t76 98l84 -29q-15 -39 -59.5 -72
t-106.5 -52t-127 -19q-117 0 -209 47zM287 907h63l118 -116l117 116h63l-97 -157h-167z" />
    <glyph glyph-name="ccaron" unicode="&#x10d;" horiz-adv-x="565" 
d="M162.5 13.5q-60.5 31.5 -94.5 87t-34 125.5t34.5 125.5t96 87t139.5 31.5q73 0 133 -32.5t87 -86.5l-84 -45q-14 62 -45 91t-83 29q-61 0 -99 -53.5t-38 -138.5q0 -94 38 -148t104 -54q50 0 82 28t53 90l79 -38q-33 -61 -94 -95.5t-137 -34.5q-77 0 -137.5 31.5zM125 651
h63l118 -116l117 116h63l-97 -157h-167z" />
    <glyph glyph-name="Dcaron" unicode="&#x10e;" horiz-adv-x="798" 
d="M62 710h266q129 0 223.5 -41.5t144.5 -119t50 -182.5q0 -119 -49 -203.5t-143 -129t-225 -44.5h-267v720zM329 34q136 0 205 83t69 247q0 149 -69.5 226t-205.5 77h-128v-633h129zM179 891h63l118 -116l117 116h63l-97 -157h-167z" />
    <glyph glyph-name="dcaron" unicode="&#x10f;" 
d="M151 11.5q-55 31.5 -86 87t-31 126.5q0 73 31 129t86.5 86.5t128.5 30.5q40 0 76.5 -12.5t65.5 -35.5v287h134v-720h-134v41q-29 -25 -66.5 -38t-78.5 -13q-71 0 -126 31.5zM360.5 54.5q28.5 23.5 45 65t16.5 93.5v21q0 54 -17.5 97.5t-47 68.5t-65.5 25q-35 0 -62 -24.5
t-42 -69t-15 -101.5q0 -56 16 -101.5t44.5 -71.5t63.5 -26t63.5 23.5zM638 532q11 22 11 38q0 7 -3.5 12t-13.5 12q-21 16 -29.5 29t-8.5 32q0 27 19.5 45t48.5 18q21 0 38.5 -11.5t24.5 -29.5q6 -15 6 -34q0 -31 -15.5 -65.5t-43.5 -64.5z" />
    <glyph glyph-name="Dcroat" unicode="&#x110;" horiz-adv-x="798" 
d="M62 330h-80v53h80v327h266q129 0 223.5 -41.5t144.5 -119t50 -182.5q0 -119 -49 -203.5t-143 -129t-225 -44.5h-267v340zM329 34q136 0 205 83t69 247q0 149 -69.5 226t-205.5 77h-128v-284h127v-53h-127v-296h129z" />
    <glyph glyph-name="dcroat" unicode="&#x111;" 
d="M633 535h-77v-545h-134v41q-29 -25 -66.5 -38t-78.5 -13q-71 0 -126 31.5t-86 87t-31 126.5q0 73 31 129t86.5 86.5t128.5 30.5q40 0 76.5 -12.5t65.5 -35.5v112h-79v47h79v128h134v-128h77v-47zM422 234q0 54 -17.5 97.5t-47 68.5t-65.5 25q-35 0 -62 -24.5t-42 -69
t-15 -101.5q0 -56 16 -101.5t44.5 -71.5t63.5 -26t63.5 23.5t45 65t16.5 93.5v21z" />
    <glyph glyph-name="Emacron" unicode="&#x112;" horiz-adv-x="665" 
d="M62 710h541v-47h-403v-278h310v-47h-310v-301h403v-47h-541v720zM150 842h356v-75h-356v75z" />
    <glyph glyph-name="emacron" unicode="&#x113;" horiz-adv-x="586" 
d="M162.5 13.5q-60.5 31.5 -94.5 87t-34 125.5t34.5 125.5t96 87t139.5 31.5q75 0 132 -32t87.5 -89.5t28.5 -132.5h-379q2 -52 24.5 -91.5t58 -60.5t76.5 -21q44 0 83.5 25.5t66.5 75.5l53 -40q-28 -54 -94 -88t-141 -34q-77 0 -137.5 31.5zM425 263q-6 76 -39 119.5
t-83 43.5q-48 0 -84 -45.5t-44 -117.5h250zM122 591h356v-75h-356v75z" />
    <glyph glyph-name="Edotaccent" unicode="&#x116;" horiz-adv-x="665" 
d="M62 710h541v-47h-403v-278h310v-47h-310v-301h403v-47h-541v720zM281 771.5q-20 18.5 -20 45.5t19.5 45.5t47.5 18.5q30 0 50.5 -18.5t20.5 -45.5t-20 -45.5t-49 -18.5t-49 18.5z" />
    <glyph glyph-name="edotaccent" unicode="&#x117;" horiz-adv-x="586" 
d="M162.5 13.5q-60.5 31.5 -94.5 87t-34 125.5t34.5 125.5t96 87t139.5 31.5q75 0 132 -32t87.5 -89.5t28.5 -132.5h-379q2 -52 24.5 -91.5t58 -60.5t76.5 -21q44 0 83.5 25.5t66.5 75.5l53 -40q-28 -54 -94 -88t-141 -34q-77 0 -137.5 31.5zM425 263q-6 76 -39 119.5
t-83 43.5q-48 0 -84 -45.5t-44 -117.5h250zM246 512.5q-20 18.5 -20 45.5t19.5 45.5t47.5 18.5q30 0 50.5 -18.5t20.5 -45.5t-20 -45.5t-49 -18.5t-49 18.5z" />
    <glyph glyph-name="Eogonek" unicode="&#x118;" horiz-adv-x="665" 
d="M200 663v-278h310v-47h-310v-301h403v-47h-212q-24 -25 -36 -52.5t-12 -52.5q0 -29 14.5 -47.5t38.5 -18.5q25 0 53 21l33 -20q-25 -35 -61 -53t-72 -18q-42 0 -70.5 23.5t-28.5 64.5q0 65 77 153h-265v720h541v-47h-403z" />
    <glyph glyph-name="eogonek" unicode="&#x119;" horiz-adv-x="586" 
d="M436 438q57 -32 87.5 -89.5t28.5 -132.5h-379q2 -52 24.5 -91.5t58 -60.5t76.5 -21q44 0 83.5 25.5t66.5 75.5l53 -40q-23 -44 -72.5 -75.5t-110.5 -42.5q-28 -40 -28 -80q0 -29 14.5 -47.5t38.5 -18.5q25 0 53 21l33 -20q-25 -35 -61 -53t-72 -18q-42 0 -70.5 23.5
t-28.5 64.5q0 54 53 124q-72 3 -129 35.5t-89 86.5t-32 122q0 70 34.5 125.5t96 87t139.5 31.5q75 0 132 -32zM425 263q-6 76 -39 119.5t-83 43.5q-48 0 -84 -45.5t-44 -117.5h250z" />
    <glyph glyph-name="Ecaron" unicode="&#x11a;" horiz-adv-x="665" 
d="M62 710h541v-47h-403v-278h310v-47h-310v-301h403v-47h-541v720zM180 924h63l118 -116l117 116h63l-97 -157h-167z" />
    <glyph glyph-name="ecaron" unicode="&#x11b;" horiz-adv-x="586" 
d="M162.5 13.5q-60.5 31.5 -94.5 87t-34 125.5t34.5 125.5t96 87t139.5 31.5q75 0 132 -32t87.5 -89.5t28.5 -132.5h-379q2 -52 24.5 -91.5t58 -60.5t76.5 -21q44 0 83.5 25.5t66.5 75.5l53 -40q-28 -54 -94 -88t-141 -34q-77 0 -137.5 31.5zM425 263q-6 76 -39 119.5
t-83 43.5q-48 0 -84 -45.5t-44 -117.5h250zM114 651h63l118 -116l117 116h63l-97 -157h-167z" />
    <glyph glyph-name="Gbreve" unicode="&#x11e;" horiz-adv-x="842" 
d="M257 27q-92 47 -143.5 131t-51.5 191q0 106 52 190t144 131.5t209 47.5q65 0 127 -19t106.5 -52t59.5 -72l-84 -29q-26 65 -76 98t-123 33q-75 0 -137.5 -43.5t-98.5 -118t-36 -164.5q0 -91 36 -166.5t98 -119t137 -43.5q51 0 96 17t70 46v215h138v-80
q0 -69 -40.5 -123.5t-112 -85.5t-161.5 -31q-117 0 -209 47zM357.5 802q-49.5 50 -48.5 131h51q-1 -47 32 -73.5t95 -26.5t95 26.5t32 73.5h51q1 -81 -48.5 -131t-129.5 -50t-129.5 50z" />
    <glyph glyph-name="gbreve" unicode="&#x11f;" 
d="M182 -202.5q-54 23.5 -80 64.5l32 51q25 -39 68 -64t87 -25q58 0 95.5 45t37.5 140v22q-29 -25 -66.5 -38t-78.5 -13q-71 0 -126 31.5t-86 87t-31 126.5q0 73 30.5 129t86.5 86.5t128 30.5q84 0 146 -51v40h131v-450q0 -78 -36.5 -131.5t-95 -79t-124.5 -25.5
q-64 0 -118 23.5zM360.5 62.5q28.5 23.5 45 65t16.5 93.5v8q0 54 -17.5 97.5t-47 68.5t-65.5 25q-53 0 -86 -52.5t-33 -137.5q0 -55 16 -98.5t44 -68t64 -24.5q35 0 63.5 23.5zM186.5 562q-49.5 50 -48.5 131h51q-1 -47 32 -73.5t95 -26.5t95 26.5t32 73.5h51
q1 -81 -48.5 -131t-129.5 -50t-129.5 50z" />
    <glyph glyph-name="Gdotaccent" unicode="&#x120;" horiz-adv-x="842" 
d="M257 27q-92 47 -143.5 131t-51.5 191q0 106 52 190t144 131.5t209 47.5q65 0 127 -19t106.5 -52t59.5 -72l-84 -29q-26 65 -76 98t-123 33q-75 0 -137.5 -43.5t-98.5 -118t-36 -164.5q0 -91 36 -166.5t98 -119t137 -43.5q51 0 96 17t70 46v215h138v-80
q0 -69 -40.5 -123.5t-112 -85.5t-161.5 -31q-117 0 -209 47zM433 768.5q-20 18.5 -20 45.5t19.5 45.5t47.5 18.5q30 0 50.5 -18.5t20.5 -45.5t-20 -45.5t-49 -18.5t-49 18.5z" />
    <glyph glyph-name="gdotaccent" unicode="&#x121;" 
d="M182 -202.5q-54 23.5 -80 64.5l32 51q25 -39 68 -64t87 -25q58 0 95.5 45t37.5 140v22q-29 -25 -66.5 -38t-78.5 -13q-71 0 -126 31.5t-86 87t-31 126.5q0 73 30.5 129t86.5 86.5t128 30.5q84 0 146 -51v40h131v-450q0 -78 -36.5 -131.5t-95 -79t-124.5 -25.5
q-64 0 -118 23.5zM360.5 62.5q28.5 23.5 45 65t16.5 93.5v8q0 54 -17.5 97.5t-47 68.5t-65.5 25q-53 0 -86 -52.5t-33 -137.5q0 -55 16 -98.5t44 -68t64 -24.5q35 0 63.5 23.5zM246 538.5q-20 18.5 -20 45.5t19.5 45.5t47.5 18.5q30 0 50.5 -18.5t20.5 -45.5t-20 -45.5
t-49 -18.5t-49 18.5z" />
    <glyph glyph-name="uni0122" unicode="&#x122;" horiz-adv-x="842" 
d="M257 27q-92 47 -143.5 131t-51.5 191q0 106 52 190t144 131.5t209 47.5q65 0 127 -19t106.5 -52t59.5 -72l-84 -29q-26 65 -76 98t-123 33q-75 0 -137.5 -43.5t-98.5 -118t-36 -164.5q0 -91 36 -166.5t98 -119t137 -43.5q51 0 96 17t70 46v215h138v-80
q0 -69 -40.5 -123.5t-112 -85.5t-161.5 -31q-117 0 -209 47zM474 -243q11 22 11 38q0 7 -3.5 12t-13.5 12q-21 16 -29.5 29t-8.5 32q0 27 19.5 45t48.5 18q21 0 38.5 -11.5t24.5 -29.5q6 -15 6 -34q0 -31 -15.5 -65.5t-43.5 -64.5z" />
    <glyph glyph-name="uni0123" unicode="&#x123;" 
d="M182 -202.5q-54 23.5 -80 64.5l32 51q25 -39 68 -64t87 -25q58 0 95.5 45t37.5 140v22q-29 -25 -66.5 -38t-78.5 -13q-71 0 -126 31.5t-86 87t-31 126.5q0 73 30.5 129t86.5 86.5t128 30.5q84 0 146 -51v40h131v-450q0 -78 -36.5 -131.5t-95 -79t-124.5 -25.5
q-64 0 -118 23.5zM360.5 62.5q28.5 23.5 45 65t16.5 93.5v8q0 54 -17.5 97.5t-47 68.5t-65.5 25q-53 0 -86 -52.5t-33 -137.5q0 -55 16 -98.5t44 -68t64 -24.5q35 0 63.5 23.5zM313 -428q11 22 11 38q0 7 -3.5 12t-13.5 12q-21 16 -29.5 29t-8.5 32q0 27 19.5 45t48.5 18
q21 0 38.5 -11.5t24.5 -29.5q6 -15 6 -34q0 -31 -15.5 -65.5t-43.5 -64.5z" />
    <glyph glyph-name="Hbar" unicode="&#x126;" horiz-adv-x="743" 
d="M62 710h138v-203h343v203h138v-720h-138v348h-343v-348h-138v720zM543 385v75h-343v-75h343z" />
    <glyph glyph-name="hbar" unicode="&#x127;" horiz-adv-x="605" 
d="M514 417q47 -53 47 -164v-263h-134v263q0 89 -18 127t-60 38q-40 0 -76 -27.5t-59 -74.5t-26 -102v-224h-134v520h-50v51h50v149h134v-149h71v-51h-71v-124q36 41 82 62.5t99 21.5q98 0 145 -53z" />
    <glyph glyph-name="Imacron" unicode="&#x12a;" horiz-adv-x="338" 
d="M72 710h138v-720h-138v720zM-9 832h356v-75h-356v75z" />
    <glyph glyph-name="imacron" unicode="&#x12b;" horiz-adv-x="242" 
d="M54 460h134v-470h-134v470zM-56 571h356v-75h-356v75z" />
    <glyph glyph-name="Iogonek" unicode="&#x12e;" horiz-adv-x="282" 
d="M266 -177q-25 -35 -61 -53t-72 -18q-42 0 -70.5 23.5t-28.5 64.5q0 65 74 150h-36v720h138v-720h-38q-22 -24 -33.5 -51t-11.5 -51q0 -29 14.5 -47.5t38.5 -18.5q25 0 53 21z" />
    <glyph glyph-name="iogonek" unicode="&#x12f;" horiz-adv-x="242" 
d="M64.5 541q-23.5 22 -23.5 52t23.5 52t55.5 22t55.5 -22t23.5 -52t-23.5 -52t-55.5 -22t-55.5 22zM267 -159q-25 -35 -61 -53t-72 -18q-42 0 -70.5 23.5t-28.5 64.5q0 58 59 132h-40v470h134v-470h-30q-30 -41 -30 -84q0 -29 14.5 -47.5t38.5 -18.5q25 0 53 21z" />
    <glyph glyph-name="Idotaccent" unicode="&#x130;" horiz-adv-x="282" 
d="M72 710h138v-720h-138v720zM93 774.5q-20 18.5 -20 45.5t19.5 45.5t47.5 18.5q30 0 50.5 -18.5t20.5 -45.5t-20 -45.5t-49 -18.5t-49 18.5z" />
    <glyph glyph-name="dotlessi" unicode="&#x131;" horiz-adv-x="242" 
d="M54 460h134v-470h-134v470z" />
    <glyph glyph-name="uni0136" unicode="&#x136;" horiz-adv-x="705" 
d="M62 710h138v-316l385 316h81l-414 -340l421 -380h-177l-296 266v-266h-138v720zM316 -228q11 22 11 38q0 7 -3.5 12t-13.5 12q-21 16 -29.5 29t-8.5 32q0 27 19.5 45t48.5 18q21 0 38.5 -11.5t24.5 -29.5q6 -15 6 -34q0 -31 -15.5 -65.5t-43.5 -64.5z" />
    <glyph glyph-name="uni0137" unicode="&#x137;" horiz-adv-x="572" 
d="M65 710h112v-518l302 268h78l-245 -217l239 -253h-149l-171 180l-54 -48v-132h-112v720zM283 -249q11 22 11 38q0 7 -3.5 12t-13.5 12q-21 16 -29.5 29t-8.5 32q0 27 19.5 45t48.5 18q21 0 38.5 -11.5t24.5 -29.5q6 -15 6 -34q0 -31 -15.5 -65.5t-43.5 -64.5z" />
    <glyph glyph-name="Lacute" unicode="&#x139;" horiz-adv-x="625" 
d="M62 710h138v-673h383v-47h-521v720zM159 908h126l-160 -157h-63z" />
    <glyph glyph-name="lacute" unicode="&#x13a;" horiz-adv-x="262" 
d="M64 703l134 49v-762h-134v713zM217 910h126l-160 -157h-63z" />
    <glyph glyph-name="uni013B" unicode="&#x13b;" horiz-adv-x="625" 
d="M62 710h138v-673h383v-47h-521v720zM300 -240q11 22 11 38q0 7 -3.5 12t-13.5 12q-21 16 -29.5 29t-8.5 32q0 27 19.5 45t48.5 18q21 0 38.5 -11.5t24.5 -29.5q6 -15 6 -34q0 -31 -15.5 -65.5t-43.5 -64.5z" />
    <glyph glyph-name="uni013C" unicode="&#x13c;" horiz-adv-x="262" 
d="M64 703l134 49v-762h-134v713zM129 -231q11 22 11 38q0 7 -3.5 12t-13.5 12q-21 16 -29.5 29t-8.5 32q0 27 19.5 45t48.5 18q21 0 38.5 -11.5t24.5 -29.5q6 -15 6 -34q0 -31 -15.5 -65.5t-43.5 -64.5z" />
    <glyph glyph-name="Lcaron" unicode="&#x13d;" horiz-adv-x="625" 
d="M62 710h138v-673h383v-47h-521v720zM328 532q11 22 11 38q0 7 -3.5 12t-13.5 12q-21 16 -29.5 29t-8.5 32q0 27 19.5 45t48.5 18q21 0 38.5 -11.5t24.5 -29.5q6 -15 6 -34q0 -31 -15.5 -65.5t-43.5 -64.5z" />
    <glyph glyph-name="lcaron" unicode="&#x13e;" horiz-adv-x="262" 
d="M64 703l134 49v-762h-134v713zM293 571q11 22 11 38q0 7 -3.5 12t-13.5 12q-21 16 -29.5 29t-8.5 32q0 27 19.5 45t48.5 18q21 0 38.5 -11.5t24.5 -29.5q6 -15 6 -34q0 -31 -15.5 -65.5t-43.5 -64.5z" />
    <glyph glyph-name="Lslash" unicode="&#x141;" horiz-adv-x="625" 
d="M583 37v-47h-521v213l-24 -29h-82l106 130v406h138v-236l21 26h83l-104 -127v-336h383z" />
    <glyph glyph-name="lslash" unicode="&#x142;" horiz-adv-x="262" 
d="M198 348v-358h-134v219l-21 -22l-37 36l58 60v420l134 49v-329l29 30l37 -36z" />
    <glyph glyph-name="Nacute" unicode="&#x143;" horiz-adv-x="743" 
d="M62 710h128l434 -541v541h57v-720h-72l-490 608v-608h-57v720zM451 908h126l-160 -157h-63z" />
    <glyph glyph-name="nacute" unicode="&#x144;" horiz-adv-x="604" 
d="M54 460h131v-77q36 43 83 65t101 22q98 0 145 -53t47 -164v-263h-134v263q0 89 -18 127t-60 38q-40 0 -76 -27.5t-59 -74.5t-26 -102v-224h-134v470zM362 673h126l-160 -157h-63z" />
    <glyph glyph-name="uni0145" unicode="&#x145;" horiz-adv-x="743" 
d="M62 710h128l434 -541v541h57v-720h-72l-490 608v-608h-57v720zM364 -209q11 22 11 38q0 7 -3.5 12t-13.5 12q-21 16 -29.5 29t-8.5 32q0 27 19.5 45t48.5 18q21 0 38.5 -11.5t24.5 -29.5q6 -15 6 -34q0 -31 -15.5 -65.5t-43.5 -64.5z" />
    <glyph glyph-name="uni0146" unicode="&#x146;" horiz-adv-x="604" 
d="M54 460h131v-77q36 43 83 65t101 22q98 0 145 -53t47 -164v-263h-134v263q0 89 -18 127t-60 38q-40 0 -76 -27.5t-59 -74.5t-26 -102v-224h-134v470zM273 -218q11 22 11 38q0 7 -3.5 12t-13.5 12q-21 16 -29.5 29t-8.5 32q0 27 19.5 45t48.5 18q21 0 38.5 -11.5
t24.5 -29.5q6 -15 6 -34q0 -31 -15.5 -65.5t-43.5 -64.5z" />
    <glyph glyph-name="Ncaron" unicode="&#x147;" horiz-adv-x="743" 
d="M62 710h128l434 -541v541h57v-720h-72l-490 608v-608h-57v720zM200 906h63l118 -116l117 116h63l-97 -157h-167z" />
    <glyph glyph-name="ncaron" unicode="&#x148;" horiz-adv-x="604" 
d="M54 460h131v-77q36 43 83 65t101 22q98 0 145 -53t47 -164v-263h-134v263q0 89 -18 127t-60 38q-40 0 -76 -27.5t-59 -74.5t-26 -102v-224h-134v470zM132 671h63l118 -116l117 116h63l-97 -157h-167z" />
    <glyph glyph-name="Eng" unicode="&#x14a;" horiz-adv-x="743" 
d="M509 -154q6 -1 16 -1q53 0 76 35.5t23 89.5l-18 24l-487 604v-608h-57v720h128l434 -541v541h57v-730q0 -85 -45.5 -130t-126.5 -40v36z" />
    <glyph glyph-name="eng" unicode="&#x14b;" horiz-adv-x="604" 
d="M353 -225l-14 10v9l17 10q27 -3 42.5 13.5t22 60.5t6.5 126v249q0 89 -18 127t-60 38q-40 0 -76 -27.5t-59 -74.5t-26 -102v-224h-134v470h131v-77q36 43 83 65t101 22q98 0 145 -53t47 -164v-303q0 -66 -17 -104t-55.5 -55t-105.5 -17z" />
    <glyph glyph-name="Omacron" unicode="&#x14c;" horiz-adv-x="952" 
d="M263 27.5q-94 47.5 -147.5 131.5t-53.5 190q0 105 54 190t148.5 133t211.5 48t211.5 -48t148.5 -132.5t54 -190.5t-54 -190t-148.5 -131.5t-212.5 -47.5t-212 47.5zM616.5 68q61.5 41 96 114t34.5 167q0 92 -35 166t-97 116t-139 42t-139 -42t-97 -116t-35 -166
q0 -93 34.5 -166.5t96.5 -114.5t140 -41q79 0 140.5 41zM294 848h356v-75h-356v75z" />
    <glyph glyph-name="omacron" unicode="&#x14d;" horiz-adv-x="620" 
d="M166.5 13q-62.5 31 -97.5 86.5t-35 126.5t35 126.5t97.5 86.5t143.5 31t143.5 -31t97.5 -86.5t35 -126.5t-35 -126.5t-97.5 -86.5t-143.5 -31t-143.5 31zM410.5 81q36.5 55 36.5 152q0 90 -37 141.5t-101 51.5t-100 -53.5t-36 -147.5t36 -146.5t100 -52.5q65 0 101.5 55z
M127 582h356v-75h-356v75z" />
    <glyph glyph-name="Ohungarumlaut" unicode="&#x150;" horiz-adv-x="952" 
d="M263 27.5q-94 47.5 -147.5 131.5t-53.5 190q0 105 54 190t148.5 133t211.5 48t211.5 -48t148.5 -132.5t54 -190.5t-54 -190t-148.5 -131.5t-212.5 -47.5t-212 47.5zM616.5 68q61.5 41 96 114t34.5 167q0 92 -35 166t-97 116t-139 42t-139 -42t-97 -116t-35 -166
q0 -93 34.5 -166.5t96.5 -114.5t140 -41q79 0 140.5 41zM451 906h126l-160 -157h-62zM607 906h125l-160 -157h-62z" />
    <glyph glyph-name="ohungarumlaut" unicode="&#x151;" horiz-adv-x="620" 
d="M166.5 13q-62.5 31 -97.5 86.5t-35 126.5t35 126.5t97.5 86.5t143.5 31t143.5 -31t97.5 -86.5t35 -126.5t-35 -126.5t-97.5 -86.5t-143.5 -31t-143.5 31zM410.5 81q36.5 55 36.5 152q0 90 -37 141.5t-101 51.5t-100 -53.5t-36 -147.5t36 -146.5t100 -52.5q65 0 101.5 55z
M276 650h126l-160 -157h-62zM432 650h125l-160 -157h-62z" />
    <glyph glyph-name="OE" unicode="&#x152;" horiz-adv-x="1335" 
d="M263 27.5q-94 47.5 -147.5 131.5t-53.5 190q0 105 54 190t148.5 133t211.5 48q77 0 148.5 -23t127.5 -66v79h521v-47h-383v-278h290v-47h-290v-301h383v-47h-521v78q-55 -42 -127 -65t-150 -23q-118 0 -212 47.5zM616.5 68q61.5 41 96 114t34.5 167q0 92 -35 166t-97 116
t-139 42t-139 -42t-97 -116t-35 -166q0 -93 34.5 -166.5t96.5 -114.5t140 -41q79 0 140.5 41z" />
    <glyph glyph-name="oe" unicode="&#x153;" horiz-adv-x="999" 
d="M166.5 13q-62.5 31 -97.5 86.5t-35 126.5t35 126.5t97.5 86.5t143.5 31q62 0 116 -19.5t91 -54.5q36 35 88 54.5t112 19.5q75 0 132 -32t87.5 -89.5t28.5 -132.5h-379q2 -52 24.5 -91.5t58 -60.5t76.5 -21q44 0 83.5 25.5t66.5 75.5l53 -40q-28 -54 -94 -88t-141 -34
q-58 0 -109.5 19.5t-87.5 54.5q-37 -35 -90.5 -54.5t-115.5 -19.5q-81 0 -143.5 31zM409 78.5q36 52.5 38 147.5v5q1 91 -36 143t-102 52q-64 0 -100 -53.5t-36 -147.5t36 -146.5t100 -52.5t100 52.5zM838 263q-6 76 -39 119.5t-83 43.5q-48 0 -84 -45.5t-44 -117.5h250z
" />
    <glyph glyph-name="Racute" unicode="&#x154;" horiz-adv-x="749" 
d="M62 710h321q141 0 222.5 -56t81.5 -154q0 -79 -54 -131.5t-153 -70.5l195 -308h-151l-190 300h-134v-300h-138v720zM383 334q84 0 122.5 39.5t38.5 126.5t-38.5 126.5t-122.5 39.5h-183v-332h183zM403 903h126l-160 -157h-63z" />
    <glyph glyph-name="racute" unicode="&#x155;" horiz-adv-x="479" 
d="M54 460h131v-77q70 87 165 87q48 0 87.5 -21t57.5 -57l-106 -58q-12 48 -26.5 66.5t-35.5 18.5q-30 0 -60.5 -29t-52 -76.5t-26.5 -99.5v-224h-134v470zM324 669h126l-160 -157h-63z" />
    <glyph glyph-name="uni0156" unicode="&#x156;" horiz-adv-x="749" 
d="M62 710h321q141 0 222.5 -56t81.5 -154q0 -79 -54 -131.5t-153 -70.5l195 -308h-151l-190 300h-134v-300h-138v720zM383 334q84 0 122.5 39.5t38.5 126.5t-38.5 126.5t-122.5 39.5h-183v-332h183zM350 -223q11 22 11 38q0 7 -3.5 12t-13.5 12q-21 16 -29.5 29t-8.5 32
q0 27 19.5 45t48.5 18q21 0 38.5 -11.5t24.5 -29.5q6 -15 6 -34q0 -31 -15.5 -65.5t-43.5 -64.5z" />
    <glyph glyph-name="uni0157" unicode="&#x157;" horiz-adv-x="479" 
d="M54 460h131v-77q70 87 165 87q48 0 87.5 -21t57.5 -57l-106 -58q-12 48 -26.5 66.5t-35.5 18.5q-30 0 -60.5 -29t-52 -76.5t-26.5 -99.5v-224h-134v470zM118 -228q11 22 11 38q0 7 -3.5 12t-13.5 12q-21 16 -29.5 29t-8.5 32q0 27 19.5 45t48.5 18q21 0 38.5 -11.5
t24.5 -29.5q6 -15 6 -34q0 -31 -15.5 -65.5t-43.5 -64.5z" />
    <glyph glyph-name="Rcaron" unicode="&#x158;" horiz-adv-x="749" 
d="M62 710h321q141 0 222.5 -56t81.5 -154q0 -79 -54 -131.5t-153 -70.5l195 -308h-151l-190 300h-134v-300h-138v720zM383 334q84 0 122.5 39.5t38.5 126.5t-38.5 126.5t-122.5 39.5h-183v-332h183zM164 905h63l118 -116l117 116h63l-97 -157h-167z" />
    <glyph glyph-name="rcaron" unicode="&#x159;" horiz-adv-x="479" 
d="M54 460h131v-77q70 87 165 87q48 0 87.5 -21t57.5 -57l-106 -58q-12 48 -26.5 66.5t-35.5 18.5q-30 0 -60.5 -29t-52 -76.5t-26.5 -99.5v-224h-134v470zM92 664h63l118 -116l117 116h63l-97 -157h-167z" />
    <glyph glyph-name="Sacute" unicode="&#x15a;" horiz-adv-x="710" 
d="M220.5 -3q-59.5 18 -101.5 50t-58 73l87 30q21 -63 70.5 -93.5t129.5 -30.5q73 0 117.5 36t44.5 95q0 41 -20 65t-53 37.5t-99 32.5q-80 23 -137.5 48t-98 69.5t-40.5 109.5q0 57 40 103t109.5 72.5t152.5 26.5q66 0 124.5 -18t100 -50t57.5 -73l-87 -30
q-21 63 -69.5 93.5t-127.5 30.5q-73 0 -117.5 -35.5t-44.5 -94.5q0 -41 19.5 -64.5t51.5 -35.5t101 -32q81 -24 139 -50t97.5 -70.5t39.5 -110.5q0 -57 -40 -103t-109.5 -72.5t-152.5 -26.5q-66 0 -125.5 18zM435 907h126l-160 -157h-63z" />
    <glyph glyph-name="sacute" unicode="&#x15b;" horiz-adv-x="534" 
d="M157 -5.5q-50 14.5 -83.5 40.5t-40.5 57l100 18q4 -40 38 -61.5t95 -21.5q111 0 111 70q0 20 -10.5 32.5t-37 21.5t-76.5 18q-96 15 -157.5 48t-61.5 108q0 41 32 74t87 52t121 19q56 0 105.5 -14.5t82 -40.5t39.5 -57l-99 -18q-5 40 -37.5 62.5t-87.5 22.5
q-58 0 -88 -19t-30 -54q0 -24 14 -37.5t38 -20t73 -15.5q66 -12 108.5 -24.5t75 -43t32.5 -83.5q0 -42 -30.5 -76t-84.5 -53t-121 -19q-57 0 -107 14.5zM321 650h126l-160 -157h-63z" />
    <glyph glyph-name="Scedilla" unicode="&#x15e;" horiz-adv-x="710" 
d="M614 85.5q-34 -43.5 -94 -71t-134 -33.5l-17 -35q53 -2 85 -30t32 -71q0 -50 -34.5 -79t-84.5 -29q-36 0 -72 15.5t-64 46.5l22 33q45 -34 74 -34q22 0 35 16t13 38q0 21 -14 36.5t-39 15.5q-22 0 -48 -11l43 87q-92 6 -163 44.5t-93 95.5l87 30q21 -63 70.5 -93.5
t129.5 -30.5q73 0 117.5 36t44.5 95q0 41 -20 65t-53 37.5t-99 32.5q-80 23 -137.5 48t-98 69.5t-40.5 109.5q0 57 40 103t109.5 72.5t152.5 26.5q66 0 124.5 -18t100 -50t57.5 -73l-87 -30q-21 63 -69.5 93.5t-127.5 30.5q-73 0 -117.5 -35.5t-44.5 -94.5q0 -41 19.5 -64.5
t51.5 -35.5t101 -32q81 -24 139 -50t97.5 -70.5t39.5 -110.5q0 -52 -34 -95.5z" />
    <glyph glyph-name="scedilla" unicode="&#x15f;" horiz-adv-x="534" 
d="M392.5 254.5q42.5 -12.5 75 -43t32.5 -83.5q0 -54 -49.5 -93.5t-130.5 -50.5l-6 -13q53 -2 85 -30t32 -71q0 -50 -34.5 -79t-84.5 -29q-36 0 -72 15.5t-64 46.5l22 33q45 -34 74 -34q22 0 35 16t13 38q0 21 -14 36.5t-39 15.5q-22 0 -48 -11l31 62q-82 3 -144.5 35
t-72.5 77l100 18q4 -40 38 -61.5t95 -21.5q111 0 111 70q0 20 -10.5 32.5t-37 21.5t-76.5 18q-96 15 -157.5 48t-61.5 108q0 41 32 74t87 52t121 19q56 0 105.5 -14.5t82 -40.5t39.5 -57l-99 -18q-5 40 -37.5 62.5t-87.5 22.5q-58 0 -88 -19t-30 -54q0 -24 14 -37.5t38 -20
t73 -15.5q66 -12 108.5 -24.5z" />
    <glyph glyph-name="Scaron" unicode="&#x160;" horiz-adv-x="710" 
d="M220.5 -3q-59.5 18 -101.5 50t-58 73l87 30q21 -63 70.5 -93.5t129.5 -30.5q73 0 117.5 36t44.5 95q0 41 -20 65t-53 37.5t-99 32.5q-80 23 -137.5 48t-98 69.5t-40.5 109.5q0 57 40 103t109.5 72.5t152.5 26.5q66 0 124.5 -18t100 -50t57.5 -73l-87 -30
q-21 63 -69.5 93.5t-127.5 30.5q-73 0 -117.5 -35.5t-44.5 -94.5q0 -41 19.5 -64.5t51.5 -35.5t101 -32q81 -24 139 -50t97.5 -70.5t39.5 -110.5q0 -57 -40 -103t-109.5 -72.5t-152.5 -26.5q-66 0 -125.5 18zM188 904h63l118 -116l117 116h63l-97 -157h-167z" />
    <glyph glyph-name="scaron" unicode="&#x161;" horiz-adv-x="534" 
d="M157 -5.5q-50 14.5 -83.5 40.5t-40.5 57l100 18q4 -40 38 -61.5t95 -21.5q111 0 111 70q0 20 -10.5 32.5t-37 21.5t-76.5 18q-96 15 -157.5 48t-61.5 108q0 41 32 74t87 52t121 19q56 0 105.5 -14.5t82 -40.5t39.5 -57l-99 -18q-5 40 -37.5 62.5t-87.5 22.5
q-58 0 -88 -19t-30 -54q0 -24 14 -37.5t38 -20t73 -15.5q66 -12 108.5 -24.5t75 -43t32.5 -83.5q0 -42 -30.5 -76t-84.5 -53t-121 -19q-57 0 -107 14.5zM92 652h63l118 -116l117 116h63l-97 -157h-167z" />
    <glyph glyph-name="uni0162" unicode="&#x162;" horiz-adv-x="734" 
d="M403 -10l-16 -33q53 -2 85 -30t32 -71q0 -50 -34.5 -79t-84.5 -29q-36 0 -72 15.5t-64 46.5l22 33q45 -34 74 -34q22 0 35 16t13 38q0 21 -14 36.5t-39 15.5q-22 0 -48 -11l42 86h-36v673h-243v47h624v-47h-243v-673h-33z" />
    <glyph glyph-name="uni0163" unicode="&#x163;" horiz-adv-x="323" 
d="M311 -61q32 -28 32 -71q0 -50 -34.5 -79t-84.5 -29q-36 0 -72 15.5t-64 46.5l22 33q45 -34 74 -34q22 0 35 16t13 38q0 21 -14 36.5t-39 15.5q-22 0 -48 -11l31 64q-51 4 -74 37t-23 100v296h-51v47h51v173l134 49v-222h109v-47h-109v-299q0 -53 2.5 -71t11.5 -18
q27 0 58 52l37 -29q-23 -40 -72 -59l-10 -20q53 -2 85 -30z" />
    <glyph glyph-name="Tcaron" unicode="&#x164;" horiz-adv-x="734" 
d="M298 663h-243v47h624v-47h-243v-673h-138v673zM183 909h63l118 -116l117 116h63l-97 -157h-167z" />
    <glyph glyph-name="tcaron" unicode="&#x165;" horiz-adv-x="323" 
d="M92.5 11.5q-27.5 32.5 -27.5 105.5v296h-51v47h51v173l134 49v-222h109v-47h-109v-299q0 -53 2.5 -71t11.5 -18q27 0 58 52l37 -29q-19 -31 -53.5 -50t-71.5 -19q-63 0 -90.5 32.5zM298 502q11 22 11 38q0 7 -3.5 12t-13.5 12q-21 16 -29.5 29t-8.5 32q0 27 19.5 45
t48.5 18q21 0 38.5 -11.5t24.5 -29.5q6 -15 6 -34q0 -31 -15.5 -65.5t-43.5 -64.5z" />
    <glyph glyph-name="Tbar" unicode="&#x166;" horiz-adv-x="734" 
d="M436 663v-313h103v-57h-103v-303h-138v303h-110v57h110v313h-243v47h624v-47h-243z" />
    <glyph glyph-name="tbar" unicode="&#x167;" horiz-adv-x="323" 
d="M199 114q0 -53 2.5 -71t11.5 -18q27 0 58 52l37 -29q-19 -31 -53.5 -50t-71.5 -19q-63 0 -90.5 32.5t-27.5 105.5v212h-26v48h26v36h-51v47h51v173l134 49v-222h109v-47h-109v-36h137v-48h-137v-215z" />
    <glyph glyph-name="Umacron" unicode="&#x16a;" horiz-adv-x="714" 
d="M140 54.5q-78 74.5 -78 220.5v435h138v-446q0 -113 47 -170.5t139 -57.5q104 0 155 58.5t51 177.5v438h60v-437q0 -146 -71 -219.5t-212 -73.5q-151 0 -229 74.5zM220 834h356v-75h-356v75z" />
    <glyph glyph-name="umacron" unicode="&#x16b;" horiz-adv-x="604" 
d="M91 33q-47 53 -47 164v263h134v-263q0 -89 18 -127t60 -38q40 0 76 27.5t59 74.5t26 102v224h134v-470h-131v77q-36 -43 -83 -65t-101 -22q-98 0 -145 53zM118 589h356v-75h-356v75z" />
    <glyph glyph-name="Uring" unicode="&#x16e;" horiz-adv-x="714" 
d="M140 54.5q-78 74.5 -78 220.5v435h138v-446q0 -113 47 -170.5t139 -57.5q104 0 155 58.5t51 177.5v438h60v-437q0 -146 -71 -219.5t-212 -73.5q-151 0 -229 74.5zM314.5 756q-35.5 34 -35.5 81t35.5 81t84.5 34t84.5 -34t35.5 -81t-35.5 -81t-84.5 -34t-84.5 34z
M441.5 789.5q17.5 19.5 17.5 47.5q0 26 -17.5 46.5t-40.5 20.5q-25 0 -43.5 -20t-18.5 -47q0 -28 17.5 -47.5t42.5 -19.5t42.5 19.5z" />
    <glyph glyph-name="uring" unicode="&#x16f;" horiz-adv-x="604" 
d="M91 33q-47 53 -47 164v263h134v-263q0 -89 18 -127t60 -38q40 0 76 27.5t59 74.5t26 102v224h134v-470h-131v77q-36 -43 -83 -65t-101 -22q-98 0 -145 53zM210.5 525q-35.5 34 -35.5 81t35.5 81t84.5 34t84.5 -34t35.5 -81t-35.5 -81t-84.5 -34t-84.5 34zM337.5 558.5
q17.5 19.5 17.5 47.5q0 26 -17.5 46.5t-40.5 20.5q-25 0 -43.5 -20t-18.5 -47q0 -28 17.5 -47.5t42.5 -19.5t42.5 19.5z" />
    <glyph glyph-name="Uhungarumlaut" unicode="&#x170;" horiz-adv-x="714" 
d="M140 54.5q-78 74.5 -78 220.5v435h138v-446q0 -113 47 -170.5t139 -57.5q104 0 155 58.5t51 177.5v438h60v-437q0 -146 -71 -219.5t-212 -73.5q-151 0 -229 74.5zM366 886h126l-160 -157h-62zM522 886h125l-160 -157h-62z" />
    <glyph glyph-name="uhungarumlaut" unicode="&#x171;" horiz-adv-x="604" 
d="M91 33q-47 53 -47 164v263h134v-263q0 -89 18 -127t60 -38q40 0 76 27.5t59 74.5t26 102v224h134v-470h-131v77q-36 -43 -83 -65t-101 -22q-98 0 -145 53zM274 668h126l-160 -157h-62zM430 668h125l-160 -157h-62z" />
    <glyph glyph-name="Uogonek" unicode="&#x172;" horiz-adv-x="714" 
d="M652 710v-437q0 -280 -259 -292q-23 -24 -34.5 -51t-11.5 -52q0 -29 14.5 -47.5t38.5 -18.5q25 0 53 21l33 -20q-25 -35 -61 -53t-72 -18q-42 0 -70.5 23.5t-28.5 64.5q0 65 75 151q-132 10 -199.5 84t-67.5 210v435h138v-446q0 -113 47 -170.5t139 -57.5q104 0 155 58.5
t51 177.5v438h60z" />
    <glyph glyph-name="uogonek" unicode="&#x173;" horiz-adv-x="604" 
d="M604 -179q-25 -35 -61 -53t-72 -18q-42 0 -70.5 23.5t-28.5 64.5q0 30 18.5 69t57.5 83h-28v77q-36 -43 -83 -65t-101 -22q-98 0 -145 53t-47 164v263h134v-263q0 -89 18 -127t60 -38q40 0 76 27.5t59 74.5t26 102v224h134v-470h-39q-24 -24 -35.5 -51.5t-11.5 -52.5
q0 -29 14.5 -47.5t38.5 -18.5q25 0 53 21z" />
    <glyph glyph-name="Wcircumflex" unicode="&#x174;" horiz-adv-x="1185" 
d="M29 710h144l223 -594l216 594h54l208 -594l222 594h61l-268 -720h-110l-183 510l-185 -510h-110zM550 882h167l97 -157h-63l-117 116l-118 -116h-63z" />
    <glyph glyph-name="wcircumflex" unicode="&#x175;" horiz-adv-x="785" 
d="M1 460h139l140 -346l124 346h57l123 -348l141 348h60l-189 -470h-105l-98 270l-96 -270h-105zM351 648h167l97 -157h-63l-117 116l-118 -116h-63z" />
    <glyph glyph-name="Ycircumflex" unicode="&#x176;" horiz-adv-x="733" 
d="M304 275l-277 435h152l232 -365l234 365h65l-268 -417v-303h-138v285zM332 907h167l97 -157h-63l-117 116l-118 -116h-63z" />
    <glyph glyph-name="ycircumflex" unicode="&#x177;" horiz-adv-x="605" 
d="M178 -198.5q-55 22.5 -81 60.5l32 51q21 -35 64.5 -59t89.5 -24q58 0 96 43.5t38 135.5v55q-36 -41 -82 -62.5t-99 -21.5q-98 0 -145 53t-47 164v263h134v-263q0 -89 18 -127t60 -38q40 0 76 27.5t59 74.5t26 102v224h134v-450q0 -78 -36 -130t-94 -76.5t-124 -24.5
q-64 0 -119 22.5zM214 649h167l97 -157h-63l-117 116l-118 -116h-63z" />
    <glyph glyph-name="Ydieresis" unicode="&#x178;" horiz-adv-x="733" 
d="M304 275l-277 435h152l232 -365l234 365h65l-268 -417v-303h-138v285zM280.5 755.5q-20.5 18.5 -20.5 45.5q0 26 20 45t48 19q30 0 50.5 -18.5t20.5 -45.5t-20 -45.5t-49 -18.5t-49.5 18.5zM465 755.5q-20 18.5 -20 45.5t20 45t49 18t49.5 -18.5t20.5 -44.5
q0 -27 -20.5 -45.5t-49.5 -18.5t-49 18.5z" />
    <glyph glyph-name="Zacute" unicode="&#x179;" horiz-adv-x="761" 
d="M64 29l474 634h-463v47h622v-39l-474 -634h463v-47h-622v39zM451 912h126l-160 -157h-63z" />
    <glyph glyph-name="zacute" unicode="&#x17a;" horiz-adv-x="585" 
d="M37 29l346 384h-338v47h498v-39l-346 -384h343v-47h-503v39zM353 651h126l-160 -157h-63z" />
    <glyph glyph-name="Zdotaccent" unicode="&#x17b;" horiz-adv-x="761" 
d="M64 29l474 634h-463v47h622v-39l-474 -634h463v-47h-622v39zM340 785.5q-20 18.5 -20 45.5t19.5 45.5t47.5 18.5q30 0 50.5 -18.5t20.5 -45.5t-20 -45.5t-49 -18.5t-49 18.5z" />
    <glyph glyph-name="zdotaccent" unicode="&#x17c;" horiz-adv-x="585" 
d="M37 29l346 384h-338v47h498v-39l-346 -384h343v-47h-503v39zM241 513.5q-20 18.5 -20 45.5t19.5 45.5t47.5 18.5q30 0 50.5 -18.5t20.5 -45.5t-20 -45.5t-49 -18.5t-49 18.5z" />
    <glyph glyph-name="Zcaron" unicode="&#x17d;" horiz-adv-x="761" 
d="M64 29l474 634h-463v47h622v-39l-474 -634h463v-47h-622v39zM233 917h63l118 -116l117 116h63l-97 -157h-167z" />
    <glyph glyph-name="zcaron" unicode="&#x17e;" horiz-adv-x="595" 
d="M37 29l346 384h-338v47h498v-39l-346 -384h343v-47h-503v39zM113 652h63l118 -116l117 116h63l-97 -157h-167z" />
    <glyph glyph-name="uni0218" unicode="&#x218;" horiz-adv-x="710" 
d="M220.5 -3q-59.5 18 -101.5 50t-58 73l87 30q21 -63 70.5 -93.5t129.5 -30.5q73 0 117.5 36t44.5 95q0 41 -20 65t-53 37.5t-99 32.5q-80 23 -137.5 48t-98 69.5t-40.5 109.5q0 57 40 103t109.5 72.5t152.5 26.5q66 0 124.5 -18t100 -50t57.5 -73l-87 -30
q-21 63 -69.5 93.5t-127.5 30.5q-73 0 -117.5 -35.5t-44.5 -94.5q0 -41 19.5 -64.5t51.5 -35.5t101 -32q81 -24 139 -50t97.5 -70.5t39.5 -110.5q0 -57 -40 -103t-109.5 -72.5t-152.5 -26.5q-66 0 -125.5 18zM342 -223q11 22 11 38q0 7 -3.5 12t-13.5 12q-21 16 -29.5 29
t-8.5 32q0 27 19.5 45t48.5 18q21 0 38.5 -11.5t24.5 -29.5q6 -15 6 -34q0 -31 -15.5 -65.5t-43.5 -64.5z" />
    <glyph glyph-name="uni0219" unicode="&#x219;" horiz-adv-x="534" 
d="M157 -5.5q-50 14.5 -83.5 40.5t-40.5 57l100 18q4 -40 38 -61.5t95 -21.5q111 0 111 70q0 20 -10.5 32.5t-37 21.5t-76.5 18q-96 15 -157.5 48t-61.5 108q0 41 32 74t87 52t121 19q56 0 105.5 -14.5t82 -40.5t39.5 -57l-99 -18q-5 40 -37.5 62.5t-87.5 22.5
q-58 0 -88 -19t-30 -54q0 -24 14 -37.5t38 -20t73 -15.5q66 -12 108.5 -24.5t75 -43t32.5 -83.5q0 -42 -30.5 -76t-84.5 -53t-121 -19q-57 0 -107 14.5zM273 -231q11 22 11 38q0 7 -3.5 12t-13.5 12q-21 16 -29.5 29t-8.5 32q0 27 19.5 45t48.5 18q21 0 38.5 -11.5
t24.5 -29.5q6 -15 6 -34q0 -31 -15.5 -65.5t-43.5 -64.5z" />
    <glyph glyph-name="uni021A" unicode="&#x21a;" horiz-adv-x="734" 
d="M298 663h-243v47h624v-47h-243v-673h-138v673zM342 -217q11 22 11 38q0 7 -3.5 12t-13.5 12q-21 16 -29.5 29t-8.5 32q0 27 19.5 45t48.5 18q21 0 38.5 -11.5t24.5 -29.5q6 -15 6 -34q0 -31 -15.5 -65.5t-43.5 -64.5z" />
    <glyph glyph-name="uni021B" unicode="&#x21b;" horiz-adv-x="323" 
d="M92.5 11.5q-27.5 32.5 -27.5 105.5v296h-51v47h51v173l134 49v-222h109v-47h-109v-299q0 -53 2.5 -71t11.5 -18q27 0 58 52l37 -29q-19 -31 -53.5 -50t-71.5 -19q-63 0 -90.5 32.5zM181 -226q11 22 11 38q0 7 -3.5 12t-13.5 12q-21 16 -29.5 29t-8.5 32q0 27 19.5 45
t48.5 18q21 0 38.5 -11.5t24.5 -29.5q6 -15 6 -34q0 -31 -15.5 -65.5t-43.5 -64.5z" />
    <glyph glyph-name="circumflex" unicode="&#x2c6;" horiz-adv-x="461" 
d="M147 890h167l97 -157h-63l-117 116l-118 -116h-63z" />
    <glyph glyph-name="caron" unicode="&#x2c7;" horiz-adv-x="461" 
d="M50 890h63l118 -116l117 116h63l-97 -157h-167z" />
    <glyph glyph-name="breve" unicode="&#x2d8;" horiz-adv-x="456" 
d="M98.5 764q-49.5 50 -48.5 131h51q-1 -47 32 -73.5t95 -26.5t95 26.5t32 73.5h51q1 -81 -48.5 -131t-129.5 -50t-129.5 50z" />
    <glyph glyph-name="dotaccent" unicode="&#x2d9;" horiz-adv-x="238" 
d="M70 743.5q-20 18.5 -20 45.5t19.5 45.5t47.5 18.5q30 0 50.5 -18.5t20.5 -45.5t-20 -45.5t-49 -18.5t-49 18.5z" />
    <glyph glyph-name="ring" unicode="&#x2da;" horiz-adv-x="340" 
d="M85.5 754q-35.5 34 -35.5 81t35.5 81t84.5 34t84.5 -34t35.5 -81t-35.5 -81t-84.5 -34t-84.5 34zM212.5 787.5q17.5 19.5 17.5 47.5q0 26 -17.5 46.5t-40.5 20.5q-25 0 -43.5 -20t-18.5 -47q0 -28 17.5 -47.5t42.5 -19.5t42.5 19.5z" />
    <glyph glyph-name="ogonek" unicode="&#x2db;" horiz-adv-x="332" 
d="M78.5 -206.5q-28.5 23.5 -28.5 64.5q0 35 24.5 80.5t77.5 99.5l41 -25q-25 -25 -37.5 -53t-12.5 -54q0 -29 14.5 -47.5t38.5 -18.5q25 0 53 21l33 -20q-25 -35 -61 -53t-72 -18q-42 0 -70.5 23.5z" />
    <glyph glyph-name="tilde" unicode="&#x2dc;" horiz-adv-x="471" 
d="M278.5 733.5q-26.5 9.5 -61.5 26.5q-28 14 -45.5 21t-30.5 7q-25 0 -35.5 -13t-8.5 -40h-47q-2 70 19.5 102t69.5 32q26 0 51.5 -8.5t60.5 -24.5q29 -13 47 -19.5t32 -6.5q20 0 32 10.5t12 27.5q0 7 -1 10h48q2 -70 -19.5 -102t-69.5 -32q-27 0 -53.5 9.5z" />
    <glyph glyph-name="hungarumlaut" unicode="&#x2dd;" horiz-adv-x="477" 
d="M146 889h126l-160 -157h-62zM302 889h125l-160 -157h-62z" />
    <glyph glyph-name="gravecomb" unicode="&#x300;" horiz-adv-x="0" 
d="M-273 889h126l97 -157h-63z" />
    <glyph glyph-name="acutecomb" unicode="&#x301;" horiz-adv-x="0" 
d="M-176 889h126l-160 -157h-63z" />
    <glyph glyph-name="uni0302" unicode="&#x302;" horiz-adv-x="0" 
d="M-314 890h167l97 -157h-63l-117 116l-118 -116h-63z" />
    <glyph glyph-name="tildecomb" unicode="&#x303;" horiz-adv-x="0" 
d="M-192.5 733.5q-26.5 9.5 -61.5 26.5q-28 14 -45.5 21t-30.5 7q-25 0 -35.5 -13t-8.5 -40h-47q-2 70 19.5 102t69.5 32q26 0 51.5 -8.5t60.5 -24.5q29 -13 47 -19.5t32 -6.5q20 0 32 10.5t12 27.5q0 7 -1 10h48q2 -70 -19.5 -102t-69.5 -32q-27 0 -53.5 9.5z" />
    <glyph glyph-name="uni0304" unicode="&#x304;" horiz-adv-x="0" 
d="M-406 813h356v-75h-356v75z" />
    <glyph glyph-name="uni0306" unicode="&#x306;" horiz-adv-x="0" 
d="M-357.5 764q-49.5 50 -48.5 131h51q-1 -47 32 -73.5t95 -26.5t95 26.5t32 73.5h51q1 -81 -48.5 -131t-129.5 -50t-129.5 50z" />
    <glyph glyph-name="uni0307" unicode="&#x307;" horiz-adv-x="0" 
d="M-168 743.5q-20 18.5 -20 45.5t19.5 45.5t47.5 18.5q30 0 50.5 -18.5t20.5 -45.5t-20 -45.5t-49 -18.5t-49 18.5z" />
    <glyph glyph-name="uni0308" unicode="&#x308;" horiz-adv-x="0" 
d="M-353.5 743.5q-20.5 18.5 -20.5 45.5q0 26 20 45t48 19q30 0 50.5 -18.5t20.5 -45.5t-20 -45.5t-49 -18.5t-49.5 18.5zM-169 743.5q-20 18.5 -20 45.5t20 45t49 18t49.5 -18.5t20.5 -44.5q0 -27 -20.5 -45.5t-49.5 -18.5t-49 18.5z" />
    <glyph glyph-name="uni030A" unicode="&#x30a;" horiz-adv-x="0" 
d="M-254.5 754q-35.5 34 -35.5 81t35.5 81t84.5 34t84.5 -34t35.5 -81t-35.5 -81t-84.5 -34t-84.5 34zM-127.5 787.5q17.5 19.5 17.5 47.5q0 26 -17.5 46.5t-40.5 20.5q-25 0 -43.5 -20t-18.5 -47q0 -28 17.5 -47.5t42.5 -19.5t42.5 19.5z" />
    <glyph glyph-name="uni030B" unicode="&#x30b;" horiz-adv-x="0" 
d="M-331 890h126l-160 -157h-62zM-175 890h125l-160 -157h-62z" />
    <glyph glyph-name="uni030C" unicode="&#x30c;" horiz-adv-x="0" 
d="M-411 890h63l118 -116l117 116h63l-97 -157h-167z" />
    <glyph glyph-name="uni0312" unicode="&#x312;" horiz-adv-x="0" 
d="M-156.5 742.5q-17.5 11.5 -24.5 29.5q-6 15 -6 34q0 31 15.5 65.5t43.5 64.5l34 -19q-11 -22 -11 -38q0 -7 3.5 -12t13.5 -12q21 -16 29.5 -29t8.5 -32q0 -27 -19.5 -45t-48.5 -18q-21 0 -38.5 11.5z" />
    <glyph glyph-name="uni0326" unicode="&#x326;" horiz-adv-x="0" 
d="M-143 -245q11 22 11 38q0 7 -3.5 12t-13.5 12q-21 16 -29.5 29t-8.5 32q0 27 19.5 45t48.5 18q21 0 38.5 -11.5t24.5 -29.5q6 -15 6 -34q0 -31 -15.5 -65.5t-43.5 -64.5z" />
    <glyph glyph-name="uni0327" unicode="&#x327;" horiz-adv-x="0" 
d="M-241 -222.5q-36 15.5 -64 46.5l22 33q45 -34 74 -34q22 0 35 16t13 38q0 21 -14 36.5t-39 15.5q-22 0 -48 -11l51 104h69l-25 -51q53 -2 85 -30t32 -71q0 -50 -34.5 -79t-84.5 -29q-36 0 -72 15.5z" />
    <glyph glyph-name="uni0328" unicode="&#x328;" horiz-adv-x="0" 
d="M-253.5 -206.5q-28.5 23.5 -28.5 64.5q0 35 24.5 80.5t77.5 99.5l41 -25q-25 -25 -37.5 -53t-12.5 -54q0 -29 14.5 -47.5t38.5 -18.5q25 0 53 21l33 -20q-25 -35 -61 -53t-72 -18q-42 0 -70.5 23.5z" />
    <glyph glyph-name="uni0335" unicode="&#x335;" horiz-adv-x="0" 
d="M-401 337h351v-57h-351v57z" />
    <glyph glyph-name="uni0336" unicode="&#x336;" horiz-adv-x="0" 
d="M-457 337h407v-57h-407v57z" />
    <glyph glyph-name="uni0337" unicode="&#x337;" horiz-adv-x="0" 
d="M-128 516h78l-451 -552h-77z" />
    <glyph glyph-name="uni0338" unicode="&#x338;" horiz-adv-x="0" 
d="M-126 669h76l-555 -713h-75z" />
    <glyph glyph-name="Wgrave" unicode="&#x1e80;" horiz-adv-x="1185" 
d="M29 710h144l223 -594l216 594h54l208 -594l222 594h61l-268 -720h-110l-183 510l-185 -510h-110zM530 899h126l97 -157h-63z" />
    <glyph glyph-name="wgrave" unicode="&#x1e81;" horiz-adv-x="785" 
d="M1 460h139l140 -346l124 346h57l123 -348l141 348h60l-189 -470h-105l-98 270l-96 -270h-105zM314 647h126l97 -157h-63z" />
    <glyph glyph-name="Wacute" unicode="&#x1e82;" horiz-adv-x="1185" 
d="M29 710h144l223 -594l216 594h54l208 -594l222 594h61l-268 -720h-110l-183 510l-185 -510h-110zM660 900h126l-160 -157h-63z" />
    <glyph glyph-name="wacute" unicode="&#x1e83;" horiz-adv-x="785" 
d="M1 460h139l140 -346l124 346h57l123 -348l141 348h60l-189 -470h-105l-98 270l-96 -270h-105zM461 650h126l-160 -157h-63z" />
    <glyph glyph-name="Wdieresis" unicode="&#x1e84;" horiz-adv-x="1185" 
d="M29 710h144l223 -594l216 594h54l208 -594l222 594h61l-268 -720h-110l-183 510l-185 -510h-110zM490.5 755.5q-20.5 18.5 -20.5 45.5q0 26 20 45t48 19q30 0 50.5 -18.5t20.5 -45.5t-20 -45.5t-49 -18.5t-49.5 18.5zM675 755.5q-20 18.5 -20 45.5t20 45t49 18
t49.5 -18.5t20.5 -44.5q0 -27 -20.5 -45.5t-49.5 -18.5t-49 18.5z" />
    <glyph glyph-name="wdieresis" unicode="&#x1e85;" horiz-adv-x="785" 
d="M1 460h139l140 -346l124 346h57l123 -348l141 348h60l-189 -470h-105l-98 270l-96 -270h-105zM287.5 509.5q-20.5 18.5 -20.5 45.5q0 26 20 45t48 19q30 0 50.5 -18.5t20.5 -45.5t-20 -45.5t-49 -18.5t-49.5 18.5zM472 509.5q-20 18.5 -20 45.5t20 45t49 18t49.5 -18.5
t20.5 -44.5q0 -27 -20.5 -45.5t-49.5 -18.5t-49 18.5z" />
    <glyph glyph-name="Ygrave" unicode="&#x1ef2;" horiz-adv-x="733" 
d="M304 275l-277 435h152l232 -365l234 365h65l-268 -417v-303h-138v285zM228 889h126l97 -157h-63z" />
    <glyph glyph-name="ygrave" unicode="&#x1ef3;" horiz-adv-x="605" 
d="M178 -198.5q-55 22.5 -81 60.5l32 51q21 -35 64.5 -59t89.5 -24q58 0 96 43.5t38 135.5v55q-36 -41 -82 -62.5t-99 -21.5q-98 0 -145 53t-47 164v263h134v-263q0 -89 18 -127t60 -38q40 0 76 27.5t59 74.5t26 102v224h134v-450q0 -78 -36 -130t-94 -76.5t-124 -24.5
q-64 0 -119 22.5zM138 651h126l97 -157h-63z" />
    <glyph glyph-name="endash" unicode="&#x2013;" horiz-adv-x="682" 
d="M80 262h562v-57h-562v57z" />
    <glyph glyph-name="emdash" unicode="&#x2014;" horiz-adv-x="1071" 
d="M80 262h951v-57h-951v57z" />
    <glyph glyph-name="quoteleft" unicode="&#x2018;" horiz-adv-x="257" 
d="M110.5 540.5q-17.5 11.5 -24.5 29.5q-6 15 -6 34q0 31 15.5 65.5t43.5 64.5l34 -19q-11 -22 -11 -38q0 -7 3.5 -12t13.5 -12q21 -16 29.5 -29t8.5 -32q0 -27 -19.5 -45t-48.5 -18q-21 0 -38.5 11.5z" />
    <glyph glyph-name="quoteright" unicode="&#x2019;" horiz-adv-x="257" 
d="M124 543q11 22 11 38q0 7 -3.5 12t-13.5 12q-21 16 -29.5 29t-8.5 32q0 27 19.5 45t48.5 18q21 0 38.5 -11.5t24.5 -29.5q6 -15 6 -34q0 -31 -15.5 -65.5t-43.5 -64.5z" />
    <glyph glyph-name="quotesinglbase" unicode="&#x201a;" horiz-adv-x="257" 
d="M124 -72q11 22 11 38q0 7 -3.5 12t-13.5 12q-21 16 -29.5 29t-8.5 32q0 27 19.5 45t48.5 18q21 0 38.5 -11.5t24.5 -29.5q6 -15 6 -34q0 -30 -15.5 -64.5t-43.5 -65.5z" />
    <glyph glyph-name="quotedblleft" unicode="&#x201c;" horiz-adv-x="412" 
d="M109.5 540.5q-17.5 11.5 -24.5 30.5q-5 17 -5 32q0 32 16 67t44 64l32 -19q-11 -19 -11 -38q0 -7 3.5 -12t13.5 -12q22 -16 30.5 -29t8.5 -32q0 -26 -20 -44.5t-49 -18.5q-21 0 -38.5 11.5zM265.5 540.5q-17.5 11.5 -24.5 29.5q-6 15 -6 34q0 32 16 66.5t44 63.5l32 -19
q-10 -21 -10 -38q0 -7 3.5 -12t13.5 -12q21 -16 29.5 -29t8.5 -32q0 -26 -20 -44.5t-48 -18.5q-21 0 -38.5 11.5z" />
    <glyph glyph-name="quotedblright" unicode="&#x201d;" horiz-adv-x="412" 
d="M125 543q10 21 10 38q0 7 -3.5 12t-13.5 12q-21 16 -29.5 29t-8.5 32q0 26 20 44.5t48 18.5q21 0 38.5 -11.5t24.5 -29.5q6 -15 6 -34q0 -32 -16 -66.5t-44 -63.5zM280 543q11 19 11 38q0 7 -3.5 12t-13.5 12q-22 16 -30.5 29t-8.5 32q0 26 20 44.5t49 18.5
q21 0 38.5 -11.5t24.5 -30.5q5 -17 5 -32q0 -32 -16 -67t-44 -64z" />
    <glyph glyph-name="quotedblbase" unicode="&#x201e;" horiz-adv-x="412" 
d="M125 -72q10 21 10 38q0 7 -3.5 12t-13.5 12q-21 16 -29.5 29t-8.5 32q0 26 20 44.5t48 18.5q21 0 38.5 -11.5t24.5 -29.5q6 -15 6 -34q0 -32 -16 -66.5t-44 -63.5zM280 -72q11 19 11 38q0 7 -3.5 12t-13.5 12q-22 16 -30.5 29t-8.5 32q0 26 20 44.5t49 18.5
q21 0 38.5 -11.5t24.5 -30.5q5 -17 5 -32q0 -32 -16 -67t-44 -64z" />
    <glyph glyph-name="dagger" unicode="&#x2020;" horiz-adv-x="549" 
d="M251 72l-14 435l-98 -21l-59 43l59 45l111 -26l11 67l-5 25l7 20q-32 16 -32 48q0 22 17.5 38t42.5 16q24 0 41 -16t17 -38q0 -14 -7.5 -26t-20.5 -20l6 -22l-4 -25l10 -66l109 24l67 -44l-67 -43l-96 20l-14 -433l-25 -126h-30z" />
    <glyph glyph-name="daggerdbl" unicode="&#x2021;" horiz-adv-x="483" 
d="M223 -124.5q-15 13.5 -15 33.5q0 13 7 23.5t19 16.5l-4 13v21l-8 21l-10 43v-11l-80 -17l-52 38l52 37l82 -17l14 235l-14 236l-81 -17l-52 37l52 38l89 -20l8 53v24l4 13q-13 6 -20 16.5t-7 23.5q0 19 15.5 33t36.5 14t36 -14t15 -33q0 -13 -7 -23.5t-19 -16.5l4 -13
v-24l8 -52l89 19l57 -38l-57 -37l-80 17l-14 -236l14 -235l80 17l58 -37l-58 -38l-78 16v12l-10 -43l-8 -21v-21l-4 -14q24 -13 24 -39q0 -20 -14 -33.5t-35 -13.5q-22 0 -37 13.5z" />
    <glyph glyph-name="bullet" unicode="&#x2022;" horiz-adv-x="363" 
d="M116 232.5q-36 34.5 -36 82.5t36 82t86 34t85.5 -34t35.5 -82q0 -49 -35.5 -83t-85.5 -34t-86 34.5z" />
    <glyph glyph-name="ellipsis" unicode="&#x2026;" horiz-adv-x="673" 
d="M100 3.5q-20 18.5 -20 44.5t19.5 44t48.5 18q28 0 48.5 -18t20.5 -44t-20 -44.5t-49 -18.5q-28 0 -48 18.5zM309 3.5q-20 18.5 -20 44.5t19.5 44t48.5 18q28 0 47.5 -18t19.5 -44t-19.5 -44.5t-47.5 -18.5t-48 18.5zM517 3.5q-20 18.5 -20 44.5t20.5 44t48.5 18t47.5 -18
t19.5 -44q0 -27 -19 -45t-48 -18t-49 18.5z" />
    <glyph glyph-name="perthousand" unicode="&#x2030;" horiz-adv-x="1071" 
d="M582 653q-47 -10 -96 -10q-40 0 -98 9q31 -41 31 -92q0 -44 -22.5 -81t-61.5 -58.5t-85 -21.5t-85 21.5t-62 58.5t-23 81t23 80.5t62 58t85 21.5h2q20 0 40.5 -5t34.5 -12q49 -12 83.5 -17.5t67.5 -5.5q72 0 147 30h80l-509 -720h-83zM270 454.5q10 17.5 16.5 46
t6.5 59.5q0 36 -12.5 79.5t-29.5 43.5q-9 0 -19 -17.5t-16.5 -46t-6.5 -59.5t6.5 -59.5t16.5 -46t19 -17.5t19 17.5zM457 2.5q-39 21.5 -62 58.5t-23 81t23 80.5t62 58t85 21.5q54 0 98 -30t61 -77q18 48 62 77.5t99 29.5q46 0 84.5 -21.5t61.5 -58.5t23 -80
q0 -44 -22.5 -81t-61.5 -58.5t-85 -21.5q-55 0 -98.5 30t-61.5 77q-17 -48 -61 -77.5t-99 -29.5q-46 0 -85 21.5zM562 36.5q10 17.5 16.5 46t6.5 59.5t-6.5 59.5t-16.5 46t-19 17.5t-19 -17.5t-16.5 -46t-6.5 -59.5t6.5 -59.5t16.5 -46t19 -17.5t19 17.5zM882 36.5
q10 17.5 16.5 46t6.5 59.5t-6.5 59.5t-16.5 46t-19 17.5t-19 -17.5t-16.5 -46t-6.5 -59.5t6.5 -59.5t16.5 -46t19 -17.5t19 17.5z" />
    <glyph glyph-name="guilsinglleft" unicode="&#x2039;" horiz-adv-x="501" 
d="M80 337l381 268v-74l-270 -194l270 -194v-74z" />
    <glyph glyph-name="guilsinglright" unicode="&#x203a;" horiz-adv-x="501" 
d="M80 143l270 194l-270 194v74l381 -268l-381 -268v74z" />
    <glyph glyph-name="fraction" unicode="&#x2044;" horiz-adv-x="806" 
d="M643 780h93l-573 -928h-93z" />
    <glyph glyph-name="Euro" unicode="&#x20ac;" horiz-adv-x="916" 
d="M404 15q-82 35 -137 98.5t-74 148.5h-113l29 53h75l-1 34v18h-84l31 53h60q16 89 70.5 156.5t139 104.5t186.5 37q65 0 126.5 -19t105.5 -52t58 -72l-79 -29q-26 65 -77 98t-124 33q-69 0 -125.5 -31.5t-93.5 -89.5t-48 -136h325l-32 -53h-298v-16l1 -36h304l-32 -53
h-265q23 -112 93 -176.5t170 -64.5q73 0 124 33t77 98l79 -29q-14 -39 -58 -72t-105.5 -52t-126.5 -19q-99 0 -181 35z" />
    <glyph glyph-name="trademark" unicode="&#x2122;" horiz-adv-x="837" 
d="M201 801h-121v32h310v-32h-120v-316h-69v316zM401 833h65l140 -262l126 262h65v-348h-69v244l-117 -244h-34l-134 249v-249h-42v348z" />
    <glyph glyph-name="oneeighth" unicode="&#x215b;" horiz-adv-x="914" 
d="M156 754l110 110v-570h-110v460zM653 780h93l-573 -928h-93zM547.5 -130q-52.5 32 -52.5 90q0 42 28 82.5t82 76.5q-43 35 -63 65t-20 59q0 41 23.5 70t61.5 43.5t80 14.5q60 0 103.5 -29t43.5 -81q0 -34 -24 -67t-70 -63q59 -43 91.5 -80.5t32.5 -77.5q0 -43 -27 -73.5
t-71 -46t-93 -15.5q-73 0 -125.5 32zM748 205.5q15 23.5 15 54.5q0 36 -22 56.5t-52 20.5q-29 0 -50 -19.5t-21 -54.5q0 -28 20.5 -51t61.5 -52q33 22 48 45.5zM738.5 -103.5q28.5 20.5 28.5 56.5q0 28 -22.5 52t-68.5 59l-19 14l-14 11q-36 -26 -55 -59t-19 -70
q0 -40 30.5 -62t71.5 -22q39 0 67.5 20.5z" />
    <glyph glyph-name="threeeighths" unicode="&#x215c;" horiz-adv-x="1015" 
d="M147.5 324.5q-47.5 24.5 -67.5 63.5l65 46q13 -50 36 -73.5t60 -23.5q46 0 74.5 35t28.5 93q0 53 -19.5 82t-54.5 29l-21 -1q-11 -2 -34 -3l-3 37q10 -2 16 -2q31 0 52 29t21 70q0 33 -11 61q-10 19 -21 26.5t-28 7.5q-37 0 -56 -29.5t-17 -84.5l-80 22q14 59 58.5 94
t107.5 35q68 0 112 -34.5t44 -88.5q0 -64 -66 -105q51 -14 82 -50.5t31 -84.5q0 -51 -26 -91t-73 -62t-108 -22q-55 0 -102.5 24.5zM765 780h93l-573 -928h-93zM648.5 -130q-52.5 32 -52.5 90q0 42 28 82.5t82 76.5q-43 35 -63 65t-20 59q0 41 23.5 70t61.5 43.5t80 14.5
q60 0 103.5 -29t43.5 -81q0 -34 -24 -67t-70 -63q59 -43 91.5 -80.5t32.5 -77.5q0 -43 -27 -73.5t-71 -46t-93 -15.5q-73 0 -125.5 32zM849 205.5q15 23.5 15 54.5q0 36 -22 56.5t-52 20.5q-29 0 -50 -19.5t-21 -54.5q0 -28 20.5 -51t61.5 -52q33 22 48 45.5zM839.5 -103.5
q28.5 20.5 28.5 56.5q0 28 -22.5 52t-68.5 59l-19 14l-14 11q-36 -26 -55 -59t-19 -70q0 -40 30.5 -62t71.5 -22q39 0 67.5 20.5z" />
    <glyph glyph-name="fiveeighths" unicode="&#x215d;" horiz-adv-x="1000" 
d="M139.5 319.5q-46.5 25.5 -59.5 62.5l70 42q7 -46 29.5 -71t55.5 -25q23 0 41.5 11t35.5 35q10 14 16.5 39t6.5 51q0 61 -29 99t-76 38q-29 0 -61 -15.5t-74 -50.5v286h343v-79h-271v-114q39 15 84 15q54 0 99.5 -22t72 -60t26.5 -83q0 -69 -55 -127q-24 -25 -66 -41
t-86 -16q-56 0 -102.5 25.5zM748 780h93l-573 -928h-93zM633.5 -130q-52.5 32 -52.5 90q0 42 28 82.5t82 76.5q-43 35 -63 65t-20 59q0 41 23.5 70t61.5 43.5t80 14.5q60 0 103.5 -29t43.5 -81q0 -34 -24 -67t-70 -63q59 -43 91.5 -80.5t32.5 -77.5q0 -43 -27 -73.5t-71 -46
t-93 -15.5q-73 0 -125.5 32zM834 205.5q15 23.5 15 54.5q0 36 -22 56.5t-52 20.5q-29 0 -50 -19.5t-21 -54.5q0 -28 20.5 -51t61.5 -52q33 22 48 45.5zM824.5 -103.5q28.5 20.5 28.5 56.5q0 28 -22.5 52t-68.5 59l-19 14l-14 11q-36 -26 -55 -59t-19 -70q0 -40 30.5 -62
t71.5 -22q39 0 67.5 20.5z" />
    <glyph glyph-name="seveneighths" unicode="&#x215e;" horiz-adv-x="914" 
d="M197 505.5q45 104.5 122 245.5h-236v79h348q-73 -128 -117.5 -263t-48.5 -257h-124q11 91 56 195.5zM653 780h93l-573 -928h-93zM547.5 -130q-52.5 32 -52.5 90q0 42 28 82.5t82 76.5q-43 35 -63 65t-20 59q0 41 23.5 70t61.5 43.5t80 14.5q60 0 103.5 -29t43.5 -81
q0 -34 -24 -67t-70 -63q59 -43 91.5 -80.5t32.5 -77.5q0 -43 -27 -73.5t-71 -46t-93 -15.5q-73 0 -125.5 32zM748 205.5q15 23.5 15 54.5q0 36 -22 56.5t-52 20.5q-29 0 -50 -19.5t-21 -54.5q0 -28 20.5 -51t61.5 -52q33 22 48 45.5zM738.5 -103.5q28.5 20.5 28.5 56.5
q0 28 -22.5 52t-68.5 59l-19 14l-14 11q-36 -26 -55 -59t-19 -70q0 -40 30.5 -62t71.5 -22q39 0 67.5 20.5z" />
    <glyph glyph-name="arrowleft" unicode="&#x2190;" horiz-adv-x="838" 
d="M80 289v38l256 139v-53l-118 -75h580v-60h-580l118 -75v-53z" />
    <glyph glyph-name="arrowup" unicode="&#x2191;" horiz-adv-x="436" 
d="M203 519l-63 -101h-60l134 246h48l134 -246h-60l-63 101v-563h-70v563z" />
    <glyph glyph-name="arrowright" unicode="&#x2192;" horiz-adv-x="838" 
d="M542 203l118 75h-580v60h580l-118 75v53l256 -139v-38l-256 -139v53z" />
    <glyph glyph-name="arrowdown" unicode="&#x2193;" horiz-adv-x="436" 
d="M80 199h59l64 -101v563h70v-563l64 101h59l-134 -246h-48z" />
    <glyph glyph-name="arrowboth" unicode="&#x2194;" horiz-adv-x="994" 
d="M80 358v38l257 139v-53l-118 -75h596l-118 75v53l257 -139v-38l-257 -139v53l118 75h-596l118 -75v-53z" />
    <glyph glyph-name="arrowupdn" unicode="&#x2195;" horiz-adv-x="436" 
d="M80 192h59l64 -101v572l-64 -101h-59l134 247h48l134 -247h-59l-64 101v-572l64 101h59l-134 -247h-48z" />
    <glyph glyph-name="uni2196" unicode="&#x2196;" horiz-adv-x="664" 
d="M177 435l28 -120l-44 -43l-81 273l31 30l273 -81l-36 -36l-130 30l406 -406l-47 -47z" />
    <glyph glyph-name="uni2197" unicode="&#x2197;" horiz-adv-x="664" 
d="M80 82l406 406l-130 -30l-36 36l273 81l31 -30l-81 -273l-44 43l28 120l-400 -400z" />
    <glyph glyph-name="uni2198" unicode="&#x2198;" horiz-adv-x="664" 
d="M320 122l36 36l130 -30l-406 406l47 47l400 -400l-28 120l44 43l81 -273l-31 -30z" />
    <glyph glyph-name="uni2199" unicode="&#x2199;" horiz-adv-x="664" 
d="M80 71l81 273l44 -43l-28 -120l400 400l47 -47l-406 -406l130 30l36 -36l-273 -81z" />
    <glyph glyph-name="partialdiff" unicode="&#x2202;" horiz-adv-x="636" 
d="M199.5 11q-56.5 31 -88 85.5t-31.5 124.5t32 126t89 88t128 32q66 0 119 -33q-14 110 -54 169.5t-99 59.5q-30 0 -53.5 -22t-51.5 -76l-39 72q28 31 71.5 49t89.5 18q87 0 151 -47.5t98.5 -135.5t34.5 -207q0 -77 -29.5 -154t-90 -128.5t-147.5 -51.5q-73 0 -129.5 31z
M391 60.5q29 40.5 46.5 108t17.5 145.5v6q-54 108 -116 108q-32 0 -60.5 -29t-45 -77.5t-16.5 -105.5q0 -55 15 -100t40.5 -70.5t56.5 -25.5q33 0 62 40.5z" />
    <glyph glyph-name="emptyset" unicode="&#x2205;" horiz-adv-x="715" 
d="M195 16q-55 43 -85 103t-30 129q0 80 40 147.5t108 106.5t150 39q40 0 79 -10.5t72 -29.5l81 116h60l-99 -146q50 -43 77 -100.5t27 -122.5q0 -80 -39.5 -147.5t-108 -106.5t-149.5 -39q-71 0 -134 30l-73 -107h-71zM502 461q-57 35 -124 35q-66 0 -121.5 -33t-88 -90
t-32.5 -125q0 -56 23 -106.5t64 -84.5zM499.5 34q55.5 33 87.5 90t32 124q0 52 -20 99t-56 82l-272 -403q51 -25 107 -25q66 0 121.5 33z" />
    <glyph glyph-name="product" unicode="&#x220f;" horiz-adv-x="681" 
d="M161 617h-81v93h561v-93h-75v-744h-85v744h-235v-744h-85v744z" />
    <glyph glyph-name="summation" unicode="&#x2211;" horiz-adv-x="603" 
d="M80 -68l261 349l-261 356v73h483v-81h-380l230 -319l1 -67l-232 -311h381v-81h-483v81z" />
    <glyph glyph-name="minus" unicode="&#x2212;" horiz-adv-x="627" 
d="M80 357h507v-57h-507v57z" />
    <glyph glyph-name="radical" unicode="&#x221a;" horiz-adv-x="760" 
d="M80 282h132l93 -281l240 709h175l-28 -93h-101l-252 -737h-122z" />
    <glyph glyph-name="infinity" unicode="&#x221e;" horiz-adv-x="890" 
d="M548 125q-46 32 -82 86q-45 -54 -92.5 -85.5t-108.5 -31.5q-59 0 -101 25.5t-63 67t-21 88.5q0 49 22.5 93t67.5 71t108 27t107 -30t77 -80q45 51 89.5 80.5t102.5 29.5q61 0 105.5 -27.5t67.5 -71.5t23 -94q0 -47 -21.5 -88t-64 -66.5t-103.5 -25.5q-67 0 -113 32z
M330 208.5q35 29.5 86 91.5q-37 64 -66 94.5t-66 30.5q-57 0 -88.5 -40t-31.5 -94q0 -46 24.5 -79t67.5 -33q39 0 74 29.5zM739 171q29 36 29 87q0 50 -27.5 87t-75.5 37q-37 0 -71.5 -28.5t-81.5 -86.5q37 -66 68.5 -99t75.5 -33q54 0 83 36z" />
    <glyph glyph-name="integral" unicode="&#x222b;" horiz-adv-x="586" 
d="M80 -131l19 33q13 -4 27 -4q47 0 71.5 51.5t33.5 129t15 215.5q7 160 22 260.5t63 171.5t142 71q34 0 73 -10l-20 -30q-18 6 -33 6q-46 0 -69.5 -50t-32.5 -125.5t-17 -212.5q-9 -163 -25 -265t-66 -174.5t-148 -72.5q-25 0 -55 6z" />
    <glyph glyph-name="approxequal" unicode="&#x2248;" horiz-adv-x="629" 
d="M405.5 361q-33.5 11 -77.5 32q-44 20 -73.5 30t-57.5 10q-63 0 -117 -65v79q51 50 115 50q33 0 65 -11t80 -33q45 -20 73.5 -30t56.5 -10q63 0 116 65v-79q-52 -49 -114 -49q-33 0 -66.5 11zM409 193q-32 11 -80 33q-45 20 -73.5 30t-56.5 10q-63 0 -116 -65v79
q52 49 114 49q33 0 66.5 -11t77.5 -32q44 -20 73.5 -30t57.5 -10q63 0 117 65v-79q-51 -50 -115 -50q-33 0 -65 11z" />
    <glyph glyph-name="notequal" unicode="&#x2260;" horiz-adv-x="627" 
d="M275 216h-195v57h220l48 111h-268v57h293l100 228h68l-100 -228h146v-57h-171l-48 -111h219v-57h-244l-114 -260h-68z" />
    <glyph glyph-name="lessequal" unicode="&#x2264;" horiz-adv-x="574" 
d="M80 315v72l454 227v-71l-387 -192l387 -193v-70zM80 81h454v-57h-454v57z" />
    <glyph glyph-name="greaterequal" unicode="&#x2265;" horiz-adv-x="574" 
d="M80 158l387 193l-387 192v71l454 -227v-72l-454 -227v70zM80 81h454v-57h-454v57z" />
    <glyph glyph-name="lozenge" unicode="&#x25ca;" horiz-adv-x="551" 
d="M80 278l174 302h83l174 -303l-174 -301h-83zM417 277l-122 214l-122 -213l122 -213z" />
    <glyph glyph-name="A.ss01" unicode="&#xe000;" horiz-adv-x="830" 
d="M196 37q-78 56 -116.5 141t-38.5 172q0 106 45.5 190.5t126 132t180.5 47.5q148 0 237 -103v93h138v-720h-138v99q-43 -52 -106.5 -80t-137.5 -28q-112 0 -190 56zM573 103q57 71 57 250v2q0 177 -57 246.5t-159 72.5q-71 2 -122.5 -36t-79 -110.5t-27.5 -172.5
q0 -76 25 -153t76.5 -127t127.5 -47q102 4 159 75z" />
    <glyph glyph-name="E.ss01" unicode="&#xe001;" horiz-adv-x="936" 
d="M261.5 26.5q-94.5 46.5 -147 130.5t-52.5 192q0 105 53.5 190t147 133t209.5 48q117 0 209.5 -49t143.5 -136t49 -197h-667q2 -91 38 -162t98 -110.5t141 -39.5q103 0 166 42t104 137l86 -36q-49 -90 -143.5 -139.5t-216.5 -49.5q-124 0 -218.5 46.5zM727 385
q-6 86 -41 152t-91 102.5t-126 36.5t-127 -37t-92 -103t-41 -151h518z" />
    <glyph glyph-name="K.ss01" unicode="&#xe002;" horiz-adv-x="705" 
d="M498 -0.5q-43 23.5 -68 57t-55 87.5q-29 52 -49.5 82.5t-51.5 52.5t-74 27v-316h-138v720h138v-316l385 316h81l-427 -351q90 -7 148 -42t89 -78.5t62 -107.5q35 -70 55 -93.5t45 -23.5q16 0 45 8l2 -38q-46 -8 -79 -8q-65 0 -108 23.5z" />
    <glyph glyph-name="M.ss01" unicode="&#xe003;" horiz-adv-x="1124" 
d="M62 710h138v-110q41 57 102.5 89t124.5 32q52 0 96 -22t72 -66q16 -28 23 -53q40 66 106 103.5t135 37.5q51 0 95 -22t72 -66q20 -32 28 -73.5t8 -114.5v-455h-138v462q0 61 -4 96t-13 52q-36 67 -94 67q-43 0 -85.5 -37t-69.5 -101t-27 -140v-399h-138v462q0 61 -4 96
t-13 52q-36 67 -94 67q-43 0 -85.5 -37t-69.5 -101t-27 -140v-399h-138v720z" />
    <glyph glyph-name="N.ss01" unicode="&#xe004;" horiz-adv-x="743" 
d="M62 710h138v-113q45 59 110 91.5t138 32.5q66 0 119.5 -28.5t78.5 -77.5q19 -37 27 -80.5t8 -107.5v-437h-138v444q0 118 -19 159q-38 82 -111 82q-56 0 -105 -33t-78.5 -97t-29.5 -151v-404h-138v720z" />
    <glyph glyph-name="Q.ss01" unicode="&#xe005;" horiz-adv-x="952" 
d="M594 -5q-55 -15 -119 -15q-118 0 -212 47.5t-147.5 131.5t-53.5 190q0 105 54 190t148.5 133t211.5 48t211.5 -48t148.5 -132.5t54 -190.5q0 -109 -56 -194t-159 -132l195 -57l-30 -90zM616.5 68q61.5 41 96 114t34.5 167q0 92 -35 166t-97 116t-139 42t-139 -42
t-97 -116t-35 -166q0 -93 34.5 -166.5t96.5 -114.5t140 -41q79 0 140.5 41z" />
    <glyph glyph-name="R.ss01" unicode="&#xe006;" horiz-adv-x="749" 
d="M528.5 -2q-37.5 22 -56 53.5t-36.5 81.5q-20 52 -36.5 82t-48 51.5t-82.5 23.5h-69v-300h-138v720h321q141 0 222.5 -56t81.5 -154q0 -84 -60.5 -137.5t-170.5 -67.5q45 -22 73 -53t42 -61.5t28 -73.5q19 -58 31.5 -77t33.5 -19q14 0 46 8l3 -35q-43 -8 -84 -8
q-63 0 -100.5 22zM383 334q84 0 122.5 39.5t38.5 126.5t-38.5 126.5t-122.5 39.5h-183v-332h183z" />
    <glyph glyph-name="T_h" unicode="&#xe007;" horiz-adv-x="1179" 
d="M300 663h-256v47h718v-324q36 41 82 62.5t99 21.5q98 0 145 -53t47 -164v-263h-134v263q0 89 -18 127t-60 38q-40 0 -76 -27.5t-59 -74.5t-26 -102v-224h-134v673h-194v-673h-134v673z" />
    <glyph glyph-name="c_b" unicode="&#xe008;" horiz-adv-x="1162" 
d="M740 25v-35h-134v565q0 56 -25.5 86.5t-59.5 30.5q-35 0 -60 -29t-25 -80q0 -38 15 -75t25 -52t31 -45l25 -36l-92 -49q-14 62 -45 91t-83 29q-61 0 -99 -53.5t-38 -138.5q0 -94 38 -148t104 -54q50 0 82 28t53 90l79 -38q-33 -61 -94 -95.5t-137 -34.5
q-77 0 -137.5 31.5t-94.5 87t-34 125.5t34.5 125.5t96 87t139.5 31.5q31 0 68 -7q-19 48 -19 94q0 51 26 88t68.5 56.5t92.5 19.5q59 0 113 -28t87 -82v-188q29 23 65.5 35.5t76.5 12.5q73 0 129 -30.5t86.5 -86.5t30.5 -129q0 -71 -31 -126.5t-86 -87t-126 -31.5
q-86 0 -145 45zM928.5 57q28.5 26 44.5 71.5t16 101.5q0 57 -15 101.5t-42 69t-62 24.5q-36 0 -66 -25t-47 -69t-17 -97v-23q1 -80 35.5 -130t89.5 -50q35 0 63.5 26z" />
    <glyph glyph-name="c_h" unicode="&#xe009;" horiz-adv-x="1157" 
d="M162.5 13.5q-60.5 31.5 -94.5 87t-34 125.5t34.5 125.5t96 87t139.5 31.5q31 0 68 -7q-19 47 -19 94q0 51 26 88t68.5 56.5t92.5 19.5q59 0 113 -28t87 -82v-225q36 41 82 62.5t99 21.5q98 0 145 -53t47 -164v-263h-134v263q0 89 -18 127t-60 38q-40 0 -76 -27.5
t-59 -74.5t-26 -102v-224h-134v565q0 56 -25.5 86.5t-59.5 30.5q-35 0 -60 -29t-25 -80q0 -38 15 -75t25 -52t31 -45l25 -36l-91 -49l-4 15q-15 54 -45.5 79.5t-79.5 25.5q-61 0 -99 -53.5t-38 -138.5q0 -94 38 -148t104 -54q50 0 82 28t53 90l79 -38q-33 -61 -94 -95.5
t-137 -34.5q-77 0 -137.5 31.5z" />
    <glyph glyph-name="c_k" unicode="&#xe00a;" horiz-adv-x="1124" 
d="M162.5 13.5q-60.5 31.5 -94.5 87t-34 125.5t34.5 125.5t96 87t139.5 31.5q31 0 68 -7q-19 47 -19 94q0 51 26 88t68.5 56.5t92.5 19.5q59 0 113 -28t87 -82v-410l291 259h78l-241 -214l243 -256h-165l-168 177l-38 -35v-142h-134v565q0 56 -25.5 86.5t-59.5 30.5
q-35 0 -60 -29t-25 -80q0 -38 15 -75t25 -52t31 -45l25 -36l-92 -50l-3 16q-15 54 -45.5 79.5t-79.5 25.5q-61 0 -99 -53.5t-38 -138.5q0 -94 38 -148t104 -54q50 0 82 28t53 90l79 -38q-33 -61 -94 -95.5t-137 -34.5q-77 0 -137.5 31.5z" />
    <glyph glyph-name="c_l" unicode="&#xe00b;" horiz-adv-x="804" 
d="M162.5 13.5q-60.5 31.5 -94.5 87t-34 125.5t34.5 125.5t96 87t139.5 31.5q31 0 68 -7q-19 47 -19 94q0 51 26.5 88t71 56.5t95.5 19.5q61 0 116 -28t88 -82v-621h-134v565q0 56 -26.5 86.5t-63.5 30.5q-36 0 -63 -29t-27 -80q0 -38 15 -75t25 -52t31 -45l25 -36l-92 -50
l-3 16q-15 54 -45.5 79.5t-79.5 25.5q-61 0 -99 -53.5t-38 -138.5q0 -94 38 -148t104 -54q50 0 82 28t53 90l79 -38q-33 -61 -94 -95.5t-137 -34.5q-77 0 -137.5 31.5z" />
    <glyph glyph-name="c_t" unicode="&#xe00c;" horiz-adv-x="873" 
d="M642.5 11.5q-27.5 32.5 -27.5 105.5v296h-51v47h51v95q0 56 -26.5 86.5t-63.5 30.5q-36 0 -62.5 -29t-26.5 -80q0 -38 15 -75t25 -52t31 -45l25 -36l-92 -49l-3 15q-15 54 -45.5 79.5t-79.5 25.5q-61 0 -99 -53.5t-38 -138.5q0 -94 38 -148t104 -54q50 0 82 28t53 90
l79 -38q-33 -61 -94 -95.5t-137 -34.5q-77 0 -137.5 31.5t-94.5 87t-34 125.5t34.5 125.5t96 87t139.5 31.5q31 0 68 -7q-19 47 -19 94q0 51 26.5 88t70.5 56.5t95 19.5q61 0 116 -28t88 -82v-151h109v-47h-109v-242q0 -36 -1 -51q-1 -93 9 -95q12 -2 30 12t34 40l37 -29
q-19 -31 -53.5 -50t-71.5 -19q-63 0 -90.5 32.5z" />
    <glyph glyph-name="f_b" unicode="&#xe00d;" horiz-adv-x="876" 
d="M454 25v-35h-134v594q0 37 -13.5 60t-36.5 23q-49 0 -78.5 -40t-29.5 -96q0 -39 14 -71h108v-47h-105v-422h-134v422h-51v47h51v24q0 109 64 172.5t179 63.5q49 0 95 -16.5t71 -43.5v-237q29 23 65.5 35.5t76.5 12.5q73 0 128.5 -30.5t86.5 -86.5t31 -129
q0 -71 -31 -126.5t-86 -87t-126 -31.5q-86 0 -145 45zM642.5 57q28.5 26 44.5 71.5t16 101.5q0 57 -15 101.5t-42 69t-62 24.5q-25 0 -55 -17.5t-52.5 -60t-22.5 -113.5v-23q-1 -50 15.5 -91.5t45 -65t64.5 -23.5q35 0 63.5 26z" />
    <glyph glyph-name="f_h" unicode="&#xe010;" horiz-adv-x="871" 
d="M320 566q0 46 -18 73.5t-42 27.5q-44 0 -71 -39.5t-27 -94.5q0 -41 14 -73h108v-47h-105v-422h-134v422h-51v47h51v24q0 108 62 172t171 64q48 0 100 -16.5t76 -40.5v-277q36 41 82 62.5t99 21.5q98 0 145 -53t47 -164v-263h-134v263q0 89 -18 127t-60 38
q-40 0 -76 -27.5t-59 -74.5t-26 -102v-224h-134v576z" />
    <glyph glyph-name="f_j" unicode="&#xe012;" horiz-adv-x="533" 
d="M260 -225l-14 10v9l17 10q27 -3 42.5 13.5t22 60.5t6.5 126v409h-155v-422h-134v422h-51v47h51v32q0 105 56.5 167.5t157.5 66.5q43 1 88.5 -13t80 -39.5t45.5 -55.5q6 -16 6 -25q0 -26 -23.5 -44.5t-55.5 -18.5q-30 0 -53.5 17t-25.5 42q-1 39 -20 62t-46 23
q-44 0 -70 -36.5t-26 -93.5q0 -22 4.5 -45t12.5 -39h292v-510q0 -66 -17 -104t-55.5 -55t-105.5 -17z" />
    <glyph glyph-name="f_k" unicode="&#xe013;" horiz-adv-x="838" 
d="M320 566q0 46 -18 73.5t-42 27.5q-44 0 -71 -39.5t-27 -94.5q0 -41 14 -73h108v-47h-105v-422h-134v422h-51v47h51v24q0 108 62 172t171 64q48 0 100 -16.5t76 -40.5v-462l291 259h78l-241 -214l243 -256h-165l-168 177l-38 -35v-142h-134v576z" />
    <glyph glyph-name="f_t" unicode="&#xe015;" horiz-adv-x="578" 
d="M347.5 11.5q-27.5 32.5 -27.5 105.5v296h-141v-422h-134v422h-51v47h51v24q0 108 62 172t171 64q50 0 101 -17t75 -43v-200h109v-47h-109v-242q0 -36 -1 -51q-1 -93 9 -95q12 -2 30 12t34 40l37 -29q-19 -31 -53.5 -50t-71.5 -19q-63 0 -90.5 32.5zM320 460v124
q0 36 -18 59.5t-42 23.5q-44 0 -71 -39.5t-27 -94.5q0 -41 14 -73h144z" />
    <glyph glyph-name="s_b" unicode="&#xe016;" horiz-adv-x="1134" 
d="M157 -5.5q-50 14.5 -83.5 40.5t-40.5 57l100 18q4 -40 38 -61.5t95 -21.5q111 0 111 70q0 20 -10.5 32.5t-37 21.5t-76.5 18q-96 15 -157.5 48t-61.5 108q0 41 32 74t87 52t121 19q34 0 74 -7q-19 48 -19 94q0 51 26 88t69 56.5t93 19.5q60 0 113 -28t82 -83v-187
q29 23 65.5 35.5t76.5 12.5q73 0 128.5 -30.5t86.5 -86.5t31 -129q0 -71 -31 -126.5t-86 -87t-126 -31.5q-86 0 -145 45v-35h-134v565q0 56 -24.5 86.5t-58.5 30.5t-58.5 -29t-24.5 -80q0 -32 14 -67.5t44 -80.5l5 -8q11 -18 17.5 -28.5t6.5 -13.5q0 -2 -5 -9l-92 -16
q-5 41 -37.5 63t-87.5 22q-52 0 -81.5 -20t-29.5 -55q0 -21 10 -33t34.5 -20.5t73.5 -17.5q66 -12 108.5 -24.5t75 -43t32.5 -83.5q0 -42 -30.5 -76t-84.5 -53t-121 -19q-57 0 -107 14.5zM900.5 57q28.5 26 44.5 71.5t16 101.5q0 57 -15 101.5t-42 69t-62 24.5
q-36 0 -65.5 -25t-47 -68.5t-17.5 -97.5v-23q1 -80 35.5 -130t89.5 -50q35 0 63.5 26z" />
    <glyph glyph-name="s_h" unicode="&#xe017;" horiz-adv-x="1129" 
d="M157 -5.5q-50 14.5 -83.5 40.5t-40.5 57l100 18q4 -40 38 -61.5t95 -21.5q111 0 111 70q0 20 -10.5 32.5t-37 21.5t-76.5 18q-96 15 -157.5 48t-61.5 108q0 41 32 74t87 52t121 19q42 0 74 -7q-19 48 -19 94q0 51 26 88t69 56.5t93 19.5q60 0 113 -28t82 -83v-224
q36 41 82 62.5t99 21.5q98 0 145 -53t47 -164v-263h-134v263q0 89 -18 127t-60 38q-40 0 -76 -27.5t-59 -74.5t-26 -102v-224h-134v565q0 56 -24.5 86.5t-58.5 30.5t-58.5 -29t-24.5 -80q0 -32 13.5 -67.5t42.5 -79.5l6 -9q2 -3 6.5 -9.5t4.5 -7.5q12 -14 16 -32l-99 -18
q-5 41 -37.5 63t-87.5 22q-52 0 -81.5 -20t-29.5 -55q0 -21 10 -33t34.5 -20.5t73.5 -17.5q66 -12 108.5 -24.5t75 -43t32.5 -83.5q0 -42 -30.5 -76t-84.5 -53t-121 -19q-57 0 -107 14.5z" />
    <glyph glyph-name="s_k" unicode="&#xe018;" horiz-adv-x="1096" 
d="M157 -5.5q-50 14.5 -83.5 40.5t-40.5 57l100 18q4 -40 38 -61.5t95 -21.5q111 0 111 70q0 20 -10.5 32.5t-37 21.5t-76.5 18q-96 15 -157.5 48t-61.5 108q0 41 32 74t87 52t121 19q42 0 74 -7q-19 48 -19 94q0 51 26 88t69 56.5t93 19.5q60 0 113 -28t82 -83v-409
l291 259h78l-241 -214l243 -256h-165l-168 177l-38 -35v-142h-134v565q0 56 -24.5 86.5t-58.5 30.5t-58.5 -29t-24.5 -80q0 -32 13.5 -67.5t42.5 -79.5l6 -9q27 -39 34 -48l-106 -19q-5 41 -37.5 63t-87.5 22q-52 0 -81.5 -20t-29.5 -55q0 -21 10 -33t34.5 -20.5t73.5 -17.5
q66 -12 108.5 -24.5t75 -43t32.5 -83.5q0 -42 -30.5 -76t-84.5 -53t-121 -19q-57 0 -107 14.5z" />
    <glyph glyph-name="s_l" unicode="&#xe019;" horiz-adv-x="786" 
d="M157 -5.5q-50 14.5 -83.5 40.5t-40.5 57l100 18q4 -40 38 -61.5t95 -21.5q111 0 111 70q0 20 -10.5 32.5t-37 21.5t-76.5 18q-96 15 -157.5 48t-61.5 108q0 41 32 74t87 52t121 19q34 0 74 -7q-19 48 -19 94q0 50 27 87.5t72 57t96 19.5q61 0 115 -28t83 -83v-620h-134
v565q0 56 -26 86.5t-62 30.5t-62 -29t-26 -80q0 -32 14 -67.5t44 -80.5l5 -8l31 -49l-104 -18q-5 41 -37.5 63t-87.5 22q-52 0 -81.5 -20t-29.5 -55q0 -21 10 -33t34.5 -20.5t73.5 -17.5q66 -12 108.5 -24.5t75 -43t32.5 -83.5q0 -42 -30.5 -76t-84.5 -53t-121 -19
q-57 0 -107 14.5z" />
    <glyph glyph-name="s_t" unicode="&#xe01a;" horiz-adv-x="849" 
d="M618.5 11.5q-27.5 32.5 -27.5 105.5v296h-51v47h51v95q0 56 -26.5 86.5t-63.5 30.5q-36 0 -62.5 -29t-26.5 -80q0 -32 14 -67.5t44 -80.5l5 -8l31 -49l-104 -18q-5 41 -37.5 63t-87.5 22q-52 0 -81.5 -20t-29.5 -55q0 -21 10 -33t34.5 -20.5t73.5 -17.5
q66 -12 108.5 -24.5t75 -43t32.5 -83.5q0 -42 -30.5 -76t-84.5 -53t-121 -19q-57 0 -107 14.5t-83.5 40.5t-40.5 57l100 18q4 -40 38 -61.5t95 -21.5q111 0 111 70q0 20 -10.5 32.5t-37 21.5t-76.5 18q-96 15 -157.5 48t-61.5 108q0 41 32 74t87 52t121 19q34 0 74 -7
q-19 48 -19 94q0 51 26.5 88t70.5 56.5t95 19.5q61 0 116 -28t88 -82v-151h109v-47h-109v-242l-1 -78q0 -37 3.5 -52.5t14.5 -15.5q23 0 55 52l37 -29q-19 -31 -53.5 -50t-71.5 -19q-63 0 -90.5 32.5z" />
    <glyph glyph-name="t_t" unicode="&#xe01b;" horiz-adv-x="606" 
d="M92.5 11.5q-27.5 32.5 -27.5 105.5v296h-51v47h51v153l134 49v-202h149v223l134 49v-272h109v-47h-109v-242q0 -52 0.5 -87.5t3.5 -47.5t11 -11q25 2 57 52l37 -29q-19 -31 -53.5 -50t-71.5 -19q-63 0 -90.5 32.5t-27.5 105.5v296h-149v-242q0 -52 0.5 -87.5t3.5 -47.5
t11 -11q25 2 57 52l37 -29q-19 -31 -53.5 -50t-71.5 -19q-63 0 -90.5 32.5z" />
    <glyph glyph-name="zero.dnom" unicode="&#xe01c;" horiz-adv-x="580" 
d="M181.5 -100q-47.5 34 -74.5 94.5t-27 137.5q0 78 27 139t74.5 95.5t108.5 34.5t108.5 -34.5t74.5 -95.5t27 -139q0 -77 -27 -137.5t-74.5 -94.5t-108.5 -34t-108.5 34zM339 -70q22 29 34 81.5t12 120.5t-12.5 121.5t-34 83.5t-48.5 30t-48.5 -30t-34 -83.5t-12.5 -121.5
t12 -120.5t34 -81.5t49 -29t49 29z" />
    <glyph glyph-name="one.dnom" unicode="&#xe01d;" horiz-adv-x="270" 
d="M80 328l110 110v-570h-110v460z" />
    <glyph glyph-name="two.dnom" unicode="&#xe01e;" horiz-adv-x="511" 
d="M83 -112l25 25q87 85 149 167t62 165q0 52 -20.5 82t-55.5 30q-38 0 -61 -31t-27 -89l-75 22q8 32 31 64t62.5 54t94.5 22q71 0 116.5 -41.5t45.5 -106.5q0 -50 -29 -100.5t-70.5 -94t-109.5 -106.5h210v-79h-337z" />
    <glyph glyph-name="three.dnom" unicode="&#xe01f;" horiz-adv-x="537" 
d="M147.5 -107.5q-47.5 24.5 -67.5 63.5l65 46q13 -50 36 -73.5t60 -23.5q46 0 74.5 35t28.5 93q0 53 -19.5 82t-54.5 29l-21 -1q-11 -2 -34 -3l-3 37q10 -2 16 -2q31 0 52 29t21 70q0 33 -11 61q-10 19 -21 26.5t-28 7.5q-37 0 -56 -29.5t-17 -84.5l-80 22q14 59 58.5 94
t107.5 35q68 0 112 -34.5t44 -88.5q0 -64 -66 -105q51 -14 82 -50.5t31 -84.5q0 -51 -26 -91t-73 -62t-108 -22q-55 0 -102.5 24.5z" />
    <glyph glyph-name="four.dnom" unicode="&#xe020;" horiz-adv-x="485" 
d="M295 15h-215l237 385h88v-528h-110v143zM295 52v194l-122 -194h122z" />
    <glyph glyph-name="five.dnom" unicode="&#xe021;" horiz-adv-x="529" 
d="M139.5 -105.5q-46.5 25.5 -59.5 62.5l70 42q7 -46 29.5 -71t55.5 -25q23 0 41.5 11t35.5 35q10 14 16.5 39t6.5 51q0 61 -29 99t-76 38q-29 0 -61 -15.5t-74 -50.5v286h343v-79h-271v-114q39 15 84 15q54 0 99.5 -22t72 -60t26.5 -83q0 -69 -55 -127q-24 -25 -66 -41
t-86 -16q-56 0 -102.5 25.5z" />
    <glyph glyph-name="six.dnom" unicode="&#xe022;" horiz-adv-x="539" 
d="M175 -101q-45 29 -70 81t-25 117q0 90 43 160.5t104.5 109.5t113.5 39q9 0 21 -2v-17l-16 -10q-37 4 -76 -45t-60 -125q39 17 78 17q49 0 88 -21.5t61 -59t22 -84.5q0 -41 -21 -85t-62 -74t-98 -30q-58 0 -103 29zM313.5 -75q16.5 21 26.5 56t10 77q0 55 -20 93.5
t-49 38.5q-22 0 -44 -19t-41 -55q-1 -4 -1 -19q0 -52 11.5 -96.5t30.5 -70.5t41 -26q19 0 35.5 21z" />
    <glyph glyph-name="seven.dnom" unicode="&#xe023;" horiz-adv-x="508" 
d="M194 72.5q45 104.5 122 245.5h-236v79h348q-73 -128 -117.5 -263t-48.5 -257h-124q11 91 56 195.5z" />
    <glyph glyph-name="eight.dnom" unicode="&#xe024;" horiz-adv-x="529" 
d="M132.5 -95q-52.5 32 -52.5 90q0 42 28 82.5t82 76.5q-43 35 -63 65t-20 59q0 41 23.5 70t61.5 43.5t80 14.5q60 0 103.5 -29t43.5 -81q0 -34 -24 -67t-70 -63q59 -43 91.5 -80.5t32.5 -77.5q0 -43 -27 -73.5t-71 -46t-93 -15.5q-73 0 -125.5 32zM333 240.5
q15 23.5 15 54.5q0 36 -22 56.5t-52 20.5q-29 0 -50 -19.5t-21 -54.5q0 -28 20.5 -51t61.5 -52q33 22 48 45.5zM323.5 -68.5q28.5 20.5 28.5 56.5q0 28 -22.5 52t-68.5 59l-19 14l-14 11q-36 -26 -55 -59t-19 -70q0 -40 30.5 -62t71.5 -22q39 0 67.5 20.5z" />
    <glyph glyph-name="nine.dnom" unicode="&#xe025;" horiz-adv-x="539" 
d="M177 -124v17l16 10q37 -4 76 45t60 125q-39 -17 -78 -17q-49 0 -88 21.5t-61 59t-22 84.5q0 41 21 85t62 74t98 30q58 0 103 -29t70 -81t25 -117q0 -90 -43 -160.5t-104.5 -109.5t-113.5 -39q-9 0 -21 2zM302 109q22 19 41 55q1 4 1 19q0 52 -11.5 96.5t-30.5 70.5
t-41 26q-19 0 -35.5 -21t-26.5 -56t-10 -77q0 -55 20 -93.5t49 -38.5q22 0 44 19z" />
    <glyph glyph-name="zero.numr" unicode="&#xe026;" horiz-adv-x="580" 
d="M181.5 350q-47.5 34 -74.5 94.5t-27 137.5q0 78 27 139t74.5 95.5t108.5 34.5t108.5 -34.5t74.5 -95.5t27 -139q0 -77 -27 -137.5t-74.5 -94.5t-108.5 -34t-108.5 34zM339 380q22 29 34 81.5t12 120.5t-12.5 121.5t-34 83.5t-48.5 30t-48.5 -30t-34 -83.5t-12.5 -121.5
t12 -120.5t34 -81.5t49 -29t49 29z" />
    <glyph glyph-name="one.numr" unicode="&#xe027;" horiz-adv-x="270" 
d="M80 784l110 110v-570h-110v460z" />
    <glyph glyph-name="two.numr" unicode="&#xe028;" horiz-adv-x="511" 
d="M83 348l25 25q87 85 149 167t62 165q0 52 -20.5 82t-55.5 30q-38 0 -61 -31t-27 -89l-75 22q8 32 31 64t62.5 54t94.5 22q71 0 116.5 -41.5t45.5 -106.5q0 -50 -29 -100.5t-70.5 -94t-109.5 -106.5h210v-79h-337z" />
    <glyph glyph-name="three.numr" unicode="&#xe029;" horiz-adv-x="537" 
d="M147.5 343.5q-47.5 24.5 -67.5 63.5l65 46q13 -50 36 -73.5t60 -23.5q46 0 74.5 35t28.5 93q0 53 -19.5 82t-54.5 29l-21 -1q-11 -2 -34 -3l-3 37q10 -2 16 -2q31 0 52 29t21 70q0 33 -11 61q-10 19 -21 26.5t-28 7.5q-37 0 -56 -29.5t-17 -84.5l-80 22q14 59 58.5 94
t107.5 35q68 0 112 -34.5t44 -88.5q0 -64 -66 -105q51 -14 82 -50.5t31 -84.5q0 -51 -26 -91t-73 -62t-108 -22q-55 0 -102.5 24.5z" />
    <glyph glyph-name="four.numr" unicode="&#xe02a;" horiz-adv-x="485" 
d="M295 471h-215l237 385h88v-528h-110v143zM295 508v194l-122 -194h122z" />
    <glyph glyph-name="five.numr" unicode="&#xe02b;" horiz-adv-x="529" 
d="M139.5 347.5q-46.5 25.5 -59.5 62.5l70 42q7 -46 29.5 -71t55.5 -25q23 0 41.5 11t35.5 35q10 14 16.5 39t6.5 51q0 61 -29 99t-76 38q-29 0 -61 -15.5t-74 -50.5v286h343v-79h-271v-114q39 15 84 15q54 0 99.5 -22t72 -60t26.5 -83q0 -69 -55 -127q-24 -25 -66 -41
t-86 -16q-56 0 -102.5 25.5z" />
    <glyph glyph-name="six.numr" unicode="&#xe02c;" horiz-adv-x="539" 
d="M175 343q-45 29 -70 81t-25 117q0 90 43 160.5t104.5 109.5t113.5 39q9 0 21 -2v-17l-16 -10q-37 4 -76 -45t-60 -125q39 17 78 17q49 0 88 -21.5t61 -59t22 -84.5q0 -41 -21 -85t-62 -74t-98 -30q-58 0 -103 29zM313.5 369q16.5 21 26.5 56t10 77q0 55 -20 93.5
t-49 38.5q-22 0 -44 -19t-41 -55q-1 -4 -1 -19q0 -52 11.5 -96.5t30.5 -70.5t41 -26q19 0 35.5 21z" />
    <glyph glyph-name="seven.numr" unicode="&#xe02d;" horiz-adv-x="508" 
d="M194 516.5q45 104.5 122 245.5h-236v79h348q-73 -128 -117.5 -263t-48.5 -257h-124q11 91 56 195.5z" />
    <glyph glyph-name="eight.numr" unicode="&#xe02e;" horiz-adv-x="529" 
d="M132.5 342q-52.5 32 -52.5 90q0 42 28 82.5t82 76.5q-43 35 -63 65t-20 59q0 41 23.5 70t61.5 43.5t80 14.5q60 0 103.5 -29t43.5 -81q0 -34 -24 -67t-70 -63q59 -43 91.5 -80.5t32.5 -77.5q0 -43 -27 -73.5t-71 -46t-93 -15.5q-73 0 -125.5 32zM333 677.5
q15 23.5 15 54.5q0 36 -22 56.5t-52 20.5q-29 0 -50 -19.5t-21 -54.5q0 -28 20.5 -51t61.5 -52q33 22 48 45.5zM323.5 368.5q28.5 20.5 28.5 56.5q0 28 -22.5 52t-68.5 59l-19 14l-14 11q-36 -26 -55 -59t-19 -70q0 -40 30.5 -62t71.5 -22q39 0 67.5 20.5z" />
    <glyph glyph-name="nine.numr" unicode="&#xe02f;" horiz-adv-x="539" 
d="M177 307v17l16 10q37 -4 76 45t60 125q-39 -17 -78 -17q-49 0 -88 21.5t-61 59t-22 84.5q0 41 21 85t62 74t98 30q58 0 103 -29t70 -81t25 -117q0 -90 -43 -160.5t-104.5 -109.5t-113.5 -39q-9 0 -21 2zM302 540q22 19 41 55q1 4 1 19q0 52 -11.5 96.5t-30.5 70.5t-41 26
q-19 0 -35.5 -21t-26.5 -56t-10 -77q0 -55 20 -93.5t49 -38.5q22 0 44 19z" />
    <glyph glyph-name="ampersand.ss01" unicode="&#xe030;" horiz-adv-x="777" 
d="M204.5 10q-60.5 30 -92.5 78.5t-32 103.5q0 63 42.5 118.5t125.5 87.5l-100 113q-5 57 25.5 105.5t87 76.5t125.5 28q90 0 148.5 -46t77.5 -132l-90 -20q-4 77 -36 117t-87 40q-11 0 -16 -1q-45 -4 -76 -45.5t-31 -97.5l1 -15l298 -344q12 42 12 100q0 20 -4 66h83l1 -29
q0 -113 -43 -194l113 -130h-136l-45 51q-81 -61 -210 -61q-81 0 -141.5 30zM520 83l-238 275q-41 -22 -62.5 -61.5t-21.5 -85.5q0 -45 21 -85.5t61 -65.5t95 -25q90 0 145 48z" />
    <glyph glyph-name="a.ss01" unicode="&#xe082;" horiz-adv-x="591" 
d="M122.5 -4q-41.5 18 -65 50t-23.5 73q0 75 91 118.5t278 57.5q-1 65 -31 96t-91 31q-54 0 -83.5 -22t-37.5 -68l-105 11q10 36 44.5 65t84.5 45.5t105 16.5q73 0 129.5 -23.5t87.5 -66t31 -97.5v-293h-134v44q-39 -26 -88 -41t-98 -15q-53 0 -94.5 18zM331 59q41 22 72 61
v125q-86 -6 -136 -20.5t-72 -39.5t-22 -66q0 -39 20 -60.5t56 -21.5q41 0 82 22z" />
    <glyph glyph-name="b.ss01" unicode="&#xe083;" horiz-adv-x="600" 
d="M111 47.5q-67 68.5 -67 198.5v464h134v-301q30 30 67.5 46t77.5 16q72 0 127 -31t85 -86.5t30 -128.5q0 -114 -70 -180t-191 -66q-126 0 -193 68.5zM366.5 56q28.5 25 44.5 70t16 102q0 56 -15.5 101t-43 70.5t-60.5 25.5q-35 0 -65 -29.5t-47.5 -80t-17.5 -110.5v-13
q1 -73 34.5 -117t89.5 -44q36 0 64.5 25z" />
    <glyph glyph-name="d.ss01" unicode="&#xe085;" horiz-adv-x="600" 
d="M156 9.5q-58 30.5 -90 86.5t-32 129t30.5 128.5t85.5 86.5t127 31q40 0 77.5 -14.5t67.5 -41.5v295h134v-464q0 -128 -69.5 -197.5t-196.5 -69.5q-76 0 -134 30.5zM387.5 74.5q34.5 47.5 34.5 123.5v7q0 60 -17.5 110.5t-47.5 80t-65 29.5q-34 0 -61 -25.5t-42.5 -70.5
t-15.5 -101q0 -95 33 -148t92 -53q55 0 89.5 47.5z" />
    <glyph glyph-name="f.ss01" unicode="&#xe087;" horiz-adv-x="283" 
d="M65 413h-51v47h51v24q0 103 38.5 168.5t139.5 65.5q33 0 75 -9v-42q-27 10 -51 10q-45 0 -66.5 -35t-21.5 -87q0 -49 17 -95h108v-47h-105v-432h-134v432z" />
    <glyph glyph-name="g.ss01" unicode="&#xe088;" horiz-adv-x="605" 
d="M98.5 -227q-61.5 32 -61.5 88q0 32 20.5 56.5t59.5 39.5q-29 15 -45 38.5t-16 51.5q0 30 20.5 54.5t56.5 39.5q-51 26 -80 65t-29 84q0 51 35 92t97.5 64.5t139.5 23.5q75 0 136 -22l105 94l58 -71l-104 -54q37 -25 57 -58.5t20 -70.5q0 -51 -35 -92t-97.5 -64.5
t-139.5 -23.5q-48 0 -89 9q-56 -3 -56 -41q0 -15 17 -22t56 -7h136q105 0 162.5 -37t57.5 -104q0 -79 -82 -122t-232 -43q-106 0 -167.5 32zM393.5 193.5q37.5 36.5 37.5 95.5t-37.5 95.5t-97.5 36.5q-61 0 -98 -35.5t-37 -94.5t37.5 -96.5t97.5 -37.5t97.5 36.5z
M421.5 -187.5q47.5 20.5 47.5 64.5q0 27 -25 42t-73 15h-140q-60 -2 -87.5 -19.5t-27.5 -52.5q0 -36 37 -53t119 -17q102 0 149.5 20.5z" />
    <glyph glyph-name="k.ss01" unicode="&#xe08c;" horiz-adv-x="581" 
d="M54 710h134v-305q33 32 75.5 48.5t89.5 16.5q96 0 152.5 -42t56.5 -114q0 -58 -41 -97.5t-120 -59.5l158 -167h-165l-140 149q-11 -1 -34 -1h-32v-148h-134v720zM425 310q0 52 -24 81t-67 29q-44 0 -83.5 -31t-62.5 -84v-119q15 -1 42 -1q195 0 195 125z" />
    <glyph glyph-name="l.ss01" unicode="&#xe08d;" horiz-adv-x="312" 
d="M54 117v593h134v-539q0 -56 1.5 -82t6.5 -39t17 -13t20.5 9t26.5 34l37 -33q-21 -33 -53 -50.5t-72 -17.5q-118 0 -118 138z" />
    <glyph glyph-name="p.ss01" unicode="&#xe091;" horiz-adv-x="600" 
d="M44 184q0 84 34.5 149t96 101.5t140.5 36.5q72 0 129.5 -31.5t89.5 -87.5t32 -127q0 -68 -33 -124.5t-90.5 -89t-127.5 -32.5q-38 0 -73.5 11.5t-63.5 32.5v-233h-134v394zM366.5 57q28.5 26 44.5 71.5t16 101.5q0 91 -31 143t-85 52q-38 0 -68 -23t-47.5 -63.5
t-17.5 -90.5v-6q0 -97 34 -154t91 -57q35 0 63.5 26z" />
    <glyph glyph-name="q.ss01" unicode="&#xe092;" horiz-adv-x="600" 
d="M422 21q-53 -41 -134 -41q-75 0 -132.5 31.5t-89.5 87t-32 126.5q0 73 32.5 128.5t91 86.5t135.5 31q127 0 195 -77t68 -221v-383h-134v231zM388 88q34 57 34 154v16q0 45 -16.5 83.5t-44.5 61t-61 22.5q-58 0 -92.5 -53t-34.5 -142q0 -56 16 -101.5t44.5 -71.5t63.5 -26
q57 0 91 57z" />
    <glyph glyph-name="u.ss01" unicode="&#xe096;" horiz-adv-x="535" 
d="M98.5 37q-54.5 57 -54.5 182v241h134v-238q0 -86 15 -123q16 -37 38.5 -52.5t61.5 -15.5q63 0 98.5 46t35.5 128v255h63v-240q0 -118 -55 -179t-162 -61q-120 0 -174.5 57z" />
    <glyph glyph-name="w.ss01" unicode="&#xe098;" horiz-adv-x="826" 
d="M94.5 38.5q-50.5 58.5 -50.5 178.5v243h134v-240q0 -97 21.5 -143.5t65.5 -46.5q50 0 78 47t28 133v250h134v-240q0 -98 21.5 -144t66.5 -46q60 0 91 46t31 134v250h64v-240q0 -121 -51 -180.5t-155 -59.5q-123 0 -171 86q-24 -42 -63.5 -64t-91.5 -22
q-102 0 -152.5 58.5z" />
    <glyph glyph-name="y.ss01" unicode="&#xe09a;" horiz-adv-x="511" 
d="M241 -10h-43l-187 469h139l139 -350l143 350h69l-274 -668h-67z" />
    <glyph glyph-name="i.loclTRK" horiz-adv-x="242" 
d="M54 460h134v-470h-134v470zM74 512.5q-20 18.5 -20 45.5t19.5 45.5t47.5 18.5q30 0 50.5 -18.5t20.5 -45.5t-20 -45.5t-49 -18.5t-49 18.5z" />
    <glyph glyph-name="t.ss01" horiz-adv-x="322" 
d="M131.5 -3.5q-35.5 16.5 -51 52.5t-15.5 98v266h-51v47h51v173l134 49v-222h109v-47h-109v-266q0 -45 4.5 -71.5t19.5 -41.5t46 -15q18 0 38 4v-38q-50 -5 -79 -5q-61 0 -96.5 16.5z" />
    </font>
</defs>
</svg>
