<?xml version="1.0" standalone="no"?>
<!DOCTYPE svg PUBLIC "-//W3C//DTD SVG 1.1//EN" "http://www.w3.org/Graphics/SVG/1.1/DTD/svg11.dtd" >
<svg xmlns="http://www.w3.org/2000/svg" xmlns:xlink="http://www.w3.org/1999/xlink" version="1.1">
<metadata>
Created by FontForge 20201107 at Fri Feb  7 01:06:18 2020
 By 
Pavel Larin
</metadata>
<defs>
<font id="Mansory-MediumOblique" horiz-adv-x="0" >
  <font-face 
    font-family="Mansory MediumOblique"
    font-weight="400"
    font-style="oblique"
    font-stretch="normal"
    units-per-em="1000"
    panose-1="0 0 5 0 0 0 0 0 0 0"
    ascent="800"
    descent="-200"
    x-height="449"
    cap-height="700"
    bbox="-712 -432 1339 1000"
    underline-thickness="50"
    underline-position="-100"
    unicode-range="U+0020-E09A"
  />
<missing-glyph horiz-adv-x="650" 
d="M533 -300h-412v1300h412v-1300zM218 913v-43h85v-48h-86v-43h216v43h-86v48h86v43h-215zM217 745v-135h216v44h-86v91h-130zM303 654h-43v47h43v-47zM217 575v-43h86v-48h-86v-43h130v91h86v43h-216zM390 497v-86h-173v-44h216v130h-43zM303 338v-72h44v29h43v-61h-130
v104h-43v-147h216v147h-130zM217 113v-147h216v147h-216zM390 9h-130v62h130v-62zM217 -63v-43h91l-91 -61v-43h216v43h-133l91 61h42v43h-216z" />
    <glyph glyph-name="f_f" unicode="ff" horiz-adv-x="566" 
d="M95 423h-51l6 27h51l10 42q23 103 89 163.5t156 60.5q79 0 121 -56q64 56 149 56q43 0 75.5 -18t43.5 -46l-81 -30q-3 34 -15 48t-36 14q-43 0 -81 -40t-52 -100q-6 -27 -6 -54q0 -22 5 -40h104l-6 -27h-105l-98 -423h-104l98 423h-169l-98 -423h-104zM374 450l10 42
q12 52 37 98q-5 43 -20 68.5t-57 25.5q-44 0 -84 -40.5t-53 -99.5q-6 -27 -6 -54q0 -22 5 -40h168z" />
    <glyph glyph-name="f_f_i" unicode="ffi" horiz-adv-x="795" 
d="M95 423h-51l6 27h51l10 42q23 103 89 163.5t156 60.5q81 0 122 -57q31 26 72 41.5t85 15.5q40 0 75.5 -14.5t57.5 -38.5t23 -52q1 -3 1 -8q0 -25 -23.5 -44t-53.5 -19q-23 0 -38 12t-15 30q0 6 1 9q4 24 4 33q0 29 -13.5 44.5t-38.5 15.5q-44 0 -82.5 -39.5t-52.5 -100.5
q-7 -33 -7 -55q0 -24 6 -39h268l-104 -450h-104l98 423h-165l-98 -423h-104l98 423h-169l-98 -423h-104zM374 450l10 42q11 48 37 97q-6 44 -20.5 69.5t-56.5 25.5q-44 0 -84 -40.5t-53 -99.5q-7 -33 -7 -55q0 -24 6 -39h168z" />
    <glyph glyph-name="f_i" unicode="fi" horiz-adv-x="522" 
d="M95 423h-51l6 27h51l10 42q24 103 90.5 163.5t158.5 60.5q59 0 105 -30t53 -72q1 -4 1 -12q0 -6 -1 -9q-4 -22 -27 -37.5t-49 -15.5q-25 0 -40 14.5t-13 34.5q4 17 4 34q0 29 -13.5 45t-39.5 16q-44 0 -81.5 -39.5t-51.5 -100.5q-6 -27 -6 -54q0 -22 5 -40h268l-104 -450
h-104l98 423h-165l-98 -423h-104z" />
    <glyph glyph-name="f_l" unicode="fl" horiz-adv-x="517" 
d="M95 423h-51l6 27h51l8 34q24 104 94.5 165t165.5 61q44 0 81.5 -14.5t57.5 -38.5l-152 -657h-104l135 584q4 16 4 34q0 28 -12.5 43.5t-35.5 15.5q-36 0 -68.5 -27.5t-52.5 -71t-20 -88.5q0 -23 4 -40h104l-6 -27h-105l-98 -423h-104z" />
    <glyph glyph-name=".notdef" horiz-adv-x="650" 
d="M533 -300h-412v1300h412v-1300zM218 913v-43h85v-48h-86v-43h216v43h-86v48h86v43h-215zM217 745v-135h216v44h-86v91h-130zM303 654h-43v47h43v-47zM217 575v-43h86v-48h-86v-43h130v91h86v43h-216zM390 497v-86h-173v-44h216v130h-43zM303 338v-72h44v29h43v-61h-130
v104h-43v-147h216v147h-130zM217 113v-147h216v147h-216zM390 9h-130v62h130v-62zM217 -63v-43h91l-91 -61v-43h216v43h-133l91 61h42v43h-216z" />
    <glyph glyph-name=".null" 
 />
    <glyph glyph-name="nonmarkingreturn" horiz-adv-x="333" 
 />
    <glyph glyph-name="space" unicode=" " horiz-adv-x="300" 
 />
    <glyph glyph-name="exclam" unicode="!" horiz-adv-x="233" 
d="M161 700h113l-144 -539h-74zM25.5 6.5q-11.5 11.5 -11.5 29.5q0 25 20.5 44.5t45.5 19.5q19 0 30.5 -11.5t11.5 -28.5q0 -26 -20.5 -45.5t-45.5 -19.5q-19 0 -30.5 11.5z" />
    <glyph glyph-name="quotedbl" unicode="&#x22;" horiz-adv-x="304" 
d="M105 712h62l-63 -213h-36zM227 712h62l-63 -213h-36z" />
    <glyph glyph-name="numbersign" unicode="#" horiz-adv-x="805" 
d="M225 177h-173l21 34h170l95 167h-184l24 34h179l125 221h37l-125 -221l174 -1l125 222h37l-125 -222h186l-24 -33h-181l-95 -168h196l-23 -34h-192l-118 -209h-37l118 209l-173 1l-119 -210h-37zM549 378h-174l-95 -167l174 -1z" />
    <glyph glyph-name="dollar" unicode="$" horiz-adv-x="672" 
d="M245 -11q-87 5 -145.5 39t-69.5 87l59 19q9 -54 50 -83.5t112 -33.5l69 299q-64 19 -105.5 37.5t-70 49.5t-28.5 77q0 16 5 39q12 54 56 95t105.5 65t128.5 30l16 71h55l-16 -69q88 -3 148 -37.5t72 -88.5l-59 -19q-9 55 -51.5 84.5t-115.5 33.5l-68 -295q64 -19 107 -38
t72 -51t29 -80q0 -16 -5 -39q-12 -54 -57 -95.5t-108 -66t-130 -29.5l-20 -87h-55zM405 682q-67 -9 -117 -45.5t-63 -92.5q-4 -15 -4 -31q0 -41 29.5 -64t90.5 -44zM426.5 63q51.5 37 64.5 94q4 15 4 31q0 42 -31 66.5t-93 45.5l-65 -282q69 8 120.5 45z" />
    <glyph glyph-name="percent" unicode="%" horiz-adv-x="721" 
d="M670 672q-62 -19 -131 -19q-58 0 -125 15q27 -33 27 -74q0 -18 -4 -34q-9 -42 -37.5 -76.5t-68.5 -54.5t-82 -20q-55 0 -90 33.5t-35 84.5q0 18 4 33q10 41 38.5 75.5t69 54.5t82.5 20h2q36 0 64 -16q91 -24 153 -24q75 0 158 30h53l-657 -700h-51zM302.5 465.5
q25.5 38.5 38.5 94.5q7 31 7 62q0 28 -6.5 46.5t-17.5 22.5q-2 1 -2 0q-6 1 -6 1.5t-1 0.5q-23 0 -49 -38.5t-39 -94.5q-8 -37 -8 -62q0 -33 9.5 -52t25.5 -19q23 0 48.5 38.5zM354.5 24q-34.5 33 -34.5 84q0 18 4 34q9 41 38 75.5t69 54.5t82 20q54 0 89 -33t35 -84
q0 -18 -4 -33q-10 -42 -38.5 -76.5t-68.5 -54.5t-82 -20q-55 0 -89.5 33zM498.5 47.5q25.5 38.5 38.5 94.5q8 37 8 64q0 31 -9 50t-25 19q-24 0 -49.5 -38.5t-38.5 -94.5q-8 -37 -8 -64q0 -31 9 -50t25 -19q24 0 49.5 38.5z" />
    <glyph glyph-name="ampersand" unicode="&#x26;" horiz-adv-x="761" 
d="M447 32q-47 -26 -100 -39.5t-104 -13.5q-104 0 -158.5 44.5t-54.5 113.5q0 18 5 41q13 59 62.5 116.5t128.5 97.5q-11 57 -11 107q0 47 11 93q13 56 49 96t84 60t95 20q57 0 94.5 -27t37.5 -77q0 -17 -4 -32q-14 -59 -76.5 -116.5t-169.5 -109.5q17 -90 53.5 -176.5
t84.5 -145.5q76 64 100 167q4 17 4 39q0 36 -15 67l65 41q8 -23 8 -58q0 -44 -8 -76q-14 -63 -49.5 -114t-85.5 -88q70 -72 141 -66l-4 -18q-98 -3 -183 54zM457 527.5q47 48.5 59 98.5q4 17 4 36q0 36 -19 56t-48 20q-37 0 -72 -33.5t-49 -94.5q-9 -37 -9 -84q0 -33 7 -86
q80 39 127 87.5zM424 49q-67 53 -116.5 135t-73.5 175q-47 -33 -79.5 -78t-42.5 -92q-6 -22 -6 -45q0 -59 40 -96t115 -37q92 0 163 38z" />
    <glyph glyph-name="quotesingle" unicode="'" horiz-adv-x="182" 
d="M105 712h62l-63 -213h-36z" />
    <glyph glyph-name="parenleft" unicode="(" horiz-adv-x="319" 
d="M66 171q0 261 265 529h42q-109 -146 -164.5 -295.5t-55.5 -298.5q0 -110 32 -223h-42q-77 144 -77 288z" />
    <glyph glyph-name="parenright" unicode=")" horiz-adv-x="319" 
d="M150.5 178.5q55.5 149.5 55.5 298.5q0 110 -32 223h42q77 -144 77 -288q0 -261 -265 -529h-42q109 146 164.5 295.5z" />
    <glyph glyph-name="asterisk" unicode="*" horiz-adv-x="422" 
d="M215 599q1 2 4 9h-1l-132 -100l-20 48l136 59l2 2h-1l-1 1l-108 59l42 48l86 -100h1q-1 3 0 9l12 135h62l-50 -135q0 -2 -4 -9h1l132 100l20 -48l-136 -59l-1 -1h-1l2 -2l108 -59l-42 -48l-86 100h-1q2 -3 0 -9l-12 -135h-62z" />
    <glyph glyph-name="plus" unicode="+" horiz-adv-x="597" 
d="M298 311h-220l9 37h220l48 209h37l-48 -209h220l-9 -37h-220l-53 -231h-37z" />
    <glyph glyph-name="comma" unicode="," horiz-adv-x="227" 
d="M107 -69q12 18 17 35q2 10 -2 16.5t-14 15.5t-15.5 17t-5.5 21q0 30 21 49t46 19q18 0 30 -11.5t12 -33.5q0 -31 -24.5 -69.5t-53.5 -65.5z" />
    <glyph glyph-name="hyphen" unicode="-" horiz-adv-x="486" 
d="M84 252h366l-8 -37h-366z" />
    <glyph glyph-name="period" unicode="." horiz-adv-x="226" 
d="M90.5 6.5q-11.5 11.5 -11.5 29.5q0 25 20.5 44.5t45.5 19.5q19 0 30.5 -11.5t11.5 -28.5q0 -26 -20.5 -45.5t-45.5 -19.5q-19 0 -30.5 11.5z" />
    <glyph glyph-name="slash" unicode="/" horiz-adv-x="533" 
d="M535 710h53l-550 -827h-53z" />
    <glyph glyph-name="zero" unicode="0" horiz-adv-x="656" 
d="M108.5 55q-53.5 65 -53.5 175q0 56 15 119q24 104 77 186.5t125 129t149 46.5q93 0 146 -66.5t53 -177.5q0 -59 -14 -118q-24 -104 -77 -185.5t-124.5 -127.5t-149.5 -46q-93 0 -146.5 65zM353.5 52q45.5 41 82.5 117.5t61 179.5q22 95 22 171q0 81 -26.5 126t-75.5 45
q-48 0 -93.5 -42t-83 -119.5t-61.5 -180.5q-22 -94 -22 -169q0 -81 26.5 -125t76.5 -44q48 0 93.5 41z" />
    <glyph glyph-name="one" unicode="1" horiz-adv-x="304" 
d="M160 619l127 101l-166 -720h-104z" />
    <glyph glyph-name="two" unicode="2" horiz-adv-x="562" 
d="M29 33q93 73 171.5 143t150 159.5t91.5 173.5q8 37 8 62q0 52 -25.5 80.5t-71.5 28.5q-63 0 -111.5 -41t-75.5 -118l-49 15q36 70 107 122t168 52q75 0 118.5 -39t43.5 -104q0 -24 -6 -50q-16 -70 -72 -139.5t-127 -129t-188 -148.5l-24 -18h312l-19 -82h-442
q12 11 41 33z" />
    <glyph glyph-name="three" unicode="3" horiz-adv-x="596" 
d="M82.5 13.5q-52.5 28.5 -71.5 80.5l57 33q5 -60 36.5 -88.5t83.5 -28.5q78 0 138 53t79 140q8 32 8 65q0 51 -24.5 78t-72.5 27q-18 0 -55 -5l4 20q41 1 74 24.5t54 58.5t29 70t8 61q0 42 -21.5 64t-61.5 22q-60 0 -102 -39.5t-59 -110.5l-56 14q37 75 101 117t141 42
q73 0 116 -33t43 -89q0 -19 -4 -35q-11 -50 -48.5 -89t-98.5 -65q65 -7 103 -45.5t38 -96.5q0 -18 -5 -41q-23 -100 -107.5 -162.5t-202.5 -67.5q-71 -2 -123.5 26.5z" />
    <glyph glyph-name="four" unicode="4" horiz-adv-x="566" 
d="M326 200h-292l40 45l394 465h80l-164 -710h-104zM332 223l84 368l-315 -368h231z" />
    <glyph glyph-name="five" unicode="5" horiz-adv-x="583" 
d="M70 20q-48 29 -58 76l59 32q1 -59 31.5 -88.5t79.5 -29.5q36 0 73 17.5t71 52.5q23 24 41.5 60.5t27.5 73.5q7 31 7 62q0 67 -35.5 106t-97.5 39q-39 0 -82 -15.5t-96 -48.5l79 343h430l-19 -82h-379l-46 -201q78 34 150 34q61 0 107.5 -22t72.5 -61.5t26 -89.5
q0 -19 -5 -44q-22 -96 -109 -168q-41 -34 -98 -54.5t-113 -20.5q-69 0 -117 29z" />
    <glyph glyph-name="six" unicode="6" horiz-adv-x="601" 
d="M93.5 51q-47.5 61 -47.5 154q0 43 11 89q29 125 108.5 221t173 147.5t159.5 49.5l-3 -13q-46 1 -100.5 -38t-105 -106.5t-84.5 -148.5q35 24 75.5 37.5t80.5 13.5q78 0 124.5 -45t46.5 -118q0 -26 -6 -53q-13 -57 -53.5 -115.5t-101 -97t-132.5 -38.5q-98 0 -145.5 61z
M315 40q36 30 64.5 82.5t43.5 116.5q9 41 9 75q0 57 -22.5 90.5t-62.5 33.5t-85.5 -30.5t-86.5 -85.5l-7 -28q-16 -67 -16 -126q0 -73 24 -115.5t67 -42.5q36 0 72 30z" />
    <glyph glyph-name="seven" unicode="7" horiz-adv-x="548" 
d="M217 272.5q97 143.5 253 345.5h-338l19 82h428q-138 -176 -240 -356.5t-146 -343.5h-122q49 129 146 272.5z" />
    <glyph glyph-name="eight" unicode="8" horiz-adv-x="587" 
d="M91.5 263.5q54.5 57.5 141.5 106.5q-39 39 -61 75.5t-22 72.5q0 14 3 27q12 52 50.5 89.5t90 56.5t103.5 19q65 0 108.5 -28.5t43.5 -80.5q0 -16 -4 -31q-11 -48 -57 -94.5t-121 -87.5q63 -56 97 -100.5t34 -92.5q0 -14 -3 -28q-13 -56 -57 -96t-104.5 -60t-122.5 -20
q-81 0 -136.5 33t-55.5 93q0 16 4 31q14 58 68.5 115.5zM449 482q36 38 47 86q4 15 4 30q0 44 -30 67.5t-74 23.5q-51 0 -95.5 -31t-57.5 -86q-2 -7 -2 -21q0 -38 25.5 -69t78.5 -76q68 38 104 76zM405 159q0 37 -25.5 68.5t-78.5 79.5l-20 18l-27 25q-73 -40 -118 -91.5
t-59 -107.5q-4 -13 -4 -29q0 -50 42 -77.5t102 -27.5q65 0 119 32t67 89q2 7 2 21z" />
    <glyph glyph-name="nine" unicode="9" horiz-adv-x="601" 
d="M126 3q46 -1 100.5 38t105 106.5t84.5 148.5q-35 -24 -75.5 -37.5t-80.5 -13.5q-78 0 -124.5 45t-46.5 118q0 26 6 53q13 57 53.5 115.5t101 97t132.5 38.5q98 0 145.5 -61t47.5 -154q0 -43 -11 -89q-29 -125 -108.5 -221t-173 -147.5t-159.5 -49.5zM359.5 294.5
q45.5 30.5 86.5 85.5l7 28q16 67 16 126q0 73 -24 115.5t-67 42.5q-36 0 -72 -30t-64.5 -82.5t-43.5 -116.5q-9 -40 -9 -75q0 -57 22.5 -90.5t62.5 -33.5t85.5 30.5z" />
    <glyph glyph-name="colon" unicode=":" horiz-adv-x="225" 
d="M135.5 380.5q-11.5 11.5 -11.5 29.5q0 26 20.5 45.5t46.5 19.5q19 0 30.5 -11t11.5 -28q0 -27 -21 -47t-46 -20q-19 0 -30.5 11.5zM44.5 -14.5q-11.5 10.5 -11.5 28.5q0 5 2 15q5 21 24 36.5t41 15.5q18 0 29.5 -11.5t11.5 -29.5q0 -7 -1 -11q-6 -24 -24.5 -39t-40.5 -15
q-19 0 -30.5 10.5z" />
    <glyph glyph-name="semicolon" unicode=";" horiz-adv-x="228" 
d="M144 384.5q-12 11.5 -12 28.5q0 27 20.5 46t46.5 19q19 0 30.5 -11t11.5 -28q0 -26 -20.5 -46t-45.5 -20q-19 0 -31 11.5zM62 -89q14 22 18 36q2 10 -2.5 16.5t-13.5 14.5q-11 10 -16.5 18t-5.5 21q0 29 21 48t46 19q16 0 27.5 -9t13.5 -25q1 -3 1 -11q0 -31 -24 -69
t-53 -65z" />
    <glyph glyph-name="less" unicode="&#x3c;" horiz-adv-x="602" 
d="M131 316l-51 31l65 31l473 212l-10 -45l-443 -198l351 -198l-10 -45z" />
    <glyph glyph-name="equal" unicode="=" horiz-adv-x="599" 
d="M104 429h476l-9 -37h-476zM68 262h476l-9 -37h-476z" />
    <glyph glyph-name="greater" unicode="&#x3e;" horiz-adv-x="602" 
d="M34 149l443 198l-351 198l10 45l375 -212l51 -31l-65 -31l-473 -212z" />
    <glyph glyph-name="question" unicode="?" horiz-adv-x="490" 
d="M197 244.5q28 48.5 77 119.5q54 80 82 129t41 103q6 27 6 48q0 39 -19.5 59.5t-56.5 20.5q-34 0 -65 -22t-51.5 -60t-23.5 -84h-64q13 56 47 99.5t83 67.5t104 24q66 0 107 -34t41 -88q0 -18 -4 -33q-11 -51 -48 -100t-105 -122q-66 -72 -100.5 -119.5t-47.5 -101.5h-42
q11 45 39 93.5zM113.5 6.5q-11.5 11.5 -11.5 29.5q0 25 20.5 44.5t45.5 19.5q19 0 30.5 -11.5t11.5 -28.5q0 -26 -20.5 -45.5t-45.5 -19.5q-19 0 -30.5 11.5z" />
    <glyph glyph-name="at" unicode="@" horiz-adv-x="906" 
d="M220.5 -129q-77.5 41 -115 109.5t-37.5 152.5q0 46 10 87q24 103 94 196.5t177.5 151.5t238.5 58q84 0 152.5 -29.5t108.5 -87.5t40 -141q0 -42 -10 -85q-16 -71 -60.5 -137.5t-105.5 -110.5q-27 -19 -60 -31.5t-66 -12.5q-44 0 -72 22t-30 57q-31 -34 -65.5 -52.5
t-66.5 -18.5q-41 0 -63 27t-22 76q0 26 8 64q15 64 55 127.5t98.5 105t124.5 41.5q21 0 39 -7t29 -20l12 26h89l-106 -216q-16 -33 -25 -49l-20 -42q-19 -38 -19 -66q0 -23 12.5 -36t35.5 -13q39 0 91 36q44 33 84 98t55 128q10 44 10 87q0 108 -68 171t-188 63
q-114 0 -210 -53.5t-159 -141t-86 -185.5q-10 -43 -10 -88q0 -77 32.5 -139.5t98.5 -99t161 -36.5q86 0 151 20.5t119 64.5h54q-57 -51 -145 -81.5t-180 -30.5q-113 0 -190.5 41zM449.5 91q46.5 62 99.5 171l46 98q1 23 -10 41.5t-25 19.5q-38 2 -81.5 -38.5t-79.5 -109.5
t-54 -149q-5 -25 -5 -41q0 -25 9.5 -38.5t26.5 -14.5q27 -1 73.5 61z" />
    <glyph glyph-name="A" unicode="A" horiz-adv-x="750" 
d="M409 700h89l123 -700h-113l-41 233h-323l-148 -233h-30zM462 260l-65 374l-237 -374h302z" />
    <glyph glyph-name="B" unicode="B" horiz-adv-x="753" 
d="M158 700h278q124 0 189 -35t65 -101q0 -18 -4 -34q-11 -47 -60 -91.5t-132 -69.5q160 -28 160 -137q0 -20 -4 -37q-19 -92 -112 -143.5t-239 -51.5h-303zM355 373q92 0 145.5 39.5t72.5 121.5q5 25 5 41q0 101 -148 101h-170l-70 -303h165zM307 24q91 0 151 43t77 120
q6 27 6 49q0 56 -38.5 84.5t-113.5 28.5h-204l-75 -325h197z" />
    <glyph glyph-name="C" unicode="C" horiz-adv-x="811" 
d="M215.5 24q-71.5 34 -110 95.5t-38.5 142.5q0 44 10 87q24 104 92.5 185.5t168 127.5t212.5 46q63 0 116.5 -17.5t87 -47t41.5 -63.5l-61 -20q-13 63 -60.5 95t-118.5 32q-78 0 -154 -44.5t-131.5 -121.5t-77.5 -170q-11 -52 -11 -94q0 -72 27 -127.5t76 -87t114 -31.5
q71 0 133 32t104 95l53 -20q-24 -34 -71.5 -63.5t-109 -47t-124.5 -17.5q-96 0 -167.5 34z" />
    <glyph glyph-name="D" unicode="D" horiz-adv-x="798" 
d="M158 700h251q161 0 248.5 -65t87.5 -183q0 -42 -10 -83q-40 -176 -167 -272.5t-320 -96.5h-252zM254 24q144 0 237 87t131 257q13 55 13 105q0 101 -58.5 152.5t-173.5 51.5h-143l-150 -653h144z" />
    <glyph glyph-name="E" unicode="E" horiz-adv-x="665" 
d="M158 700h511l-6 -27h-403l-69 -298h310l-6 -27h-310l-75 -321h403l-6 -27h-511z" />
    <glyph glyph-name="F" unicode="F" horiz-adv-x="625" 
d="M158 700h501l-6 -27h-393l-69 -298h310l-6 -27h-310l-81 -348h-108z" />
    <glyph glyph-name="G" unicode="G" horiz-adv-x="842" 
d="M215.5 24q-71.5 34 -110 95.5t-38.5 142.5q0 44 10 87q24 104 92.5 185.5t168 127.5t212.5 46q63 0 116.5 -17.5t87 -47t41.5 -63.5l-61 -20q-13 63 -60.5 95t-118.5 32q-79 0 -155 -44.5t-132 -121.5t-78 -170q-11 -52 -11 -93q0 -72 27 -128t76.5 -87t115.5 -31
q56 0 110 19.5t88 51.5l47 207h108l-16 -70q-15 -67 -65.5 -119t-125.5 -81.5t-161 -29.5q-96 0 -167.5 34z" />
    <glyph glyph-name="H" unicode="H" horiz-adv-x="743" 
d="M158 700h108l-75 -325h373l75 325h108l-162 -700h-108l81 348h-373l-81 -348h-108z" />
    <glyph glyph-name="I" unicode="I" horiz-adv-x="262" 
d="M158 700h108l-162 -700h-108z" />
    <glyph glyph-name="J" unicode="J" horiz-adv-x="309" 
d="M-45 -9q5 -1 13 -1q28 0 49 19.5t38.5 65t36.5 126.5l115 499h108l-128 -553q-14 -62 -37 -97.5t-60.5 -51.5t-98.5 -16q-25 0 -38 1z" />
    <glyph glyph-name="K" unicode="K" horiz-adv-x="705" 
d="M158 700h108l-77 -334l484 334h43l-478 -330l325 -370h-141l-252 286l-66 -286h-108z" />
    <glyph glyph-name="L" unicode="L" horiz-adv-x="625" 
d="M158 700h108l-156 -673h383l-6 -27h-491z" />
    <glyph glyph-name="M" unicode="M" horiz-adv-x="970" 
d="M158 700h108l178 -596l422 596h108l-162 -700h-108l147 635l-450 -635h-41l-189 631l-1 3l-147 -634h-27z" />
    <glyph glyph-name="N" unicode="N" horiz-adv-x="743" 
d="M158 700h104l326 -571l132 571h27l-162 -700h-48l-367 637l-147 -637h-27z" />
    <glyph glyph-name="O" unicode="O" horiz-adv-x="952" 
d="M229 21.5q-74 31.5 -118 94t-44 149.5q0 41 10 84q26 112 101.5 194t177 124.5t203.5 42.5q89 0 163.5 -32.5t118.5 -95t44 -149.5q0 -41 -10 -84q-26 -112 -101.5 -193.5t-177 -123.5t-204.5 -42q-89 0 -163 31.5zM557 59.5q75 42.5 129 118t76 171.5q11 45 11 95
q0 71 -26.5 125t-76.5 84t-117 30q-81 0 -156.5 -43t-130 -119.5t-76.5 -171.5q-12 -51 -12 -97q0 -107 59 -171t162 -64q83 0 158 42.5z" />
    <glyph glyph-name="P" unicode="P" horiz-adv-x="729" 
d="M158 700h306q119 0 183.5 -41t64.5 -116q0 -18 -5 -43q-22 -94 -111 -147t-225 -53h-198l-69 -300h-108zM377 324q90 0 142.5 42.5t74.5 133.5q8 38 8 63q0 58 -35.5 85.5t-108.5 27.5h-198l-81 -352h198z" />
    <glyph glyph-name="Q" unicode="Q" horiz-adv-x="952" 
d="M94 -71q17 29 58.5 54.5t90.5 33.5q-81 31 -128.5 94.5t-47.5 154.5q0 40 10 83q26 112 101.5 194t177.5 124.5t204 42.5q89 0 163 -32.5t118 -95t44 -148.5q0 -42 -10 -85q-26 -112 -101.5 -193.5t-177 -123.5t-204.5 -42h-4q27 -14 60 -35q49 -31 82 -45.5t62 -14.5
q30 0 61 16t73 50l19 -7q-53 -50 -101.5 -74t-97.5 -24q-44 0 -90 18.5t-99 56.5q-43 29 -66 42.5t-44 14.5q-38 2 -65.5 -13t-61.5 -57zM557.5 59.5q74.5 42.5 128.5 118t76 171.5q12 51 12 96q0 71 -27 124.5t-77 83.5t-117 30q-81 0 -156.5 -43t-130 -119.5t-76.5 -171.5
q-11 -47 -11 -96q0 -107 59 -171.5t162 -64.5q83 0 157.5 42.5z" />
    <glyph glyph-name="R" unicode="R" horiz-adv-x="749" 
d="M158 700h306q119 0 183.5 -41t64.5 -116q0 -18 -5 -43q-19 -79 -86 -130t-171 -65l122 -305h-119l-121 300h-159l-69 -300h-108zM377 324q90 0 142.5 42.5t74.5 133.5q8 38 8 63q0 58 -35.5 85.5t-108.5 27.5h-198l-81 -352h198z" />
    <glyph glyph-name="S" unicode="S" horiz-adv-x="710" 
d="M103.5 24q-65.5 35 -78.5 91l63 20q20 -119 183 -119q79 0 137 39t72 102q4 15 4 31q0 32 -19 52t-48.5 32.5t-85.5 29.5q-65 20 -111 40.5t-77.5 55t-31.5 83.5q0 15 5 38q13 58 64.5 102t122.5 67t144 23q93 0 157.5 -35t77.5 -91l-63 -20q-19 119 -180 119
q-79 0 -137 -38.5t-72 -101.5q-4 -15 -4 -31q0 -32 19 -51t47 -30t88 -30q65 -20 111 -41.5t77 -56t31 -84.5q0 -16 -5 -39q-13 -58 -64.5 -102t-122.5 -67t-144 -23q-94 0 -159.5 35z" />
    <glyph glyph-name="T" unicode="T" horiz-adv-x="734" 
d="M388 673h-243l6 27h594l-6 -27h-243l-156 -673h-108z" />
    <glyph glyph-name="U" unicode="U" horiz-adv-x="714" 
d="M49 180q0 43 12 95l98 425h108l-101 -436q-11 -52 -11 -89q0 -149 157 -149q221 0 278 246l99 428h30l-99 -427q-64 -283 -333 -283q-238 0 -238 190z" />
    <glyph glyph-name="V" unicode="V" horiz-adv-x="747" 
d="M129 700h113l111 -629l397 629h30l-441 -697l-1 -3h-86z" />
    <glyph glyph-name="W" unicode="W" horiz-adv-x="1185" 
d="M129 700h113l90 -626l373 626h30l75 -626l379 626h30l-423 -700h-86l-70 542l-322 -542h-86z" />
    <glyph glyph-name="X" unicode="X" horiz-adv-x="773" 
d="M338 321l-178 379h124l139 -297l305 297h36l-329 -320l178 -380h-123l-140 297l-306 -297h-35z" />
    <glyph glyph-name="Y" unicode="Y" horiz-adv-x="733" 
d="M302 277l-172 423h120l154 -380l332 380h32l-354 -405l-68 -295h-108z" />
    <glyph glyph-name="Z" unicode="Z" horiz-adv-x="761" 
d="M4 27l633 646h-472l6 27h592l-6 -27l-633 -646h472l-6 -27h-592z" />
    <glyph glyph-name="bracketleft" unicode="[" horiz-adv-x="304" 
d="M174 700h184l-5 -23h-89l-178 -771h89l-5 -23h-184z" />
    <glyph glyph-name="backslash" unicode="\" horiz-adv-x="483" 
d="M175 710h53l120 -827h-53z" />
    <glyph glyph-name="bracketright" unicode="]" horiz-adv-x="304" 
d="M-9 -94h89l178 771h-89l5 23h184l-188 -817h-184z" />
    <glyph glyph-name="asciicircum" unicode="^" horiz-adv-x="363" 
d="M208 782h41l47 -234h-50l-34 160l-109 -160h-50z" />
    <glyph glyph-name="underscore" unicode="_" horiz-adv-x="651" 
d="M84 -46h531l-8 -37h-531z" />
    <glyph glyph-name="grave" unicode="`" horiz-adv-x="273" 
d="M66 879h88l53 -137h-33z" />
    <glyph glyph-name="a" unicode="a" horiz-adv-x="610" 
d="M87 39q-45 49 -45 125q0 33 7 61q16 70 57 123.5t100 83t127 29.5q97 0 145 -73l14 62h101l-104 -450h-104l15 64q-79 -74 -177 -74q-91 0 -136 49zM311.5 38q35.5 17 70.5 59.5t52 115.5l5 21q8 33 8 68q0 48 -17.5 77.5t-42.5 42.5t-47 13q-65 0 -113 -60.5t-68 -144.5
q-9 -36 -9 -72q0 -60 25.5 -98.5t74.5 -38.5q26 0 61.5 17z" />
    <glyph glyph-name="b" unicode="b" horiz-adv-x="610" 
d="M107 57l-14 -57h-104l162 700h104l-71 -308q36 32 80.5 50.5t93.5 18.5q86 0 134.5 -45t48.5 -124q0 -29 -8 -67q-14 -60 -52 -114t-97 -87.5t-133 -33.5q-103 0 -144 67zM319.5 51q38.5 30 66 78t39.5 101q10 45 10 78q0 57 -23.5 92t-72.5 35q-28 0 -66 -19t-73.5 -64
t-52.5 -118l-5 -23q-7 -32 -7 -64q0 -58 27.5 -92t75.5 -34q43 0 81.5 30z" />
    <glyph glyph-name="c" unicode="c" horiz-adv-x="565" 
d="M97.5 40.5q-55.5 48.5 -55.5 129.5q0 28 7 56q16 68 61 121t110 83t138 30q67 0 114.5 -28.5t64.5 -77.5l-63 -30q-6 112 -114 112q-68 0 -122.5 -55.5t-75.5 -146.5q-10 -41 -10 -79q0 -63 30.5 -98t87.5 -35q53 0 94 27t76 84l46 -25q-44 -54 -106 -85t-134 -31
q-93 0 -148.5 48.5z" />
    <glyph glyph-name="d" unicode="d" horiz-adv-x="638" 
d="M87 39.5q-45 49.5 -45 125.5q0 32 7 60q16 70 57.5 123.5t100.5 83t127 29.5q49 0 85 -18.5t57 -50.5l71 308h104l-162 -700h-104l15 64q-79 -74 -177 -74q-91 0 -136 49.5zM312 38q36 17 71 59.5t52 115.5l4 21q8 35 8 68q0 48 -17.5 77.5t-42 42.5t-46.5 13
q-65 0 -113.5 -60.5t-68.5 -144.5q-8 -38 -8 -72q0 -60 25 -98.5t74 -38.5q26 0 62 17z" />
    <glyph glyph-name="e" unicode="e" horiz-adv-x="586" 
d="M97.5 40.5q-55.5 48.5 -55.5 129.5q0 28 7 56q16 68 61 121t110 83t138 30q87 0 137 -46t50 -124q0 -27 -8 -64h-379v-1q-6 -27 -6 -51q0 -65 39 -103.5t98 -38.5q44 0 90 23.5t85 69.5l25 -23q-41 -50 -107 -80t-136 -30q-93 0 -148.5 48.5zM447 253q5 25 5 57
q0 60 -26.5 93t-74.5 33q-57 0 -108.5 -51t-77.5 -132h282z" />
    <glyph glyph-name="f" unicode="f" horiz-adv-x="293" 
d="M95 423h-51l6 27h51l10 42q24 104 88.5 164t153.5 60q43 0 75.5 -18t43.5 -46l-81 -30q-3 34 -15 48t-36 14q-43 0 -81.5 -40t-51.5 -100q-6 -27 -6 -54q0 -22 5 -40h104l-6 -27h-105l-98 -423h-104z" />
    <glyph glyph-name="g" unicode="g" horiz-adv-x="618" 
d="M65 -111q20 -33 57 -53t80 -20q64 0 117 47t76 146l13 55q-81 -74 -177 -74q-91 0 -136 49t-45 125q0 33 7 61q16 70 57 123.5t100 83t127 29.5q98 0 144 -73l15 62h101l-102 -440q-18 -76 -64 -127t-106 -75.5t-122 -24.5q-58 0 -103 21t-62 58zM321.5 46
q35.5 17 70.5 59.5t52 115.5l2 8q8 33 8 67q0 48 -17.5 78t-42.5 43t-47 13q-65 0 -112.5 -58.5t-67.5 -141.5q-8 -32 -8 -69q0 -59 25.5 -95.5t75.5 -36.5q26 0 61.5 17z" />
    <glyph glyph-name="h" unicode="h" horiz-adv-x="577" 
d="M150 700h104l-82 -356q47 54 103 85t119 31q72 0 106.5 -30.5t34.5 -93.5q0 -33 -11 -83l-59 -253h-104l59 253q14 62 14 97q0 41 -16.5 59.5t-50.5 18.5q-37 0 -82 -24.5t-84 -72.5t-59 -116l-50 -215h-104z" />
    <glyph glyph-name="i" unicode="i" horiz-adv-x="242" 
d="M129.5 543.5q-14.5 14.5 -14.5 35.5q0 30 25.5 54t55.5 24q22 0 36.5 -14.5t14.5 -35.5q0 -30 -25.5 -54t-55.5 -24q-22 0 -36.5 14.5zM97 450h104l-104 -450h-104z" />
    <glyph glyph-name="j" unicode="j" horiz-adv-x="251" 
d="M154.5 543.5q-14.5 14.5 -14.5 35.5q0 30 25.5 54t55.5 24q22 0 36.5 -14.5t14.5 -35.5q0 -30 -25.5 -54t-55.5 -24q-22 0 -36.5 14.5zM-119 -206l12 -1q29 0 50 19.5t38 65t36 126.5l103 446h104l-115 -500q-15 -63 -38 -98.5t-61.5 -51.5t-100.5 -16q-20 0 -31 1z" />
    <glyph glyph-name="k" unicode="k" horiz-adv-x="572" 
d="M150 700h104l-122 -529l377 279h41l-276 -204l177 -246h-130l-132 184l-66 -49l-31 -135h-104z" />
    <glyph glyph-name="l" unicode="l" horiz-adv-x="262" 
d="M155 697l113 38l-170 -735h-104z" />
    <glyph glyph-name="m" unicode="m" horiz-adv-x="936" 
d="M120 450h101l-27 -115q48 60 103.5 92.5t113.5 32.5q68 0 100.5 -32.5t30.5 -99.5q51 67 105.5 99.5t115.5 32.5q66 0 98 -30t32 -92q0 -41 -11 -85l-58 -253h-104l58 250q14 64 14 101q0 76 -57 76q-39 0 -81 -27t-76.5 -73t-53.5 -101l-52 -226h-104l58 250
q14 64 14 101q0 76 -57 76q-40 0 -81.5 -26.5t-76 -72.5t-53.5 -101l-52 -227h-104z" />
    <glyph glyph-name="n" unicode="n" horiz-adv-x="604" 
d="M120 450h101l-26 -111q104 121 227 121q71 0 105.5 -30t34.5 -93q0 -34 -11 -84l-58 -253h-104l58 253q14 62 14 99q0 40 -16 58t-50 18q-37 0 -82 -24.5t-84 -72.5t-59 -116l-50 -215h-104z" />
    <glyph glyph-name="o" unicode="o" horiz-adv-x="620" 
d="M99.5 40q-57.5 48 -57.5 130q0 28 7 56q16 69 61 122t111.5 82.5t142.5 29.5q99 0 156.5 -48t57.5 -130q0 -28 -7 -56q-16 -69 -61 -122t-111.5 -82.5t-142.5 -29.5q-99 0 -156.5 48zM384.5 71q52.5 55 77.5 155q11 46 11 80q0 62 -30.5 96t-85.5 34q-71 0 -124 -56
t-75 -155q-10 -41 -10 -79q0 -62 29 -96t84 -34q71 0 123.5 55z" />
    <glyph glyph-name="p" unicode="p" horiz-adv-x="660" 
d="M143 450h101l-15 -62q81 73 179 73q86 0 134.5 -46t48.5 -125q0 -28 -8 -65q-14 -60 -52 -114t-97 -87.5t-133 -33.5q-102 0 -145 67l-59 -257h-104zM369.5 51q38.5 30 66 78t39.5 101q9 39 9 77q0 57 -24 92.5t-72 35.5q-28 0 -65.5 -19t-73 -64t-52.5 -118l-5 -20
q-7 -32 -7 -64q0 -59 27.5 -94t75.5 -35q43 0 81.5 30z" />
    <glyph glyph-name="q" unicode="q" horiz-adv-x="610" 
d="M400 64q-81 -74 -177 -74q-91 0 -136 49t-45 125q0 33 7 61q16 70 57 123.5t100 83t127 29.5q98 0 144 -73l15 62h101l-150 -650h-104zM311.5 38q35.5 17 70.5 59.5t52 115.5l5 21q8 33 8 68q0 48 -17.5 77.5t-42.5 42.5t-47 13q-65 0 -113 -60.5t-68 -144.5
q-9 -36 -9 -72q0 -60 25.5 -98.5t74.5 -38.5q26 0 61.5 17z" />
    <glyph glyph-name="r" unicode="r" horiz-adv-x="479" 
d="M120 450h101l-26 -112q101 122 208 122q42 0 72 -17.5t41 -47.5l-89 -43q-2 42 -15 59.5t-38 17.5q-29 0 -68.5 -25t-77 -73.5t-58.5 -115.5l-50 -215h-104z" />
    <glyph glyph-name="s" unicode="s" horiz-adv-x="534" 
d="M78.5 17q-53.5 27 -60.5 68l72 12q0 -38 34 -59t94 -21t99 21.5t47 64.5q1 4 1 10q0 25 -27.5 40t-93.5 26q-81 14 -128 38.5t-47 79.5q0 13 3 28q10 42 49.5 72.5t95 46.5t111.5 16q76 0 129 -27t59 -68l-71 -12q0 40 -33.5 61t-86.5 21q-60 0 -104 -22.5t-49 -71.5
q-3 -23 11.5 -36.5t38.5 -20.5t69 -15q56 -10 90.5 -20t59.5 -32t25 -60q0 -16 -4 -32q-16 -63 -90 -99t-162 -36q-78 0 -131.5 27z" />
    <glyph glyph-name="t" unicode="t" horiz-adv-x="323" 
d="M43.5 5.5q-19.5 16.5 -19.5 53.5q0 21 8 58l70 306h-51l6 27h51l41 177l113 38l-50 -215h109l-6 -27h-109l-58 -252l-14 -57q-2 -8 -8.5 -35.5t-6.5 -41.5q0 -22 18 -22q14 0 34.5 11t41.5 33l13 -13q-25 -26 -57.5 -41.5t-63.5 -15.5q-42 0 -61.5 16.5z" />
    <glyph glyph-name="u" unicode="u" horiz-adv-x="606" 
d="M77.5 20q-34.5 30 -34.5 93q0 34 11 84l58 253h104l-58 -253q-14 -62 -14 -99q0 -40 16 -58t50 -18q37 0 82 24.5t84 72.5t59 116l50 215h104l-104 -450h-101l26 111q-104 -121 -227 -121q-71 0 -105.5 30z" />
    <glyph glyph-name="v" unicode="v" horiz-adv-x="525" 
d="M72 450h109l86 -384l261 384h30l-305 -450h-79z" />
    <glyph glyph-name="w" unicode="w" horiz-adv-x="785" 
d="M72 450h109l65 -376l222 376h33l46 -379l241 379h30l-285 -450h-82l-40 303l-178 -303h-82z" />
    <glyph glyph-name="x" unicode="x" horiz-adv-x="517" 
d="M215 193l-122 256h119l84 -177l183 177h36l-208 -201l117 -248h-118l-80 169l-175 -169h-36z" />
    <glyph glyph-name="y" unicode="y" horiz-adv-x="618" 
d="M66 -111q18 -29 56.5 -48.5t81.5 -19.5q64 0 117 45.5t75 142.5l22 97q-102 -116 -223 -116q-71 0 -105.5 30t-34.5 93q0 34 11 84l58 253h104l-58 -253q-14 -62 -14 -97q0 -41 16.5 -59.5t50.5 -18.5q37 0 82 24.5t84 72.5t59 116l49 215h104l-101 -440
q-18 -75 -63 -125.5t-104.5 -74t-121.5 -23.5q-58 0 -104 20t-64 55z" />
    <glyph glyph-name="z" unicode="z" horiz-adv-x="585" 
d="M6 27l429 396h-329l6 27h468l-6 -27l-429 -396h334l-6 -27h-473z" />
    <glyph glyph-name="braceleft" unicode="{" horiz-adv-x="335" 
d="M120.5 -107.5q-34.5 11.5 -53 31.5t-18.5 41q0 7 1 10l56 245q4 20 4 27q0 21 -8.5 32.5t-22.5 9.5l2 5q18 -2 34.5 17.5t23.5 50.5l57 246q5 22 32 44.5t69.5 36t91.5 11.5l-2 -9q-4 1 -11 1q-28 0 -51.5 -23t-32.5 -61l-23 -102l-33 -135q-5 -26 -28 -46.5t-78 -33.5
q72 -19 72 -63q0 -5 -2 -17q-18 -78 -32 -134l-23 -102q-3 -15 -3 -28q0 -26 13.5 -42t35.5 -16q7 0 11 1l-1 -7q-46 -2 -80.5 9.5z" />
    <glyph glyph-name="bar" unicode="|" horiz-adv-x="175" 
d="M174 700h55l-188 -817h-55z" />
    <glyph glyph-name="braceright" unicode="}" horiz-adv-x="335" 
d="M-13 -110q4 -1 10 -1q29 0 53.5 24t33.5 62l23 102q10 48 30 134q6 26 29.5 46.5t78.5 33.5q-72 19 -72 63q0 5 2 17l6 26q21 90 25 109l23 102q4 20 4 29q0 26 -13 40.5t-36 14.5q-8 0 -12 -1l2 9q46 2 80.5 -9.5t53 -31.5t18.5 -41q0 -7 -1 -10l-57 -246q-3 -15 -3 -26
q0 -21 8 -32t23 -10l-2 -5q-17 3 -34 -17.5t-25 -51.5l-56 -245q-5 -22 -32 -44.5t-69.5 -36t-91.5 -11.5z" />
    <glyph glyph-name="asciitilde" unicode="~" horiz-adv-x="597" 
d="M85 355q57 42 110 42q31 0 58.5 -10.5t70.5 -31.5q41 -21 69 -31.5t59 -10.5q56 0 110 42l-10 -42q-57 -42 -110 -42q-31 0 -59 10.5t-69 31.5q-43 21 -70.5 31.5t-58.5 10.5q-56 0 -110 -42z" />
    <glyph glyph-name="exclamdown" unicode="&#xa1;" horiz-adv-x="233" 
d="M163.5 409.5q-11.5 11.5 -11.5 29.5q0 25 20.5 44.5t45.5 19.5q19 0 30.5 -11.5t11.5 -28.5q0 -26 -20.5 -45.5t-45.5 -19.5q-19 0 -30.5 11.5zM142 337h74l-104 -539h-113z" />
    <glyph glyph-name="cent" unicode="&#xa2;" horiz-adv-x="589" 
d="M246 -7q-81 7 -128 54.5t-47 121.5q0 29 7 57q22 95 98 158.5t177 73.5l26 112h58l-25 -111q57 -5 98 -33t55 -72l-62 -30q-4 104 -97 112l-94 -408q45 -1 92 23.5t89 73.5l25 -23q-36 -44 -93.5 -73.5t-120.5 -35.5l-21 -93h-58zM347 431q-58 -15 -101 -70.5t-59 -135.5
q-5 -22 -5 -50q0 -49 20 -84t55 -51z" />
    <glyph glyph-name="sterling" unicode="&#xa3;" horiz-adv-x="620" 
d="M34 25q43 33 79 84.5t49 109.5q10 43 10 93q0 29 -1 44v8h-89l8 33h81q-2 57 10 109q14 60 53.5 106.5t97 72.5t122.5 26q79 0 126 -37t47 -97q0 -31 -13 -64l-57 21q12 36 12 64q0 42 -24.5 66t-68.5 24q-70 0 -123 -49t-71 -129q-12 -50 -10 -113h156l-8 -33h-149
q-1 -41 -3.5 -69.5t-9.5 -58.5q-9 -39 -36.5 -79t-70.5 -75h341l-49 -82h-415z" />
    <glyph glyph-name="currency" unicode="&#xa4;" horiz-adv-x="628" 
d="M116 54q-43 46 -43 116q0 30 7 58q13 53 43 98t73 77l-44 128h64l38 -95q63 29 135 29t122 -29l82 95h64l-104 -129q42 -47 42 -118q0 -21 -7 -56q-13 -53 -42.5 -97.5t-72.5 -76.5l44 -128h-64l-38 94q-64 -29 -136 -29q-73 0 -122 29l-81 -94h-64zM370 40.5
q43 24.5 77 72.5t49 115q9 39 9 70q0 68 -34.5 105.5t-87.5 37.5q-42 0 -84 -24.5t-76 -72.5t-50 -116q-9 -39 -9 -70q0 -68 34.5 -105t86.5 -37q42 0 85 24.5z" />
    <glyph glyph-name="yen" unicode="&#xa5;" horiz-adv-x="751" 
d="M307 165h-137l8 33h137l14 61h-137l8 33h127l-166 408h116l147 -364l318 364h50l-351 -403v-1h1l-1 -4h147l-8 -33h-147l-14 -61h147l-8 -33h-147l-38 -165h-104z" />
    <glyph glyph-name="brokenbar" unicode="&#xa6;" horiz-adv-x="175" 
d="M174 700h55l-84 -367h-55zM70 250h55l-84 -367h-55z" />
    <glyph glyph-name="section" unicode="&#xa7;" horiz-adv-x="486" 
d="M85 24q-46 24 -46 64q0 9 3 19l67 1q-3 -12 -3 -24q0 -31 23.5 -48t66.5 -17t77.5 19t42.5 54q2 10 2 13q0 27 -23.5 48t-76.5 54q-65 40 -99 70t-34 67q0 38 34 69.5t82 40.5q-29 23 -45 40t-17 32q0 13 3 29q11 47 70.5 75.5t127.5 28.5q61 0 104.5 -23t43.5 -62
q0 -10 -3 -19l-67 -1q3 12 3 22q0 32 -27 48t-67 16q-42 0 -75 -17.5t-41 -52.5q-2 -10 -2 -14q0 -27 23 -47.5t76 -53.5q62 -37 97.5 -68.5t35.5 -69.5q0 -37 -33 -67t-81 -42q60 -44 61 -72q0 -23 -2 -32q-11 -48 -68.5 -76t-124.5 -28q-62 0 -108 24zM369 282q1 4 1 12
q0 29 -28.5 56t-83.5 64l-43 29q-22 -8 -37 -24.5t-20 -38.5q-1 -4 -1 -11q0 -29 28 -55t86 -66q20 -13 41 -29q47 21 57 63z" />
    <glyph glyph-name="dieresis" unicode="&#xa8;" horiz-adv-x="394" 
d="M61 746.5q-12 11.5 -12 30.5q0 25 20.5 45.5t45.5 20.5q21 0 33 -11.5t12 -30.5q0 -27 -20 -46.5t-47 -19.5q-20 0 -32 11.5zM245 746.5q-12 11.5 -12 29.5q0 27 20.5 46.5t47.5 19.5q19 0 31.5 -11.5t12.5 -29.5q0 -27 -21 -46.5t-47 -19.5q-20 0 -32 11.5z" />
    <glyph glyph-name="copyright" unicode="&#xa9;" horiz-adv-x="829" 
d="M206 -8.5q-64 35.5 -99.5 98t-35.5 140.5q0 40 9 80q22 96 88.5 177.5t159.5 129t189 47.5q82 0 146 -36t99.5 -98.5t35.5 -140.5q0 -38 -9 -79q-22 -96 -89 -177t-159.5 -129t-187.5 -48q-83 0 -147 35.5zM530.5 36.5q82.5 42.5 141.5 115t79 158.5q8 32 8 71
q0 70 -31.5 125.5t-88.5 87.5t-131 32q-86 0 -168.5 -42.5t-141.5 -115t-79 -158.5q-8 -32 -8 -71q0 -70 31.5 -125.5t88.5 -87.5t131 -32q86 0 168.5 42.5zM293 157q-36 41 -36 104q0 26 6 53q12 52 43.5 97.5t79.5 73.5t106 28q53 0 85.5 -25t32.5 -67q0 -12 -1 -18
l-56 -2q2 30 -17 45.5t-56 15.5q-60 0 -104 -43.5t-58 -102.5q-5 -25 -5 -43q0 -47 25 -77t74 -30q66 0 98 62h63q-17 -43 -65.5 -77.5t-107.5 -34.5q-71 0 -107 41z" />
    <glyph glyph-name="guillemotleft" unicode="&#xab;" horiz-adv-x="700" 
d="M118 306l-38 31l403 243l-10 -45l-322 -198l230 -198l-10 -45zM351 306l-38 31l403 243l-10 -45l-322 -198l230 -198l-10 -45z" />
    <glyph glyph-name="logicalnot" unicode="&#xac;" horiz-adv-x="597" 
d="M537 339h-440l9 37h477l-52 -223h-37z" />
    <glyph glyph-name="registered" unicode="&#xae;" horiz-adv-x="521" 
d="M119.5 464q-44.5 44 -44.5 111q0 26 5 46q13 54 50.5 100t89.5 73t107 27q70 0 114.5 -44t44.5 -111q0 -25 -5 -45q-13 -55 -50.5 -101t-89.5 -73t-106 -27q-71 0 -115.5 44zM332 472q45 23 77 62.5t43 86.5q5 22 5 39q0 57 -38 94.5t-98 37.5q-47 0 -91.5 -23t-77 -62.5
t-43.5 -85.5q-5 -22 -5 -39q0 -58 38 -95.5t99 -37.5q46 0 91 23zM250 738h39q30 0 48 -6q20 -7 29.5 -20.5t9.5 -30.5q0 -9 -1 -13q-6 -29 -29.5 -50.5t-59.5 -27.5l46 -77h-49l-33 56l-13 -56h-39zM313 618.5q20 17.5 27 45.5q3 12 3 21q0 43 -57 39l-29 -124
q36 1 56 18.5z" />
    <glyph glyph-name="macron" unicode="&#xaf;" horiz-adv-x="426" 
d="M56 803h326l-12 -55h-326z" />
    <glyph glyph-name="degree" unicode="&#xb0;" horiz-adv-x="446" 
d="M112 485.5q-36 35.5 -36 90.5q0 20 4 37q10 44 41 81.5t73.5 59.5t86.5 22q57 0 93 -35.5t36 -90.5q0 -20 -4 -37q-10 -44 -41 -81.5t-73.5 -59.5t-86.5 -22q-57 0 -93 35.5zM312.5 520.5q46.5 38.5 59.5 92.5q3 15 3 29q0 43 -28.5 71.5t-73.5 28.5q-53 0 -100 -38
t-59 -91q-4 -20 -4 -30q0 -44 29 -72.5t74 -28.5q53 0 99.5 38.5z" />
    <glyph glyph-name="plusminus" unicode="&#xb1;" horiz-adv-x="597" 
d="M309 356h-220l8 36h220l48 209h37l-48 -209h220l-8 -36h-220l-53 -231h-37zM23 71h477l-8 -37h-477z" />
    <glyph glyph-name="acute" unicode="&#xb4;" horiz-adv-x="273" 
d="M151 879h88l-172 -137h-33z" />
    <glyph glyph-name="paragraph" unicode="&#xb6;" horiz-adv-x="553" 
d="M242 328q-64 11 -96.5 51t-32.5 95q0 54 31.5 106.5t89.5 86t134 33.5h44l-162 -700h-84zM510 700h84l-162 -700h-84z" />
    <glyph glyph-name="periodcentered" unicode="&#xb7;" horiz-adv-x="225" 
d="M90 270.5q-12 11.5 -12 28.5q0 26 20.5 45.5t46.5 19.5q19 0 30.5 -11.5t11.5 -28.5q0 -26 -20.5 -45.5t-45.5 -19.5q-19 0 -31 11.5z" />
    <glyph glyph-name="cedilla" unicode="&#xb8;" horiz-adv-x="323" 
d="M167.5 -161.5q22.5 25.5 22.5 54.5q0 20 -13.5 33.5t-40.5 13.5q-12 0 -25 -3l55 75h37l-37 -51q53 3 78.5 -17.5t25.5 -52.5q0 -11 -3 -23q-11 -44 -46.5 -69.5t-79.5 -25.5q-31 0 -59 13t-48 39l14 15q34 -27 64 -27q33 0 55.5 25.5z" />
    <glyph glyph-name="guillemotright" unicode="&#xbb;" horiz-adv-x="700" 
d="M34 139l322 198l-230 198l10 45l253 -212l38 -31l-403 -243zM267 139l322 198l-230 198l10 45l253 -212l38 -31l-403 -243z" />
    <glyph glyph-name="onequarter" unicode="&#xbc;" horiz-adv-x="763" 
d="M252 751l99 80l-122 -527h-80zM739 770h61l-771 -908h-61zM560 31h-208l28 32l281 333h63l-117 -508h-80zM564 48l59 254l-218 -254h159z" />
    <glyph glyph-name="onehalf" unicode="&#xbd;" horiz-adv-x="877" 
d="M242 751l99 80l-122 -527h-80zM739 770h61l-771 -908h-61zM432 -83q107 85 190 169t102 169q6 26 6 45q0 37 -18 57t-50 20q-42 0 -76.5 -30t-53.5 -85l-41 13q27 50 78.5 87t121.5 37q55 0 87 -28t32 -76q0 -18 -4 -34q-12 -49 -51.5 -98t-89.5 -91.5t-134 -106.5
l-20 -15h224l-13 -59h-322z" />
    <glyph glyph-name="threequarters" unicode="&#xbe;" horiz-adv-x="869" 
d="M139 330.5q-37 20.5 -50 55.5l46 27q6 -86 84 -86q53 0 95 38t56 100q6 26 6 46q0 36 -17 55.5t-50 19.5q-11 0 -22 -1t-20 -2l2 14q42 0 73 34t40 75q5 18 5 39q0 12 -2 24q-5 22 -17.5 32t-35.5 10q-41 0 -71 -28.5t-43 -80.5l-45 13q27 53 73.5 83t102.5 30
q54 0 85.5 -24t31.5 -64q0 -11 -3 -25q-16 -72 -107 -110q47 -5 74.5 -32.5t27.5 -68.5q0 -14 -3 -29q-17 -74 -80 -119.5t-150 -45.5q-49 0 -86 20.5zM856 770h61l-771 -908h-61zM650 31h-208l309 365h63l-118 -508h-80zM653 48l59 254l-218 -254h159z" />
    <glyph glyph-name="questiondown" unicode="&#xbf;" horiz-adv-x="490" 
d="M331.5 409.5q-11.5 11.5 -11.5 28.5q0 26 20.5 45.5t45.5 19.5q19 0 30.5 -11.5t11.5 -29.5q0 -25 -20.5 -44.5t-45.5 -19.5q-19 0 -30.5 11.5zM66 -217q-41 34 -41 88q0 18 4 33q11 51 48 100t105 122q66 72 100.5 119.5t47.5 101.5h42q-11 -45 -39 -93.5t-77 -119.5
q-54 -80 -82 -129t-41 -103q-6 -27 -6 -48q0 -39 19.5 -59.5t56.5 -20.5t70 22.5t54 60.5t23 83h57q-13 -56 -47 -99.5t-83 -67.5t-104 -24q-66 0 -107 34z" />
    <glyph glyph-name="Agrave" unicode="&#xc0;" horiz-adv-x="750" 
d="M409 700h89l123 -700h-113l-41 233h-323l-148 -233h-30zM462 260l-65 374l-237 -374h302zM379 880h88l53 -137h-33z" />
    <glyph glyph-name="Aacute" unicode="&#xc1;" horiz-adv-x="750" 
d="M409 700h89l123 -700h-113l-41 233h-323l-148 -233h-30zM462 260l-65 374l-237 -374h302zM494 861h88l-172 -137h-33z" />
    <glyph glyph-name="Acircumflex" unicode="&#xc2;" horiz-adv-x="750" 
d="M409 700h89l123 -700h-113l-41 233h-323l-148 -233h-30zM462 260l-65 374l-237 -374h302zM416 839h147l53 -137h-33l-96 124l-155 -124h-33z" />
    <glyph glyph-name="Atilde" unicode="&#xc3;" horiz-adv-x="750" 
d="M409 700h89l123 -700h-113l-41 233h-323l-148 -233h-30zM462 260l-65 374l-237 -374h302zM527.5 742q-22.5 9 -53.5 26q-29 15 -45 22t-32 7q-58 0 -71 -53h-17q15 64 39.5 89t60.5 25q24 0 46.5 -8.5t52.5 -23.5q27 -14 44.5 -20.5t34.5 -6.5q25 0 45 13.5t25 34.5h17
q-15 -64 -39.5 -89t-60.5 -25q-24 0 -46.5 9z" />
    <glyph glyph-name="Adieresis" unicode="&#xc4;" horiz-adv-x="750" 
d="M409 700h89l123 -700h-113l-41 233h-323l-148 -233h-30zM462 260l-65 374l-237 -374h302zM338 746.5q-12 11.5 -12 30.5q0 25 20.5 45.5t45.5 20.5q21 0 33 -11.5t12 -30.5q0 -27 -20 -46.5t-47 -19.5q-20 0 -32 11.5zM522 746.5q-12 11.5 -12 29.5q0 27 20.5 46.5
t47.5 19.5q19 0 31.5 -11.5t12.5 -29.5q0 -27 -21 -46.5t-47 -19.5q-20 0 -32 11.5z" />
    <glyph glyph-name="Aring" unicode="&#xc5;" horiz-adv-x="750" 
d="M621 0h-113l-41 233h-323l-148 -233h-30l441 697q-17 11 -26.5 29t-9.5 39q0 34 19 63.5t49.5 47.5t63.5 18q37 0 60.5 -23t23.5 -59q0 -38 -25.5 -71t-62.5 -48zM418.5 729q16.5 -17 42.5 -17q23 0 45 13t36 35t14 46q0 25 -16 42.5t-41 17.5q-37 0 -67 -29t-30 -66
q0 -25 16.5 -42zM462 260l-65 374l-237 -374h302z" />
    <glyph glyph-name="AE" unicode="&#xc6;" horiz-adv-x="999" 
d="M454 700h549l-6 -27h-370l-69 -298h277l-6 -27h-277l-75 -321h370l-6 -27h-478l54 233h-258l-163 -233h-30zM423 260l96 413h-53v1l-289 -414h246z" />
    <glyph glyph-name="Ccedilla" unicode="&#xc7;" horiz-adv-x="811" 
d="M666.5 690.5q53.5 -17.5 87 -47t41.5 -63.5l-61 -20q-13 63 -60.5 95t-118.5 32q-78 0 -154 -44.5t-131.5 -121.5t-77.5 -170q-11 -52 -11 -94q0 -72 27 -127.5t76 -87t114 -31.5q71 0 133 32t104 95l53 -20q-36 -51 -119.5 -88.5t-176.5 -39.5l-33 -45q53 3 78.5 -17.5
t25.5 -52.5q0 -11 -3 -23q-11 -44 -46.5 -69.5t-79.5 -25.5q-31 0 -59 13t-48 39l14 15q35 -27 64 -27q33 0 55.5 25t22.5 54q0 21 -13.5 34.5t-40.5 13.5q-12 0 -25 -3l51 70q-88 4 -153 39t-100 95t-35 137q0 44 10 87q24 104 92.5 185.5t168 127.5t212.5 46
q63 0 116.5 -17.5z" />
    <glyph glyph-name="Egrave" unicode="&#xc8;" horiz-adv-x="665" 
d="M158 700h511l-6 -27h-403l-69 -298h310l-6 -27h-310l-75 -321h403l-6 -27h-511zM344 885h88l53 -137h-33z" />
    <glyph glyph-name="Eacute" unicode="&#xc9;" horiz-adv-x="665" 
d="M158 700h511l-6 -27h-403l-69 -298h310l-6 -27h-310l-75 -321h403l-6 -27h-511zM522 886h88l-172 -137h-33z" />
    <glyph glyph-name="Ecircumflex" unicode="&#xca;" horiz-adv-x="665" 
d="M158 700h511l-6 -27h-403l-69 -298h310l-6 -27h-310l-75 -321h403l-6 -27h-511zM407 888h147l53 -137h-33l-96 124l-155 -124h-33z" />
    <glyph glyph-name="Edieresis" unicode="&#xcb;" horiz-adv-x="665" 
d="M158 700h511l-6 -27h-403l-69 -298h310l-6 -27h-310l-75 -321h403l-6 -27h-511zM306 761.5q-12 11.5 -12 30.5q0 25 20.5 45.5t45.5 20.5q21 0 33 -11.5t12 -30.5q0 -27 -20 -46.5t-47 -19.5q-20 0 -32 11.5zM490 761.5q-12 11.5 -12 29.5q0 27 20.5 46.5t47.5 19.5
q19 0 31.5 -11.5t12.5 -29.5q0 -27 -21 -46.5t-47 -19.5q-20 0 -32 11.5z" />
    <glyph glyph-name="Igrave" unicode="&#xcc;" horiz-adv-x="282" 
d="M158 700h108l-162 -700h-108zM136 879h88l53 -137h-33z" />
    <glyph glyph-name="Iacute" unicode="&#xcd;" horiz-adv-x="282" 
d="M158 700h108l-162 -700h-108zM297 878h88l-172 -137h-33z" />
    <glyph glyph-name="Icircumflex" unicode="&#xce;" horiz-adv-x="282" 
d="M158 700h108l-162 -700h-108zM184 880h147l53 -137h-33l-96 124l-155 -124h-33z" />
    <glyph glyph-name="Idieresis" unicode="&#xcf;" horiz-adv-x="282" 
d="M158 700h108l-162 -700h-108zM105 756.5q-12 11.5 -12 30.5q0 25 20.5 45.5t45.5 20.5q21 0 33 -11.5t12 -30.5q0 -27 -20 -46.5t-47 -19.5q-20 0 -32 11.5zM289 756.5q-12 11.5 -12 29.5q0 27 20.5 46.5t47.5 19.5q19 0 31.5 -11.5t12.5 -29.5q0 -27 -21 -46.5
t-47 -19.5q-20 0 -32 11.5z" />
    <glyph glyph-name="Eth" unicode="&#xd0;" horiz-adv-x="798" 
d="M75 340h-83l7 33h83l76 327h251q161 0 248.5 -65t87.5 -183q0 -42 -10 -83q-40 -176 -167 -272.5t-320 -96.5h-252zM254 24q144 0 237 87t131 257q13 55 13 105q0 101 -58.5 152.5t-173.5 51.5h-143l-70 -304h124l-7 -33h-124l-73 -316h144z" />
    <glyph glyph-name="Ntilde" unicode="&#xd1;" horiz-adv-x="743" 
d="M158 700h104l326 -571l132 571h27l-162 -700h-48l-367 637l-147 -637h-27zM553.5 752q-22.5 9 -53.5 26q-29 15 -45 22t-32 7q-58 0 -71 -53h-17q15 64 39.5 89t60.5 25q24 0 46.5 -8.5t52.5 -23.5q27 -14 44.5 -20.5t34.5 -6.5q25 0 45 13.5t25 34.5h17
q-15 -64 -39.5 -89t-60.5 -25q-24 0 -46.5 9z" />
    <glyph glyph-name="Ograve" unicode="&#xd2;" horiz-adv-x="952" 
d="M229 21.5q-74 31.5 -118 94t-44 149.5q0 41 10 84q26 112 101.5 194t177 124.5t203.5 42.5q89 0 163.5 -32.5t118.5 -95t44 -149.5q0 -41 -10 -84q-26 -112 -101.5 -193.5t-177 -123.5t-204.5 -42q-89 0 -163 31.5zM557 59.5q75 42.5 129 118t76 171.5q11 45 11 95
q0 71 -26.5 125t-76.5 84t-117 30q-81 0 -156.5 -43t-130 -119.5t-76.5 -171.5q-12 -51 -12 -97q0 -107 59 -171t162 -64q83 0 158 42.5zM444 889h88l53 -137h-33z" />
    <glyph glyph-name="Oacute" unicode="&#xd3;" horiz-adv-x="952" 
d="M229 21.5q-74 31.5 -118 94t-44 149.5q0 41 10 84q26 112 101.5 194t177 124.5t203.5 42.5q89 0 163.5 -32.5t118.5 -95t44 -149.5q0 -41 -10 -84q-26 -112 -101.5 -193.5t-177 -123.5t-204.5 -42q-89 0 -163 31.5zM557 59.5q75 42.5 129 118t76 171.5q11 45 11 95
q0 71 -26.5 125t-76.5 84t-117 30q-81 0 -156.5 -43t-130 -119.5t-76.5 -171.5q-12 -51 -12 -97q0 -107 59 -171t162 -64q83 0 158 42.5zM652 879h88l-172 -137h-33z" />
    <glyph glyph-name="Ocircumflex" unicode="&#xd4;" horiz-adv-x="952" 
d="M229 21.5q-74 31.5 -118 94t-44 149.5q0 41 10 84q26 112 101.5 194t177 124.5t203.5 42.5q89 0 163.5 -32.5t118.5 -95t44 -149.5q0 -41 -10 -84q-26 -112 -101.5 -193.5t-177 -123.5t-204.5 -42q-89 0 -163 31.5zM557 59.5q75 42.5 129 118t76 171.5q11 45 11 95
q0 71 -26.5 125t-76.5 84t-117 30q-81 0 -156.5 -43t-130 -119.5t-76.5 -171.5q-12 -51 -12 -97q0 -107 59 -171t162 -64q83 0 158 42.5zM515 879h147l53 -137h-33l-96 124l-155 -124h-33z" />
    <glyph glyph-name="Otilde" unicode="&#xd5;" horiz-adv-x="952" 
d="M229 21.5q-74 31.5 -118 94t-44 149.5q0 41 10 84q26 112 101.5 194t177 124.5t203.5 42.5q89 0 163.5 -32.5t118.5 -95t44 -149.5q0 -41 -10 -84q-26 -112 -101.5 -193.5t-177 -123.5t-204.5 -42q-89 0 -163 31.5zM557 59.5q75 42.5 129 118t76 171.5q11 45 11 95
q0 71 -26.5 125t-76.5 84t-117 30q-81 0 -156.5 -43t-130 -119.5t-76.5 -171.5q-12 -51 -12 -97q0 -107 59 -171t162 -64q83 0 158 42.5zM620.5 753q-22.5 9 -53.5 26q-29 15 -45 22t-32 7q-58 0 -71 -53h-17q15 64 39.5 89t60.5 25q24 0 46.5 -8.5t52.5 -23.5
q27 -14 44.5 -20.5t34.5 -6.5q25 0 45 13.5t25 34.5h17q-15 -64 -39.5 -89t-60.5 -25q-24 0 -46.5 9z" />
    <glyph glyph-name="Odieresis" unicode="&#xd6;" horiz-adv-x="952" 
d="M229 21.5q-74 31.5 -118 94t-44 149.5q0 41 10 84q26 112 101.5 194t177 124.5t203.5 42.5q89 0 163.5 -32.5t118.5 -95t44 -149.5q0 -41 -10 -84q-26 -112 -101.5 -193.5t-177 -123.5t-204.5 -42q-89 0 -163 31.5zM557 59.5q75 42.5 129 118t76 171.5q11 45 11 95
q0 71 -26.5 125t-76.5 84t-117 30q-81 0 -156.5 -43t-130 -119.5t-76.5 -171.5q-12 -51 -12 -97q0 -107 59 -171t162 -64q83 0 158 42.5zM436 754.5q-12 11.5 -12 30.5q0 25 20.5 45.5t45.5 20.5q21 0 33 -11.5t12 -30.5q0 -27 -20 -46.5t-47 -19.5q-20 0 -32 11.5z
M620 754.5q-12 11.5 -12 29.5q0 27 20.5 46.5t47.5 19.5q19 0 31.5 -11.5t12.5 -29.5q0 -27 -21 -46.5t-47 -19.5q-20 0 -32 11.5z" />
    <glyph glyph-name="multiply" unicode="&#xd7;" horiz-adv-x="490" 
d="M44 170l197 157l-118 154l33 26l118 -154l183 146l20 -25l-183 -146l120 -157l-31 -27l-121 158l-199 -158z" />
    <glyph glyph-name="Oslash" unicode="&#xd8;" horiz-adv-x="952" 
d="M854.5 560q30.5 -55 30.5 -127q0 -41 -10 -84q-26 -112 -101.5 -193.5t-177 -123.5t-204.5 -42q-106 0 -185 43l-39 -43h-38l52 57q-54 36 -84.5 91t-30.5 127q0 41 10 84q26 112 101.5 194t177 124.5t203.5 42.5q104 0 185 -43l39 43h39l-53 -58q55 -37 85.5 -92z
M178 251q0 -93 47 -156l481 530q-58 58 -153 58q-81 0 -156.5 -43t-130 -119.5t-76.5 -171.5q-12 -52 -12 -98zM773 444q0 97 -48 160l-481 -530q60 -57 155 -57q83 0 158 42.5t129 118t76 171.5q11 45 11 95z" />
    <glyph glyph-name="Ugrave" unicode="&#xd9;" horiz-adv-x="714" 
d="M49 180q0 43 12 95l98 425h108l-101 -436q-11 -52 -11 -89q0 -149 157 -149q221 0 278 246l99 428h30l-99 -427q-64 -283 -333 -283q-238 0 -238 190zM373 840h88l53 -137h-33z" />
    <glyph glyph-name="Uacute" unicode="&#xda;" horiz-adv-x="714" 
d="M49 180q0 43 12 95l98 425h108l-101 -436q-11 -52 -11 -89q0 -149 157 -149q221 0 278 246l99 428h30l-99 -427q-64 -283 -333 -283q-238 0 -238 190zM548 839h88l-172 -137h-33z" />
    <glyph glyph-name="Ucircumflex" unicode="&#xdb;" horiz-adv-x="714" 
d="M49 180q0 43 12 95l98 425h108l-101 -436q-11 -52 -11 -89q0 -149 157 -149q221 0 278 246l99 428h30l-99 -427q-64 -283 -333 -283q-238 0 -238 190zM447 881h147l53 -137h-33l-96 124l-155 -124h-33z" />
    <glyph glyph-name="Udieresis" unicode="&#xdc;" horiz-adv-x="714" 
d="M49 180q0 43 12 95l98 425h108l-101 -436q-11 -52 -11 -89q0 -149 157 -149q221 0 278 246l99 428h30l-99 -427q-64 -283 -333 -283q-238 0 -238 190zM348 731.5q-12 11.5 -12 30.5q0 25 20.5 45.5t45.5 20.5q21 0 33 -11.5t12 -30.5q0 -27 -20 -46.5t-47 -19.5
q-20 0 -32 11.5zM532 731.5q-12 11.5 -12 29.5q0 27 20.5 46.5t47.5 19.5q19 0 31.5 -11.5t12.5 -29.5q0 -27 -21 -46.5t-47 -19.5q-20 0 -32 11.5z" />
    <glyph glyph-name="Yacute" unicode="&#xdd;" horiz-adv-x="733" 
d="M302 277l-172 423h120l154 -380l332 380h32l-354 -405l-68 -295h-108zM587 880h88l-172 -137h-33z" />
    <glyph glyph-name="Thorn" unicode="&#xde;" horiz-adv-x="729" 
d="M158 700h108l-33 -140h198q119 0 183.5 -41t64.5 -115q0 -25 -5 -44q-22 -94 -110.5 -147t-224.5 -53h-198l-37 -160h-108zM345 184q90 0 142.5 42.5t73.5 133.5q8 38 8 64q0 58 -35 85t-108 27h-198l-81 -352h198z" />
    <glyph glyph-name="germandbls" unicode="&#xdf;" horiz-adv-x="607" 
d="M172.5 17.5q-35.5 28.5 -33.5 76.5h24q-1 -44 28.5 -64t70.5 -20q59 0 108 47t65 117q7 28 7 55q0 50 -28.5 76.5t-84.5 27.5q-28 -2 -45 -1l4 16l12 -1q44 0 83 37.5t55 93.5q9 32 9 58q0 41 -21.5 64.5t-61.5 23.5q-55 0 -97.5 -42.5t-58.5 -115.5l-108 -466h-104
l99 427q23 103 95.5 158.5t181.5 55.5q81 0 122.5 -34.5t41.5 -87.5q0 -52 -38.5 -100.5t-103.5 -71.5q65 -8 102 -43t37 -89q0 -16 -5 -38q-13 -55 -49.5 -98t-90.5 -66.5t-117 -23.5t-98.5 28.5z" />
    <glyph glyph-name="agrave" unicode="&#xe0;" horiz-adv-x="610" 
d="M87 39q-45 49 -45 125q0 33 7 61q16 70 57 123.5t100 83t127 29.5q97 0 145 -73l14 62h101l-104 -450h-104l15 64q-79 -74 -177 -74q-91 0 -136 49zM311.5 38q35.5 17 70.5 59.5t52 115.5l5 21q8 33 8 68q0 48 -17.5 77.5t-42.5 42.5t-47 13q-65 0 -113 -60.5t-68 -144.5
q-9 -36 -9 -72q0 -60 25.5 -98.5t74.5 -38.5q26 0 61.5 17zM247 642h88l53 -137h-33z" />
    <glyph glyph-name="aacute" unicode="&#xe1;" horiz-adv-x="610" 
d="M87 39q-45 49 -45 125q0 33 7 61q16 70 57 123.5t100 83t127 29.5q97 0 145 -73l14 62h101l-104 -450h-104l15 64q-79 -74 -177 -74q-91 0 -136 49zM311.5 38q35.5 17 70.5 59.5t52 115.5l5 21q8 33 8 68q0 48 -17.5 77.5t-42.5 42.5t-47 13q-65 0 -113 -60.5t-68 -144.5
q-9 -36 -9 -72q0 -60 25.5 -98.5t74.5 -38.5q26 0 61.5 17zM452 640h88l-172 -137h-33z" />
    <glyph glyph-name="acircumflex" unicode="&#xe2;" horiz-adv-x="610" 
d="M87 39q-45 49 -45 125q0 33 7 61q16 70 57 123.5t100 83t127 29.5q97 0 145 -73l14 62h101l-104 -450h-104l15 64q-79 -74 -177 -74q-91 0 -136 49zM311.5 38q35.5 17 70.5 59.5t52 115.5l5 21q8 33 8 68q0 48 -17.5 77.5t-42.5 42.5t-47 13q-65 0 -113 -60.5t-68 -144.5
q-9 -36 -9 -72q0 -60 25.5 -98.5t74.5 -38.5q26 0 61.5 17zM303 651h147l53 -137h-33l-96 124l-155 -124h-33z" />
    <glyph glyph-name="atilde" unicode="&#xe3;" horiz-adv-x="610" 
d="M87 39q-45 49 -45 125q0 33 7 61q16 70 57 123.5t100 83t127 29.5q97 0 145 -73l14 62h101l-104 -450h-104l15 64q-79 -74 -177 -74q-91 0 -136 49zM311.5 38q35.5 17 70.5 59.5t52 115.5l5 21q8 33 8 68q0 48 -17.5 77.5t-42.5 42.5t-47 13q-65 0 -113 -60.5t-68 -144.5
q-9 -36 -9 -72q0 -60 25.5 -98.5t74.5 -38.5q26 0 61.5 17zM392.5 515q-22.5 9 -53.5 26q-29 15 -45 22t-32 7q-58 0 -71 -53h-17q15 64 39.5 89t60.5 25q24 0 46.5 -8.5t52.5 -23.5q27 -14 44.5 -20.5t34.5 -6.5q25 0 45 13.5t25 34.5h17q-15 -64 -39.5 -89t-60.5 -25
q-24 0 -46.5 9z" />
    <glyph glyph-name="adieresis" unicode="&#xe4;" horiz-adv-x="610" 
d="M87 39q-45 49 -45 125q0 33 7 61q16 70 57 123.5t100 83t127 29.5q97 0 145 -73l14 62h101l-104 -450h-104l15 64q-79 -74 -177 -74q-91 0 -136 49zM311.5 38q35.5 17 70.5 59.5t52 115.5l5 21q8 33 8 68q0 48 -17.5 77.5t-42.5 42.5t-47 13q-65 0 -113 -60.5t-68 -144.5
q-9 -36 -9 -72q0 -60 25.5 -98.5t74.5 -38.5q26 0 61.5 17zM232 521.5q-12 11.5 -12 30.5q0 25 20.5 45.5t45.5 20.5q21 0 33 -11.5t12 -30.5q0 -27 -20 -46.5t-47 -19.5q-20 0 -32 11.5zM416 521.5q-12 11.5 -12 29.5q0 27 20.5 46.5t47.5 19.5q19 0 31.5 -11.5t12.5 -29.5
q0 -27 -21 -46.5t-47 -19.5q-20 0 -32 11.5z" />
    <glyph glyph-name="aring" unicode="&#xe5;" horiz-adv-x="610" 
d="M87 39q-45 49 -45 125q0 33 7 61q16 70 57 123.5t100 83t127 29.5q97 0 145 -73l14 62h101l-104 -450h-104l15 64q-79 -74 -177 -74q-91 0 -136 49zM311.5 38q35.5 17 70.5 59.5t52 115.5l5 21q8 33 8 68q0 48 -17.5 77.5t-42.5 42.5t-47 13q-65 0 -113 -60.5t-68 -144.5
q-9 -36 -9 -72q0 -60 25.5 -98.5t74.5 -38.5q26 0 61.5 17zM299.5 523q-23.5 23 -23.5 59q0 33 19 62.5t49.5 47.5t63.5 18q37 0 60.5 -23t23.5 -59q0 -33 -19 -62.5t-49.5 -47.5t-63.5 -18q-37 0 -60.5 23zM411 541q22 13 36 35t14 46q0 25 -16 42.5t-41 17.5
q-37 0 -67 -29t-30 -66q0 -25 16.5 -42t42.5 -17q23 0 45 13z" />
    <glyph glyph-name="ae" unicode="&#xe6;" horiz-adv-x="908" 
d="M464.5 13q-46.5 21 -70.5 56q-46 -40 -103 -60.5t-113 -20.5q-71 0 -118.5 30t-47.5 81q0 12 3 24q16 72 94.5 110t207.5 38q20 0 64 -2q12 50 12 84q0 45 -20.5 66t-62.5 21q-100 0 -140 -94l-62 9q28 50 83.5 78.5t134.5 28.5q53 0 94 -19t60 -49q40 30 93.5 48
t106.5 18q87 0 137 -45.5t50 -123.5q0 -28 -8 -65h-379v-1q-6 -27 -6 -51q0 -65 39 -103.5t98 -38.5q44 0 90 23.5t85 69.5l26 -23q-41 -50 -108 -80t-136 -30q-57 0 -103.5 21zM769 253q6 32 6 59q0 59 -26.5 91.5t-74.5 32.5q-56 0 -109 -51t-78 -132h282zM364 169
q0 28 7 56l5 22q-30 3 -56 3q-89 0 -136.5 -31t-63.5 -98q-3 -13 -3 -25q0 -36 26 -56.5t68 -20.5q39 0 84 18.5t85 55.5q-16 36 -16 76z" />
    <glyph glyph-name="ccedilla" unicode="&#xe7;" horiz-adv-x="565" 
d="M364 49q41 27 76 84l46 -25q-40 -47 -92.5 -77t-114.5 -37l-24 -33q53 3 78.5 -17.5t25.5 -52.5q0 -11 -3 -23q-11 -44 -46.5 -69.5t-79.5 -25.5q-31 0 -59 13t-48 39l14 15q34 -27 64 -27q33 0 55.5 25t22.5 54q0 21 -13.5 34.5t-40.5 13.5q-11 0 -25 -3l40 55
q-91 2 -144.5 50.5t-53.5 126.5q0 29 7 57q16 68 61 121t110 83t138 30q67 0 114.5 -28.5t64.5 -77.5l-63 -30q-6 112 -114 112q-68 0 -122.5 -55.5t-75.5 -146.5q-10 -41 -10 -79q0 -63 30.5 -98t87.5 -35q53 0 94 27z" />
    <glyph glyph-name="egrave" unicode="&#xe8;" horiz-adv-x="586" 
d="M97.5 40.5q-55.5 48.5 -55.5 129.5q0 28 7 56q16 68 61 121t110 83t138 30q87 0 137 -46t50 -124q0 -27 -8 -64h-379v-1q-6 -27 -6 -51q0 -65 39 -103.5t98 -38.5q44 0 90 23.5t85 69.5l25 -23q-41 -50 -107 -80t-136 -30q-93 0 -148.5 48.5zM447 253q5 25 5 57
q0 60 -26.5 93t-74.5 33q-57 0 -108.5 -51t-77.5 -132h282zM233 639h88l53 -137h-33z" />
    <glyph glyph-name="eacute" unicode="&#xe9;" horiz-adv-x="586" 
d="M97.5 40.5q-55.5 48.5 -55.5 129.5q0 28 7 56q16 68 61 121t110 83t138 30q87 0 137 -46t50 -124q0 -27 -8 -64h-379v-1q-6 -27 -6 -51q0 -65 39 -103.5t98 -38.5q44 0 90 23.5t85 69.5l25 -23q-41 -50 -107 -80t-136 -30q-93 0 -148.5 48.5zM447 253q5 25 5 57
q0 60 -26.5 93t-74.5 33q-57 0 -108.5 -51t-77.5 -132h282zM454 642h88l-172 -137h-33z" />
    <glyph glyph-name="ecircumflex" unicode="&#xea;" horiz-adv-x="586" 
d="M97.5 40.5q-55.5 48.5 -55.5 129.5q0 28 7 56q16 68 61 121t110 83t138 30q87 0 137 -46t50 -124q0 -27 -8 -64h-379v-1q-6 -27 -6 -51q0 -65 39 -103.5t98 -38.5q44 0 90 23.5t85 69.5l25 -23q-41 -50 -107 -80t-136 -30q-93 0 -148.5 48.5zM447 253q5 25 5 57
q0 60 -26.5 93t-74.5 33q-57 0 -108.5 -51t-77.5 -132h282zM323 640h147l53 -137h-33l-96 124l-155 -124h-33z" />
    <glyph glyph-name="edieresis" unicode="&#xeb;" horiz-adv-x="586" 
d="M97.5 40.5q-55.5 48.5 -55.5 129.5q0 28 7 56q16 68 61 121t110 83t138 30q87 0 137 -46t50 -124q0 -27 -8 -64h-379v-1q-6 -27 -6 -51q0 -65 39 -103.5t98 -38.5q44 0 90 23.5t85 69.5l25 -23q-41 -50 -107 -80t-136 -30q-93 0 -148.5 48.5zM447 253q5 25 5 57
q0 60 -26.5 93t-74.5 33q-57 0 -108.5 -51t-77.5 -132h282zM226 517.5q-12 11.5 -12 30.5q0 25 20.5 45.5t45.5 20.5q21 0 33 -11.5t12 -30.5q0 -27 -20 -46.5t-47 -19.5q-20 0 -32 11.5zM410 517.5q-12 11.5 -12 29.5q0 27 20.5 46.5t47.5 19.5q19 0 31.5 -11.5t12.5 -29.5
q0 -27 -21 -46.5t-47 -19.5q-20 0 -32 11.5z" />
    <glyph glyph-name="igrave" unicode="&#xec;" horiz-adv-x="242" 
d="M121 450h104l-104 -450h-104zM69 639h88l53 -137h-33z" />
    <glyph glyph-name="iacute" unicode="&#xed;" horiz-adv-x="242" 
d="M121 450h104l-104 -450h-104zM251 638h88l-172 -137h-33z" />
    <glyph glyph-name="icircumflex" unicode="&#xee;" horiz-adv-x="242" 
d="M121 450h104l-104 -450h-104zM140 640h147l53 -137h-33l-96 124l-155 -124h-33z" />
    <glyph glyph-name="idieresis" unicode="&#xef;" horiz-adv-x="242" 
d="M121 450h104l-104 -450h-104zM60 516.5q-12 11.5 -12 30.5q0 25 20.5 45.5t45.5 20.5q21 0 33 -11.5t12 -30.5q0 -27 -20 -46.5t-47 -19.5q-20 0 -32 11.5zM244 516.5q-12 11.5 -12 29.5q0 27 20.5 46.5t47.5 19.5q19 0 31.5 -11.5t12.5 -29.5q0 -27 -21 -46.5t-47 -19.5
q-20 0 -32 11.5z" />
    <glyph glyph-name="eth" unicode="&#xf0;" horiz-adv-x="690" 
d="M689 543h-74l-126 -543h-104l15 64q-79 -74 -177 -74q-91 0 -136 49.5t-45 125.5q0 32 7 60q16 70 57.5 123.5t100.5 83t127 29.5q49 0 85 -18.5t57 -50.5l35 152h-87l13 30h81l29 126h104l-29 -126h81zM447 302q0 48 -17.5 77.5t-42 42.5t-46.5 13q-65 0 -113.5 -60.5
t-68.5 -144.5q-8 -38 -8 -72q0 -60 25 -98.5t74 -38.5q26 0 62 17t71 59.5t52 115.5l4 21q8 35 8 68z" />
    <glyph glyph-name="ntilde" unicode="&#xf1;" horiz-adv-x="604" 
d="M120 450h101l-26 -111q104 121 227 121q71 0 105.5 -30t34.5 -93q0 -34 -11 -84l-58 -253h-104l58 253q14 62 14 99q0 40 -16 58t-50 18q-37 0 -82 -24.5t-84 -72.5t-59 -116l-50 -215h-104zM385.5 519q-22.5 9 -53.5 26q-29 15 -45 22t-32 7q-58 0 -71 -53h-17
q15 64 39.5 89t60.5 25q24 0 46.5 -8.5t52.5 -23.5q27 -14 44.5 -20.5t34.5 -6.5q25 0 45 13.5t25 34.5h17q-15 -64 -39.5 -89t-60.5 -25q-24 0 -46.5 9z" />
    <glyph glyph-name="ograve" unicode="&#xf2;" horiz-adv-x="620" 
d="M99.5 40q-57.5 48 -57.5 130q0 28 7 56q16 69 61 122t111.5 82.5t142.5 29.5q99 0 156.5 -48t57.5 -130q0 -28 -7 -56q-16 -69 -61 -122t-111.5 -82.5t-142.5 -29.5q-99 0 -156.5 48zM384.5 71q52.5 55 77.5 155q11 46 11 80q0 62 -30.5 96t-85.5 34q-71 0 -124 -56
t-75 -155q-10 -41 -10 -79q0 -62 29 -96t84 -34q71 0 123.5 55zM246 641h88l53 -137h-33z" />
    <glyph glyph-name="oacute" unicode="&#xf3;" horiz-adv-x="620" 
d="M99.5 40q-57.5 48 -57.5 130q0 28 7 56q16 69 61 122t111.5 82.5t142.5 29.5q99 0 156.5 -48t57.5 -130q0 -28 -7 -56q-16 -69 -61 -122t-111.5 -82.5t-142.5 -29.5q-99 0 -156.5 48zM384.5 71q52.5 55 77.5 155q11 46 11 80q0 62 -30.5 96t-85.5 34q-71 0 -124 -56
t-75 -155q-10 -41 -10 -79q0 -62 29 -96t84 -34q71 0 123.5 55zM464 640h88l-172 -137h-33z" />
    <glyph glyph-name="ocircumflex" unicode="&#xf4;" horiz-adv-x="620" 
d="M99.5 40q-57.5 48 -57.5 130q0 28 7 56q16 69 61 122t111.5 82.5t142.5 29.5q99 0 156.5 -48t57.5 -130q0 -28 -7 -56q-16 -69 -61 -122t-111.5 -82.5t-142.5 -29.5q-99 0 -156.5 48zM384.5 71q52.5 55 77.5 155q11 46 11 80q0 62 -30.5 96t-85.5 34q-71 0 -124 -56
t-75 -155q-10 -41 -10 -79q0 -62 29 -96t84 -34q71 0 123.5 55zM335 640h147l53 -137h-33l-96 124l-155 -124h-33z" />
    <glyph glyph-name="otilde" unicode="&#xf5;" horiz-adv-x="620" 
d="M99.5 40q-57.5 48 -57.5 130q0 28 7 56q16 69 61 122t111.5 82.5t142.5 29.5q99 0 156.5 -48t57.5 -130q0 -28 -7 -56q-16 -69 -61 -122t-111.5 -82.5t-142.5 -29.5q-99 0 -156.5 48zM384.5 71q52.5 55 77.5 155q11 46 11 80q0 62 -30.5 96t-85.5 34q-71 0 -124 -56
t-75 -155q-10 -41 -10 -79q0 -62 29 -96t84 -34q71 0 123.5 55zM432.5 513q-22.5 9 -53.5 26q-29 15 -45 22t-32 7q-58 0 -71 -53h-17q15 64 39.5 89t60.5 25q24 0 46.5 -8.5t52.5 -23.5q27 -14 44.5 -20.5t34.5 -6.5q25 0 45 13.5t25 34.5h17q-15 -64 -39.5 -89t-60.5 -25
q-24 0 -46.5 9z" />
    <glyph glyph-name="odieresis" unicode="&#xf6;" horiz-adv-x="620" 
d="M99.5 40q-57.5 48 -57.5 130q0 28 7 56q16 69 61 122t111.5 82.5t142.5 29.5q99 0 156.5 -48t57.5 -130q0 -28 -7 -56q-16 -69 -61 -122t-111.5 -82.5t-142.5 -29.5q-99 0 -156.5 48zM384.5 71q52.5 55 77.5 155q11 46 11 80q0 62 -30.5 96t-85.5 34q-71 0 -124 -56
t-75 -155q-10 -41 -10 -79q0 -62 29 -96t84 -34q71 0 123.5 55zM252 515.5q-12 11.5 -12 30.5q0 25 20.5 45.5t45.5 20.5q21 0 33 -11.5t12 -30.5q0 -27 -20 -46.5t-47 -19.5q-20 0 -32 11.5zM436 515.5q-12 11.5 -12 29.5q0 27 20.5 46.5t47.5 19.5q19 0 31.5 -11.5
t12.5 -29.5q0 -27 -21 -46.5t-47 -19.5q-20 0 -32 11.5z" />
    <glyph glyph-name="divide" unicode="&#xf7;" horiz-adv-x="597" 
d="M305 440.5q-12 11.5 -12 28.5q0 27 20.5 46t46.5 19q19 0 30.5 -11t11.5 -28q0 -26 -20.5 -46t-45.5 -20q-19 0 -31 11.5zM86 348h477l-8 -37h-477zM231 120q-12 11 -12 29q0 26 20.5 45.5t46.5 19.5q19 0 30.5 -11.5t11.5 -28.5q0 -27 -20 -46t-46 -19q-19 0 -31 11z
" />
    <glyph glyph-name="oslash" unicode="&#xf8;" horiz-adv-x="620" 
d="M560.5 361.5q17.5 -35.5 17.5 -79.5q0 -21 -7 -56q-16 -69 -61 -122t-111.5 -82.5t-142.5 -29.5q-73 0 -123 26l-34 -36h-38l48 51q-33 23 -50 58t-17 79q0 21 7 56q16 69 61 122t111.5 82.5t142.5 29.5q69 0 121 -25l36 38h39l-50 -53q33 -23 50.5 -58.5zM148 145
q0 -34 9 -60l291 310q-29 41 -91 41q-71 0 -124 -56t-75 -155q-10 -43 -10 -80zM473 306q0 35 -11 63l-291 -311q30 -42 90 -42q71 0 123.5 55t77.5 155q11 47 11 80z" />
    <glyph glyph-name="ugrave" unicode="&#xf9;" horiz-adv-x="604" 
d="M77.5 20q-34.5 30 -34.5 93q0 34 11 84l58 253h104l-58 -253q-14 -62 -14 -99q0 -40 16 -58t50 -18q37 0 82 24.5t84 72.5t59 116l50 215h104l-104 -450h-101l26 111q-104 -121 -227 -121q-71 0 -105.5 30zM237 618h88l53 -137h-33z" />
    <glyph glyph-name="uacute" unicode="&#xfa;" horiz-adv-x="604" 
d="M77.5 20q-34.5 30 -34.5 93q0 34 11 84l58 253h104l-58 -253q-14 -62 -14 -99q0 -40 16 -58t50 -18q37 0 82 24.5t84 72.5t59 116l50 215h104l-104 -450h-101l26 111q-104 -121 -227 -121q-71 0 -105.5 30zM420 620h88l-172 -137h-33z" />
    <glyph glyph-name="ucircumflex" unicode="&#xfb;" horiz-adv-x="604" 
d="M77.5 20q-34.5 30 -34.5 93q0 34 11 84l58 253h104l-58 -253q-14 -62 -14 -99q0 -40 16 -58t50 -18q37 0 82 24.5t84 72.5t59 116l50 215h104l-104 -450h-101l26 111q-104 -121 -227 -121q-71 0 -105.5 30zM315 640h147l53 -137h-33l-96 124l-155 -124h-33z" />
    <glyph glyph-name="udieresis" unicode="&#xfc;" horiz-adv-x="604" 
d="M77.5 20q-34.5 30 -34.5 93q0 34 11 84l58 253h104l-58 -253q-14 -62 -14 -99q0 -40 16 -58t50 -18q37 0 82 24.5t84 72.5t59 116l50 215h104l-104 -450h-101l26 111q-104 -121 -227 -121q-71 0 -105.5 30zM233 516.5q-12 11.5 -12 30.5q0 25 20.5 45.5t45.5 20.5
q21 0 33 -11.5t12 -30.5q0 -27 -20 -46.5t-47 -19.5q-20 0 -32 11.5zM417 516.5q-12 11.5 -12 29.5q0 27 20.5 46.5t47.5 19.5q19 0 31.5 -11.5t12.5 -29.5q0 -27 -21 -46.5t-47 -19.5q-20 0 -32 11.5z" />
    <glyph glyph-name="yacute" unicode="&#xfd;" horiz-adv-x="605" 
d="M66 -111q18 -29 56.5 -48.5t81.5 -19.5q64 0 117 45.5t75 142.5l22 97q-102 -116 -223 -116q-71 0 -105.5 30t-34.5 93q0 34 11 84l58 253h104l-58 -253q-14 -62 -14 -97q0 -41 16.5 -59.5t50.5 -18.5q37 0 82 24.5t84 72.5t59 116l49 215h104l-101 -440
q-18 -75 -63 -125.5t-104.5 -74t-121.5 -23.5q-58 0 -104 20t-64 55zM464 641h88l-172 -137h-33z" />
    <glyph glyph-name="thorn" unicode="&#xfe;" horiz-adv-x="660" 
d="M201 700h101l-72 -312q80 73 179 73q85 0 133.5 -46t48.5 -124q0 -29 -8 -66q-14 -60 -52 -114t-97 -87.5t-133 -33.5q-102 0 -145 67l-59 -257h-104zM369.5 51q38.5 30 66 78t39.5 101q10 45 10 78q0 57 -23.5 92t-72.5 35q-28 0 -66 -19t-73.5 -64t-52.5 -118l-4 -20
q-8 -37 -8 -65q0 -59 27.5 -93.5t75.5 -34.5q43 0 81.5 30z" />
    <glyph glyph-name="ydieresis" unicode="&#xff;" horiz-adv-x="605" 
d="M66 -111q18 -29 56.5 -48.5t81.5 -19.5q64 0 117 45.5t75 142.5l22 97q-102 -116 -223 -116q-71 0 -105.5 30t-34.5 93q0 34 11 84l58 253h104l-58 -253q-14 -62 -14 -97q0 -41 16.5 -59.5t50.5 -18.5q37 0 82 24.5t84 72.5t59 116l49 215h104l-101 -440
q-18 -75 -63 -125.5t-104.5 -74t-121.5 -23.5q-58 0 -104 20t-64 55zM259 518.5q-12 11.5 -12 30.5q0 25 20.5 45.5t45.5 20.5q21 0 33 -11.5t12 -30.5q0 -27 -20 -46.5t-47 -19.5q-20 0 -32 11.5zM443 518.5q-12 11.5 -12 29.5q0 27 20.5 46.5t47.5 19.5q19 0 31.5 -11.5
t12.5 -29.5q0 -27 -21 -46.5t-47 -19.5q-20 0 -32 11.5z" />
    <glyph glyph-name="Amacron" unicode="&#x100;" horiz-adv-x="750" 
d="M409 700h89l123 -700h-113l-41 233h-323l-148 -233h-30zM462 260l-65 374l-237 -374h302zM315 802h326l-12 -55h-326z" />
    <glyph glyph-name="amacron" unicode="&#x101;" horiz-adv-x="610" 
d="M87 39q-45 49 -45 125q0 33 7 61q16 70 57 123.5t100 83t127 29.5q97 0 145 -73l14 62h101l-104 -450h-104l15 64q-79 -74 -177 -74q-91 0 -136 49zM311.5 38q35.5 17 70.5 59.5t52 115.5l5 21q8 33 8 68q0 48 -17.5 77.5t-42.5 42.5t-47 13q-65 0 -113 -60.5t-68 -144.5
q-9 -36 -9 -72q0 -60 25.5 -98.5t74.5 -38.5q26 0 61.5 17zM208 581h326l-12 -55h-326z" />
    <glyph glyph-name="Abreve" unicode="&#x102;" horiz-adv-x="750" 
d="M409 700h89l123 -700h-113l-41 233h-323l-148 -233h-30zM462 260l-65 374l-237 -374h302zM375 761.5q-37 30.5 -37 89.5q0 16 5 41h21q-2 -14 -2 -19q0 -41 33 -61t87 -20q60 0 105.5 25t60.5 75h21q-20 -78 -77.5 -119.5t-123.5 -41.5q-56 0 -93 30.5z" />
    <glyph glyph-name="abreve" unicode="&#x103;" horiz-adv-x="610" 
d="M87 39q-45 49 -45 125q0 33 7 61q16 70 57 123.5t100 83t127 29.5q97 0 145 -73l14 62h101l-104 -450h-104l15 64q-79 -74 -177 -74q-91 0 -136 49zM311.5 38q35.5 17 70.5 59.5t52 115.5l5 21q8 33 8 68q0 48 -17.5 77.5t-42.5 42.5t-47 13q-65 0 -113 -60.5t-68 -144.5
q-9 -36 -9 -72q0 -60 25.5 -98.5t74.5 -38.5q26 0 61.5 17zM244 536.5q-37 30.5 -37 89.5q0 16 5 41h21q-2 -14 -2 -19q0 -41 33 -61t87 -20q60 0 105.5 25t60.5 75h21q-20 -78 -77.5 -119.5t-123.5 -41.5q-56 0 -93 30.5z" />
    <glyph glyph-name="Aogonek" unicode="&#x104;" horiz-adv-x="750" 
d="M635 -159q-30 -30 -65.5 -45.5t-66.5 -15.5t-50.5 15t-19.5 43q0 30 26 71t81 91h-32l-41 233h-323l-148 -233h-30l443 700h89l123 -700h-51q-31 -30 -46 -59t-15 -54q0 -26 15.5 -41t40.5 -15q30 0 65 22zM462 260l-65 374l-237 -374h302z" />
    <glyph glyph-name="aogonek" unicode="&#x105;" horiz-adv-x="610" 
d="M399 -105q0 -26 15.5 -41t40.5 -15q30 0 65 22l5 -12q-30 -30 -65 -45t-67 -15q-31 0 -50.5 15t-19.5 42q0 29 23.5 68t74.5 86h-36l15 64q-79 -74 -177 -74q-91 0 -136 49t-45 125q0 33 7 61q16 70 57 123.5t100 83t127 29.5q97 0 145 -73l14 62h101l-104 -450h-37
q-53 -54 -53 -105zM311.5 38q35.5 17 70.5 59.5t52 115.5l5 21q8 33 8 68q0 48 -17.5 77.5t-42.5 42.5t-47 13q-65 0 -113 -60.5t-68 -144.5q-9 -36 -9 -72q0 -60 25.5 -98.5t74.5 -38.5q26 0 61.5 17z" />
    <glyph glyph-name="Cacute" unicode="&#x106;" horiz-adv-x="811" 
d="M215.5 24q-71.5 34 -110 95.5t-38.5 142.5q0 44 10 87q24 104 92.5 185.5t168 127.5t212.5 46q63 0 116.5 -17.5t87 -47t41.5 -63.5l-61 -20q-13 63 -60.5 95t-118.5 32q-78 0 -154 -44.5t-131.5 -121.5t-77.5 -170q-11 -52 -11 -94q0 -72 27 -127.5t76 -87t114 -31.5
q71 0 133 32t104 95l53 -20q-24 -34 -71.5 -63.5t-109 -47t-124.5 -17.5q-96 0 -167.5 34zM651 878h88l-172 -137h-33z" />
    <glyph glyph-name="cacute" unicode="&#x107;" horiz-adv-x="565" 
d="M97.5 40.5q-55.5 48.5 -55.5 129.5q0 28 7 56q16 68 61 121t110 83t138 30q67 0 114.5 -28.5t64.5 -77.5l-63 -30q-6 112 -114 112q-68 0 -122.5 -55.5t-75.5 -146.5q-10 -41 -10 -79q0 -63 30.5 -98t87.5 -35q53 0 94 27t76 84l46 -25q-44 -54 -106 -85t-134 -31
q-93 0 -148.5 48.5zM473 643h88l-172 -137h-33z" />
    <glyph glyph-name="Cdotaccent" unicode="&#x10a;" horiz-adv-x="811" 
d="M215.5 24q-71.5 34 -110 95.5t-38.5 142.5q0 44 10 87q24 104 92.5 185.5t168 127.5t212.5 46q63 0 116.5 -17.5t87 -47t41.5 -63.5l-61 -20q-13 63 -60.5 95t-118.5 32q-78 0 -154 -44.5t-131.5 -121.5t-77.5 -170q-11 -52 -11 -94q0 -72 27 -127.5t76 -87t114 -31.5
q71 0 133 32t104 95l53 -20q-24 -34 -71.5 -63.5t-109 -47t-124.5 -17.5q-96 0 -167.5 34zM532 752.5q-12 11.5 -12 29.5q0 25 20.5 46t45.5 21q21 0 33 -11.5t12 -30.5q0 -27 -20 -46.5t-47 -19.5q-20 0 -32 11.5z" />
    <glyph glyph-name="cdotaccent" unicode="&#x10b;" horiz-adv-x="565" 
d="M97.5 40.5q-55.5 48.5 -55.5 129.5q0 28 7 56q16 68 61 121t110 83t138 30q67 0 114.5 -28.5t64.5 -77.5l-63 -30q-6 112 -114 112q-68 0 -122.5 -55.5t-75.5 -146.5q-10 -41 -10 -79q0 -63 30.5 -98t87.5 -35q53 0 94 27t76 84l46 -25q-44 -54 -106 -85t-134 -31
q-93 0 -148.5 48.5zM326 516.5q-12 11.5 -12 29.5q0 25 20.5 46t45.5 21q21 0 33 -11.5t12 -30.5q0 -27 -20 -46.5t-47 -19.5q-20 0 -32 11.5z" />
    <glyph glyph-name="Ccaron" unicode="&#x10c;" horiz-adv-x="811" 
d="M215.5 24q-71.5 34 -110 95.5t-38.5 142.5q0 44 10 87q24 104 92.5 185.5t168 127.5t212.5 46q63 0 116.5 -17.5t87 -47t41.5 -63.5l-61 -20q-13 63 -60.5 95t-118.5 32q-78 0 -154 -44.5t-131.5 -121.5t-77.5 -170q-11 -52 -11 -94q0 -72 27 -127.5t76 -87t114 -31.5
q71 0 133 32t104 95l53 -20q-24 -34 -71.5 -63.5t-109 -47t-124.5 -17.5q-96 0 -167.5 34zM441 881h33l97 -124l154 124h33l-117 -137h-147z" />
    <glyph glyph-name="ccaron" unicode="&#x10d;" horiz-adv-x="565" 
d="M97.5 40.5q-55.5 48.5 -55.5 129.5q0 28 7 56q16 68 61 121t110 83t138 30q67 0 114.5 -28.5t64.5 -77.5l-63 -30q-6 112 -114 112q-68 0 -122.5 -55.5t-75.5 -146.5q-10 -41 -10 -79q0 -63 30.5 -98t87.5 -35q53 0 94 27t76 84l46 -25q-44 -54 -106 -85t-134 -31
q-93 0 -148.5 48.5zM244 641h33l97 -124l154 124h33l-117 -137h-147z" />
    <glyph glyph-name="Dcaron" unicode="&#x10e;" horiz-adv-x="798" 
d="M158 700h251q161 0 248.5 -65t87.5 -183q0 -42 -10 -83q-40 -176 -167 -272.5t-320 -96.5h-252zM254 24q144 0 237 87t131 257q13 55 13 105q0 101 -58.5 152.5t-173.5 51.5h-143l-150 -653h144zM295 887h33l97 -124l154 124h33l-117 -137h-147z" />
    <glyph glyph-name="dcaron" unicode="&#x10f;" horiz-adv-x="638" 
d="M87 39.5q-45 49.5 -45 125.5q0 32 7 60q16 70 57.5 123.5t100.5 83t127 29.5q49 0 85 -18.5t57 -50.5l71 308h104l-162 -700h-104l15 64q-79 -74 -177 -74q-91 0 -136 49.5zM312 38q36 17 71 59.5t52 115.5l4 21q8 35 8 68q0 48 -17.5 77.5t-42 42.5t-46.5 13
q-65 0 -113.5 -60.5t-68.5 -144.5q-8 -38 -8 -72q0 -60 25 -98.5t74 -38.5q26 0 62 17zM671 535q12 18 17 35q2 10 -2 16.5t-14 15.5t-15.5 17t-5.5 21q0 30 21 49t46 19q18 0 30 -11.5t12 -32.5q0 -32 -24.5 -71t-53.5 -65z" />
    <glyph glyph-name="Dcroat" unicode="&#x110;" horiz-adv-x="798" 
d="M75 340h-83l7 33h83l76 327h251q161 0 248.5 -65t87.5 -183q0 -42 -10 -83q-40 -176 -167 -272.5t-320 -96.5h-252zM254 24q144 0 237 87t131 257q13 55 13 105q0 101 -58.5 152.5t-173.5 51.5h-143l-70 -304h124l-7 -33h-124l-73 -316h144z" />
    <glyph glyph-name="dcroat" unicode="&#x111;" horiz-adv-x="610" 
d="M661 543h-46l-126 -543h-104l15 64q-79 -74 -177 -74q-91 0 -136 49.5t-45 125.5q0 32 7 60q16 70 57.5 123.5t100.5 83t127 29.5q49 0 85 -18.5t57 -50.5l35 152h-115l13 30h109l29 126h104l-29 -126h53zM447 302q0 48 -17.5 77.5t-42 42.5t-46.5 13q-65 0 -113.5 -60.5
t-68.5 -144.5q-8 -38 -8 -72q0 -60 25 -98.5t74 -38.5q26 0 62 17t71 59.5t52 115.5l4 21q8 35 8 68z" />
    <glyph glyph-name="Emacron" unicode="&#x112;" horiz-adv-x="665" 
d="M158 700h511l-6 -27h-403l-69 -298h310l-6 -27h-310l-75 -321h403l-6 -27h-511zM278 823h326l-12 -55h-326z" />
    <glyph glyph-name="emacron" unicode="&#x113;" horiz-adv-x="586" 
d="M97.5 40.5q-55.5 48.5 -55.5 129.5q0 28 7 56q16 68 61 121t110 83t138 30q87 0 137 -46t50 -124q0 -27 -8 -64h-379v-1q-6 -27 -6 -51q0 -65 39 -103.5t98 -38.5q44 0 90 23.5t85 69.5l25 -23q-41 -50 -107 -80t-136 -30q-93 0 -148.5 48.5zM447 253q5 25 5 57
q0 60 -26.5 93t-74.5 33q-57 0 -108.5 -51t-77.5 -132h282zM223 561h326l-12 -55h-326z" />
    <glyph glyph-name="Edotaccent" unicode="&#x116;" horiz-adv-x="665" 
d="M158 700h511l-6 -27h-403l-69 -298h310l-6 -27h-310l-75 -321h403l-6 -27h-511zM411 760.5q-12 11.5 -12 29.5q0 25 20.5 46t45.5 21q21 0 33 -11.5t12 -30.5q0 -27 -20 -46.5t-47 -19.5q-20 0 -32 11.5z" />
    <glyph glyph-name="edotaccent" unicode="&#x117;" horiz-adv-x="586" 
d="M97.5 40.5q-55.5 48.5 -55.5 129.5q0 28 7 56q16 68 61 121t110 83t138 30q87 0 137 -46t50 -124q0 -27 -8 -64h-379v-1q-6 -27 -6 -51q0 -65 39 -103.5t98 -38.5q44 0 90 23.5t85 69.5l25 -23q-41 -50 -107 -80t-136 -30q-93 0 -148.5 48.5zM447 253q5 25 5 57
q0 60 -26.5 93t-74.5 33q-57 0 -108.5 -51t-77.5 -132h282zM346 515.5q-12 11.5 -12 29.5q0 25 20.5 46t45.5 21q21 0 33 -11.5t12 -30.5q0 -27 -20 -46.5t-47 -19.5q-20 0 -32 11.5z" />
    <glyph glyph-name="Eogonek" unicode="&#x118;" horiz-adv-x="665" 
d="M260 673l-69 -298h310l-6 -27h-310l-75 -321h403l-6 -27h-195q-35 -32 -52 -63t-17 -57t15.5 -41t40.5 -15q30 0 65 22l5 -12q-30 -30 -65.5 -45.5t-66.5 -15.5t-50.5 15t-19.5 43q0 31 27.5 74t86.5 95h-285l162 700h511l-6 -27h-403z" />
    <glyph glyph-name="eogonek" unicode="&#x119;" horiz-adv-x="586" 
d="M158 225q-6 -27 -6 -51q0 -65 39 -103.5t98 -38.5q44 0 90 23.5t85 69.5l25 -23q-41 -50 -107 -80t-135 -30q-53 -54 -53 -105q0 -26 15.5 -41t40.5 -15q30 0 65 22l5 -12q-30 -30 -65 -45t-67 -15q-31 0 -50.5 15t-19.5 42q0 29 24 68.5t75 86.5q-81 7 -128 54.5
t-47 121.5q0 29 7 57q16 68 61 121t110 83t138 30q87 0 137 -46t50 -124q0 -27 -8 -64h-379v-1zM242.5 385q-51.5 -51 -77.5 -132h282q5 25 5 57q0 60 -26.5 93t-74.5 33q-57 0 -108.5 -51z" />
    <glyph glyph-name="Ecaron" unicode="&#x11a;" horiz-adv-x="665" 
d="M158 700h511l-6 -27h-403l-69 -298h310l-6 -27h-310l-75 -321h403l-6 -27h-511zM324 887h33l97 -124l154 124h33l-117 -137h-147z" />
    <glyph glyph-name="ecaron" unicode="&#x11b;" horiz-adv-x="586" 
d="M97.5 40.5q-55.5 48.5 -55.5 129.5q0 28 7 56q16 68 61 121t110 83t138 30q87 0 137 -46t50 -124q0 -27 -8 -64h-379v-1q-6 -27 -6 -51q0 -65 39 -103.5t98 -38.5q44 0 90 23.5t85 69.5l25 -23q-41 -50 -107 -80t-136 -30q-93 0 -148.5 48.5zM447 253q5 25 5 57
q0 60 -26.5 93t-74.5 33q-57 0 -108.5 -51t-77.5 -132h282zM230 641h33l97 -124l154 124h33l-117 -137h-147z" />
    <glyph glyph-name="Gbreve" unicode="&#x11e;" horiz-adv-x="842" 
d="M215.5 24q-71.5 34 -110 95.5t-38.5 142.5q0 44 10 87q24 104 92.5 185.5t168 127.5t212.5 46q63 0 116.5 -17.5t87 -47t41.5 -63.5l-61 -20q-13 63 -60.5 95t-118.5 32q-79 0 -155 -44.5t-132 -121.5t-78 -170q-11 -52 -11 -93q0 -72 27 -128t76.5 -87t115.5 -31
q56 0 110 19.5t88 51.5l47 207h108l-16 -70q-15 -67 -65.5 -119t-125.5 -81.5t-161 -29.5q-96 0 -167.5 34zM466 774.5q-37 30.5 -37 89.5q0 16 5 41h21q-2 -14 -2 -19q0 -41 33 -61t87 -20q60 0 105.5 25t60.5 75h21q-20 -78 -77.5 -119.5t-123.5 -41.5q-56 0 -93 30.5z
" />
    <glyph glyph-name="gbreve" unicode="&#x11f;" horiz-adv-x="618" 
d="M65 -111q20 -33 57 -53t80 -20q64 0 117 47t76 146l13 55q-81 -74 -177 -74q-91 0 -136 49t-45 125q0 33 7 61q16 70 57 123.5t100 83t127 29.5q98 0 144 -73l15 62h101l-102 -440q-18 -76 -64 -127t-106 -75.5t-122 -24.5q-58 0 -103 21t-62 58zM321.5 46
q35.5 17 70.5 59.5t52 115.5l2 8q8 33 8 67q0 48 -17.5 78t-42.5 43t-47 13q-65 0 -112.5 -58.5t-67.5 -141.5q-8 -32 -8 -69q0 -59 25.5 -95.5t75.5 -36.5q26 0 61.5 17zM279 534.5q-37 30.5 -37 89.5q0 16 5 41h21q-2 -14 -2 -19q0 -41 33 -61t87 -20q60 0 105.5 25
t60.5 75h21q-20 -78 -77.5 -119.5t-123.5 -41.5q-56 0 -93 30.5z" />
    <glyph glyph-name="Gdotaccent" unicode="&#x120;" horiz-adv-x="842" 
d="M215.5 24q-71.5 34 -110 95.5t-38.5 142.5q0 44 10 87q24 104 92.5 185.5t168 127.5t212.5 46q63 0 116.5 -17.5t87 -47t41.5 -63.5l-61 -20q-13 63 -60.5 95t-118.5 32q-79 0 -155 -44.5t-132 -121.5t-78 -170q-11 -52 -11 -93q0 -72 27 -128t76.5 -87t115.5 -31
q56 0 110 19.5t88 51.5l47 207h108l-16 -70q-15 -67 -65.5 -119t-125.5 -81.5t-161 -29.5q-96 0 -167.5 34zM533 755.5q-12 11.5 -12 29.5q0 25 20.5 46t45.5 21q21 0 33 -11.5t12 -30.5q0 -27 -20 -46.5t-47 -19.5q-20 0 -32 11.5z" />
    <glyph glyph-name="gdotaccent" unicode="&#x121;" horiz-adv-x="618" 
d="M65 -111q20 -33 57 -53t80 -20q64 0 117 47t76 146l13 55q-81 -74 -177 -74q-91 0 -136 49t-45 125q0 33 7 61q16 70 57 123.5t100 83t127 29.5q98 0 144 -73l15 62h101l-102 -440q-18 -76 -64 -127t-106 -75.5t-122 -24.5q-58 0 -103 21t-62 58zM321.5 46
q35.5 17 70.5 59.5t52 115.5l2 8q8 33 8 67q0 48 -17.5 78t-42.5 43t-47 13q-65 0 -112.5 -58.5t-67.5 -141.5q-8 -32 -8 -69q0 -59 25.5 -95.5t75.5 -36.5q26 0 61.5 17zM351 518.5q-12 11.5 -12 29.5q0 25 20.5 46t45.5 21q21 0 33 -11.5t12 -30.5q0 -27 -20 -46.5
t-47 -19.5q-20 0 -32 11.5z" />
    <glyph glyph-name="uni0122" unicode="&#x122;" horiz-adv-x="842" 
d="M215.5 24q-71.5 34 -110 95.5t-38.5 142.5q0 44 10 87q24 104 92.5 185.5t168 127.5t212.5 46q63 0 116.5 -17.5t87 -47t41.5 -63.5l-61 -20q-13 63 -60.5 95t-118.5 32q-79 0 -155 -44.5t-132 -121.5t-78 -170q-11 -52 -11 -93q0 -72 27 -128t76.5 -87t115.5 -31
q56 0 110 19.5t88 51.5l47 207h108l-16 -70q-15 -67 -65.5 -119t-125.5 -81.5t-161 -29.5q-96 0 -167.5 34zM337 -240q12 18 17 35q2 10 -2 16.5t-14 15.5t-15.5 17t-5.5 21q0 30 21 49t46 19q18 0 30 -11.5t12 -32.5q0 -32 -24.5 -71t-53.5 -65z" />
    <glyph glyph-name="uni0123" unicode="&#x123;" horiz-adv-x="618" 
d="M65 -111q20 -33 57 -53t80 -20q64 0 117 47t76 146l13 55q-81 -74 -177 -74q-91 0 -136 49t-45 125q0 33 7 61q16 70 57 123.5t100 83t127 29.5q98 0 144 -73l15 62h101l-102 -440q-18 -76 -64 -127t-106 -75.5t-122 -24.5q-58 0 -103 21t-62 58zM321.5 46
q35.5 17 70.5 59.5t52 115.5l2 8q8 33 8 67q0 48 -17.5 78t-42.5 43t-47 13q-65 0 -112.5 -58.5t-67.5 -141.5q-8 -32 -8 -69q0 -59 25.5 -95.5t75.5 -36.5q26 0 61.5 17zM196 -425q12 18 17 35q2 10 -2 16.5t-14 15.5t-15.5 17t-5.5 21q0 30 21 49t46 19q18 0 30 -11.5
t12 -32.5q0 -32 -24.5 -71t-53.5 -65z" />
    <glyph glyph-name="Hbar" unicode="&#x126;" horiz-adv-x="743" 
d="M158 700h108l-47 -203h373l47 203h108l-162 -700h-108l81 348h-373l-81 -348h-108zM564 375l22 95h-373l-22 -95h373z" />
    <glyph glyph-name="hbar" unicode="&#x127;" horiz-adv-x="605" 
d="M500.5 429.5q34.5 -30.5 34.5 -93.5q0 -33 -11 -83l-59 -253h-104l59 253q14 62 14 97q0 41 -16.5 59.5t-50.5 18.5q-37 0 -82 -24.5t-84 -72.5t-59 -116l-50 -215h-104l120 520h-61l8 31h61l34 149h104l-34 -149h60l-8 -31h-59l-41 -176q47 54 103 85t119 31
q72 0 106.5 -30.5z" />
    <glyph glyph-name="Imacron" unicode="&#x12a;" horiz-adv-x="282" 
d="M158 700h108l-162 -700h-108zM84 803h326l-12 -55h-326z" />
    <glyph glyph-name="imacron" unicode="&#x12b;" horiz-adv-x="242" 
d="M121 450h104l-104 -450h-104zM20 561h326l-12 -55h-326z" />
    <glyph glyph-name="Iogonek" unicode="&#x12e;" horiz-adv-x="282" 
d="M28 -59q-15 -29 -15 -54q0 -26 15.5 -41t40.5 -15q30 0 65 22l5 -12q-30 -30 -65.5 -45.5t-66.5 -15.5t-50.5 15t-19.5 43q0 30 26 71t81 91h-48l162 700h108l-162 -700h-30q-31 -30 -46 -59z" />
    <glyph glyph-name="iogonek" unicode="&#x12f;" horiz-adv-x="242" 
d="M257.5 642.5q14.5 -14.5 14.5 -35.5q0 -30 -25 -54t-55 -24q-22 0 -37 14.5t-15 35.5q0 30 25.5 54t55.5 24q22 0 36.5 -14.5zM39 -59q-15 -29 -15 -54q0 -26 15.5 -41t40.5 -15q30 0 65 22l5 -12q-30 -30 -65.5 -45.5t-66.5 -15.5t-50.5 15t-19.5 43q0 30 26 71t81 91
h-37l104 450h104l-104 -450h-37q-31 -30 -46 -59z" />
    <glyph glyph-name="Idotaccent" unicode="&#x130;" horiz-adv-x="262" 
d="M158 700h108l-162 -700h-108zM202 757.5q-12 11.5 -12 29.5q0 25 20.5 46t45.5 21q21 0 33 -11.5t12 -30.5q0 -27 -20 -46.5t-47 -19.5q-20 0 -32 11.5z" />
    <glyph glyph-name="dotlessi" unicode="&#x131;" horiz-adv-x="242" 
d="M121 450h104l-104 -450h-104z" />
    <glyph glyph-name="uni0136" unicode="&#x136;" horiz-adv-x="705" 
d="M158 700h108l-78 -334l485 334h43l-479 -330l326 -370h-141l-252 286l-66 -286h-108zM225 -225q12 18 17 35q2 10 -2 16.5t-14 15.5t-15.5 17t-5.5 21q0 30 21 49t46 19q18 0 30 -11.5t12 -32.5q0 -32 -24.5 -71t-53.5 -65z" />
    <glyph glyph-name="uni0137" unicode="&#x137;" horiz-adv-x="561" 
d="M150 700h82l-124 -538l390 288h41l-280 -207l173 -243h-114l-134 187l-85 -62l-29 -125h-82zM136 -246q12 18 17 35q2 10 -2 16.5t-14 15.5t-15.5 17t-5.5 21q0 30 21 49t46 19q18 0 30 -11.5t12 -32.5q0 -32 -24.5 -71t-53.5 -65z" />
    <glyph glyph-name="Lacute" unicode="&#x139;" horiz-adv-x="625" 
d="M158 700h108l-156 -673h383l-6 -27h-491zM293 887h88l-172 -137h-33z" />
    <glyph glyph-name="lacute" unicode="&#x13a;" horiz-adv-x="262" 
d="M155 697l113 38l-170 -735h-104zM288 887h88l-172 -137h-33z" />
    <glyph glyph-name="uni013B" unicode="&#x13b;" horiz-adv-x="625" 
d="M158 700h108l-156 -673h383l-6 -27h-491zM214 -225q12 18 17 35q2 10 -2 16.5t-14 15.5t-15.5 17t-5.5 21q0 30 21 49t46 19q18 0 30 -11.5t12 -32.5q0 -32 -24.5 -71t-53.5 -65z" />
    <glyph glyph-name="uni013C" unicode="&#x13c;" horiz-adv-x="262" 
d="M155 697l113 38l-170 -735h-104zM-8 -228q12 18 17 35q2 10 -2 16.5t-14 15.5t-15.5 17t-5.5 21q0 30 21 49t46 19q18 0 30 -11.5t12 -32.5q0 -32 -24.5 -71t-53.5 -65z" />
    <glyph glyph-name="Lcaron" unicode="&#x13d;" horiz-adv-x="625" 
d="M158 700h108l-156 -673h383l-6 -27h-491zM316 535q12 18 17 35q2 10 -2 16.5t-14 15.5t-15.5 17t-5.5 21q0 30 21 49t46 19q18 0 30 -11.5t12 -32.5q0 -32 -24.5 -71t-53.5 -65z" />
    <glyph glyph-name="lcaron" unicode="&#x13e;" horiz-adv-x="262" 
d="M155 697l113 38l-170 -735h-104zM317 562q12 18 17 35q2 10 -2 16.5t-14 15.5t-15.5 17t-5.5 21q0 30 21 49t46 19q18 0 30 -11.5t12 -32.5q0 -32 -24.5 -71t-53.5 -65z" />
    <glyph glyph-name="Lslash" unicode="&#x141;" horiz-adv-x="625" 
d="M493 27l-6 -27h-491l47 204l-16 -20h-48l83 102l96 414h108l-53 -228l15 18h49l-83 -102l-84 -361h383z" />
    <glyph glyph-name="lslash" unicode="&#x142;" horiz-adv-x="262" 
d="M227 401l-48 -50l-81 -351h-104l48 209l-17 -18l-19 28l51 53l98 425l113 38l-74 -320l14 15z" />
    <glyph glyph-name="Nacute" unicode="&#x143;" horiz-adv-x="743" 
d="M158 700h104l326 -571l132 571h27l-162 -700h-48l-367 637l-147 -637h-27zM582 885h88l-172 -137h-33z" />
    <glyph glyph-name="nacute" unicode="&#x144;" horiz-adv-x="604" 
d="M120 450h101l-26 -111q104 121 227 121q71 0 105.5 -30t34.5 -93q0 -34 -11 -84l-58 -253h-104l58 253q14 62 14 99q0 40 -16 58t-50 18q-37 0 -82 -24.5t-84 -72.5t-59 -116l-50 -215h-104zM446 642h88l-172 -137h-33z" />
    <glyph glyph-name="uni0145" unicode="&#x145;" horiz-adv-x="743" 
d="M158 700h104l326 -571l132 571h27l-162 -700h-48l-367 637l-147 -637h-27zM263 -189q12 18 17 35q2 10 -2 16.5t-14 15.5t-15.5 17t-5.5 21q0 30 21 49t46 19q18 0 30 -11.5t12 -32.5q0 -32 -24.5 -71t-53.5 -65z" />
    <glyph glyph-name="uni0146" unicode="&#x146;" horiz-adv-x="604" 
d="M120 450h101l-26 -111q104 121 227 121q71 0 105.5 -30t34.5 -93q0 -34 -11 -84l-58 -253h-104l58 253q14 62 14 99q0 40 -16 58t-50 18q-37 0 -82 -24.5t-84 -72.5t-59 -116l-50 -215h-104zM208 -215q12 18 17 35q2 10 -2 16.5t-14 15.5t-15.5 17t-5.5 21q0 30 21 49
t46 19q18 0 30 -11.5t12 -32.5q0 -32 -24.5 -71t-53.5 -65z" />
    <glyph glyph-name="Ncaron" unicode="&#x147;" horiz-adv-x="743" 
d="M158 700h104l326 -571l132 571h27l-162 -700h-48l-367 637l-147 -637h-27zM357 881h33l97 -124l154 124h33l-117 -137h-147z" />
    <glyph glyph-name="ncaron" unicode="&#x148;" horiz-adv-x="604" 
d="M120 450h101l-26 -111q104 121 227 121q71 0 105.5 -30t34.5 -93q0 -34 -11 -84l-58 -253h-104l58 253q14 62 14 99q0 40 -16 58t-50 18q-37 0 -82 -24.5t-84 -72.5t-59 -116l-50 -215h-104zM225 641h33l97 -124l154 124h33l-117 -137h-147z" />
    <glyph glyph-name="Eng" unicode="&#x14a;" horiz-adv-x="743" 
d="M405 -165q62 0 98 40t49 97l-15 28l-367 637l-147 -637h-27l162 700h104l326 -571l132 571h27l-167 -720q-16 -73 -62 -116.5t-117 -43.5z" />
    <glyph glyph-name="eng" unicode="&#x14b;" horiz-adv-x="604" 
d="M253 -206l12 -1q30 0 51 19.5t38 64.5t36 127l57 249q14 62 14 99q0 40 -16 58t-50 18q-37 0 -82 -24.5t-84.5 -72.5t-59.5 -116l-49 -215h-104l104 450h101l-26 -111q48 56 105 88.5t122 32.5q71 0 105.5 -30t34.5 -93q0 -34 -11 -84l-70 -303q-14 -63 -37 -98.5
t-61.5 -51.5t-100.5 -16q-20 0 -31 1z" />
    <glyph glyph-name="Omacron" unicode="&#x14c;" horiz-adv-x="952" 
d="M229 21.5q-74 31.5 -118 94t-44 149.5q0 41 10 84q26 112 101.5 194t177 124.5t203.5 42.5q89 0 163.5 -32.5t118.5 -95t44 -149.5q0 -41 -10 -84q-26 -112 -101.5 -193.5t-177 -123.5t-204.5 -42q-89 0 -163 31.5zM557 59.5q75 42.5 129 118t76 171.5q11 45 11 95
q0 71 -26.5 125t-76.5 84t-117 30q-81 0 -156.5 -43t-130 -119.5t-76.5 -171.5q-12 -51 -12 -97q0 -107 59 -171t162 -64q83 0 158 42.5zM430 823h326l-12 -55h-326z" />
    <glyph glyph-name="omacron" unicode="&#x14d;" horiz-adv-x="620" 
d="M99.5 40q-57.5 48 -57.5 130q0 28 7 56q16 69 61 122t111.5 82.5t142.5 29.5q99 0 156.5 -48t57.5 -130q0 -28 -7 -56q-16 -69 -61 -122t-111.5 -82.5t-142.5 -29.5q-99 0 -156.5 48zM384.5 71q52.5 55 77.5 155q11 46 11 80q0 62 -30.5 96t-85.5 34q-71 0 -124 -56
t-75 -155q-10 -41 -10 -79q0 -62 29 -96t84 -34q71 0 123.5 55zM223 572h326l-12 -55h-326z" />
    <glyph glyph-name="Ohungarumlaut" unicode="&#x150;" horiz-adv-x="952" 
d="M229 21.5q-74 31.5 -118 94t-44 149.5q0 41 10 84q26 112 101.5 194t177 124.5t203.5 42.5q89 0 163.5 -32.5t118.5 -95t44 -149.5q0 -41 -10 -84q-26 -112 -101.5 -193.5t-177 -123.5t-204.5 -42q-89 0 -163 31.5zM557 59.5q75 42.5 129 118t76 171.5q11 45 11 95
q0 71 -26.5 125t-76.5 84t-117 30q-81 0 -156.5 -43t-130 -119.5t-76.5 -171.5q-12 -51 -12 -97q0 -107 59 -171t162 -64q83 0 158 42.5zM578 879h88l-172 -137h-32zM734 879h87l-172 -137h-32z" />
    <glyph glyph-name="ohungarumlaut" unicode="&#x151;" horiz-adv-x="620" 
d="M99.5 40q-57.5 48 -57.5 130q0 28 7 56q16 69 61 122t111.5 82.5t142.5 29.5q99 0 156.5 -48t57.5 -130q0 -28 -7 -56q-16 -69 -61 -122t-111.5 -82.5t-142.5 -29.5q-99 0 -156.5 48zM384.5 71q52.5 55 77.5 155q11 46 11 80q0 62 -30.5 96t-85.5 34q-71 0 -124 -56
t-75 -155q-10 -41 -10 -79q0 -62 29 -96t84 -34q71 0 123.5 55zM384 640h88l-172 -137h-32zM540 640h87l-172 -137h-32z" />
    <glyph glyph-name="OE" unicode="&#x152;" horiz-adv-x="1335" 
d="M229 21.5q-74 31.5 -118 94t-44 149.5q0 41 10 84q26 112 101.5 194t177 124.5t203.5 42.5q82 0 152 -27.5t114 -79.5l23 97h491l-6 -27h-383l-69 -298h290l-6 -27h-290l-75 -321h383l-6 -27h-491l22 96q-68 -52 -150.5 -79t-165.5 -27q-89 0 -163 31.5zM557 59.5
q75 42.5 129 118t76 171.5q11 45 11 95q0 71 -26.5 125t-76.5 84t-117 30q-81 0 -156.5 -43t-130 -119.5t-76.5 -171.5q-12 -51 -12 -97q0 -107 59 -171t162 -64q83 0 158 42.5z" />
    <glyph glyph-name="oe" unicode="&#x153;" horiz-adv-x="999" 
d="M99.5 40q-57.5 48 -57.5 130q0 28 7 56q16 69 61 122t111.5 82.5t142.5 29.5q65 0 113.5 -22t74.5 -61q43 39 100 61t119 22q87 0 137 -45.5t50 -123.5q0 -28 -8 -65h-379v-1q-6 -27 -6 -51q0 -65 39 -103.5t98 -38.5q44 0 90 23.5t85 69.5l25 -23q-41 -50 -107 -80
t-136 -30q-61 0 -107 22t-71 61q-44 -40 -102 -61.5t-123 -21.5q-99 0 -156.5 48zM384.5 71q52.5 55 77.5 155l1 5q10 40 10 75q0 62 -30.5 96t-85.5 34q-71 0 -124 -56t-75 -155q-10 -41 -10 -79q0 -62 29 -96t84 -34q71 0 123.5 55zM860 253q5 25 5 57q0 60 -26.5 93
t-74.5 33q-57 0 -108.5 -51t-77.5 -132h282z" />
    <glyph glyph-name="Racute" unicode="&#x154;" horiz-adv-x="749" 
d="M158 700h306q119 0 183.5 -41t64.5 -116q0 -18 -5 -43q-19 -79 -86 -130t-171 -65l122 -305h-119l-121 300h-159l-69 -300h-108zM377 324q90 0 142.5 42.5t74.5 133.5q8 38 8 63q0 58 -35.5 85.5t-108.5 27.5h-198l-81 -352h198zM507 879h88l-172 -137h-33z" />
    <glyph glyph-name="racute" unicode="&#x155;" horiz-adv-x="479" 
d="M120 450h101l-26 -112q101 122 208 122q42 0 72 -17.5t41 -47.5l-89 -43q-2 42 -15 59.5t-38 17.5q-29 0 -68.5 -25t-77 -73.5t-58.5 -115.5l-50 -215h-104zM398 639h88l-172 -137h-33z" />
    <glyph glyph-name="uni0156" unicode="&#x156;" horiz-adv-x="749" 
d="M158 700h306q119 0 183.5 -41t64.5 -116q0 -18 -5 -43q-19 -79 -86 -130t-171 -65l122 -305h-119l-121 300h-159l-69 -300h-108zM377 324q90 0 142.5 42.5t74.5 133.5q8 38 8 63q0 58 -35.5 85.5t-108.5 27.5h-198l-81 -352h198zM233 -220q12 18 17 35q2 10 -2 16.5
t-14 15.5t-15.5 17t-5.5 21q0 30 21 49t46 19q18 0 30 -11.5t12 -32.5q0 -32 -24.5 -71t-53.5 -65z" />
    <glyph glyph-name="uni0157" unicode="&#x157;" horiz-adv-x="479" 
d="M120 450h101l-26 -112q101 122 208 122q42 0 72 -17.5t41 -47.5l-89 -43q-2 42 -15 59.5t-38 17.5q-29 0 -68.5 -25t-77 -73.5t-58.5 -115.5l-50 -215h-104zM7 -225q12 18 17 35q2 10 -2 16.5t-14 15.5t-15.5 17t-5.5 21q0 30 21 49t46 19q18 0 30 -11.5t12 -32.5
q0 -32 -24.5 -71t-53.5 -65z" />
    <glyph glyph-name="Rcaron" unicode="&#x158;" horiz-adv-x="749" 
d="M158 700h306q119 0 183.5 -41t64.5 -116q0 -18 -5 -43q-19 -79 -86 -130t-171 -65l122 -305h-119l-121 300h-159l-69 -300h-108zM377 324q90 0 142.5 42.5t74.5 133.5q8 38 8 63q0 58 -35.5 85.5t-108.5 27.5h-198l-81 -352h198zM284 879h33l97 -124l154 124h33
l-117 -137h-147z" />
    <glyph glyph-name="rcaron" unicode="&#x159;" horiz-adv-x="479" 
d="M120 450h101l-26 -112q101 122 208 122q42 0 72 -17.5t41 -47.5l-89 -43q-2 42 -15 59.5t-38 17.5q-29 0 -68.5 -25t-77 -73.5t-58.5 -115.5l-50 -215h-104zM189 644h33l97 -124l154 124h33l-117 -137h-147z" />
    <glyph glyph-name="Sacute" unicode="&#x15a;" horiz-adv-x="710" 
d="M103.5 24q-65.5 35 -78.5 91l63 20q20 -119 183 -119q79 0 137 39t72 102q4 15 4 31q0 32 -19 52t-48.5 32.5t-85.5 29.5q-65 20 -111 40.5t-77.5 55t-31.5 83.5q0 15 5 38q13 58 64.5 102t122.5 67t144 23q93 0 157.5 -35t77.5 -91l-63 -20q-19 119 -180 119
q-79 0 -137 -38.5t-72 -101.5q-4 -15 -4 -31q0 -32 19 -51t47 -30t88 -30q65 -20 111 -41.5t77 -56t31 -84.5q0 -16 -5 -39q-13 -58 -64.5 -102t-122.5 -67t-144 -23q-94 0 -159.5 35zM557 882h88l-172 -137h-33z" />
    <glyph glyph-name="sacute" unicode="&#x15b;" horiz-adv-x="534" 
d="M78.5 17q-53.5 27 -60.5 68l72 12q0 -38 34 -59t94 -21t99 21.5t47 64.5q1 4 1 10q0 25 -27.5 40t-93.5 26q-81 14 -128 38.5t-47 79.5q0 13 3 28q10 42 49.5 72.5t95 46.5t111.5 16q76 0 129 -27t59 -68l-71 -12q0 40 -33.5 61t-86.5 21q-60 0 -104 -22.5t-49 -71.5
q-3 -23 11.5 -36.5t38.5 -20.5t69 -15q56 -10 90.5 -20t59.5 -32t25 -60q0 -16 -4 -32q-16 -63 -90 -99t-162 -36q-78 0 -131.5 27zM409 640h88l-172 -137h-33z" />
    <glyph glyph-name="Scedilla" unicode="&#x15e;" horiz-adv-x="710" 
d="M302 645.5q-58 -38.5 -72 -101.5q-4 -15 -4 -31q0 -32 19 -51t47 -30t88 -30q65 -20 111 -41.5t77 -56t31 -84.5q0 -16 -5 -39q-13 -56 -60.5 -98t-114 -66t-136.5 -28l-21 -28q53 3 78.5 -17.5t25.5 -52.5q0 -11 -3 -23q-11 -44 -46.5 -69.5t-79.5 -25.5q-31 0 -59 13
t-48 39l14 15q35 -27 64 -27q33 0 55.5 25t22.5 54q0 21 -13.5 34.5t-40.5 13.5q-11 0 -25 -3l38 52q-87 4 -147.5 38.5t-72.5 87.5l63 20q20 -119 183 -119q79 0 137 39t72 102q4 15 4 31q0 32 -19 52t-48.5 32.5t-85.5 29.5q-65 20 -111 40.5t-77.5 55t-31.5 83.5
q0 15 5 38q13 58 64.5 102t122.5 67t144 23q93 0 157.5 -35t77.5 -91l-63 -20q-19 119 -180 119q-79 0 -137 -38.5z" />
    <glyph glyph-name="scedilla" unicode="&#x15f;" horiz-adv-x="534" 
d="M381.5 249q34.5 -10 59.5 -32t25 -60q0 -16 -4 -32q-14 -55 -72.5 -89.5t-134.5 -42.5l-23 -32q53 3 78.5 -17.5t25.5 -52.5q0 -11 -3 -23q-11 -44 -46.5 -69.5t-79.5 -25.5q-31 0 -59 13t-48 39l14 15q35 -27 64 -27q33 0 55.5 25t22.5 54q0 21 -13.5 34.5t-40.5 13.5
q-11 0 -25 -3l39 53h-6q-78 0 -131.5 27t-60.5 68l72 12q0 -38 34 -59t94 -21t99 21.5t47 64.5q1 4 1 10q0 25 -27.5 40t-93.5 26q-81 14 -128 38.5t-47 79.5q0 13 3 28q10 42 49.5 72.5t95 46.5t111.5 16q76 0 129 -27t59 -68l-71 -12q0 40 -33.5 61t-86.5 21
q-60 0 -104 -22.5t-49 -71.5q-3 -23 11.5 -36.5t38.5 -20.5t69 -15q56 -10 90.5 -20z" />
    <glyph glyph-name="Scaron" unicode="&#x160;" horiz-adv-x="710" 
d="M103.5 24q-65.5 35 -78.5 91l63 20q20 -119 183 -119q79 0 137 39t72 102q4 15 4 31q0 32 -19 52t-48.5 32.5t-85.5 29.5q-65 20 -111 40.5t-77.5 55t-31.5 83.5q0 15 5 38q13 58 64.5 102t122.5 67t144 23q93 0 157.5 -35t77.5 -91l-63 -20q-19 119 -180 119
q-79 0 -137 -38.5t-72 -101.5q-4 -15 -4 -31q0 -32 19 -51t47 -30t88 -30q65 -20 111 -41.5t77 -56t31 -84.5q0 -16 -5 -39q-13 -58 -64.5 -102t-122.5 -67t-144 -23q-94 0 -159.5 35zM337 881h33l97 -124l154 124h33l-117 -137h-147z" />
    <glyph glyph-name="scaron" unicode="&#x161;" horiz-adv-x="534" 
d="M78.5 17q-53.5 27 -60.5 68l72 12q0 -38 34 -59t94 -21t99 21.5t47 64.5q1 4 1 10q0 25 -27.5 40t-93.5 26q-81 14 -128 38.5t-47 79.5q0 13 3 28q10 42 49.5 72.5t95 46.5t111.5 16q76 0 129 -27t59 -68l-71 -12q0 40 -33.5 61t-86.5 21q-60 0 -104 -22.5t-49 -71.5
q-3 -23 11.5 -36.5t38.5 -20.5t69 -15q56 -10 90.5 -20t59.5 -32t25 -60q0 -16 -4 -32q-16 -63 -90 -99t-162 -36q-78 0 -131.5 27zM200 642h33l97 -124l154 124h33l-117 -137h-147z" />
    <glyph glyph-name="uni0162" unicode="&#x162;" horiz-adv-x="734" 
d="M745 700l-6 -27h-243l-156 -673h-41l-30 -42q53 3 78.5 -17.5t25.5 -52.5q0 -11 -3 -23q-11 -44 -46.5 -69.5t-79.5 -25.5q-31 0 -59 13t-48 39l14 15q35 -27 64 -27q33 0 55.5 25t22.5 54q0 21 -13.5 34.5t-40.5 13.5q-12 0 -25 -3l48 66h-30l156 673h-243l6 27h594z
" />
    <glyph glyph-name="uni0163" unicode="&#x163;" horiz-adv-x="323" 
d="M148 171l-14 -57q-2 -8 -8.5 -35.5t-6.5 -41.5q0 -22 18 -22q14 0 34.5 11t41.5 33l13 -13q-25 -26 -57 -41.5t-63 -15.5l-22 -30q53 3 78.5 -17.5t25.5 -52.5q0 -11 -3 -23q-11 -44 -46.5 -69.5t-79.5 -25.5q-31 0 -59 13t-48 39l14 15q35 -27 64 -27q33 0 55.5 25
t22.5 54q0 21 -13.5 34.5t-40.5 13.5q-12 0 -25 -3l42 57q-24 6 -35.5 22.5t-11.5 44.5q0 23 8 58l70 306h-51l6 27h51l41 177l113 38l-50 -215h109l-6 -27h-109z" />
    <glyph glyph-name="Tcaron" unicode="&#x164;" horiz-adv-x="734" 
d="M388 673h-243l6 27h594l-6 -27h-243l-156 -673h-108zM336 881h33l97 -124l154 124h33l-117 -137h-147z" />
    <glyph glyph-name="tcaron" unicode="&#x165;" horiz-adv-x="323" 
d="M43.5 5.5q-19.5 16.5 -19.5 53.5q0 21 8 58l70 306h-51l6 27h51l41 177l113 38l-50 -215h109l-6 -27h-109l-58 -252l-14 -57q-2 -8 -8.5 -35.5t-6.5 -41.5q0 -22 18 -22q14 0 34.5 11t41.5 33l13 -13q-25 -26 -57.5 -41.5t-63.5 -15.5q-42 0 -61.5 16.5zM321 495
q12 18 17 35q2 10 -2 16.5t-14 15.5t-15.5 17t-5.5 21q0 30 21 49t46 19q18 0 30 -11.5t12 -32.5q0 -32 -24.5 -71t-53.5 -65z" />
    <glyph glyph-name="Tbar" unicode="&#x166;" horiz-adv-x="734" 
d="M496 673l-77 -333h111l-8 -37h-112l-70 -303h-108l70 303h-101l8 37h102l77 333h-243l6 27h594l-6 -27h-243z" />
    <glyph glyph-name="tbar" unicode="&#x167;" horiz-adv-x="323" 
d="M206 423l-12 -54h110l-6 -32h-112l-38 -166l-14 -57q-2 -8 -8.5 -35.5t-6.5 -41.5q0 -22 18 -22q14 0 34.5 11t41.5 33l13 -13q-25 -26 -57.5 -41.5t-63.5 -15.5q-42 0 -61.5 16.5t-19.5 53.5q0 21 8 58l50 220h-56l7 32h57l12 54h-51l6 27h51l41 177l113 38l-50 -215
h109l-6 -27h-109z" />
    <glyph glyph-name="Umacron" unicode="&#x16a;" horiz-adv-x="714" 
d="M49 180q0 43 12 95l98 425h108l-101 -436q-11 -52 -11 -89q0 -149 157 -149q221 0 278 246l99 428h30l-99 -427q-64 -283 -333 -283q-238 0 -238 190zM331 804h326l-12 -55h-326z" />
    <glyph glyph-name="umacron" unicode="&#x16b;" horiz-adv-x="604" 
d="M77.5 20q-34.5 30 -34.5 93q0 34 11 84l58 253h104l-58 -253q-14 -62 -14 -99q0 -40 16 -58t50 -18q37 0 82 24.5t84 72.5t59 116l50 215h104l-104 -450h-101l26 111q-104 -121 -227 -121q-71 0 -105.5 30zM202 563h326l-12 -55h-326z" />
    <glyph glyph-name="Uring" unicode="&#x16e;" horiz-adv-x="714" 
d="M49 180q0 43 12 95l98 425h108l-101 -436q-11 -52 -11 -89q0 -149 157 -149q221 0 278 246l99 428h30l-99 -427q-64 -283 -333 -283q-238 0 -238 190zM397.5 730q-23.5 23 -23.5 59q0 33 19 62.5t49.5 47.5t63.5 18q37 0 60.5 -23t23.5 -59q0 -33 -19 -62.5t-49.5 -47.5
t-63.5 -18q-37 0 -60.5 23zM509 748q22 13 36 35t14 46q0 25 -16 42.5t-41 17.5q-37 0 -67 -29t-30 -66q0 -25 16.5 -42t42.5 -17q23 0 45 13z" />
    <glyph glyph-name="uring" unicode="&#x16f;" horiz-adv-x="606" 
d="M77.5 20q-34.5 30 -34.5 93q0 34 11 84l58 253h104l-58 -253q-14 -62 -14 -99q0 -40 16 -58t50 -18q37 0 82 24.5t84 72.5t59 116l50 215h104l-104 -450h-101l26 111q-104 -121 -227 -121q-71 0 -105.5 30zM291.5 508q-23.5 23 -23.5 59q0 33 19 62.5t49.5 47.5t63.5 18
q37 0 60.5 -23t23.5 -59q0 -33 -19 -62.5t-49.5 -47.5t-63.5 -18q-37 0 -60.5 23zM403 526q22 13 36 35t14 46q0 25 -16 42.5t-41 17.5q-37 0 -67 -29t-30 -66q0 -25 16.5 -42t42.5 -17q23 0 45 13z" />
    <glyph glyph-name="Uhungarumlaut" unicode="&#x170;" horiz-adv-x="714" 
d="M49 180q0 43 12 95l98 425h108l-101 -436q-11 -52 -11 -89q0 -149 157 -149q221 0 278 246l99 428h30l-99 -427q-64 -283 -333 -283q-238 0 -238 190zM480 840h88l-172 -137h-32zM636 840h87l-172 -137h-32z" />
    <glyph glyph-name="uhungarumlaut" unicode="&#x171;" horiz-adv-x="604" 
d="M77.5 20q-34.5 30 -34.5 93q0 34 11 84l58 253h104l-58 -253q-14 -62 -14 -99q0 -40 16 -58t50 -18q37 0 82 24.5t84 72.5t59 116l50 215h104l-104 -450h-101l26 111q-104 -121 -227 -121q-71 0 -105.5 30zM379 642h88l-172 -137h-32zM535 642h87l-172 -137h-32z" />
    <glyph glyph-name="Uogonek" unicode="&#x172;" horiz-adv-x="714" 
d="M719 700l-99 -427q-63 -272 -312 -283q-52 -55 -52 -103q0 -26 15.5 -41t40.5 -15q30 0 65 22l5 -12q-30 -30 -65.5 -45.5t-66.5 -15.5t-50.5 15t-19.5 43t23.5 67t72.5 85q-227 5 -227 191q0 42 12 94l98 425h108l-101 -436q-11 -52 -11 -89q0 -149 157 -149
q221 0 278 246l99 428h30z" />
    <glyph glyph-name="uogonek" unicode="&#x173;" horiz-adv-x="604" 
d="M391 -108q0 -26 15.5 -41t40.5 -15q30 0 65 22l5 -12q-30 -30 -65.5 -45.5t-66.5 -15.5t-50.5 15t-19.5 42q0 30 24.5 69.5t76.5 88.5h-32l26 111q-104 -121 -227 -121q-71 0 -105.5 30t-34.5 93q0 34 11 84l58 253h104l-58 -253q-14 -62 -14 -99q0 -40 16 -58t50 -18
q37 0 82 24.5t84 72.5t59 116l50 215h104l-104 -450h-38q-56 -56 -56 -108z" />
    <glyph glyph-name="Wcircumflex" unicode="&#x174;" horiz-adv-x="1185" 
d="M129 700h113l90 -626l373 626h30l75 -626l379 626h30l-423 -700h-86l-70 542l-322 -542h-86zM677 864h147l53 -137h-33l-96 124l-155 -124h-33z" />
    <glyph glyph-name="wcircumflex" unicode="&#x175;" horiz-adv-x="785" 
d="M72 450h109l65 -376l222 376h33l46 -379l241 379h30l-285 -450h-82l-40 303l-178 -303h-82zM445 638h147l53 -137h-33l-96 124l-155 -124h-33z" />
    <glyph glyph-name="Ycircumflex" unicode="&#x176;" horiz-adv-x="733" 
d="M302 277l-172 423h120l154 -380l332 380h32l-354 -405l-68 -295h-108zM447 881h147l53 -137h-33l-96 124l-155 -124h-33z" />
    <glyph glyph-name="ycircumflex" unicode="&#x177;" horiz-adv-x="605" 
d="M66 -111q18 -29 56.5 -48.5t81.5 -19.5q64 0 117 45.5t75 142.5l22 97q-102 -116 -223 -116q-71 0 -105.5 30t-34.5 93q0 34 11 84l58 253h104l-58 -253q-14 -62 -14 -97q0 -41 16.5 -59.5t50.5 -18.5q37 0 82 24.5t84 72.5t59 116l49 215h104l-101 -440
q-18 -75 -63 -125.5t-104.5 -74t-121.5 -23.5q-58 0 -104 20t-64 55zM333 639h147l53 -137h-33l-96 124l-155 -124h-33z" />
    <glyph glyph-name="Ydieresis" unicode="&#x178;" horiz-adv-x="733" 
d="M302 277l-172 423h120l154 -380l332 380h32l-354 -405l-68 -295h-108zM371 756.5q-12 11.5 -12 30.5q0 25 20.5 45.5t45.5 20.5q21 0 33 -11.5t12 -30.5q0 -27 -20 -46.5t-47 -19.5q-20 0 -32 11.5zM555 756.5q-12 11.5 -12 29.5q0 27 20.5 46.5t47.5 19.5
q19 0 31.5 -11.5t12.5 -29.5q0 -27 -21 -46.5t-47 -19.5q-20 0 -32 11.5z" />
    <glyph glyph-name="Zacute" unicode="&#x179;" horiz-adv-x="761" 
d="M4 27l633 646h-472l6 27h592l-6 -27l-633 -646h472l-6 -27h-592zM555 880h88l-172 -137h-33z" />
    <glyph glyph-name="zacute" unicode="&#x17a;" horiz-adv-x="585" 
d="M6 27l429 396h-329l6 27h468l-6 -27l-429 -396h334l-6 -27h-473zM437 641h88l-172 -137h-33z" />
    <glyph glyph-name="Zdotaccent" unicode="&#x17b;" horiz-adv-x="761" 
d="M4 27l633 646h-472l6 27h592l-6 -27l-633 -646h472l-6 -27h-592zM430 766.5q-12 11.5 -12 29.5q0 25 20.5 46t45.5 21q21 0 33 -11.5t12 -30.5q0 -27 -20 -46.5t-47 -19.5q-20 0 -32 11.5z" />
    <glyph glyph-name="zdotaccent" unicode="&#x17c;" horiz-adv-x="585" 
d="M6 27l429 396h-329l6 27h468l-6 -27l-429 -396h334l-6 -27h-473zM295 516.5q-12 11.5 -12 29.5q0 25 20.5 46t45.5 21q21 0 33 -11.5t12 -30.5q0 -27 -20 -46.5t-47 -19.5q-20 0 -32 11.5z" />
    <glyph glyph-name="Zcaron" unicode="&#x17d;" horiz-adv-x="761" 
d="M4 27l633 646h-472l6 27h592l-6 -27l-633 -646h472l-6 -27h-592zM349 883h33l97 -124l154 124h33l-117 -137h-147z" />
    <glyph glyph-name="zcaron" unicode="&#x17e;" horiz-adv-x="595" 
d="M6 27l429 396h-329l6 27h468l-6 -27l-429 -396h334l-6 -27h-473zM228 640h33l97 -124l154 124h33l-117 -137h-147z" />
    <glyph glyph-name="uni0218" unicode="&#x218;" horiz-adv-x="710" 
d="M103.5 24q-65.5 35 -78.5 91l63 20q20 -119 183 -119q79 0 137 39t72 102q4 15 4 31q0 32 -19 52t-48.5 32.5t-85.5 29.5q-65 20 -111 40.5t-77.5 55t-31.5 83.5q0 15 5 38q13 58 64.5 102t122.5 67t144 23q93 0 157.5 -35t77.5 -91l-63 -20q-19 119 -180 119
q-79 0 -137 -38.5t-72 -101.5q-4 -15 -4 -31q0 -32 19 -51t47 -30t88 -30q65 -20 111 -41.5t77 -56t31 -84.5q0 -16 -5 -39q-13 -58 -64.5 -102t-122.5 -67t-144 -23q-94 0 -159.5 35zM215 -220q12 18 17 35q2 10 -2 16.5t-14 15.5t-15.5 17t-5.5 21q0 30 21 49t46 19
q18 0 30 -11.5t12 -32.5q0 -32 -24.5 -71t-53.5 -65z" />
    <glyph glyph-name="uni0219" unicode="&#x219;" horiz-adv-x="534" 
d="M78.5 17q-53.5 27 -60.5 68l72 12q0 -38 34 -59t94 -21t99 21.5t47 64.5q1 4 1 10q0 25 -27.5 40t-93.5 26q-81 14 -128 38.5t-47 79.5q0 13 3 28q10 42 49.5 72.5t95 46.5t111.5 16q76 0 129 -27t59 -68l-71 -12q0 40 -33.5 61t-86.5 21q-60 0 -104 -22.5t-49 -71.5
q-3 -23 11.5 -36.5t38.5 -20.5t69 -15q56 -10 90.5 -20t59.5 -32t25 -60q0 -16 -4 -32q-16 -63 -90 -99t-162 -36q-78 0 -131.5 27zM156 -228q12 18 17 35q2 10 -2 16.5t-14 15.5t-15.5 17t-5.5 21q0 30 21 49t46 19q18 0 30 -11.5t12 -32.5q0 -32 -24.5 -71t-53.5 -65z" />
    <glyph glyph-name="uni021A" unicode="&#x21a;" horiz-adv-x="734" 
d="M388 673h-243l6 27h594l-6 -27h-243l-156 -673h-108zM227 -214q12 18 17 35q2 10 -2 16.5t-14 15.5t-15.5 17t-5.5 21q0 30 21 49t46 19q18 0 30 -11.5t12 -32.5q0 -32 -24.5 -71t-53.5 -65z" />
    <glyph glyph-name="uni021B" unicode="&#x21b;" horiz-adv-x="323" 
d="M43.5 5.5q-19.5 16.5 -19.5 53.5q0 21 8 58l70 306h-51l6 27h51l41 177l113 38l-50 -215h109l-6 -27h-109l-58 -252l-14 -57q-2 -8 -8.5 -35.5t-6.5 -41.5q0 -22 18 -22q14 0 34.5 11t41.5 33l13 -13q-25 -26 -57.5 -41.5t-63.5 -15.5q-42 0 -61.5 16.5zM28 -223
q12 18 17 35q2 10 -2 16.5t-14 15.5t-15.5 17t-5.5 21q0 30 21 49t46 19q18 0 30 -11.5t12 -32.5q0 -32 -24.5 -71t-53.5 -65z" />
    <glyph glyph-name="circumflex" unicode="&#x2c6;" horiz-adv-x="417" 
d="M151 880h147l53 -137h-33l-96 124l-155 -124h-33z" />
    <glyph glyph-name="caron" unicode="&#x2c7;" horiz-adv-x="417" 
d="M66 880h33l97 -124l154 124h33l-117 -137h-147z" />
    <glyph glyph-name="breve" unicode="&#x2d8;" horiz-adv-x="426" 
d="M101 754.5q-37 30.5 -37 89.5q0 16 5 41h21q-2 -14 -2 -19q0 -41 33 -61t87 -20q60 0 105.5 25t60.5 75h21q-20 -78 -77.5 -119.5t-123.5 -41.5q-56 0 -93 30.5z" />
    <glyph glyph-name="dotaccent" unicode="&#x2d9;" horiz-adv-x="208" 
d="M60 746.5q-12 11.5 -12 29.5q0 25 20.5 46t45.5 21q21 0 33 -11.5t12 -30.5q0 -27 -20 -46.5t-47 -19.5q-20 0 -32 11.5z" />
    <glyph glyph-name="ring" unicode="&#x2da;" horiz-adv-x="310" 
d="M70.5 753q-23.5 23 -23.5 59q0 33 19 62.5t49.5 47.5t63.5 18q37 0 60.5 -23t23.5 -59q0 -33 -19 -62.5t-49.5 -47.5t-63.5 -18q-37 0 -60.5 23zM182 771q22 13 36 35t14 46q0 25 -16 42.5t-41 17.5q-37 0 -67 -29t-30 -66q0 -25 16.5 -42t42.5 -17q23 0 45 13z" />
    <glyph glyph-name="ogonek" unicode="&#x2db;" horiz-adv-x="303" 
d="M174 -204q-35 -15 -67 -15q-31 0 -50.5 15t-19.5 42q0 33 32 80.5t101 104.5l16 -12q-37 -33 -55 -65t-18 -59q0 -26 15.5 -41t40.5 -15q30 0 65 22l5 -12q-30 -30 -65 -45z" />
    <glyph glyph-name="tilde" unicode="&#x2dc;" horiz-adv-x="441" 
d="M256.5 743q-22.5 9 -53.5 26q-29 15 -45 22t-32 7q-58 0 -71 -53h-17q15 64 39.5 89t60.5 25q24 0 46.5 -8.5t52.5 -23.5q27 -14 44.5 -20.5t34.5 -6.5q25 0 45 13.5t25 34.5h17q-15 -64 -39.5 -89t-60.5 -25q-24 0 -46.5 9z" />
    <glyph glyph-name="hungarumlaut" unicode="&#x2dd;" horiz-adv-x="427" 
d="M150 879h88l-172 -137h-32zM306 879h87l-172 -137h-32z" />
    <glyph glyph-name="gravecomb" unicode="&#x300;" 
d="M-207 879h88l53 -137h-33z" />
    <glyph glyph-name="acutecomb" unicode="&#x301;" 
d="M-122 879h88l-172 -137h-33z" />
    <glyph glyph-name="uni0302" unicode="&#x302;" 
d="M-266 880h147l53 -137h-33l-96 124l-155 -124h-33z" />
    <glyph glyph-name="tildecomb" unicode="&#x303;" 
d="M-184.5 743q-22.5 9 -53.5 26q-29 15 -45 22t-32 7q-58 0 -71 -53h-17q15 64 39.5 89t60.5 25q24 0 46.5 -8.5t52.5 -23.5q27 -14 44.5 -20.5t34.5 -6.5q25 0 45 13.5t25 34.5h17q-15 -64 -39.5 -89t-60.5 -25q-24 0 -46.5 9z" />
    <glyph glyph-name="uni0304" unicode="&#x304;" 
d="M-370 803h326l-12 -55h-326z" />
    <glyph glyph-name="uni0306" unicode="&#x306;" 
d="M-325 754.5q-37 30.5 -37 89.5q0 16 5 41h21q-2 -14 -2 -19q0 -41 33 -61t87 -20q60 0 105.5 25t60.5 75h21q-20 -78 -77.5 -119.5t-123.5 -41.5q-56 0 -93 30.5z" />
    <glyph glyph-name="uni0307" unicode="&#x307;" 
d="M-148 746.5q-12 11.5 -12 29.5q0 25 20.5 46t45.5 21q21 0 33 -11.5t12 -30.5q0 -27 -20 -46.5t-47 -19.5q-20 0 -32 11.5z" />
    <glyph glyph-name="uni0308" unicode="&#x308;" 
d="M-333 746.5q-12 11.5 -12 30.5q0 25 20.5 45.5t45.5 20.5q21 0 33 -11.5t12 -30.5q0 -27 -20 -46.5t-47 -19.5q-20 0 -32 11.5zM-149 746.5q-12 11.5 -12 29.5q0 27 20.5 46.5t47.5 19.5q19 0 31.5 -11.5t12.5 -29.5q0 -27 -21 -46.5t-47 -19.5q-20 0 -32 11.5z" />
    <glyph glyph-name="uni030A" unicode="&#x30a;" 
d="M-239.5 753q-23.5 23 -23.5 59q0 33 19 62.5t49.5 47.5t63.5 18q37 0 60.5 -23t23.5 -59q0 -33 -19 -62.5t-49.5 -47.5t-63.5 -18q-37 0 -60.5 23zM-128 771q22 13 36 35t14 46q0 25 -16 42.5t-41 17.5q-37 0 -67 -29t-30 -66q0 -25 16.5 -42t42.5 -17q23 0 45 13z" />
    <glyph glyph-name="uni030B" unicode="&#x30b;" 
d="M-277 880h88l-172 -137h-32zM-121 880h87l-172 -137h-32z" />
    <glyph glyph-name="uni030C" unicode="&#x30c;" 
d="M-351 880h33l97 -124l154 124h33l-117 -137h-147z" />
    <glyph glyph-name="uni0312" unicode="&#x312;" 
d="M-154 752.5q-12 11.5 -12 32.5q0 32 24.5 71t53.5 65l11 -7q-12 -18 -17 -35q-2 -10 2 -16.5t14 -15.5t15.5 -17t5.5 -21q0 -30 -21 -49t-46 -19q-18 0 -30 11.5z" />
    <glyph glyph-name="uni0326" unicode="&#x326;" 
d="M-130 -242q12 18 17 35q2 10 -2 16.5t-14 15.5t-15.5 17t-5.5 21q0 30 21 49t46 19q18 0 30 -11.5t12 -32.5q0 -32 -24.5 -71t-53.5 -65z" />
    <glyph glyph-name="uni0327" unicode="&#x327;" 
d="M-155.5 -161.5q22.5 25.5 22.5 54.5q0 20 -13.5 33.5t-40.5 13.5q-12 0 -25 -3l55 75h37l-37 -51q53 3 78.5 -17.5t25.5 -52.5q0 -11 -3 -23q-11 -44 -46.5 -69.5t-79.5 -25.5q-31 0 -59 13t-48 39l14 15q34 -27 64 -27q33 0 55.5 25.5z" />
    <glyph glyph-name="uni0328" unicode="&#x328;" 
d="M-129 -204q-35 -15 -67 -15q-31 0 -50.5 15t-19.5 42q0 33 32 80.5t101 104.5l16 -12q-37 -33 -55 -65t-18 -59q0 -26 15 -41t41 -15q30 0 65 22l5 -12q-30 -30 -65 -45z" />
    <glyph glyph-name="uni0335" unicode="&#x335;" 
d="M-367 327h321l-8 -37h-321z" />
    <glyph glyph-name="uni0336" unicode="&#x336;" 
d="M-423 327h377l-8 -37h-377z" />
    <glyph glyph-name="uni0337" unicode="&#x337;" 
d="M-33 506h44l-557 -532h-43z" />
    <glyph glyph-name="uni0338" unicode="&#x338;" 
d="M-13 659h43l-700 -693h-42z" />
    <glyph glyph-name="Wgrave" unicode="&#x1e80;" horiz-adv-x="1185" 
d="M129 700h113l90 -626l373 626h30l75 -626l379 626h30l-423 -700h-86l-70 542l-322 -542h-86zM626 879h88l53 -137h-33z" />
    <glyph glyph-name="wgrave" unicode="&#x1e81;" horiz-adv-x="785" 
d="M72 450h109l65 -376l222 376h33l46 -379l241 379h30l-285 -450h-82l-40 303l-178 -303h-82zM350 637h88l53 -137h-33z" />
    <glyph glyph-name="Wacute" unicode="&#x1e82;" horiz-adv-x="1185" 
d="M129 700h113l90 -626l373 626h30l75 -626l379 626h30l-423 -700h-86l-70 542l-322 -542h-86zM784 863h88l-172 -137h-33z" />
    <glyph glyph-name="wacute" unicode="&#x1e83;" horiz-adv-x="785" 
d="M72 450h109l65 -376l222 376h33l46 -379l241 379h30l-285 -450h-82l-40 303l-178 -303h-82zM565 640h88l-172 -137h-33z" />
    <glyph glyph-name="Wdieresis" unicode="&#x1e84;" horiz-adv-x="1185" 
d="M129 700h113l90 -626l373 626h30l75 -626l379 626h30l-423 -700h-86l-70 542l-322 -542h-86zM609 758.5q-12 11.5 -12 30.5q0 25 20.5 45.5t45.5 20.5q21 0 33 -11.5t12 -30.5q0 -27 -20 -46.5t-47 -19.5q-20 0 -32 11.5zM793 758.5q-12 11.5 -12 29.5q0 27 20.5 46.5
t47.5 19.5q19 0 31.5 -11.5t12.5 -29.5q0 -27 -21 -46.5t-47 -19.5q-20 0 -32 11.5z" />
    <glyph glyph-name="wdieresis" unicode="&#x1e85;" horiz-adv-x="785" 
d="M72 450h109l65 -376l222 376h33l46 -379l241 379h30l-285 -450h-82l-40 303l-178 -303h-82zM360 512.5q-12 11.5 -12 30.5q0 25 20.5 45.5t45.5 20.5q21 0 33 -11.5t12 -30.5q0 -27 -20 -46.5t-47 -19.5q-20 0 -32 11.5zM544 512.5q-12 11.5 -12 29.5q0 27 20.5 46.5
t47.5 19.5q19 0 31.5 -11.5t12.5 -29.5q0 -27 -21 -46.5t-47 -19.5q-20 0 -32 11.5z" />
    <glyph glyph-name="Ygrave" unicode="&#x1ef2;" horiz-adv-x="733" 
d="M302 277l-172 423h120l154 -380l332 380h32l-354 -405l-68 -295h-108zM351 879h88l53 -137h-33z" />
    <glyph glyph-name="ygrave" unicode="&#x1ef3;" horiz-adv-x="605" 
d="M66 -111q18 -29 56.5 -48.5t81.5 -19.5q64 0 117 45.5t75 142.5l22 97q-102 -116 -223 -116q-71 0 -105.5 30t-34.5 93q0 34 11 84l58 253h104l-58 -253q-14 -62 -14 -97q0 -41 16.5 -59.5t50.5 -18.5q37 0 82 24.5t84 72.5t59 116l49 215h104l-101 -440
q-18 -75 -63 -125.5t-104.5 -74t-121.5 -23.5q-58 0 -104 20t-64 55zM288 641h88l53 -137h-33z" />
    <glyph glyph-name="endash" unicode="&#x2013;" horiz-adv-x="652" 
d="M84 252h532l-8 -37h-532z" />
    <glyph glyph-name="emdash" unicode="&#x2014;" horiz-adv-x="1041" 
d="M84 252h921l-8 -37h-921z" />
    <glyph glyph-name="quoteleft" unicode="&#x2018;" horiz-adv-x="227" 
d="M83 550.5q-12 11.5 -12 32.5q0 32 24.5 71t53.5 65l11 -7q-12 -18 -17 -35q-2 -10 2 -16.5t14 -15.5t15.5 -17t5.5 -21q0 -30 -21 -49t-46 -19q-18 0 -30 11.5z" />
    <glyph glyph-name="quoteright" unicode="&#x2019;" horiz-adv-x="227" 
d="M107 546q12 18 17 35q2 10 -2 16.5t-14 15.5t-15.5 17t-5.5 21q0 30 21 49t46 19q18 0 30 -11.5t12 -32.5q0 -32 -24.5 -71t-53.5 -65z" />
    <glyph glyph-name="quotesinglbase" unicode="&#x201a;" horiz-adv-x="227" 
d="M107 -69q12 18 17 35q2 10 -2 16.5t-14 15.5t-15.5 17t-5.5 21q0 30 21 49t46 19q18 0 30 -11.5t12 -33.5q0 -31 -24.5 -69.5t-53.5 -65.5z" />
    <glyph glyph-name="quotedblleft" unicode="&#x201c;" horiz-adv-x="383" 
d="M86 548q-11 9 -14 26q-4 32 21 74.5t57 70.5l10 -7q-12 -18 -17 -35q-2 -10 2 -16.5t14 -15.5q11 -10 16.5 -17.5t5.5 -20.5q0 -30 -21.5 -49t-46.5 -19q-16 0 -27 9zM239 550.5q-12 11.5 -12 33.5q0 32 24.5 70.5t53.5 64.5l10 -7q-12 -19 -16 -35q-2 -10 2 -16.5
t14 -15.5t15.5 -17t5.5 -21q0 -30 -21 -49t-46 -19q-18 0 -30 11.5z" />
    <glyph glyph-name="quotedblright" unicode="&#x201d;" horiz-adv-x="383" 
d="M108 546q12 19 16 35q2 10 -2 16.5t-14 15.5t-15.5 17t-5.5 21q0 30 21 49t46 19q18 0 30 -11.5t12 -33.5q0 -32 -24.5 -70.5t-53.5 -64.5zM263 546q12 18 17 35q2 10 -2 16.5t-14 15.5q-11 10 -16.5 17.5t-5.5 20.5q0 30 21.5 49t46.5 19q16 0 27 -9t14 -26
q4 -32 -21 -74.5t-57 -70.5z" />
    <glyph glyph-name="quotedblbase" unicode="&#x201e;" horiz-adv-x="383" 
d="M108 -69q12 19 16 35q2 10 -2 16.5t-14 15.5t-15.5 17t-5.5 21q0 30 21 49t46 19q18 0 30 -11.5t12 -33.5q0 -32 -24.5 -70.5t-53.5 -64.5zM263 -69q12 18 17 35q2 10 -2 16.5t-14 15.5q-11 10 -16.5 17.5t-5.5 20.5q0 30 21.5 49t46.5 19q16 0 27 -9t14 -26
q4 -32 -21 -74.5t-57 -70.5z" />
    <glyph glyph-name="dagger" unicode="&#x2020;" horiz-adv-x="508" 
d="M181 73l89 448l-114 -24l-36 32l51 33l112 -27h3l30 80l1 25l15 25q-12 3 -18.5 12t-6.5 21q0 7 1 10q4 18 20 31t35 13q15 0 24.5 -9.5t9.5 -24.5q0 -7 -1 -10q-4 -15 -15 -26t-25 -16l2 -26l-10 -25l-6 -79l6 1l118 25l42 -33l-57 -32l-102 23l-117 -446l-50 -117h-4z
" />
    <glyph glyph-name="daggerdbl" unicode="&#x2021;" horiz-adv-x="442" 
d="M117 -120.5q-8 7.5 -8 20.5q0 15 10.5 27.5t25.5 16.5l-1 19l5 21l-3 22v44l-95 -20l-30 27l42 26l87 -20l73 249l43 250l-96 -20l-30 26l42 27l86 -20l2 -1l5 -1l25 66l6 23l9 19q-10 2 -15.5 9.5t-5.5 17.5q0 17 15 31t32 14q13 0 20.5 -8t7.5 -20q0 -15 -10.5 -27.5
t-25.5 -16.5l1 -19l-6 -23l-5 -65l6 1l97 20l34 -27l-46 -26l-86 19l-72 -249l-42 -248l94 19l35 -26l-47 -27l-85 19v-1l-20 -42l-13 -22l-5 -21l-9 -19q8 -2 13 -9t5 -17q0 -18 -13.5 -32t-30.5 -14q-13 0 -21 7.5z" />
    <glyph glyph-name="bullet" unicode="&#x2022;" horiz-adv-x="333" 
d="M100.5 231q-23.5 23 -23.5 59q0 34 19.5 64.5t51 48.5t64.5 18q37 0 60.5 -23t23.5 -58q0 -34 -19.5 -64.5t-50.5 -49t-64 -18.5q-38 0 -61.5 23z" />
    <glyph glyph-name="ellipsis" unicode="&#x2026;" horiz-adv-x="643" 
d="M90 6.5q-12 11.5 -12 28.5q0 26 20.5 45.5t46.5 19.5q19 0 31 -11.5t12 -29.5q0 -26 -21 -45t-46 -19q-19 0 -31 11.5zM299 6.5q-12 11.5 -12 28.5q0 26 20.5 45.5t46.5 19.5q19 0 30.5 -11.5t11.5 -28.5q0 -26 -20.5 -45.5t-45.5 -19.5q-19 0 -31 11.5zM508 6.5
q-12 11.5 -12 29.5q0 25 20.5 44.5t46.5 19.5q19 0 30.5 -11t11.5 -28q0 -27 -20 -46.5t-46 -19.5q-19 0 -31 11.5z" />
    <glyph glyph-name="perthousand" unicode="&#x2030;" horiz-adv-x="1041" 
d="M670 672q-62 -19 -131 -19q-58 0 -125 15q27 -33 27 -74q0 -18 -4 -34q-9 -42 -37.5 -76.5t-68.5 -54.5t-82 -20q-55 0 -90 33.5t-35 84.5q0 18 4 33q10 41 38.5 75.5t69 54.5t82.5 20h2q36 0 64 -16q91 -24 153 -24q75 0 158 30h53l-657 -700h-51zM302.5 465.5
q25.5 38.5 38.5 94.5q7 31 7 62q0 28 -6.5 46.5t-17.5 22.5q-2 1 -2 0q-6 1 -6 1.5t-1 0.5q-23 0 -49 -38.5t-39 -94.5q-8 -37 -8 -62q0 -33 9.5 -52t25.5 -19q23 0 48.5 38.5zM354.5 24q-34.5 33 -34.5 84q0 18 4 34q9 41 38 75.5t69 54.5t82 20q54 0 89 -33t35 -84
q0 -18 -4 -33q-10 -42 -38.5 -76.5t-68.5 -54.5t-82 -20q-55 0 -89.5 33zM674.5 24q-34.5 33 -34.5 84q0 18 4 34q9 41 38 75.5t69 54.5t82 20q54 0 89 -33t35 -84q0 -18 -4 -33q-10 -42 -38.5 -76.5t-68.5 -54.5t-82 -20q-55 0 -89.5 33zM498.5 47.5q25.5 38.5 38.5 94.5
q8 37 8 64q0 31 -9 50t-25 19q-24 0 -49.5 -38.5t-38.5 -94.5q-8 -37 -8 -64q0 -31 9 -50t25 -19q24 0 49.5 38.5zM818.5 47.5q25.5 38.5 38.5 94.5q8 37 8 64q0 31 -9 50t-25 19q-24 0 -49.5 -38.5t-38.5 -94.5q-8 -37 -8 -64q0 -31 9 -50t25 -19q24 0 49.5 38.5z" />
    <glyph glyph-name="guilsinglleft" unicode="&#x2039;" horiz-adv-x="466" 
d="M80 337l402 243l-10 -45l-321 -198l-1 1v-2l1 1l229 -198l-10 -45z" />
    <glyph glyph-name="guilsinglright" unicode="&#x203a;" horiz-adv-x="466" 
d="M34 139l321 198l1 -1v2l-1 -1l-229 198l10 45l290 -243l-402 -243z" />
    <glyph glyph-name="fraction" unicode="&#x2044;" horiz-adv-x="762" 
d="M736 770h61l-771 -908h-61z" />
    <glyph glyph-name="Euro" unicode="&#x20ac;" horiz-adv-x="878" 
d="M311 25q-72 35 -109 99t-35 148h-105l26 33h81q2 14 8 44q5 21 7 28h-78l27 33h63q34 88 102 155.5t158.5 105t191.5 37.5q63 0 115.5 -17.5t86 -47t41.5 -63.5l-57 -19q-13 63 -61 94.5t-120 31.5q-76 0 -144.5 -34.5t-121 -97t-81.5 -145.5h319l-28 -33h-302
q-2 -7 -3.5 -13t-3.5 -13q-6 -34 -8 -46h296l-28 -33h-272l-1 -23q0 -110 58.5 -174t162.5 -64q72 0 134.5 31.5t104.5 94.5l49 -19q-24 -34 -71 -63.5t-108 -47t-124 -17.5q-98 0 -170 35z" />
    <glyph glyph-name="trademark" unicode="&#x2122;" horiz-adv-x="807" 
d="M236 811h-121l3 12h280l-3 -12h-120l-73 -316h-39zM439 823h40l86 -283l201 283h39l-76 -328h-39l69 298l-212 -298h-13l-91 296l-68 -296h-12z" />
    <glyph glyph-name="oneeighth" unicode="&#x215b;" horiz-adv-x="877" 
d="M244 751l99 80l-122 -527h-80zM740 770h61l-770 -908h-61zM449 42.5q39 40.5 103 75.5q-61 59 -61 107q0 6 2 18q13 56 65 87t112 31q48 0 79.5 -20.5t31.5 -58.5q0 -39 -34 -77.5t-97 -72.5q46 -40 70 -72t24 -67q0 -13 -2 -20q-13 -59 -73 -92t-131 -33
q-60 0 -100.5 23.5t-40.5 67.5q0 10 3 21q10 42 49 82.5zM705 198q25 27 33 62q3 12 3 22q0 31 -21 48t-51 17q-36 0 -66.5 -22t-39.5 -62q-2 -12 -2 -16q0 -27 18 -49t54 -52q47 25 72 52zM673 -32q0 26 -18.5 49.5t-53.5 54.5l-15 14l-20 17q-49 -29 -80 -65t-41 -76
q-3 -12 -3 -22q0 -35 28.5 -54.5t69.5 -19.5q45 0 83 23t48 64q2 10 2 15z" />
    <glyph glyph-name="threeeighths" unicode="&#x215c;" horiz-adv-x="983" 
d="M141 330.5q-37 20.5 -50 55.5l45 27q8 -86 85 -86q53 0 94.5 38t55.5 100q6 26 6 47q0 36 -17 55t-50 19q-11 0 -21 -1l-20 -2l2 14q42 0 73 34t40 75q5 25 5 41q0 10 -2 22q-5 21 -18 31.5t-36 10.5q-41 0 -70.5 -28.5t-42.5 -80.5l-45 13q26 53 72.5 83t102.5 30
q54 0 86 -24t32 -64q0 -44 -29 -78.5t-81 -56.5q47 -5 74.5 -32.5t27.5 -68.5q0 -14 -3 -29q-17 -74 -80.5 -119.5t-149.5 -45.5q-49 0 -86 20.5zM858 770h61l-771 -908h-61zM556 42.5q39 40.5 102 75.5q-61 59 -61 107q0 6 2 18q13 56 65 87t113 31q47 0 79 -20.5t32 -57.5
q0 -39 -34 -78t-98 -73q47 -42 71 -74t24 -66q0 -7 -2 -19q-13 -59 -73.5 -92t-131.5 -33q-59 0 -99.5 23.5t-40.5 66.5q0 10 3 22q10 42 49 82.5zM811 198q25 27 33 62q3 12 3 22q0 31 -21 48t-51 17q-35 0 -65.5 -22t-39.5 -62q-2 -12 -2 -16q0 -27 18 -49t54 -52
q46 25 71 52zM779 -32q0 26 -18.5 49.5t-53.5 54.5l-15 14l-19 17q-49 -28 -80 -64t-42 -77q-3 -12 -3 -21q0 -36 29 -55.5t70 -19.5q45 0 83 23t47 64q2 10 2 15z" />
    <glyph glyph-name="fiveeighths" unicode="&#x215d;" horiz-adv-x="968" 
d="M134.5 325q-35.5 21 -43.5 54l48 25q1 -44 21.5 -65t54.5 -21q53 0 101 50q16 16 29 42t19 54q6 24 6 46q0 46 -24.5 73.5t-67.5 27.5q-55 0 -131 -49l57 249h313l-13 -59h-271l-33 -142q52 23 104 23q67 0 109 -35t42 -89q0 -9 -4 -31q-15 -66 -78 -120q-29 -24 -71 -39
t-83 -15q-49 0 -84.5 21zM843 770h61l-771 -908h-61zM543 42.5q39 40.5 102 75.5q-61 59 -61 107q0 6 2 18q13 56 65 87t113 31q47 0 79 -20.5t32 -57.5q0 -39 -34 -78t-98 -73q47 -42 71 -74t24 -66q0 -7 -2 -19q-13 -59 -73.5 -92t-131.5 -33q-59 0 -99.5 23.5t-40.5 66.5
q0 10 3 22q10 42 49 82.5zM798 198q25 27 33 62q3 12 3 22q0 31 -21 48t-51 17q-35 0 -65.5 -22t-39.5 -62q-2 -12 -2 -16q0 -27 18 -49t54 -52q46 25 71 52zM766 -32q0 26 -18.5 49.5t-53.5 54.5l-15 14l-19 17q-49 -28 -80 -64t-42 -77q-3 -12 -3 -21q0 -36 29 -55.5
t70 -19.5q45 0 83 23t47 64q2 10 2 15z" />
    <glyph glyph-name="seveneighths" unicode="&#x215e;" horiz-adv-x="881" 
d="M239.5 514q69.5 102 181.5 247h-242l13 59h312q-98 -125 -171 -254t-104 -246h-93q34 92 103.5 194zM746 770h61l-771 -908h-61zM455 42.5q39 40.5 102 75.5q-61 59 -61 107q0 6 2 18q13 56 65 87t113 31q47 0 79 -20.5t32 -57.5q0 -39 -34 -78t-98 -73q47 -42 71 -74
t24 -66q0 -7 -2 -19q-13 -59 -73.5 -92t-131.5 -33q-59 0 -99.5 23.5t-40.5 66.5q0 10 3 22q10 42 49 82.5zM710 198q25 27 33 62q3 12 3 22q0 31 -21 48t-51 17q-35 0 -65.5 -22t-39.5 -62q-2 -12 -2 -16q0 -27 18 -49t54 -52q46 25 71 52zM678 -32q0 26 -18.5 49.5
t-53.5 54.5l-15 14l-19 17q-49 -28 -80 -64t-42 -77q-3 -12 -3 -21q0 -36 29 -55.5t70 -19.5q45 0 83 23t47 64q2 10 2 15z" />
    <glyph glyph-name="arrowleft" unicode="&#x2190;" horiz-adv-x="808" 
d="M77 294l6 28l255 123l-7 -28l-160 -89h602l-10 -40h-602l120 -89l-7 -28z" />
    <glyph glyph-name="arrowup" unicode="&#x2191;" horiz-adv-x="394" 
d="M257 569l-121 -141h-29l175 226h28l71 -226h-29l-55 141l-139 -603h-40z" />
    <glyph glyph-name="arrowright" unicode="&#x2192;" horiz-adv-x="808" 
d="M517 199l160 89h-602l10 40h602l-120 89l7 28l197 -123l-6 -28l-255 -123z" />
    <glyph glyph-name="arrowdown" unicode="&#x2193;" horiz-adv-x="394" 
d="M53 189h28l56 -140l139 602h40l-139 -602l122 140h28l-175 -226h-28z" />
    <glyph glyph-name="arrowboth" unicode="&#x2194;" horiz-adv-x="964" 
d="M77 363l6 28l256 123l-7 -28l-160 -89h670l-120 89l7 28l198 -123l-6 -28l-256 -123l7 28l160 89h-670l120 -89l-7 -28z" />
    <glyph glyph-name="arrowupdn" unicode="&#x2195;" horiz-adv-x="394" 
d="M35 182h28l57 -140l154 670l-121 -140h-28l175 227h28l71 -227h-28l-57 140l-154 -670l121 140h28l-175 -227h-28z" />
    <glyph glyph-name="uni2196" unicode="&#x2196;" horiz-adv-x="630" 
d="M175 478v-161l-25 -20l-16 246l25 20l229 -73l-25 -20l-152 37l327 -425l-36 -29z" />
    <glyph glyph-name="uni2197" unicode="&#x2197;" horiz-adv-x="630" 
d="M28 82l523 425l-170 -37l-15 20l263 73l15 -20l-130 -246l-15 20l74 161l-523 -425z" />
    <glyph glyph-name="uni2198" unicode="&#x2198;" horiz-adv-x="630" 
d="M282 126l25 20l152 -37l-327 425l36 29l327 -425v161l25 20l16 -246l-25 -20z" />
    <glyph glyph-name="uni2199" unicode="&#x2199;" horiz-adv-x="630" 
d="M26 73l130 246l15 -20l-74 -161l523 425l22 -29l-523 -425l170 37l15 -20l-263 -73z" />
    <glyph glyph-name="partialdiff" unicode="&#x2202;" horiz-adv-x="606" 
d="M92 39.5q-47 49.5 -47 124.5q0 24 7 57q14 59 53 113.5t99.5 88.5t136.5 34q79 0 125 -52q7 46 7 89q0 86 -30 132.5t-87 46.5q-30 0 -59.5 -18t-66.5 -64l-18 39h1q33 29 77.5 46.5t87.5 17.5q96 0 148 -62.5t52 -175.5q0 -64 -18 -142q-18 -76 -63 -150.5t-113.5 -124
t-150.5 -49.5q-94 0 -141 49.5zM317 51q42 41 77.5 110.5t54.5 152.5l1 7q-30 117 -104 117q-37 0 -75.5 -29.5t-68.5 -80.5t-44 -112q-10 -40 -10 -79q0 -58 23.5 -92.5t65.5 -34.5q38 0 80 41z" />
    <glyph glyph-name="emptyset" unicode="&#x2205;" horiz-adv-x="685" 
d="M144 18q-34 30 -53 72.5t-19 92.5q0 30 8 65q18 78 70.5 143t126 102.5t151.5 37.5q43 0 80.5 -12t65.5 -35l113 123h41l-132 -143q27 -29 42 -67.5t15 -82.5q0 -29 -8 -66q-18 -78 -70.5 -143t-126 -102.5t-150.5 -37.5q-74 0 -130 35l-104 -112h-39zM555 463
q-56 43 -132 43q-70 0 -137 -34.5t-115.5 -94t-64.5 -129.5q-7 -28 -7 -58q0 -46 17 -85t48 -66zM440.5 25.5q66.5 34.5 114.5 93.5t64 129q7 28 7 59q0 81 -50 136l-388 -421q48 -31 116 -31q70 0 136.5 34.5z" />
    <glyph glyph-name="product" unicode="&#x220f;" horiz-adv-x="651" 
d="M238 627h-81l17 73h531l-17 -73h-75l-171 -744h-55l171 744h-265l-171 -744h-55z" />
    <glyph glyph-name="summation" unicode="&#x2211;" horiz-adv-x="573" 
d="M-3 -78h1l344 358v2l-179 357l14 61h453l-14 -61h-389l162 -331v-1h1l-12 -54h-2l-316 -331h390l-14 -61h-453z" />
    <glyph glyph-name="minus" unicode="&#x2212;" horiz-adv-x="597" 
d="M84 347h477l-8 -37h-477z" />
    <glyph glyph-name="radical" unicode="&#x221a;" horiz-adv-x="723" 
d="M75 272h101l32 -317l424 745h145l-39 -73h-101l-423 -737h-98z" />
    <glyph glyph-name="infinity" unicode="&#x221e;" horiz-adv-x="860" 
d="M501 137.5q-36 34.5 -59 96.5q-64 -62 -118 -96t-115 -34q-67 0 -101.5 36t-34.5 91q0 52 29 104.5t82 86.5t120 34q64 0 98 -32.5t55 -90.5q62 60 114.5 92t110.5 31q69 -1 105 -40t36 -98q0 -51 -26.5 -101t-76 -82t-115.5 -32q-68 0 -104 34.5zM307 201.5
q46 32.5 115 97.5q-24 67 -48.5 101.5t-68.5 34.5q-50 0 -89.5 -27.5t-61.5 -69.5t-22 -82q0 -38 21 -62.5t62 -24.5q46 0 92 32.5zM690 150.5q37 25.5 57 65t20 79.5q0 42 -23 69.5t-68 27.5q-43 0 -89.5 -32t-108.5 -92q22 -70 49 -106.5t78 -36.5q48 0 85 25.5z" />
    <glyph glyph-name="integral" unicode="&#x222b;" horiz-adv-x="556" 
d="M-21 -108q15 -4 31 -4q53 0 93 53.5t68 134t67 218.5q43 158 80 256.5t98 167t149 68.5q26 0 55 -6l-3 -14q-20 7 -39 7q-51 0 -90 -52.5t-67 -131.5t-66 -213q-47 -163 -85 -262.5t-101 -169.5t-155 -70q-19 0 -39 3z" />
    <glyph glyph-name="approxequal" unicode="&#x2248;" horiz-adv-x="599" 
d="M104 444q56 42 111 42q31 0 59 -10.5t69 -31.5q43 -21 70 -31t57 -10q55 0 110 41l-10 -42q-55 -41 -109 -41q-30 0 -57 10t-70 31t-70.5 31.5t-58.5 10.5q-55 0 -111 -42zM69 277q55 41 109 41q30 0 57 -10t70 -31t70.5 -31.5t58.5 -10.5q55 0 111 42l-10 -42
q-56 -42 -111 -42q-31 0 -59 10.5t-69 31.5q-43 21 -70 31t-57 10q-55 0 -110 -41z" />
    <glyph glyph-name="notequal" unicode="&#x2260;" horiz-adv-x="597" 
d="M260 226h-200l9 37h216l87 131h-273l8 37h289l153 228h37l-153 -228h151l-8 -37h-167l-87 -131h224l-9 -37h-240l-174 -260h-37z" />
    <glyph glyph-name="lessequal" unicode="&#x2264;" horiz-adv-x="544" 
d="M81 320l15 62l473 212l-11 -46l-442 -197l351 -198l-11 -45zM24 71h424l-9 -37h-424z" />
    <glyph glyph-name="greaterequal" unicode="&#x2265;" horiz-adv-x="544" 
d="M43 153l443 198l-352 197l11 46l375 -212l-15 -62l-473 -212zM24 71h424l-9 -37h-424z" />
    <glyph glyph-name="lozenge" unicode="&#x25ca;" horiz-adv-x="519" 
d="M80 278l235 292h63l101 -293l-235 -291h-63zM417 277l-82 242l-194 -241l82 -241z" />
    <glyph glyph-name="A.ss01" unicode="&#xe000;" horiz-adv-x="830" 
d="M157 28q-58 37 -85 98t-27 133q0 41 10 89q24 104 86.5 186.5t150.5 129t184 46.5q83 0 137.5 -33t83.5 -102l29 125h108l-162 -700h-108l31 134q-56 -68 -131.5 -105.5t-160.5 -37.5q-88 0 -146 37zM460 65.5q64 41.5 114 116.5t72 171v2q12 49 12 103q0 67 -22.5 117.5
t-62.5 78t-91 27.5q-115 0 -196 -90t-115 -236q-12 -51 -12 -107q0 -96 41.5 -160t130.5 -64q65 0 129 41.5z" />
    <glyph glyph-name="E.ss01" unicode="&#xe001;" horiz-adv-x="936" 
d="M220.5 23.5q-74.5 33.5 -114 95t-39.5 143.5q0 44 10 87q26 112 101 194t175.5 124.5t201.5 42.5q87 0 158.5 -31t114 -93t42.5 -149q0 -39 -11 -89h-667q-11 -47 -11 -95q0 -108 60.5 -172.5t166.5 -64.5q103 0 179.5 42t138.5 132l53 -25q-69 -84 -168 -129.5
t-214 -45.5q-102 0 -176.5 33.5zM749 375q7 38 7 76q0 107 -56 171t-153 64q-76 0 -146.5 -39.5t-123.5 -110.5t-78 -161h550z" />
    <glyph glyph-name="K.ss01" unicode="&#xe002;" horiz-adv-x="705" 
d="M524 -14q-61 0 -96 22t-51 54t-34 87q-17 54 -33 86.5t-47.5 56t-83.5 25.5l-73 -317h-108l161 700h108l-77 -334l484 334h43l-505 -349q95 -3 148 -36t75 -76.5t40 -111.5q13 -49 24 -74.5t24.5 -37t35.5 -11.5q16 0 33 4l-3 -16q-36 -6 -65 -6z" />
    <glyph glyph-name="M.ss01" unicode="&#xe003;" horiz-adv-x="1124" 
d="M157 700h108l-36 -154q53 78 130 121.5t148 43.5q49 0 85 -21t53 -62q11 -28 11 -63q0 -7 -2 -29q53 83 131.5 129t152.5 46q49 0 85 -21t53 -62q10 -24 10 -60q0 -42 -18 -123l-103 -445h-108l104 452q20 87 20 126q0 17 -3 27q-11 34 -33.5 50.5t-52.5 16.5
q-47 0 -103 -38t-101.5 -103t-63.5 -142l-90 -389h-108l104 452q20 87 20 126q0 17 -3 27q-11 34 -33.5 50.5t-52.5 16.5q-47 0 -103 -38t-101.5 -103t-63.5 -142l-90 -389h-108z" />
    <glyph glyph-name="N.ss01" unicode="&#xe004;" horiz-adv-x="743" 
d="M157 700h108l-35 -151q56 73 135.5 117.5t164.5 44.5q60 0 104 -26t58 -75q7 -25 7 -61q0 -49 -16 -122l-99 -427h-108l100 434q19 84 19 122q0 13 -4 31q-10 44 -37.5 66t-66.5 22q-61 0 -122.5 -40.5t-107.5 -106t-63 -134.5l-91 -394h-108z" />
    <glyph glyph-name="Q.ss01" unicode="&#xe005;" horiz-adv-x="952" 
d="M528 6q-61 -16 -125 -16q-89 0 -163 31.5t-118 94t-44 149.5q0 41 10 84q26 112 101.5 194t177 124.5t203.5 42.5q89 0 163.5 -32.5t118.5 -95t44 -149.5q0 -41 -10 -84q-28 -120 -111.5 -204t-196.5 -124l196 -61l-38 -67zM568 59.5q75 42.5 129 118t76 171.5
q12 51 12 96q0 71 -27 124.5t-77 83.5t-117 30q-81 0 -156.5 -43t-130 -119.5t-76.5 -171.5q-12 -51 -12 -97q0 -107 59 -171t162 -64q83 0 158 42.5z" />
    <glyph glyph-name="R.ss01" unicode="&#xe006;" horiz-adv-x="749" 
d="M547 -14q-58 0 -88 20t-40 50t-17 80q-7 53 -17.5 84.5t-39.5 54.5t-85 25h-85l-69 -300h-108l161 700h306q119 0 183.5 -41t64.5 -115q0 -25 -5 -44q-20 -88 -100.5 -140.5t-204.5 -58.5q52 -19 78.5 -50.5t35 -64.5t13.5 -82q5 -60 16 -81.5t38 -21.5q17 0 34 4l-2 -13
q-39 -6 -69 -6zM379 324q90 0 142.5 42.5t73.5 133.5q8 38 8 64q0 58 -35 85t-108 27h-198l-81 -352h198z" />
    <glyph glyph-name="T_h" unicode="&#xe007;" horiz-adv-x="1151" 
d="M390 673h-256l6 27h688l-82 -356q47 54 103 85t119 31q72 0 106.5 -30.5t34.5 -93.5q0 -33 -11 -83l-59 -253h-104l59 253q14 62 14 97q0 41 -16.5 59.5t-50.5 18.5q-37 0 -82 -24.5t-84 -72.5t-59 -116l-50 -215h-104l156 673h-224l-156 -673h-104z" />
    <glyph glyph-name="c_b" unicode="&#xe008;" horiz-adv-x="1190" 
d="M686 57l-13 -57h-104l128 555q5 19 5 42q0 41 -21.5 63t-54.5 22q-40 0 -77 -32t-50 -87q-5 -25 -5 -43q0 -62 18.5 -97.5t19.5 -37.5l13 -27l-71 -34q-3 57 -31 84.5t-82 27.5q-68 0 -123 -56t-76 -146q-10 -48 -10 -78q0 -64 30.5 -99t87.5 -35q53 0 94 27t76 84
l46 -25q-44 -54 -106 -85t-134 -31q-93 0 -148.5 48.5t-55.5 129.5q0 23 7 56q16 68 61 121t110 83t138 30q52 0 88 -15q-7 31 -7 61q0 27 6 51q16 72 75 113t129 41q55 0 100 -26t65 -76l-50 -217q35 32 80 50.5t94 18.5q86 0 134.5 -45.5t48.5 -124.5q0 -29 -8 -66
q-14 -60 -52 -114t-97 -87.5t-133 -33.5q-102 0 -145 67zM899.5 51q38.5 30 66 78t39.5 101q10 45 10 78q0 57 -23.5 92t-72.5 35q-28 0 -66 -19t-73.5 -64t-52.5 -118l-5 -23q-7 -32 -7 -64q0 -58 27.5 -92t75.5 -34q43 0 81.5 30z" />
    <glyph glyph-name="c_h" unicode="&#xe009;" horiz-adv-x="1157" 
d="M97.5 40.5q-55.5 48.5 -55.5 129.5q0 28 7 56q16 68 61 121t110 83t138 30q49 0 88 -15q-8 29 -8 61q0 24 6 51q16 72 75 113t130 41q54 0 99 -26t65 -76l-61 -265q102 116 223 116q71 0 105.5 -30t34.5 -93q0 -34 -11 -84l-58 -253h-104l58 253q14 62 14 99q0 40 -16 58
t-50 18q-37 0 -82 -24.5t-84 -72.5t-59 -116l-50 -215h-104l128 555q5 25 5 41q0 42 -21.5 64t-54.5 22q-40 0 -77 -32t-50 -87q-5 -25 -5 -43q0 -62 18.5 -97.5t19.5 -37.5l13 -27l-8 -4l-28 -13l-16 -8l-19 -9q-3 57 -31 84.5t-82 27.5q-68 0 -123 -56t-76 -146
q-10 -41 -10 -79q0 -63 30.5 -98t87.5 -35q53 0 94 27t76 84l46 -25q-44 -54 -106 -85t-134 -31q-93 0 -148.5 48.5z" />
    <glyph glyph-name="c_k" unicode="&#xe00a;" horiz-adv-x="1153" 
d="M97.5 40.5q-55.5 48.5 -55.5 129.5q0 28 7 56q16 68 61 121t110 83t138 30q49 0 88 -15q-8 29 -8 61q0 24 6 51q16 72 75 113t130 41q54 0 99 -26t65 -76l-101 -438l378 279h41l-276 -204l177 -246h-130l-133 184l-65 -49l-31 -135h-104l128 555q5 25 5 41q0 42 -21.5 64
t-54.5 22q-40 0 -77 -32t-50 -87q-5 -25 -5 -43q0 -62 18.5 -97.5t19.5 -37.5l13 -27l-8 -4l-28 -13l-16 -8l-19 -9q-3 57 -31 84.5t-82 27.5q-68 0 -123 -56t-76 -146q-10 -41 -10 -79q0 -63 30.5 -98t87.5 -35q53 0 94 27t76 84l46 -25q-44 -54 -106 -85t-134 -31
q-93 0 -148.5 48.5z" />
    <glyph glyph-name="c_l" unicode="&#xe00b;" horiz-adv-x="833" 
d="M97.5 40.5q-55.5 48.5 -55.5 129.5q0 28 7 56q16 68 61 121t110 83t138 30q49 0 88 -15q-8 29 -8 61q0 24 6 51q11 49 43.5 83.5t76.5 52.5t91 18q56 0 102 -26t66 -76l-140 -609h-104l128 555q5 23 5 39q0 42 -23 65t-58 23q-43 0 -81 -31.5t-51 -87.5q-5 -25 -5 -43
q0 -62 18.5 -97.5t19.5 -37.5l13 -27l-8 -4l-28 -13l-16 -8l-19 -9q-3 57 -31 84.5t-82 27.5q-68 0 -123 -56t-76 -146q-10 -41 -10 -79q0 -63 30.5 -98t87.5 -35q53 0 94 27t76 84l46 -25q-44 -54 -106 -85t-134 -31q-93 0 -148.5 48.5z" />
    <glyph glyph-name="c_t" unicode="&#xe00c;" horiz-adv-x="902" 
d="M616.5 5.5q-19.5 16.5 -19.5 53.5q0 23 8 58l71 306h-51l6 27h51l24 105q5 25 5 40q0 42 -23 64.5t-58 22.5q-42 0 -80 -32t-51 -87q-5 -25 -5 -43q0 -62 18.5 -97.5t19.5 -37.5l13 -27l-8 -4l-28 -13l-16 -8l-19 -9q-4 112 -113 112q-68 0 -123 -56t-76 -146
q-10 -48 -10 -78q0 -64 30.5 -99t87.5 -35q53 0 94.5 27.5t75.5 83.5l46 -25q-44 -54 -106 -85t-134 -31q-93 0 -148.5 48.5t-55.5 129.5q0 23 7 56q16 68 61 121t110 83t138 30q49 0 88 -15q-7 32 -7 59q0 26 6 53q16 72 76.5 113t133.5 41q56 0 102 -26t66 -76l-37 -159
h109l-6 -27h-109l-58 -252l-11 -45q-7 -28 -12.5 -52t-5.5 -37q0 -22 18 -22q14 0 34.5 11t41.5 33l13 -13q-25 -26 -57.5 -41.5t-63.5 -15.5q-43 0 -62.5 16.5z" />
    <glyph glyph-name="f_b" unicode="&#xe00d;" horiz-adv-x="873" 
d="M369 57l-13 -57h-104l135 584q4 16 4 34q0 28 -12.5 43.5t-35.5 15.5q-36 0 -68.5 -27.5t-52.5 -71t-20 -88.5q0 -23 4 -40h104l-6 -27h-105l-98 -423h-104l98 423h-51l6 27h51l8 34q24 104 94.5 165t165.5 61q44 0 81.5 -14.5t57.5 -38.5l-61 -265q35 32 80 50.5
t94 18.5q86 0 134.5 -45.5t48.5 -124.5q0 -29 -8 -66q-14 -60 -52 -114t-97 -87.5t-133 -33.5q-102 0 -145 67zM582.5 51q38.5 30 66 78t39.5 101q10 45 10 78q0 57 -23.5 92t-72.5 35q-27 0 -65 -19t-74 -64t-53 -118l-5 -23q-8 -31 -8 -64q0 -58 29 -92t75 -34
q43 0 81.5 30z" />
    <glyph glyph-name="f_h" unicode="&#xe010;" horiz-adv-x="840" 
d="M95 423h-51l6 27h51l8 34q24 104 94.5 165t165.5 61q43 0 81 -13.5t58 -36.5l-73 -316q102 116 223 116q71 0 105.5 -30t34.5 -93q0 -34 -11 -84l-58 -253h-104l58 253q15 62 15 99q0 39 -16.5 57.5t-50.5 18.5q-37 0 -82 -24.5t-84 -72.5t-59 -116l-50 -215h-104
l131 566q6 27 6 49q0 30 -11.5 46t-34.5 16q-36 0 -68.5 -27.5t-52.5 -71t-20 -88.5q0 -23 4 -40h104l-6 -27h-105l-98 -423h-104z" />
    <glyph glyph-name="f_j" unicode="&#xe012;" horiz-adv-x="522" 
d="M131 -206l12 -1q29 0 50 19.5t38 65t36 126.5l97 419h-165l-98 -423h-104l98 423h-51l6 27h51l10 42q24 103 90.5 163.5t158.5 60.5q59 0 105 -30t53 -72q1 -4 1 -12q0 -6 -1 -9q-5 -22 -27.5 -37.5t-48.5 -15.5q-25 0 -40 14.5t-13 34.5q4 17 4 34q0 29 -13.5 45
t-39.5 16q-44 0 -81.5 -39.5t-51.5 -100.5q-6 -27 -6 -54q0 -22 5 -40h268l-115 -500q-15 -63 -38 -98.5t-61.5 -51.5t-100.5 -16q-19 0 -30 1z" />
    <glyph glyph-name="f_k" unicode="&#xe013;" horiz-adv-x="837" 
d="M95 423h-51l6 27h51l8 34q24 104 94.5 165t165.5 61q43 0 81 -13.5t58 -36.5l-112 -489l377 279h41l-276 -204l177 -246h-130l-132 184l-66 -49l-31 -135h-104l131 566q6 27 6 49q0 30 -11.5 46t-34.5 16q-36 0 -68.5 -27.5t-52.5 -71t-20 -88.5q0 -23 4 -40h104l-6 -27
h-105l-98 -423h-104z" />
    <glyph glyph-name="f_t" unicode="&#xe015;" horiz-adv-x="576" 
d="M290.5 5.5q-19.5 16.5 -19.5 53.5q0 23 8 58l71 306h-151l-98 -423h-104l98 423h-51l6 27h51l8 34q24 104 94.5 165t165.5 61q44 0 81.5 -14.5t57.5 -38.5l-48 -207h109l-6 -27h-109l-58 -252l-11 -45q-7 -28 -12.5 -52t-5.5 -37q0 -22 18 -22q14 0 34.5 11t41.5 33
l13 -13q-25 -26 -57.5 -41.5t-63.5 -15.5q-43 0 -62.5 16.5zM356 450l31 134q4 17 4 35q0 27 -12.5 42.5t-34.5 15.5q-36 0 -69 -28t-53 -72t-20 -89q0 -22 4 -38h150z" />
    <glyph glyph-name="s_b" unicode="&#xe016;" horiz-adv-x="1162" 
d="M78.5 17q-53.5 27 -60.5 68l73 12q-1 -38 33 -59t94 -21t99 21.5t47 64.5q1 4 1 11q0 24 -27 39t-94 26q-81 14 -128 38.5t-47 79.5q0 13 3 28q10 42 49.5 72.5t95 46.5t111.5 16q48 0 94 -12q-7 28 -7 58q0 26 6 51q11 48 42.5 83t75 53t88.5 18q55 0 98.5 -26t60.5 -76
l-50 -217q35 32 80 50.5t94 18.5q86 0 134.5 -45.5t48.5 -124.5q0 -29 -8 -66q-14 -60 -52 -114t-97 -87.5t-133 -33.5q-102 0 -145 67l-13 -57h-104l128 555q5 20 5 42q0 41 -21 63t-53 22q-40 0 -76 -32t-49 -87q-4 -16 -4 -38q0 -51 29 -115l3 -8q13 -32 13 -37l-71 -12
q0 39 -31.5 60.5t-87.5 21.5q-62 0 -102 -26t-46 -68l-1 -8q0 -27 27.5 -40t86.5 -24q56 -10 90.5 -20t59.5 -32t25 -60q0 -16 -4 -32q-16 -63 -90 -99t-162 -36q-78 0 -131.5 27zM871.5 51q38.5 30 66 78t39.5 101q10 45 10 78q0 57 -23.5 92t-72.5 35q-28 0 -66 -19
t-73.5 -64t-52.5 -118l-5 -23q-7 -32 -7 -64q0 -58 27.5 -92t75.5 -34q43 0 81.5 30z" />
    <glyph glyph-name="s_h" unicode="&#xe017;" horiz-adv-x="1130" 
d="M78.5 17q-53.5 27 -60.5 68l73 12q-1 -38 33 -59t94 -21t99 21.5t47 64.5q1 4 1 11q0 24 -27 39t-94 26q-81 14 -128 38.5t-47 79.5q0 13 3 28q10 42 49.5 72.5t95 46.5t111.5 16q54 0 93 -13q-6 27 -6 57q0 31 6 53q11 48 42.5 83t75 53t88.5 18q55 0 98.5 -26t60.5 -76
l-61 -265q47 54 103 85t119 31q72 0 106.5 -30.5t34.5 -93.5q0 -33 -11 -83l-59 -253h-104l59 253q14 62 14 97q0 41 -16.5 59.5t-50.5 18.5q-37 0 -82 -24.5t-84 -72.5t-59 -116l-50 -215h-104l128 555q5 20 5 42q0 41 -21 63t-53 22q-40 0 -76 -32t-49 -87q-4 -17 -4 -39
q0 -49 28 -114q1 -3 5 -11t4 -12q6 -9 8 -22l-71 -12q0 39 -31.5 60.5t-87.5 21.5q-62 0 -102 -26t-46 -68l-1 -8q0 -27 27.5 -40t86.5 -24q56 -10 90.5 -20t59.5 -32t25 -60q0 -16 -4 -32q-16 -63 -90 -99t-162 -36q-78 0 -131.5 27z" />
    <glyph glyph-name="s_k" unicode="&#xe018;" horiz-adv-x="1125" 
d="M78.5 17q-53.5 27 -60.5 68l73 12q-1 -38 33 -59t94 -21t99 21.5t47 64.5q1 4 1 11q0 24 -27 39t-94 26q-81 14 -128 38.5t-47 79.5q0 13 3 28q10 42 49.5 72.5t95 46.5t111.5 16q54 0 93 -13q-6 27 -6 57q0 31 6 53q11 48 42.5 83t75 53t88.5 18q55 0 98.5 -26t60.5 -76
l-101 -438l377 279h41l-276 -204l177 -246h-130l-132 184l-66 -49l-31 -135h-104l128 555q5 20 5 42q0 41 -21 63t-53 22q-40 0 -76 -32t-49 -87q-4 -17 -4 -39q0 -49 28 -114q1 -3 5 -11t4 -12q6 -9 8 -22l-71 -12q0 39 -31.5 60.5t-87.5 21.5q-62 0 -102 -26t-46 -68
l-1 -8q0 -27 27.5 -40t86.5 -24q56 -10 90.5 -20t59.5 -32t25 -60q0 -16 -4 -32q-16 -63 -90 -99t-162 -36q-78 0 -131.5 27z" />
    <glyph glyph-name="s_l" unicode="&#xe019;" horiz-adv-x="815" 
d="M78.5 17q-53.5 27 -60.5 68l73 12q-1 -38 33 -59t94 -21t99 21.5t47 64.5q1 4 1 11q0 24 -27 39t-94 26q-81 14 -128 38.5t-47 79.5q0 13 3 28q10 42 49.5 72.5t95 46.5t111.5 16q48 0 94 -12q-7 28 -7 58q0 26 6 51q11 48 43.5 83t77 53t91.5 18q57 0 101.5 -26
t61.5 -76l-141 -609h-104l128 555q5 25 5 41q0 42 -22.5 64t-56.5 22q-41 0 -79 -32t-51 -87q-4 -16 -4 -38q0 -51 29 -115l3 -8q13 -32 13 -37l-71 -12q0 39 -31.5 60.5t-87.5 21.5q-62 0 -102 -26t-46 -68l-1 -8q0 -27 27.5 -40t86.5 -24q56 -10 90.5 -20t59.5 -32t25 -60
q0 -16 -4 -32q-16 -63 -90 -99t-162 -36q-78 0 -131.5 27z" />
    <glyph glyph-name="s_t" unicode="&#xe01a;" horiz-adv-x="878" 
d="M592.5 5.5q-19.5 16.5 -19.5 53.5q0 23 8 58l71 306h-51l6 27h51l24 105q5 25 5 40q0 42 -23 64.5t-58 22.5q-42 0 -80 -32t-51 -87q-4 -16 -4 -38q0 -51 29 -115l3 -8q13 -32 13 -37l-71 -12q0 39 -31.5 60.5t-87.5 21.5q-62 0 -102 -26t-46 -68l-1 -8q0 -27 27.5 -40
t86.5 -24q56 -10 90.5 -20t59.5 -32t25 -60q0 -16 -4 -32q-11 -43 -49.5 -73.5t-92.5 -46t-110 -15.5q-78 0 -131.5 27t-60.5 68l73 12q-1 -38 33 -59t94 -21t99 21.5t47 64.5q1 4 1 11q0 24 -27 39t-93 26q-81 14 -128.5 38.5t-47.5 79.5q0 13 3 28q10 42 49.5 72.5
t95 46.5t111.5 16q48 0 94 -12q-7 28 -7 58q0 26 6 51q16 72 76.5 113t133.5 41q56 0 102 -26t66 -76l-37 -159h109l-6 -27h-109l-58 -252l-11 -45q-7 -28 -12.5 -52t-5.5 -37q0 -22 18 -22q14 0 34.5 11t41.5 33l13 -13q-25 -26 -57.5 -41.5t-63.5 -15.5q-43 0 -62.5 16.5z
" />
    <glyph glyph-name="t_t" unicode="&#xe01b;" horiz-adv-x="606" 
d="M37.5 5.5q-19.5 16.5 -19.5 53.5q0 21 8 58l70 306h-51l7 27h51l36 157l113 38l-45 -195h179l52 227l113 38l-61 -265h109l-7 -27h-109l-58 -252l-14 -57q-2 -8 -8.5 -35.5t-6.5 -41.5q0 -22 19 -22q14 0 34 11t41 33l13 -13q-25 -26 -57.5 -41.5t-63.5 -15.5
q-42 0 -61.5 16.5t-19.5 53.5q0 21 8 58l70 306h-179l-58 -252l-14 -57q-2 -8 -8.5 -35.5t-6.5 -41.5q0 -22 19 -22q14 0 34 11t41 33l13 -13q-25 -26 -57.5 -41.5t-63.5 -15.5q-42 0 -61.5 16.5z" />
    <glyph glyph-name="zero.dnom" unicode="&#xe01c;" horiz-adv-x="550" 
d="M109 -77q-39 47 -39 126q0 42 10 83q17 75 55.5 134t90.5 92t108 33q68 0 107 -48t39 -127q0 -41 -10 -84q-17 -74 -55.5 -132t-90.5 -91t-108 -33q-68 0 -107 47zM314 -44q45 65 71 176q16 67 16 122q0 58 -18 90.5t-52 32.5q-49 0 -95 -67t-71 -178q-16 -68 -16 -122
q0 -57 18 -88t52 -31q50 0 95 65z" />
    <glyph glyph-name="one.dnom" unicode="&#xe01d;" horiz-adv-x="240" 
d="M122 325l99 80l-122 -527h-80z" />
    <glyph glyph-name="two.dnom" unicode="&#xe01e;" horiz-adv-x="482" 
d="M51 -95q107 84 191 169t103 171q6 26 6 45q0 37 -17.5 57t-49.5 20q-43 0 -77 -30t-53 -85l-41 13q27 50 78.5 87t121.5 37q55 0 87 -28.5t32 -76.5q0 -17 -4 -33q-12 -49 -51.5 -98t-89.5 -91.5t-134 -106.5l-20 -15h224l-14 -59h-322z" />
    <glyph glyph-name="three.dnom" unicode="&#xe01f;" horiz-adv-x="505" 
d="M87.5 -101.5q-36.5 20.5 -49.5 55.5l45 27q8 -86 84 -86q53 0 95 38t56 100q6 26 6 47q0 36 -17 55t-50 19q-11 0 -22 -1t-20 -2l2 14q42 0 73.5 34t40.5 75q4 19 4 37q0 14 -2 26q-5 21 -17.5 31.5t-35.5 10.5q-41 0 -70.5 -28.5t-42.5 -80.5l-45 13q26 53 72.5 83
t102.5 30q54 0 86 -24t32 -65q0 -12 -3 -24q-16 -71 -108 -110q47 -5 74.5 -32.5t27.5 -68.5q0 -14 -3 -29q-17 -74 -80 -119.5t-150 -45.5q-49 0 -85.5 20.5z" />
    <glyph glyph-name="four.dnom" unicode="&#xe020;" horiz-adv-x="448" 
d="M262 25h-208l28 32l282 333h63l-118 -508h-80zM266 42l59 254l-218 -254h159z" />
    <glyph glyph-name="five.dnom" unicode="&#xe021;" horiz-adv-x="497" 
d="M82 -100q-35 21 -43 54l48 25q0 -43 21 -64.5t55 -21.5q53 0 100 50q16 16 29 42t19 54q6 24 6 46q0 46 -24.5 73.5t-67.5 27.5q-54 0 -131 -49l58 249h313l-14 -59h-271l-33 -142q54 23 104 23q67 0 109.5 -35t42.5 -89q0 -11 -4 -31q-17 -67 -79 -120
q-28 -24 -70.5 -39t-83.5 -15q-49 0 -84 21z" />
    <glyph glyph-name="six.dnom" unicode="&#xe022;" horiz-adv-x="509" 
d="M97.5 -76.5q-34.5 43.5 -34.5 109.5q0 30 8 64q21 90 79 159.5t126 106t116 33.5l-3 -9q-31 3 -69 -24t-74.5 -75.5t-61.5 -105.5q56 32 107 32q57 0 91 -32t34 -84q0 -16 -5 -39q-10 -40 -39 -82t-73 -69.5t-96 -27.5q-71 0 -105.5 43.5zM280 -59q36 47 52 117
q6 29 6 54q0 40 -15.5 64t-42.5 24q-28 0 -59 -21.5t-60 -60.5q-4 -14 -5 -21q-11 -45 -11 -91q0 -51 16.5 -81.5t45.5 -30.5q37 0 73 47z" />
    <glyph glyph-name="seven.dnom" unicode="&#xe023;" horiz-adv-x="472" 
d="M185.5 82q69.5 103 180.5 246h-242l14 59h312q-98 -124 -171 -253.5t-105 -246.5h-93q35 92 104.5 195z" />
    <glyph glyph-name="eight.dnom" unicode="&#xe024;" horiz-adv-x="499" 
d="M96 77.5q39 40.5 102 75.5q-61 59 -61 107q0 6 2 18q13 56 65 87t112 31q48 0 79.5 -20.5t31.5 -58.5q0 -39 -34 -77.5t-97 -72.5q47 -42 71 -74t24 -66q0 -7 -2 -19q-13 -59 -73.5 -92t-131.5 -33q-59 0 -99.5 23.5t-40.5 66.5q0 10 3 22q10 42 49 82.5zM351 233
q25 27 33 62q3 12 3 22q0 31 -21 48t-51 17q-35 0 -65.5 -22t-39.5 -62q-2 -12 -2 -16q0 -27 18 -49t54 -52q46 25 71 52zM319 3q0 26 -18.5 49.5t-53.5 54.5l-15 14l-19 17q-49 -28 -80 -64t-42 -77q-3 -12 -3 -22q0 -35 28.5 -54.5t70.5 -19.5q45 0 83 23t47 64q2 10 2 15
z" />
    <glyph glyph-name="nine.dnom" unicode="&#xe025;" horiz-adv-x="509" 
d="M120 -107q31 -3 69 24t74.5 75.5t61.5 105.5q-56 -32 -107 -32q-57 0 -91 32t-34 84q0 16 5 39q10 40 39 82t73 69.5t96 27.5q71 0 105.5 -43.5t34.5 -109.5q0 -30 -8 -64q-21 -90 -79 -159.5t-126 -106t-116 -33.5zM288 101.5q31 21.5 60 60.5q4 14 5 21q11 45 11 91
q0 51 -16.5 81.5t-45.5 30.5q-37 0 -73 -47t-52 -117q-6 -28 -6 -54q0 -40 15.5 -64t42.5 -24q28 0 59 21.5z" />
    <glyph glyph-name="zero.numr" unicode="&#xe026;" horiz-adv-x="550" 
d="M109 373q-39 47 -39 126q0 42 10 83q17 75 55.5 134t90.5 92t108 33q68 0 107 -48t39 -127q0 -41 -10 -84q-17 -74 -55.5 -132t-90.5 -91t-108 -33q-68 0 -107 47zM314 406q45 65 71 176q16 67 16 122q0 58 -18 90.5t-52 32.5q-49 0 -95 -67t-71 -178q-16 -68 -16 -122
q0 -57 18 -88t52 -31q50 0 95 65z" />
    <glyph glyph-name="one.numr" unicode="&#xe027;" horiz-adv-x="240" 
d="M122 781l99 80l-122 -527h-80z" />
    <glyph glyph-name="two.numr" unicode="&#xe028;" horiz-adv-x="482" 
d="M51 365q107 84 191 169t103 171q6 26 6 45q0 37 -17.5 57t-49.5 20q-43 0 -77 -30t-53 -85l-41 13q27 50 78.5 87t121.5 37q55 0 87 -28.5t32 -76.5q0 -17 -4 -33q-12 -49 -51.5 -98t-89.5 -91.5t-134 -106.5l-20 -15h224l-14 -59h-322z" />
    <glyph glyph-name="three.numr" unicode="&#xe029;" horiz-adv-x="505" 
d="M87.5 349.5q-36.5 20.5 -49.5 55.5l45 27q8 -86 84 -86q53 0 95 38t56 100q6 26 6 47q0 36 -17 55t-50 19q-11 0 -22 -1t-20 -2l2 14q42 0 73.5 34t40.5 75q4 19 4 37q0 14 -2 26q-5 21 -17.5 31.5t-35.5 10.5q-41 0 -70.5 -28.5t-42.5 -80.5l-45 13q26 53 72.5 83
t102.5 30q54 0 86 -24t32 -65q0 -12 -3 -24q-16 -71 -108 -110q47 -5 74.5 -32.5t27.5 -68.5q0 -14 -3 -29q-17 -74 -80 -119.5t-150 -45.5q-49 0 -85.5 20.5z" />
    <glyph glyph-name="four.numr" unicode="&#xe02a;" horiz-adv-x="448" 
d="M262 481h-208l28 32l282 333h63l-118 -508h-80zM266 498l59 254l-218 -254h159z" />
    <glyph glyph-name="five.numr" unicode="&#xe02b;" horiz-adv-x="497" 
d="M82 353q-35 21 -43 54l48 25q0 -43 21 -64.5t55 -21.5q53 0 100 50q16 16 29 42t19 54q6 24 6 46q0 46 -24.5 73.5t-67.5 27.5q-54 0 -131 -49l58 249h313l-14 -59h-271l-33 -142q54 23 104 23q67 0 109.5 -35t42.5 -89q0 -11 -4 -31q-17 -67 -79 -120q-28 -24 -70.5 -39
t-83.5 -15q-49 0 -84 21z" />
    <glyph glyph-name="six.numr" unicode="&#xe02c;" horiz-adv-x="509" 
d="M97.5 367.5q-34.5 43.5 -34.5 109.5q0 30 8 64q21 90 79 159.5t126 106t116 33.5l-3 -9q-31 3 -69 -24t-74.5 -75.5t-61.5 -105.5q56 32 107 32q57 0 91 -32t34 -84q0 -16 -5 -39q-10 -40 -39 -82t-73 -69.5t-96 -27.5q-71 0 -105.5 43.5zM280 385q36 47 52 117
q6 29 6 54q0 40 -15.5 64t-42.5 24q-28 0 -59 -21.5t-60 -60.5q-4 -14 -5 -21q-11 -45 -11 -91q0 -51 16.5 -81.5t45.5 -30.5q37 0 73 47z" />
    <glyph glyph-name="seven.numr" unicode="&#xe02d;" horiz-adv-x="472" 
d="M185.5 526q69.5 103 180.5 246h-242l14 59h312q-98 -124 -171 -253.5t-105 -246.5h-93q35 92 104.5 195z" />
    <glyph glyph-name="eight.numr" unicode="&#xe02e;" horiz-adv-x="499" 
d="M96 514.5q39 40.5 102 75.5q-61 59 -61 107q0 6 2 18q13 56 65 87t112 31q48 0 79.5 -20.5t31.5 -58.5q0 -39 -34 -77.5t-97 -72.5q47 -42 71 -74t24 -66q0 -7 -2 -19q-13 -59 -73.5 -92t-131.5 -33q-59 0 -99.5 23.5t-40.5 66.5q0 10 3 22q10 42 49 82.5zM351 670
q25 27 33 62q3 12 3 22q0 31 -21 48t-51 17q-35 0 -65.5 -22t-39.5 -62q-2 -12 -2 -16q0 -27 18 -49t54 -52q46 25 71 52zM319 440q0 26 -18.5 49.5t-53.5 54.5l-15 14l-19 17q-49 -28 -80 -64t-42 -77q-3 -12 -3 -22q0 -35 28.5 -54.5t70.5 -19.5q45 0 83 23t47 64
q2 10 2 15z" />
    <glyph glyph-name="nine.numr" unicode="&#xe02f;" horiz-adv-x="509" 
d="M120 324q31 -3 69 24t74.5 75.5t61.5 105.5q-56 -32 -107 -32q-57 0 -91 32t-34 84q0 16 5 39q10 40 39 82t73 69.5t96 27.5q71 0 105.5 -43.5t34.5 -109.5q0 -30 -8 -64q-21 -90 -79 -159.5t-126 -106t-116 -33.5zM288 532.5q31 21.5 60 60.5q4 14 5 21q11 45 11 91
q0 51 -16.5 81.5t-45.5 30.5q-37 0 -73 -47t-52 -117q-6 -28 -6 -54q0 -40 15.5 -64t42.5 -24q28 0 59 21.5z" />
    <glyph glyph-name="ampersand.ss01" unicode="&#xe030;" horiz-adv-x="736" 
d="M132.5 11.5q-47.5 21.5 -71 58t-23.5 81.5q0 47 26 94t76.5 86.5t122.5 62.5l-77 120q8 54 46.5 99t97.5 71.5t124 26.5q83 0 127 -41t45 -120l-62 -13q3 21 3 38q0 56 -27 85.5t-78 29.5q-11 0 -17 -1q-37 -3 -71.5 -27t-58 -62.5t-29.5 -81.5l234 -368q46 74 60 183h52
q-25 -128 -92 -214l75 -119h-102l-38 58q-93 -68 -228 -68q-67 0 -114.5 21.5zM461 82l-185 290q-66 -27 -104 -85t-38 -120q0 -60 39 -101t112 -41q104 0 176 57z" />
    <glyph glyph-name="a.ss01" unicode="&#xe082;" horiz-adv-x="591" 
d="M60 16q-38 28 -38 75q0 86 100.5 133.5t309.5 61.5l1 2q6 29 6 51q0 47 -27 70t-83 23q-113 0 -155 -89l-72 8q32 48 99 78.5t142 30.5q91 0 144 -37.5t53 -102.5q0 -20 -4 -37l-66 -283h-104l14 60q-46 -33 -103.5 -52.5t-113.5 -19.5q-65 0 -103 28zM295.5 49.5
q51.5 22.5 98.5 68.5l31 138q-96 -6 -156 -21t-92.5 -43t-42.5 -73q-3 -15 -3 -27q0 -31 19 -48t54 -17q40 0 91.5 22.5z" />
    <glyph glyph-name="b.ss01" unicode="&#xe083;" horiz-adv-x="600" 
d="M75 32.5q-50 43.5 -50 127.5q0 36 11 86l105 454h104l-76 -329q39 41 85.5 65.5t95.5 24.5q84 0 132 -45.5t48 -123.5q0 -29 -8 -67q-26 -110 -105.5 -173t-194.5 -63q-97 0 -147 43.5zM344.5 82.5q50.5 61.5 70.5 145.5q9 41 9 75q0 60 -25.5 96t-69.5 36
q-40 0 -80 -30.5t-71.5 -83t-46.5 -116.5l-3 -13q-7 -35 -7 -56q0 -54 27.5 -84.5t78.5 -30.5q67 0 117.5 61.5z" />
    <glyph glyph-name="d.ss01" unicode="&#xe085;" horiz-adv-x="638" 
d="M93 35q-51 46 -51 127q0 32 7 63q16 70 57 123.5t99.5 83t126.5 29.5q49 0 84.5 -21.5t56.5 -58.5l74 319h104l-105 -454q-29 -125 -109.5 -191t-200.5 -66q-92 0 -143 46zM362 67q50 50 69 131l2 7q10 41 10 81q0 67 -27.5 108t-74.5 41q-38 0 -75 -26.5t-65 -74
t-42 -106.5q-11 -49 -11 -88q0 -57 25 -90t77 -33q62 0 112 50z" />
    <glyph glyph-name="f.ss01" unicode="&#xe087;" horiz-adv-x="283" 
d="M96 423h-51l6 27h51l8 34q24 101 73 162.5t143 61.5q26 0 57 -6l-4 -20q-22 5 -36 5q-46 0 -77.5 -30.5t-46.5 -76.5t-15 -92q0 -21 3 -38h104l-6 -27h-105l-98 -423h-104z" />
    <glyph glyph-name="g.ss01" unicode="&#xe088;" horiz-adv-x="605" 
d="M20 -225q-50 24 -50 68q0 6 2 18q8 35 38 59t79 35q-28 10 -42.5 29.5t-14.5 43.5q0 37 31.5 67.5t83.5 44.5q-46 20 -69 52t-23 70q0 46 36 92t104 76t159 30q78 0 135 -25l119 89l30 -50l-120 -56q28 -20 42.5 -46.5t14.5 -55.5q0 -46 -36.5 -92t-104.5 -76t-159 -30
q-48 0 -84 9q-35 -2 -57.5 -15t-27.5 -36q-9 -39 79 -39h136q86 0 132.5 -26.5t46.5 -75.5q0 -9 -4 -29q-18 -74 -103 -114.5t-232 -40.5q-91 0 -141 24zM401.5 188.5q49.5 41.5 63.5 100.5q4 16 4 34q0 47 -31 77.5t-90 30.5q-71 0 -120 -41t-63 -99q-4 -16 -4 -34
q0 -48 31 -79t90 -31q70 0 119.5 41.5zM408 -123q1 4 1 12q0 26 -25.5 40.5t-73.5 14.5h-141q-64 0 -102 -21.5t-46 -60.5q-2 -10 -2 -15q0 -34 38 -49.5t117 -15.5q214 0 234 95z" />
    <glyph glyph-name="k.ss01" unicode="&#xe08c;" horiz-adv-x="581" 
d="M150 700h104l-77 -331q42 43 94 67t107 24q78 0 121.5 -30t43.5 -84q0 -17 -4 -32q-27 -117 -204 -152l116 -162h-130l-106 149q-14 -1 -42 -1q-31 0 -46 1l-35 -149h-104zM352.5 208q62.5 33 78.5 102q4 17 4 38q0 38 -20.5 60t-62.5 22q-47 0 -99 -32.5t-90 -91.5
l-30 -129q20 -2 57 -2q100 0 162.5 33z" />
    <glyph glyph-name="l.ss01" unicode="&#xe08d;" horiz-adv-x="312" 
d="M9 65q0 24 7 52l135 583h104l-122 -529l-6 -24q-8 -32 -14 -62.5t-6 -46.5q0 -13 4 -18.5t13 -5.5q28 0 74 47l13 -15q-54 -57 -121 -57q-81 0 -81 76z" />
    <glyph glyph-name="p.ss01" unicode="&#xe091;" horiz-adv-x="659" 
d="M81 184q19 82 66 144.5t113 97.5t141 35q87 0 138 -48t51 -127q0 -32 -7 -61q-15 -66 -59 -120t-105 -85t-127 -31q-45 0 -81 17t-56 47l-58 -253h-104zM369.5 51q38.5 30 66 78t39.5 101q11 50 11 85q0 57 -24.5 88.5t-70.5 31.5q-42 0 -81.5 -24t-68.5 -67t-41 -96
l-1 -6q-12 -49 -12 -91q0 -62 26 -96t75 -34q43 0 81.5 30z" />
    <glyph glyph-name="q.ss01" unicode="&#xe092;" horiz-adv-x="578" 
d="M397 52q-68 -62 -165 -62q-95 0 -142.5 49.5t-47.5 126.5q0 31 7 59q16 70 59 123.5t105 83t134 29.5q96 0 145.5 -47t49.5 -138q0 -48 -13 -103l-86 -373h-104zM365.5 80.5q51.5 59.5 75.5 161.5l3 16q6 27 6 52q0 55 -28 90t-74 35q-69 0 -119 -59t-70 -146
q-9 -36 -9 -72q0 -60 25.5 -98.5t74.5 -38.5q64 0 115.5 59.5z" />
    <glyph glyph-name="u.ss01" unicode="&#xe096;" horiz-adv-x="541" 
d="M84 24.5q-41 34.5 -41 103.5q0 40 12 91l53 231h104l-53 -228q-14 -63 -14 -106q0 -15 1 -21q8 -39 30.5 -56.5t66.5 -17.5q69 0 120 48t72 136l56 245h33l-53 -230q-26 -113 -89.5 -171.5t-165.5 -58.5q-91 0 -132 34.5z" />
    <glyph glyph-name="w.ss01" unicode="&#xe098;" horiz-adv-x="831" 
d="M43 127q0 39 12 90l54 233h104l-53 -230q-15 -64 -15 -108q0 -47 17.5 -69.5t53.5 -22.5q60 0 102 51t63 139l55 240h104l-53 -230q-15 -64 -15 -108q0 -48 18 -70t55 -22q68 0 113.5 49t66.5 141l55 240h34l-53 -230q-27 -120 -87.5 -175t-155.5 -55q-68 0 -103.5 27.5
t-42.5 83.5q-32 -55 -78.5 -83t-101.5 -28q-149 0 -149 137z" />
    <glyph glyph-name="y.ss01" unicode="&#xe09a;" horiz-adv-x="511" 
d="M231 0h-51l-75 449h109l63 -378l241 378h38l-415 -648h-37z" />
    <glyph glyph-name="i.loclTRK" horiz-adv-x="242" 
d="M121 450h104l-104 -450h-104zM153 515.5q-12 11.5 -12 29.5q0 25 20.5 46t45.5 21q21 0 33 -11.5t12 -30.5q0 -27 -20 -46.5t-47 -19.5q-20 0 -32 11.5z" />
    <glyph glyph-name="t.ss01" horiz-adv-x="322" 
d="M149 -10q-64 0 -92 20.5t-28 67.5q0 29 9 69l64 276h-51l6 27h51l41 177l113 38l-50 -215h109l-6 -27h-109l-53 -228l-6 -26q-7 -28 -12 -55t-5 -46q0 -30 14.5 -45t48.5 -15q6 0 26 2l-4 -16q-50 -4 -66 -4z" />
    </font>
</defs>
</svg>
