<?xml version="1.0" standalone="no"?>
<!DOCTYPE svg PUBLIC "-//W3C//DTD SVG 1.1//EN" "http://www.w3.org/Graphics/SVG/1.1/DTD/svg11.dtd" >
<svg xmlns="http://www.w3.org/2000/svg" xmlns:xlink="http://www.w3.org/1999/xlink" version="1.1">
<metadata>
Created by FontForge 20201107 at Tue Oct  7 08:41:50 2025
 By 
HTF Requiem    1991-4 The Hoefler Type Foundry, Inc. Info: www.typography.com
</metadata>
<defs>
<font id="RequiemText-HTF-Roman" horiz-adv-x="434" >
  <font-face 
    font-family="Requiem Text-HTF-"
    font-weight="500"
    font-stretch="normal"
    units-per-em="2048"
    panose-1="0 0 0 0 0 0 0 0 0 0"
    ascent="1638"
    descent="-410"
    x-height="842"
    cap-height="1327"
    bbox="-160.227 -670.545 2778.53 1868.53"
    underline-thickness="34"
    underline-position="-288"
    unicode-range="U+0020-00FF"
  />
<missing-glyph horiz-adv-x="1024" 
 />
    <glyph glyph-name=".notdef" horiz-adv-x="1024" 
 />
    <glyph glyph-name=".null" horiz-adv-x="0" 
 />
    <glyph glyph-name="nonmarkingreturn" horiz-adv-x="682" 
 />
    <glyph glyph-name="space" unicode=" " horiz-adv-x="462" 
 />
    <glyph glyph-name="exclam" unicode="!" horiz-adv-x="514" 
d="M276 307q-1 -5 -10.5 -6t-18.5 1t-9 5q-3 441 -56 889q-3 21 42 35t91.5 13t46.5 -17q-11 -418 -86 -920zM258 -31q-36 0 -61 25.5t-25 58.5q0 35 25.5 61.5t64.5 26.5q35 0 60.5 -25.5t25.5 -58.5q0 -35 -26.5 -61.5t-63.5 -26.5z" />
    <glyph glyph-name="quotedbl" unicode="&#x22;" horiz-adv-x="655" 
d="M78 956q-7 -6 -15.5 -5.5t-14.5 7.5t-1 15l266 416q6 9 28.5 0.5t39 -25t8.5 -27.5zM295 956q-6 -7 -15.5 -5t-14 9t0.5 15l287 403q7 9 28 -0.5t36.5 -27t7.5 -25.5z" />
    <glyph glyph-name="numbersign" unicode="#" horiz-adv-x="1466" 
d="M1006 780l-11 -217l-14 -217l336 6q7 0 7 -26.5t-7 -26.5q-21 1 -56 2t-109.5 3t-123.5 3t-49 0l-31 -440q0 -6 -12 -7t-24.5 2t-12.5 9l33 432l-215 2l-219 -2l-33 -436q0 -4 -11.5 -5.5t-23.5 1t-12 8.5l33 432l-336 -4q-6 0 -6 26.5t6 26.5l338 -6l18 219l14 215
l-335 -4q-7 0 -6.5 26.5t6.5 26.5l337 -6l31 437q0 4 12 5t24.5 -1.5t12.5 -8.5l-35 -432l220 -2l219 2l28 437q0 4 13 4.5t26 -2t13 -7.5l-35 -432l334 6q8 0 8 -26.5t-8 -26.5zM752 782l-222 -2l-16 -217l-14 -217l217 -2h6.5t17 -1t25 -1.5t30 -1t33 -1.5t32.5 -1.5
t30 -1t23.5 -1t15.5 -1t4 -0.5l18 231l17 215z" />
    <glyph glyph-name="dollar" unicode="$" horiz-adv-x="937" 
d="M459 -39l-6 -94q0 -6 -13 -7t-25.5 2t-11.5 9l9 92q-157 8 -287 119q-3 2 -4 15.5t0 41t2.5 52.5t4 68t3.5 71q0 5 9.5 6.5t18.5 0t9 -4.5q9 -128 73.5 -210t178.5 -95q1 0 8 106t15.5 226.5t9.5 138.5q-132 77 -180 119q-111 95 -111 221q0 124 95.5 221.5t240.5 103.5
l6 97q0 4 13 4.5t25.5 -2t12.5 -7.5l-8 -92q118 -6 201 -57q11 -6 19.5 -64t8.5 -145q0 -5 -10 -6t-20.5 0.5t-10.5 3.5q-15 91 -67.5 144.5t-139.5 62.5q0 4 -4.5 -92.5t-9.5 -202t-6 -129.5q130 -76 177 -115q128 -105 128 -246q0 -144 -99.5 -248t-254.5 -108zM299 932
q0 -73 43.5 -125t124.5 -102l27 399q-85 -3 -140 -49.5t-55 -122.5zM496 473q91 -57 140.5 -114t49.5 -138q0 -92 -64.5 -144t-162.5 -52h4z" />
    <glyph glyph-name="percent" unicode="%" horiz-adv-x="1136" 
d="M403 575q-87 -65 -145 -65q-60 0 -110 68.5t-50 185.5q0 101 48.5 193.5t132.5 152.5q96 68 145 68q60 0 110 -69.5t50 -186.5q0 -99 -49.5 -193t-131.5 -154zM586 565l-381 -622q-5 -3 -16.5 0t-22.5 9.5t-8 10.5l389 619l383 624q3 4 16 0t23.5 -11t7.5 -11zM856 39
q-96 -68 -145 -68q-60 0 -110 69.5t-50 188.5q0 99 48 191.5t132 154.5q92 68 143 68q60 0 111 -70.5t51 -187.5q0 -99 -48.5 -191.5t-131.5 -154.5zM352 1083q-48 0 -84.5 -73.5t-36.5 -196.5q0 -101 27 -155t72 -54q47 0 84 72.5t37 195.5q0 101 -27 156t-72 55zM805 547
q-49 0 -85 -72t-36 -196q0 -103 25.5 -157t70.5 -54q49 0 86 72t37 196q0 101 -26.5 156t-71.5 55z" />
    <glyph glyph-name="ampersand" unicode="&#x26;" horiz-adv-x="1472" 
d="M1167 -27q-100 0 -173.5 51t-149.5 150q-89 -97 -182 -151t-211 -54q-40 0 -87 12t-96 38.5t-88.5 63.5t-64.5 93t-25 121q0 116 78.5 210t226.5 152q-137 118 -137 242q0 114 75 188t210 74q105 0 185.5 -63.5t80.5 -155.5q0 -144 -215 -242q95 -58 171 -143.5
t157 -202.5q137 183 137 285q0 48 -146 59q-6 0 -7 22q1 16 7 15q91 -12 261 -12q152 0 229 12q5 1 7.5 -3t2.5 -9.5t-0.5 -11t-2 -9.5t-3.5 -4q-59 -2 -96 -11t-79.5 -35t-84 -72.5t-98.5 -126.5l-99 -140q44 -63 71.5 -98.5t65.5 -74.5t75 -56.5t77 -17.5q91 0 170 47
q3 2 10.5 -4t10.5 -14t-3 -15q-52 -44 -124.5 -76.5t-135.5 -32.5zM524 1114q-133 0 -133 -145q0 -50 38.5 -105.5t129.5 -130.5q66 39 90.5 88.5t24.5 118.5q0 75 -41 124.5t-109 49.5zM438 629q-91 -34 -142.5 -102t-51.5 -154q0 -118 84 -197.5t213 -79.5q90 0 150 28.5
t120 94.5q-11 16 -48 69.5t-54 77t-53.5 69.5t-64.5 73.5t-69 61t-84 59.5z" />
    <glyph glyph-name="quotesingle" unicode="'" horiz-adv-x="464" 
d="M74 965q-6 -6 -15.5 -5t-13.5 7t2 16l297 391q7 9 27.5 -1t35.5 -28t7 -26z" />
    <glyph glyph-name="parenleft" unicode="(" horiz-adv-x="821" 
d="M897 -604q-138 64 -258 167.5t-213.5 238.5t-147 309t-53.5 362t53.5 362t147 309t213.5 238.5t258 167.5q8 3 15.5 -13.5t0.5 -20.5q-503 -349 -503 -1043q0 -693 503 -1042q7 -4 -0.5 -21t-15.5 -14z" />
    <glyph glyph-name="parenright" unicode=")" horiz-adv-x="821" 
d="M-74 -604q-8 -3 -15.5 14t-0.5 21q506 351 506 1042q0 692 -506 1043q-7 4 0.5 20.5t15.5 13.5q138 -64 258 -167.5t213.5 -238.5t147 -309t53.5 -362t-53.5 -362t-147 -309t-213.5 -238.5t-258 -167.5z" />
    <glyph glyph-name="asterisk" unicode="*" horiz-adv-x="620" 
d="M385 1026l68 -203q3 -7 -12.5 -14.5t-20.5 -1.5l-129 170l-178 -125q-8 -5 -20.5 7.5t-6.5 19.5l127 170l-178 125q-8 5 0 20t18 12l209 -63l68 203q3 9 20 5t17 -12v-209h219q9 0 11.5 -16.5t-5.5 -19.5z" />
    <glyph glyph-name="plus" unicode="+" horiz-adv-x="1232" 
d="M637 457l6 -467q0 -6 -26.5 -6t-26.5 6l6 467l-481 -6q-7 0 -7 26.5t7 26.5l481 -8l-6 469q0 6 26.5 6t26.5 -6l-6 -469l481 8q6 0 6 -26.5t-6 -26.5z" />
    <glyph glyph-name="comma" unicode="," 
d="M94 -233q-5 0 -6.5 9.5t0.5 19t4 9.5q89 0 126.5 31.5t37.5 77.5q0 25 -16.5 42.5t-55.5 37.5q-31 14 -44 29t-13 40q0 29 22 48.5t54 19.5q53 0 94 -42.5t41 -113.5q0 -89 -69 -148.5t-175 -59.5z" />
    <glyph glyph-name="hyphen" unicode="-" horiz-adv-x="821" 
d="M420 485l-260 -61q-17 0 -23.5 37.5t8.5 40.5l263 55l258 64q11 3 18.5 -16t7 -37.5t-7.5 -26.5z" />
    <glyph glyph-name="period" unicode="." 
d="M215 -31q-36 0 -60 25.5t-24 58.5q0 35 25 61.5t63 26.5q36 0 61 -25.5t25 -58.5q0 -35 -26.5 -61.5t-63.5 -26.5z" />
    <glyph glyph-name="slash" unicode="/" horiz-adv-x="708" 
d="M43 -666q-3 -5 -12 -4.5t-18 6t-7 11.5l676 2128q1 2 3 3.5t5 1.5t7 -0.5t7.5 -2l7 -3t6 -3.5t3.5 -4.5t0 -4.5z" />
    <glyph glyph-name="zero" unicode="0" horiz-adv-x="1257" 
d="M604 -31q-133 0 -244 67t-174 180t-63 245q0 139 67 258.5t190 192.5t273 73q134 0 246.5 -67t176 -179.5t63.5 -244.5q0 -140 -68 -260t-191.5 -192.5t-275.5 -72.5zM610 922q-141 0 -228 -105.5t-87 -290.5q0 -121 31 -217.5t82 -154.5t113 -88.5t128 -30.5
q142 0 230 104t88 289q0 121 -31.5 218t-83 155.5t-114 89.5t-128.5 31z" />
    <glyph glyph-name="one" unicode="1" horiz-adv-x="790" 
d="M655 -8q-57 8 -239 8q-224 0 -285 -8q-5 -2 -6 7q-2 21 6 32q32 4 45 5.5t36.5 6t32.5 9.5t24 14.5t20.5 22t12.5 31t9 43t2 56.5v516q0 36 -4 63.5t-9.5 46.5t-19 32.5t-24 21t-34.5 13t-40.5 8t-50.5 6.5q-6 0 -7 22q1 16 7 15q69 -9 285 -9q174 0 239 9q5 2 8 -7
q3 -21 -4 -30q-56 -5 -85.5 -12.5t-53.5 -27.5t-32.5 -55.5t-8.5 -95.5v-516q0 -60 8.5 -95t33 -54.5t53.5 -26.5t85 -12q6 0 5 -23q-2 -17 -9 -16z" />
    <glyph glyph-name="two" unicode="2" horiz-adv-x="1024" 
d="M907 27q-9 -35 -41 -35q-25 0 -143.5 4t-190.5 4q-299 0 -428 -8q-8 0 -15.5 23.5t-0.5 27.5q275 144 409 281t134 299q0 114 -59 178.5t-152 64.5q-71 0 -127.5 -28t-112.5 -86q-4 -4 -11.5 1t-12 13.5t-0.5 13.5q150 205 331 205q137 0 222.5 -86.5t85.5 -210.5
q0 -72 -37.5 -150.5t-100.5 -148.5t-137 -130.5t-155 -108.5h288q63 0 99 3t64.5 10t42 24t21 40t11.5 62q0 3 17.5 3.5t17.5 -3.5q4 -34 -4 -135t-15 -127z" />
    <glyph glyph-name="three" unicode="3" horiz-adv-x="870" 
d="M86 -356q-5 0 -7.5 10t-1.5 19.5t3 9.5q142 18 244 56t155 88.5t76 102.5t23 109q0 104 -108.5 170.5t-281.5 44.5q-7 -1 -14 13.5t-8 28t4 17.5q194 59 287.5 160.5t93.5 212.5q0 73 -49.5 124.5t-132.5 51.5q-63 0 -133 -38.5t-130 -96.5q-1 -2 -8 3t-12.5 13t-1.5 13
q75 97 169.5 163t184.5 66q117 0 202 -80t85 -190q0 -100 -78 -194t-231 -152q167 -14 257.5 -99t90.5 -207q0 -54 -24.5 -110.5t-78.5 -112t-131 -99t-192.5 -70.5t-251.5 -27z" />
    <glyph glyph-name="four" unicode="4" horiz-adv-x="1052" 
d="M770 74v-176q0 -59 8.5 -94.5t32.5 -55.5t54 -28t85 -13q5 0 4 -22q-2 -16 -8 -15q-79 11 -241 11q-199 0 -283 -11q-5 -2 -7 7q-1 20 5 30q31 4 45.5 6t37 7t32.5 10.5t24.5 15t20.5 22.5t13 31.5t9 42.5t2 56v178h-41q-362 0 -530 -13q-6 0 -14.5 23t-4.5 29l721 897
q5 5 20 4.5t15 -10.5v-820h246v-118q-93 0 -246 6zM604 756l-461 -570h461v570z" />
    <glyph glyph-name="five" unicode="5" horiz-adv-x="874" 
d="M616 780q-54 0 -143.5 31t-136.5 31q-43 0 -74 -45t-31 -101q0 -35 15 -59t74 -62t182 -96q262 -124 262 -350q0 -169 -154.5 -298t-441.5 -185q-5 -1 -9 8.5t-4 18.5t1 10q86 22 161.5 56t140 82t102.5 114t38 141q0 90 -49 151t-180 121q-121 55 -174.5 107.5
t-53.5 134.5q0 36 14 95t31 101q47 113 94.5 162t106.5 49q28 0 116 -27.5t146 -27.5q36 0 54 24t32 87q0 2 9.5 3t18.5 -0.5t9 -6.5q-3 -145 -42.5 -207t-113.5 -62z" />
    <glyph glyph-name="six" unicode="6" horiz-adv-x="1097" 
d="M305 434q0 -183 84 -297t209 -114q104 0 164.5 82t60.5 212q0 127 -61.5 206t-169.5 79q-55 0 -109 -33q-3 -2 -10 4.5t-12.5 14t-3.5 8.5q42 44 104 72t121 28q99 0 173.5 -50.5t109 -124.5t34.5 -156q0 -105 -60 -197t-160 -145.5t-214 -53.5q-139 0 -241.5 66.5
t-151.5 170t-49 226.5q0 102 34 207t107 212.5t178 202t258 176.5t336 136q7 2 12.5 -6.5t5.5 -17t-5 -11.5q-157 -59 -283.5 -139t-211.5 -168t-142 -188.5t-82 -200t-25 -201.5z" />
    <glyph glyph-name="seven" unicode="7" horiz-adv-x="993" 
d="M281 -350q-8 -7 -31.5 -2t-46.5 19t-17 22q229 381 629 1108h-420q-99 0 -147 -14.5t-66 -46t-22 -97.5q0 -2 -9 -2.5t-18.5 0.5t-9.5 4q-3 35 5.5 149t14.5 138q5 18 13 25.5t26 7.5q25 0 140.5 -3.5t189.5 -3.5q233 0 410 11q6 0 18 -23.5t8 -30.5
q-273 -500 -667 -1261z" />
    <glyph glyph-name="eight" unicode="8" horiz-adv-x="1069" 
d="M516 -31q-163 0 -280 96t-117 242q0 113 82 208t231 157q-56 36 -94.5 66.5t-74.5 71t-54.5 88t-18.5 103.5q0 159 114 262t282 103q139 0 237.5 -87t98.5 -212q0 -104 -62 -182t-192 -148q64 -40 107 -72.5t87 -78.5t66 -101t22 -120q0 -168 -122 -282t-312 -114z
M549 1305q-95 0 -153 -59t-58 -154q0 -43 15.5 -83t37.5 -69t61.5 -61.5t71 -53t82.5 -51.5q170 106 170 283q0 108 -64 178t-163 70zM498 633q-112 -56 -167 -133.5t-55 -192.5q0 -87 41 -151.5t99.5 -93.5t124.5 -29q124 0 196 68.5t72 174.5q0 29 -6.5 56.5t-14 48.5
t-27 46t-30.5 39.5t-41 38t-42 33.5t-49.5 33.5t-48 30t-52.5 31.5z" />
    <glyph glyph-name="nine" unicode="9" horiz-adv-x="1118" 
d="M147 -354q-7 -2 -12.5 6t-5.5 17.5t6 11.5q157 59 277 136t195.5 160t123 181t66 191t18.5 198q0 183 -82 284t-205 101q-115 0 -175 -85.5t-60 -225.5q0 -125 65.5 -201t173.5 -76q62 0 107 25q7 4 14.5 -1.5t10 -13t-1.5 -12.5q-41 -43 -103 -70.5t-119 -27.5
q-76 0 -139 29t-102 76.5t-60.5 105.5t-21.5 118q0 165 126 288.5t312 123.5q102 0 186.5 -36t139.5 -98t85.5 -143t30.5 -171q0 -103 -27.5 -202.5t-91 -201.5t-159.5 -189.5t-242.5 -165.5t-329.5 -132z" />
    <glyph glyph-name="colon" unicode=":" 
d="M215 584q-36 0 -60 24.5t-24 57.5q0 35 25 61.5t63 26.5q36 0 61 -25.5t25 -58.5q0 -34 -26 -60t-64 -26zM215 -35q-36 0 -60 25.5t-24 58.5q0 35 25 61.5t63 26.5q36 0 61 -25.5t25 -58.5q0 -35 -26.5 -61.5t-63.5 -26.5z" />
    <glyph glyph-name="semicolon" unicode=";" 
d="M215 584q-36 0 -60 24.5t-24 57.5q0 35 25.5 61.5t62.5 26.5q36 0 61 -25.5t25 -58.5q0 -35 -25.5 -60.5t-64.5 -25.5zM94 -233q-5 0 -6.5 9.5t0.5 19t4 9.5q89 0 126.5 31.5t37.5 77.5q0 25 -16.5 42.5t-55.5 37.5q-31 14 -44 29t-13 40q0 29 22 48.5t54 19.5
q53 0 94 -42.5t41 -113.5q0 -89 -69 -148.5t-175 -59.5z" />
    <glyph glyph-name="less" unicode="&#x3c;" horiz-adv-x="1708" 
d="M1477 322q-41 0 -68 24.5t-27 63.5q0 34 21.5 56.5t50.5 22.5q34 0 57 -20q15 24 15 49q0 47 -40 80t-106 33q-60 0 -116 -47t-99 -140q213 -131 213 -389q0 -118 -53 -191t-135 -73q-46 0 -91.5 28t-64.5 66q-3 5 4.5 11t16.5 9t10 1q23 -32 62 -13q54 25 75 123
q10 46 10 103q0 128 -83 222t-205 144q88 -114 88 -268q0 -101 -57 -161t-132 -60q-22 0 -46 7t-32 7q-32 0 -32 -39q0 -29 43 -69q6 -6 -7.5 -20t-19.5 -11q-190 87 -190 264q0 85 52 172t152 162l-6 10q-40 -3 -87 -33.5t-83.5 -65.5t-82 -64t-81.5 -29q-31 0 -55.5 15
t-40 37t-29.5 43.5t-32.5 36.5t-40.5 15q-29 0 -49.5 -23.5t-20.5 -64.5q0 -29 4 -45q2 -5 -8 -9.5t-19.5 -4.5t-11.5 2q-30 67 -30 133q0 94 55 178t141.5 133t177.5 49q87 0 174 -49t140 -141l8 6q-8 43 -31 85.5t-49 77t-50.5 70t-41 79t-16.5 89.5q0 89 49 148t135 59
q43 0 95 -23t89 -61q5 -8 -8 -21t-18 -9q-26 15 -47 4.5t-21 -39.5q0 -20 24 -37t57.5 -34t67.5 -39.5t58 -62t24 -91.5q0 -81 -46.5 -156t-108.5 -100q102 -23 194 -68q44 129 121 202.5t166 73.5q92 0 154.5 -67.5t62.5 -161.5q0 -87 -43 -140.5t-106 -53.5z" />
    <glyph glyph-name="equal" unicode="=" horiz-adv-x="1335" 
d="M668 614l-553 -6q-6 0 -6 27t6 27l553 -9l551 9q6 0 6 -27t-6 -27zM668 301l-553 -6q-7 0 -6.5 26.5t6.5 26.5l553 -8l551 8q6 0 6.5 -26.5t-6.5 -26.5z" />
    <glyph glyph-name="greater" unicode="&#x3e;" horiz-adv-x="1708" 
d="M1608 289q-2 -2 -11.5 -2t-19.5 4.5t-8 9.5q6 24 6 45q0 41 -21 64.5t-51 23.5q-22 0 -40.5 -15t-32.5 -37t-29.5 -43.5t-40 -36.5t-55.5 -15q-36 0 -81.5 29t-82 64t-83.5 65.5t-87 33.5l-6 -10q100 -76 153 -163t53 -171q0 -175 -194 -264q-6 -3 -18.5 11t-6.5 20
q45 42 45 69q0 19 -9.5 29t-24.5 10q-8 0 -32 -7t-46 -7q-75 0 -131 60t-56 161q0 156 86 268q-122 -50 -204 -144t-82 -222q0 -154 62 -212q36 -34 69 -13q7 5 12 12q1 2 10.5 -1t17.5 -9t5 -11q-19 -38 -64.5 -66t-91.5 -28q-82 0 -134 73t-52 191q0 259 211 389
q-43 93 -99 140t-118 47q-64 0 -103 -33t-39 -80q0 -28 13 -49q23 20 57 20q29 0 51.5 -22.5t22.5 -56.5q0 -39 -28 -63.5t-69 -24.5q-63 0 -105 53.5t-42 140.5q0 94 61.5 161.5t153.5 67.5q89 0 166 -73.5t121 -202.5q92 45 194 68q-61 25 -107 99.5t-46 156.5
q0 52 24 91.5t57.5 62t67.5 39.5t58 34t24 37q0 29 -22 39.5t-48 -4.5q-5 -4 -18 9t-8 21q37 38 89 61t95 23q86 0 136.5 -59.5t50.5 -147.5q0 -46 -16.5 -89.5t-42 -79t-51.5 -70t-49.5 -77t-31.5 -85.5l8 -8q53 93 139.5 142.5t174.5 49.5q91 0 178 -49t142.5 -133
t55.5 -178q0 -61 -32 -133z" />
    <glyph glyph-name="question" unicode="?" horiz-adv-x="739" 
d="M414 555q-170 -68 -170 -168q0 -33 12 -65q1 -4 -7.5 -10.5t-17 -8.5t-10.5 2q-49 111 -49 168q0 136 178 213l201 88q33 14 46 29t13 39q0 19 -21 37t-61 30l-188 54q-105 29 -155 74t-50 112q0 53 31 129q0 1 10 -1.5t19.5 -6t9.5 -4.5q-4 -14 -4 -37q0 -37 47 -68
t184 -71q126 -37 183 -97.5t57 -163.5q0 -96 -52.5 -154.5t-205.5 -119.5zM254 -31q-35 0 -60.5 25.5t-25.5 58.5q0 35 26.5 61.5t63.5 26.5q35 0 61.5 -25.5t26.5 -58.5q0 -34 -27 -61t-65 -27z" />
    <glyph glyph-name="at" unicode="@" horiz-adv-x="1355" 
d="M903 268q-177 0 -168 197l4 -2q-46 -68 -112.5 -127.5t-98.5 -59.5q-50 0 -83 42t-33 118q0 72 42.5 148t97 130.5t120.5 100.5q68 49 112 49q29 0 52 -10q40 46 67 64q1 2 6.5 -0.5t10.5 -8t4 -10.5q-2 -9 -13.5 -58.5t-21 -92t-22 -109t-21.5 -125.5q-27 -184 84 -184
q102 0 157.5 81.5t55.5 206.5q0 96 -31.5 184.5t-90 158.5t-149.5 111.5t-202 41.5q-185 0 -315 -157t-130 -392q0 -146 64 -265.5t181.5 -190t264.5 -70.5q171 0 316 111q7 5 16 -2t12.5 -16.5t-0.5 -14.5q-79 -67 -186 -106.5t-221 -39.5q-104 0 -195.5 29.5t-158 80.5
t-114 119.5t-71.5 146.5t-24 161q0 123 46 243t125 215t194.5 153.5t244.5 58.5q116 0 216.5 -38.5t168 -103t105.5 -150.5t38 -179t-32 -177t-82 -140t-111 -89t-119 -33zM721 780q-65 0 -125.5 -103t-60.5 -210q0 -47 9 -67.5t31 -20.5q30 0 78.5 42t81.5 93l47 244
q-28 22 -61 22z" />
    <glyph glyph-name="A" unicode="A" horiz-adv-x="1470" 
d="M1454 -12q-94 12 -235 12q-211 0 -314 -12q-7 -2 -8.5 8t1 20.5t5.5 10.5l30 3q28 3 41 4.5t30.5 5.5t24.5 10t12.5 16t5.5 24q0 10 -1 21t-4.5 25t-6 25t-8.5 28.5t-9.5 28.5t-11.5 32t-11.5 30.5t-13 34t-12.5 33.5l-62 164h-467l-71 -164q-33 -76 -48 -111.5
t-27.5 -77.5t-12.5 -69q0 -33 28 -44.5t103 -18.5q5 0 7.5 -10.5t0 -20.5t-9.5 -8q-94 12 -197 12h-40.5h-30.5t-26 -1t-20 -1t-20.5 -1.5t-19 -2t-24.5 -3t-28 -3.5q-7 -2 -8.5 8t1 20.5t5.5 10.5q99 7 155 73.5t138 251.5l444 989q6 11 21 10.5t18 -10.5l379 -989
q26 -69 43.5 -110t39 -81.5t40.5 -61t46.5 -38.5t59 -25.5t74.5 -10.5q3 -1 5.5 -10.5t0 -18.5t-11.5 -8zM696 1092l-231 -525h422z" />
    <glyph glyph-name="B" unicode="B" horiz-adv-x="1308" 
d="M711 -8q-38 0 -137 4t-121 4q-198 0 -301 -12q-9 -1 -10.5 9t2 20t6.5 10q103 10 130 23q41 20 53 83q9 52 9 217v615v83t-3 66.5t-3.5 53t-9 39t-12 29.5t-19 20.5t-23.5 14.5t-32.5 8.5t-39.5 7t-50 5.5q-2 0 -4 4t-3.5 9t-1.5 10.5t2.5 9t8.5 2.5q103 -12 266 -12
q21 0 117 4t133 4q183 0 304.5 -81.5t121.5 -227.5q0 -88 -75 -171t-188 -116q169 -8 278.5 -99.5t109.5 -226.5q0 -176 -139.5 -292.5t-368.5 -116.5zM569 690q-9 -2 -7 23q1 16 7 16q188 0 269.5 58.5t81.5 201.5q0 279 -302 279q-37 0 -81 -8q-17 -74 -17 -293v-627
q0 -73 1.5 -114.5t8.5 -78.5t16.5 -53t30.5 -28t45.5 -14.5t67.5 -2.5q177 0 261.5 72t84.5 248q0 75 -32.5 139t-91.5 108.5t-148 64.5t-195 9z" />
    <glyph glyph-name="C" unicode="C" horiz-adv-x="1507" 
d="M1354 70q-149 -111 -455 -111q-172 0 -318.5 55t-243.5 148t-151.5 214.5t-54.5 254.5q0 128 58.5 257t158 233t247.5 169.5t312 65.5q129 0 263 -39.5t176 -71.5q11 -9 23 -100.5t15 -186.5q0 -7 -16 -7t-18 5q-14 63 -50 121t-94 107.5t-148.5 79.5t-199.5 30
q-236 0 -387.5 -157.5t-151.5 -429.5q0 -132 34 -244.5t92.5 -192t135.5 -135.5t162.5 -83t174.5 -27q108 0 204.5 39.5t162 117t73.5 178.5q0 3 10 4.5t19.5 -0.5t9.5 -8q-5 -97 -18 -187t-25 -99z" />
    <glyph glyph-name="D" unicode="D" horiz-adv-x="1685" 
d="M791 -8q-39 0 -162.5 4t-145.5 4q-228 0 -331 -12q-9 -1 -10.5 9t2 20t6.5 10q103 10 130 23q41 20 53 83q9 52 9 217v615v83t-3 66.5t-3.5 53t-9 39t-12 29.5t-19 20.5t-23.5 14.5t-32.5 8.5t-39.5 7t-50 5.5q-2 0 -4 4t-3.5 9t-1.5 10.5t2.5 9t8.5 2.5q103 -12 350 -12
q23 0 149 4t166 4q179 0 321 -49.5t232.5 -137.5t138 -204.5t47.5 -253.5q0 -139 -55.5 -264.5t-154 -218.5t-243 -148t-312.5 -55zM756 1262q-123 0 -219 -11q-17 -89 -17 -284v-691q0 -41 1.5 -67.5t8 -51.5t15.5 -39.5t28 -27t40.5 -18.5t58.5 -10.5t76.5 -5.5t99.5 -1
q228 0 376 149.5t148 407.5q0 317 -163 483.5t-453 166.5z" />
    <glyph glyph-name="E" unicode="E" horiz-adv-x="1298" 
d="M1116 33q-7 -27 -18.5 -35t-38.5 -8q-29 0 -151 5t-208 5q-387 0 -567 -12q-5 -1 -7.5 3t-2.5 10t1 12t3 10t4 4q116 13 143 24q44 17 57 70q11 47 11 229v615q0 89 -0.5 128.5t-8.5 83.5t-16 56.5t-35 28t-52.5 18.5t-80.5 10q-12 1 -18 2q-2 0 -4 4t-3.5 9.5t-1.5 11
t2.5 9.5t8.5 3q210 -14 559 -14q243 0 412 14q-14 -46 -14 -119q0 -61 2 -77q2 -9 -24 -5q-12 2 -13 5q-9 48 -34 71t-92 34t-202 11h-197q-10 -64 -10 -274v-262h211q34 0 60.5 1t47.5 1t36.5 3t27 3.5t19 6t12 7t8 9.5t4.5 10t3 13.5t3 14.5q2 4 19 1.5t20 -5.5
q-12 -47 -12 -127q0 -64 2 -80q2 -4 -7 -6q-21 -3 -30 4q-7 36 -19.5 52t-57 26t-136.5 10h-211v-299q0 -132 13.5 -194.5t37.5 -79t76 -16.5h109q81 0 133.5 2t92.5 10.5t61 17t37 30t22.5 42t15.5 59.5q0 1 4 2t9.5 0.5l11 -1t9.5 -2.5t3 -5q-18 -115 -39 -190z" />
    <glyph glyph-name="F" unicode="F" horiz-adv-x="1243" 
d="M1102 1087q-19 79 -34 101q-26 41 -109 52q-62 9 -201 9h-226q-12 -61 -12 -274v-270h142q40 0 71.5 0.5t57.5 3t45 4t34.5 7t25.5 8.5t18 11.5t12 12.5t8 16.5t5.5 17.5t4.5 21q1 2 9 1.5t18 -2t12 -3.5q-18 -67 -18 -152q0 -74 6 -94q3 -8 -6.5 -12t-20.5 -2t-12 8
q-8 42 -26.5 60.5t-72.5 27t-171 8.5h-142v-297v-92t2.5 -70t4.5 -55.5t10.5 -37.5t16 -28.5t25 -16t33 -12.5t45.5 -5t58 -6h4q5 0 7.5 -10.5t0 -20.5t-9.5 -8q-99 12 -264 12q-177 0 -283 -12q-7 -2 -8.5 8t1 20.5t5.5 10.5q38 4 54.5 5.5t40.5 9t32 14t20.5 25t15 37
t6.5 56t4.5 75.5t0.5 101v615v82t-2 65t-3 53t-8 38t-11.5 29.5t-18 19.5t-23.5 15.5t-33 8.5t-40.5 8l-52.5 6q-11 1 -17 2q-5 1 -8 10.5t-1 18.5t9 8q213 -14 569 -14q86 0 208 5t151 5q24 0 36.5 -9.5t18.5 -33.5q7 -27 12.5 -98t8.5 -90q1 -6 -7.5 -9t-17.5 -2t-10 4z
" />
    <glyph glyph-name="G" unicode="G" horiz-adv-x="1591" 
d="M1372 246q0 -55 6 -86.5t27 -48.5q-147 -78 -266 -115t-260 -37q-172 0 -315 55t-236.5 147.5t-145 213.5t-51.5 254q0 102 36.5 206.5t106.5 197.5t163.5 165.5t215.5 115t254 42.5q130 0 266.5 -44.5t180.5 -78.5q11 -8 16 -95.5t-2 -183.5q-1 -6 -9.5 -8t-17 0.5
t-8.5 5.5q-5 62 -40.5 122t-95 109.5t-148.5 80t-191 30.5q-236 0 -387.5 -158.5t-151.5 -430.5q0 -163 49 -295.5t131 -215.5t184.5 -127t215.5 -44q62 0 112 7.5t79.5 18.5t50.5 26t29 26.5t12 23.5q12 40 12 131q0 56 -0.5 88.5t-5 66.5t-9.5 51t-18.5 35t-27.5 25
t-41.5 14.5t-54.5 10.5t-72 6q-9 0 -11 19q-1 19 13 18q86 -12 338 -12q155 0 254 12q7 2 9.5 -7.5t0 -19.5t-7.5 -10q-43 -3 -70 -9t-49.5 -11.5t-34 -25.5t-20 -34.5t-11 -55.5t-3.5 -71.5t-1 -99.5z" />
    <glyph glyph-name="H" unicode="H" horiz-adv-x="1816" 
d="M1409 0q-179 0 -285 -12q-8 -2 -10 9q-2 20 8 29q1 1 2 1q37 4 53.5 6t39.5 9t31 13.5t20.5 25t15 37.5t7 55.5t5 75.5t0.5 101v289h-776v-289v-80.5t2 -64.5t4 -52.5t7 -39.5t10.5 -31.5t16.5 -21t22 -15.5t29.5 -9t36.5 -7t46 -4q3 -1 5.5 -10.5t0 -18.5t-11.5 -8
q-94 12 -235 12q-214 0 -320 -12q-8 -2 -10 9q-2 20 8 29q1 1 2 1q115 13 143 24q43 17 55 70q11 46 11 229v615v82t-2 65t-3 53t-8 38t-11.5 29.5t-18 19.5t-23.5 15.5t-33 8.5t-40.5 8l-52.5 6q-11 1 -17 2q-9 2 -10 22q1 14 10 13q106 -12 320 -12q141 0 235 12
q9 1 11 -8t-1 -18t-6 -9q-28 -2 -46 -4t-36.5 -7.5t-29 -9.5t-21.5 -16.5t-16 -21t-10.5 -31t-7 -39.5t-3.5 -53t-2 -64.5v-80.5v-269h776v269q0 62 -0.5 101t-4.5 76t-7 56t-15 37.5t-20.5 25.5t-31.5 14.5t-40 10t-53 6.5q-9 2 -10 22q1 14 10 13q106 -12 285 -12
q173 0 272 12q8 2 10 -9q4 -18 -5 -25q-2 -1 -3 -1q-59 -5 -88 -8t-56.5 -19t-36.5 -26.5t-17 -53.5t-8 -76v-117v-27v-615v-27v-91t3.5 -66.5t6.5 -52t16 -33.5t24 -25t37.5 -12.5t50 -10.5t68.5 -5q5 0 7.5 -10.5t0 -20.5t-9.5 -8q-99 12 -272 12z" />
    <glyph glyph-name="I" unicode="I" horiz-adv-x="923" 
d="M485 0q-197 0 -303 -12q-9 -1 -10.5 9t2 20t6.5 10q103 10 130 23q42 20 53 83q10 53 10 217v615v101.5t-5 75.5t-7.5 56.5t-16.5 37.5t-22 25t-35.5 14t-45.5 10t-61 7q-2 0 -4 4t-3.5 9t-1.5 10.5t2.5 9t8.5 2.5q106 -12 303 -12q157 0 252 12q9 1 11.5 -8t-1 -18
t-8.5 -9q-39 -3 -61.5 -5.5t-45.5 -12t-34 -14.5t-21.5 -28t-14 -37t-6.5 -57.5t-3 -73.5v-99v-615v-127.5t7.5 -83t15.5 -58t33 -28.5t51 -19.5t79 -6.5q5 0 8.5 -10t1 -20t-11.5 -9q-95 12 -252 12z" />
    <glyph glyph-name="J" unicode="J" horiz-adv-x="849" 
d="M553 965v-615q0 -207 -47 -345.5t-159.5 -241t-309.5 -179.5q-7 -3 -12 6t-4.5 18t2.5 11q73 31 125 65.5t92 80.5t65 99.5t40.5 127.5t21.5 158.5t6 199.5v615v101.5t-5 75.5t-7.5 56.5t-16.5 37.5t-22 25t-35.5 14t-45.5 10t-61 7q-2 0 -4 4t-3.5 9t-1.5 10.5t2.5 9
t8.5 2.5q106 -12 303 -12q153 0 252 12q9 1 11.5 -8t-1 -18t-8.5 -9q-39 -3 -61.5 -5.5t-45.5 -12t-34 -14.5t-21.5 -28t-14 -37t-6.5 -57.5t-3 -73.5v-99z" />
    <glyph glyph-name="K" unicode="K" horiz-adv-x="1474" 
d="M1274 0q-208 0 -316 -12q-8 -2 -10 9q-2 20 8 29q1 1 2 1q83 10 91 12q29 10 9 42q-1 2 -3 5q-12 17 -30 39t-46.5 51t-49.5 50.5t-61 61t-59 58.5l-287 287l312 336q13 15 46 50.5t47.5 51t40 43.5t38.5 44.5t28 36t23 34.5q19 32 2.5 42t-75.5 17q-19 3 -30 4
q-2 0 -4 4t-3.5 9t-1.5 10.5t2.5 9t8.5 2.5q66 -8 238 -8q116 0 176 8q10 2 12 -7t-2.5 -18.5t-7.5 -9.5q-80 -6 -140 -36t-113 -79t-163 -164q-32 -34 -49 -52l-235 -246l372 -359q185 -179 234 -220q95 -78 182 -99q35 -8 80 -12q5 0 7.5 -10t0 -19.5t-9.5 -7.5
q-94 12 -264 12zM688 -12q-94 12 -235 12q-217 0 -320 -12q-7 -2 -8.5 8t1 20.5t5.5 10.5q116 13 143 24q44 17 57 70q11 47 11 229v615q0 89 -0.5 128.5t-8.5 83.5t-16 56.5t-35 28t-52.5 18.5t-80.5 10q-12 1 -18 2q-6 0 -7 20q0 16 9 15q103 -12 320 -12q141 0 235 12
q7 2 9 -7t0 -18.5t-5 -9.5q-28 -2 -46 -4t-36.5 -7.5t-29 -9.5t-21.5 -16.5t-16 -21t-10.5 -31t-7 -39.5t-3.5 -53t-2 -64.5v-80.5v-615v-80.5t2 -64.5t4 -52.5t7 -39.5t10.5 -31.5t16.5 -21t22 -15.5t29.5 -9t36.5 -7t46 -4q7 -2 5 -23q-3 -15 -11 -14z" />
    <glyph glyph-name="L" unicode="L" horiz-adv-x="1200" 
d="M1118 33q-7 -27 -19 -35t-38 -8q-29 0 -142 5t-198 5q-406 0 -588 -12q-7 -1 -9 8.5t1 19.5t8 11q115 13 143 24q43 17 55 70q11 46 11 229v615v102t-4.5 75t-7 56.5t-16 37t-21.5 25.5t-35 14t-45 10t-61 7q-9 2 -10 22q1 14 10 13q106 -12 301 -12q159 0 254 12
q9 1 11 -8t-1 -18t-6 -9q-53 -5 -80.5 -8t-53 -20t-34 -29.5t-15.5 -58.5t-7.5 -83.5t-0.5 -127.5v-615q0 -130 9.5 -185t32.5 -73t79 -18h117q84 0 134.5 1t91.5 8t59.5 13t34 25t20.5 35t14 51q0 1 4 2t9 1t10.5 -0.5t9 -2t2.5 -4.5q-11 -106 -29 -170z" />
    <glyph glyph-name="M" unicode="M" horiz-adv-x="1980" 
d="M1579 0q-195 0 -285 -12q-8 -2 -10 9q-2 20 8 29q1 1 2 1q30 3 44.5 4.5t35 6t29 8.5t21.5 14.5t17 20.5t10.5 29.5t7.5 39t3 52t1.5 66t-1.5 82.5l-12 727l-477 -1085q-3 -8 -17 -8.5t-20 10.5l-487 1026l-13 -670q1 -51 -1 -91t2 -71.5t6.5 -54.5t13.5 -40t22.5 -28
t33.5 -18.5t47 -12t63 -7.5q3 0 5 -10.5t-0.5 -20.5t-9.5 -8q-94 12 -206 12q-168 0 -256 -12q-8 -2 -10 9q-2 20 8 29q1 1 2 1q38 4 60.5 7.5t45.5 12t34.5 16t23 27.5t16 37.5t8.5 55t5.5 72t2.5 95.5l15 719q1 105 -54.5 158t-173.5 65q-9 2 -10 23q1 15 10 14
q102 -14 367 -14l502 -1075l307 702q114 261 145 377q193 -14 367 10q9 1 11 -8.5t-1 -19t-6 -9.5q-156 -13 -182.5 -56t-22.5 -262v-7l12 -617q4 -179 13 -221q12 -58 55 -77q34 -16 147 -25q6 0 7 -22q0 -18 -9 -17q-99 12 -272 12z" />
    <glyph glyph-name="N" unicode="N" horiz-adv-x="1757" 
d="M1470 965v-615q0 -246 15 -375q0 -4 -6.5 -7t-15.5 -2t-15 7l-1012 1057v-680q0 -213 26.5 -263t164.5 -60q3 0 6 -10t1 -20t-11 -9q-95 12 -205 12q-153 0 -256 -12q-9 -1 -10.5 9t2 20t6.5 10q38 4 61 7t45.5 11.5t34.5 16t23 27t15.5 38t8 55.5t4 72.5t0.5 95.5v719
q0 67 -77.5 140.5t-151.5 82.5q-2 0 -4 4t-3.5 9t-1.5 10.5t2.5 9t8.5 2.5q120 -14 287 -14l974 -1024v676q0 49 -0.5 78.5t-2 63t-4 51.5t-8.5 39t-12 31t-18 22t-24 16.5t-32.5 10.5t-40.5 9t-50 6q-6 0 -7 20q0 16 9 15q103 -12 254 -12q116 0 207 12q11 1 14 -7.5
t-1 -17.5t-11 -10q-43 -4 -70 -10t-49.5 -13t-34 -28t-20 -37t-11 -59.5t-3.5 -75.5t-1 -104z" />
    <glyph glyph-name="O" unicode="O" horiz-adv-x="1765" 
d="M862 -41q-158 0 -296.5 56.5t-232.5 150t-148 216.5t-54 255q0 102 36 205.5t105 195t161.5 163t214 113.5t253.5 42q159 0 298 -56t233.5 -149.5t149 -216.5t54.5 -254q0 -102 -36 -206t-106 -196t-162.5 -163.5t-215 -113.5t-254.5 -42zM854 1294q-237 0 -388 -158.5
t-151 -430.5q0 -131 34 -243.5t91.5 -192t134 -136t162 -83.5t174.5 -27q116 0 215 40t171.5 114t113.5 185.5t41 247.5q0 131 -34 243.5t-92.5 192.5t-135.5 136.5t-162.5 84t-173.5 27.5z" />
    <glyph glyph-name="P" unicode="P" horiz-adv-x="1265" 
d="M602 594h-33q-7 0 -7 19.5t7 19.5q4 0 15 -1t16 -1q184 0 271 77.5t87 243.5q0 155 -84.5 235.5t-246.5 80.5q-46 0 -90 -8q-17 -74 -17 -293v-619v-80.5t2 -63.5t3.5 -52.5t7.5 -38.5t11 -31t17.5 -20t23.5 -16t32 -9t40.5 -7.5t51.5 -4.5q5 0 7.5 -10t0 -19.5
t-9.5 -7.5q-95 12 -254 12q-198 0 -301 -12q-9 -1 -10.5 8.5t2 19t6.5 9.5q103 11 130 25q41 19 53 83q9 52 9 215v617v129t-11 85.5t-14.5 55t-36 29t-48.5 17t-77 8.5q-3 1 -5 1t-4 4t-3.5 9.5t-1.5 11t2.5 9.5t8.5 3q86 -12 266 -12q22 0 122.5 4t141.5 4
q205 0 332 -92.5t127 -245.5q0 -178 -146.5 -284.5t-392.5 -106.5z" />
    <glyph glyph-name="Q" unicode="Q" horiz-adv-x="1765" 
d="M2175 -586q-221 0 -435 63t-421.5 178t-472.5 306q-156 2 -291.5 58.5t-227.5 149.5t-144 214t-52 252q0 128 57.5 256.5t156 231.5t245.5 168t311 65q158 0 296.5 -56.5t233.5 -150t149 -216.5t54 -255q0 -144 -70.5 -286t-203 -252.5t-299.5 -153.5
q374 -247 680 -371.5t612 -124.5q208 0 410 55q4 2 9.5 -7t6 -18t-7.5 -12q-334 -94 -596 -94zM852 1292q-117 0 -215.5 -40t-170.5 -114t-112.5 -185.5t-40.5 -247.5q0 -132 34 -244.5t92 -192t135 -135.5t162.5 -83t174.5 -27q237 0 389 157t152 428q0 132 -34.5 244.5
t-92.5 192.5t-135 136.5t-163 83.5t-175 27z" />
    <glyph glyph-name="R" unicode="R" horiz-adv-x="1435" 
d="M1571 -45q-139 0 -259 36.5t-207 97t-157 145t-114 174.5t-72 192q-79 -12 -162 -12q-51 0 -80 4v-242q0 -89 0.5 -126.5t7.5 -83.5t15.5 -58.5t34 -28.5t52.5 -19t81 -7q3 0 6 -10t1 -20t-11 -9q-95 12 -254 12q-198 0 -301 -12q-7 -2 -8.5 8t1 20.5t5.5 10.5
q103 10 131 23q41 20 52 82q9 51 9 218v617q0 68 -1 103.5t-4.5 76.5t-11 59t-21 35.5t-33.5 23t-50 5.5q-20 0 -78 -8q-5 -1 -9.5 7t-3.5 17t9 12q109 35 514 35q115 0 211.5 -18.5t172.5 -55.5t118.5 -99.5t42.5 -145.5q0 -63 -25.5 -128t-93 -133.5t-168.5 -109.5
q41 -110 118.5 -226t168 -209.5t191.5 -153.5t184 -60q3 0 6 -9.5t1.5 -19.5t-9.5 -10zM627 1276q-22 0 -92 -4q-15 -64 -15 -287v-340q2 -1 36.5 -0.5t41.5 0.5q220 0 318 73t98 208q0 350 -387 350z" />
    <glyph glyph-name="S" unicode="S" horiz-adv-x="1093" 
d="M543 -41q-207 0 -373 137q-3 2 -3.5 16.5t1 42t4 57t5.5 74.5t5 81q0 5 9 6.5t18.5 0t9.5 -4.5q11 -161 98.5 -253.5t243.5 -92.5q113 0 193 61.5t80 177.5q0 69 -34 126.5t-88.5 99t-120 80.5t-131.5 79t-120.5 84t-88.5 107t-34 139q0 95 50.5 181t144.5 142t209 56
q146 0 268 -66q13 -6 22 -65.5t9 -157.5q0 -5 -10 -6.5t-20.5 0t-10.5 4.5q-19 113 -90 171t-185 58q-100 0 -173 -58.5t-73 -150.5q0 -66 33.5 -121t86.5 -94.5t117.5 -77t129.5 -77t118 -85t86.5 -111t33.5 -144.5q0 -172 -119.5 -294t-300.5 -122z" />
    <glyph glyph-name="T" unicode="T" horiz-adv-x="1474" 
d="M1415 1206q0 -81 4 -106q2 -7 -27 -5q-10 1 -10 3q-8 38 -20.5 60t-45 41.5t-93.5 27.5t-160 8h-215v-885v-127.5t7.5 -83t15.5 -58t33.5 -28.5t52.5 -19.5t81 -6.5q5 0 8 -10t0 -20t-12 -9q-94 12 -252 12q-197 0 -303 -12q-8 -2 -10 9q-2 20 8 29q1 1 2 1
q101 10 128 23q41 20 52 83q9 52 9 217v885h-226q-127 0 -195.5 -16.5t-93 -43.5t-38.5 -79q-16 -4 -31 0l-4 4q10 51 10 170q0 56 -10 104q-2 4 9 5q16 2 28 -1q12 -51 57.5 -61t267.5 -10h621q228 0 275 9.5t59 61.5q0 5 23 3q13 -2 12 -7q-17 -80 -17 -168z" />
    <glyph glyph-name="U" unicode="U" horiz-adv-x="1716" 
d="M1430 983v-512q0 -106 -35.5 -198t-103.5 -162.5t-174.5 -111t-239.5 -40.5q-118 0 -221 36.5t-180.5 102.5t-122 166t-44.5 221v480v83.5t-2.5 66.5t-3.5 53t-9 39t-11 29.5t-18.5 20t-23.5 14.5t-32 8.5t-38.5 7t-49.5 5.5q-7 0 -11 9t-1 18t12 8q106 -12 301 -12
q162 0 254 12q6 1 9.5 -2.5t3.5 -9t-1.5 -10.5t-3.5 -9t-4 -4q-53 -5 -80.5 -8t-53 -20t-34 -29.5t-15.5 -58.5t-7.5 -83.5t-0.5 -127.5v-439q0 -95 25.5 -173.5t68.5 -132t100.5 -90.5t119.5 -54t127 -17q209 0 316.5 110t107.5 323v491q0 53 -1 87.5t-5 67.5t-9.5 52
t-17 37t-24.5 27t-36 17.5t-47 12.5t-61 8q-5 1 -8.5 10t-1 17.5t11.5 7.5q106 -12 260 -12q115 0 209 12q9 1 12 -8t0 -18t-8 -9q-37 -3 -63 -7t-48 -13.5t-35.5 -18.5t-24 -29t-15.5 -38t-8 -53t-3.5 -65.5t-0.5 -84.5z" />
    <glyph glyph-name="V" unicode="V" horiz-adv-x="1515" 
d="M1266 963l-447 -990q-5 -9 -18 -9t-19 11l-417 988q-71 169 -97 212q-44 73 -110 97q-39 15 -99 20q-6 0 -7 20q0 16 9 15q95 -12 236 -12q209 0 315 12q9 2 10 -10q2 -20 -8 -25q-93 -12 -110 -19q-31 -13 -31 -48q0 -50 84 -258l307 -742l328 742q51 114 69.5 168.5
t18.5 89.5q0 34 -30 47.5t-105 19.5q-2 0 -4 4t-3.5 9t-1.5 10.5t2.5 9t8.5 2.5q95 -12 199 -12q31 0 52 0.5t34 0.5t30 1.5t22.5 2t30 3.5t35.5 4q9 1 12 -7.5t0 -17.5t-8 -10q-22 -2 -39.5 -5.5t-35 -10.5t-29.5 -12.5t-26.5 -20.5t-24 -24.5t-24 -33.5t-23 -39.5
t-25.5 -51t-28 -59.5z" />
    <glyph glyph-name="W" unicode="W" horiz-adv-x="2131" 
d="M1915 963l-414 -990q-3 -8 -16.5 -8.5t-18.5 10.5l-309 869l-383 -871q-3 -8 -17.5 -8.5t-19.5 10.5l-395 988q-29 72 -45 110t-38 80.5t-39.5 62t-44 38.5t-56 26.5t-70.5 11.5q-5 0 -8.5 9t-1 18t11.5 8q85 -12 219 -12q232 0 328 12q9 1 10.5 -8t-2 -18t-6.5 -9
q-78 -7 -111.5 -21.5t-33.5 -53.5q0 -30 25 -111.5t48 -138.5l293 -729l303 700l-10 25q-73 175 -96 216q-43 73 -102 96q-33 13 -80 17q-6 0 -7 19q-1 17 9 16q89 -12 219 -12q250 0 346 12q7 2 9 -7t0 -18.5t-5 -9.5q-98 -8 -133 -24.5t-35 -61.5q0 -59 61 -239l248 -729
l293 739q5 12 15 37.5t13.5 35.5t11 30t10.5 28.5t8.5 24t7 24t4 20t3.5 20t1 17.5q0 38 -28.5 54t-104.5 24q-2 0 -4 4t-3.5 9t-1.5 10.5t2.5 9t8.5 2.5q88 -12 203 -12h41.5t32 0.5t23.5 1t21 1.5t19 2t24.5 3.5t30.5 3.5q8 2 9 -9q1 -19 -7 -26q-39 -4 -69 -18.5t-52 -35
t-47.5 -66t-44.5 -87t-53 -122.5z" />
    <glyph glyph-name="X" unicode="X" horiz-adv-x="1517" 
d="M1255 0q-235 0 -321 -12q-9 -1 -10.5 9t2 20t6.5 10q89 10 105 34q20 28 -28 112q-24 43 -137 218l-120 187l-166 -232q-127 -177 -149 -220q-31 -60 0 -80q24 -15 100 -21q6 0 9.5 -9.5t0.5 -19t-12 -8.5q-91 12 -205 12q-164 0 -250 -12q-9 -1 -11.5 8.5t1 19.5t8.5 11
q56 6 86.5 10t67.5 21t56.5 31t58.5 58.5t68 83t91 123.5l205 283l-187 278q-41 61 -58 86.5t-48 69.5t-43.5 59.5t-37.5 45t-36.5 38t-34.5 26t-38.5 22t-40 13t-48 11.5t-55.5 6q-5 1 -8.5 10t-1 17.5t11.5 7.5q103 -12 322 -12q152 0 251 12q7 2 10 -7t0.5 -18.5
t-7.5 -9.5q-94 -8 -109 -39q-16 -34 42 -132q24 -41 126 -197l92 -142l135 189q130 181 151 228q25 53 -8 72q-22 12 -96 21q-2 0 -4 4t-3.5 9t-1.5 10.5t2.5 9t8.5 2.5q103 -12 250 -12q113 0 207 12q8 2 10 -9q4 -18 -5 -25q-2 -1 -3 -1q-40 -3 -68.5 -7t-57 -13.5
t-47.5 -18t-44 -29.5t-42 -39t-47 -55.5t-53.5 -69.5t-65.5 -90q-3 -5 -5 -7l-172 -240l215 -324q132 -198 179 -252q68 -78 147 -102q44 -13 114 -18q5 0 7.5 -10.5t0 -20.5t-9.5 -8q-99 12 -252 12z" />
    <glyph glyph-name="Y" unicode="Y" horiz-adv-x="1562" 
d="M1102 963l-223 -312v-301q0 -90 0.5 -126.5t7.5 -83t15.5 -58.5t33.5 -28.5t52.5 -19.5t80.5 -7q3 0 6 -10t1 -20t-11 -9q-94 12 -254 12q-198 0 -301 -12q-7 -2 -8.5 8t1 20.5t5.5 10.5q103 11 130 24q41 19 53 80q9 51 9 219v283l-184 282q-55 84 -89.5 134t-71 95.5
t-62 68t-59 41t-65 26t-77.5 12.5q-9 2 -10 22q1 14 10 13q103 -12 301 -12q157 0 252 12q9 1 11 -8t-1 -18t-6 -9q-97 -9 -111 -43q-14 -35 49 -139q27 -45 122 -186l137 -205l176 252q127 182 148 222q29 57 0 76q-20 14 -99 23q-9 2 -10 22q1 14 10 13q103 -12 252 -12
q87 0 186 12q9 1 11.5 -8t-1 -18t-8.5 -9q-46 -4 -77 -9.5t-64.5 -23t-55.5 -35t-59 -60.5t-66.5 -82.5t-86.5 -118.5z" />
    <glyph glyph-name="Z" unicode="Z" horiz-adv-x="1433" 
d="M1274 33q-9 -28 -19 -35.5t-36 -7.5q-33 0 -180.5 5t-250.5 5q-427 0 -643 -12q-9 0 -14 12t2 23l928 1226h-498q-74 0 -124.5 -3t-86 -13t-55.5 -19.5t-33.5 -32.5t-18.5 -41.5t-12 -56.5q-17 -4 -32 1q-3 2 -4 3q6 24 6 117q0 55 -8 125q164 -14 481 -14q396 0 612 12
q9 3 15 -10.5t0 -22.5l-920 -1216h532q63 0 108 1.5t82 7.5t60.5 10.5t42 19.5t28 25.5t17.5 36.5t11.5 44.5t9.5 57.5q0 2 10 2.5t19.5 -0.5t9.5 -4q0 -47 -14 -130t-25 -116z" />
    <glyph glyph-name="bracketleft" unicode="[" horiz-adv-x="737" 
d="M793 -573q-81 30 -196 43.5t-343 13.5v1978q227 0 342 14t197 44q14 6 18.5 -9.5t-4.5 -21.5q-75 -79 -383 -113v-1806q308 -34 383 -113q9 -6 4.5 -21t-18.5 -9z" />
    <glyph glyph-name="backslash" unicode="\" horiz-adv-x="677" 
d="M682 -666l-678 2128q-2 6 7.5 11.5t19 6t12.5 -4.5l676 -2128q2 -6 -7 -11.5t-18 -6t-12 4.5z" />
    <glyph glyph-name="bracketright" unicode="]" horiz-adv-x="737" 
d="M-37 -573q-14 -6 -18.5 9t4.5 21q78 82 387 113v1806q-158 16 -254 47t-133 66q-7 7 -3.5 21.5t17.5 9.5q84 -30 198.5 -44t344.5 -14v-1978q-231 0 -345.5 -13.5t-197.5 -43.5z" />
    <glyph glyph-name="asciicircum" unicode="^" horiz-adv-x="1433" 
d="M1290 272q-3 42 -15.5 70.5t-31.5 46.5t-55.5 30.5t-74 18.5t-101.5 13l-197 20l25 -195q7 -55 11.5 -84t13.5 -64.5t20.5 -53t30 -35t44.5 -25t62 -10.5q5 0 9 -19.5t-9 -19.5q-159 0 -305 49q-148 -49 -307 -49q-6 0 -6.5 9.5t2.5 19.5t6 10q43 4 72 16.5t47 30
t30.5 55t18.5 72t14 98.5l24 195l-196 -20q-64 -7 -102 -13t-74.5 -18.5t-56 -30.5t-32 -46.5t-16.5 -70.5q0 -3 -9.5 -6t-19.5 -2.5t-10 6.5q0 145 50 293q-50 145 -50 293q0 5 10 5.5t19.5 -2.5t9.5 -5q3 -35 11 -60.5t26 -43.5t36 -29t54.5 -20t66.5 -13.5t87 -11.5
l196 -23l-24 197q-5 40 -8.5 64t-9.5 53t-12 46t-16 36.5t-22 30t-28.5 20.5t-37.5 15t-48 7q-3 0 -6 10t-2 19.5t6 9.5q149 0 307 -49q155 49 305 49q8 0 8.5 -9.5t-3.5 -19.5t-7 -10q-27 -2 -48 -7t-37.5 -15t-28.5 -20.5t-22 -30t-16 -36.5t-12 -46t-9.5 -53t-8.5 -64
l-25 -197l199 23q64 7 101 13t74 18t56 30t31.5 46.5t15.5 70.5q0 3 11 6t21.5 2.5t10.5 -6.5q0 -135 -51 -293q51 -161 51 -293q0 -6 -10.5 -6.5t-21.5 2.5t-11 6z" />
    <glyph glyph-name="underscore" unicode="_" horiz-adv-x="1349" 
d="M674 2l-527 -6q-7 0 -7 29.5t7 29.5l527 -8l528 8q6 0 6 -29.5t-6 -29.5z" />
    <glyph glyph-name="grave" unicode="`" horiz-adv-x="464" 
d="M389 956l-338 355q-8 8 6.5 26t35.5 28t28 1l299 -391q6 -8 0 -15.5t-15 -8.5t-16 5z" />
    <glyph glyph-name="a" unicode="a" horiz-adv-x="872" 
d="M698 -35q-56 0 -92.5 33t-42.5 92q-61 -55 -139 -87t-152 -32q-87 0 -138.5 49.5t-51.5 126.5q0 92 116 155t369 77q4 156 4 225q0 99 -57 133q-41 23 -119 23q-45 0 -82 -18t-37 -40q0 -14 5.5 -32t5.5 -31q0 -31 -43 -57.5t-94 -26.5q-24 0 -38.5 12.5t-11.5 30.5
q1 29 42 73t100.5 85t138.5 70.5t147 29.5q85 0 139.5 -58t55.5 -159q1 -43 -5 -243.5t-5 -258.5q2 -60 39.5 -75.5t134.5 14.5l10 -15q4 -11 0 -14q-116 -82 -199 -82zM246 166q0 -103 127 -103q51 0 92 17.5t92 58.5q4 80 8 199q-97 -7 -162.5 -23.5t-98 -40.5
t-45.5 -49.5t-13 -58.5z" />
    <glyph glyph-name="b" unicode="b" horiz-adv-x="1056" 
d="M473 -29q-55 0 -153 20t-158 9q-13 -3 -19.5 10.5t-1.5 26.5q17 49 17 242v911q0 96 -24.5 119.5t-102.5 -0.5q-7 -2 -12.5 11t1.5 19q5 3 32.5 17.5t37.5 20t36 19.5t39.5 22t35.5 21.5t36.5 23.5t31 22.5t28.5 23.5q1 2 8.5 -0.5t14.5 -7.5t6 -10q-13 -51 -13 -293
v-459q88 51 159.5 75t156.5 24q144 0 249 -114.5t105 -279.5q0 -88 -40 -173.5t-107.5 -151.5t-163 -107t-199.5 -41zM518 737q-113 0 -205 -57v-537q72 -82 250 -82q121 0 186.5 83.5t65.5 244.5q0 168 -81.5 258t-215.5 90z" />
    <glyph glyph-name="c" unicode="c" horiz-adv-x="847" 
d="M457 -29q-165 0 -274 115t-109 283q0 125 72 237t199.5 181t277.5 69q70 0 117.5 -24t47.5 -48q0 -29 -26 -71.5t-47 -42.5q-23 0 -61.5 20t-87 40t-97.5 20q-120 0 -176.5 -72.5t-56.5 -226.5q0 -184 85 -282.5t207 -98.5q134 0 252 88q3 2 10 -4.5t10 -14t-1 -12.5
q-63 -65 -152 -110.5t-190 -45.5z" />
    <glyph glyph-name="d" unicode="d" horiz-adv-x="1085" 
d="M805 -33q-23 0 -40 40t-22 87q-163 -123 -303 -123q-149 0 -257.5 115t-108.5 281q0 123 64.5 231t179 174t251.5 66q82 0 172 -23v375q0 96 -25.5 119.5t-101.5 -0.5q-2 -1 -6 5t-5 13t3 12q183 98 247 147q16 12 28 23q1 2 9 -0.5t15 -7.5t6 -10q-12 -47 -12 -293
v-1026q0 -69 34 -83.5t126 11.5q1 1 4 -4q11 -18 7 -28q-1 -2 -3 -2q-198 -99 -262 -99zM741 643q-111 115 -264 115q-115 0 -180.5 -82.5t-65.5 -241.5q0 -87 27.5 -157.5t72.5 -113.5t99 -66t111 -23q84 0 200 80v489z" />
    <glyph glyph-name="e" unicode="e" horiz-adv-x="901" 
d="M827 526l-587 -14q-2 -20 -2 -66q0 -97 26 -172t70.5 -119t98 -65.5t112.5 -21.5q145 0 262 86q1 2 7.5 -4t11.5 -14t1 -11q-60 -66 -157.5 -110t-194.5 -44q-179 0 -290 115.5t-111 298.5q0 121 65 231t168.5 175t212.5 65q76 0 138.5 -26t101 -67t59.5 -88.5t21 -94.5
q0 -7 -2 -16.5t-6 -21t-5 -16.5zM465 793q-78 0 -137 -63t-82 -173l432 10q-3 83 -62 154.5t-151 71.5z" />
    <glyph glyph-name="f" unicode="f" horiz-adv-x="661" 
d="M791 1296q-21 0 -58 21.5t-82.5 43t-85.5 21.5q-73 0 -111 -40t-53.5 -133t-15.5 -271v-119h107q145 0 170 6q4 2 7 -8q10 -28 2 -64q-2 -13 -7 -14q-46 4 -146 4h-133v-540q0 -74 14.5 -107t56 -48t134.5 -19q6 0 7 -22q-2 -16 -9 -15q-57 8 -273 8q-176 0 -235 -8
q-6 -2 -7 7q-3 18 5 29q1 1 2 1q41 5 59.5 7.5t40 10.5t28 17t14 29.5t8.5 44t1 65.5v540q-27 0 -90 1t-71 1q-5 -2 -8 8q-8 22 -3 39q1 3 2 3q131 7 170 26v78q0 258 139.5 431t334.5 173q60 0 116 -31t56 -55q0 -32 -31 -76.5t-55 -44.5z" />
    <glyph glyph-name="g" unicode="g" horiz-adv-x="927" 
d="M412 -555q-173 0 -274 73.5t-101 168.5q0 75 64.5 139.5t179.5 97.5q-59 27 -103.5 82t-44.5 86q0 21 33 38.5t91.5 36.5t78.5 28q-105 50 -168.5 133t-63.5 192q0 134 105.5 236t267.5 102q44 0 118 -12t118 -12q150 0 170 6q11 3 17 -17q10 -36 -2 -73q-7 -18 -17 -17
q-23 4 -121 4h-15q68 -81 68 -188q0 -102 -68 -190t-180 -126q-109 -38 -167 -61.5t-74.5 -35t-16.5 -21.5q0 -30 36.5 -52.5t107.5 -21.5l155 4q178 4 257 -56t79 -159q0 -80 -47.5 -153t-123.5 -123t-171 -79.5t-188 -29.5zM440 803q-92 0 -136 -60.5t-44 -167.5
q0 -140 71.5 -220.5t157.5 -80.5q81 0 124.5 58.5t43.5 161.5q0 145 -62.5 227t-154.5 82zM580 -90l-246 -6q-72 -33 -101.5 -73.5t-29.5 -100.5q0 -82 75.5 -139.5t219.5 -57.5q146 0 229.5 61t83.5 152q0 74 -62.5 120.5t-168.5 43.5z" />
    <glyph glyph-name="h" unicode="h" horiz-adv-x="1077" 
d="M836 0q-146 0 -205 -8q-5 -2 -6 7q-2 21 6 32q35 3 53 7.5t35 14t24 28.5t11 47.5t4 74.5v307q0 131 -35 190.5t-113 59.5q-51 0 -103 -21t-165 -88v-448q0 -104 21.5 -134t101.5 -38q5 0 7.5 -10t0 -20t-9.5 -9q-52 8 -191 8q-180 0 -237 -8q-5 -2 -7 7q-2 21 5 32
q42 4 60.5 6.5t40.5 10t29 16.5t15 29t9 44.5t1 65.5v987q0 96 -25 119.5t-102 -0.5q-7 -2 -12 11t2 19q5 3 32.5 17.5t37.5 20t36 19.5t39.5 22t35.5 21.5t36.5 23.5t31 22.5t28.5 23.5q1 2 8 -0.5t13 -7.5t5 -10q-10 -39 -10 -293l-2 -493q115 84 198.5 117.5t161.5 33.5
q110 0 159.5 -65.5t49.5 -190.5v-397q0 -40 1 -61.5t6.5 -43t14 -31t26.5 -18.5t41 -12t61 -6q6 0 6 -24q0 -16 -6 -15q-57 8 -225 8z" />
    <glyph glyph-name="i" unicode="i" horiz-adv-x="559" 
d="M319 1126q-36 0 -63 28t-27 65q0 39 28 68.5t67 29.5t67.5 -28.5t28.5 -65.5q0 -39 -29.5 -68t-71.5 -29zM297 0q-172 0 -231 -8q-9 -2 -5 25q2 12 5 12q41 5 59.5 7.5t40 10.5t28 17t14 29.5t8.5 44t1 65.5v346q0 96 -24.5 119t-102.5 -2q-7 -2 -12 11t2 19
q212 118 276 178q1 2 8.5 -0.5t14.5 -7.5t6 -10q-12 -49 -12 -299v-354q0 -42 1 -65.5t8 -44t13.5 -29.5t27.5 -17t39.5 -10.5t59.5 -7.5q6 0 6 -23q0 -15 -6 -14q-59 8 -225 8z" />
    <glyph glyph-name="j" unicode="j" horiz-adv-x="542" 
d="M319 1126q-38 0 -65 28t-27 65q0 39 28.5 69.5t68.5 30.5q39 0 66.5 -28.5t27.5 -65.5q0 -40 -29 -69.5t-70 -29.5zM373 557v-543q0 -84 -6 -146t-25.5 -115.5t-40 -90t-65.5 -80.5t-85 -76t-114 -86q-7 -5 -18 12t-9 19q91 93 132 160.5t58 156.5t17 246v535
q0 96 -25.5 119.5t-101.5 -0.5q-7 -2 -14 14q-6 13 2 14q209 114 278 178q1 2 8.5 -0.5t14.5 -7.5t6 -10q-12 -47 -12 -299z" />
    <glyph glyph-name="k" unicode="k" horiz-adv-x="989" 
d="M270 0q-176 0 -235 -8q-6 -2 -8 7q-1 19 6 30q42 5 60.5 7.5t40.5 10.5t29 17t15 29t9 44.5t1 65.5v987q0 95 -26 119.5t-101 -0.5q-7 -2 -13.5 12t1.5 18q210 110 279 170q1 2 8 -0.5t13 -7.5t5 -10q-12 -47 -12 -293v-995q0 -104 21.5 -134t101.5 -38q5 0 7.5 -10
t0 -20t-9.5 -9q-52 8 -193 8zM1016 -8q-52 8 -219 8q-136 0 -195 -8q-10 -2 -5 27q1 10 3 10q44 7 57.5 17t0 38.5t-67.5 85.5l-244 256l229 211q162 149 -14 168q-5 0 -5 23q-1 15 5 14q79 -8 180 -8q156 0 195 6q6 1 8.5 -8t0.5 -18t-5 -9q-66 -6 -135.5 -51.5
t-157.5 -128.5l-162 -152l306 -307q127 -127 229 -135q6 0 5 -23q-2 -17 -9 -16z" />
    <glyph glyph-name="l" unicode="l" horiz-adv-x="530" 
d="M262 0q-168 0 -227 -8q-9 -2 -5 25q2 12 5 12q41 5 59.5 7.5t40.5 10.5t28.5 17t14.5 29t9 44.5t1 65.5v987q0 96 -25 119.5t-102 -0.5q-7 -2 -12 11t2 19q5 3 32.5 17.5t37.5 20t36 19.5t39.5 22t35.5 21.5t36.5 23.5t31 22.5t28.5 23.5q1 2 8.5 -0.5t14 -7.5t5.5 -10
q-12 -47 -12 -293v-995q0 -42 1 -65.5t8 -44t14 -29.5t28 -17t39.5 -10.5t59.5 -7.5q6 0 6 -23q0 -15 -6 -14q-59 8 -232 8z" />
    <glyph glyph-name="m" unicode="m" horiz-adv-x="1640" 
d="M1595 -8q-57 8 -198 8q-148 0 -205 -8q-5 -2 -6 7q-2 21 6 32q35 3 53 7.5t35 14t24 28.5t11 47.5t4 74.5v295q0 137 -33 193.5t-106 56.5q-110 0 -262 -103q4 -28 4 -45v-397q0 -105 22.5 -135.5t106.5 -36.5q6 0 5 -23q-2 -17 -9 -16q-57 8 -193 8q-154 0 -213 -8
q-10 -2 -4 28q2 11 4 11q44 4 65 9.5t37.5 24t20.5 49.5t4 89v307q0 140 -33 195t-117 55q-68 0 -247 -109v-448q0 -104 21.5 -134.5t103.5 -37.5q6 0 6 -23q-1 -17 -8 -16q-57 8 -193 8q-178 0 -235 -8q-5 -2 -7 7q-2 20 4 32q31 3 46.5 5t35.5 6.5t28 8.5t18.5 13.5
t13.5 20t7 29t4.5 38.5t0.5 51v344q0 97 -24.5 121t-102.5 -2q-7 -2 -13.5 13t1.5 19q130 68 254 176q1 2 7 -0.5t12 -7.5t7 -10q7 -58 11 -156q96 68 187.5 112t148.5 44q85 0 135.5 -40t70.5 -124q92 69 184.5 111.5t164.5 42.5q108 0 160.5 -62.5t52.5 -195.5v-385
q0 -106 21 -136t105 -36q6 0 5 -23q-2 -17 -9 -16z" />
    <glyph glyph-name="n" unicode="n" horiz-adv-x="1105" 
d="M864 0q-146 0 -205 -8q-5 -2 -6 7q-2 21 6 32q44 4 64.5 9.5t37 24t21 49.5t4.5 89v307q0 136 -30.5 193t-116.5 57q-51 0 -103 -21t-165 -88v-448q0 -104 21.5 -134.5t103.5 -37.5q6 0 6 -23q-1 -17 -8 -16q-57 8 -193 8q-178 0 -235 -8q-5 -2 -7 7q-2 20 4 32
q31 3 46.5 5t35.5 6.5t28 8.5t18.5 13.5t13.5 20t7 29t4.5 38.5t0.5 51v344q0 97 -24.5 121t-102.5 -2q-7 -2 -13.5 13t1.5 19q130 68 254 176q1 2 7 -0.5t12 -7.5t7 -10q7 -58 11 -156q125 86 207.5 121t154.5 35q110 0 159.5 -65.5t49.5 -190.5v-397q0 -40 1 -61.5
t6.5 -43t14 -31t26.5 -18.5t41 -12t61 -6q6 0 4 -24q-1 -16 -7 -15q-52 8 -223 8z" />
    <glyph glyph-name="o" unicode="o" horiz-adv-x="1048" 
d="M512 -29q-130 0 -231.5 61t-154 157.5t-52.5 209.5q0 89 32 171t90 146t146.5 102t192.5 38q98 0 182 -35.5t140 -95t88 -136.5t32 -161q0 -89 -33 -171t-91.5 -146t-147.5 -102t-193 -38zM489 797q-120 0 -184.5 -91.5t-64.5 -224.5q0 -209 86.5 -328.5t232.5 -119.5
q80 0 137.5 44.5t84 114t26.5 154.5q0 209 -87 330t-231 121z" />
    <glyph glyph-name="p" unicode="p" horiz-adv-x="1073" 
d="M479 -29q-65 0 -133 19v-307q0 -40 2 -64t11 -44.5t20.5 -30t38 -16.5t55 -9t80.5 -4q5 0 6.5 -18.5t-6.5 -18.5q-41 3 -138.5 3.5t-138.5 -1.5q-135 -3 -213 -17q-4 -2 -6 6q-3 20 4 29q35 5 54 8.5t35.5 13t23 17.5t11 31.5t5 44t0.5 65.5v373q-13 6 -39 21.5t-34 19.5
l73 109v346q0 96 -26 120.5t-103 -1.5q-2 -1 -6 5t-5 13t3 12q133 74 254 183q1 2 7.5 0t13.5 -7t8 -10q3 -14 4 -39t1 -58.5t1 -49.5q153 123 295 123q155 0 261 -114t106 -273q0 -85 -41 -171t-109.5 -154.5t-167.5 -111.5t-207 -43zM549 727q-95 0 -203 -63v-533
q122 -68 254 -68q106 0 171 92.5t65 250.5q0 151 -85.5 236t-201.5 85z" />
    <glyph glyph-name="q" unicode="q" horiz-adv-x="1056" 
d="M827 -520q-129 -3 -206 -17q-4 -2 -6 6q-3 20 3 31q33 4 51 8t34.5 12.5t23.5 18.5t13 31t7 45.5t1 65.5v387q-117 -97 -289 -97q-50 0 -102.5 15.5t-103 48t-90.5 78t-64.5 111.5t-24.5 143q0 88 38 173t101.5 151t155.5 106.5t192 40.5q118 0 225 -66q41 37 93 102
q6 7 21 0t13 -16q-10 -52 -10 -190v-985q0 -41 1 -62.5t7.5 -43.5t16.5 -31t31.5 -17.5t49 -11t72.5 -4.5q6 0 6 -22q-2 -16 -8 -15q-27 4 -119.5 5t-132.5 -1zM748 606q-45 66 -117 105t-156 39q-110 0 -174.5 -74t-64.5 -221q0 -96 29 -172.5t75.5 -121.5t101 -68
t111.5 -23q116 0 195 59v477z" />
    <glyph glyph-name="r" unicode="r" horiz-adv-x="743" 
d="M670 662q-12 0 -61 30.5t-83 30.5t-68.5 -23t-84.5 -82v-415q0 -56 5.5 -85t28.5 -50.5t61 -28.5t110 -10q5 0 4 -22q-2 -16 -9 -15q-57 8 -270 8q-178 0 -237 -8q-9 -2 -5 25q2 12 5 12q41 5 59.5 7.5t40 10.5t28 17t14 29.5t8.5 44t1 65.5v346q0 96 -25.5 119.5
t-103.5 -2.5q-2 -1 -6 5t-5 13t3 12q139 78 254 181q1 2 8 -1t13.5 -8t6.5 -8q8 -59 11 -178q85 99 153.5 148t108.5 49t75 -40.5t35 -64.5q0 -29 -28.5 -70.5t-46.5 -41.5z" />
    <glyph glyph-name="s" unicode="s" horiz-adv-x="735" 
d="M350 -29q-131 0 -248 62q-12 6 -12 233q0 5 15.5 5.5t21.5 -1.5q35 -126 103.5 -185.5t154.5 -59.5q143 0 143 141q0 55 -41.5 99.5t-101 78t-119.5 68.5t-101.5 86.5t-41.5 115.5q0 99 79 170.5t214 71.5q107 0 182 -37q8 -5 17.5 -77t9.5 -134q0 -4 -18.5 -4.5
t-20.5 2.5q-28 89 -88.5 145t-126.5 56q-54 0 -83.5 -34.5t-29.5 -94.5q0 -38 22 -70.5t57.5 -56t78 -46.5t85.5 -47.5t78.5 -53.5t57.5 -70.5t22 -91.5q0 -111 -87.5 -191t-221.5 -80z" />
    <glyph glyph-name="t" unicode="t" horiz-adv-x="690" 
d="M406 -29q-101 0 -147 49t-44 154l8 557q-109 0 -129 -2q-6 -1 -9.5 8t-3 18t2.5 11q128 86 278 250q1 1 8.5 -0.5t14.5 -5.5t6 -9q-2 -17 -5 -51.5t-6.5 -75t-4.5 -55.5h108q154 0 181 8q4 2 6 -7q8 -27 -3 -70q-7 -27 -18 -25q-35 6 -139 6h-135l-8 -510
q-1 -85 36.5 -120t108.5 -35q68 0 150 20q4 0 10 -13.5t0 -19.5q-61 -37 -139.5 -59.5t-126.5 -22.5z" />
    <glyph glyph-name="u" unicode="u" horiz-adv-x="1050" 
d="M786 -33q-27 0 -44.5 47.5t-18.5 128.5q-73 -72 -164 -122t-166 -50q-104 0 -167 65t-62 191l6 389q2 78 -19 98t-110 23q-4 0 -8.5 14.5t2.5 16.5q144 26 252 90q1 2 7.5 -1.5t13 -9.5t7.5 -11q7 -65 7 -197l-5 -322q-1 -142 33 -193.5t127 -51.5q106 0 246 123l6 432
q2 78 -18 98.5t-109 26.5q-3 0 -7 8.5t-4.5 15.5t3.5 8q150 24 254 82q3 0 14.5 -9.5t11.5 -14.5q7 -65 7 -203l-4 -467q0 -70 35.5 -84t127.5 12q1 1 3.5 -2.5t4.5 -8t3.5 -10t1 -9t-3.5 -4.5q-69 -35 -150 -67t-113 -32z" />
    <glyph glyph-name="v" unicode="v" horiz-adv-x="897" 
d="M750 629l-265 -649q-4 -10 -22 -11t-21 8l-266 652q-39 99 -80 134.5t-119 41.5q-5 0 -7 9t1.5 18t10.5 8q39 -6 211 -6q131 0 210 8q9 2 5 -25q-2 -12 -5 -12q-55 -6 -76.5 -20t-20 -48t29.5 -104l176 -436l176 436q38 98 24.5 130.5t-91.5 41.5q-6 0 -8 22q-1 16 8 15
q79 -8 167 -8q119 0 158 6q6 1 8.5 -8t0.5 -18t-5 -9q-81 -6 -120.5 -42.5t-79.5 -133.5z" />
    <glyph glyph-name="w" unicode="w" horiz-adv-x="1398" 
d="M1253 629l-266 -649q-4 -12 -22 -12t-21 9l-217 594l-240 -591q-4 -10 -22 -11t-21 8l-266 652q-39 99 -80 134.5t-118 41.5q-5 0 -7 9t1 18t10 8q37 -6 209 -6q134 0 213 8q10 2 4 -27q-2 -10 -4 -10q-55 -6 -76.5 -20t-20.5 -48.5t29 -103.5l176 -436l184 456
q-35 85 -72.5 115.5t-111.5 36.5q-6 0 -7 21q2 15 9 14q43 -6 213 -6q132 0 211 8q9 2 5 -25q-2 -12 -5 -12q-55 -6 -77.5 -20.5t-23 -49t24.5 -102.5l154 -426l170 426q27 68 28.5 102t-20 49t-76.5 21q-5 0 -5 23q-1 15 5 14q79 -8 168 -8q121 0 160 6q6 1 8.5 -8t1 -18
t-3.5 -9q-82 -6 -121.5 -42.5t-79.5 -133.5z" />
    <glyph glyph-name="x" unicode="x" horiz-adv-x="937" 
d="M932 -8q-49 8 -213 8q-117 0 -168 -8q-5 -2 -7 7q-4 20 3 32q25 4 39 8.5t24 13.5t8.5 23.5t-13.5 37.5t-36 56q-109 157 -127 180l-123 -151q-43 -53 -56 -86.5t6 -54.5t77 -27q6 0 6 -24q0 -16 -6 -15q-57 8 -137 8q-137 0 -189 -8q-9 -2 -7 26q2 13 5 13q51 3 107 41
t135 135l152 186q1 1 -50 69.5t-102 137.5l-51 68q-92 129 -193 137q-5 0 -4 23q0 15 6 14q52 -8 199 -8q116 0 189 8q12 2 6 -25q-2 -12 -6 -12q-43 -7 -59 -17t-9.5 -39.5t45.5 -84.5l117 -162l110 133q31 37 46 64.5t16 50t-21 36.5t-67 19q-6 0 -8 22q-1 16 8 15
q73 -8 147 -8q124 0 176 8q3 1 4.5 -3t2 -9.5t0.5 -11t-1 -9.5t-2 -4q-63 -5 -117.5 -50t-123.5 -128l-138 -168l211 -293q90 -127 193 -135q1 0 2 -4t1 -10t-0.5 -12t-2 -10t-4.5 -3z" />
    <glyph glyph-name="y" unicode="y" horiz-adv-x="878" 
d="M733 629q-5 -13 -55 -125t-94.5 -222t-98.5 -254t-93 -288t-52 -258q-21 -1 -76.5 -1t-73.5 -1q-82 -3 -129 -12q-3 -1 -5.5 2.5t-3.5 9t-1 11t1 9.5t3 4q68 11 129 60q89 68 168 276l56 144l-232 645q-35 100 -77 135t-122 41q-5 0 -7 9t1.5 18t10.5 8q39 -6 211 -6
q126 0 202 8q12 2 6 -25q-2 -12 -6 -12q-79 -9 -91.5 -39t22.5 -133l157 -463l191 463q38 98 23.5 130.5t-95.5 41.5q-6 0 -6 23q0 15 6 14q79 -8 170 -8q108 0 160 8q3 1 4.5 -3t2 -9.5t0.5 -11t-1 -9.5t-2 -4q-81 -6 -122.5 -43t-80.5 -133z" />
    <glyph glyph-name="z" unicode="z" horiz-adv-x="884" 
d="M788 23q-5 -16 -11.5 -22.5t-22.5 -6.5q-20 0 -121.5 3t-161.5 3q-293 0 -399 -6q-8 0 -13 10t0 16l541 760h-219q-58 0 -100 -14.5t-69 -45t-43 -64t-32 -85.5q-20 0 -33 9q-3 2 -2 4q18 91 23 127q10 85 10 129q108 -6 289 -6q236 0 377 8q7 0 12 -11.5t0 -19.5
l-537 -752h273q102 0 169 69.5t81 172.5q0 2 9.5 2.5t19.5 -0.5t10 -4q0 -28 -21 -139t-29 -137z" />
    <glyph glyph-name="braceleft" unicode="{" horiz-adv-x="673" 
d="M608 -664q-178 60 -270 157t-92 196q0 44 19.5 100.5t43 103.5t43 107.5t19.5 112.5q0 133 -65 212.5t-220 92.5q-14 1 -19.5 10.5t0 19.5t19.5 11q155 14 220 94.5t65 212.5q0 52 -19.5 112.5t-43 107.5t-43 103.5t-19.5 100.5q0 99 92 195.5t270 156.5q4 1 9.5 -8.5
t6.5 -19t-6 -13.5q-89 -36 -143.5 -94t-54.5 -113q0 -48 21 -120.5t42 -157t21 -162.5q0 -144 -83 -256t-243 -160q151 -35 238.5 -152.5t87.5 -260.5q0 -78 -21 -163t-42 -157.5t-21 -120.5q0 -55 54 -112t144 -93q7 -4 6 -14t-6.5 -20t-9.5 -9z" />
    <glyph glyph-name="bar" unicode="|" horiz-adv-x="1626" 
d="M1634 1272q-41 8 -94 8q-163 0 -301.5 -123t-217.5 -325.5t-79 -430.5v-51v-127.5t7.5 -83t15.5 -58t33.5 -28.5t52 -19.5t79.5 -6.5q5 0 7.5 -10.5t0 -20.5t-9.5 -8q-99 12 -254 12q-198 0 -301 -12q-9 -1 -10.5 9t2 20t6.5 10q103 10 130 23q42 20 53 83q10 53 10 217
v51q0 183 -51 347.5t-135 279t-196 181.5t-230 67q-26 0 -76 -4q-6 0 -11 15t7 20q101 36 207 36q110 0 210.5 -45.5t177 -124.5t132.5 -181.5t86 -219.5q84 243 252 401t362 158q71 0 141 -24q8 -4 7.5 -12t-5.5 -16t-8 -7z" />
    <glyph glyph-name="braceright" unicode="}" horiz-adv-x="673" 
d="M305 113q0 -52 19.5 -112.5t43 -107.5t43 -103.5t19.5 -100.5q0 -99 -93.5 -196t-270.5 -157q-4 -1 -11 8t-8 19t10 16q89 37 145 94t56 111q0 48 -21.5 120.5t-43 157.5t-21.5 163q0 93 36.5 177t111.5 148t176 88q-160 48 -242 160t-82 256q0 78 21.5 162.5t43 157
t21.5 120.5q0 54 -56 112t-145 95q-11 6 -10 15.5t8 18t11 7.5q177 -60 270.5 -157t93.5 -195q0 -44 -19.5 -100.5t-43 -103.5t-43 -107.5t-19.5 -112.5q0 -133 64.5 -213t218.5 -94q14 -1 19.5 -11t0 -19.5t-19.5 -10.5q-154 -13 -218.5 -92.5t-64.5 -212.5z" />
    <glyph glyph-name="asciitilde" unicode="~" horiz-adv-x="778" 
d="M543 565q-49 0 -156 40t-172 40q-101 0 -129 -135q-7 -2 -23 2t-16 8q9 98 67 153.5t148 55.5q45 0 150.5 -37t156.5 -37q49 0 78 24.5t45 94.5q0 1 10 -0.5t19.5 -4.5t9.5 -7q-8 -90 -56.5 -143.5t-131.5 -53.5z" />
    <glyph glyph-name="quotesinglbase" 
d="M72 -250q-6 0 -7.5 10t0.5 19.5t5 9.5q90 4 136 40.5t46 78.5q0 29 -19 50.5t-61 43.5q-34 17 -50 34t-16 44q0 32 25 53t59 21q60 0 105 -46.5t45 -125.5q0 -98 -74.5 -161t-193.5 -71z" />
    <glyph glyph-name="florin" horiz-adv-x="1015" 
d="M961 915q-49 51 -104 87t-99 36q-53 0 -82.5 -28.5t-52.5 -122.5t-39 -281l268 6q8 0 8.5 -24t-6.5 -29l-274 4v-4q-18 -235 -44.5 -376.5t-61.5 -219.5t-97 -151q-78 -92 -148.5 -129t-150.5 -37q-79 0 -143 41.5t-68 101.5q-2 30 7.5 54t25 36t32.5 20t30 6.5t18 -5.5
q48 -62 107 -100t110 -38q101 0 145 134q33 103 53 450q5 104 19 217l-232 -4q-7 5 -6.5 29t8.5 24q250 -10 250 -12l-14 2q44 253 137 369q68 87 159 141.5t183 54.5q68 0 113.5 -40.5t50.5 -94.5q4 -41 -20.5 -71.5t-50.5 -40.5t-31 -5z" />
    <glyph glyph-name="quotedblbase" horiz-adv-x="784" 
d="M381 -250q-5 0 -7 10t0 19.5t5 9.5q90 4 136 40.5t46 78.5q0 29 -18 50.5t-60 43.5q-36 19 -50.5 34.5t-14.5 43.5q0 32 24 53t58 21q60 0 104.5 -46.5t44.5 -125.5q0 -98 -74.5 -161t-193.5 -71zM72 -250q-6 0 -7.5 10t0.5 19.5t5 9.5q90 4 136 40.5t46 78.5
q0 29 -19 50.5t-61 43.5q-34 17 -50 34t-16 44q0 32 25 53t59 21q60 0 105 -46.5t45 -125.5q0 -98 -74.5 -161t-193.5 -71z" />
    <glyph glyph-name="ellipsis" unicode="&#x85;" horiz-adv-x="1175" 
d="M956 -31q-35 0 -59.5 25.5t-24.5 58.5q0 35 26 61.5t65 26.5q35 0 60.5 -25.5t25.5 -58.5q0 -34 -27.5 -61t-65.5 -27zM586 -31q-35 0 -59.5 25.5t-24.5 58.5q0 35 25.5 61.5t62.5 26.5q36 0 61 -25.5t25 -58.5q0 -35 -26.5 -61.5t-63.5 -26.5zM215 -31q-36 0 -60 25.5
t-24 58.5q0 35 25 61.5t63 26.5q36 0 61 -25.5t25 -58.5q0 -35 -26.5 -61.5t-63.5 -26.5z" />
    <glyph glyph-name="dagger" horiz-adv-x="907" 
d="M477 913l4 -936q0 -7 -27.5 -6.5t-27.5 6.5l6 936l-369 -4q-6 0 -6 27t6 27l369 -7l-6 381q0 6 26.5 6.5t26.5 -6.5l-4 -381l369 7q6 0 6.5 -27t-6.5 -27z" />
    <glyph glyph-name="daggerdbl" horiz-adv-x="907" 
d="M475 358l4 -381q0 -7 -26.5 -6.5t-26.5 6.5l4 381l-367 -4q-7 0 -8.5 27t8.5 27l367 -7v512l-367 -4q-10 0 -8.5 27t8.5 27l367 -7l-4 381q0 6 26.5 6.5t26.5 -6.5l-4 -381l367 7q8 0 8 -27t-8 -27l-365 4v-512l365 7q8 0 8 -27t-8 -27z" />
    <glyph glyph-name="circumflex" horiz-adv-x="608" 
d="M530 956l-231 301l-221 -301q-6 -6 -15 -6t-15 6.5t-1 14.5l240 415q5 7 17.5 6.5t17.5 -8.5l241 -413q4 -7 -2 -14t-14.5 -8t-16.5 7z" />
    <glyph glyph-name="perthousand" horiz-adv-x="1675" 
d="M403 575q-87 -65 -145 -65q-60 0 -110 68.5t-50 185.5q0 101 48.5 193.5t132.5 152.5q96 68 145 68q60 0 110 -69.5t50 -186.5q0 -99 -49.5 -193t-131.5 -154zM586 565l-381 -622q-5 -3 -16.5 0t-22.5 9.5t-8 10.5l389 619l383 624q3 4 16 0t23.5 -11t7.5 -11zM1395 39
q-96 -68 -146 -68q-60 0 -111 69.5t-51 188.5q0 100 49 192t134 154q92 68 143 68q60 0 111 -70.5t51 -187.5q0 -99 -48.5 -191.5t-131.5 -154.5zM856 39q-96 -68 -145 -68q-60 0 -110 69.5t-50 188.5q0 99 48 191.5t132 154.5q92 68 143 68q60 0 111 -70.5t51 -187.5
q0 -99 -48.5 -191.5t-131.5 -154.5zM352 1083q-48 0 -84.5 -73.5t-36.5 -196.5q0 -101 27 -155t72 -54q47 0 84 72.5t37 195.5q0 101 -27 156t-72 55zM1343 547q-49 0 -84.5 -72t-35.5 -196q0 -103 25.5 -157t70.5 -54q48 0 84.5 72.5t36.5 195.5q0 101 -26 156t-71 55z
M805 547q-49 0 -85 -72t-36 -196q0 -103 25.5 -157t70.5 -54q49 0 86 72t37 196q0 101 -26.5 156t-71.5 55z" />
    <glyph glyph-name="Scaron" horiz-adv-x="1093" 
 />
    <glyph glyph-name="guilsinglleft" horiz-adv-x="655" 
d="M522 178l-426 236q-5 4 -5.5 17t7.5 18l424 233q9 5 16.5 -0.5t7.5 -14t-9 -16.5l-308 -225l308 -215q9 -8 8 -16.5t-8.5 -14.5t-14.5 -2z" />
    <glyph glyph-name="OE" horiz-adv-x="2127" 
d="M1966 33q-9 -27 -19.5 -35t-35.5 -8q-29 0 -151 5t-208 5q-112 0 -351 -10t-308 -10q-180 0 -326 51.5t-240.5 141.5t-145 208.5t-50.5 255.5q0 139 60 267t163.5 223t251 151.5t314.5 56.5q68 0 289.5 -10t332.5 -10q244 0 416 14q-16 -45 -16 -119v-75q2 -5 -7 -6
q-21 -3 -28 4q-9 48 -34.5 71t-93 34t-202.5 11h-195q-12 -76 -12 -274v-262h213q34 0 60.5 0.5t47.5 1t36.5 3.5t27 4t19.5 6t12.5 6.5t8 9.5t4.5 10t3.5 13t3.5 15q3 5 27 2q11 -2 10 -6q-12 -47 -12 -127q0 -64 2 -80q2 -3 -6 -5q-22 -3 -33 3q-6 36 -18.5 52t-57 26
t-135.5 10h-213v-299q0 -100 6 -157.5t23.5 -87t39 -37.5t60.5 -8h109q81 0 133.5 2t92.5 10.5t61 17t37 30t22.5 42t15.5 59.5q0 1 4 2t9 0.5t10.5 -1t9 -2.5t2.5 -5q-21 -135 -39 -190zM1192 1038q0 54 -3.5 87.5t-17 62.5t-33.5 43.5t-59.5 25.5t-89.5 14t-127 3
q-111 0 -210.5 -40t-174.5 -112.5t-119.5 -181.5t-44.5 -238q0 -306 168.5 -482.5t454.5 -176.5q86 0 135 10t77 39t36 69.5t8 114.5v762z" />
    <glyph glyph-name="Zcaron" horiz-adv-x="1433" 
 />
    <glyph glyph-name="quoteleft" 
d="M162 1188q0 -29 17.5 -50.5t58.5 -43.5q37 -19 52 -35t15 -43q0 -31 -24.5 -51.5t-59.5 -20.5q-60 0 -103.5 45.5t-43.5 124.5q0 98 73 162t193 72q6 0 7.5 -10t-0.5 -19.5t-5 -9.5q-89 -4 -134.5 -41.5t-45.5 -79.5z" />
    <glyph glyph-name="quoteright" 
d="M72 956q-6 0 -7.5 10t0.5 19.5t5 9.5q90 4 136 40.5t46 78.5q0 29 -19 50.5t-61 43.5q-34 17 -50 34t-16 44q0 32 25 53t59 21q60 0 105 -46.5t45 -125.5q0 -98 -74.5 -161t-193.5 -71z" />
    <glyph glyph-name="quotedblleft" horiz-adv-x="741" 
d="M473 1188q0 -29 18 -50.5t60 -43.5q34 -17 50.5 -34t16.5 -44q0 -31 -25.5 -51.5t-60.5 -20.5q-60 0 -103.5 45.5t-43.5 124.5q0 98 73.5 162t192.5 72q6 0 7.5 -10t-0.5 -19.5t-5 -9.5q-89 -4 -134.5 -41.5t-45.5 -79.5zM164 1188q0 -29 17.5 -50.5t58.5 -43.5
q37 -19 52 -35t15 -43q0 -31 -24.5 -51.5t-59.5 -20.5q-60 0 -103.5 45.5t-43.5 124.5q0 98 73.5 162t192.5 72q6 0 7.5 -10t-0.5 -19.5t-5 -9.5q-89 -4 -134.5 -41.5t-45.5 -79.5z" />
    <glyph glyph-name="quotedblright" horiz-adv-x="741" 
d="M381 956q-5 0 -7 10t0 19.5t5 9.5q90 4 136 40.5t46 78.5q0 29 -18 50.5t-60 43.5q-36 19 -50.5 34.5t-14.5 43.5q0 32 24 53t58 21q60 0 104.5 -46.5t44.5 -125.5q0 -98 -74.5 -161t-193.5 -71zM72 956q-6 0 -7.5 10t0.5 19.5t5 9.5q90 4 136 40.5t46 78.5
q0 29 -19 50.5t-61 43.5q-34 17 -50 34t-16 44q0 32 25 53t59 21q60 0 105 -46.5t45 -125.5q0 -98 -74.5 -161t-193.5 -71z" />
    <glyph glyph-name="bullet" 
d="M215 584q-36 0 -60 24.5t-24 57.5q0 35 25 61.5t63 26.5q36 0 61 -25.5t25 -58.5q0 -34 -26 -60t-64 -26z" />
    <glyph glyph-name="endash" horiz-adv-x="1349" 
d="M674 530l-527 -6q-7 0 -7 30t7 30l527 -9l528 9q6 0 6 -30t-6 -30z" />
    <glyph glyph-name="emdash" horiz-adv-x="1875" 
d="M938 530l-791 -6q-7 0 -7 30t7 30l791 -6l791 6q7 0 7 -30t-7 -30z" />
    <glyph glyph-name="tilde" horiz-adv-x="778" 
d="M543 1026q-49 0 -156 40t-172 40q-101 0 -129 -135q-7 -2 -23 2t-16 8q9 98 67 153.5t148 55.5q45 0 150.5 -37t156.5 -37q49 0 78 24.5t45 94.5q0 1 10 -0.5t19.5 -4.5t9.5 -7q-8 -90 -56.5 -143.5t-131.5 -53.5z" />
    <glyph glyph-name="trademark" horiz-adv-x="1183" 
d="M477 1262v-45q2 -3 -17 -5q-16 -1 -16 2q-5 31 -21.5 45.5t-62.5 14.5h-51v-256q0 -57 11 -74t51 -20q3 -2 2 -16.5t-4 -14.5q-40 4 -93 4q-77 0 -106 -4q-4 0 -4.5 14.5t2.5 16.5q41 5 52 21t11 73v256h-57q-44 0 -61.5 -15.5t-24.5 -46.5q-5 -2 -18 0t-13 5q4 20 4 69
q0 31 -4 45l27 4q3 -14 18.5 -17t71.5 -3h186q53 0 70.5 3t20.5 17q30 -2 30 -4q-4 -14 -4 -69zM1020 897q-75 0 -100 -4q-3 0 -3 16.5t3 16.5q36 3 46 19.5t9 72.5l-4 201l-142 -322q-4 -2 -15.5 -1.5t-12.5 3.5l-146 318l-4 -199q-2 -52 10 -71.5t52 -22.5q3 -2 2.5 -16.5
t-4.5 -14.5q-36 4 -72 4q-65 0 -90 -4q-5 -2 -5 19q0 12 3 12q38 4 50.5 22.5t14.5 71.5l4 209q0 23 -19 41t-50 22q-3 0 -3 16.5t3 16.5q31 -6 145 -6l144 -313l82 192q40 95 47 119q81 0 147 8q3 0 3 -16.5t-3 -16.5q-46 -4 -56.5 -20.5t-8.5 -73.5l4 -178
q2 -58 12.5 -73.5t54.5 -18.5q4 0 5 -16.5t-5 -16.5q-40 4 -98 4z" />
    <glyph glyph-name="scaron" horiz-adv-x="735" 
 />
    <glyph glyph-name="guilsinglright" horiz-adv-x="655" 
d="M133 178q-7 -4 -14.5 2t-8 14.5t8.5 16.5l307 215l-307 225q-9 8 -9.5 16.5t7 14t16.5 0.5l424 -233q8 -5 6.5 -18t-6.5 -17z" />
    <glyph glyph-name="oe" horiz-adv-x="1622" 
d="M1217 -29q-111 0 -199.5 50.5t-143.5 136.5q-60 -86 -152.5 -136.5t-209.5 -50.5q-188 0 -313 128t-125 300q0 119 56.5 222.5t164 169t240.5 65.5q118 0 210 -52.5t146 -141.5q64 89 158.5 141.5t195.5 52.5q136 0 221.5 -89t85.5 -200q0 -9 -5.5 -28t-6.5 -25l-569 -12
q-1 -8 -1 -18t0.5 -22t0.5 -18q0 -102 27.5 -178t74.5 -118t100 -62t113 -20q140 0 250 86q1 2 8 -4.5t10.5 -14t-0.5 -12.5q-58 -69 -150 -109.5t-187 -40.5zM1200 801q-83 0 -142.5 -70t-80.5 -186l414 12q-5 91 -58 167.5t-133 76.5zM489 797q-120 0 -184.5 -91.5
t-64.5 -224.5q0 -209 86.5 -328.5t232.5 -119.5q118 0 180 89.5t62 223.5q0 210 -84.5 330.5t-227.5 120.5z" />
    <glyph glyph-name="zcaron" horiz-adv-x="884" 
 />
    <glyph glyph-name="Ydieresis" horiz-adv-x="1562" 
d="M1102 963l-223 -312v-301q0 -90 0.5 -126.5t7.5 -83t15.5 -58.5t33.5 -28.5t52.5 -19.5t80.5 -7q3 0 6 -10t1 -20t-11 -9q-94 12 -254 12q-198 0 -301 -12q-7 -2 -8.5 8t1 20.5t5.5 10.5q103 11 130 24q41 19 53 80q9 51 9 219v283l-184 282q-55 84 -89.5 134t-71 95.5
t-62 68t-59 41t-65 26t-77.5 12.5q-9 2 -10 22q1 14 10 13q103 -12 301 -12q157 0 252 12q9 1 11 -8t-1 -18t-6 -9q-97 -9 -111 -43q-14 -35 49 -139q27 -45 122 -186l137 -205l176 252q127 182 148 222q29 57 0 76q-20 14 -99 23q-9 2 -10 22q1 14 10 13q103 -12 252 -12
q87 0 186 12q9 1 11.5 -8t-1 -18t-8.5 -9q-46 -4 -77 -9.5t-64.5 -23t-55.5 -35t-59 -60.5t-66.5 -82.5t-86.5 -118.5zM1055 1505q-41 0 -69 27.5t-28 64.5q0 39 29 69t72 30q40 0 68 -28t28 -66q0 -39 -29 -68t-71 -29zM672 1505q-41 0 -70 27.5t-29 64.5q0 39 30 69t73 30
q39 0 67.5 -28.5t28.5 -65.5q0 -39 -29 -68t-71 -29z" />
    <glyph glyph-name="exclamdown" unicode="&#xa1;" horiz-adv-x="514" 
d="M252 668q-35 0 -59.5 24.5t-24.5 57.5q0 35 25.5 61.5t64.5 26.5q35 0 60.5 -25.5t25.5 -58.5q0 -35 -26.5 -60.5t-65.5 -25.5zM152 -420q11 421 86 922q2 7 21.5 5t19.5 -7q0 -439 53 -889q3 -21 -42 -35t-91.5 -13t-46.5 17z" />
    <glyph glyph-name="cent" unicode="&#xa2;" horiz-adv-x="847" 
d="M487 -27l-6 -94q0 -6 -12.5 -7.5t-24.5 1t-12 8.5l6 92q-159 7 -261.5 119.5t-102.5 276.5q0 163 121 299t303 174l8 112q0 6 12.5 8t25 -1.5t11.5 -10.5l-8 -100q5 0 32.5 3t43.5 3q70 0 117.5 -24t47.5 -48q0 -29 -26 -71.5t-47 -42.5q-25 0 -84.5 28.5t-91.5 38.5
l-45 -665q6 0 17.5 -1t16.5 -1q134 0 252 88q3 2 10 -4.5t10 -14t-1 -12.5q-137 -141 -312 -154zM469 750q-120 0 -176.5 -72.5t-56.5 -226.5q0 -151 57.5 -244.5t150.5 -126.5l48 668q0 3 -3.5 3.5t-10.5 -0.5t-9 -1z" />
    <glyph glyph-name="sterling" unicode="&#xa3;" horiz-adv-x="1394" 
d="M1108 -356q-74 0 -155.5 30t-153 73.5t-140 86.5t-139 73t-127.5 30q-10 0 -14.5 -2t-11.5 -3q-51 -143 -122 -215.5t-149 -72.5q-60 0 -99.5 35.5t-39.5 78.5q0 31 19.5 66t60.5 71.5t119 63t180 33.5q26 70 63 284l-293 -4q-12 0 -12 27t12 27q314 -13 314 -15l-14 2
q34 211 59 308q50 203 172 350q72 87 167.5 141.5t188.5 54.5q68 0 112 -41t44 -94q0 -41 -27.5 -71.5t-54.5 -40.5t-31 -5q-44 49 -98 83t-100 34q-38 0 -64 -13t-48.5 -43.5t-41.5 -94t-36.5 -152t-39.5 -229.5q-15 -94 -39 -183l344 9q12 0 11.5 -27t-11.5 -27
q-23 1 -59.5 2t-114.5 4t-130 4.5t-52 0.5q-58 -179 -170 -293v-2q6 0 12 1t17 1q81 0 172.5 -22.5t171 -55t154 -64.5t145 -54.5t121.5 -22.5q60 0 88 32.5t28 85.5q0 45 -37 82.5t-104 57.5q-2 2 -2.5 10t4.5 16.5t12 7.5q89 -14 146 -72.5t57 -123.5q0 -37 -14.5 -74
t-44 -71.5t-83 -56t-122.5 -21.5z" />
    <glyph glyph-name="currency" unicode="&#xa4;" horiz-adv-x="1417" 
d="M23 637q-7 0 -7 26.5t7 26.5q186 -10 186 -12l-14 2q26 97 85.5 184t142.5 154.5t195 107t234 39.5q111 0 227 -33.5t150 -60.5q11 -9 23.5 -95t15.5 -169q0 -7 -18.5 -7t-20.5 5q-11 52 -45.5 104t-86.5 96t-127.5 71.5t-160.5 27.5q-184 0 -307 -111t-146 -309h37
l373 6q6 0 6 -26.5t-6 -26.5l-373 6h-39v-39q0 -60 6 -119h33l373 7q6 0 6 -27t-6 -27l-373 6q-2 1 -4.5 1.5t-8 2.5t-9.5 3t-4 0q28 -137 105 -235.5t176.5 -144.5t211.5 -46q138 0 244.5 83.5t134.5 213.5q1 5 19 3.5t18 -8.5q-5 -86 -17 -170.5t-22 -91.5
q-129 -96 -393 -96q-133 0 -249.5 38t-200 104t-138 153t-72.5 186l-161 -2q-7 0 -7 27t7 27l153 -5q-2 16 -2 52q0 57 12 110q0 1 -41 -2t-81 -7z" />
    <glyph glyph-name="yen" unicode="&#xa5;" horiz-adv-x="1347" 
d="M1343 1094q-50 8 -79 8q-166 0 -297 -145t-185 -367l375 6q7 0 7 -26.5t-7 -26.5l-383 4q-14 -69 -20 -158l403 8q7 0 7 -26.5t-7 -26.5l-401 6v-2v-45q0 -66 1 -101t7.5 -70t15.5 -49.5t30 -28t47 -18t69 -7.5q7 0 7 -24q0 -16 -7 -15q-92 10 -236 10q-200 0 -276 -10
q-5 -2 -6 7q-2 21 6 32q33 3 52 6t40 9.5t30.5 13t20.5 22.5t14.5 32.5t7.5 46.5t4.5 62t0.5 82v45v2l-404 -6q-8 0 -8 26.5t8 26.5l404 -8q-3 79 -19 158l-385 -4q-8 0 -8 26.5t8 26.5q305 -10 379 -12q-54 229 -190 371.5t-303 142.5q-24 0 -64 -4q-5 -2 -8.5 6.5
t-3.5 18.5t6 11q95 31 178 31q191 0 336.5 -136.5t200.5 -342.5q75 214 214.5 341.5t301.5 127.5q53 0 125 -21q5 -3 4 -11.5t-5.5 -17t-7.5 -7.5z" />
    <glyph glyph-name="section" unicode="&#xa7;" horiz-adv-x="1075" 
d="M791 -4q6 -18 6 -37q0 -98 -84 -199q-143 -172 -320 -172q-99 0 -180.5 55.5t-81.5 125.5q0 41 27 70t53.5 38.5t30.5 3.5q57 -68 134 -117t142 -49q160 0 160 164q0 50 -31 102.5t-80 99.5t-109 96.5t-119.5 101.5t-108.5 105.5t-80 118t-31 130.5q0 91 49.5 176.5
t130.5 144.5q-4 28 -4 41q0 97 84 195q70 83 159.5 129.5t178.5 46.5q67 0 110 -41t43 -94q0 -26 -11 -48t-27 -35t-32 -21.5t-28 -11t-14 0.5q-44 48 -96.5 81.5t-96.5 33.5q-85 0 -118 -39t-33 -117q0 -50 31 -103t81 -101t110 -98t120.5 -103.5t110.5 -107.5t81 -119
t31 -130q0 -91 -51.5 -174.5t-136.5 -142.5zM311 901q-71 -71 -71 -164q0 -64 34 -128t85.5 -115.5t116 -109t123 -107.5t108.5 -111t71 -119q78 68 78 160q0 55 -25 109.5t-66.5 102.5t-92.5 95t-106.5 94.5t-104.5 93t-90 97.5t-60 102z" />
    <glyph glyph-name="dieresis" unicode="&#xa8;" horiz-adv-x="905" 
d="M643 1030q-41 0 -68.5 27.5t-27.5 64.5q0 40 28.5 69.5t71.5 29.5q40 0 68 -28.5t28 -66.5q0 -39 -29 -67.5t-71 -28.5zM260 1030q-41 0 -69.5 27.5t-28.5 64.5q0 39 29.5 69t72.5 30q39 0 67.5 -29t28.5 -66q0 -39 -29 -67.5t-71 -28.5z" />
    <glyph glyph-name="copyright" unicode="&#xa9;" horiz-adv-x="1443" 
d="M721 -29q-166 0 -307 80t-223 217.5t-82 298.5q0 162 82 300t223 218t307 80q167 0 309 -80t224.5 -218t82.5 -300q0 -161 -82.5 -298.5t-224.5 -217.5t-309 -80zM721 1124q-154 0 -285 -74.5t-207.5 -203t-76.5 -279.5q0 -150 76.5 -277.5t207.5 -201.5t285 -74
q117 0 223 44t182.5 118t122 176.5t45.5 214.5q0 113 -45.5 216t-122 178t-182.5 119t-223 44zM944 319q-61 -45 -192 -45q-146 0 -238 83t-92 200q0 121 95.5 214t238.5 93q54 0 110.5 -17t73.5 -30q5 -3 12.5 -51t8.5 -88q0 -7 -15.5 -7t-17.5 5q-10 58 -58.5 100.5
t-134.5 42.5q-96 0 -152.5 -61.5t-56.5 -169.5q0 -131 68 -201t166 -70q66 0 117 40t55 102q0 3 7 3.5t14.5 -1t9.5 -4.5q-1 -41 -7.5 -88t-11.5 -50z" />
    <glyph glyph-name="ordfeminine" unicode="&#xaa;" horiz-adv-x="776" 
d="M260 1235q0 -10 5 -23.5t5 -23.5q0 -24 -34.5 -46t-77.5 -22q-37 0 -37 35q1 29 50.5 76.5t127.5 86t147 38.5q65 0 109 -45t45 -121q1 -33 -4 -181.5t-4 -191.5q2 -43 28 -53t95 12q1 1 3 -2t4 -7t3.5 -8.5t1.5 -8.5t-2 -5q-86 -61 -152 -61q-43 0 -75.5 24.5
t-38.5 67.5q-92 -86 -207 -86q-66 0 -110 37t-44 94q0 73 88 126.5t277 64.5q0 26 2.5 80.5t1.5 70.5q-4 76 -39 97q-27 16 -82 16q-34 0 -60 -13t-26 -28zM244 836q0 -72 86 -72q37 0 61.5 11t61.5 42q1 18 3 80t3 78q-71 -5 -117 -18.5t-66 -35t-26 -40t-6 -45.5z" />
    <glyph glyph-name="guillemotleft" unicode="&#xab;" horiz-adv-x="972" 
d="M840 178l-426 236q-5 4 -5.5 17t7.5 18l424 233q9 5 16 -1t6.5 -14.5t-8.5 -15.5l-309 -225l309 -215q6 -6 5.5 -15t-6.5 -15.5t-13 -2.5zM522 178l-426 236q-5 4 -5.5 17t7.5 18l424 233q9 5 16.5 -0.5t7.5 -14t-9 -16.5l-308 -225l308 -215q9 -8 8 -16.5t-8.5 -14.5
t-14.5 -2z" />
    <glyph glyph-name="registered" unicode="&#xae;" horiz-adv-x="1443" 
d="M721 -29q-166 0 -307 80t-223 217.5t-82 298.5q0 162 82 300t223 218t307 80q167 0 309 -80t224.5 -218t82.5 -300q0 -161 -82.5 -298.5t-224.5 -217.5t-309 -80zM721 1124q-154 0 -285 -74.5t-207.5 -203t-76.5 -279.5q0 -150 76.5 -277.5t207.5 -201.5t285 -74
q117 0 223 44t182.5 118t122 176.5t45.5 214.5q0 113 -45.5 216t-122 178t-182.5 119t-223 44zM741 543q-32 -4 -59 -4h-29v-88q0 -78 13 -100.5t67 -26.5q8 0 5 -22q-2 -12 -7 -11q-35 6 -119 6q-88 0 -141 -6q-10 -2 -4 24q2 9 4 9q55 6 69.5 28t14.5 99v247q0 69 -12 93
t-43 24q-7 0 -35 -4q-3 0 -5.5 15t1.5 18q59 16 235 16q119 0 180.5 -37t61.5 -106q0 -44 -29.5 -83.5t-83.5 -62.5q25 -60 63.5 -117.5t90 -100t96.5 -42.5q4 0 5.5 -16t-5.5 -16q-129 0 -215.5 76.5t-118.5 187.5zM684 817h-27q-4 -18 -4 -108v-127h29q81 0 117.5 27
t36.5 85q0 66 -38 94.5t-114 28.5z" />
    <glyph glyph-name="macron" unicode="&#xaf;" horiz-adv-x="727" 
d="M362 1049l-288 -5q-8 0 -8 27t8 27l288 -6l291 6q7 0 7 -27t-7 -27z" />
    <glyph glyph-name="degree" unicode="&#xb0;" horiz-adv-x="483" 
d="M242 1006q-77 0 -131 52.5t-54 127.5q0 74 54.5 127t130.5 53t131 -53t55 -127q0 -75 -54.5 -127.5t-131.5 -52.5zM242 1325q-60 0 -102 -41t-42 -98q0 -58 42 -98.5t102 -40.5q59 0 101 40.5t42 98.5q0 57 -42 98t-101 41z" />
    <glyph glyph-name="plusminus" unicode="&#xb1;" horiz-adv-x="1517" 
d="M1229 -29q-101 0 -147 49t-44 154l4 557q-121 0 -141 -2q-5 -1 -7 7t-2 16.5t1 13.5q69 24 119.5 52.5t78.5 54t45 55.5t22 53.5t5 50.5q0 110 -100.5 189t-241.5 79q-142 0 -245 -99.5t-103 -225.5q0 -75 27 -131q78 12 121 12q71 0 118 -23.5t47 -48.5q0 -26 -24 -67
t-43 -41q-23 0 -108 40t-136 40q-239 0 -239 -305q0 -185 84.5 -283t207.5 -98q134 0 252 88q3 2 10 -4.5t10 -14t-1 -12.5q-63 -65 -152 -110.5t-190 -45.5q-166 0 -274.5 114.5t-108.5 283.5q0 153 104.5 282t270.5 178q-37 73 -37 185q0 104 53 201.5t149.5 161
t210.5 63.5q174 0 284 -127t110 -312q0 -23 -9 -105t-10 -91h107q155 0 182 6q8 2 9.5 -20.5t-3 -45t-12.5 -20.5q-75 6 -148 6h-135l-4 -510q0 -65 29 -106t82 -41q103 0 184 26q0 4 8 -8q10 -14 4 -18q-66 -47 -145.5 -75t-128.5 -28z" />
    <glyph glyph-name="twosuperior" unicode="&#xb2;" horiz-adv-x="845" 
d="M729 616q-4 -16 -9.5 -20t-21.5 -4q-21 0 -114.5 3t-149.5 3q-198 0 -334 -8q-6 0 -13 19t-1 22q214 107 315 209.5t101 224.5q0 86 -40.5 133t-111.5 47q-58 0 -99.5 -20t-90.5 -66q-1 -2 -9 2.5t-12.5 10.5t0.5 12q125 153 256 153q111 0 173.5 -64t62.5 -159
q0 -106 -95.5 -218t-228.5 -189h221q121 0 151 13.5t36 80.5q0 3 15 3t15 -3q3 -25 -4 -94t-12 -91z" />
    <glyph glyph-name="threesuperior" unicode="&#xb3;" horiz-adv-x="704" 
d="M98 379q-7 0 -6.5 16.5t6.5 16.5q377 25 377 256q0 79 -62.5 123t-193.5 67q-4 1 -9.5 23t-2.5 24q124 35 185 93t61 126q0 54 -41 85.5t-103 31.5q-97 0 -182 -82q-1 -2 -9.5 2t-13.5 11t0 12q125 153 258 153q92 0 151.5 -53.5t59.5 -138.5q0 -70 -47 -120.5
t-155 -100.5q229 -59 229 -238q0 -130 -137.5 -218.5t-364.5 -88.5z" />
    <glyph glyph-name="acute" unicode="&#xb4;" horiz-adv-x="464" 
d="M74 965q-6 -6 -15.5 -5t-13.5 7t2 16l297 391q7 9 27.5 -1t35.5 -28t7 -26z" />
    <glyph glyph-name="mu" unicode="&#xb5;" horiz-adv-x="1626" 
d="M1634 1272q-41 8 -94 8q-163 0 -301.5 -123t-217.5 -325.5t-79 -430.5v-51v-127.5t7.5 -83t15.5 -58t33.5 -28.5t52 -19.5t79.5 -6.5q5 0 7.5 -10.5t0 -20.5t-9.5 -8q-99 12 -254 12q-198 0 -301 -12q-9 -1 -10.5 9t2 20t6.5 10q103 10 130 23q42 20 53 83q10 53 10 217
v51q0 183 -51 347.5t-135 279t-196 181.5t-230 67q-26 0 -76 -4q-6 0 -11 15t7 20q101 36 207 36q110 0 210.5 -45.5t177 -124.5t132.5 -181.5t86 -219.5q84 243 252 401t362 158q71 0 141 -24q8 -4 7.5 -12t-5.5 -16t-8 -7zM1081 1505q-41 0 -68.5 27.5t-27.5 64.5
q0 40 28.5 69.5t71.5 29.5q41 0 69 -28t28 -66q0 -39 -29.5 -68t-71.5 -29zM698 1505q-41 0 -69.5 27.5t-28.5 64.5q0 39 29.5 69t72.5 30q39 0 68 -28.5t29 -65.5q0 -39 -29.5 -68t-71.5 -29z" />
    <glyph glyph-name="paragraph" unicode="&#xb6;" horiz-adv-x="1384" 
d="M899 -41q-182 0 -329.5 50t-238.5 134t-139.5 188t-48.5 218q0 101 28 191.5t88 168.5t147.5 134.5t213.5 89t279 32.5q229 0 367 -43q6 -2 4.5 -11t-7.5 -18t-10 -8q-37 13 -112 25l-4 -549l4 -553q67 5 112 21q4 1 11 -7.5t8.5 -17t-6.5 -12.5q-98 -33 -367 -33z
M1087 1118q-78 8 -141 8v-1128q82 3 141 6l3 557z" />
    <glyph glyph-name="periodcentered" unicode="&#xb7;" 
d="M215 426q-36 0 -60 24.5t-24 57.5q0 35 25 61.5t63 26.5q36 0 61 -25.5t25 -58.5q0 -34 -26 -60t-64 -26z" />
    <glyph glyph-name="cedilla" unicode="&#xb8;" horiz-adv-x="622" 
d="M207 -559q-7 -1 -11 7.5t-3 17.5t6 10q58 8 97.5 28.5t56.5 47.5t23.5 48.5t6.5 43.5q0 52 -46.5 94.5t-164.5 75.5l147 211l52 -19l-78 -108q104 -33 156.5 -90.5t52.5 -120.5q0 -85 -73.5 -154.5t-221.5 -91.5z" />
    <glyph glyph-name="onesuperior" unicode="&#xb9;" horiz-adv-x="589" 
d="M307 598q-152 0 -217 -8q-7 -2 -8 8q0 18 6 25q32 3 46 5t35 7.5t29 14t17.5 23t12.5 36.5t3 53v387q0 31 -3 53t-12.5 36.5t-17.5 23t-29 14.5t-34.5 8t-46.5 6q-5 0 -6 19q1 13 8 12q49 -6 217 -6q121 0 195 8q8 2 7 -18q-2 -15 -7 -15q-84 -6 -113 -31t-29 -110v-387
q0 -45 6.5 -71t26 -40.5t42.5 -19.5t67 -8q8 0 7 -21q-1 -13 -7 -12q-74 8 -195 8z" />
    <glyph glyph-name="ordmasculine" unicode="&#xba;" horiz-adv-x="833" 
d="M70 1012q0 139 98.5 241.5t255.5 102.5q148 0 244 -96t96 -228q0 -139 -99.5 -240.5t-256.5 -101.5q-148 0 -243 95t-95 227zM389 1307q-88 0 -130 -66.5t-42 -169.5q0 -156 59 -245t164 -89q89 0 132.5 66.5t43.5 167.5q0 156 -60.5 246t-166.5 90z" />
    <glyph glyph-name="guillemotright" unicode="&#xbb;" horiz-adv-x="972" 
d="M449 178q-7 -4 -13.5 2.5t-7 15.5t5.5 15l309 215l-309 225q-8 7 -8 15.5t7 14.5t16 1l423 -233q8 -5 6.5 -18t-6.5 -17zM133 178q-7 -4 -14.5 2t-8 14.5t8.5 16.5l307 215l-307 225q-9 8 -9.5 16.5t7 14t16.5 0.5l424 -233q8 -5 6.5 -18t-6.5 -17z" />
    <glyph glyph-name="onequarter" unicode="&#xbc;" horiz-adv-x="1607" 
d="M307 598q-151 0 -219 -8q-10 -2 -4 24q2 9 4 9q32 3 46 5t35 7.5t29 14t17.5 23t12.5 36.5t3 53v387q0 31 -3 53t-12.5 36.5t-17.5 23t-29 14.5t-34.5 8t-46.5 6q-5 0 -5 21q-1 13 5 12q68 -8 219 -8q121 0 195 8q8 2 7 -18q-2 -15 -7 -15q-84 -6 -113 -31t-29 -110v-387
q0 -45 6.5 -71t26 -40.5t42.5 -19.5t67 -8q8 0 7 -21q-1 -13 -7 -12q-74 8 -195 8zM309 -68q-4 -4 -13 -1t-17 11t-5 13l988 1427q4 4 13 1t16.5 -10.5t4.5 -12.5zM1358 55v-129q0 -84 29 -109.5t112 -31.5q8 0 7 -20q-2 -11 -7 -11q-53 6 -192 6q-171 0 -220 -6
q-9 -2 -6 22q2 9 4 9q37 4 54.5 7t38.5 11t30 22.5t15 39t6 61.5v131h-35q-285 0 -418 -8q-5 0 -12.5 17.5t-3.5 21.5l571 674q5 5 16 3.5t11 -9.5v-617h196v-88q-32 0 -196 4zM1229 573l-367 -434h367v434z" />
    <glyph glyph-name="onehalf" unicode="&#xbd;" horiz-adv-x="1697" 
d="M307 598q-152 0 -217 -8q-7 -2 -8 8q0 18 6 25q32 3 46 5t35 7.5t29 14t17.5 23t12.5 36.5t3 53v387q0 31 -3 53t-12.5 36.5t-17.5 23t-29 14.5t-34.5 8t-46.5 6q-5 0 -6 19q1 13 8 12q49 -6 217 -6q121 0 195 8q8 2 7 -18q-2 -15 -7 -15q-84 -6 -113 -31t-29 -110v-387
q0 -45 6.5 -71t26 -40.5t42.5 -19.5t67 -8q8 0 7 -21q-1 -13 -7 -12q-74 8 -195 8zM309 -68q-4 -4 -13 -1t-17 11t-5 13l988 1427q4 4 13 1t16.5 -10.5t4.5 -12.5zM1581 20q-5 -15 -11.5 -20.5t-21.5 -5.5q-19 0 -112 3t-152 3q-232 0 -334 -6q-6 0 -13 20t-1 23
q215 105 316.5 207.5t101.5 224.5q0 85 -41.5 132.5t-112.5 47.5q-58 0 -99 -19.5t-89 -64.5q-1 -2 -8 2.5t-12 11t-1 9.5q127 155 258 155q109 0 170.5 -64.5t61.5 -160.5q0 -106 -95.5 -217.5t-226.5 -187.5h219q46 0 68 0.5t47.5 4t34.5 9t19.5 18t13.5 29t6 43.5
q28 -10 28 -12q6 -52 -14 -185z" />
    <glyph glyph-name="threequarters" unicode="&#xbe;" horiz-adv-x="1724" 
d="M98 379q-7 0 -6.5 16.5t6.5 16.5q377 25 377 256q0 79 -62.5 123t-193.5 67q-4 1 -9.5 23t-2.5 24q124 35 185 93t61 126q0 54 -41 85.5t-103 31.5q-97 0 -182 -82q-1 -2 -9.5 2t-13.5 11t0 12q125 153 258 153q92 0 151.5 -53.5t59.5 -138.5q0 -70 -47 -120.5
t-155 -100.5q229 -59 229 -238q0 -130 -137.5 -218.5t-364.5 -88.5zM428 -68q-4 -4 -13 -1t-17 11t-5 13l987 1427q4 4 13 1t17 -10.5t5 -12.5zM1477 55v-129q0 -85 28.5 -110t112.5 -31q8 0 7 -20q-2 -11 -7 -11q-56 6 -193 6q-170 0 -219 -6q-9 -2 -6 22q2 9 4 9
q45 5 65 9t42 18t29.5 41t7.5 73v131h-35q-285 0 -418 -8q-5 0 -13.5 17.5t-4.5 21.5l573 674q4 5 15.5 3.5t11.5 -9.5v-617h196v-88q-32 0 -196 4zM1348 573l-367 -434h367v434z" />
    <glyph glyph-name="questiondown" unicode="&#xbf;" horiz-adv-x="739" 
d="M483 668q-36 0 -61 24.5t-25 57.5q0 35 25.5 61.5t62.5 26.5q35 0 61.5 -25.5t26.5 -58.5q0 -34 -27 -60t-63 -26zM573 -469q-2 -1 -6.5 0t-9.5 2.5l-10 3t-8 3.5t-2 3q6 21 6 35q0 36 -49 67.5t-187 71.5q-126 37 -181.5 97t-55.5 163q0 96 52.5 155t205.5 120
q86 34 128 78t42 90q0 26 -15 67q-1 4 7.5 10t17 7.5t10.5 -2.5q51 -108 51 -168q0 -134 -180 -213l-199 -88q-34 -15 -45.5 -29t-11.5 -39q0 -44 78 -67l190 -54q205 -57 205 -186q0 -49 -33 -127z" />
    <glyph glyph-name="Agrave" unicode="&#xc0;" horiz-adv-x="1470" 
d="M1454 -12q-94 12 -235 12q-211 0 -314 -12q-7 -2 -8.5 8t1 20.5t5.5 10.5l30 3q28 3 41 4.5t30.5 5.5t24.5 10t12.5 16t5.5 24q0 10 -1 21t-4.5 25t-6 25t-8.5 28.5t-9.5 28.5t-11.5 32t-11.5 30.5t-13 34t-12.5 33.5l-62 164h-467l-71 -164q-33 -76 -48 -111.5
t-27.5 -77.5t-12.5 -69q0 -33 28 -44.5t103 -18.5q5 0 7.5 -10.5t0 -20.5t-9.5 -8q-94 12 -197 12h-40.5h-30.5t-26 -1t-20 -1t-20.5 -1.5t-19 -2t-24.5 -3t-28 -3.5q-7 -2 -8.5 8t1 20.5t5.5 10.5q99 7 155 73.5t138 251.5l444 989q6 11 21 10.5t18 -10.5l379 -989
q26 -69 43.5 -110t39 -81.5t40.5 -61t46.5 -38.5t59 -25.5t74.5 -10.5q3 -1 5.5 -10.5t0 -18.5t-11.5 -8zM696 1092l-231 -525h422zM727 1432l-338 354q-8 8 6.5 26t35.5 28t28 1l299 -391q6 -8 0 -15t-15 -8t-16 5z" />
    <glyph glyph-name="Aacute" unicode="&#xc1;" horiz-adv-x="1470" 
d="M1454 -12q-94 12 -235 12q-211 0 -314 -12q-7 -2 -8.5 8t1 20.5t5.5 10.5l30 3q28 3 41 4.5t30.5 5.5t24.5 10t12.5 16t5.5 24q0 10 -1 21t-4.5 25t-6 25t-8.5 28.5t-9.5 28.5t-11.5 32t-11.5 30.5t-13 34t-12.5 33.5l-62 164h-467l-71 -164q-33 -76 -48 -111.5
t-27.5 -77.5t-12.5 -69q0 -33 28 -44.5t103 -18.5q5 0 7.5 -10.5t0 -20.5t-9.5 -8q-94 12 -197 12h-40.5h-30.5t-26 -1t-20 -1t-20.5 -1.5t-19 -2t-24.5 -3t-28 -3.5q-7 -2 -8.5 8t1 20.5t5.5 10.5q99 7 155 73.5t138 251.5l444 989q6 11 21 10.5t18 -10.5l379 -989
q26 -69 43.5 -110t39 -81.5t40.5 -61t46.5 -38.5t59 -25.5t74.5 -10.5q3 -1 5.5 -10.5t0 -18.5t-11.5 -8zM696 1092l-231 -525h422zM764 1440q-6 -6 -15.5 -5t-13.5 7t2 16l297 391q7 9 27.5 -1t35.5 -28t7 -26z" />
    <glyph glyph-name="Acircumflex" unicode="&#xc2;" horiz-adv-x="1470" 
d="M1454 -12q-94 12 -235 12q-211 0 -314 -12q-7 -2 -8.5 8t1 20.5t5.5 10.5l30 3q28 3 41 4.5t30.5 5.5t24.5 10t12.5 16t5.5 24q0 10 -1 21t-4.5 25t-6 25t-8.5 28.5t-9.5 28.5t-11.5 32t-11.5 30.5t-13 34t-12.5 33.5l-62 164h-467l-71 -164q-33 -76 -48 -111.5
t-27.5 -77.5t-12.5 -69q0 -33 28 -44.5t103 -18.5q5 0 7.5 -10.5t0 -20.5t-9.5 -8q-94 12 -197 12h-40.5h-30.5t-26 -1t-20 -1t-20.5 -1.5t-19 -2t-24.5 -3t-28 -3.5q-7 -2 -8.5 8t1 20.5t5.5 10.5q99 7 155 73.5t138 251.5l444 989q6 11 21 10.5t18 -10.5l379 -989
q26 -69 43.5 -110t39 -81.5t40.5 -61t46.5 -38.5t59 -25.5t74.5 -10.5q3 -1 5.5 -10.5t0 -18.5t-11.5 -8zM696 1092l-231 -525h422zM987 1432l-231 301l-221 -301q-6 -6 -15 -6t-15 6t-1 14l239 416q5 7 17.5 6.5t17.5 -8.5l242 -414q4 -7 -2 -14t-14.5 -7.5t-16.5 7.5z" />
    <glyph glyph-name="Atilde" unicode="&#xc3;" horiz-adv-x="1470" 
d="M1454 -12q-94 12 -235 12q-211 0 -314 -12q-7 -2 -8.5 8t1 20.5t5.5 10.5l30 3q28 3 41 4.5t30.5 5.5t24.5 10t12.5 16t5.5 24q0 10 -1 21t-4.5 25t-6 25t-8.5 28.5t-9.5 28.5t-11.5 32t-11.5 30.5t-13 34t-12.5 33.5l-62 164h-467l-71 -164q-33 -76 -48 -111.5
t-27.5 -77.5t-12.5 -69q0 -33 28 -44.5t103 -18.5q5 0 7.5 -10.5t0 -20.5t-9.5 -8q-94 12 -197 12h-40.5h-30.5t-26 -1t-20 -1t-20.5 -1.5t-19 -2t-24.5 -3t-28 -3.5q-7 -2 -8.5 8t1 20.5t5.5 10.5q99 7 155 73.5t138 251.5l444 989q6 11 21 10.5t18 -10.5l379 -989
q26 -69 43.5 -110t39 -81.5t40.5 -61t46.5 -38.5t59 -25.5t74.5 -10.5q3 -1 5.5 -10.5t0 -18.5t-11.5 -8zM696 1092l-231 -525h422zM907 1501q-49 0 -155.5 40t-171.5 40q-101 0 -129 -135q-7 -2 -23 2t-16 8q9 98 67 153.5t148 55.5q45 0 150.5 -37t156.5 -37q49 0 78 24.5
t45 94.5q0 1 9.5 -0.5t19.5 -4.5t10 -7q-8 -90 -57 -143.5t-132 -53.5z" />
    <glyph glyph-name="Adieresis" unicode="&#xc4;" horiz-adv-x="1470" 
d="M1454 -12q-94 12 -235 12q-211 0 -314 -12q-7 -2 -8.5 8t1 20.5t5.5 10.5l30 3q28 3 41 4.5t30.5 5.5t24.5 10t12.5 16t5.5 24q0 10 -1 21t-4.5 25t-6 25t-8.5 28.5t-9.5 28.5t-11.5 32t-11.5 30.5t-13 34t-12.5 33.5l-62 164h-467l-71 -164q-33 -76 -48 -111.5
t-27.5 -77.5t-12.5 -69q0 -33 28 -44.5t103 -18.5q5 0 7.5 -10.5t0 -20.5t-9.5 -8q-94 12 -197 12h-40.5h-30.5t-26 -1t-20 -1t-20.5 -1.5t-19 -2t-24.5 -3t-28 -3.5q-7 -2 -8.5 8t1 20.5t5.5 10.5q99 7 155 73.5t138 251.5l444 989q6 11 21 10.5t18 -10.5l379 -989
q26 -69 43.5 -110t39 -81.5t40.5 -61t46.5 -38.5t59 -25.5t74.5 -10.5q3 -1 5.5 -10.5t0 -18.5t-11.5 -8zM696 1092l-231 -525h422zM946 1505q-41 0 -68.5 27.5t-27.5 64.5q0 40 28.5 69.5t71.5 29.5q40 0 68.5 -28t28.5 -66q0 -39 -29.5 -68t-71.5 -29zM563 1505
q-41 0 -69.5 27.5t-28.5 64.5q0 39 29.5 69t72.5 30q39 0 68 -28.5t29 -65.5q0 -39 -29.5 -68t-71.5 -29z" />
    <glyph glyph-name="Aring" unicode="&#xc5;" horiz-adv-x="1470" 
d="M1454 -12q-94 12 -235 12q-211 0 -314 -12q-7 -2 -8.5 8t1 20.5t5.5 10.5l30 3q28 3 41 4.5t30.5 5.5t24.5 10t12.5 16t5.5 24q0 10 -1 21t-4.5 25t-6 25t-8.5 28.5t-9.5 28.5t-11.5 32t-11.5 30.5t-13 34t-12.5 33.5l-62 164h-467l-71 -164q-33 -76 -48 -111.5
t-27.5 -77.5t-12.5 -69q0 -33 28 -44.5t103 -18.5q5 0 7.5 -10.5t0 -20.5t-9.5 -8q-94 12 -197 12h-40.5h-30.5t-26 -1t-20 -1t-20.5 -1.5t-19 -2t-24.5 -3t-28 -3.5q-7 -2 -8.5 8t1 20.5t5.5 10.5q99 7 155 73.5t138 251.5q29 62 76 163t146.5 314.5t166 354t66.5 137.5
q-77 8 -127 59t-50 121q0 74 54.5 127t132.5 53q75 0 129.5 -53.5t54.5 -126.5q0 -70 -50 -121t-124 -59q0 4 96.5 -238.5t193.5 -486.5l97 -244q26 -69 43.5 -110t39 -81.5t40.5 -61t46.5 -38.5t59 -25.5t74.5 -10.5q3 -1 5.5 -10.5t0 -18.5t-11.5 -8zM760 1640
q-61 0 -103.5 -41t-42.5 -98q0 -59 42.5 -99t103.5 -40q59 0 101 40.5t42 98.5q0 57 -42 98t-101 41zM696 1092l-231 -525h422z" />
    <glyph glyph-name="AE" unicode="&#xc6;" horiz-adv-x="1830" 
d="M1667 33q-11 -28 -20 -35.5t-33 -7.5q-28 0 -151 5t-208 5q-387 0 -569 -12q-5 -1 -7.5 3t-2.5 10t1 12t3 10t4 4q116 13 143 24q44 17 57 70q11 47 11 229v162h-479l-113 -166q-19 -28 -46 -67.5t-41.5 -61.5t-31 -48t-25.5 -45.5t-12 -35.5q-7 -31 19 -43t98 -18
q3 0 4.5 -10t-2 -20t-12.5 -9q-88 12 -193 12h-44.5t-36 -0.5t-25 -1t-24.5 -2t-21 -1.5t-28 -3t-32 -4q-15 -1 -8 21q5 18 13 18q53 4 93.5 21t86 61t85 95t109.5 150l519 742q28 41 39 58t19.5 36t8.5 33q0 26 -45.5 40.5t-163.5 28.5q-2 0 -4 4t-3.5 9.5t-1.5 11t3.5 9.5
t9.5 3q210 -14 635 -14q246 0 410 14q-13 -63 -13 -119q0 -51 3 -75q2 -5 -7 -6q-21 -3 -28 4q-9 48 -34.5 71t-93 34t-202.5 11h-195q-12 -61 -12 -274v-262h213q102 0 147.5 6t56 16t15.5 36q1 7 2 11q0 5 25 2q13 -2 12 -6q-10 -39 -10 -127q0 -72 2 -80q0 -7 -18.5 -7
t-20.5 5q-7 36 -19.5 52t-56.5 26t-135 10h-213v-299q0 -100 6 -157.5t23.5 -87t39 -37.5t60.5 -8h107q82 0 134.5 2t92.5 10.5t61 17t37 30.5t22.5 41.5t16.5 59.5q0 1 4 2t9 0.5t10.5 -1t9 -2.5t2.5 -5q-22 -138 -41 -190zM895 1208l-440 -641h440v641z" />
    <glyph glyph-name="Ccedilla" unicode="&#xc7;" horiz-adv-x="1507" 
d="M1354 70q-149 -111 -455 -111h-18l-43 -61q104 -33 156.5 -90.5t52.5 -120.5q0 -85 -74.5 -154.5t-222.5 -91.5q-7 -1 -11.5 7.5t-3.5 17.5t6 10q58 8 98.5 28.5t58 47.5t24 48.5t6.5 43.5q0 52 -46.5 94.5t-164.5 75.5l104 149q-157 13 -288 72t-218 149.5t-135.5 206
t-48.5 240.5q0 128 58.5 257t158 233t247.5 169.5t312 65.5q129 0 263 -39.5t176 -71.5q11 -9 23 -100.5t15 -186.5q0 -7 -16 -7t-18 5q-14 63 -50 121t-94 107.5t-148.5 79.5t-199.5 30q-236 0 -387.5 -157.5t-151.5 -429.5q0 -132 34 -244.5t92.5 -192t135.5 -135.5
t162.5 -83t174.5 -27q108 0 204.5 39.5t162 117t73.5 178.5q0 3 10 4.5t19.5 -0.5t9.5 -8q-5 -97 -18 -187t-25 -99z" />
    <glyph glyph-name="Egrave" unicode="&#xc8;" horiz-adv-x="1298" 
d="M1116 33q-7 -27 -18.5 -35t-38.5 -8q-29 0 -151 5t-208 5q-387 0 -567 -12q-5 -1 -7.5 3t-2.5 10t1 12t3 10t4 4q116 13 143 24q44 17 57 70q11 47 11 229v615q0 89 -0.5 128.5t-8.5 83.5t-16 56.5t-35 28t-52.5 18.5t-80.5 10q-12 1 -18 2q-2 0 -4 4t-3.5 9.5t-1.5 11
t2.5 9.5t8.5 3q210 -14 559 -14q243 0 412 14q-14 -46 -14 -119q0 -61 2 -77q2 -9 -24 -5q-12 2 -13 5q-9 48 -34 71t-92 34t-202 11h-197q-10 -64 -10 -274v-262h211q34 0 60.5 1t47.5 1t36.5 3t27 3.5t19 6t12 7t8 9.5t4.5 10t3 13.5t3 14.5q2 4 19 1.5t20 -5.5
q-12 -47 -12 -127q0 -64 2 -80q2 -4 -7 -6q-21 -3 -30 4q-7 36 -19.5 52t-57 26t-136.5 10h-211v-299q0 -132 13.5 -194.5t37.5 -79t76 -16.5h109q81 0 133.5 2t92.5 10.5t61 17t37 30t22.5 42t15.5 59.5q0 1 4 2t9.5 0.5l11 -1t9.5 -2.5t3 -5q-18 -115 -39 -190zM760 1432
l-338 354q-8 8 6.5 26t35.5 28t28 1l299 -391q6 -8 0 -15t-15 -8t-16 5z" />
    <glyph glyph-name="Eacute" unicode="&#xc9;" horiz-adv-x="1298" 
d="M1116 33q-7 -27 -18.5 -35t-38.5 -8q-29 0 -151 5t-208 5q-387 0 -567 -12q-5 -1 -7.5 3t-2.5 10t1 12t3 10t4 4q116 13 143 24q44 17 57 70q11 47 11 229v615q0 89 -0.5 128.5t-8.5 83.5t-16 56.5t-35 28t-52.5 18.5t-80.5 10q-12 1 -18 2q-2 0 -4 4t-3.5 9.5t-1.5 11
t2.5 9.5t8.5 3q210 -14 559 -14q243 0 412 14q-14 -46 -14 -119q0 -61 2 -77q2 -9 -24 -5q-12 2 -13 5q-9 48 -34 71t-92 34t-202 11h-197q-10 -64 -10 -274v-262h211q34 0 60.5 1t47.5 1t36.5 3t27 3.5t19 6t12 7t8 9.5t4.5 10t3 13.5t3 14.5q2 4 19 1.5t20 -5.5
q-12 -47 -12 -127q0 -64 2 -80q2 -4 -7 -6q-21 -3 -30 4q-7 36 -19.5 52t-57 26t-136.5 10h-211v-299q0 -132 13.5 -194.5t37.5 -79t76 -16.5h109q81 0 133.5 2t92.5 10.5t61 17t37 30t22.5 42t15.5 59.5q0 1 4 2t9.5 0.5l11 -1t9.5 -2.5t3 -5q-18 -115 -39 -190zM649 1440
q-10 -10 -23 -3t-3 21l297 391q7 9 27 -1t35 -28t7 -26z" />
    <glyph glyph-name="Ecircumflex" unicode="&#xca;" horiz-adv-x="1298" 
d="M1116 33q-7 -27 -18.5 -35t-38.5 -8q-29 0 -151 5t-208 5q-387 0 -567 -12q-5 -1 -7.5 3t-2.5 10t1 12t3 10t4 4q116 13 143 24q44 17 57 70q11 47 11 229v615q0 89 -0.5 128.5t-8.5 83.5t-16 56.5t-35 28t-52.5 18.5t-80.5 10q-12 1 -18 2q-2 0 -4 4t-3.5 9.5t-1.5 11
t2.5 9.5t8.5 3q210 -14 559 -14q243 0 412 14q-14 -46 -14 -119q0 -61 2 -77q2 -9 -24 -5q-12 2 -13 5q-9 48 -34 71t-92 34t-202 11h-197q-10 -64 -10 -274v-262h211q34 0 60.5 1t47.5 1t36.5 3t27 3.5t19 6t12 7t8 9.5t4.5 10t3 13.5t3 14.5q2 4 19 1.5t20 -5.5
q-12 -47 -12 -127q0 -64 2 -80q2 -4 -7 -6q-21 -3 -30 4q-7 36 -19.5 52t-57 26t-136.5 10h-211v-299q0 -132 13.5 -194.5t37.5 -79t76 -16.5h109q81 0 133.5 2t92.5 10.5t61 17t37 30t22.5 42t15.5 59.5q0 1 4 2t9.5 0.5l11 -1t9.5 -2.5t3 -5q-18 -115 -39 -190zM928 1432
l-232 301l-221 -301q-6 -6 -15 -6t-15 6t-1 14l240 416q5 7 17.5 6.5t17.5 -8.5l242 -414q4 -7 -2 -14t-14.5 -7.5t-16.5 7.5z" />
    <glyph glyph-name="Edieresis" unicode="&#xcb;" horiz-adv-x="1298" 
d="M1116 33q-7 -27 -18.5 -35t-38.5 -8q-29 0 -151 5t-208 5q-387 0 -567 -12q-5 -1 -7.5 3t-2.5 10t1 12t3 10t4 4q116 13 143 24q44 17 57 70q11 47 11 229v615q0 89 -0.5 128.5t-8.5 83.5t-16 56.5t-35 28t-52.5 18.5t-80.5 10q-12 1 -18 2q-2 0 -4 4t-3.5 9.5t-1.5 11
t2.5 9.5t8.5 3q210 -14 559 -14q243 0 412 14q-14 -46 -14 -119q0 -61 2 -77q2 -9 -24 -5q-12 2 -13 5q-9 48 -34 71t-92 34t-202 11h-197q-10 -64 -10 -274v-262h211q34 0 60.5 1t47.5 1t36.5 3t27 3.5t19 6t12 7t8 9.5t4.5 10t3 13.5t3 14.5q2 4 19 1.5t20 -5.5
q-12 -47 -12 -127q0 -64 2 -80q2 -4 -7 -6q-21 -3 -30 4q-7 36 -19.5 52t-57 26t-136.5 10h-211v-299q0 -132 13.5 -194.5t37.5 -79t76 -16.5h109q81 0 133.5 2t92.5 10.5t61 17t37 30t22.5 42t15.5 59.5q0 1 4 2t9.5 0.5l11 -1t9.5 -2.5t3 -5q-18 -115 -39 -190zM877 1505
q-41 0 -69 27.5t-28 64.5q0 39 29 69t72 30q40 0 68 -28t28 -66q0 -39 -29 -68t-71 -29zM494 1505q-41 0 -70 27.5t-29 64.5q0 39 30 69t73 30q39 0 67.5 -28.5t28.5 -65.5q0 -39 -29 -68t-71 -29z" />
    <glyph glyph-name="Igrave" unicode="&#xcc;" horiz-adv-x="923" 
d="M485 0q-197 0 -303 -12q-9 -1 -10.5 9t2 20t6.5 10q103 10 130 23q42 20 53 83q10 53 10 217v615v101.5t-5 75.5t-7.5 56.5t-16.5 37.5t-22 25t-35.5 14t-45.5 10t-61 7q-2 0 -4 4t-3.5 9t-1.5 10.5t2.5 9t8.5 2.5q106 -12 303 -12q157 0 252 12q9 1 11.5 -8t-1 -18
t-8.5 -9q-39 -3 -61.5 -5.5t-45.5 -12t-34 -14.5t-21.5 -28t-14 -37t-6.5 -57.5t-3 -73.5v-99v-615v-127.5t7.5 -83t15.5 -58t33 -28.5t51 -19.5t79 -6.5q5 0 8.5 -10t1 -20t-11.5 -9q-95 12 -252 12zM514 1432l-338 354q-8 8 6.5 26t35.5 28t28 1l299 -391q6 -8 0 -15
t-15 -8t-16 5z" />
    <glyph glyph-name="Iacute" unicode="&#xcd;" horiz-adv-x="923" 
d="M485 0q-197 0 -303 -12q-9 -1 -10.5 9t2 20t6.5 10q103 10 130 23q42 20 53 83q10 53 10 217v615v101.5t-5 75.5t-7.5 56.5t-16.5 37.5t-22 25t-35.5 14t-45.5 10t-61 7q-2 0 -4 4t-3.5 9t-1.5 10.5t2.5 9t8.5 2.5q106 -12 303 -12q157 0 252 12q9 1 11.5 -8t-1 -18
t-8.5 -9q-39 -3 -61.5 -5.5t-45.5 -12t-34 -14.5t-21.5 -28t-14 -37t-6.5 -57.5t-3 -73.5v-99v-615v-127.5t7.5 -83t15.5 -58t33 -28.5t51 -19.5t79 -6.5q5 0 8.5 -10t1 -20t-11.5 -9q-95 12 -252 12zM449 1440q-6 -6 -15.5 -5t-13.5 7t2 16l297 391q7 9 27 -1t35 -28t7 -26
z" />
    <glyph glyph-name="Icircumflex" unicode="&#xce;" horiz-adv-x="923" 
d="M485 0q-197 0 -303 -12q-9 -1 -10.5 9t2 20t6.5 10q103 10 130 23q42 20 53 83q10 53 10 217v615v101.5t-5 75.5t-7.5 56.5t-16.5 37.5t-22 25t-35.5 14t-45.5 10t-61 7q-2 0 -4 4t-3.5 9t-1.5 10.5t2.5 9t8.5 2.5q106 -12 303 -12q157 0 252 12q9 1 11.5 -8t-1 -18
t-8.5 -9q-39 -3 -61.5 -5.5t-45.5 -12t-34 -14.5t-21.5 -28t-14 -37t-6.5 -57.5t-3 -73.5v-99v-615v-127.5t7.5 -83t15.5 -58t33 -28.5t51 -19.5t79 -6.5q5 0 8.5 -10t1 -20t-11.5 -9q-95 12 -252 12zM698 1432l-231 301l-221 -301q-6 -6 -15 -6t-15 6t-1 14l240 416
q5 7 17 6.5t17 -8.5l242 -414q4 -7 -2 -14t-14.5 -7.5t-16.5 7.5z" />
    <glyph glyph-name="Idieresis" unicode="&#xcf;" horiz-adv-x="923" 
d="M485 0q-197 0 -303 -12q-9 -1 -10.5 9t2 20t6.5 10q103 10 130 23q42 20 53 83q10 53 10 217v615v101.5t-5 75.5t-7.5 56.5t-16.5 37.5t-22 25t-35.5 14t-45.5 10t-61 7q-2 0 -4 4t-3.5 9t-1.5 10.5t2.5 9t8.5 2.5q106 -12 303 -12q157 0 252 12q9 1 11.5 -8t-1 -18
t-8.5 -9q-39 -3 -61.5 -5.5t-45.5 -12t-34 -14.5t-21.5 -28t-14 -37t-6.5 -57.5t-3 -73.5v-99v-615v-127.5t7.5 -83t15.5 -58t33 -28.5t51 -19.5t79 -6.5q5 0 8.5 -10t1 -20t-11.5 -9q-95 12 -252 12zM664 1505q-41 0 -69 27.5t-28 64.5q0 39 29 69t72 30q40 0 68 -28
t28 -66q0 -39 -29 -68t-71 -29zM281 1505q-41 0 -70 27.5t-29 64.5q0 39 30 69t73 30q39 0 67.5 -28.5t28.5 -65.5q0 -39 -29 -68t-71 -29z" />
    <glyph glyph-name="Eth" unicode="&#xd0;" horiz-adv-x="1685" 
d="M791 -8q-39 0 -162.5 4t-145.5 4q-228 0 -331 -12q-9 -1 -10.5 9t2 20t6.5 10q103 10 130 23q41 20 53 83q9 52 9 217v228l-182 -43q-17 0 -23.5 37t8.5 40l197 43v310v83t-3 66.5t-3.5 53t-9 39t-12 29.5t-19 20.5t-23.5 14.5t-32.5 8.5t-39.5 7t-50 5.5q-2 0 -4 4
t-3.5 9t-1.5 10.5t2.5 9t8.5 2.5q103 -12 350 -12q23 0 149 4t166 4q179 0 321 -49.5t232.5 -137.5t138 -204.5t47.5 -253.5q0 -139 -55.5 -264.5t-154 -218.5t-243 -148t-312.5 -55zM756 1262q-123 0 -219 -11q-17 -89 -17 -284v-273l146 37q11 3 18.5 -16t7 -37.5
t-7.5 -26.5q-164 -28 -164 -30v-345q0 -41 1.5 -67.5t8 -51.5t15.5 -39.5t28 -27t40.5 -18.5t58.5 -10.5t76.5 -5.5t99.5 -1q228 0 376 149.5t148 407.5q0 317 -163 483.5t-453 166.5z" />
    <glyph glyph-name="Ntilde" unicode="&#xd1;" horiz-adv-x="1757" 
d="M1470 965v-615q0 -246 15 -375q0 -4 -6.5 -7t-15.5 -2t-15 7l-1012 1057v-680q0 -213 26.5 -263t164.5 -60q3 0 6 -10t1 -20t-11 -9q-95 12 -205 12q-153 0 -256 -12q-9 -1 -10.5 9t2 20t6.5 10q38 4 61 7t45.5 11.5t34.5 16t23 27t15.5 38t8 55.5t4 72.5t0.5 95.5v719
q0 67 -77.5 140.5t-151.5 82.5q-2 0 -4 4t-3.5 9t-1.5 10.5t2.5 9t8.5 2.5q120 -14 287 -14l974 -1024v676q0 49 -0.5 78.5t-2 63t-4 51.5t-8.5 39t-12 31t-18 22t-24 16.5t-32.5 10.5t-40.5 9t-50 6q-6 0 -7 20q0 16 9 15q103 -12 254 -12q116 0 207 12q11 1 14 -7.5
t-1 -17.5t-11 -10q-43 -4 -70 -10t-49.5 -13t-34 -28t-20 -37t-11 -59.5t-3.5 -75.5t-1 -104zM1040 1501q-49 0 -155.5 40t-171.5 40q-101 0 -129 -135q-7 -2 -23 2t-16 8q9 98 67 153.5t148 55.5q45 0 150.5 -37t156.5 -37q49 0 78 24.5t45 94.5q0 1 10 -0.5t19.5 -4.5
t9.5 -7q-8 -90 -57 -143.5t-132 -53.5z" />
    <glyph glyph-name="Ograve" unicode="&#xd2;" horiz-adv-x="1765" 
d="M862 -41q-158 0 -296.5 56.5t-232.5 150t-148 216.5t-54 255q0 102 36 205.5t105 195t161.5 163t214 113.5t253.5 42q159 0 298 -56t233.5 -149.5t149 -216.5t54.5 -254q0 -102 -36 -206t-106 -196t-162.5 -163.5t-215 -113.5t-254.5 -42zM854 1294q-237 0 -388 -158.5
t-151 -430.5q0 -131 34 -243.5t91.5 -192t134 -136t162 -83.5t174.5 -27q116 0 215 40t171.5 114t113.5 185.5t41 247.5q0 131 -34 243.5t-92.5 192.5t-135.5 136.5t-162.5 84t-173.5 27.5zM885 1432l-338 354q-8 8 6.5 26t35 28t27.5 1l299 -391q6 -8 0.5 -15t-14.5 -8
t-16 5z" />
    <glyph glyph-name="Oacute" unicode="&#xd3;" horiz-adv-x="1765" 
d="M862 -41q-158 0 -296.5 56.5t-232.5 150t-148 216.5t-54 255q0 102 36 205.5t105 195t161.5 163t214 113.5t253.5 42q159 0 298 -56t233.5 -149.5t149 -216.5t54.5 -254q0 -102 -36 -206t-106 -196t-162.5 -163.5t-215 -113.5t-254.5 -42zM854 1294q-237 0 -388 -158.5
t-151 -430.5q0 -131 34 -243.5t91.5 -192t134 -136t162 -83.5t174.5 -27q116 0 215 40t171.5 114t113.5 185.5t41 247.5q0 131 -34 243.5t-92.5 192.5t-135.5 136.5t-162.5 84t-173.5 27.5zM852 1440q-6 -6 -15.5 -5t-13.5 7t2 16l297 391q7 9 27.5 -1t35.5 -28t7 -26z" />
    <glyph glyph-name="Ocircumflex" unicode="&#xd4;" horiz-adv-x="1765" 
d="M862 -41q-158 0 -296.5 56.5t-232.5 150t-148 216.5t-54 255q0 102 36 205.5t105 195t161.5 163t214 113.5t253.5 42q159 0 298 -56t233.5 -149.5t149 -216.5t54.5 -254q0 -102 -36 -206t-106 -196t-162.5 -163.5t-215 -113.5t-254.5 -42zM854 1294q-237 0 -388 -158.5
t-151 -430.5q0 -131 34 -243.5t91.5 -192t134 -136t162 -83.5t174.5 -27q116 0 215 40t171.5 114t113.5 185.5t41 247.5q0 131 -34 243.5t-92.5 192.5t-135.5 136.5t-162.5 84t-173.5 27.5zM1108 1432l-231 301l-222 -301q-6 -6 -14.5 -6t-14.5 6t-1 14l239 416
q5 7 17.5 6.5t17.5 -8.5l242 -414q4 -7 -2 -14t-14.5 -7.5t-16.5 7.5z" />
    <glyph glyph-name="Otilde" unicode="&#xd5;" horiz-adv-x="1765" 
d="M862 -41q-158 0 -296.5 56.5t-232.5 150t-148 216.5t-54 255q0 102 36 205.5t105 195t161.5 163t214 113.5t253.5 42q159 0 298 -56t233.5 -149.5t149 -216.5t54.5 -254q0 -102 -36 -206t-106 -196t-162.5 -163.5t-215 -113.5t-254.5 -42zM854 1294q-237 0 -388 -158.5
t-151 -430.5q0 -131 34 -243.5t91.5 -192t134 -136t162 -83.5t174.5 -27q116 0 215 40t171.5 114t113.5 185.5t41 247.5q0 131 -34 243.5t-92.5 192.5t-135.5 136.5t-162.5 84t-173.5 27.5zM1020 1501q-49 0 -156 40t-172 40q-101 0 -129 -135q-7 -2 -23 2t-16 8
q9 98 67 153.5t148 55.5q45 0 151 -37t157 -37q49 0 77.5 24.5t44.5 94.5q0 1 9.5 -0.5t19.5 -4.5t10 -7q-8 -90 -56.5 -143.5t-131.5 -53.5z" />
    <glyph glyph-name="Odieresis" unicode="&#xd6;" horiz-adv-x="1765" 
d="M862 -41q-158 0 -296.5 56.5t-232.5 150t-148 216.5t-54 255q0 102 36 205.5t105 195t161.5 163t214 113.5t253.5 42q159 0 298 -56t233.5 -149.5t149 -216.5t54.5 -254q0 -102 -36 -206t-106 -196t-162.5 -163.5t-215 -113.5t-254.5 -42zM854 1294q-237 0 -388 -158.5
t-151 -430.5q0 -131 34 -243.5t91.5 -192t134 -136t162 -83.5t174.5 -27q116 0 215 40t171.5 114t113.5 185.5t41 247.5q0 131 -34 243.5t-92.5 192.5t-135.5 136.5t-162.5 84t-173.5 27.5zM1073 1505q-41 0 -68.5 27.5t-27.5 64.5q0 40 28.5 69.5t71.5 29.5q41 0 69 -28
t28 -66q0 -39 -29.5 -68t-71.5 -29zM690 1505q-41 0 -69.5 27.5t-28.5 64.5q0 39 29.5 69t72.5 30q39 0 68 -28.5t29 -65.5q0 -39 -29.5 -68t-71.5 -29z" />
    <glyph glyph-name="Oslash" unicode="&#xd8;" horiz-adv-x="1765" 
d="M862 -41q-266 0 -463 150l-163 -177q-4 -4 -13.5 0.5t-16.5 11.5t-3 11l164 180q-113 95 -174.5 226t-61.5 276q0 102 36 205.5t105 195t161.5 163t214 113.5t253.5 42q259 0 461 -148l162 174q4 4 13.5 0t16 -11t2.5 -11l-161 -178q114 -96 177.5 -227t63.5 -275
q0 -102 -36 -206t-106 -196t-162.5 -163.5t-215 -113.5t-254.5 -42zM854 1294q-237 0 -388 -158.5t-151 -430.5q0 -278 148 -467l807 872q-83 89 -192.5 136.5t-223.5 47.5zM1298 1079l-806 -872q83 -90 192.5 -137t226.5 -47q116 0 215 40t171.5 114t113.5 185.5t41 247.5
q0 276 -154 469z" />
    <glyph glyph-name="Ugrave" unicode="&#xd9;" horiz-adv-x="1716" 
d="M1430 983v-512q0 -106 -35.5 -198t-103.5 -162.5t-174.5 -111t-239.5 -40.5q-118 0 -221 36.5t-180.5 102.5t-122 166t-44.5 221v480v83.5t-2.5 66.5t-3.5 53t-9 39t-11 29.5t-18.5 20t-23.5 14.5t-32 8.5t-38.5 7t-49.5 5.5q-7 0 -11 9t-1 18t12 8q106 -12 301 -12
q162 0 254 12q6 1 9.5 -2.5t3.5 -9t-1.5 -10.5t-3.5 -9t-4 -4q-53 -5 -80.5 -8t-53 -20t-34 -29.5t-15.5 -58.5t-7.5 -83.5t-0.5 -127.5v-439q0 -95 25.5 -173.5t68.5 -132t100.5 -90.5t119.5 -54t127 -17q209 0 316.5 110t107.5 323v491q0 53 -1 87.5t-5 67.5t-9.5 52
t-17 37t-24.5 27t-36 17.5t-47 12.5t-61 8q-5 1 -8.5 10t-1 17.5t11.5 7.5q106 -12 260 -12q115 0 209 12q9 1 12 -8t0 -18t-8 -9q-37 -3 -63 -7t-48 -13.5t-35.5 -18.5t-24 -29t-15.5 -38t-8 -53t-3.5 -65.5t-0.5 -84.5zM954 1432l-338 354q-8 8 6.5 26t35.5 28t28 1
l299 -391q6 -8 0 -15t-15 -8t-16 5z" />
    <glyph glyph-name="Uacute" unicode="&#xda;" horiz-adv-x="1716" 
d="M1430 983v-512q0 -106 -35.5 -198t-103.5 -162.5t-174.5 -111t-239.5 -40.5q-118 0 -221 36.5t-180.5 102.5t-122 166t-44.5 221v480v83.5t-2.5 66.5t-3.5 53t-9 39t-11 29.5t-18.5 20t-23.5 14.5t-32 8.5t-38.5 7t-49.5 5.5q-7 0 -11 9t-1 18t12 8q106 -12 301 -12
q162 0 254 12q6 1 9.5 -2.5t3.5 -9t-1.5 -10.5t-3.5 -9t-4 -4q-53 -5 -80.5 -8t-53 -20t-34 -29.5t-15.5 -58.5t-7.5 -83.5t-0.5 -127.5v-439q0 -95 25.5 -173.5t68.5 -132t100.5 -90.5t119.5 -54t127 -17q209 0 316.5 110t107.5 323v491q0 53 -1 87.5t-5 67.5t-9.5 52
t-17 37t-24.5 27t-36 17.5t-47 12.5t-61 8q-5 1 -8.5 10t-1 17.5t11.5 7.5q106 -12 260 -12q115 0 209 12q9 1 12 -8t0 -18t-8 -9q-37 -3 -63 -7t-48 -13.5t-35.5 -18.5t-24 -29t-15.5 -38t-8 -53t-3.5 -65.5t-0.5 -84.5zM891 1440q-6 -6 -15.5 -5t-13.5 7t2 16l297 391
q7 9 27.5 -1t35.5 -28t7 -26z" />
    <glyph glyph-name="Ucircumflex" unicode="&#xdb;" horiz-adv-x="1716" 
d="M1430 983v-512q0 -106 -35.5 -198t-103.5 -162.5t-174.5 -111t-239.5 -40.5q-118 0 -221 36.5t-180.5 102.5t-122 166t-44.5 221v480v83.5t-2.5 66.5t-3.5 53t-9 39t-11 29.5t-18.5 20t-23.5 14.5t-32 8.5t-38.5 7t-49.5 5.5q-7 0 -11 9t-1 18t12 8q106 -12 301 -12
q162 0 254 12q6 1 9.5 -2.5t3.5 -9t-1.5 -10.5t-3.5 -9t-4 -4q-53 -5 -80.5 -8t-53 -20t-34 -29.5t-15.5 -58.5t-7.5 -83.5t-0.5 -127.5v-439q0 -95 25.5 -173.5t68.5 -132t100.5 -90.5t119.5 -54t127 -17q209 0 316.5 110t107.5 323v491q0 53 -1 87.5t-5 67.5t-9.5 52
t-17 37t-24.5 27t-36 17.5t-47 12.5t-61 8q-5 1 -8.5 10t-1 17.5t11.5 7.5q106 -12 260 -12q115 0 209 12q9 1 12 -8t0 -18t-8 -9q-37 -3 -63 -7t-48 -13.5t-35.5 -18.5t-24 -29t-15.5 -38t-8 -53t-3.5 -65.5t-0.5 -84.5zM1145 1432l-232 301l-221 -301q-6 -6 -14.5 -6
t-14.5 6t-1 14l239 416q5 7 17.5 6.5t17.5 -8.5l242 -414q4 -7 -2 -14t-14.5 -7.5t-16.5 7.5z" />
    <glyph glyph-name="Udieresis" unicode="&#xdc;" horiz-adv-x="1716" 
d="M1430 983v-512q0 -106 -35.5 -198t-103.5 -162.5t-174.5 -111t-239.5 -40.5q-118 0 -221 36.5t-180.5 102.5t-122 166t-44.5 221v480v83.5t-2.5 66.5t-3.5 53t-9 39t-11 29.5t-18.5 20t-23.5 14.5t-32 8.5t-38.5 7t-49.5 5.5q-7 0 -11 9t-1 18t12 8q106 -12 301 -12
q162 0 254 12q6 1 9.5 -2.5t3.5 -9t-1.5 -10.5t-3.5 -9t-4 -4q-53 -5 -80.5 -8t-53 -20t-34 -29.5t-15.5 -58.5t-7.5 -83.5t-0.5 -127.5v-439q0 -95 25.5 -173.5t68.5 -132t100.5 -90.5t119.5 -54t127 -17q209 0 316.5 110t107.5 323v491q0 53 -1 87.5t-5 67.5t-9.5 52
t-17 37t-24.5 27t-36 17.5t-47 12.5t-61 8q-5 1 -8.5 10t-1 17.5t11.5 7.5q106 -12 260 -12q115 0 209 12q9 1 12 -8t0 -18t-8 -9q-37 -3 -63 -7t-48 -13.5t-35.5 -18.5t-24 -29t-15.5 -38t-8 -53t-3.5 -65.5t-0.5 -84.5zM1104 1505q-41 0 -68.5 27.5t-27.5 64.5
q0 40 28.5 69.5t71.5 29.5q40 0 68 -28t28 -66q0 -39 -29 -68t-71 -29zM721 1505q-41 0 -69.5 27.5t-28.5 64.5q0 39 29.5 69t72.5 30q39 0 67.5 -28.5t28.5 -65.5q0 -39 -29 -68t-71 -29z" />
    <glyph glyph-name="Yacute" unicode="&#xdd;" horiz-adv-x="1562" 
d="M1102 963l-223 -312v-301q0 -90 0.5 -126.5t7.5 -83t15.5 -58.5t33.5 -28.5t52.5 -19.5t80.5 -7q3 0 6 -10t1 -20t-11 -9q-94 12 -254 12q-198 0 -301 -12q-7 -2 -8.5 8t1 20.5t5.5 10.5q103 11 130 24q41 19 53 80q9 51 9 219v283l-184 282q-55 84 -89.5 134t-71 95.5
t-62 68t-59 41t-65 26t-77.5 12.5q-9 2 -10 22q1 14 10 13q103 -12 301 -12q157 0 252 12q9 1 11 -8t-1 -18t-6 -9q-97 -9 -111 -43q-14 -35 49 -139q27 -45 122 -186l137 -205l176 252q127 182 148 222q29 57 0 76q-20 14 -99 23q-9 2 -10 22q1 14 10 13q103 -12 252 -12
q87 0 186 12q9 1 11.5 -8t-1 -18t-8.5 -9q-46 -4 -77 -9.5t-64.5 -23t-55.5 -35t-59 -60.5t-66.5 -82.5t-86.5 -118.5zM786 1440q-10 -10 -23 -3t-3 21l297 391q7 9 27 -1t35 -28t7 -26z" />
    <glyph glyph-name="Thorn" unicode="&#xde;" horiz-adv-x="1265" 
d="M602 317h-33q-7 0 -7 19.5t7 19.5q4 0 15 -1t16 -1q184 0 271 77.5t87 244.5q0 155 -84.5 235t-246.5 80q-57 0 -101 -8q-6 -40 -6 -293v-342q0 -60 0.5 -97.5t5 -74t9 -55.5t17 -38t24 -26.5t36.5 -15t48 -10.5t63 -6q5 0 7.5 -10t0 -19.5t-9.5 -7.5q-95 12 -268 12
q-198 0 -301 -12q-9 -1 -10.5 8.5t2 19t6.5 9.5q103 11 130 25q41 19 53 83q9 52 9 215v617q0 61 -0.5 96t-4 72.5t-8 55.5t-16 38t-22.5 27.5t-34.5 16t-46 12t-60.5 7.5q-2 0 -4 4t-3.5 9t-1.5 10.5t2.5 9t8.5 2.5q103 -12 301 -12q143 0 237 12q8 1 10 -7.5t-1.5 -17.5
t-8.5 -8q-42 -4 -65.5 -8.5t-45.5 -16t-31.5 -26t-17 -45t-9 -66t-1.5 -94.5v2q110 9 162 9q205 0 332 -92.5t127 -245.5q0 -179 -146.5 -285.5t-392.5 -106.5z" />
    <glyph glyph-name="germandbls" unicode="&#xdf;" horiz-adv-x="1128" 
d="M791 -29q-62 0 -113.5 12.5t-81 30.5t-45.5 35t-16 29q0 33 26.5 67.5t52.5 34.5q15 0 34 -16t39 -38.5t41.5 -45.5t48 -39t52.5 -16q132 0 132 163q0 46 -28.5 88t-71 71.5t-92 64.5t-92 67.5t-71 81t-28.5 103.5q0 43 20 83.5t50.5 71t65.5 66.5t65.5 70t50.5 81.5
t20 100.5q0 119 -72 195.5t-180 76.5q-75 0 -120.5 -39.5t-69 -136t-23.5 -260.5v-770q0 -99 25.5 -135t93.5 -39q2 0 4 -10t0 -19.5t-8 -7.5q-57 8 -185 8q-176 0 -235 -8q-6 -2 -7 7q-3 18 5 29q1 1 2 1q41 5 59.5 7.5t40 10.5t28 17t14 29.5t8.5 44t1 65.5v540
q-27 0 -90 1t-71 1q-5 -2 -8 8q-8 22 -3 39q1 3 2 3q13 1 42 2t41.5 2t32 3.5t32 7t22.5 11.5v78q0 258 139.5 431t334.5 173q125 0 209.5 -80.5t84.5 -205.5q0 -58 -16 -106.5t-41 -81.5t-55.5 -61.5t-61 -53.5t-55.5 -50.5t-41 -59t-16 -73.5q0 -38 21 -72.5t54.5 -62
t73.5 -54.5t80.5 -56.5t74 -62t54.5 -76.5t21 -95q0 -112 -83 -196.5t-218 -84.5z" />
    <glyph glyph-name="agrave" unicode="&#xe0;" horiz-adv-x="872" 
d="M707 -35q-56 0 -93 33t-43 92q-61 -55 -138.5 -87t-151.5 -32q-87 0 -139 49.5t-52 126.5q0 92 116 155t369 77q5 195 5 225q0 99 -58 133q-41 23 -119 23q-45 0 -81.5 -18t-36.5 -40q0 -14 5 -32t5 -31q0 -31 -43 -57.5t-94 -26.5q-24 0 -38 12t-11 31q1 29 42 73
t100.5 85t138.5 70.5t147 29.5q85 0 139 -58t55 -159q1 -43 -5 -243.5t-5 -258.5q2 -60 39.5 -75.5t134.5 14.5l10 -15q4 -11 0 -14q-116 -82 -198 -82zM254 166q0 -103 127 -103q51 0 92 17.5t92 58.5q4 80 8 199q-97 -7 -162.5 -23.5t-98 -40.5t-45.5 -49.5t-13 -58.5z
M508 956l-322 355q-8 8 6 26t34 28t26 1l285 -391q6 -7 0 -15t-14.5 -9t-14.5 5z" />
    <glyph glyph-name="aacute" unicode="&#xe1;" horiz-adv-x="872" 
d="M707 -35q-56 0 -93 33t-43 92q-61 -55 -138.5 -87t-151.5 -32q-87 0 -139 49.5t-52 126.5q0 92 116 155t369 77q5 195 5 225q0 99 -58 133q-41 23 -119 23q-45 0 -81.5 -18t-36.5 -40q0 -14 5 -32t5 -31q0 -31 -43 -57.5t-94 -26.5q-24 0 -38 12t-11 31q1 29 42 73
t100.5 85t138.5 70.5t147 29.5q85 0 139 -58t55 -159q1 -43 -5 -243.5t-5 -258.5q2 -60 39.5 -75.5t134.5 14.5l10 -15q4 -11 0 -14q-116 -82 -198 -82zM254 166q0 -103 127 -103q51 0 92 17.5t92 58.5q4 80 8 199q-97 -7 -162.5 -23.5t-98 -40.5t-45.5 -49.5t-13 -58.5z
M387 965q-10 -10 -22.5 -3t-2.5 21l281 391q7 9 26.5 -1t34 -27.5t7.5 -26.5z" />
    <glyph glyph-name="acircumflex" unicode="&#xe2;" horiz-adv-x="872" 
d="M707 -35q-56 0 -93 33t-43 92q-61 -55 -138.5 -87t-151.5 -32q-87 0 -139 49.5t-52 126.5q0 92 116 155t369 77q5 195 5 225q0 99 -58 133q-41 23 -119 23q-45 0 -81.5 -18t-36.5 -40q0 -14 5 -32t5 -31q0 -31 -43 -57.5t-94 -26.5q-24 0 -38 12t-11 31q1 29 42 73
t100.5 85t138.5 70.5t147 29.5q85 0 139 -58t55 -159q1 -43 -5 -243.5t-5 -258.5q2 -60 39.5 -75.5t134.5 14.5l10 -15q4 -11 0 -14q-116 -82 -198 -82zM254 166q0 -103 127 -103q51 0 92 17.5t92 58.5q4 80 8 199q-97 -7 -162.5 -23.5t-98 -40.5t-45.5 -49.5t-13 -58.5z
M662 956l-220 301l-211 -301q-6 -6 -14 -6t-13.5 6.5t-0.5 14.5l227 415q5 7 16.5 6.5t16.5 -8.5l229 -413q4 -7 -1 -14t-13 -8t-16 7z" />
    <glyph glyph-name="atilde" unicode="&#xe3;" horiz-adv-x="872" 
d="M707 -35q-56 0 -93 33t-43 92q-61 -55 -138.5 -87t-151.5 -32q-87 0 -139 49.5t-52 126.5q0 92 116 155t369 77q5 195 5 225q0 99 -58 133q-41 23 -119 23q-45 0 -81.5 -18t-36.5 -40q0 -14 5 -32t5 -31q0 -31 -43 -57.5t-94 -26.5q-24 0 -38 12t-11 31q1 29 42 73
t100.5 85t138.5 70.5t147 29.5q85 0 139 -58t55 -159q1 -43 -5 -243.5t-5 -258.5q2 -60 39.5 -75.5t134.5 14.5l10 -15q4 -11 0 -14q-116 -82 -198 -82zM254 166q0 -103 127 -103q51 0 92 17.5t92 58.5q4 80 8 199q-97 -7 -162.5 -23.5t-98 -40.5t-45.5 -49.5t-13 -58.5z
M592 1026q-46 0 -147.5 40t-163.5 40q-95 0 -123 -135q-7 -2 -22 2t-15 8q9 98 64.5 153.5t140.5 55.5q43 0 142.5 -37t147.5 -37q47 0 75 24.5t42 94.5q0 1 9.5 -0.5t19.5 -4.5t10 -7q-8 -90 -55 -143.5t-125 -53.5z" />
    <glyph glyph-name="adieresis" unicode="&#xe4;" horiz-adv-x="872" 
d="M707 -35q-56 0 -93 33t-43 92q-61 -55 -138.5 -87t-151.5 -32q-87 0 -139 49.5t-52 126.5q0 92 116 155t369 77q5 195 5 225q0 99 -58 133q-41 23 -119 23q-45 0 -81.5 -18t-36.5 -40q0 -14 5 -32t5 -31q0 -31 -43 -57.5t-94 -26.5q-24 0 -38 12t-11 31q1 29 42 73
t100.5 85t138.5 70.5t147 29.5q85 0 139 -58t55 -159q1 -43 -5 -243.5t-5 -258.5q2 -60 39.5 -75.5t134.5 14.5l10 -15q4 -11 0 -14q-116 -82 -198 -82zM254 166q0 -103 127 -103q51 0 92 17.5t92 58.5q4 80 8 199q-97 -7 -162.5 -23.5t-98 -40.5t-45.5 -49.5t-13 -58.5z
M639 1030q-38 0 -64 27.5t-26 64.5q0 39 27 69t67 30q39 0 65.5 -28.5t26.5 -66.5q0 -39 -27.5 -67.5t-68.5 -28.5zM276 1030q-39 0 -66.5 27.5t-27.5 64.5q0 39 28.5 69t68.5 30q38 0 65 -29t27 -66q0 -39 -28 -67.5t-67 -28.5z" />
    <glyph glyph-name="aring" unicode="&#xe5;" horiz-adv-x="872" 
d="M477 946q-78 0 -132 52.5t-54 127.5q0 74 54.5 127.5t131.5 53.5q75 0 130 -54t55 -127q0 -75 -55 -127.5t-130 -52.5zM698 -35q-56 0 -92.5 33t-42.5 92q-61 -55 -139 -87t-152 -32q-87 0 -138.5 49.5t-51.5 126.5q0 92 116 155t369 77q4 156 4 225q0 99 -57 133
q-41 23 -119 23q-45 0 -82 -18t-37 -40q0 -14 5.5 -32t5.5 -31q0 -31 -43 -57.5t-94 -26.5q-24 0 -38.5 12.5t-11.5 30.5q1 29 42 73t100.5 85t138.5 70.5t147 29.5q85 0 139.5 -58t55.5 -159q1 -43 -5 -243.5t-5 -258.5q2 -60 39.5 -75.5t134.5 14.5l10 -15q4 -11 0 -14
q-116 -82 -199 -82zM477 1266q-61 0 -103 -41t-42 -99q0 -59 42 -99t103 -40q59 0 101.5 40.5t42.5 98.5q0 57 -42.5 98.5t-101.5 41.5zM246 166q0 -103 127 -103q51 0 92 17.5t92 58.5q4 80 8 199q-97 -7 -162.5 -23.5t-98 -40.5t-45.5 -49.5t-13 -58.5z" />
    <glyph glyph-name="ae" unicode="&#xe6;" horiz-adv-x="1376" 
d="M975 -29q-110 0 -198.5 50t-145.5 133q-70 -79 -166.5 -131t-185.5 -52q-94 0 -152.5 50.5t-58.5 125.5q0 234 491 299q4 132 4 170q0 64 -33 103q-33 41 -114 41q-55 0 -101.5 -17.5t-46.5 -37.5q0 -9 2 -28t2 -28q0 -21 -8 -26q-19 -23 -58 -38.5t-71 -15.5
q-43 0 -43 25q1 28 43 73t102 87.5t138 73t143 30.5q57 0 107 -36t73 -97q136 133 301 133q138 0 223 -89t85 -200q0 -9 -3.5 -30t-5.5 -35l-575 -82q3 -95 32.5 -166.5t76.5 -111.5t99.5 -59t110.5 -19q139 0 248 88q6 3 17 -11t4 -20q-59 -70 -151 -111t-185 -41zM954 801
q-96 0 -161.5 -94.5t-69.5 -241.5l422 59q-5 124 -55.5 200.5t-135.5 76.5zM559 403q-106 -17 -176.5 -42t-102 -55t-42.5 -55.5t-11 -55.5q0 -57 27.5 -94.5t79.5 -37.5q143 0 276 127q-55 104 -51 213z" />
    <glyph glyph-name="ccedilla" unicode="&#xe7;" horiz-adv-x="847" 
d="M508 -25l-55 -77q103 -33 154.5 -90.5t51.5 -120.5q0 -85 -73 -154.5t-221 -91.5q-7 -1 -11.5 7.5t-3.5 17.5t6 10q58 8 98 28.5t57.5 47.5t24.5 48.5t7 43.5q0 111 -211 170l110 159q-161 6 -264.5 118.5t-103.5 277.5q0 125 72 237t199.5 181t277.5 69q70 0 117.5 -24
t47.5 -48q0 -29 -26 -71.5t-47 -42.5q-23 0 -61.5 20t-87 40t-97.5 20q-120 0 -176.5 -72.5t-56.5 -226.5q0 -184 85 -282.5t207 -98.5q134 0 252 88q3 2 10 -4.5t10 -14t-1 -12.5q-53 -56 -128.5 -98.5t-162.5 -53.5z" />
    <glyph glyph-name="egrave" unicode="&#xe8;" horiz-adv-x="901" 
d="M836 526l-588 -14q-2 -20 -2 -66q0 -97 26 -172t70.5 -119t98 -65.5t112.5 -21.5q145 0 262 86q1 2 8 -4t12 -14t1 -11q-60 -66 -158 -110t-195 -44q-179 0 -290 115.5t-111 298.5q0 121 65 231t168.5 175t212.5 65q76 0 138.5 -26t101 -67t59.5 -88.5t21 -94.5
q0 -6 -12 -54zM473 793q-78 0 -137 -63t-82 -173l432 10q-3 83 -62 154.5t-151 71.5zM502 956l-320 355q-8 8 5.5 26t33.5 28t27 1l284 -391q7 -12 -7 -21t-23 2z" />
    <glyph glyph-name="eacute" unicode="&#xe9;" horiz-adv-x="901" 
d="M836 526l-588 -14q-2 -20 -2 -66q0 -97 26 -172t70.5 -119t98 -65.5t112.5 -21.5q145 0 262 86q1 2 8 -4t12 -14t1 -11q-60 -66 -158 -110t-195 -44q-179 0 -290 115.5t-111 298.5q0 121 65 231t168.5 175t212.5 65q76 0 138.5 -26t101 -67t59.5 -88.5t21 -94.5
q0 -6 -12 -54zM473 793q-78 0 -137 -63t-82 -173l432 10q-3 83 -62 154.5t-151 71.5zM457 965q-10 -10 -22.5 -3t-2.5 21l281 391q7 9 26.5 -1t33.5 -27.5t7 -26.5z" />
    <glyph glyph-name="ecircumflex" unicode="&#xea;" horiz-adv-x="901" 
d="M836 526l-588 -14q-2 -20 -2 -66q0 -97 26 -172t70.5 -119t98 -65.5t112.5 -21.5q145 0 262 86q1 2 8 -4t12 -14t1 -11q-60 -66 -158 -110t-195 -44q-179 0 -290 115.5t-111 298.5q0 121 65 231t168.5 175t212.5 65q76 0 138.5 -26t101 -67t59.5 -88.5t21 -94.5
q0 -6 -12 -54zM473 793q-78 0 -137 -63t-82 -173l432 10q-3 83 -62 154.5t-151 71.5zM688 956l-219 301l-211 -301q-5 -6 -13.5 -6t-14.5 7t-1 14l228 415q5 7 17 6.5t15 -8.5l230 -413q4 -7 -1.5 -14t-13.5 -8t-16 7z" />
    <glyph glyph-name="edieresis" unicode="&#xeb;" horiz-adv-x="901" 
d="M836 526l-588 -14q-2 -20 -2 -66q0 -97 26 -172t70.5 -119t98 -65.5t112.5 -21.5q145 0 262 86q1 2 8 -4t12 -14t1 -11q-60 -66 -158 -110t-195 -44q-179 0 -290 115.5t-111 298.5q0 121 65 231t168.5 175t212.5 65q76 0 138.5 -26t101 -67t59.5 -88.5t21 -94.5
q0 -6 -12 -54zM473 793q-78 0 -137 -63t-82 -173l432 10q-3 83 -62 154.5t-151 71.5zM668 1030q-39 0 -66 27.5t-27 64.5q0 40 27.5 69.5t69.5 29.5q37 0 63.5 -28.5t26.5 -66.5q0 -39 -27 -67.5t-67 -28.5zM303 1030q-38 0 -65 27.5t-27 64.5q0 39 28 69t68 30q38 0 65 -29
t27 -66q0 -39 -27.5 -67.5t-68.5 -28.5z" />
    <glyph glyph-name="igrave" unicode="&#xec;" horiz-adv-x="559" 
d="M291 0q-164 0 -219 -8q-9 -2 -5 25q2 12 5 12q39 5 56 7.5t37.5 10.5t27 17t13.5 29.5t8 44t1 65.5v346q0 96 -23.5 119.5t-97.5 -2.5q-7 -2 -12 11t2 19q174 102 234 153q16 13 28 25q1 2 8.5 -0.5t14.5 -7.5t6 -10q-13 -53 -13 -299v-354q0 -42 1 -65.5t8 -44t13 -29.5
t26.5 -17t37.5 -10.5t56 -7.5q6 0 6 -23q0 -15 -6 -14q-55 8 -213 8zM297 956l-320 355q-8 8 5.5 26t33.5 28t27 1l285 -391q5 -8 -1 -15.5t-14.5 -8.5t-15.5 5z" />
    <glyph glyph-name="iacute" unicode="&#xed;" horiz-adv-x="559" 
d="M291 0q-164 0 -219 -8q-9 -2 -5 25q2 12 5 12q39 5 56 7.5t37.5 10.5t27 17t13.5 29.5t8 44t1 65.5v346q0 96 -23.5 119.5t-97.5 -2.5q-7 -2 -12 11t2 19q174 102 234 153q16 13 28 25q1 2 8.5 -0.5t14.5 -7.5t6 -10q-13 -53 -13 -299v-354q0 -42 1 -65.5t8 -44t13 -29.5
t26.5 -17t37.5 -10.5t56 -7.5q6 0 6 -23q0 -15 -6 -14q-55 8 -213 8zM274 965q-8 -10 -21 -3t-3 21l282 391q6 9 25.5 -1t34 -28t6.5 -26z" />
    <glyph glyph-name="icircumflex" unicode="&#xee;" horiz-adv-x="559" 
d="M291 0q-164 0 -219 -8q-9 -2 -5 25q2 12 5 12q39 5 56 7.5t37.5 10.5t27 17t13.5 29.5t8 44t1 65.5v346q0 96 -23.5 119.5t-97.5 -2.5q-7 -2 -12 11t2 19q174 102 234 153q16 13 28 25q1 2 8.5 -0.5t14.5 -7.5t6 -10q-13 -53 -13 -299v-354q0 -42 1 -65.5t8 -44t13 -29.5
t26.5 -17t37.5 -10.5t56 -7.5q6 0 6 -23q0 -15 -6 -14q-55 8 -213 8zM492 956l-222 301l-209 -301q-8 -11 -22 -4t-8 19l229 415q3 7 15.5 6.5t17.5 -8.5l229 -413q4 -7 -1.5 -14t-13.5 -8t-15 7z" />
    <glyph glyph-name="idieresis" unicode="&#xef;" horiz-adv-x="559" 
d="M291 0q-164 0 -219 -8q-9 -2 -5 25q2 12 5 12q39 5 56 7.5t37.5 10.5t27 17t13.5 29.5t8 44t1 65.5v346q0 96 -23.5 119.5t-97.5 -2.5q-7 -2 -12 11t2 19q174 102 234 153q16 13 28 25q1 2 8.5 -0.5t14.5 -7.5t6 -10q-13 -53 -13 -299v-354q0 -42 1 -65.5t8 -44t13 -29.5
t26.5 -17t37.5 -10.5t56 -7.5q6 0 6 -23q0 -15 -6 -14q-55 8 -213 8zM463 1030q-39 0 -65.5 27.5t-26.5 64.5q0 40 27.5 69.5t68.5 29.5q39 0 65.5 -28.5t26.5 -66.5q0 -39 -27.5 -67.5t-68.5 -28.5zM98 1030q-38 0 -65 27.5t-27 64.5q0 39 28 69t68 30q38 0 65.5 -29
t27.5 -66q0 -39 -28 -67.5t-69 -28.5z" />
    <glyph glyph-name="eth" unicode="&#xf0;" horiz-adv-x="1015" 
d="M690 55q-112 -84 -252 -84q-147 0 -255.5 115t-108.5 281q0 123 64 231t178.5 174t252.5 66q60 0 168 -17q-44 146 -112 230q-1 1 -38 -26t-73 -54l-37 -27q-17 -4 -34 27t-5 39l142 88q-106 106 -269 106q-32 0 -89.5 -18.5t-84.5 -42.5q-9 -10 -20 -1.5t0 25.5
q41 62 121 103t155 41q184 0 320 -129l114 73q14 9 31.5 -21.5t9.5 -41.5l-104 -66q82 -98 127 -233t45 -275q0 -203 -57.5 -334.5t-188.5 -228.5zM770 664q-57 42 -135.5 68t-159.5 26q-113 0 -178.5 -82.5t-65.5 -241.5q0 -87 27.5 -157.5t72.5 -113.5t99 -66t111 -23
q103 0 170 113.5t67 351.5q0 68 -8 125z" />
    <glyph glyph-name="ntilde" unicode="&#xf1;" horiz-adv-x="1105" 
d="M872 0q-145 0 -204 -8q-5 -2 -6 7q-2 21 6 32q44 4 64.5 9.5t37 24t21 49.5t4.5 89v307q0 136 -31 193t-117 57q-51 0 -103 -21t-165 -88v-448q0 -104 21.5 -134.5t103.5 -37.5q6 0 6 -23q-1 -17 -8 -16q-57 8 -193 8q-178 0 -235 -8q-5 -2 -7 7q-2 21 5 32q41 4 60 6.5
t40.5 10.5t28.5 16.5t14.5 29t8.5 44t1 65.5v344q0 97 -24.5 121t-102.5 -2q-7 -2 -13.5 13t1.5 19q130 68 254 176q1 2 7 -0.5t12.5 -7.5t7.5 -10q5 -45 10 -156q125 86 207.5 121t154.5 35q110 0 159.5 -65.5t49.5 -190.5v-397q0 -40 1 -61.5t6.5 -43t14 -31t26.5 -18.5
t41 -12t61 -6q6 0 5 -24q-1 -16 -7 -15q-52 8 -224 8zM709 1026q-48 0 -149 40t-163 40q-95 0 -123 -135q-6 -2 -21 2t-15 8q9 98 64 153.5t140 55.5q42 0 142.5 -37t148.5 -37q47 0 75 24.5t42 94.5q0 1 9 -0.5t18.5 -4.5t9.5 -7q-6 -90 -53 -143.5t-125 -53.5z" />
    <glyph glyph-name="ograve" unicode="&#xf2;" horiz-adv-x="1048" 
d="M520 -29q-130 0 -231.5 61t-154 157.5t-52.5 209.5q0 89 32 171t90 146t146.5 102t192.5 38q98 0 182 -35.5t140 -95t88 -136.5t32 -161q0 -89 -33 -171t-91.5 -146t-147.5 -102t-193 -38zM498 797q-120 0 -185 -91.5t-65 -224.5q0 -209 86.5 -328.5t232.5 -119.5
q80 0 137.5 44.5t84 114t26.5 154.5q0 209 -86.5 330t-230.5 121zM510 956l-322 355q-8 8 6.5 26t34.5 28t27 1l283 -391q6 -8 0.5 -15.5t-14 -8.5t-15.5 5z" />
    <glyph glyph-name="oacute" unicode="&#xf3;" horiz-adv-x="1048" 
d="M520 -29q-130 0 -231.5 61t-154 157.5t-52.5 209.5q0 89 32 171t90 146t146.5 102t192.5 38q98 0 182 -35.5t140 -95t88 -136.5t32 -161q0 -89 -33 -171t-91.5 -146t-147.5 -102t-193 -38zM498 797q-120 0 -185 -91.5t-65 -224.5q0 -209 86.5 -328.5t232.5 -119.5
q80 0 137.5 44.5t84 114t26.5 154.5q0 209 -86.5 330t-230.5 121zM463 965q-10 -10 -22.5 -3t-2.5 21l283 391q6 9 25 -1t33 -28t7 -26z" />
    <glyph glyph-name="ocircumflex" unicode="&#xf4;" horiz-adv-x="1048" 
d="M520 -29q-130 0 -231.5 61t-154 157.5t-52.5 209.5q0 89 32 171t90 146t146.5 102t192.5 38q98 0 182 -35.5t140 -95t88 -136.5t32 -161q0 -89 -33 -171t-91.5 -146t-147.5 -102t-193 -38zM498 797q-120 0 -185 -91.5t-65 -224.5q0 -209 86.5 -328.5t232.5 -119.5
q80 0 137.5 44.5t84 114t26.5 154.5q0 209 -86.5 330t-230.5 121zM743 956l-219 301l-211 -301q-6 -6 -14 -6t-13.5 6.5t-0.5 14.5l227 415q5 7 16.5 6.5t16.5 -8.5l229 -413q4 -7 -1.5 -14t-13.5 -8t-16 7z" />
    <glyph glyph-name="otilde" unicode="&#xf5;" horiz-adv-x="1048" 
d="M520 -29q-130 0 -231.5 61t-154 157.5t-52.5 209.5q0 89 32 171t90 146t146.5 102t192.5 38q98 0 182 -35.5t140 -95t88 -136.5t32 -161q0 -89 -33 -171t-91.5 -146t-147.5 -102t-193 -38zM498 797q-120 0 -185 -91.5t-65 -224.5q0 -209 86.5 -328.5t232.5 -119.5
q80 0 137.5 44.5t84 114t26.5 154.5q0 209 -86.5 330t-230.5 121zM651 1026q-46 0 -147.5 40t-163.5 40q-96 0 -121 -135q-7 -2 -22 2t-15 8q7 97 62 153t141 56q43 0 143.5 -37t149.5 -37q46 0 73.5 24.5t43.5 94.5q0 1 9 -0.5t18 -4.5t9 -7q-8 -90 -54 -143.5t-126 -53.5z
" />
    <glyph glyph-name="odieresis" unicode="&#xf6;" horiz-adv-x="1048" 
d="M520 -29q-130 0 -231.5 61t-154 157.5t-52.5 209.5q0 89 32 171t90 146t146.5 102t192.5 38q98 0 182 -35.5t140 -95t88 -136.5t32 -161q0 -89 -33 -171t-91.5 -146t-147.5 -102t-193 -38zM498 797q-120 0 -185 -91.5t-65 -224.5q0 -209 86.5 -328.5t232.5 -119.5
q80 0 137.5 44.5t84 114t26.5 154.5q0 209 -86.5 330t-230.5 121zM705 1030q-39 0 -66 27.5t-27 64.5q0 39 27.5 69t67.5 30q39 0 65.5 -28.5t26.5 -66.5q0 -39 -27.5 -67.5t-66.5 -28.5zM340 1030q-39 0 -66.5 27.5t-27.5 64.5q0 39 28 69t70 30q36 0 63 -29t27 -66
q0 -39 -27.5 -67.5t-66.5 -28.5z" />
    <glyph glyph-name="oslash" unicode="&#xf8;" horiz-adv-x="1048" 
d="M512 -29q-141 0 -264 84q0 1 -18.5 -26.5t-37.5 -55.5l-18 -28q-4 -4 -13 -1t-16.5 10.5t-3.5 12.5l82 105q-72 61 -110.5 146t-38.5 181q0 89 32 171t90 146t146.5 102t192.5 38q138 0 247 -72l78 99q5 4 14 1t16 -11t3 -13l-78 -98q77 -62 119.5 -149.5t42.5 -184.5
q0 -89 -33 -171t-91.5 -146t-147.5 -102t-193 -38zM489 797q-120 0 -184.5 -91.5t-64.5 -224.5q0 -185 67 -303l402 512q-81 107 -220 107zM733 655l-401 -510q80 -112 227 -112q80 0 137.5 44.5t84 114t26.5 154.5q0 189 -74 309z" />
    <glyph glyph-name="ugrave" unicode="&#xf9;" horiz-adv-x="1050" 
d="M795 -33q-27 0 -45 48t-19 128q-73 -72 -164 -122t-166 -50q-104 0 -167 65t-62 191l6 389q2 78 -19 98t-110 23q-4 0 -8.5 14.5t2.5 16.5q144 26 252 90q1 2 7.5 -1.5t13.5 -9.5t8 -11q6 -56 6 -197l-4 -322q-1 -142 32.5 -193.5t126.5 -51.5q106 0 246 123l6 432
q2 78 -18 98.5t-109 26.5q-3 0 -7 8.5t-4.5 15.5t3.5 8q150 24 254 82q3 0 15 -9.5t12 -14.5q6 -55 6 -203l-4 -467q0 -70 36 -84.5t128 12.5q1 1 4 -4q11 -18 7 -28q-1 -2 -3 -2q-70 -35 -150 -67t-112 -32zM545 956l-322 355q-8 8 5.5 26t33.5 28t27 1l284 -391
q6 -7 0.5 -15t-14 -9t-14.5 5z" />
    <glyph glyph-name="uacute" unicode="&#xfa;" horiz-adv-x="1050" 
d="M795 -33q-27 0 -45 48t-19 128q-73 -72 -164 -122t-166 -50q-104 0 -167 65t-62 191l6 389q2 78 -19 98t-110 23q-4 0 -8.5 14.5t2.5 16.5q144 26 252 90q1 2 7.5 -1.5t13.5 -9.5t8 -11q6 -56 6 -197l-4 -322q-1 -142 32.5 -193.5t126.5 -51.5q106 0 246 123l6 432
q2 78 -18 98.5t-109 26.5q-3 0 -7 8.5t-4.5 15.5t3.5 8q150 24 254 82q3 0 15 -9.5t12 -14.5q6 -55 6 -203l-4 -467q0 -70 36 -84.5t128 12.5q1 1 4 -4q11 -18 7 -28q-1 -2 -3 -2q-70 -35 -150 -67t-112 -32zM453 965q-9 -10 -22.5 -3t-4.5 21l283 391q7 9 26 -1t33 -28
t6 -26z" />
    <glyph glyph-name="ucircumflex" unicode="&#xfb;" horiz-adv-x="1050" 
d="M795 -33q-27 0 -45 48t-19 128q-73 -72 -164 -122t-166 -50q-104 0 -167 65t-62 191l6 389q2 78 -19 98t-110 23q-4 0 -8.5 14.5t2.5 16.5q144 26 252 90q1 2 7.5 -1.5t13.5 -9.5t8 -11q6 -56 6 -197l-4 -322q-1 -142 32.5 -193.5t126.5 -51.5q106 0 246 123l6 432
q2 78 -18 98.5t-109 26.5q-3 0 -7 8.5t-4.5 15.5t3.5 8q150 24 254 82q3 0 15 -9.5t12 -14.5q6 -55 6 -203l-4 -467q0 -70 36 -84.5t128 12.5q1 1 4 -4q11 -18 7 -28q-1 -2 -3 -2q-70 -35 -150 -67t-112 -32zM737 956l-221 301l-209 -301q-6 -6 -14.5 -6t-14.5 6.5t-2 14.5
l230 415q3 7 15.5 6.5t17.5 -8.5l229 -413q4 -7 -1.5 -14t-14 -8t-15.5 7z" />
    <glyph glyph-name="udieresis" unicode="&#xfc;" horiz-adv-x="1050" 
d="M795 -33q-27 0 -45 48t-19 128q-73 -72 -164 -122t-166 -50q-104 0 -167 65t-62 191l6 389q2 78 -19 98t-110 23q-4 0 -8.5 14.5t2.5 16.5q144 26 252 90q1 2 7.5 -1.5t13.5 -9.5t8 -11q6 -56 6 -197l-4 -322q-1 -142 32.5 -193.5t126.5 -51.5q106 0 246 123l6 432
q2 78 -18 98.5t-109 26.5q-3 0 -7 8.5t-4.5 15.5t3.5 8q150 24 254 82q3 0 15 -9.5t12 -14.5q6 -55 6 -203l-4 -467q0 -70 36 -84.5t128 12.5q1 1 4 -4q11 -18 7 -28q-1 -2 -3 -2q-70 -35 -150 -67t-112 -32zM684 1030q-39 0 -65.5 27.5t-26.5 64.5q0 40 27.5 69.5
t68.5 29.5q37 0 63.5 -28.5t26.5 -66.5q0 -39 -27.5 -67.5t-66.5 -28.5zM319 1030q-39 0 -66.5 27.5t-27.5 64.5q0 39 28.5 69t70.5 30q38 0 65 -29t27 -66q0 -39 -28 -67.5t-69 -28.5z" />
    <glyph glyph-name="yacute" unicode="&#xfd;" horiz-adv-x="878" 
d="M733 629q-5 -13 -55 -125t-94.5 -222t-98.5 -254t-93 -288t-52 -258q-21 -1 -76.5 -1t-73.5 -1q-82 -3 -129 -12q-3 -1 -5.5 2.5t-3.5 9t-1 11t1 9.5t3 4q68 11 129 60q89 68 168 276l56 144l-232 645q-35 100 -77 135t-122 41q-5 0 -7 9t1.5 18t10.5 8q39 -6 211 -6
q126 0 202 8q12 2 6 -25q-2 -12 -6 -12q-79 -9 -91.5 -39t22.5 -133l157 -463l191 463q38 98 23.5 130.5t-95.5 41.5q-6 0 -6 23q0 15 6 14q79 -8 170 -8q108 0 160 8q3 1 4.5 -3t2 -9.5t0.5 -11t-1 -9.5t-2 -4q-81 -6 -122.5 -43t-80.5 -133zM444 965q-9 -10 -22 -3t-4 21
l282 391q7 9 26.5 -1t33.5 -28t6 -26z" />
    <glyph glyph-name="thorn" unicode="&#xfe;" horiz-adv-x="1042" 
d="M446 -29q-62 0 -133 19v-307q0 -40 2 -64t11 -44.5t20.5 -30t38 -16.5t55 -9t80.5 -4q5 0 6.5 -18.5t-6.5 -18.5q-41 3 -138 3.5t-138 -1.5q-135 -3 -213 -17q-4 -2 -6 6q-3 20 4 29q35 5 54 8.5t35.5 13t23 17.5t11 31.5t5 44t0.5 65.5v373q-11 4 -74 41l74 109v989
q0 96 -24.5 119.5t-102.5 -0.5q-7 -2 -12.5 11t1.5 19q5 3 32.5 17.5t37.5 20t36 19.5t39.5 22t35.5 21.5t36.5 23.5t31 22.5t28.5 23.5q1 2 8.5 -0.5t14.5 -7.5t6 -10q-13 -51 -13 -293v-479q155 119 291 119q155 0 262 -114t107 -273q0 -85 -41 -171t-110.5 -154.5
t-168.5 -111.5t-207 -43zM516 727q-95 0 -203 -63v-533q124 -68 256 -68q105 0 169.5 92.5t64.5 250.5q0 151 -85.5 236t-201.5 85z" />
    <glyph glyph-name="ydieresis" unicode="&#xff;" horiz-adv-x="878" 
d="M741 629q-5 -13 -55 -125t-94.5 -222t-98.5 -254t-93 -288t-52 -258q-22 -1 -76.5 -1t-72.5 -1q-82 -3 -129 -12q-5 -1 -8 8t-2.5 18.5t3.5 9.5q69 11 130 60q88 67 167 276l56 144l-232 645q-35 101 -76.5 135.5t-121.5 40.5q-5 0 -7 9t1 18t10 8q39 -6 211 -6
q126 0 202 8q12 2 6 -25q-2 -12 -6 -12q-79 -9 -91.5 -39t22.5 -133l158 -463l190 463q38 98 23.5 130.5t-95.5 41.5q-6 0 -6 23q0 15 6 14q79 -8 170 -8q108 0 160 8q3 1 4.5 -3t2 -9.5t0.5 -11t-1 -9.5t-2 -4q-81 -6 -122.5 -43t-80.5 -133zM668 1030q-39 0 -66 27.5
t-27 64.5q0 40 27.5 69.5t69.5 29.5q37 0 63.5 -28.5t26.5 -66.5q0 -39 -27 -67.5t-67 -28.5zM303 1030q-38 0 -65 27.5t-27 64.5q0 39 28 69t68 30q38 0 65 -29t27 -66q0 -39 -27.5 -67.5t-68.5 -28.5z" />
    <glyph glyph-name="Lslash" horiz-adv-x="1200" 
d="M1118 33q-7 -27 -19 -35t-38 -8q-29 0 -142 5t-198 5q-406 0 -588 -12q-7 -1 -9 8.5t1 19.5t8 11q115 13 143 24q43 17 55 70q11 46 11 229v266l-143 -32q-12 0 -20 18.5t-7.5 38t10.5 21.5q11 2 29 4.5t56 8.5t63.5 10t25.5 3h-14v277v102t-4.5 75t-7 56.5t-16 37
t-21.5 25.5t-35 14t-45 10t-61 7q-9 2 -10 22q1 14 10 13q106 -12 301 -12q159 0 254 12q9 1 11 -8t-1 -18t-6 -9q-53 -5 -80.5 -8t-53 -20t-34 -29.5t-15.5 -58.5t-7.5 -83.5t-0.5 -127.5v-230l185 45q15 3 21.5 -34.5t-5.5 -45.5l-201 -41v-309q0 -130 9.5 -185t32.5 -73
t79 -18h117q84 0 134.5 1t91.5 8t59.5 13t34 25t20.5 35t14 51q0 1 4 2t9 1t10.5 -0.5t9 -2t2.5 -4.5q-11 -106 -29 -170z" />
    <glyph glyph-name="lslash" horiz-adv-x="530" 
d="M344 739v-536q0 -42 1 -65.5t8 -44t14 -29.5t28 -17t39.5 -10.5t59.5 -7.5q6 0 6 -23q0 -15 -6 -14q-59 8 -232 8q-168 0 -227 -8q-9 -2 -5 25q2 12 5 12q41 5 59.5 7.5t40.5 10.5t28.5 17t14.5 29t9 44.5t1 65.5v502l-163 -39q-17 0 -23.5 37t8.5 40l178 39v408
q0 96 -25 119.5t-102 -0.5q-7 -2 -12 11t2 19q5 3 32.5 17.5t37.5 20t36 19.5t39.5 22t35.5 21.5t36.5 23.5t31 22.5t28.5 23.5q1 2 8.5 -0.5t14 -7.5t5.5 -10q-12 -47 -12 -293v-383l186 47q11 3 19 -16t7.5 -37.5t-7.5 -26.5z" />
    <glyph glyph-name="lessequal" horiz-adv-x="1765" 
d="M1483 -369q-147 0 -291.5 76t-345.5 254q-156 3 -291.5 60t-227.5 150t-144 214t-52 252q0 85 25.5 171.5t72.5 166t116.5 149.5t153 121.5t187.5 81t215 29.5q158 0 296.5 -56t233.5 -149.5t149 -216.5t54 -254q0 -144 -70.5 -286t-203 -253t-299.5 -155
q132 -123 270 -196t252 -73q128 0 221 41q4 2 10 -6t7 -17t-6 -14q-80 -45 -154 -67.5t-178 -22.5zM852 1294q-238 0 -388.5 -158t-150.5 -431q0 -131 34 -243.5t92 -192t135 -136t162.5 -83.5t174.5 -27q115 0 214 40t171.5 114t114 185.5t41.5 247.5q0 132 -34.5 244.5
t-92.5 192.5t-135 136.5t-163 83.5t-175 27z" />
    <glyph glyph-name="summation" horiz-adv-x="1792" 
d="M1284 526l-110 -155q249 -322 389 -322q71 0 127 33q3 2 11.5 -3.5t12.5 -13.5t-4 -16q-119 -94 -248 -94q-93 0 -186 66t-201 210q-52 -60 -99.5 -104t-108 -84.5t-129.5 -62t-144 -21.5q-47 0 -101.5 14t-111.5 45t-103.5 74.5t-76 108.5t-29.5 141q0 134 98.5 246
t274.5 176q-87 75 -132.5 150.5t-45.5 138.5q0 133 87.5 218t245.5 85q124 0 215 -73t91 -181q0 -81 -67 -155t-196 -132q75 -64 187 -179t211 -228q70 91 119 184.5t49 155.5q0 30 -40 47t-134 24q-6 0 -7 21q0 17 9 16q100 -14 301 -14q162 0 272 14q7 2 9.5 -7.5t0 -19.5
t-7.5 -10q-68 -3 -112.5 -13.5t-96 -41.5t-102 -87.5t-117.5 -150.5zM682 1298q-83 0 -124.5 -46t-41.5 -128q0 -58 43 -120.5t148 -151.5q155 89 155 246q0 88 -50.5 144t-129.5 56zM588 727q-109 -39 -177.5 -121t-68.5 -182q0 -140 98.5 -235t249.5 -95q112 0 192 43.5
t156 134.5q-214 249 -450 455z" />
    <glyph glyph-name="product" horiz-adv-x="1474" 
d="M1329 1212q-14 0 -172.5 11.5t-234.5 11.5h-72v-885v-126t7.5 -82.5t15.5 -58.5t33.5 -28.5t52 -19.5t79.5 -8q5 0 7.5 -10.5t0 -20.5t-9.5 -8q-94 12 -254 12q-215 0 -301 -12q-9 -1 -10.5 9t2 20t6.5 10q102 11 128 24q41 19 53 81q10 52 10 218v885h-230
q-109 0 -180.5 -7.5t-114 -25.5t-63 -35t-45.5 -49q-6 -6 -26 6q-9 6 -5 9q36 43 126 119.5t101 76.5q14 0 173 -11t235 -11h481q143 0 226.5 15.5t114 36t63.5 62.5q7 7 24 -4q11 -6 4 -12q-37 -42 -125.5 -117.5t-99.5 -75.5z" />
    <glyph glyph-name="pi" horiz-adv-x="1443" 
d="M721 -29q-166 0 -307 80t-223 217.5t-82 298.5q0 162 82 300t223 218t307 80q167 0 309 -80t224.5 -218t82.5 -300q0 -161 -82.5 -298.5t-224.5 -217.5t-309 -80zM721 1124q-154 0 -285 -74.5t-207.5 -203t-76.5 -279.5q0 -150 76.5 -277.5t207.5 -201.5t285 -74
q117 0 223 44t182.5 118t122 176.5t45.5 214.5q0 113 -45.5 216t-122 178t-182.5 119t-223 44zM756 532h-19q-4 0 -5 8t0 16.5t3 8.5h19q55 2 85.5 33.5t30.5 93.5q0 123 -118 123q-17 0 -37 -4q-6 -25 -6 -111v-249q0 -78 13.5 -100.5t68.5 -26.5q5 0 3 -23q-2 -11 -6 -10
q-38 6 -120 6q-86 0 -142 -6q-10 -2 -5 24q1 9 3 9q56 6 71 28t15 99v245q0 79 -15 101t-71 28q-5 0 -4 21q0 13 6 12q56 -6 127 -6q8 0 50.5 2t60.5 2q89 0 150 -41t61 -108q0 -75 -59.5 -123.5t-159.5 -51.5z" />
    <glyph glyph-name="Omega" horiz-adv-x="1187" 
d="M1321 1294q-22 0 -59.5 21.5t-82.5 43t-85 21.5q-45 0 -75 -13.5t-51.5 -42t-33 -82t-16.5 -125.5t-5 -179v-119h105q145 0 172 6q12 3 12 -43q0 -40 -10 -43q-50 4 -145 4h-134v-540q0 -56 6 -85.5t29 -50t61 -28t109 -10.5q6 0 7 -22q-2 -16 -9 -15q-60 8 -278 8
q-136 0 -195 -8q-6 -2 -8 7q-1 19 6 30q31 4 47 7t32 11t22 17.5t11 30t6 44t1 64.5v540h-373v-540q0 -31 0.5 -46.5t2.5 -36.5t6.5 -30t13 -21.5t20 -17t30 -10.5t42 -8t55.5 -4q6 0 6 -23q0 -15 -6 -14q-60 8 -240 8q-178 0 -237 -8q-9 -2 -5 25q2 12 5 12q41 5 59.5 7.5
t40 10.5t28 17t14 29.5t8.5 44t1 65.5v540q-25 0 -87.5 1t-71.5 1q-3 -1 -5.5 3.5t-4 12t-2 15.5t-0.5 13.5t1 5.5q13 1 43 2t42 2t31 3.5t31.5 7t22.5 11.5v31q0 127 42 244.5t110.5 201t159 133.5t184.5 50q113 0 219 -95q58 55 133 86t152 31q62 0 118 -31t56 -55
q0 -31 -30.5 -77t-53.5 -46zM623 1372q-115 0 -175.5 -110t-60.5 -371v-72h373v80q0 212 92 371q-42 47 -104.5 74.5t-124.5 27.5z" />
    <glyph glyph-name="radical" horiz-adv-x="1679" 
d="M1411 0q-142 0 -201 -8q-6 -2 -8 7q-1 19 6 30q36 5 53 7.5t35 11t24 17t12 30t6.5 44t0.5 64.5v540h-426v-540q0 -56 4.5 -84t24 -50t54 -29.5t98.5 -10.5q6 0 7 -22q-2 -16 -9 -15q-57 8 -271 8q-119 0 -178 -8q-6 -2 -8 7q-1 19 6 30q31 4 47 7t32 11t22 17.5t11 30
t6 44t1 64.5v540h-373v-540q0 -31 0.5 -46.5t2.5 -36.5t6.5 -30t13 -21.5t20 -17t30 -10.5t42 -8t55.5 -4q6 0 6 -23q0 -15 -6 -14q-60 8 -240 8q-178 0 -237 -8q-9 -2 -5 25q2 12 5 12q41 5 59.5 7.5t40 10.5t28 17t14 29.5t8.5 44t1 65.5v540q-25 0 -88.5 1t-72.5 1
q-7 -3 -9 36q-1 14 0 14q13 1 43 2t42 2t31 3.5t31.5 7t22.5 11.5v31q0 127 42 244.5t110.5 201t159 133.5t184.5 50q131 0 238 -107q132 129 288 129q97 0 160 -45q4 4 30 23t34 26q1 2 8.5 0t14 -6.5t5.5 -9.5q-12 -47 -12 -293v-995q0 -42 1 -65.5t8 -44t13.5 -29.5
t27.5 -17t39.5 -10.5t59.5 -7.5q6 0 7 -22q-2 -16 -9 -15q-59 8 -229 8zM1339 1294q-28 39 -82 65.5t-116 26.5q-57 0 -97.5 -22.5t-70.5 -75.5t-45 -145.5t-15 -227.5v-96h426v475zM623 1372q-56 0 -98 -24.5t-74 -79t-48 -149t-16 -228.5v-72h373v55q0 213 106 383
q-57 60 -113 87.5t-130 27.5z" />
    <glyph glyph-name="approxequal" horiz-adv-x="1681" 
d="M1411 0q-144 0 -201 -8q-6 -2 -8 7q-3 18 4 29q1 1 2 1q36 5 53 7.5t34.5 11.5t23.5 17t11.5 29.5t6 43.5t0.5 65v407q0 73 -11.5 103t-45.5 30h-367v-540q0 -56 6 -85.5t29 -50t61 -28t109 -10.5q6 0 6 -23q0 -15 -6 -14q-60 8 -274 8q-144 0 -203 -8q-9 -2 -5 25
q2 12 5 12q31 4 47 7t32 11t22 17.5t11 30t6 44t1 64.5v540h-373v-540q0 -31 0.5 -46.5t2.5 -36.5t6.5 -30t13 -21.5t20 -17t30 -10.5t42 -8t55.5 -4q6 0 6 -23q0 -15 -6 -14q-60 8 -240 8q-178 0 -237 -8q-9 -2 -5 25q2 12 5 12q41 5 59.5 7.5t40 10.5t28 17t14 29.5
t8.5 44t1 65.5v540q-25 0 -88.5 1t-72.5 1q-7 -3 -9 36q-1 14 0 14q13 1 43 2t42 2t31 3.5t31.5 7t22.5 11.5v31q0 127 42 244.5t110.5 201t159 133.5t184.5 50q141 0 244 -121q70 67 157.5 105t171.5 38q63 0 120 -31t57 -55q0 -40 -32 -84.5t-59 -44.5q-21 0 -58.5 21.5
t-83 43t-85.5 21.5q-246 0 -246 -459v-96h390q46 0 97 13t77 36q1 2 8.5 -0.5t14 -7.5t5.5 -10q-12 -47 -12 -293v-354q0 -44 0.5 -66t7 -44t12.5 -29.5t26 -16t38.5 -11t58.5 -7.5q6 0 7 -22q-2 -16 -9 -15q-59 8 -223 8zM623 1372q-56 0 -98 -24.5t-74 -79t-48 -149
t-16 -228.5v-72h373v55q0 206 110 373q-56 64 -114.5 94.5t-132.5 30.5z" />
    <glyph glyph-name="lozenge" horiz-adv-x="1394" 
d="M1106 -29q-101 0 -148 49.5t-45 153.5l7 557q-124 0 -144 -2q-5 0 -7.5 15t-0.5 22q85 30 142 64.5t84 71t36.5 66t9.5 64.5q0 112 -90 190t-229 78q-141 0 -224 -86.5t-83 -214.5q0 -75 51 -147q75 -6 131 -33q5 -2 11.5 -36t11 -84.5t2.5 -90.5q0 -4 -17.5 -4.5
t-19.5 2.5q-28 89 -88.5 145t-126.5 56q-54 0 -83.5 -34.5t-29.5 -94.5q0 -44 30 -81t74.5 -61.5t97 -54t97 -58.5t74.5 -76t30 -105q0 -111 -87.5 -191t-223.5 -80q-134 0 -246 62q-9 4 -14 233q0 5 15.5 5.5t21.5 -1.5q36 -127 104.5 -186t155.5 -59q141 0 141 141
q0 55 -41.5 99.5t-101 78t-118.5 68.5t-100.5 86.5t-41.5 115.5q0 96 74.5 167t203.5 75q-49 81 -49 184q0 96 47.5 187.5t135 152t190.5 60.5q113 0 198 -59.5t128 -158.5t43 -221q0 -21 -7 -98.5t-8 -97.5h105q155 0 180 6q4 2 7 -8q7 -29 -3 -64q-3 -13 -8 -14
q-69 6 -150 6h-135l-4 -510q0 -64 29.5 -105.5t83.5 -41.5q90 0 184 30q2 1 6 -5.5t5.5 -13.5t-1.5 -11q-65 -47 -144.5 -75t-127.5 -28z" />
    <glyph glyph-name="fraction" horiz-adv-x="1132" 
d="M90 -68q-4 -4 -13 -1t-17 11t-5 13l987 1427q4 4 13 1t17 -10.5t5 -12.5z" />
    <glyph glyph-name="fi" horiz-adv-x="1150" 
d="M883 0q-142 0 -199 -8q-14 -2 -7 26q3 11 5 11q35 5 52 7.5t34.5 11t23.5 17t12 29.5t6.5 44t0.5 65v407q0 73 -11.5 103t-45.5 30h-369v-540q0 -56 4.5 -84t24 -50t54 -29.5t99.5 -10.5q6 0 6 -23q0 -15 -6 -14q-60 8 -252 8q-176 0 -235 -8q-6 -2 -7 7q-3 18 5 29
q1 1 2 1q41 5 59.5 7.5t40 10.5t28 17t14 29.5t8.5 44t1 65.5v540q-27 0 -90 1t-71 1q-5 -2 -8 8q-8 22 -3 39q1 3 2 3q13 1 42 2t41.5 2t32 3.5t32 7t22.5 11.5v53q0 127 49 245.5t126.5 201t175 132.5t192.5 50q62 0 118 -31t56 -55q0 -41 -31 -85t-59 -44q-21 0 -58 21.5
t-82 43t-85 21.5q-248 0 -248 -459v-96h391q47 0 97 13t75 36q1 2 9 -0.5t15.5 -7.5t6.5 -10q-14 -55 -14 -293v-354q0 -42 1 -65.5t8.5 -44t14 -29.5t28 -17t40 -10.5t59.5 -7.5q6 0 7 -22q-2 -16 -9 -15q-59 8 -231 8z" />
    <glyph glyph-name="fl" horiz-adv-x="1150" 
d="M883 0q-142 0 -199 -8q-14 -2 -7 26q3 11 5 11q35 5 52 7.5t34.5 11t23.5 17t12 29.5t6.5 44t0.5 65v540h-426v-540q0 -56 4.5 -84t24 -50t54 -29.5t99.5 -10.5q6 0 6 -23q0 -15 -6 -14q-60 8 -252 8q-176 0 -235 -8q-6 -2 -7 7q-3 18 5 29q1 1 2 1q41 5 59.5 7.5
t40 10.5t28 17t14 29.5t8.5 44t1 65.5v540q-27 0 -90 1t-71 1q-5 -2 -8 8q-8 22 -3 39q1 3 2 3q13 1 42 2t41.5 2t32 3.5t32 7t22.5 11.5v53q0 128 41.5 245.5t110 201t158.5 133t184 49.5q47 0 91 -13t69 -34q53 42 63 51q1 2 9 0t15.5 -6.5t6.5 -9.5q-14 -55 -14 -293
v-995q0 -42 1 -65.5t8.5 -44t14 -29.5t28 -17t40 -10.5t59.5 -7.5q6 0 7 -22q-2 -16 -9 -15q-59 8 -231 8zM811 1294q-26 39 -80.5 65.5t-116.5 26.5q-77 0 -125.5 -40.5t-76 -146.5t-27.5 -284v-96h426v475z" />
    <glyph glyph-name="apple" horiz-adv-x="1980" 
d="M1776 0h-1571v1536h1571v-1536zM1757 -213h-12q0 1 -1 6t-1 6l-4 27q-19 -35 -21 -41h-4l-20 41l-4 -27q0 -10 -2 -12h-13q4 12 4 23l4 22q1 3 2.5 12.5t2.5 12.5h2q6 -12 6 -15l20 -37l21 37q6 12 6 15h2q4 -12 4 -25l4 -22q1 -3 2 -11.5t2 -11.5zM1649 -178
q0 -15 -10 -26t-25 -11t-25 10.5t-10 24.5q0 16 10 26.5t27 10.5q13 0 23 -10.5t10 -24.5zM1550 -197l-2 -12q-6 -6 -20 -6q-17 0 -27 10t-10 25t11 26t26 11q12 0 22 -7l-4 -10q-6 6 -18 6q-9 0 -16 -7t-7 -17q0 -27 25 -27q8 0 20 8zM1436 -145l-27 -39v-15v-14h-14v23v6
l-11 16q-2 3 -8 11.5t-8 11.5l14 2l21 -31l4 8l14 21h15zM1341 -213h-14q2 4 2 23v8h-33v-17v-14h-14q2 4 2 23v22q0 19 -2 23h14v-15v-12h33v4q0 19 -2 23h14v-15v-39v-14zM1253 -166q0 -24 -30 -24h-6v-9v-14h-15q2 4 2 23v22q0 19 -2 23q2 0 10 1t13 1q13 0 20.5 -7.5
t7.5 -15.5zM1176 -213h-13l-8 16h-29v-2q-4 -8 -6 -14h-14l24 49q6 12 9 21h4l22 -50q9 -13 11 -20zM1092 -213h-15l-16 27h-10v-13v-14h-15v23v22v23h21q28 0 28 -19q0 -13 -14 -20l10 -15q1 -2 5.5 -7t5.5 -7zM1004 -207q-12 -8 -27 -8t-26 10t-11 25t11 26t28 11
q8 0 22 -9l-4 -10q-8 8 -20 8q-23 0 -23 -26q0 -10 7 -17.5t18 -7.5q4 0 12 4v8v7h-6h-12v10h14h17v-23v-8zM913 -178q0 -15 -9.5 -26t-24.5 -11t-25 10.5t-10 24.5q0 16 10 26.5t27 10.5q13 0 22.5 -10.5t9.5 -24.5zM819 -166q0 -24 -31 -24h-6v-9q0 -12 2 -14h-14v23v22
v23l8 1q8 1 13 1q13 0 20.5 -7.5t7.5 -15.5zM743 -145l-26 -39v-15v-14h-15v23v6l-10 16q-14 21 -16 23l14 2l21 -31l4 8l14 21h14zM659 -143q-2 -4 -2 -13h-22v-6v-37v-14h-14q2 4 2 23v20v14h-25v13q10 -2 31 -2q20 0 30 2zM545 -145l-19 -50q-2 -5 -4.5 -11t-3.5 -7
l-2 -2l-18 45l-13 -25q-4 -8 -8 -20h-2l-18 51q-1 3 -4 9.5t-4 9.5l14 2l14 -45l12 26q0 1 3.5 9t3.5 10h2l18 -45l10 24q1 3 3 9.5t3 9.5h13zM430 -145l-18 -50q-6 -12 -6 -18l-5 -2l-18 45l-12 -25q-7 -14 -9 -20h-2l-18 51q-5 14 -8 19l14 2l14 -45l13 26q0 1 3 9t3 10h4
l18 -45l9 24q1 3 3 9.5t3 9.5h12zM317 -145l-20 -50q-3 -12 -6 -18l-2 -2l-21 45l-10 -25q-1 -1 -3 -5l-4 -8t-3 -7h-2l-19 51q-1 3 -3 9.5t-3 9.5l12 2l17 -45l10 26q1 1 4 9.5t4 9.5h2l19 -45l8 24q1 3 3 9.5t3 9.5h14zM1464 -207q0 -8 -8 -8t-8 8t8 8t8 -8zM573 -207
q0 -8 -8 -8q-6 0 -6 8t8 8q6 0 6 -8zM1145 1405q-2 5 -4 13t-4 12q-6 -3 -31 -3q-24 0 -33 3q0 -5 -4 -25h2h2q3 11 6.5 14.5t12.5 3.5q6 0 6 -6v-45q0 -10 -11 -12q-2 0 -2 -2t2 -2h19h16q2 0 2 2t-2 2q-10 2 -10 12v45q0 6 6 6q17 0 23 -18h4zM1030 1356v2v2q-8 1 -10 3.5
t-2 8.5v39q0 5 0.5 7t3 3.5t8.5 1.5v2v2h-18h-19v-2v-2q11 0 11 -12v-16h-35v16q0 12 10 12v2v2h-18h-17q-2 0 -2 -2t2 -2q10 0 10 -12v-39q0 -10 -10 -12q-2 0 -2 -2t2 -2h17h18v2v2q-7 1 -8.5 3.5t-1.5 8.5v19h35v-19q0 -10 -11 -12v-2v-2h19h18zM899 1358l-2 2
q-7 1 -8.5 3.5t-1.5 8.5v39q0 12 10 12q2 0 2 2l-2 2h-33h-24q0 -12 -4 -20q2 -2 4 -2v2q5 16 18 16h6q8 0 8 -8v-20h-8q-12 0 -12 10q0 2 -2 2t-2 -2v-12v-13q0 -2 2 -2l2 2q0 13 12 13h8v-25q0 -6 -8 -6h-6q-15 0 -24 18l-3 -2q1 -4 4.5 -11t4.5 -11h24h33q2 0 2 2z
M1692 1268v8h-1403v-8h1403zM1421 1106q0 31 -22.5 54.5t-50.5 23.5q-16 0 -30.5 -11.5t-14.5 -33.5q0 -32 22.5 -55t50.5 -23q16 0 30.5 11.5t14.5 33.5zM1202 1098q0 22 -26 37q8 8 8 18t-12 20.5t-29 10.5q-11 0 -19 -8t-8 -17q0 -12 10 -12q9 0 9 6q0 4 -3.5 6.5
t-3.5 5.5q0 5 4.5 9t10.5 4q20 0 20 -25q0 -8 -4 -12h-16q-17 0 -17 -13q0 -4 5.5 -8t11.5 -4q12 0 22 10q13 -10 13 -30q0 -29 -25 -29t-25 18q0 7 7 7q1 0 4 -2.5t6 -2.5q8 0 8 11q0 10 -14 10q-7 0 -13 -6.5t-6 -14.5q0 -11 10 -18.5t23 -7.5q22 0 35.5 10.5t13.5 26.5z
M598 1098q0 24 -27 37q9 9 9 18q0 10 -12 20.5t-29 10.5q-10 0 -18.5 -8t-8.5 -17q0 -12 10 -12t10 6q0 4 -3 6.5t-3 5.5q0 13 13 13q20 0 20 -25q0 -5 -1 -9l-1 -3h-18q-5 0 -10 -3.5t-5 -9.5q0 -4 5 -8t10 -4q14 0 24 10q12 -12 12 -30q0 -29 -24 -29q-25 0 -25 18
q0 7 4 7l4 -2q4 -3 7 -3q10 0 10 11q0 10 -16 10q-7 0 -13 -6.5t-6 -14.5q0 -11 10 -18.5t25 -7.5q22 0 34.5 10.5t12.5 26.5zM1679 1065q0 4 -4 4q-8 2 -11.5 4.5t-4.5 5t-2 8.5l-17 68q-2 2 -2 8q0 8 17 11q2 0 2 2q0 4 -4 4q-5 0 -14.5 -1t-14.5 -1q-6 0 -14 1t-13 1v-2
q0 -4 2 -4q3 0 5 -1l4 -2t3 -2t2 -3l1.5 -3l2 -4t1.5 -4l6 -29h-51l-8 29v8q0 9 14 11v2q0 4 -2 4q-6 0 -14.5 -1t-14.5 -1q-5 0 -13 1t-13 1v-2v-4q4 0 7.5 -1.5t5.5 -2t3.5 -3t2 -3.5t2 -4.5t1.5 -4.5l15 -68q2 -2 2 -8q0 -8 -17 -10v-2q0 -4 2 -4q6 0 15.5 1t15.5 1
t13 -1t12 -1v2v4q-13 3 -16 6.5t-3 11.5l-8 31h51l6 -31q2 -2 2 -8q0 -8 -14 -10v-2q0 -4 2 -4q6 0 14.5 1t14.5 1t13.5 -1t12.5 -1q2 0 2 2zM1018 1063v2q0 4 -2 4q-11 3 -14.5 6t-6.5 12l-14 68q-2 2 -2 8q0 9 14 11q2 0 2 2l-2 4q-3 0 -23.5 -1t-27.5 -1q-6 0 -20.5 1
t-20.5 1q2 -4 2 -15q0 -3 -1 -9.5t-1 -10.5q0 -2 4 -2q2 0 2 2q3 26 29 26h8q10 0 12 -12l7 -33h-9q-17 0 -24 19q0 2 -4 2q-2 0 -2 -2q1 -5 3 -11.5t3 -11.5q1 -4 2 -12t2 -12h4h2q-2 22 16 22h11l6 -33q2 -2 2 -8q0 -7 -17 -10q-2 0 -2 -2q3 -4 5 -4q5 0 14 1t14 1
q6 0 14.5 -1t14.5 -1zM416 1065l-2 4q-12 3 -16 6t-7 12l-14 68q-2 2 -2 8q0 8 16 11v2v4q-6 0 -13.5 -1t-12.5 -1t-14 1t-15 1q-41 0 -41 -27q0 -11 12 -21.5t27 -13.5l-17 -33q-10 -15 -28 -18q-2 0 -2 -4q0 -2 4 -2q3 0 15.5 1t21.5 1l24 47q2 6 10 6l9 -29v-8
q0 -7 -17 -10v-2q0 -4 2 -4q5 0 15 1t16 1q5 0 13.5 -1t13.5 -1q2 0 2 2zM817 1067q0 5 -7 11t-19 7q-6 8 -10.5 35t-15.5 45.5t-34 18.5q-10 0 -18 -7t-8 -14q0 -10 10 -10q8 0 8 12q0 13 10 13q11 0 14.5 -15.5t8 -39.5t16.5 -38q-16 0 -25.5 -13t-17.5 -13q-10 0 -10 8
q0 3 2 5.5t2 4.5q0 8 -10 8q-11 0 -11 -12q0 -9 8 -15.5t19 -6.5q20 0 32.5 12t22.5 12q10 -14 25 -14q8 0 8 6zM1692 975v8h-1403v-8h1403zM1690 774v127h-301v-127h73v57h23v-133h-29v-67h166v67h-29v133h23v-57h74zM1319 831v70h-166v-70h23l-31 -47l-31 47h21v70h-127
v-70h24l76 -94v-39h-29v-67h166v67h-31v41l76 92h29zM932 631v67h-29v133h29v70h-197q-43 0 -69.5 -23.5t-26.5 -58.5q0 -36 26 -59t70 -23h62v-39h-31v-67h166zM567 631v67h-28v133h28v70h-288v-127h83v57h68v-40h-49v-50h49v-43h-68v58h-83v-125h288zM1692 557v8h-1403v-8
h1403zM1485 393q0 30 -23 54t-51 24q-16 0 -29.5 -11t-13.5 -34q0 -30 22.5 -54t49.5 -24q16 0 30.5 11.5t14.5 33.5zM846 350v4q0 4 -2 4q-13 1 -16 5t-5 14l-16 65v9q0 8 14 10v2v4h-30q-7 0 -17 1t-14 1q-20 0 -35.5 -12.5t-15.5 -34.5q0 -31 21.5 -50.5t49.5 -19.5h31
q27 0 35 -2zM414 440q4 4 0 4q-15 27 -37 27q-29 0 -29 -37v-10q-14 47 -49 47q-18 0 -18 -25v-2h6q0 13 16 13q32 0 49 -68l2 -12v-8q0 -9 -14 -11v-4q0 -4 2 -4q6 0 15.5 1t15.5 1q5 0 12 -1t12 -1q2 2 2 4l-2 4q-7 1 -10.5 2t-5.5 4t-2.5 5t-1.5 8l-4 16q-6 18 -6 35
q0 27 18 27q10 0 25 -15h4zM1686 354q-3 4 -5 4q-6 1 -9.5 2t-5 4t-2 5t-1.5 8l-18 65v9q0 7 16 10l2 2q0 4 -4 4h-51h-39v-12v-23q-1 0 0 -1t2 -1l2 2q5 27 29 27h8q9 0 12 -13l8 -30h-10q-7 0 -10.5 0.5t-7.5 4.5t-7 13h-2h-4q1 -7 3 -13.5t3 -10.5q1 -2 3 -10.5t4 -14.5
h2h2q-3 23 16 23h10l6 -31q0 -2 1 -4.5t1 -3.5q0 -9 -16 -11v-4q0 -4 2 -4q6 0 15.5 1t15.5 1t13.5 -1t12.5 -1q3 2 3 4zM1270 461q0 6 -2 6h-31h-29v-2q0 -4 2 -4q13 -1 16 -5t5 -14l10 -43q4 -16 4 -20q0 -21 -26 -21q-30 0 -41 45l-9 39q0 2 -1 5t-1 4q0 7 17 10v4v2h-25
h-22v-2q0 -4 2 -4q13 -1 16.5 -5t5.5 -14l10 -41q14 -53 54 -53q22 0 32.5 10t10.5 23q0 4 -4 16l-11 45q0 2 -1 5t-1 4q0 7 19 10zM1069 354l-2 4q-18 3 -18 19l-15 65q-2 2 -2 7q0 9 19 12l2 2q0 4 -4 4h-11h-18l-62 -82l-8 57q-3 16 15 19l2 2q0 4 -4 4q-3 0 -10 -1
t-13 -1q-4 0 -10 1t-10 1v-2v-4q17 -2 20 -19l16 -92q0 -2 2 -2h5l63 90l10 -61q3 -16 -12 -19q-2 0 -2 -4l2 -4q2 0 11 1t14 1q4 0 9.5 -1t8.5 -1q2 0 2 4zM627 354l-2 4q-13 1 -16 5t-5 14l-16 65v9q0 8 14 10l2 2q0 4 -4 4h-25h-28q-39 0 -39 -25q0 -12 11.5 -22
t25.5 -12l-19 -33q-7 -14 -24 -21q-2 0 -2 -2l2 -4q20 4 37 4l24 45q4 6 12 6l7 -26v-8q0 -9 -15 -11q-2 0 -2 -4l2 -4q6 0 15.5 1t15.5 1t14 -1t13 -1q2 2 2 4zM1692 262v8h-1403v-8h1403zM1421 96v2v2q-12 0 -12 11l-2 41q0 10 12 10v4v2q-2 0 -5 -1t-5 -1t-5 1t-5 1
l-49 -51v35q0 4 0.5 5.5t3 3t8.5 1.5v4v2q-3 0 -8 -1t-8 -1q-2 0 -7 1t-8 1v-2v-4q8 0 10 -2t2 -8v-58h5h2l51 56l2 -39q0 -11 -10 -11l-2 -2q0 -2 2 -2h12h16zM1294 94v4v2q-8 0 -10 2.5t-2 8.5v41q0 4 0.5 5.5t3 3t8.5 1.5v4v2q-4 0 -16 -1t-16 -1q-5 0 -13 1t-12 1
q-4 -16 -4 -21v-2q2 0 2 2q5 15 20 15h5q8 0 8 -8v-19h-8q-11 0 -13 10q0 2 -2 2v-2v-14v-12h2q2 12 13 12h8v-22q0 -9 -8 -9h-5q-18 0 -24 19h-2q-2 0 -2 -2q5 -7 8 -23q8 2 25 2q26 0 34 -2zM1192 166h-14q-3 0 -8 1t-9 1v-2v-4q4 0 4 -6v-4l-18 -39l-12 18l10 19
q3 12 12 12q2 2 2 4l-2 2q-4 0 -7 -1t-7 -1q-3 0 -7 1t-8 1q-2 0 -5 -1t-5 -1t-6.5 1t-7.5 1v-2q0 -4 2 -4q8 0 14 -12l6 -11l-14 -26l-16 37v6q0 6 4 6q2 0 2 4q0 2 -2 2t-6 -1t-7 -1q-2 0 -5 1t-5 1v-2v-4q7 0 13 -12l24 -56h2h2l15 31l18 -31h2l25 56q9 11 12 12q2 0 2 4
zM981 162v4h-16q-4 0 -9 1t-8 1l-2 -2q0 -4 2 -4q4 0 4 -4t-2 -6l-12 -19l-12 19l-2 4q0 6 8 6v4v2q-3 0 -8.5 -1t-8.5 -1q-2 0 -6 1t-6 1v-2v-4q9 0 17 -10l16 -25v-16q0 -11 -10 -11v-2v-4q2 0 7 1t11 1q3 0 8.5 -1t8.5 -1q2 0 2 4q0 2 -2 2q-11 0 -11 11v16l17 25
q5 10 14 10zM868 131q0 15 -11.5 26t-29.5 11t-28.5 -10.5t-10.5 -26.5t10.5 -26.5t28.5 -10.5t29.5 11t11.5 26zM745 98q0 2 -2 2q-10 0 -10 11v41q0 10 10 10q2 0 2 4q0 2 -2 2q-3 0 -8.5 -1t-9.5 -1t-9 1t-9 1q-10 0 -17.5 -5t-7.5 -13q0 -13 16 -19l-16 -22
q-4 -9 -14 -9v-2v-2h12h12l13 23q7 10 14 10v-18q0 -11 -10 -11l-2 -2q0 -4 2 -4q3 0 7.5 1t8.5 1q5 0 10 -1t8 -1q2 0 2 4zM631 94v4v2q-13 0 -13 11v41q0 10 13 10v4v2q-3 0 -9 -1t-10 -1t-9 1t-9 1v-2v-4q8 0 10 -2t2 -8v-21q-5 0 -8 6l-16 17q-4 4 -4 6t6 2v4v2
q-3 0 -7.5 -1t-7.5 -1t-6.5 1t-5.5 1v-2v-4q8 0 16 -8l19 -19l-27 -26q-9 -9 -14 -9l-2 -2q0 -4 2 -4q3 0 7.5 1t8.5 1q3 0 10 -1t11 -1v4v2q-6 0 -6 4q0 3 2 5l14 16q4 4 8 4v-18v-4.5t-1 -3t-4 -2.5t-7 -1v-2v-4q4 0 9 1t9 1t10 -1t9 -1zM1071 -166q0 12 -14 12h-6v-6v-18
h8q12 0 12 12zM1239 -168q0 12 -14 12h-8v-4v-20h4q18 0 18 12zM805 -168q0 12 -14 12h-9v-4v-20h6q17 0 17 12zM1151 -188l-10 22l-11 -22h21zM1634 -180q0 26 -20 26q-9 0 -15 -7t-6 -17q0 -12 6 -19.5t15 -7.5q20 0 20 25zM899 -180q0 26 -20 26q-9 0 -15 -7t-6 -17
q0 -12 6 -19.5t15 -7.5q20 0 20 25zM360 1122h-10q-31 0 -31 31q0 18 17 18q9 0 12 -2t6 -10zM1157 1133q-6 -9 -14 -9t-8 4q0 7 8 7q10 0 14 -2zM553 1133q-6 -9 -14 -9q-7 0 -7 4q0 7 7 7q10 0 14 -2zM1399 1096q0 -29 -25 -29q-19 0 -34 24.5t-15 55.5t25 31q19 0 34 -25
t15 -57zM797 786h-23q-26 0 -26 23q0 22 26 22h23v-45zM573 412h-10q-31 0 -31 28q0 21 17 21q14 0 14 -15zM1460 385q0 -31 -20 -31q-21 0 -35 24.5t-14 57.5q0 29 20 29q21 0 35 -24t14 -56zM803 373q0 -13 -8 -13h-11q-23 0 -38 19t-15 45q0 37 29 37l12 -2q8 0 12 -13z
M1135 158q0 -2 -7 -13l-4 11q0 6 4 6q7 0 7 -4zM719 133h-6q-17 0 -17 17q0 12 15 12q5 0 6.5 -1t1.5 -7v-21zM852 131q0 -33 -25 -33q-24 0 -24 33q0 35 24 35q25 0 25 -35z" />
    <glyph glyph-name="dotlessi" horiz-adv-x="559" 
d="M297 0q-172 0 -231 -8q-9 -2 -5 25q2 12 5 12q41 5 59.5 7.5t40 10.5t28 17t14 29.5t8.5 44t1 65.5v346q0 96 -24.5 119t-102.5 -2q-7 -2 -12 11t2 19q212 118 276 178q1 2 8.5 -0.5t14.5 -7.5t6 -10q-12 -49 -12 -299v-354q0 -42 1 -65.5t8 -44t13.5 -29.5t27.5 -17
t39.5 -10.5t59.5 -7.5q6 0 6 -23q0 -15 -6 -14q-59 8 -225 8z" />
    <glyph glyph-name="breve" horiz-adv-x="727" 
d="M365 983q-132 0 -214.5 86.5t-82.5 210.5q0 12 15 13t17 -11q12 -92 89 -146.5t176 -54.5q97 0 173.5 55t88.5 146q1 12 18 11t17 -13q0 -124 -82.5 -210.5t-214.5 -86.5z" />
    <glyph glyph-name="dotaccent" horiz-adv-x="520" 
d="M260 1030q-41 0 -69.5 27.5t-28.5 64.5q0 39 29.5 69t72.5 30q39 0 67.5 -29t28.5 -66q0 -39 -29 -67.5t-71 -28.5z" />
    <glyph glyph-name="ring" horiz-adv-x="483" 
d="M242 977q-77 0 -131 52.5t-54 127.5q0 74 54.5 127t130.5 53t131 -53t55 -127q0 -75 -54.5 -127.5t-131.5 -52.5zM242 1296q-60 0 -102 -41t-42 -98q0 -58 42 -98.5t102 -40.5q59 0 101 40.5t42 98.5q0 57 -42 98t-101 41z" />
    <glyph glyph-name="hungarumlaut" horiz-adv-x="655" 
d="M78 956q-7 -6 -15.5 -5.5t-14.5 7.5t-1 15l266 416q6 9 28.5 0.5t39 -25t8.5 -27.5zM295 956q-6 -7 -15.5 -5t-14 9t0.5 15l287 403q7 9 28 -0.5t36.5 -27t7.5 -25.5z" />
    <glyph glyph-name="ogonek" horiz-adv-x="489" 
d="M258 -524q-97 0 -155 56t-58 146q0 169 346 400q8 5 21 -9.5t4 -21.5q-144 -112 -196 -188.5t-52 -153.5q0 -63 40.5 -104t102.5 -41q76 0 140 61q3 4 12 -1.5t15 -13.5t1 -12q-42 -50 -101 -84t-120 -34z" />
    <glyph glyph-name="caron" horiz-adv-x="608" 
d="M322 954q-5 -7 -17.5 -7.5t-19.5 9.5l-238 412q-5 8 1 15t15 7t15 -6l231 -301l221 301q8 8 17 7.5t15 -8t1 -15.5z" />
    </font>
</defs>
</svg>
